<?xml version="1.0" encoding="UTF-8" standalone="no"?>
<!-- Created with Inkscape (http://www.inkscape.org/) -->

<svg
   xmlns:dc="http://purl.org/dc/elements/1.1/"
   xmlns:cc="http://creativecommons.org/ns#"
   xmlns:rdf="http://www.w3.org/1999/02/22-rdf-syntax-ns#"
   xmlns:svg="http://www.w3.org/2000/svg"
   xmlns="http://www.w3.org/2000/svg"
   xmlns:sodipodi="http://sodipodi.sourceforge.net/DTD/sodipodi-0.dtd"
   xmlns:inkscape="http://www.inkscape.org/namespaces/inkscape"
   width="210mm"
   height="297mm"
   viewBox="0 0 744.09448819 1052.3622047"
   id="svg2"
   version="1.1"
   inkscape:version="0.91 r13725"
   sodipodi:docname="thankyou.svg">
  <defs
     id="defs4" />
  <sodipodi:namedview
     id="base"
     pagecolor="#ffffff"
     bordercolor="#666666"
     borderopacity="1.0"
     inkscape:pageopacity="0.0"
     inkscape:pageshadow="2"
     inkscape:zoom="0.7"
     inkscape:cx="239.48062"
     inkscape:cy="405.65955"
     inkscape:document-units="px"
     inkscape:current-layer="layer1"
     showgrid="false"
     inkscape:window-width="1920"
     inkscape:window-height="1017"
     inkscape:window-x="-8"
     inkscape:window-y="-8"
     inkscape:window-maximized="1" />
  <metadata
     id="metadata7">
    <rdf:RDF>
      <cc:Work
         rdf:about="">
        <dc:format>image/svg+xml</dc:format>
        <dc:type
           rdf:resource="http://purl.org/dc/dcmitype/StillImage" />
        <dc:title></dc:title>
      </cc:Work>
    </rdf:RDF>
  </metadata>
  <g
     inkscape:label="Layer 1"
     inkscape:groupmode="layer"
     id="layer1">
    <path
       style="fill:#000000"
       d="m 388.17704,861.13226 c -23.29339,-1.55629 -41.49494,-6.2218 -57.41038,-14.71573 -5.24599,-2.79975 -16.23989,-10.06922 -20.83784,-13.77861 -19.87712,-16.03578 -31.61918,-39.06494 -33.66995,-66.03532 -1.97774,-26.00996 8.27296,-54.25714 29.19101,-80.43971 5.26968,-6.5959 19.09393,-20.53021 26.16731,-26.3756 25.69208,-21.23185 56.33769,-37.68234 88.66714,-47.59635 38.26593,-11.73446 78.53646,-18.6465 128.00387,-21.97059 11.60634,-0.77992 33.36606,-1.00336 43.11596,-0.44274 5.81563,0.3344 6.10647,0.31337 5.88112,-0.42526 -0.13038,-0.42738 -1.78929,-4.21576 -3.68643,-8.41862 -10.1459,-22.4767 -19.26292,-49.81232 -27.66202,-82.93925 -2.37211,-9.35576 -4.95519,-19.49826 -5.74018,-22.53889 -0.78504,-3.04062 -3.74996,-14.71406 -6.5888,-25.94098 -2.8388,-11.22692 -5.93096,-22.70899 -6.87143,-25.51572 -1.76284,-5.26088 -5.75877,-13.97377 -8.73671,-19.04976 -2.19473,-3.74107 -2.1619,-3.77883 -5.8943,6.77391 -2.43403,6.88173 -5.57149,13.39666 -7.98204,16.5746 -5.4394,7.17111 -14.98811,13.83098 -23.73745,16.55603 -2.917,0.90852 -3.76706,0.66565 -3.76706,-1.07625 0,-0.92642 0.4931,-1.83356 1.72032,-3.16497 1.25044,-1.35656 2.48059,-3.64808 4.50373,-8.38943 2.80771,-6.5801 6.95908,-16.89991 6.95908,-17.29948 0,-0.45951 -2.51624,2.1548 -9.84975,10.2337 -7.85872,8.65749 -12.42237,12.99706 -16.76881,15.94546 -5.26904,3.57425 -10.97912,5.87939 -15.69502,6.33603 -2.21969,0.21493 -2.74004,0.11709 -4.00052,-0.75221 -3.8823,-2.67746 -5.05492,-6.48795 -4.56077,-14.82028 0.443,-7.46905 1.91113,-12.45396 7.38953,-25.09046 1.97734,-4.56094 4.12967,-9.72787 4.783,-11.48208 0.65333,-1.7542 3.2348,-7.49524 5.73666,-12.75786 2.50182,-5.26262 5.3683,-11.48207 6.37,-13.82101 4.91926,-11.48665 7.31349,-21.91455 5.57119,-24.26498 -0.60115,-0.81099 -0.64784,-0.80682 -2.65789,0.23767 -4.51033,2.3437 -11.07646,10.46448 -18.38561,22.73863 -9.16699,15.39409 -15.44262,27.84336 -26.88681,53.33673 -3.7389,8.32884 -7.39343,16.44736 -8.12123,18.04115 -1.23815,2.71147 -1.57134,3.06894 -5.18139,5.55944 -2.12197,1.46391 -5.96319,4.1547 -8.53603,5.97955 -4.85717,3.44506 -11.59298,7.03894 -13.19265,7.03894 -0.507,0 -1.24491,-0.35701 -1.63977,-0.79335 -1.28076,-1.4152 -0.38805,-4.00735 5.80466,-16.85503 17.96477,-37.27064 26.51454,-58.01094 34.79332,-84.40281 1.96523,-6.2649 2.09519,-7.67175 0.707,-7.65458 -0.52626,0.007 -1.70857,0.58061 -2.62731,1.27578 -1.90339,1.44017 -2.79478,1.60211 -2.79478,0.50775 0,-1.58576 2.1133,-3.66536 7.86735,-7.74185 9.77541,-6.92547 16.85564,-10.14679 19.70647,-8.96593 0.69301,0.28704 1.70947,1.00058 2.25882,1.58566 1.53813,1.63806 1.37394,6.58829 -0.41275,12.44422 -0.74392,2.43828 -1.35259,4.6169 -1.35259,4.84138 0,0.22447 2.1855,-1.70908 4.85674,-4.29678 5.59267,-5.41785 11.73541,-10.41553 16.61899,-13.52107 8.09218,-5.14595 12.71015,-6.97883 17.58323,-6.97883 2.48195,0 2.81387,0.11244 4.07983,1.3821 3.19831,3.20762 4.24148,10.91953 2.46121,18.19501 -1.16956,4.77969 -5.61797,16.57348 -8.17133,21.66402 -7.83647,15.62357 -15.90833,34.51523 -21.32447,49.90866 -1.65648,4.70785 -2.07056,6.43432 -2.07056,8.63267 0,3.05455 0.86142,5.25726 2.05593,5.25726 1.31338,0 5.70489,-2.92113 8.50741,-5.6589 2.71798,-2.65516 11.94787,-13.08971 14.36697,-16.2421 1.88162,-2.452 5.50625,-8.7377 7.46858,-12.95177 2.20379,-4.73258 9.09759,-22.00526 9.71903,-24.35136 1.59605,-6.0258 6.9472,-23.42314 10.17426,-33.07773 16.05569,-48.03545 35.01195,-81.124 60.66389,-105.89025 25.51781,-24.63673 55.43512,-38.88077 88.37307,-42.07561 10.39842,-1.00861 26.78819,-0.34458 36.39235,1.47444 4.48277,0.84902 14.32563,3.29187 19.12234,4.74587 12.78673,3.87596 29.28103,12.8023 40.83961,22.10151 5.0388,4.05384 14.13584,13.18574 17.95848,18.02725 9.54989,12.0953 15.35872,23.72852 20.11404,40.28212 4.47401,15.57412 6.17119,28.12895 6.18255,45.73449 0.007,11.19248 -0.63679,19.06654 -2.389,29.20856 -5.12806,29.68218 -18.7333,58.98455 -38.40431,82.71346 -7.37978,8.9022 -15.12729,16.12994 -26.21328,24.45474 -25.17117,18.9018 -51.58216,29.89066 -77.73658,32.34404 -6.8369,0.64132 -21.89496,0.28961 -27.72841,-0.64766 -9.22899,-1.48283 -19.61976,-4.39579 -24.66324,-6.9141 -8.42691,-4.20774 -15.53691,-10.39889 -18.21763,-15.86337 -2.87448,-5.85941 -2.89514,-9.56601 -0.0708,-12.69224 1.46958,-1.62667 5.16417,-3.70435 7.37252,-4.14603 1.51066,-0.30213 1.63313,-0.0289 2.18993,4.88643 0.79715,7.03685 3.356,12.57811 8.19901,17.75532 7.23745,7.73685 17.52088,11.90389 31.67317,12.83457 19.57971,1.28758 39.18935,-4.20538 63.18846,-17.70002 13.61851,-7.65767 31.28406,-24.10474 44.16198,-41.11587 2.9639,-3.91516 9.79425,-14.43451 12.17329,-18.74796 17.77842,-32.23385 24.89221,-67.33214 21.13587,-104.28073 -2.51619,-24.74982 -9.50546,-45.98885 -20.80956,-63.23607 -12.71691,-19.40287 -31.61331,-34.20932 -52.56001,-41.1839 -19.59999,-6.52619 -42.28793,-6.94371 -59.97165,-1.10365 -27.98564,9.24225 -54.93131,31.81305 -75.91544,63.58992 -9.38617,14.21374 -17.37527,30.20055 -23.14468,46.31429 -0.75369,2.10505 -2.56811,6.98493 -4.03203,10.84418 -1.46397,3.85925 -3.65998,10.07871 -4.88001,13.82102 -2.8092,8.61665 -2.70824,8.2466 -2.00324,7.3417 1.78882,-2.29612 10.08169,-11.16624 12.08688,-12.92822 9.03167,-7.93623 18.0002,-11.83036 24.7631,-10.75212 5.46304,0.87101 11.19902,5.35599 12.52184,9.79089 2.28251,7.65253 0.41055,17.66449 -4.8024,25.68454 -2.97229,4.5728 -14.84284,16.21636 -21.75309,21.33705 -8.85927,6.56497 -16.73789,11.30955 -28.84561,17.37104 l -6.94462,3.47668 2.26674,1.62021 c 6.12934,4.38112 11.35339,9.93989 16.12691,17.16032 7.73637,11.70202 13.41366,26.25492 20.84379,53.43018 10.50755,38.43059 16.71004,58.89378 24.49076,80.79979 3.84071,10.81327 10.61858,27.88918 14.51096,36.5585 3.28881,7.32488 1.90097,6.37803 11.55935,7.88656 31.38498,4.90197 62.966,15.13478 87.18404,28.24918 14.86852,8.05145 30.00262,18.33045 39.27686,26.67656 3.89353,3.50386 10.00782,10.67697 13.04967,15.30943 5.90838,8.99795 7.37979,18.40603 4.02668,25.74622 -1.65312,3.61872 -6.15707,7.76503 -10.91477,10.04809 -8.9294,4.28481 -18.98391,4.75294 -36.93852,1.71976 -18.71242,-3.16119 -46.29177,-15.27222 -64.96524,-28.52845 -14.05109,-9.97477 -25.46346,-21.18434 -36.18521,-35.54208 -7.94513,-10.63955 -11.88374,-16.65003 -18.77,-28.64357 l -5.64833,-9.83751 -3.23752,-0.26995 c -1.78066,-0.14847 -8.69155,-0.46432 -15.35754,-0.70189 -42.57744,-1.5174 -86.26032,4.07841 -125.87756,16.125 -23.60009,7.17621 -49.19019,18.17404 -65.91562,28.32858 -47.14051,28.62039 -80.7551,66.44591 -92.22294,103.77588 -3.73203,12.1485 -4.37578,30.43375 -1.55692,44.22325 3.04682,14.90457 10.25335,28.40588 20.088,37.6344 11.09382,10.41008 28.58019,18.75695 47.53824,22.69177 19.14203,3.97297 38.02179,4.457 58.68617,1.50458 31.13113,-4.4479 61.19053,-15.62239 96.95974,-36.04445 17.0565,-9.73824 41.16337,-31.39627 54.26263,-48.75045 15.29341,-20.26105 23.5238,-40.31241 25.51033,-62.14949 1.804,-19.83116 -5.85369,-38.55192 -20.08522,-49.1022 -1.6034,-1.18861 -2.91232,-2.47792 -2.90875,-2.86512 0.0191,-2.05367 1.89684,-2.6581 8.26093,-2.65891 7.82852,0 13.67056,1.53967 19.71979,5.20028 6.00351,3.63297 9.96499,8.05659 13.08884,14.6157 9.43129,19.80284 6.14584,46.06711 -9.15168,73.15978 -21.42463,37.94422 -50.67518,61.85954 -115.06351,94.07637 -24.35782,12.18746 -52.15707,20.01929 -80.3741,22.64359 -4.9751,0.46272 -22.66502,0.86315 -26.57888,0.60166 z m 31.04413,-2.29059 c 28.00606,-3.30862 54.55538,-11.25337 77.70405,-23.25261 32.27769,-16.73125 47.3736,-25.70177 63.27032,-37.59757 8.94573,-6.69422 13.58368,-10.71579 21.50533,-18.64731 8.42257,-8.43303 14.46372,-15.76051 20.192,-24.49144 10.94463,-16.68158 16.67614,-29.40929 20.01215,-44.43988 1.0814,-4.87235 1.18189,-6.07844 1.20455,-14.45891 0.02,-7.46964 -0.11988,-9.76584 -0.76534,-12.54523 -1.17802,-5.07257 -2.68034,-9.29729 -4.83289,-13.59086 -1.5565,-3.10463 -2.63361,-4.54809 -5.59441,-7.4972 -5.73904,-5.71646 -11.29181,-8.53475 -19.70481,-10.00127 -5.47963,-0.95514 -12.70636,-0.37444 -12.65618,1.01701 0.006,0.16717 1.00034,0.97377 2.20957,1.7924 1.20924,0.81863 3.47822,2.74868 5.04212,4.28902 13.3238,13.12291 18.47049,32.40373 14.61035,54.73424 -5.66037,32.74497 -25.97224,62.76498 -61.72054,91.22031 -7.34427,5.84599 -11.47608,8.67126 -18.6986,12.78601 -42.32693,24.11389 -80.30793,36.2003 -116.66184,37.12453 -35.29335,0.89726 -64.4937,-7.37324 -84.45158,-23.91942 -12.63788,-10.47752 -21.30898,-27.2473 -23.7897,-46.00891 -1.17898,-8.91656 -0.79453,-23.26358 0.88296,-32.95079 1.16568,-6.7316 5.98364,-19.38379 10.93795,-28.72352 14.10858,-26.59712 39.88004,-53.45454 71.78001,-74.80474 15.94924,-10.67458 30.19534,-18.0718 50.36871,-26.15365 36.18836,-14.49782 75.12535,-22.88857 118.01022,-25.43068 16.02983,-0.95021 53.84439,-0.26128 55.14531,1.00467 0.2745,0.26714 2.59108,4.1217 5.14788,8.56569 6.11807,10.63368 9.04303,15.43169 11.92545,19.56205 5.53976,7.93811 13.40796,18.17472 17.16205,22.32796 19.78842,21.89219 46.93796,38.78062 78.17256,48.62735 5.80194,1.82909 10.67165,2.89459 19.13679,4.18717 5.55333,0.84793 18.60292,0.7295 22.58214,-0.20502 7.64528,-1.79545 14.47558,-6.58671 17.21457,-12.07544 4.02323,-8.06246 1.09169,-19.24766 -7.83767,-29.90421 -6.97196,-8.32055 -11.20604,-12.16535 -21.78413,-19.78136 -32.0207,-23.05431 -71.27643,-38.34107 -115.21463,-44.86624 -4.22758,-0.62783 -6.38803,-1.13826 -6.87152,-1.62346 -0.84537,-0.84837 -5.99079,-12.41693 -10.18642,-22.90233 -4.3071,-10.76408 -6.72144,-17.37023 -11.78227,-32.23892 -2.727,-8.0119 -9.52239,-30.09125 -12.36849,-40.18726 -4.11059,-14.58145 -5.51582,-19.64437 -8.50363,-30.63674 -8.69495,-31.9899 -16.41975,-48.8237 -27.85058,-60.6916 -2.35697,-2.44709 -5.86751,-5.5987 -7.80114,-7.0036 -1.93366,-1.40488 -3.51572,-2.79035 -3.51572,-3.07882 0,-0.28846 3.10973,-2.07887 6.91051,-3.97869 18.80185,-9.39806 31.39697,-17.92553 41.83239,-28.32249 8.57443,-8.5428 11.0176,-12.00115 13.39856,-18.966 1.25146,-3.6609 1.37848,-4.49979 1.38286,-9.13426 0.004,-4.29946 -0.14612,-5.48607 -0.95365,-7.53461 -1.55416,-3.94266 -5.94444,-7.25644 -11.14586,-8.41289 -2.0191,-0.44892 -2.83922,-0.42064 -5.52841,0.19067 -9.05604,2.05862 -16.33074,7.32552 -27.49059,19.90313 -4.24514,4.78447 -5.41725,5.66762 -5.88933,4.43742 -0.2484,-0.6474 4.26091,-14.43186 7.46841,-22.83 1.206,-3.15757 2.86125,-7.63668 3.67835,-9.95359 6.33704,-17.9687 14.08021,-33.47688 24.65044,-49.37046 18.3299,-27.56113 41.12526,-48.10963 65.44392,-58.99331 13.14425,-5.88264 23.2893,-7.9863 38.6416,-8.01264 12.11347,-0.0208 21.93226,1.51978 32.60229,5.11531 10.77393,3.63053 18.46939,7.65829 27.48937,14.38773 9.43631,7.04008 16.84909,14.52071 23.13353,23.34533 16.01443,22.48749 24.32061,52.07098 24.33473,86.6711 0.006,13.89707 -0.49169,19.25849 -3.34681,36.0798 -0.54315,3.19992 -3.80925,15.14549 -5.54138,20.26741 -5.96247,17.63069 -14.90416,34.6323 -25.83254,49.11777 -9.22458,12.22702 -21.63172,24.77728 -33.93285,34.32422 -11.47604,8.90659 -32.94335,18.76117 -48.53839,22.28153 -17.45995,3.94135 -36.58449,2.64329 -47.91653,-3.25228 -10.69756,-5.56549 -17.33705,-14.83736 -18.68534,-26.09358 -0.24929,-2.08132 -0.52303,-3.85398 -0.60829,-3.93925 -0.27744,-0.27744 -3.41124,1.19343 -5.27559,2.47615 -1.90284,1.30919 -3.51526,3.86797 -3.51526,5.57847 0,3.00832 2.67881,8.62296 5.62749,11.79496 5.44625,5.8587 13.00566,10.47116 21.80191,13.3027 29.18336,9.3942 61.1953,5.98575 92.88638,-9.89 22.24622,-11.14433 42.79922,-27.2861 56.33497,-44.24398 21.40285,-26.81389 34.38414,-58.56154 38.16791,-93.34501 0.70351,-6.46727 0.69679,-24.80755 -0.0115,-31.25676 -2.52291,-22.9736 -9.04592,-44.20477 -18.01338,-58.63017 -12.02986,-19.35168 -32.46974,-36.70162 -54.33101,-46.11763 -13.4928,-5.81156 -31.44822,-10.08816 -45.67757,-10.87943 -28.32879,-1.57531 -56.03729,5.3999 -79.92048,20.11879 -28.19028,17.37332 -49.9005,41.70515 -67.38417,75.52112 -11.45299,22.15171 -20.57618,46.51079 -31.13786,83.13873 -1.7073,5.92084 -8.24426,22.23976 -11.57453,28.89476 -2.95157,5.8982 -6.56791,11.43369 -9.77877,14.96827 -1.24436,1.36979 -3.96004,4.46099 -6.03489,6.86933 -4.26589,4.95155 -7.0261,7.44419 -10.69028,9.65393 -3.02523,1.82443 -4.57493,1.84327 -5.88712,0.0716 -0.76573,-1.03384 -0.88501,-1.75914 -0.83938,-5.10314 0.0483,-3.53619 0.2603,-4.49017 2.28404,-10.27696 4.50204,-12.87339 11.26659,-28.78603 19.3436,-45.50303 4.14452,-8.57786 4.77305,-10.10558 8.14164,-19.78821 3.19048,-9.17064 3.37922,-14.60663 0.69322,-19.96849 -0.94434,-1.88515 -1.48646,-2.4572 -2.78475,-2.93846 -1.45533,-0.53947 -1.97228,-0.50649 -5.31577,0.33907 -8.07866,2.04311 -19.59867,9.85296 -30.64285,20.77404 -2.89748,2.8652 -5.53271,5.20946 -5.85603,5.20946 -0.88051,0 -0.7451,-0.93115 1.11321,-7.65472 2.37296,-8.58562 2.24598,-11.25566 -0.59984,-12.61273 -1.41701,-0.67573 -1.58593,-0.65957 -4.7142,0.45098 -3.94864,1.4018 -8.64459,4.13812 -14.99223,8.7359 -4.46827,3.23649 -5.89455,4.47529 -3.96161,3.44081 1.10364,-0.59066 2.71806,-0.55684 3.34498,0.0701 1.1201,1.12008 0.65691,3.20726 -3.61447,16.28754 -6.89626,21.11833 -16.8556,44.86534 -31.47921,75.05875 -1.98245,4.09314 -4.35324,8.99124 -5.26841,10.88465 -1.86451,3.85746 -2.3241,6.63612 -1.13825,6.88173 1.03742,0.21486 7.12833,-2.95402 11.38384,-5.92263 1.99248,-1.38992 5.82247,-4.06051 8.51111,-5.93462 l 4.88843,-3.4075 6.39169,-14.32762 c 14.16871,-31.76043 22.9661,-49.13891 32.63252,-64.46253 7.33203,-11.62307 14.82192,-19.39544 18.69061,-19.39544 4.66355,0 2.17313,13.75011 -5.5637,30.71836 -0.50483,1.10725 -2.40711,5.12597 -4.22724,8.9305 -1.82016,3.80453 -3.91041,8.35259 -4.64505,10.1068 -0.7346,1.7542 -3.2382,7.68661 -5.56357,13.18312 -7.24183,17.1179 -7.86965,19.32793 -7.91269,27.85466 -0.0383,7.60857 0.17513,8.53937 2.52058,10.98722 1.60702,1.67718 2.14884,1.98327 3.51075,1.98327 4.024,0 11.3735,-2.9661 16.68116,-6.73215 4.94239,-3.50689 8.15971,-6.70086 20.97422,-20.82198 5.7748,-6.36362 7.52731,-7.66793 7.52731,-5.60225 0,1.08798 -2.99619,8.98305 -7.05153,18.58097 -2.26142,5.35223 -3.59729,7.9308 -4.84016,9.3428 -1.67124,1.8986 -2.16799,3.1063 -1.2777,3.1063 1.0228,0 7.25982,-2.68178 10.38855,-4.46686 8.43976,-4.81524 15.03425,-11.52223 18.18697,-18.49728 1.59146,-3.52086 3.07588,-7.2593 4.22154,-10.63156 1.85852,-5.47072 4.19419,-10.20628 5.03391,-10.20628 0.97568,0 6.29783,9.39577 9.15368,16.15995 2.77671,6.57682 3.44926,8.89488 9.56189,32.95781 1.9013,7.48461 4.67593,18.39258 6.16579,24.23993 1.48986,5.84736 4.46347,17.5208 6.60798,25.94099 7.51927,29.52313 17.53347,59.48788 26.64794,79.73663 4.09119,9.08905 4.57348,10.36414 4.24445,11.22156 -0.24767,0.64542 -0.92545,0.68125 -7.19216,0.38023 -45.30014,-2.17603 -107.43161,5.01784 -155.5478,18.01001 -22.43899,6.05892 -37.22174,11.54314 -54.8588,20.35202 -51.66925,25.80635 -88.08704,63.9765 -99.77185,104.5727 -3.17509,11.03112 -3.71867,14.73949 -3.74686,25.56194 -0.0286,10.97023 0.47027,15.15371 2.94121,24.6652 4.80698,18.50373 14.98768,34.57834 29.65865,46.82895 4.72759,3.94762 15.79906,11.31031 21.5995,14.36399 14.77637,7.77902 32.54676,12.64802 52.08355,14.27065 7.66633,0.6367 26.95872,0.19243 35.50938,-0.81774 z M 738.38034,697.81069 c -13.31325,-1.4831 -22.80281,-4.19287 -34.02096,-9.71469 -26.01741,-12.8063 -50.18229,-37.72703 -69.28621,-71.45342 -5.25143,-9.27097 -8.58701,-16.2798 -8.01831,-16.84848 0.37482,-0.37485 2.113,-0.22228 7.21712,0.63349 20.29453,3.40262 40.31527,9.59141 64.77162,20.0222 7.19514,3.06877 11.53694,5.24696 18.28627,9.17383 18.38859,10.69879 31.4759,21.76087 41.49473,35.07357 5.29613,7.03737 7.48508,12.61812 7.506,19.13679 0.0162,5.00627 -0.54497,6.56486 -3.2544,9.04112 -1.73035,1.58146 -3.01098,2.32121 -5.20295,3.00554 -5.31999,1.66086 -14.10314,2.53048 -19.49291,1.93005 z m 11.96602,-1.62382 c 7.0147,-0.92516 10.5639,-2.37058 13.03646,-5.30906 3.01272,-3.58045 2.03998,-13.42454 -1.98747,-20.11272 -6.07197,-10.08348 -17.9893,-22.12579 -30.88236,-31.20624 -9.343,-6.58021 -20.89589,-13.15939 -29.94738,-17.05458 -22.98192,-9.88998 -41.76494,-16.05669 -59.99554,-19.69728 -5.1845,-1.03533 -11.83466,-2.08314 -12.03934,-1.89694 -0.0726,0.0661 1.11448,2.60756 2.63794,5.6478 7.3615,14.69062 16.3575,28.58206 27.0479,41.76676 5.01371,6.18352 18.39318,19.55771 24.24181,24.23223 13.59512,10.86596 30.95006,19.55457 44.65252,22.35497 9.18072,1.87629 15.88689,2.24432 23.23546,1.27506 z M 538.46639,393.00188 c -0.21939,-0.57182 1.84347,-7.47643 6.28959,-21.05193 3.77922,-11.53903 7.2852,-18.55535 12.52851,-25.07239 2.81218,-3.49533 10.73668,-10.85792 12.99916,-12.07738 1.87868,-1.01263 3.74958,-0.93458 5.47738,0.2285 2.07438,1.3964 2.66881,2.9335 2.66639,6.89464 0,2.96928 -0.27225,4.18923 -2.12559,9.58932 -1.80502,5.25911 -2.60758,6.91767 -5.35026,11.05681 -7.28334,10.9916 -19.19131,22.91716 -29.55346,29.59711 -2.50705,1.61619 -2.61974,1.64829 -2.93172,0.83532 z m 9.60918,-7.43438 c 7.93526,-6.26843 16.04914,-15.12451 22.00251,-24.01517 4.44144,-6.63276 7.74168,-16.56516 7.13024,-21.4591 -0.51095,-4.08937 -3.67609,-6.00561 -6.63094,-4.01446 -1.38334,0.93217 -7.99433,6.94464 -10.30776,9.37451 -6.48342,6.8098 -11.19192,16.3367 -16.22566,32.82994 -1.32065,4.32704 -2.83952,9.15488 -3.3753,10.72852 l -0.97419,2.86118 2.17058,-1.55703 c 1.19379,-0.85636 3.98853,-2.99314 6.21052,-4.74839 z M 73.69575,828.38185 C 41.46973,825.92945 17.61401,817.95574 -7.2144605,801.33778 -22.183,791.31917 -36.3719,778.117 -47.34727,763.99588 -71.018208,733.54035 -82.850729,696.20154 -79.421047,662.78351 c 3.121869,-30.41878 14.141567,-58.24808 32.902237,-83.09182 11.2032,-14.83579 27.04966,-29.58444 42.8247495,-39.85792 l 4.01715001,-2.61616 -3.37799001,-3.56862 C -13.9372,522.15259 -20.27069,509.22655 -22.2179,494.53919 c -0.64242,-4.84565 -0.33124,-15.62054 0.59523,-20.61038 3.27716,-17.65034 15.1071195,-33.55817 30.3742895,-40.84452 3.3561605,-1.60175 4.1662405,-1.84672 10.3129505,-3.11872 16.12274,-3.33644 28.03165,-1.69293 35.37208,4.88162 2.07747,1.86071 2.21002,2.09311 1.8194,3.18998 -0.69443,1.95 -1.68129,2.27782 -3.06372,1.01773 -3.31089,-3.0179 -7.20995,-4.34699 -12.87965,-4.39033 -3.84901,-0.0294 -4.96411,0.13432 -8.07998,1.18647 -7.04848,2.3801 -12.26285,5.72436 -17.41967,11.17218 -9.2031205,9.72246 -13.93682049,21.04436 -15.35384049,36.72279 -1.21695001,13.46475 0.71773,25.11783 5.96633999,35.93683 2.22679,4.59012 6.1321605,10.84419 6.7716605,10.84419 0.21683,0 3.23474,-1.22173 6.70647,-2.71496 8.23394,-3.5415 12.64279,-5.07669 17.81839,-6.20448 12.66426,-2.75961 25.06668,-2.83671 33.94971,-0.21107 2.69291,0.79597 4.59454,2.27561 6.43283,5.00531 1.28219,1.90394 1.48168,2.54305 1.48168,4.74688 0,1.76129 -0.35446,3.45018 -1.14932,5.47615 -1.80406,4.59823 -3.64011,4.82364 -7.72924,0.94891 -4.29105,-4.06607 -9.53482,-6.77225 -15.94183,-8.22719 -4.72224,-1.07235 -16.23583,-0.94086 -21.78413,0.24879 -4.08342,0.87555 -11.3875,3.69747 -14.23214,5.49857 l -1.32283,0.83756 3.25533,2.93249 c 6.58663,5.93338 13.73931,10.0929 22.1956,12.90747 8.35967,2.78241 12.40727,3.46557 22.05494,3.72246 11.59664,0.30879 18.66192,-0.67061 29.65648,-4.11105 13.79008,-4.31521 21.32733,-8.76834 31.28766,-18.48528 16.0204,-15.62895 28.45069,-37.81393 62.44579,-111.45027 9.71821,-21.05047 18.39144,-39.91045 19.27387,-41.91106 6.01302,-13.6326 13.50392,-25.78419 22.92448,-37.18768 13.12968,-15.89335 30.36613,-30.42041 46.32836,-39.04605 2.15339,-1.16364 2.94909,-1.7936 2.54859,-2.01773 -0.79406,-0.44438 -19.7967,-2.39367 -28.43101,-2.91646 -31.40157,-1.90127 -56.94148,0.29272 -79.524,6.83147 -28.46056,8.24074 -55.12402,27.20037 -70.01702,49.78713 -3.0097,4.56452 -4.71919,8.24851 -6.19573,13.35194 -0.82766,2.86069 -0.96814,4.32023 -0.9571,9.94434 0.0118,6.01552 0.1135,6.89175 1.16367,10.02664 2.86469,8.55146 9.6852,14.50196 19.26673,16.80913 3.53491,0.85119 4.08506,0.8766 8.04695,0.37173 7.54257,-0.96118 8.29261,-0.98914 8.29261,-0.30914 0,0.33781 -1.10037,1.65812 -2.44526,2.93401 -6.71617,6.37159 -14.12335,9.30202 -23.45744,9.28023 -4.43076,-0.0103 -5.2095,-0.1313 -7.70666,-1.19701 -5.61572,-2.39662 -10.22003,-6.30973 -11.96764,-10.17104 -0.45085,-0.99614 -1.09333,-3.86666 -1.42774,-6.37893 -2.40322,-18.05452 3.19763,-35.43351 18.15489,-56.33316 7.85662,-10.978 13.27494,-17.24549 20.9825,-24.27091 34.71033,-31.63837 81.81843,-46.01788 139.48595,-42.57738 11.10783,0.6627 18.42677,1.6211 40.89089,5.35455 l 15.80043,2.62598 1.63532,-1.37214 c 12.70637,-10.66148 23.08863,-17.68515 34.80575,-23.54636 16.91152,-8.45958 37.74847,-14.7293 54.00828,-16.25078 32.5388,-3.04477 52.04693,-1.17834 68.48816,6.55256 8.21848,3.86445 12.00676,6.75417 16.2755,12.41495 3.49042,4.62869 4.93878,11.66909 3.77386,18.34446 -0.88357,5.06293 -2.53818,8.35052 -6.16447,12.24838 -12.54596,13.48542 -30.60246,22.65701 -51.32892,26.07192 -9.69984,1.59815 -12.01187,1.74922 -26.57888,1.73669 -21.90457,-0.0188 -32.43546,-1.26713 -66.34088,-7.86388 -16.11983,-3.13633 -30.20739,-5.65698 -30.39996,-5.43939 -0.50121,0.56632 -5.59097,8.49382 -7.32066,11.40221 -7.1287,11.98655 -14.60417,27.7115 -21.73273,45.71566 -2.30311,5.81681 -11.85931,30.52101 -13.57142,35.08412 -0.13164,0.35084 1.15283,-1.37147 2.85436,-3.82736 5.28032,-7.62125 8.47109,-11.50838 13.79872,-16.81018 6.97261,-6.9388 13.46103,-11.26326 20.91527,-13.9398 9.13173,-3.27887 14.04783,-2.15105 16.86497,3.86905 1.12493,2.40391 1.29588,3.24722 1.30248,6.42509 0.009,4.38709 -0.59762,6.60119 -3.95931,14.44846 -1.36532,3.18712 -2.76579,6.75159 -3.11217,7.92106 -0.34638,1.16947 -4.82471,10.5465 -9.95185,20.83784 -10.08336,20.23965 -12.81316,26.10176 -17.03061,36.57254 -2.47254,6.13862 -2.72414,7.03988 -2.57213,9.21366 0.228,3.26059 0.83197,3.91894 3.29237,3.58887 4.0361,-0.54145 7.02112,-2.5284 13.75597,-9.15651 3.46356,-3.40868 6.39757,-6.29298 6.52001,-6.40956 0.44374,-0.42248 1.4288,1.46916 1.42607,2.7385 -0.003,1.64204 -0.54772,2.43075 -5.61279,8.13494 -6.50278,7.32331 -14.62409,14.56728 -20.96329,18.69864 -5.90971,3.85145 -7.64987,4.5697 -11.59862,4.78731 -6.23904,0.34381 -9.01179,-1.45231 -10.08854,-6.53512 -1.17409,-5.54227 -0.58722,-11.43667 1.94471,-19.53233 1.41908,-4.5374 3.46651,-9.1197 11.02072,-24.6652 18.2238,-37.50198 21.26696,-44.46129 21.26696,-48.63469 0,-1.99318 -1.54742,-4.4662 -2.9179,-4.66325 -3.07437,-0.44203 -9.03623,4.84652 -16.47755,14.61665 -11.10546,14.58099 -20.38443,31.05484 -33.88368,60.15703 -4.58666,9.88808 -7.3098,15.62554 -11.90857,25.09046 -2.60726,5.36611 -3.66803,7.07684 -5.70578,9.20183 -5.49934,5.73476 -12.27239,8.95802 -27.55052,13.11115 -6.68901,1.81831 -7.87151,1.89533 -7.87151,0.51266 0,-0.54396 0.49632,-1.45296 1.10295,-2.01999 3.66189,-3.42293 10.15893,-12.11549 14.91496,-19.95513 7.95844,-13.11836 12.71144,-23.1297 39.06731,-82.2882 21.21415,-47.6174 31.29398,-69.4925 36.4182,-79.03428 3.73491,-6.95474 7.36988,-13.10236 9.32403,-15.76918 0.67348,-0.91909 1.15673,-1.73886 1.07389,-1.8217 -0.0828,-0.0828 -3.7247,-0.73432 -8.09303,-1.44774 l -7.94241,-1.29713 -2.74538,2.4103 c -8.05584,7.07264 -19.80919,21.32427 -27.18036,32.95779 -9.74404,15.3785 -15.67677,27.27983 -30.63258,61.45037 -10.64399,24.31904 -22.80044,50.9505 -28.72964,62.93878 -13.47033,27.23572 -25.86362,45.36676 -41.29102,60.40759 -6.80228,6.63185 -9.70991,9.1141 -15.65935,13.36845 -18.10661,12.94774 -38.37867,21.48235 -58.27568,24.53426 -7.40836,1.13633 -21.40326,1.02323 -28.56753,-0.23087 C 34.56117,556.7211 20.75187,551.6048 9.9597095,544.50207 l -3.34882,-2.20398 -1.53426,0.81234 c -7.06598,3.74124 -19.8468595,16.62733 -29.6983095,29.9428 -27.31123,36.91453 -37.628138,79.21088 -30.124826,123.50311 3.638596,21.47875 11.195646,41.96115 23.312976,63.18692 5.54759,9.71762 10.75941,16.48145 19.19191,24.90695 20.4000995,20.38314 46.26941,31.95163 80.83423,36.14824 7.36835,0.89458 27.56465,1.27111 35.76239,0.66668 41.18446,-3.03645 80.97208,-24.97167 115.04091,-63.42292 20.38812,-23.01072 38.90521,-54.12391 62.89428,-105.67762 4.20649,-9.03996 24.16748,-52.82615 27.04429,-59.32405 1.79343,-4.05086 7.8437,-19.26077 7.71099,-19.38487 -0.0549,-0.0513 -1.33004,1.84932 -2.83364,4.22367 -1.5036,2.37436 -6.60376,10.15374 -11.3337,17.28751 -18.464,27.84773 -32.96184,46.09573 -49.34068,62.10365 -8.78414,8.58519 -11.33101,10.65337 -15.81473,12.84224 -3.34971,1.63526 -4.0076,1.80812 -6.89264,1.81085 -2.95905,0.004 -3.35844,-0.10879 -5.52841,-1.54498 -4.51377,-2.98738 -5.07532,-4.1079 -5.4047,-10.78456 -0.42998,-8.71587 1.23423,-16.15324 7.51749,-33.5957 4.76135,-13.21761 10.1279,-25.27616 18.642,-41.88831 18.31256,-35.73027 24.69443,-49.63837 29.8397,-65.0301 1.87677,-5.61422 1.85734,-6.21431 -0.26445,-8.16809 -1.5648,-1.44089 -2.99441,-1.67595 -7.16594,-1.17825 -7.4876,0.89332 -33.00604,8.40921 -45.71567,13.46452 -30.63582,12.18555 -55.2335,27.76904 -75.32717,47.72239 -14.31471,14.21476 -24.24314,28.0492 -33.1181,46.14734 -11.32866,23.10185 -16.58177,47.76675 -16.58177,77.85637 0,9.16061 0.11849,10.96938 1.04763,15.9919 1.58094,8.54585 2.99518,12.15692 6.1727,15.76118 3.30798,3.75222 8.13801,4.12683 14.38001,1.11534 2.7271,-1.31568 4.95643,-3.61443 7.03266,-7.25157 1.12256,-1.9665 2.57836,-2.27281 2.15553,-0.4535 -0.64503,2.7753 -3.04774,6.79327 -5.69598,9.52519 -3.41821,3.52619 -5.7928,4.39453 -11.23268,4.10761 -5.30382,-0.27978 -9.50604,-2.51649 -15.13566,-8.05625 -10.44899,-10.28224 -16.51737,-23.36989 -19.19825,-41.40487 -0.83994,-5.6505 -0.70802,-22.80183 0.22733,-29.55571 1.0484,-7.57018 3.08086,-16.91633 4.80894,-22.11363 1.7634,-5.30357 5.87691,-14.50254 9.47092,-21.17966 26.00377,-48.31113 76.97794,-82.74456 152.09397,-102.74064 12.37616,-3.29457 32.04695,-7.53029 38.76323,-8.34691 8.67865,-1.05522 16.83385,2.47904 18.35424,7.95428 1.24442,4.48143 0.18337,11.2873 -3.0731,19.71175 -4.43113,11.46329 -7.99241,19.00727 -24.98723,52.93131 -15.47856,30.89739 -22.47838,47.1242 -24.65316,57.15043 -1.24535,5.74125 -1.31398,8.85498 -0.21295,9.66009 0.44684,0.32673 0.94653,0.59405 1.11041,0.59405 0.63925,0 10.9099,-10.20978 14.74346,-14.65611 6.58902,-7.64217 16.83387,-21.6577 32.10552,-43.92222 12.54896,-18.29511 26.90556,-43.61192 42.86647,-75.59184 10.64319,-21.32511 11.10643,-22.16276 12.99204,-23.49156 3.36824,-2.3736 6.70081,-3.15901 14.43994,-3.40312 6.03362,-0.19032 6.91102,-0.13153 7.5484,0.50586 0.39665,0.39667 0.72121,1.15661 0.72121,1.68876 0,0.53215 -1.40932,3.91526 -3.13185,7.51803 -7.90545,16.53489 -17.09919,38.51351 -31.11334,74.37977 -16.50845,42.24987 -23.08748,58.17835 -31.88935,77.20717 -18.23281,39.41766 -37.51749,70.08356 -60.9606,96.93763 -9.86678,11.3024 -33.70277,34.21713 -44.4981,42.7783 -26.65466,21.13827 -61.40463,35.01274 -98.45976,39.31159 -5.42177,0.629 -26.01929,1.16028 -30.81991,0.79498 z m 24.70976,-1.45639 c 26.1677,-2.0732 51.83544,-9.35211 74.80156,-21.21237 20.05917,-10.35907 34.3786,-21.44531 57.43828,-44.46934 20.19679,-20.16558 33.39908,-36.74298 48.94887,-61.46244 17.44087,-27.72572 32.89395,-60.5972 54.27778,-115.45864 19.17614,-49.1975 27.41712,-69.09258 36.62885,-88.4278 1.55302,-3.25984 2.76638,-6.22604 2.69634,-6.59156 -0.10615,-0.55388 -1.04751,-0.68602 -5.65059,-0.79323 -6.37897,-0.14856 -10.05188,0.52729 -13.89659,2.55715 l -2.41978,1.27753 -10.18224,20.47324 c -14.29331,28.7393 -23.47653,45.37502 -36.77221,66.61416 -4.94194,7.89449 -6.67207,10.46585 -15.45139,22.96415 -18.44674,26.26091 -25.25354,34.72604 -35.02915,43.56316 -3.79665,3.43212 -5.26756,3.96931 -6.87803,2.51185 -1.70047,-1.53889 -0.34884,-11.42739 2.69393,-19.70877 4.73973,-12.89994 9.91672,-24.1263 24.80762,-53.79564 16.45052,-32.77681 21.88388,-44.78863 24.69962,-54.60481 0.95836,-3.34101 1.10136,-4.54033 0.96026,-8.05341 -0.14929,-3.71685 -0.28259,-4.28092 -1.33899,-5.66592 -3.78191,-4.95835 -10.82469,-6.34949 -21.556,-4.25791 -102.16893,19.91316 -166.08368,61.88751 -192.06755,126.13538 -5.90296,14.59571 -8.71687,37.08931 -6.74673,53.93152 2.09644,17.92186 8.0074,31.14015 18.70105,41.81988 3.79224,3.7873 5.34679,5.02375 7.89667,6.28082 7.45721,3.67635 13.86164,2.54928 18.30438,-3.22127 1.37754,-1.78925 1.38026,-1.80124 0.15328,-0.67749 -2.24052,2.05206 -6.76046,3.85947 -10.20438,4.08048 -4.56564,0.293 -5.9173,-0.0902 -8.35222,-2.36773 -3.69331,-3.45466 -5.53595,-7.6773 -7.25931,-16.63557 -0.86701,-4.50689 -0.94593,-6.12595 -0.91417,-18.75376 0.037,-14.71764 0.4951,-20.6076 2.54669,-32.74518 5.70859,-33.77295 21.002,-63.54846 45.40649,-88.40411 27.3111,-27.81601 64.35498,-48.16436 109.32737,-60.05397 11.0193,-2.91324 13.34762,-3.36046 17.49519,-3.36046 l 3.58692,0 1.63461,1.6346 c 2.47702,2.47702 2.48478,3.34951 0.0922,10.36291 -4.83188,14.16378 -8.29825,21.88812 -22.47864,50.09075 -17.11726,34.0436 -19.97872,40.2385 -25.04502,54.2209 -7.07797,19.53446 -7.95171,23.1201 -7.9793,32.74518 -0.0237,8.26386 0.16236,8.74037 4.51124,11.55365 2.8498,1.84351 3.1181,1.92937 5.49163,1.75769 1.88073,-0.13604 3.46783,-0.66571 6.44282,-2.15017 3.30204,-1.64768 4.92073,-2.86541 9.90105,-7.44859 20.76178,-19.10617 38.62143,-42.06845 66.14567,-85.04394 2.99384,-4.67448 4.67028,-6.91051 5.18109,-6.91051 0.83935,0 0.95813,0.7402 0.35507,2.21262 -0.22005,0.53726 -1.77604,4.51715 -3.45776,8.84419 -3.86518,9.94502 -5.56874,13.93182 -11.35719,26.57888 -2.56923,5.61346 -7.01191,15.37322 -9.87262,21.68836 -19.32687,42.66492 -31.2205,66.386 -44.77708,89.30503 -12.13943,20.52314 -24.70318,36.946 -39.83795,52.07469 -27.97635,27.9651 -59.61043,45.57451 -91.65889,51.02284 -8.44328,1.43539 -12.27057,1.76918 -23.25911,2.0285 -58.21964,1.37402 -102.1430305,-19.7703 -126.68036,-60.98277 -14.24972,-23.93362 -22.749023,-49.02383 -25.973929,-76.67581 -0.85982,-7.37255 -0.738743,-28.01788 0.207001,-35.29675 4.168058,-32.07925 16.765208,-60.21845 38.897268,-86.88782 8.7380795,-10.52947 20.2383795,-20.71635 24.6436195,-21.8291 0.69943,-0.17668 2.06194,0.47703 5.1031405,2.4484 10.16441,6.58876 22.07757,11.1648 36.25624,13.92661 22.96474,4.47323 46.47519,0.27762 71.39316,-12.74065 25.91626,-13.53981 45.17527,-32.89577 63.2156,-63.53383 4.49289,-7.63032 13.43987,-25.23024 18.80795,-36.99779 8.72844,-19.13394 15.02454,-33.19211 21.99791,-49.11777 8.70799,-19.88716 11.39201,-25.76875 15.52522,-34.02096 11.30933,-22.57975 22.23981,-38.58054 36.15009,-52.91899 5.20546,-5.36568 5.86811,-6.18834 4.25262,-5.27946 -1.05252,0.59215 -3.06188,1.7137 -4.46525,2.49233 -3.70357,2.05486 -12.19072,7.74503 -16.37259,10.97694 -13.5331,10.45887 -27.70551,25.49736 -36.8981,39.15297 -2.96236,4.40059 -4.47466,6.89421 -8.28202,13.65619 -0.59263,1.05252 -2.99306,6.12377 -5.33428,11.26944 -25.59304,56.24976 -44.73005,96.48026 -54.01154,113.54496 -12.90487,23.72653 -23.34831,37.38637 -35.64347,46.62104 -7.45762,5.60128 -13.75357,8.71028 -23.94222,11.82287 -25.15154,7.68369 -49.63555,5.09264 -68.00899,-7.19715 -4.16812,-2.78801 -10.70401,-8.65585 -10.70401,-9.60992 0,-1.64429 10.42684,-6.24977 17.00352,-7.51037 6.53215,-1.25207 17.01538,-1.23809 22.54585,0.0301 5.23735,1.20095 10.8848,3.96537 14.61036,7.15176 4.07093,3.48178 4.71685,3.8559 5.51437,3.19401 1.131,-0.93865 2.97367,-6.65557 2.66888,-8.28025 -0.42133,-2.24589 -3.35112,-6.01861 -5.45842,-7.02886 -4.01454,-1.92459 -7.56759,-2.40397 -17.54782,-2.36756 -8.46592,0.0309 -9.88158,0.14419 -14.88417,1.19128 -6.91451,1.44727 -11.07861,2.83672 -19.85817,6.62617 -3.81334,1.64592 -7.31608,2.99162 -7.78386,2.99045 -1.59119,-0.004 -7.1455805,-9.1938 -9.8944305,-16.37044 -2.63401999,-6.87686 -4.32829,-15.92023 -4.34215,-23.17678 -0.009,-4.72848 1.13466,-16.10851 1.94464001,-19.34942 C 3.4251095,458.16212 11.09084,446.51335 21.71275,439.51572 c 5.64087,-3.71615 13.33055,-6.37366 18.44263,-6.37366 4.03064,0 10.44386,2.08308 13.30696,4.32224 0.75333,0.58916 1.15281,0.6781 1.48841,0.33137 1.21735,-1.2577 -6.61942,-6.00937 -12.29914,-7.45734 -7.80076,-1.98872 -24.45938,-0.1336 -32.8128805,3.65405 -10.24098999,4.64349 -20.3154995,14.91463 -25.6047395,26.10448 -2.66488,5.6378 -4.26257,10.99726 -5.17977,17.37554 -0.56814,3.95095 -0.5751,13.1891 -0.0131,17.4282 1.83526,13.84374 8.86803,27.70101 19.5873195,38.59458 1.87587001,1.90637 3.41067,3.61247 3.41067,3.79133 0,0.17886 -2.06657999,1.68742 -4.5924,3.35235 -20.0338295,13.20564 -36.3313595,29.35635 -49.2082995,48.76503 -11.053634,16.66044 -18.289557,33.28677 -22.959196,52.75442 -5.455277,22.74292 -5.449409,41.93793 0.01948,63.71781 9.409767,37.47443 34.403086,71.83322 69.0856955,94.97346 22.6411005,15.10616 47.2846705,23.63326 75.2713805,26.04517 5.94729,0.51257 22.44533,0.53018 28.74975,0.0306 z M 211.37407,501.78603 c 6.37592,-1.86085 11.71358,-4.16565 15.54303,-6.71146 3.4777,-2.31198 7.60117,-6.61429 8.89446,-9.28025 2.95816,-6.09786 10.50554,-22.00589 14.58961,-30.7513 14.65163,-31.37425 23.24844,-46.25106 35.85597,-62.04891 6.44082,-8.07066 11.10824,-11.73406 14.95001,-11.73406 1.88108,0 4.04379,3.31688 4.04379,6.20185 0,2.28076 -2.81334,10.43712 -5.6298,16.32175 -1.40333,2.93209 -3.55883,7.43611 -4.79,10.00895 -1.23117,2.57283 -3.85972,8.02682 -5.84121,12.11997 -1.9815,4.09314 -6.01788,12.44265 -8.96973,18.55446 -8.66361,17.93797 -11.07404,27.49705 -8.99797,35.68341 0.78648,3.10125 2.36882,4.62999 5.52291,5.33585 6.35369,1.42189 16.22831,-4.54213 29.59701,-17.87583 8.06987,-8.04876 10.59132,-11.07548 10.58985,-12.71195 -8.5e-4,-0.99627 -0.6226,-0.49417 -5.20946,4.20726 -5.70447,5.84696 -8.89175,8.19593 -12.75043,9.3969 -4.99812,1.55558 -6.55354,0.67879 -6.96977,-3.92887 -0.22793,-2.5233 -0.099,-3.10707 1.72956,-7.82974 3.60332,-9.30649 8.82123,-20.63284 18.02401,-39.1241 5.00541,-10.05745 9.47398,-19.40975 9.93016,-20.78289 0.45618,-1.37314 1.78666,-4.72208 2.95663,-7.44209 2.53244,-5.88757 4.19765,-11.38044 4.19765,-13.84635 0,-2.30372 -1.06862,-5.88465 -2.37247,-7.95008 -2.79146,-4.42196 -8.7597,-4.27745 -18.678,0.45224 -11.55075,5.50816 -22.57981,16.67367 -32.89018,33.29709 -1.84131,2.96875 -3.09214,4.5678 -3.57604,4.57157 -0.40931,0.003 -0.74421,-0.24022 -0.74421,-0.5409 0,-0.30069 1.06166,-3.19218 2.35925,-6.42553 1.29758,-3.23335 4.18804,-10.68989 6.42323,-16.57009 11.31507,-29.76693 18.84193,-46.70387 27.34122,-61.52323 3.68956,-6.43311 8.67198,-14.22122 9.37657,-14.65668 0.52041,-0.32163 10.61537,1.34856 24.39448,4.036 19.57784,3.81842 21.71074,4.22194 27.91552,5.28127 22.5349,3.84734 46.10743,5.16405 62.08826,3.4681 24.2237,-2.57071 43.50282,-10.76927 57.19775,-24.32365 5.12054,-5.06801 6.54266,-6.99437 7.716,-10.45206 1.93256,-5.69507 1.69012,-12.73547 -0.61531,-17.86695 -1.54124,-3.43057 -5.83826,-8.22507 -9.63687,-10.75258 -9.20781,-6.12667 -20.36639,-9.95578 -34.24899,-11.75267 -10.09976,-1.30725 -38.10152,-0.40714 -49.75566,1.59939 -8.78447,1.51246 -22.33514,5.40628 -32.10728,9.22611 -6.83851,2.67311 -20.21696,9.37357 -26.06912,13.05643 -5.97232,3.75849 -13.99214,9.65321 -19.22761,14.13265 -2.392,2.04657 -4.68504,3.72104 -5.09565,3.72104 -0.41061,0 -8.18573,-1.23876 -17.27804,-2.7528 -28.14813,-4.68719 -36.74701,-5.53533 -56.08084,-5.53146 -17.47886,0.003 -28.67203,1.04889 -43.80199,4.09089 -38.92413,7.826 -72.21537,27.5762 -93.8308,55.66562 -12.80493,16.64011 -19.68449,29.69186 -22.51937,42.72329 -1.71288,7.87375 -1.46887,19.82073 0.513,25.11775 1.35278,3.61565 5.5491,7.37933 11.12508,9.9781 7.54588,3.51687 19.36379,1.00127 28.16941,-5.99624 1.79205,-1.42406 3.18271,-2.66475 3.09038,-2.75708 -0.0923,-0.0923 -1.40055,0.035 -2.90716,0.28283 -9.85847,1.62207 -18.7396,-1.00264 -25.32998,-7.48596 -7.87501,-7.74707 -9.98338,-20.4294 -5.62089,-33.81094 4.32635,-13.27067 20.72876,-31.80225 38.46875,-43.46232 4.93729,-3.24515 14.81848,-8.70879 20.43312,-11.29815 11.32823,-5.22434 26.59992,-9.43292 41.8169,-11.52392 12.51883,-1.72024 17.14661,-1.97057 36.14727,-1.95533 19.10239,0.0153 23.82982,0.28121 41.80683,2.35146 3.93139,0.45274 7.37601,0.8261 7.65472,0.82968 0.27871,0.003 0.78149,0.18037 1.11729,0.39285 0.5254,0.33246 0.52719,0.49465 0.0129,1.16296 -0.40815,0.53034 -0.26462,0.48302 0.4526,-0.14922 1.19621,-1.05448 1.06605,-1.06204 12.85131,0.74643 4.24289,0.65108 6.69788,1.21009 6.69788,1.52513 0,0.27354 -1.32304,2.47474 -2.94008,4.89158 -4.52162,6.75802 -10.98229,18.99942 -17.74821,33.62851 -3.38113,7.31057 -6.54569,14.1531 -7.03237,15.20562 -0.48668,1.05253 -1.21863,2.67915 -1.62656,3.61473 -0.40794,0.93558 -1.35935,3.04062 -2.11425,4.67788 -1.88765,4.09401 -5.82913,12.88933 -12.86375,28.70519 -7.29188,16.39424 -18.03852,40.40356 -19.89142,44.43988 -0.75159,1.63726 -2.18729,4.79483 -3.19045,7.01682 -1.00316,2.222 -2.61938,5.7623 -3.59161,7.86735 -0.97223,2.10505 -2.4715,5.3583 -3.3317,7.22945 -2.24994,4.89416 -7.77876,15.33301 -11.26176,21.26311 -5.02279,8.55169 -9.85173,15.19435 -14.89277,20.48638 l -2.50086,2.62537 3.96986,-1.06362 c 2.18342,-0.58499 6.21831,-1.71984 8.96642,-2.52189 z M 421.34748,304.00647 c -11.15296,-0.77261 -21.16134,-1.93229 -32.53255,-3.76959 -7.66288,-1.23812 -56.29075,-10.7967 -57.19774,-11.24312 -0.35084,-0.17268 -0.69486,-0.87638 -0.76449,-1.56378 -0.36827,-3.63591 13.21471,-15.02473 27.16501,-22.77685 9.23848,-5.13376 21.2091,-10.21867 30.16562,-12.81379 8.50512,-2.46433 21.07616,-4.84053 31.88836,-6.0276 6.30396,-0.69211 22.39328,-0.94901 27.06925,-0.43223 13.12142,1.45018 23.62556,3.92722 30.09427,7.09673 5.38347,2.63777 11.12124,7.70863 13.69845,12.10629 3.08668,5.26703 2.90875,12.63253 -0.46821,19.38269 -2.1255,4.24863 -4.22719,6.84835 -7.6676,9.48447 -6.8181,5.22422 -15.89808,8.38155 -27.4294,9.53787 -9.61769,0.96442 -27.20423,1.49113 -34.02097,1.01891 z m 30.24409,-1.8561 c 13.41523,-1.13795 22.73221,-4.02712 29.7825,-9.23548 8.49219,-6.27355 12.77479,-18.08309 9.355,-25.79698 -2.18138,-4.92047 -8.21041,-10.66761 -14.31351,-13.64429 -10.39315,-5.06906 -31.2554,-8.14575 -48.01217,-7.08065 -32.11107,2.04105 -58.41459,10.64331 -81.16029,26.54253 -7.92004,5.5361 -15.20065,12.45711 -15.20065,14.44986 0,0.45566 0.57368,0.76101 1.80736,0.96197 0.99405,0.16193 8.88798,1.71646 17.54206,3.45451 37.15307,7.46165 49.2701,9.44682 65.70299,10.76427 5.84153,0.46833 27.094,0.2122 34.49671,-0.41574 z m -80.83101,307.88607 c -5.31003,-1.11011 -10.23363,-5.09713 -12.76756,-10.33879 -4.40461,-9.11138 -5.17837,-21.42345 -2.5164,-40.04018 1.24513,-8.70792 1.90262,-11.54986 4.45866,-19.27099 7.20692,-21.77047 17.37319,-39.25301 30.48976,-52.43214 4.91433,-4.93772 7.80373,-7.12569 12.567,-9.51623 5.29558,-2.65766 9.83921,-3.29725 15.28524,-2.15164 6.11556,1.28645 11.5704,4.34806 15.39767,8.64218 2.67069,2.99642 3.5779,4.85226 4.87853,9.97947 3.01646,11.89119 2.10521,25.13293 -2.92343,42.48254 -5.85845,20.21252 -14.85827,37.39127 -26.98351,51.50591 -11.80685,13.74396 -28.55686,23.09025 -37.88596,21.13987 z m 8.93846,-2.09812 c 12.40829,-4.15718 24.60553,-14.17221 34.71737,-28.50616 11.23019,-15.91922 19.94024,-37.06314 23.56211,-57.19774 1.31848,-7.32985 1.32656,-18.24301 0.0179,-24.35849 -0.51444,-2.40414 -1.30997,-5.37034 -1.76785,-6.59156 -1.9688,-5.25114 -8.26638,-10.67802 -15.00253,-12.9283 -2.89382,-0.96672 -4.2231,-1.16521 -7.74593,-1.15671 -3.60878,0.009 -4.70251,0.18619 -7.22423,1.17224 -4.73912,1.8531 -9.03112,4.77979 -13.76318,9.38502 -14.01162,13.6361 -24.25235,31.23168 -31.94653,54.89037 -2.30752,7.09527 -2.88324,9.83444 -4.28469,20.38538 -2.18134,16.42244 -1.22828,28.01544 2.99015,36.37209 1.56879,3.10774 4.91866,6.45463 7.93989,7.93277 4.52632,2.21454 7.29452,2.34756 12.50747,0.60109 z m -5.30659,-9.32916 c -2.63229,-2.90861 -2.39538,-13.32032 0.64435,-28.32014 4.49354,-22.17374 12.75476,-44.00309 23.6006,-62.3619 3.71488,-6.28814 4.72428,-7.72805 9.3661,-13.36044 6.37515,-7.7356 10.96113,-10.66501 13.06192,-8.34366 2.97629,3.28879 1.4655,19.74227 -3.35493,36.53754 -4.67444,16.28659 -16.56485,44.29249 -24.46584,57.6253 -4.57556,7.72115 -10.04817,14.25812 -14.80609,17.68566 -2.15838,1.55483 -3.02174,1.66956 -4.04611,0.53764 z m 3.85908,-2.09808 c 4.71254,-3.73813 9.29457,-9.22662 13.51938,-16.19393 8.45153,-13.9379 21.23954,-44.43654 25.7198,-61.3403 3.89553,-14.69769 5.08682,-31.05487 2.33844,-32.10951 -2.65989,-1.0207 -11.70994,8.25929 -18.17877,18.64071 -12.02228,19.29374 -20.39255,40.90508 -25.6262,66.1648 -1.52185,7.34499 -2.63965,19.52982 -2.07592,22.62878 0.31733,1.74449 1.33766,3.84206 1.86894,3.84206 0.20689,0 1.30232,-0.73468 2.43433,-1.63261 z m 69.03419,-5.99419 c -9.88139,-3.00579 -11.90245,-14.42877 -6.13708,-34.68677 5.19151,-18.24159 14.74953,-46.47943 18.31276,-54.1025 0.7895,-1.68908 1.43547,-3.26169 1.43547,-3.49469 0,-0.23301 0.76888,-2.77407 1.70862,-5.64683 1.83526,-5.61041 3.25389,-12.55089 2.68213,-13.12226 -0.7861,-0.7856 -3.62625,1.32717 -9.03019,6.71747 -4.20469,4.19412 -5.9361,5.65488 -6.59156,5.56124 -1.50194,-0.21457 -1.36539,-2.13762 0.33302,-4.69131 3.46763,-5.21369 17.61997,-17.5654 24.31534,-21.22164 5.226,-2.85384 10.6108,-3.22225 13.08825,-0.89545 1.85767,1.74467 2.41221,3.46529 2.41221,7.4844 0,5.97467 -2.33558,13.57806 -13.60396,44.28746 -9.95598,27.13271 -13.84266,39.53533 -16.58582,52.92651 -1.41803,6.92232 -1.54229,8.25178 -0.74803,8.00291 0.8657,-0.27125 9.23656,-10.48584 13.3266,-16.26185 11.9727,-16.908 22.87634,-39.15524 32.73026,-66.7812 8.53624,-23.93175 10.69232,-29.46958 12.06196,-30.98109 4.3401,-4.78963 14.11394,-9.17481 20.5026,-9.19878 2.65883,-0.01 3.1122,0.61327 2.77726,3.81776 -0.38579,3.6911 -2.91955,11.04217 -14.21885,41.25263 -13.19099,35.26808 -18.67619,52.21585 -20.73433,64.06328 -0.79111,4.55401 -0.67421,6.80364 0.44206,8.50729 l 0.67919,1.03659 1.67192,-1.32417 c 2.33596,-1.85013 4.89583,-4.93918 9.90941,-11.95804 2.37726,-3.32808 4.56149,-6.12677 4.85386,-6.21931 0.37856,-0.11981 0.53157,0.46664 0.53157,2.0373 0,1.94825 -0.35377,2.83293 -3.03275,7.58384 -4.93249,8.7473 -7.48589,12.39557 -11.37096,16.24645 -2.68842,2.66479 -4.52449,4.0684 -6.8599,5.24417 -2.93023,1.47522 -3.38653,1.58379 -5.62439,1.33812 -3.45406,-0.37916 -6.46696,-1.35544 -7.89728,-2.55898 -1.54923,-1.3036 -3.33631,-5.24801 -4.19211,-9.25271 -0.82671,-3.86874 -0.54604,-11.8903 0.67285,-19.23011 0.46456,-2.79736 0.7801,-5.15067 0.70121,-5.22957 -0.0789,-0.0789 -1.35326,1.82712 -2.8319,4.2356 -9.62508,15.67761 -15.25564,23.30616 -22.71861,30.78008 -5.85611,5.86476 -6.37068,6.17371 -10.1507,6.09495 -0.96479,-0.0201 -2.23386,-0.18246 -2.82013,-0.36079 z m 6.10949,-1.28106 c 1.88837,-0.71794 10.60042,-9.86633 15.00584,-15.75734 5.05913,-6.76516 7.07525,-9.83556 16.68422,-25.40865 0.62853,-1.01871 1.44147,-1.80693 1.86392,-1.80736 0.79992,-8.5e-4 0.78554,0.62814 -0.13141,5.74028 -2.39579,13.35704 -2.16794,21.82613 0.74728,27.77315 1.00306,2.04628 1.52996,2.59459 3.40834,3.54692 1.22204,0.61955 3.39181,1.26225 4.82175,1.42821 2.42582,0.28155 2.8038,0.20032 5.64548,-1.21322 3.81448,-1.89743 7.86416,-5.54847 10.97491,-9.8945 2.90641,-4.06058 9.86923,-16.09707 9.65787,-16.69535 -0.0833,-0.23576 -1.77806,1.90337 -3.76616,4.75361 -4.06742,5.83124 -10.42011,12.62743 -11.80345,12.62743 -1.15692,0 -2.58066,-2.3123 -2.91181,-4.729 -0.62607,-4.56958 3.62719,-21.1005 10.6003,-41.1993 3.8399,-11.06787 4.56935,-13.07337 12.60608,-34.65885 11.36696,-30.52996 12.34672,-33.45063 12.34672,-36.8061 0,-1.21425 -0.0656,-1.25485 -2.02854,-1.25485 -4.70987,0 -12.45389,3.19468 -17.24855,7.11566 -3.12976,2.55944 -2.79962,1.78789 -13.60566,31.79581 -10.88378,30.22379 -21.10214,50.99036 -33.79443,68.67982 -5.83434,8.13148 -12.76717,16.15996 -13.95459,16.15996 -1.15641,0 -1.56284,-2.10549 -1.02611,-5.31578 0.9647,-5.76995 3.52848,-16.25338 5.99964,-24.53263 2.78857,-9.34269 4.52066,-14.32787 11.94055,-34.36616 13.84644,-37.39404 15.53342,-44.86721 11.1237,-49.27695 -1.44568,-1.44568 -1.45797,-1.44893 -4.51513,-1.19308 -4.19028,0.35068 -8.43775,2.53291 -15.07252,7.74377 -8.37499,6.57763 -18.36422,16.962 -17.32054,18.00567 0.12456,0.12456 2.65984,-2.17613 5.63391,-5.11267 6.69307,-6.60858 8.71447,-8.00755 10.5516,-7.30258 0.79639,0.30561 0.78495,4.60314 -0.0213,8.0218 -0.73911,3.13371 -4.3182,14.37509 -4.90361,15.40165 -1.63615,2.86898 -11.03708,29.6847 -15.09417,43.05547 -4.37586,14.42126 -5.39202,18.32032 -5.98067,22.94799 -1.1656,9.16316 -0.70878,13.43401 1.87213,17.50278 2.21187,3.48702 8.06905,5.6028 11.69454,4.22439 z M 328.30153,472.17404 c -1.76436,-0.69512 -2.47017,-1.26514 -3.25691,-2.6303 -5.19691,-9.01771 -3.54966,-26.73417 4.69479,-50.49329 8.70251,-25.0792 21.54224,-45.22012 37.04499,-58.11024 13.44228,-11.17689 24.05325,-15.84045 35.99529,-15.82004 2.37683,0.004 5.59572,0.27744 7.15308,0.60753 2.78385,0.59004 2.88438,0.57962 5.97,-0.61852 3.81094,-1.4798 11.54212,-3.07237 14.04002,-2.89216 1.72036,0.12411 1.83122,0.21093 1.95833,1.5333 0.10632,1.10598 -0.75896,3.07995 -4.10093,9.35576 -5.12776,9.62935 -16.88966,33.11356 -20.75955,41.44917 -7.95767,17.14067 -16.65674,37.4515 -18.71225,43.68992 -1.55871,4.73056 -2.09314,9.15144 -1.36233,11.26944 0.49977,1.44831 0.74387,1.67947 1.64317,1.55578 2.07354,-0.28519 5.83949,-2.70427 10.41255,-6.68853 4.93129,-4.29639 6.25777,-4.83996 6.50918,-2.66734 0.10972,0.94857 -0.82985,2.12976 -5.84093,7.34264 -11.25094,11.70416 -14.83067,14.10761 -21.72863,14.58882 -3.03663,0.21183 -3.27048,0.16288 -4.61112,-0.96519 -2.97951,-2.5071 -4.94197,-7.16897 -5.41733,-12.86908 l -0.2862,-3.43179 -1.05363,1.56734 c -3.853,5.73166 -10.77274,12.9933 -16.25262,17.05562 -5.93394,4.39894 -14.29965,8.14594 -18.05359,8.08619 -0.95308,-0.0152 -2.7465,-0.42693 -3.98538,-0.91503 z m 8.11327,-1.20894 c 4.18003,-1.38429 9.27835,-4.09934 13.13994,-6.99751 4.36634,-3.277 11.09564,-10.1984 15.00452,-15.4329 1.60613,-2.15083 3.16051,-3.91059 3.45415,-3.91059 0.34901,0 0.62713,0.99404 0.80324,2.87052 0.58949,6.28234 2.05342,10.66505 4.41775,13.22611 1.49773,1.62232 1.80226,1.76437 3.78262,1.76437 6.07019,0 10.78545,-2.9905 20.1877,-12.80347 9.21666,-9.61921 9.40088,-10.17442 0.93332,-2.81238 -5.96171,5.18337 -10.70219,6.72433 -12.06269,3.92115 -0.88701,-1.82767 -0.71597,-6.65792 0.37751,-10.65896 2.62489,-9.60455 16.82405,-41.58201 30.6272,-68.97446 5.67891,-11.26984 8.03954,-15.8245 12.38049,-23.88709 1.69879,-3.15524 1.64682,-3.85816 -0.28523,-3.85816 -2.61999,0 -10.00365,1.69705 -13.23313,3.04148 l -3.0874,1.28529 -2.85173,-0.7152 c -4.33899,-1.08817 -11.24907,-0.93293 -16.29761,0.36614 -5.51216,1.41837 -8.07088,2.43662 -12.55029,4.99437 -15.14609,8.64844 -27.95601,22.04845 -38.17463,39.93306 -7.47049,13.07489 -15.55187,34.87728 -18.1289,48.90919 -1.48928,8.10911 -1.95414,14.4197 -1.37992,18.73257 0.86019,6.46073 2.44714,9.76115 5.30437,11.0316 2.35022,1.04501 4.42796,1.03817 7.63872,-0.0251 z m 7.42948,-11.35052 c -0.3229,-0.74082 -0.51197,-3.58551 -0.51584,-7.76103 -0.007,-7.90233 0.85124,-12.5876 4.09098,-22.32626 9.11038,-27.38576 21.69104,-49.20292 37.71253,-65.40046 8.23261,-8.32307 14.38253,-11.49964 18.3208,-9.46308 1.35888,0.70269 1.37649,0.7499 1.09029,2.91741 -0.21778,1.64939 -1.02582,3.43904 -3.21477,7.12005 -4.21511,7.08842 -10.06693,19.37982 -16.99436,35.69564 -12.6385,29.76689 -19.74471,42.11864 -31.32098,54.44117 -5.54882,5.90647 -8.09746,7.23423 -9.16865,4.77656 z m 3.76276,-1.30827 c 3.37152,-2.44337 11.28561,-11.88005 15.99934,-19.07741 6.21822,-9.4946 10.80157,-18.74187 19.87913,-40.10784 7.14491,-16.81698 11.88692,-26.78074 16.35868,-34.37215 4.25385,-7.22145 4.52143,-8.8304 1.58818,-9.55015 -2.62225,-0.64345 -9.64694,3.81139 -15.4314,9.78609 -13.81774,14.27228 -24.47255,31.30932 -32.87148,52.56144 -6.80542,17.22011 -9.85655,30.47204 -8.76699,38.07778 0.64258,4.48552 0.69569,4.52941 3.24454,2.68224 z"
       id="path3365"
       inkscape:connector-curvature="0" />
  </g>
</svg>
