  0
SECTION
  2
HEADER
  9
$ACADVER
  1
AC1014
  9
$HANDSEED
  5
FFFF
  9
$MEASUREMENT
 70
     1
  0
ENDSEC
  0
SECTION
  2
TABLES
  0
TABLE
  2
VPORT
  5
8
330
0
100
AcDbSymbolTable
 70
     4
  0
VPORT
  5
2E
330
8
100
AcDbSymbolTableRecord
100
AcDbViewportTableRecord
  2
*ACTIVE
 70
     0
 10
0.0
 20
0.0
 11
1.0
 21
1.0
 12
210.0
 22
148.5
 13
0.0
 23
0.0
 14
10.0
 24
10.0
 15
10.0
 25
10.0
 16
0.0
 26
0.0
 36
1.0
 17
0.0
 27
0.0
 37
0.0
 40
341.0
 41
1.24
 42
50.0
 43
0.0
 44
0.0
 50
0.0
 51
0.0
 71
     0
 72
   100
 73
     1
 74
     3
 75
     0
 76
     0
 77
     0
 78
     0
  0
ENDTAB
  0
TABLE
  2
LTYPE
  5
5
330
0
100
AcDbSymbolTable
 70
     1
  0
LTYPE
  5
14
330
5
100
AcDbSymbolTableRecord
100
AcDbLinetypeTableRecord
  2
BYBLOCK
 70
     0
  3

 72
    65
 73
     0
 40
0.0
  0
LTYPE
  5
15
330
5
100
AcDbSymbolTableRecord
100
AcDbLinetypeTableRecord
  2
BYLAYER
 70
     0
  3

 72
    65
 73
     0
 40
0.0
  0
LTYPE
  5
16
330
5
100
AcDbSymbolTableRecord
100
AcDbLinetypeTableRecord
  2
CONTINUOUS
 70
     0
  3
Solid line
 72
    65
 73
     0
 40
0.0
  0
ENDTAB
  0
TABLE
  2
LAYER
  5
2
100
AcDbSymbolTable
 70
2
  0
LAYER
  5
50
100
AcDbSymbolTableRecord
100
AcDbLayerTableRecord
  2
0
 70
0
  6
CONTINUOUS
  0
LAYER
  5
51
100
AcDbSymbolTableRecord
100
AcDbLayerTableRecord
  2
Calque_1
 70
0
  6
CONTINUOUS
  0
ENDTAB
  0
TABLE
  2
STYLE
  5
3
330
0
100
AcDbSymbolTable
 70
     1
  0
STYLE
  5
11
330
3
100
AcDbSymbolTableRecord
100
AcDbTextStyleTableRecord
  2
STANDARD
 70
     0
 40
0.0
 41
1.0
 50
0.0
 71
     0
 42
2.5
  3
txt
  4

  0
ENDTAB
  0
TABLE
  2
VIEW
  5
6
330
0
100
AcDbSymbolTable
 70
     0
  0
ENDTAB
  0
TABLE
  2
UCS
  5
7
330
0
100
AcDbSymbolTable
 70
     0
  0
ENDTAB
  0
TABLE
  2
APPID
  5
9
330
0
100
AcDbSymbolTable
 70
     2
  0
APPID
  5
12
330
9
100
AcDbSymbolTableRecord
100
AcDbRegAppTableRecord
  2
ACAD
 70
     0
  0
ENDTAB
  0
TABLE
  2
DIMSTYLE
  5
A
330
0
100
AcDbSymbolTable
 70
     1
  0
DIMSTYLE
105
27
330
A
100
AcDbSymbolTableRecord
100
AcDbDimStyleTableRecord
  2
ISO-25
 70
     0
  3

  4

  5

  6

  7

 40
1.0
 41
2.5
 42
0.625
 43
3.75
 44
1.25
 45
0.0
 46
0.0
 47
0.0
 48
0.0
140
2.5
141
2.5
142
0.0
143
0.03937007874016
144
1.0
145
0.0
146
1.0
147
0.625
 71
     0
 72
     0
 73
     0
 74
     0
 75
     0
 76
     0
 77
     1
 78
     8
170
     0
171
     3
172
     1
173
     0
174
     0
175
     0
176
     0
177
     0
178
     0
270
     2
271
     2
272
     2
273
     2
274
     3
340
11
275
     0
280
     0
281
     0
282
     0
283
     0
284
     8
285
     0
286
     0
287
     3
288
     0
  0
ENDTAB
  0
TABLE
  2
BLOCK_RECORD
  5
1
330
0
100
AcDbSymbolTable
 70
     1
  0
BLOCK_RECORD
  5
1F
330
1
100
AcDbSymbolTableRecord
100
AcDbBlockTableRecord
  2
*MODEL_SPACE
  0
BLOCK_RECORD
  5
1B
330
1
100
AcDbSymbolTableRecord
100
AcDbBlockTableRecord
  2
*PAPER_SPACE
  0
ENDTAB
  0
ENDSEC
  0
SECTION
  2
BLOCKS
  0
BLOCK
  5
20
330
1F
100
AcDbEntity
  8
0
100
AcDbBlockBegin
  2
*MODEL_SPACE
 70
     0
 10
0.0
 20
0.0
 30
0.0
  3
*MODEL_SPACE
  1

  0
ENDBLK
  5
21
330
1F
100
AcDbEntity
  8
0
100
AcDbBlockEnd
  0
BLOCK
  5
1C
330
1B
100
AcDbEntity
 67
     1
  8
0
100
AcDbBlockBegin
  2
*PAPER_SPACE
  1

  0
ENDBLK
  5
1D
330
1B
100
AcDbEntity
 67
     1
  8
0
100
AcDbBlockEnd
  0
ENDSEC
  0
SECTION
  2
ENTITIES
  0
SPLINE
  5
100
100
AcDbEntity
  8
Calque_1
 62
7
100
AcDbSpline
 70
8
 71
3
 72
8
 73
4
 74
0
 40
0
 40
0
 40
0
 40
0
 40
1
 40
1
 40
1
 40
1
 10
90.257783
 20
500.049666
 30
0.0
 10
94.258290
 20
500.360882
 30
0.0
 10
102.850206
 20
497.796463
 30
0.0
 10
104.950911
 20
503.048239
 30
0.0
  0
SPLINE
  5
101
100
AcDbEntity
  8
Calque_1
 62
7
100
AcDbSpline
 70
8
 71
3
 72
8
 73
4
 74
0
 40
0
 40
0
 40
0
 40
0
 40
1
 40
1
 40
1
 40
1
 10
104.950911
 20
503.048239
 30
0.0
 10
105.136523
 20
503.512271
 30
0.0
 10
104.905698
 20
504.049833
 30
0.0
 10
104.950911
 20
504.547540
 30
0.0
  0
SPLINE
  5
102
100
AcDbEntity
  8
Calque_1
 62
7
100
AcDbSpline
 70
8
 71
3
 72
8
 73
4
 74
0
 40
0
 40
0
 40
0
 40
0
 40
1
 40
1
 40
1
 40
1
 10
104.950911
 20
504.547540
 30
0.0
 10
105.005959
 20
505.153049
 30
0.0
 10
105.398235
 20
505.756857
 30
0.0
 10
105.250768
 20
506.346718
 30
0.0
  0
SPLINE
  5
103
100
AcDbEntity
  8
Calque_1
 62
7
100
AcDbSpline
 70
8
 71
3
 72
8
 73
4
 74
0
 40
0
 40
0
 40
0
 40
0
 40
1
 40
1
 40
1
 40
1
 10
105.250768
 20
506.346718
 30
0.0
 10
104.605109
 20
508.929364
 30
0.0
 10
98.999016
 20
511.551213
 30
0.0
 10
96.854698
 20
509.645169
 30
0.0
  0
SPLINE
  5
104
100
AcDbEntity
  8
Calque_1
 62
7
100
AcDbSpline
 70
8
 71
3
 72
8
 73
4
 74
0
 40
0
 40
0
 40
0
 40
0
 40
1
 40
1
 40
1
 40
1
 10
96.854698
 20
509.645169
 30
0.0
 10
96.082980
 20
508.959184
 30
0.0
 10
94.783995
 20
504.298517
 30
0.0
 10
95.055540
 20
503.348117
 30
0.0
  0
SPLINE
  5
105
100
AcDbEntity
  8
Calque_1
 62
7
100
AcDbSpline
 70
8
 71
3
 72
8
 73
4
 74
0
 40
0
 40
0
 40
0
 40
0
 40
1
 40
1
 40
1
 40
1
 10
95.055540
 20
503.348117
 30
0.0
 10
95.108349
 20
503.163298
 30
0.0
 10
98.287971
 20
498.912094
 30
0.0
 10
98.354001
 20
498.850214
 30
0.0
  0
SPLINE
  5
106
100
AcDbEntity
  8
Calque_1
 62
7
100
AcDbSpline
 70
8
 71
3
 72
8
 73
4
 74
0
 40
0
 40
0
 40
0
 40
0
 40
1
 40
1
 40
1
 40
1
 10
98.354001
 20
498.850214
 30
0.0
 10
101.721682
 20
495.693014
 30
0.0
 10
110.918038
 20
493.587496
 30
0.0
 10
113.346989
 20
498.850214
 30
0.0
  0
SPLINE
  5
107
100
AcDbEntity
  8
Calque_1
 62
7
100
AcDbSpline
 70
8
 71
3
 72
8
 73
4
 74
0
 40
0
 40
0
 40
0
 40
0
 40
1
 40
1
 40
1
 40
1
 10
113.346989
 20
498.850214
 30
0.0
 10
113.516529
 20
499.217528
 30
0.0
 10
115.112010
 20
503.398375
 30
0.0
 10
113.646847
 20
503.947814
 30
0.0
  0
SPLINE
  5
108
100
AcDbEntity
  8
Calque_1
 62
7
100
AcDbSpline
 70
8
 71
3
 72
8
 73
4
 74
0
 40
0
 40
0
 40
0
 40
0
 40
1
 40
1
 40
1
 40
1
 10
113.646847
 20
503.947814
 30
0.0
 10
111.969825
 20
504.576709
 30
0.0
 10
109.762410
 20
504.142554
 30
0.0
 10
109.148947
 20
502.148665
 30
0.0
  0
SPLINE
  5
109
100
AcDbEntity
  8
Calque_1
 62
7
100
AcDbSpline
 70
8
 71
3
 72
8
 73
4
 74
0
 40
0
 40
0
 40
0
 40
0
 40
1
 40
1
 40
1
 40
1
 10
109.148947
 20
502.148665
 30
0.0
 10
108.913785
 20
501.384416
 30
0.0
 10
109.148947
 20
500.549414
 30
0.0
 10
109.148947
 20
499.749789
 30
0.0
  0
SPLINE
  5
10a
100
AcDbEntity
  8
Calque_1
 62
7
100
AcDbSpline
 70
8
 71
3
 72
8
 73
4
 74
0
 40
0
 40
0
 40
0
 40
0
 40
1
 40
1
 40
1
 40
1
 10
109.148947
 20
499.749789
 30
0.0
 10
109.148947
 20
498.660123
 30
0.0
 10
108.963334
 20
497.693594
 30
0.0
 10
109.748667
 20
496.751187
 30
0.0
  0
SPLINE
  5
10b
100
AcDbEntity
  8
Calque_1
 62
7
100
AcDbSpline
 70
8
 71
3
 72
8
 73
4
 74
0
 40
0
 40
0
 40
0
 40
0
 40
1
 40
1
 40
1
 40
1
 10
109.748667
 20
496.751187
 30
0.0
 10
109.951033
 20
496.508258
 30
0.0
 10
110.365537
 20
496.592731
 30
0.0
 10
110.648248
 20
496.451339
 30
0.0
  0
SPLINE
  5
10c
100
AcDbEntity
  8
Calque_1
 62
7
100
AcDbSpline
 70
8
 71
3
 72
8
 73
4
 74
0
 40
0
 40
0
 40
0
 40
0
 40
1
 40
1
 40
1
 40
1
 10
110.648248
 20
496.451339
 30
0.0
 10
111.369022
 20
496.090942
 30
0.0
 10
111.988363
 20
495.522935
 30
0.0
 10
112.747266
 20
495.251887
 30
0.0
  0
SPLINE
  5
10d
100
AcDbEntity
  8
Calque_1
 62
7
100
AcDbSpline
 70
8
 71
3
 72
8
 73
4
 74
0
 40
0
 40
0
 40
0
 40
0
 40
1
 40
1
 40
1
 40
1
 10
112.747266
 20
495.251887
 30
0.0
 10
114.681966
 20
494.560942
 30
0.0
 10
119.794708
 20
495.104202
 30
0.0
 10
120.543622
 20
497.350913
 30
0.0
  0
SPLINE
  5
10e
100
AcDbEntity
  8
Calque_1
 62
7
100
AcDbSpline
 70
8
 71
3
 72
8
 73
4
 74
0
 40
0
 40
0
 40
0
 40
0
 40
1
 40
1
 40
1
 40
1
 10
120.543622
 20
497.350913
 30
0.0
 10
120.862536
 20
498.307663
 30
0.0
 10
120.557511
 20
499.897984
 30
0.0
 10
119.344184
 20
500.049666
 30
0.0
  0
SPLINE
  5
10f
100
AcDbEntity
  8
Calque_1
 62
7
100
AcDbSpline
 70
8
 71
3
 72
8
 73
4
 74
0
 40
0
 40
0
 40
0
 40
0
 40
1
 40
1
 40
1
 40
1
 10
119.344184
 20
500.049666
 30
0.0
 10
117.722625
 20
500.252343
 30
0.0
 10
112.447409
 20
500.211524
 30
0.0
 10
112.447409
 20
497.650762
 30
0.0
  0
SPLINE
  5
110
100
AcDbEntity
  8
Calque_1
 62
7
100
AcDbSpline
 70
8
 71
3
 72
8
 73
4
 74
0
 40
0
 40
0
 40
0
 40
0
 40
1
 40
1
 40
1
 40
1
 10
112.447409
 20
497.650762
 30
0.0
 10
112.447409
 20
497.112491
 30
0.0
 10
112.619557
 20
496.478438
 30
0.0
 10
113.047123
 20
496.151490
 30
0.0
  0
SPLINE
  5
111
100
AcDbEntity
  8
Calque_1
 62
7
100
AcDbSpline
 70
8
 71
3
 72
8
 73
4
 74
0
 40
0
 40
0
 40
0
 40
0
 40
1
 40
1
 40
1
 40
1
 10
113.047123
 20
496.151490
 30
0.0
 10
116.653649
 20
493.393550
 30
0.0
 10
117.608091
 20
493.625027
 30
0.0
 10
121.743060
 20
493.452737
 30
0.0
  0
SPLINE
  5
112
100
AcDbEntity
  8
Calque_1
 62
7
100
AcDbSpline
 70
8
 71
3
 72
8
 73
4
 74
0
 40
0
 40
0
 40
0
 40
0
 40
1
 40
1
 40
1
 40
1
 10
121.743060
 20
493.452737
 30
0.0
 10
123.865693
 20
493.364296
 30
0.0
 10
127.878426
 20
492.992164
 30
0.0
 10
126.840674
 20
496.451339
 30
0.0
  0
SPLINE
  5
113
100
AcDbEntity
  8
Calque_1
 62
7
100
AcDbSpline
 70
8
 71
3
 72
8
 73
4
 74
0
 40
0
 40
0
 40
0
 40
0
 40
1
 40
1
 40
1
 40
1
 10
126.840674
 20
496.451339
 30
0.0
 10
126.697071
 20
496.930025
 30
0.0
 10
126.183801
 20
497.213887
 30
0.0
 10
125.941093
 20
497.650762
 30
0.0
  0
SPLINE
  5
114
100
AcDbEntity
  8
Calque_1
 62
7
100
AcDbSpline
 70
8
 71
3
 72
8
 73
4
 74
0
 40
0
 40
0
 40
0
 40
0
 40
1
 40
1
 40
1
 40
1
 10
125.941093
 20
497.650762
 30
0.0
 10
125.679682
 20
498.121285
 30
0.0
 10
125.677613
 20
498.729770
 30
0.0
 10
125.341379
 20
499.150063
 30
0.0
  0
SPLINE
  5
115
100
AcDbEntity
  8
Calque_1
 62
7
100
AcDbSpline
 70
8
 71
3
 72
8
 73
4
 74
0
 40
0
 40
0
 40
0
 40
0
 40
1
 40
1
 40
1
 40
1
 10
125.341379
 20
499.150063
 30
0.0
 10
124.348663
 20
500.390957
 30
0.0
 10
122.268013
 20
496.151206
 30
0.0
 10
122.942497
 20
495.251887
 30
0.0
  0
SPLINE
  5
116
100
AcDbEntity
  8
Calque_1
 62
7
100
AcDbSpline
 70
8
 71
3
 72
8
 73
4
 74
0
 40
0
 40
0
 40
0
 40
0
 40
1
 40
1
 40
1
 40
1
 10
122.942497
 20
495.251887
 30
0.0
 10
123.132135
 20
494.999036
 30
0.0
 10
123.559364
 20
495.093430
 30
0.0
 10
123.842075
 20
494.952038
 30
0.0
  0
SPLINE
  5
117
100
AcDbEntity
  8
Calque_1
 62
7
100
AcDbSpline
 70
8
 71
3
 72
8
 73
4
 74
0
 40
0
 40
0
 40
0
 40
0
 40
1
 40
1
 40
1
 40
1
 10
123.842075
 20
494.952038
 30
0.0
 10
125.406329
 20
494.169902
 30
0.0
 10
124.344298
 20
493.987663
 30
0.0
 10
126.840674
 20
493.452737
 30
0.0
  0
SPLINE
  5
118
100
AcDbEntity
  8
Calque_1
 62
7
100
AcDbSpline
 70
8
 71
3
 72
8
 73
4
 74
0
 40
0
 40
0
 40
0
 40
0
 40
1
 40
1
 40
1
 40
1
 10
126.840674
 20
493.452737
 30
0.0
 10
127.988991
 20
493.206690
 30
0.0
 10
130.722554
 20
493.625083
 30
0.0
 10
131.638431
 20
494.052463
 30
0.0
  0
SPLINE
  5
119
100
AcDbEntity
  8
Calque_1
 62
7
100
AcDbSpline
 70
8
 71
3
 72
8
 73
4
 74
0
 40
0
 40
0
 40
0
 40
0
 40
1
 40
1
 40
1
 40
1
 10
131.638431
 20
494.052463
 30
0.0
 10
133.430924
 20
494.888939
 30
0.0
 10
134.801969
 20
497.096022
 30
0.0
 10
134.037306
 20
497.350913
 30
0.0
  0
SPLINE
  5
11a
100
AcDbEntity
  8
Calque_1
 62
7
100
AcDbSpline
 70
8
 71
3
 72
8
 73
4
 74
0
 40
0
 40
0
 40
0
 40
0
 40
1
 40
1
 40
1
 40
1
 10
134.037306
 20
497.350913
 30
0.0
 10
132.881443
 20
497.736198
 30
0.0
 10
132.618022
 20
496.431128
 30
0.0
 10
132.837868
 20
495.551764
 30
0.0
  0
SPLINE
  5
11b
100
AcDbEntity
  8
Calque_1
 62
7
100
AcDbSpline
 70
8
 71
3
 72
8
 73
4
 74
0
 40
0
 40
0
 40
0
 40
0
 40
1
 40
1
 40
1
 40
1
 10
132.837868
 20
495.551764
 30
0.0
 10
133.362553
 20
493.453020
 30
0.0
 10
135.480974
 20
490.992803
 30
0.0
 10
137.635625
 20
490.454135
 30
0.0
  0
SPLINE
  5
11c
100
AcDbEntity
  8
Calque_1
 62
7
100
AcDbSpline
 70
8
 71
3
 72
8
 73
4
 74
0
 40
0
 40
0
 40
0
 40
0
 40
1
 40
1
 40
1
 40
1
 10
137.635625
 20
490.454135
 30
0.0
 10
138.217439
 20
490.308718
 30
0.0
 10
138.837132
 20
490.504025
 30
0.0
 10
139.434786
 20
490.454135
 30
0.0
  0
SPLINE
  5
11d
100
AcDbEntity
  8
Calque_1
 62
7
100
AcDbSpline
 70
8
 71
3
 72
8
 73
4
 74
0
 40
0
 40
0
 40
0
 40
0
 40
1
 40
1
 40
1
 40
1
 10
139.434786
 20
490.454135
 30
0.0
 10
140.040675
 20
490.403679
 30
0.0
 10
140.630647
 20
490.078857
 30
0.0
 10
141.233947
 20
490.154287
 30
0.0
  0
SPLINE
  5
11e
100
AcDbEntity
  8
Calque_1
 62
7
100
AcDbSpline
 70
8
 71
3
 72
8
 73
4
 74
0
 40
0
 40
0
 40
0
 40
0
 40
1
 40
1
 40
1
 40
1
 10
141.233947
 20
490.154287
 30
0.0
 10
141.959092
 20
490.244995
 30
0.0
 10
142.401305
 20
492.017584
 30
0.0
 10
142.133519
 20
492.553162
 30
0.0
  0
SPLINE
  5
11f
100
AcDbEntity
  8
Calque_1
 62
7
100
AcDbSpline
 70
8
 71
3
 72
8
 73
4
 74
0
 40
0
 40
0
 40
0
 40
0
 40
1
 40
1
 40
1
 40
1
 10
142.133519
 20
492.553162
 30
0.0
 10
141.664266
 20
493.491657
 30
0.0
 10
142.421046
 20
490.166617
 30
0.0
 10
142.733239
 20
489.854409
 30
0.0
  0
SPLINE
  5
120
100
AcDbEntity
  8
Calque_1
 62
7
100
AcDbSpline
 70
8
 71
3
 72
8
 73
4
 74
0
 40
0
 40
0
 40
0
 40
0
 40
1
 40
1
 40
1
 40
1
 10
142.733239
 20
489.854409
 30
0.0
 10
143.856689
 20
488.730983
 30
0.0
 10
146.429983
 20
488.374809
 30
0.0
 10
147.830856
 20
488.654986
 30
0.0
  0
SPLINE
  5
121
100
AcDbEntity
  8
Calque_1
 62
7
100
AcDbSpline
 70
8
 71
3
 72
8
 73
4
 74
0
 40
0
 40
0
 40
0
 40
0
 40
1
 40
1
 40
1
 40
1
 10
147.830856
 20
488.654986
 30
0.0
 10
149.511404
 20
488.991090
 30
0.0
 10
148.332725
 20
492.357458
 30
0.0
 10
147.830856
 20
491.353710
 30
0.0
  0
SPLINE
  5
122
100
AcDbEntity
  8
Calque_1
 62
7
100
AcDbSpline
 70
8
 71
3
 72
8
 73
4
 74
0
 40
0
 40
0
 40
0
 40
0
 40
1
 40
1
 40
1
 40
1
 10
147.830856
 20
491.353710
 30
0.0
 10
147.797634
 20
491.287380
 30
0.0
 10
147.792844
 20
489.867080
 30
0.0
 10
147.830856
 20
489.854409
 30
0.0
  0
SPLINE
  5
123
100
AcDbEntity
  8
Calque_1
 62
7
100
AcDbSpline
 70
8
 71
3
 72
8
 73
4
 74
0
 40
0
 40
0
 40
0
 40
0
 40
1
 40
1
 40
1
 40
1
 10
147.830856
 20
489.854409
 30
0.0
 10
149.090224
 20
489.434627
 30
0.0
 10
151.396087
 20
489.489704
 30
0.0
 10
152.628613
 20
489.554561
 30
0.0
  0
SPLINE
  5
124
100
AcDbEntity
  8
Calque_1
 62
7
100
AcDbSpline
 70
8
 71
3
 72
8
 73
4
 74
0
 40
0
 40
0
 40
0
 40
0
 40
1
 40
1
 40
1
 40
1
 10
152.628613
 20
489.554561
 30
0.0
 10
153.727917
 20
489.612387
 30
0.0
 10
159.298424
 20
489.745049
 30
0.0
 10
157.426370
 20
492.553162
 30
0.0
  0
SPLINE
  5
125
100
AcDbEntity
  8
Calque_1
 62
7
100
AcDbSpline
 70
8
 71
3
 72
8
 73
4
 74
0
 40
0
 40
0
 40
0
 40
0
 40
1
 40
1
 40
1
 40
1
 10
157.426370
 20
492.553162
 30
0.0
 10
157.302156
 20
492.739398
 30
0.0
 10
156.299893
 20
492.618076
 30
0.0
 10
156.226932
 20
492.253285
 30
0.0
  0
SPLINE
  5
126
100
AcDbEntity
  8
Calque_1
 62
7
100
AcDbSpline
 70
8
 71
3
 72
8
 73
4
 74
0
 40
0
 40
0
 40
0
 40
0
 40
1
 40
1
 40
1
 40
1
 10
156.226932
 20
492.253285
 30
0.0
 10
155.891007
 20
490.573701
 30
0.0
 10
156.197083
 20
491.383587
 30
0.0
 10
157.126504
 20
490.454135
 30
0.0
  0
SPLINE
  5
127
100
AcDbEntity
  8
Calque_1
 62
7
100
AcDbSpline
 70
8
 71
3
 72
8
 73
4
 74
0
 40
0
 40
0
 40
0
 40
0
 40
1
 40
1
 40
1
 40
1
 10
157.126504
 20
490.454135
 30
0.0
 10
157.284536
 20
490.295962
 30
0.0
 10
157.217100
 20
489.932901
 30
0.0
 10
157.426370
 20
489.854409
 30
0.0
  0
SPLINE
  5
128
100
AcDbEntity
  8
Calque_1
 62
7
100
AcDbSpline
 70
8
 71
3
 72
8
 73
4
 74
0
 40
0
 40
0
 40
0
 40
0
 40
1
 40
1
 40
1
 40
1
 10
157.426370
 20
489.854409
 30
0.0
 10
158.088141
 20
489.606378
 30
0.0
 10
158.830010
 20
489.680929
 30
0.0
 10
159.525388
 20
489.554561
 30
0.0
  0
SPLINE
  5
129
100
AcDbEntity
  8
Calque_1
 62
7
100
AcDbSpline
 70
8
 71
3
 72
8
 73
4
 74
0
 40
0
 40
0
 40
0
 40
0
 40
1
 40
1
 40
1
 40
1
 10
159.525388
 20
489.554561
 30
0.0
 10
162.550236
 20
489.004583
 30
0.0
 10
165.222726
 20
488.774721
 30
0.0
 10
165.222726
 20
492.553162
 30
0.0
  0
SPLINE
  5
12a
100
AcDbEntity
  8
Calque_1
 62
7
100
AcDbSpline
 70
8
 71
3
 72
8
 73
4
 74
0
 40
0
 40
0
 40
0
 40
0
 40
1
 40
1
 40
1
 40
1
 10
165.222726
 20
492.553162
 30
0.0
 10
165.222726
 20
492.653225
 30
0.0
 10
165.222726
 20
492.353320
 30
0.0
 10
165.222726
 20
492.253285
 30
0.0
  0
SPLINE
  5
12b
100
AcDbEntity
  8
Calque_1
 62
7
100
AcDbSpline
 70
8
 71
3
 72
8
 73
4
 74
0
 40
0
 40
0
 40
0
 40
0
 40
1
 40
1
 40
1
 40
1
 10
165.222726
 20
492.253285
 30
0.0
 10
165.222726
 20
491.553609
 30
0.0
 10
165.070930
 20
490.837294
 30
0.0
 10
165.222726
 20
490.154287
 30
0.0
  0
SPLINE
  5
12c
100
AcDbEntity
  8
Calque_1
 62
7
100
AcDbSpline
 70
8
 71
3
 72
8
 73
4
 74
0
 40
0
 40
0
 40
0
 40
0
 40
1
 40
1
 40
1
 40
1
 10
165.222726
 20
490.154287
 30
0.0
 10
165.571693
 20
488.583893
 30
0.0
 10
167.432054
 20
488.000523
 30
0.0
 10
168.821039
 20
487.755411
 30
0.0
  0
SPLINE
  5
12d
100
AcDbEntity
  8
Calque_1
 62
7
100
AcDbSpline
 70
8
 71
3
 72
8
 73
4
 74
0
 40
0
 40
0
 40
0
 40
0
 40
1
 40
1
 40
1
 40
1
 10
168.821039
 20
487.755411
 30
0.0
 10
169.335913
 20
487.664419
 30
0.0
 10
174.013588
 20
487.218869
 30
0.0
 10
174.818234
 20
487.455534
 30
0.0
  0
SPLINE
  5
12e
100
AcDbEntity
  8
Calque_1
 62
7
100
AcDbSpline
 70
8
 71
3
 72
8
 73
4
 74
0
 40
0
 40
0
 40
0
 40
0
 40
1
 40
1
 40
1
 40
1
 10
174.818234
 20
487.455534
 30
0.0
 10
178.462242
 20
488.527313
 30
0.0
 10
177.849020
 20
491.232302
 30
0.0
 10
175.417954
 20
492.853011
 30
0.0
  0
SPLINE
  5
12f
100
AcDbEntity
  8
Calque_1
 62
7
100
AcDbSpline
 70
8
 71
3
 72
8
 73
4
 74
0
 40
0
 40
0
 40
0
 40
0
 40
1
 40
1
 40
1
 40
1
 10
175.417954
 20
492.853011
 30
0.0
 10
175.334786
 20
492.908287
 30
0.0
 10
175.488593
 20
492.623688
 30
0.0
 10
175.417954
 20
492.553162
 30
0.0
  0
SPLINE
  5
130
100
AcDbEntity
  8
Calque_1
 62
7
100
AcDbSpline
 70
8
 71
3
 72
8
 73
4
 74
0
 40
0
 40
0
 40
0
 40
0
 40
1
 40
1
 40
1
 40
1
 10
175.417954
 20
492.553162
 30
0.0
 10
175.347315
 20
492.482580
 30
0.0
 10
175.218055
 20
492.553162
 30
0.0
 10
175.118091
 20
492.553162
 30
0.0
  0
SPLINE
  5
131
100
AcDbEntity
  8
Calque_1
 62
7
100
AcDbSpline
 70
8
 71
3
 72
8
 73
4
 74
0
 40
0
 40
0
 40
0
 40
0
 40
1
 40
1
 40
1
 40
1
 10
175.118091
 20
492.553162
 30
0.0
 10
175.018141
 20
491.853487
 30
0.0
 10
174.747906
 20
491.157411
 30
0.0
 10
174.818234
 20
490.454135
 30
0.0
  0
SPLINE
  5
132
100
AcDbEntity
  8
Calque_1
 62
7
100
AcDbSpline
 70
8
 71
3
 72
8
 73
4
 74
0
 40
0
 40
0
 40
0
 40
0
 40
1
 40
1
 40
1
 40
1
 10
174.818234
 20
490.454135
 30
0.0
 10
174.854092
 20
490.095553
 30
0.0
 10
175.208479
 20
489.847805
 30
0.0
 10
175.417954
 20
489.554561
 30
0.0
  0
SPLINE
  5
133
100
AcDbEntity
  8
Calque_1
 62
7
100
AcDbSpline
 70
8
 71
3
 72
8
 73
4
 74
0
 40
0
 40
0
 40
0
 40
0
 40
1
 40
1
 40
1
 40
1
 10
175.417954
 20
489.554561
 30
0.0
 10
177.169910
 20
487.101827
 30
0.0
 10
179.692835
 20
487.583972
 30
0.0
 10
182.314729
 20
488.355109
 30
0.0
  0
SPLINE
  5
134
100
AcDbEntity
  8
Calque_1
 62
7
100
AcDbSpline
 70
8
 71
3
 72
8
 73
4
 74
0
 40
0
 40
0
 40
0
 40
0
 40
1
 40
1
 40
1
 40
1
 10
182.314729
 20
488.355109
 30
0.0
 10
183.224435
 20
488.622699
 30
0.0
 10
184.224484
 20
488.728715
 30
0.0
 10
185.013462
 20
489.254712
 30
0.0
  0
SPLINE
  5
135
100
AcDbEntity
  8
Calque_1
 62
7
100
AcDbSpline
 70
8
 71
3
 72
8
 73
4
 74
0
 40
0
 40
0
 40
0
 40
0
 40
1
 40
1
 40
1
 40
1
 10
185.013462
 20
489.254712
 30
0.0
 10
185.383451
 20
489.501326
 30
0.0
 10
186.707075
 20
491.894249
 30
0.0
 10
186.212908
 20
492.553162
 30
0.0
  0
SPLINE
  5
136
100
AcDbEntity
  8
Calque_1
 62
7
100
AcDbSpline
 70
8
 71
3
 72
8
 73
4
 74
0
 40
0
 40
0
 40
0
 40
0
 40
1
 40
1
 40
1
 40
1
 10
186.212908
 20
492.553162
 30
0.0
 10
185.532259
 20
493.460674
 30
0.0
 10
182.587544
 20
494.025392
 30
0.0
 10
181.715009
 20
493.152888
 30
0.0
  0
SPLINE
  5
137
100
AcDbEntity
  8
Calque_1
 62
7
100
AcDbSpline
 70
8
 71
3
 72
8
 73
4
 74
0
 40
0
 40
0
 40
0
 40
0
 40
1
 40
1
 40
1
 40
1
 10
181.715009
 20
493.152888
 30
0.0
 10
180.308339
 20
491.746195
 30
0.0
 10
179.653686
 20
488.702721
 30
0.0
 10
180.515571
 20
486.855808
 30
0.0
  0
SPLINE
  5
138
100
AcDbEntity
  8
Calque_1
 62
7
100
AcDbSpline
 70
8
 71
3
 72
8
 73
4
 74
0
 40
0
 40
0
 40
0
 40
0
 40
1
 40
1
 40
1
 40
1
 10
180.515571
 20
486.855808
 30
0.0
 10
182.743339
 20
482.082009
 30
0.0
 10
186.845270
 20
481.589065
 30
0.0
 10
191.610380
 20
480.558756
 30
0.0
  0
SPLINE
  5
139
100
AcDbEntity
  8
Calque_1
 62
7
100
AcDbSpline
 70
8
 71
3
 72
8
 73
4
 74
0
 40
0
 40
0
 40
0
 40
0
 40
1
 40
1
 40
1
 40
1
 10
191.610380
 20
480.558756
 30
0.0
 10
196.848986
 20
479.426088
 30
0.0
 10
197.113221
 20
479.499619
 30
0.0
 10
203.005049
 20
479.359332
 30
0.0
  0
SPLINE
  5
13a
100
AcDbEntity
  8
Calque_1
 62
7
100
AcDbSpline
 70
8
 71
3
 72
8
 73
4
 74
0
 40
0
 40
0
 40
0
 40
0
 40
1
 40
1
 40
1
 40
1
 10
203.005049
 20
479.359332
 30
0.0
 10
204.664626
 20
479.319931
 30
0.0
 10
210.196137
 20
478.855871
 30
0.0
 10
212.300705
 20
480.258907
 30
0.0
  0
SPLINE
  5
13b
100
AcDbEntity
  8
Calque_1
 62
7
100
AcDbSpline
 70
8
 71
3
 72
8
 73
4
 74
0
 40
0
 40
0
 40
0
 40
0
 40
1
 40
1
 40
1
 40
1
 10
212.300705
 20
480.258907
 30
0.0
 10
215.893684
 20
482.654239
 30
0.0
 10
210.493661
 20
490.711493
 30
0.0
 10
207.802806
 20
491.953436
 30
0.0
  0
SPLINE
  5
13c
100
AcDbEntity
  8
Calque_1
 62
7
100
AcDbSpline
 70
8
 71
3
 72
8
 73
4
 74
0
 40
0
 40
0
 40
0
 40
0
 40
1
 40
1
 40
1
 40
1
 10
207.802806
 20
491.953436
 30
0.0
 10
207.161082
 20
492.249628
 30
0.0
 10
206.408120
 20
492.194665
 30
0.0
 10
205.703787
 20
492.253285
 30
0.0
  0
SPLINE
  5
13d
100
AcDbEntity
  8
Calque_1
 62
7
100
AcDbSpline
 70
8
 71
3
 72
8
 73
4
 74
0
 40
0
 40
0
 40
0
 40
0
 40
1
 40
1
 40
1
 40
1
 10
205.703787
 20
492.253285
 30
0.0
 10
205.205749
 20
492.294671
 30
0.0
 10
204.594741
 20
492.565493
 30
0.0
 10
204.204492
 20
492.253285
 30
0.0
  0
SPLINE
  5
13e
100
AcDbEntity
  8
Calque_1
 62
7
100
AcDbSpline
 70
8
 71
3
 72
8
 73
4
 74
0
 40
0
 40
0
 40
0
 40
0
 40
1
 40
1
 40
1
 40
1
 10
204.204492
 20
492.253285
 30
0.0
 10
202.030753
 20
490.514315
 30
0.0
 10
200.512236
 20
482.202595
 30
0.0
 10
201.205896
 20
479.659181
 30
0.0
  0
SPLINE
  5
13f
100
AcDbEntity
  8
Calque_1
 62
7
100
AcDbSpline
 70
8
 71
3
 72
8
 73
4
 74
0
 40
0
 40
0
 40
0
 40
0
 40
1
 40
1
 40
1
 40
1
 10
201.205896
 20
479.659181
 30
0.0
 10
201.535421
 20
478.450913
 30
0.0
 10
202.297836
 20
477.394356
 30
0.0
 10
203.005049
 20
476.360731
 30
0.0
  0
SPLINE
  5
140
100
AcDbEntity
  8
Calque_1
 62
7
100
AcDbSpline
 70
8
 71
3
 72
8
 73
4
 74
0
 40
0
 40
0
 40
0
 40
0
 40
1
 40
1
 40
1
 40
1
 10
203.005049
 20
476.360731
 30
0.0
 10
206.835267
 20
470.762702
 30
0.0
 10
212.746669
 20
469.070872
 30
0.0
 10
219.197480
 20
468.264529
 30
0.0
  0
SPLINE
  5
141
100
AcDbEntity
  8
Calque_1
 62
7
100
AcDbSpline
 70
8
 71
3
 72
8
 73
4
 74
0
 40
0
 40
0
 40
0
 40
0
 40
1
 40
1
 40
1
 40
1
 10
219.197480
 20
468.264529
 30
0.0
 10
224.751838
 20
467.570211
 30
0.0
 10
228.262774
 20
467.132655
 30
0.0
 10
233.590745
 20
468.864227
 30
0.0
  0
SPLINE
  5
142
100
AcDbEntity
  8
Calque_1
 62
7
100
AcDbSpline
 70
8
 71
3
 72
8
 73
4
 74
0
 40
0
 40
0
 40
0
 40
0
 40
1
 40
1
 40
1
 40
1
 10
233.590745
 20
468.864227
 30
0.0
 10
235.596606
 20
469.516139
 30
0.0
 10
241.352943
 20
472.602161
 30
0.0
 10
242.886393
 20
474.561581
 30
0.0
  0
SPLINE
  5
143
100
AcDbEntity
  8
Calque_1
 62
7
100
AcDbSpline
 70
8
 71
3
 72
8
 73
4
 74
0
 40
0
 40
0
 40
0
 40
0
 40
1
 40
1
 40
1
 40
1
 10
242.886393
 20
474.561581
 30
0.0
 10
243.744418
 20
475.657937
 30
0.0
 10
243.995885
 20
477.123250
 30
0.0
 10
244.385697
 20
478.459757
 30
0.0
  0
SPLINE
  5
144
100
AcDbEntity
  8
Calque_1
 62
7
100
AcDbSpline
 70
8
 71
3
 72
8
 73
4
 74
0
 40
0
 40
0
 40
0
 40
0
 40
1
 40
1
 40
1
 40
1
 10
244.385697
 20
478.459757
 30
0.0
 10
244.698596
 20
479.532557
 30
0.0
 10
245.155340
 20
480.653688
 30
0.0
 10
244.985411
 20
481.758208
 30
0.0
  0
SPLINE
  5
145
100
AcDbEntity
  8
Calque_1
 62
7
100
AcDbSpline
 70
8
 71
3
 72
8
 73
4
 74
0
 40
0
 40
0
 40
0
 40
0
 40
1
 40
1
 40
1
 40
1
 10
244.985411
 20
481.758208
 30
0.0
 10
244.359193
 20
485.828674
 30
0.0
 10
240.657919
 20
490.810422
 30
0.0
 10
238.388502
 20
494.052463
 30
0.0
  0
SPLINE
  5
146
100
AcDbEntity
  8
Calque_1
 62
7
100
AcDbSpline
 70
8
 71
3
 72
8
 73
4
 74
0
 40
0
 40
0
 40
0
 40
0
 40
1
 40
1
 40
1
 40
1
 10
238.388502
 20
494.052463
 30
0.0
 10
233.138007
 20
501.553162
 30
0.0
 10
229.406111
 20
506.215757
 30
0.0
 10
219.497338
 20
506.646567
 30
0.0
  0
SPLINE
  5
147
100
AcDbEntity
  8
Calque_1
 62
7
100
AcDbSpline
 70
8
 71
3
 72
8
 73
4
 74
0
 40
0
 40
0
 40
0
 40
0
 40
1
 40
1
 40
1
 40
1
 10
219.497338
 20
506.646567
 30
0.0
 10
218.498749
 20
506.689937
 30
0.0
 10
217.464523
 20
506.904236
 30
0.0
 10
216.498739
 20
506.646567
 30
0.0
  0
SPLINE
  5
148
100
AcDbEntity
  8
Calque_1
 62
7
100
AcDbSpline
 70
8
 71
3
 72
8
 73
4
 74
0
 40
0
 40
0
 40
0
 40
0
 40
1
 40
1
 40
1
 40
1
 10
216.498739
 20
506.646567
 30
0.0
 10
213.062615
 20
505.730268
 30
0.0
 10
213.136894
 20
495.198482
 30
0.0
 10
213.200286
 20
492.853011
 30
0.0
  0
SPLINE
  5
149
100
AcDbEntity
  8
Calque_1
 62
7
100
AcDbSpline
 70
8
 71
3
 72
8
 73
4
 74
0
 40
0
 40
0
 40
0
 40
0
 40
1
 40
1
 40
1
 40
1
 10
213.200286
 20
492.853011
 30
0.0
 10
213.642958
 20
476.473890
 30
0.0
 10
222.588448
 20
456.171222
 30
0.0
 10
240.787378
 20
453.571398
 30
0.0
  0
SPLINE
  5
14a
100
AcDbEntity
  8
Calque_1
 62
7
100
AcDbSpline
 70
8
 71
3
 72
8
 73
4
 74
0
 40
0
 40
0
 40
0
 40
0
 40
1
 40
1
 40
1
 40
1
 10
240.787378
 20
453.571398
 30
0.0
 10
248.103065
 20
452.526293
 30
0.0
 10
252.878893
 20
454.288819
 30
0.0
 10
259.378685
 20
457.469575
 30
0.0
  0
SPLINE
  5
14b
100
AcDbEntity
  8
Calque_1
 62
7
100
AcDbSpline
 70
8
 71
3
 72
8
 73
4
 74
0
 40
0
 40
0
 40
0
 40
0
 40
1
 40
1
 40
1
 40
1
 10
259.378685
 20
457.469575
 30
0.0
 10
267.210814
 20
461.302328
 30
0.0
 10
273.954835
 20
465.295266
 30
0.0
 10
278.269849
 20
473.062280
 30
0.0
  0
SPLINE
  5
14c
100
AcDbEntity
  8
Calque_1
 62
7
100
AcDbSpline
 70
8
 71
3
 72
8
 73
4
 74
0
 40
0
 40
0
 40
0
 40
0
 40
1
 40
1
 40
1
 40
1
 10
278.269849
 20
473.062280
 30
0.0
 10
279.029645
 20
474.429912
 30
0.0
 10
280.024265
 20
475.734217
 30
0.0
 10
280.368867
 20
477.260306
 30
0.0
  0
SPLINE
  5
14d
100
AcDbEntity
  8
Calque_1
 62
7
100
AcDbSpline
 70
8
 71
3
 72
8
 73
4
 74
0
 40
0
 40
0
 40
0
 40
0
 40
1
 40
1
 40
1
 40
1
 10
280.368867
 20
477.260306
 30
0.0
 10
280.743131
 20
478.917780
 30
0.0
 10
280.418814
 20
480.659443
 30
0.0
 10
280.368867
 20
482.357934
 30
0.0
  0
SPLINE
  5
14e
100
AcDbEntity
  8
Calque_1
 62
7
100
AcDbSpline
 70
8
 71
3
 72
8
 73
4
 74
0
 40
0
 40
0
 40
0
 40
0
 40
1
 40
1
 40
1
 40
1
 10
280.368867
 20
482.357934
 30
0.0
 10
280.120524
 20
490.801351
 30
0.0
 10
277.436801
 20
498.072416
 30
0.0
 10
272.872369
 20
505.147266
 30
0.0
  0
SPLINE
  5
14f
100
AcDbEntity
  8
Calque_1
 62
7
100
AcDbSpline
 70
8
 71
3
 72
8
 73
4
 74
0
 40
0
 40
0
 40
0
 40
0
 40
1
 40
1
 40
1
 40
1
 10
272.872369
 20
505.147266
 30
0.0
 10
270.850391
 20
508.281335
 30
0.0
 10
268.000183
 20
511.701789
 30
0.0
 10
264.476299
 20
513.243468
 30
0.0
  0
SPLINE
  5
150
100
AcDbEntity
  8
Calque_1
 62
7
100
AcDbSpline
 70
8
 71
3
 72
8
 73
4
 74
0
 40
0
 40
0
 40
0
 40
0
 40
1
 40
1
 40
1
 40
1
 10
264.476299
 20
513.243468
 30
0.0
 10
263.721169
 20
513.573846
 30
0.0
 10
262.864137
 20
513.597345
 30
0.0
 10
262.077423
 20
513.843194
 30
0.0
  0
SPLINE
  5
151
100
AcDbEntity
  8
Calque_1
 62
7
100
AcDbSpline
 70
8
 71
3
 72
8
 73
4
 74
0
 40
0
 40
0
 40
0
 40
0
 40
1
 40
1
 40
1
 40
1
 10
262.077423
 20
513.843194
 30
0.0
 10
261.108326
 20
514.146047
 30
0.0
 10
259.421981
 20
515.194668
 30
0.0
 10
258.179247
 20
514.742769
 30
0.0
  0
SPLINE
  5
152
100
AcDbEntity
  8
Calque_1
 62
7
100
AcDbSpline
 70
8
 71
3
 72
8
 73
4
 74
0
 40
0
 40
0
 40
0
 40
0
 40
1
 40
1
 40
1
 40
1
 10
258.179247
 20
514.742769
 30
0.0
 10
254.970882
 20
513.576085
 30
0.0
 10
254.674032
 20
510.017584
 30
0.0
 10
253.981205
 20
507.246293
 30
0.0
  0
SPLINE
  5
153
100
AcDbEntity
  8
Calque_1
 62
7
100
AcDbSpline
 70
8
 71
3
 72
8
 73
4
 74
0
 40
0
 40
0
 40
0
 40
0
 40
1
 40
1
 40
1
 40
1
 10
253.981205
 20
507.246293
 30
0.0
 10
253.604869
 20
505.740926
 30
0.0
 10
253.014222
 20
504.282557
 30
0.0
 10
252.781767
 20
502.748391
 30
0.0
  0
SPLINE
  5
154
100
AcDbEntity
  8
Calque_1
 62
7
100
AcDbSpline
 70
8
 71
3
 72
8
 73
4
 74
0
 40
0
 40
0
 40
0
 40
0
 40
1
 40
1
 40
1
 40
1
 10
252.781767
 20
502.748391
 30
0.0
 10
250.751344
 20
489.347575
 30
0.0
 10
256.579849
 20
477.027326
 30
0.0
 10
263.276861
 20
465.865625
 30
0.0
  0
SPLINE
  5
155
100
AcDbEntity
  8
Calque_1
 62
7
100
AcDbSpline
 70
8
 71
3
 72
8
 73
4
 74
0
 40
0
 40
0
 40
0
 40
0
 40
1
 40
1
 40
1
 40
1
 10
263.276861
 20
465.865625
 30
0.0
 10
265.912617
 20
461.472718
 30
0.0
 10
269.152257
 20
454.724787
 30
0.0
 10
274.071815
 20
452.371946
 30
0.0
  0
SPLINE
  5
156
100
AcDbEntity
  8
Calque_1
 62
7
100
AcDbSpline
 70
8
 71
3
 72
8
 73
4
 74
0
 40
0
 40
0
 40
0
 40
0
 40
1
 40
1
 40
1
 40
1
 10
274.071815
 20
452.371946
 30
0.0
 10
275.384727
 20
451.744044
 30
0.0
 10
276.844408
 20
451.465994
 30
0.0
 10
278.269849
 20
451.172523
 30
0.0
  0
SPLINE
  5
157
100
AcDbEntity
  8
Calque_1
 62
7
100
AcDbSpline
 70
8
 71
3
 72
8
 73
4
 74
0
 40
0
 40
0
 40
0
 40
0
 40
1
 40
1
 40
1
 40
1
 10
278.269849
 20
451.172523
 30
0.0
 10
280.249753
 20
450.764872
 30
0.0
 10
282.251007
 20
450.125405
 30
0.0
 10
284.267055
 20
450.272920
 30
0.0
  0
SPLINE
  5
158
100
AcDbEntity
  8
Calque_1
 62
7
100
AcDbSpline
 70
8
 71
3
 72
8
 73
4
 74
0
 40
0
 40
0
 40
0
 40
0
 40
1
 40
1
 40
1
 40
1
 10
284.267055
 20
450.272920
 30
0.0
 10
288.003118
 20
450.546180
 30
0.0
 10
293.178586
 20
453.134948
 30
0.0
 10
296.261433
 20
455.070671
 30
0.0
  0
SPLINE
  5
159
100
AcDbEntity
  8
Calque_1
 62
7
100
AcDbSpline
 70
8
 71
3
 72
8
 73
4
 74
0
 40
0
 40
0
 40
0
 40
0
 40
1
 40
1
 40
1
 40
1
 10
296.261433
 20
455.070671
 30
0.0
 10
305.905011
 20
461.125956
 30
0.0
 10
313.478107
 20
469.336054
 30
0.0
 10
314.552863
 20
481.158482
 30
0.0
  0
SPLINE
  5
15a
100
AcDbEntity
  8
Calque_1
 62
7
100
AcDbSpline
 70
8
 71
3
 72
8
 73
4
 74
0
 40
0
 40
0
 40
0
 40
0
 40
1
 40
1
 40
1
 40
1
 10
314.552863
 20
481.158482
 30
0.0
 10
315.360907
 20
490.046825
 30
0.0
 10
312.561950
 20
496.757140
 30
0.0
 10
309.755112
 20
504.847389
 30
0.0
  0
SPLINE
  5
15b
100
AcDbEntity
  8
Calque_1
 62
7
100
AcDbSpline
 70
8
 71
3
 72
8
 73
4
 74
0
 40
0
 40
0
 40
0
 40
0
 40
1
 40
1
 40
1
 40
1
 10
309.755112
 20
504.847389
 30
0.0
 10
308.895165
 20
507.326117
 30
0.0
 10
308.271203
 20
509.884951
 30
0.0
 10
307.356236
 20
512.343893
 30
0.0
  0
SPLINE
  5
15c
100
AcDbEntity
  8
Calque_1
 62
7
100
AcDbSpline
 70
8
 71
3
 72
8
 73
4
 74
0
 40
0
 40
0
 40
0
 40
0
 40
1
 40
1
 40
1
 40
1
 10
307.356236
 20
512.343893
 30
0.0
 10
303.697843
 20
522.175833
 30
0.0
 10
295.977855
 20
533.493581
 30
0.0
 10
286.665931
 20
538.731553
 30
0.0
  0
SPLINE
  5
15d
100
AcDbEntity
  8
Calque_1
 62
7
100
AcDbSpline
 70
8
 71
3
 72
8
 73
4
 74
0
 40
0
 40
0
 40
0
 40
0
 40
1
 40
1
 40
1
 40
1
 10
286.665931
 20
538.731553
 30
0.0
 10
286.606120
 20
538.765285
 30
0.0
 10
283.749080
 20
539.903707
 30
0.0
 10
283.367463
 20
539.331279
 30
0.0
  0
SPLINE
  5
15e
100
AcDbEntity
  8
Calque_1
 62
7
100
AcDbSpline
 70
8
 71
3
 72
8
 73
4
 74
0
 40
0
 40
0
 40
0
 40
0
 40
1
 40
1
 40
1
 40
1
 10
283.367463
 20
539.331279
 30
0.0
 10
281.688738
 20
536.813206
 30
0.0
 10
282.168026
 20
529.137184
 30
0.0
 10
282.168026
 20
526.437298
 30
0.0
  0
SPLINE
  5
15f
100
AcDbEntity
  8
Calque_1
 62
7
100
AcDbSpline
 70
8
 71
3
 72
8
 73
4
 74
0
 40
0
 40
0
 40
0
 40
0
 40
1
 40
1
 40
1
 40
1
 10
282.168026
 20
526.437298
 30
0.0
 10
282.168026
 20
520.349726
 30
0.0
 10
282.509464
 20
514.088872
 30
0.0
 10
283.967178
 20
508.145868
 30
0.0
  0
SPLINE
  5
160
100
AcDbEntity
  8
Calque_1
 62
7
100
AcDbSpline
 70
8
 71
3
 72
8
 73
4
 74
0
 40
0
 40
0
 40
0
 40
0
 40
1
 40
1
 40
1
 40
1
 10
283.967178
 20
508.145868
 30
0.0
 10
284.667477
 20
505.290784
 30
0.0
 10
285.821206
 20
502.565528
 30
0.0
 10
286.665931
 20
499.749789
 30
0.0
  0
SPLINE
  5
161
100
AcDbEntity
  8
Calque_1
 62
7
100
AcDbSpline
 70
8
 71
3
 72
8
 73
4
 74
0
 40
0
 40
0
 40
0
 40
0
 40
1
 40
1
 40
1
 40
1
 10
286.665931
 20
499.749789
 30
0.0
 10
289.003550
 20
491.957688
 30
0.0
 10
290.714428
 20
483.787191
 30
0.0
 10
294.162406
 20
476.360731
 30
0.0
  0
SPLINE
  5
162
100
AcDbEntity
  8
Calque_1
 62
7
100
AcDbSpline
 70
8
 71
3
 72
8
 73
4
 74
0
 40
0
 40
0
 40
0
 40
0
 40
1
 40
1
 40
1
 40
1
 10
294.162406
 20
476.360731
 30
0.0
 10
296.333745
 20
471.684047
 30
0.0
 10
298.964409
 20
467.245587
 30
0.0
 10
301.658910
 20
462.867052
 30
0.0
  0
SPLINE
  5
163
100
AcDbEntity
  8
Calque_1
 62
7
100
AcDbSpline
 70
8
 71
3
 72
8
 73
4
 74
0
 40
0
 40
0
 40
0
 40
0
 40
1
 40
1
 40
1
 40
1
 10
301.658910
 20
462.867052
 30
0.0
 10
305.491408
 20
456.639250
 30
0.0
 10
307.759720
 20
452.307231
 30
0.0
 10
316.052192
 20
451.772220
 30
0.0
  0
SPLINE
  5
164
100
AcDbEntity
  8
Calque_1
 62
7
100
AcDbSpline
 70
8
 71
3
 72
8
 73
4
 74
0
 40
0
 40
0
 40
0
 40
0
 40
1
 40
1
 40
1
 40
1
 10
316.052192
 20
451.772220
 30
0.0
 10
317.651216
 20
451.669039
 30
0.0
 10
319.253102
 20
451.938898
 30
0.0
 10
320.849915
 20
452.072098
 30
0.0
  0
SPLINE
  5
165
100
AcDbEntity
  8
Calque_1
 62
7
100
AcDbSpline
 70
8
 71
3
 72
8
 73
4
 74
0
 40
0
 40
0
 40
0
 40
0
 40
1
 40
1
 40
1
 40
1
 10
320.849915
 20
452.072098
 30
0.0
 10
329.086091
 20
452.758422
 30
0.0
 10
331.543049
 20
453.746608
 30
0.0
 10
338.541647
 20
458.069272
 30
0.0
  0
SPLINE
  5
166
100
AcDbEntity
  8
Calque_1
 62
7
100
AcDbSpline
 70
8
 71
3
 72
8
 73
4
 74
0
 40
0
 40
0
 40
0
 40
0
 40
1
 40
1
 40
1
 40
1
 10
338.541647
 20
458.069272
 30
0.0
 10
340.146198
 20
459.060321
 30
0.0
 10
341.980951
 20
459.759742
 30
0.0
 10
343.339427
 20
461.067874
 30
0.0
  0
SPLINE
  5
167
100
AcDbEntity
  8
Calque_1
 62
7
100
AcDbSpline
 70
8
 71
3
 72
8
 73
4
 74
0
 40
0
 40
0
 40
0
 40
0
 40
1
 40
1
 40
1
 40
1
 10
343.339427
 20
461.067874
 30
0.0
 10
345.334904
 20
462.989480
 30
0.0
 10
348.728683
 20
469.563109
 30
0.0
 10
349.636479
 20
471.862828
 30
0.0
  0
SPLINE
  5
168
100
AcDbEntity
  8
Calque_1
 62
7
100
AcDbSpline
 70
8
 71
3
 72
8
 73
4
 74
0
 40
0
 40
0
 40
0
 40
0
 40
1
 40
1
 40
1
 40
1
 10
349.636479
 20
471.862828
 30
0.0
 10
351.953887
 20
477.733606
 30
0.0
 10
352.035354
 20
483.660879
 30
0.0
 10
352.035354
 20
489.854409
 30
0.0
  0
SPLINE
  5
169
100
AcDbEntity
  8
Calque_1
 62
7
100
AcDbSpline
 70
8
 71
3
 72
8
 73
4
 74
0
 40
0
 40
0
 40
0
 40
0
 40
1
 40
1
 40
1
 40
1
 10
352.035354
 20
489.854409
 30
0.0
 10
352.035354
 20
492.153335
 30
0.0
 10
352.222441
 20
494.459887
 30
0.0
 10
352.035354
 20
496.751187
 30
0.0
  0
SPLINE
  5
16a
100
AcDbEntity
  8
Calque_1
 62
7
100
AcDbSpline
 70
8
 71
3
 72
8
 73
4
 74
0
 40
0
 40
0
 40
0
 40
0
 40
1
 40
1
 40
1
 40
1
 10
352.035354
 20
496.751187
 30
0.0
 10
351.821339
 20
499.371846
 30
0.0
 10
351.221244
 20
501.946583
 30
0.0
 10
350.835902
 20
504.547540
 30
0.0
  0
SPLINE
  5
16b
100
AcDbEntity
  8
Calque_1
 62
7
100
AcDbSpline
 70
8
 71
3
 72
8
 73
4
 74
0
 40
0
 40
0
 40
0
 40
0
 40
1
 40
1
 40
1
 40
1
 10
350.835902
 20
504.547540
 30
0.0
 10
350.421591
 20
507.344117
 30
0.0
 10
350.199921
 20
510.173235
 30
0.0
 10
349.636479
 20
512.943619
 30
0.0
  0
SPLINE
  5
16c
100
AcDbEntity
  8
Calque_1
 62
7
100
AcDbSpline
 70
8
 71
3
 72
8
 73
4
 74
0
 40
0
 40
0
 40
0
 40
0
 40
1
 40
1
 40
1
 40
1
 10
349.636479
 20
512.943619
 30
0.0
 10
347.965087
 20
521.161313
 30
0.0
 10
347.184822
 20
522.948898
 30
0.0
 10
343.639276
 20
530.335474
 30
0.0
  0
SPLINE
  5
16d
100
AcDbEntity
  8
Calque_1
 62
7
100
AcDbSpline
 70
8
 71
3
 72
8
 73
4
 74
0
 40
0
 40
0
 40
0
 40
0
 40
1
 40
1
 40
1
 40
1
 10
343.639276
 20
530.335474
 30
0.0
 10
341.049685
 20
535.730457
 30
0.0
 10
338.490567
 20
541.542217
 30
0.0
 10
332.544472
 20
543.829181
 30
0.0
  0
SPLINE
  5
16e
100
AcDbEntity
  8
Calque_1
 62
7
100
AcDbSpline
 70
8
 71
3
 72
8
 73
4
 74
0
 40
0
 40
0
 40
0
 40
0
 40
1
 40
1
 40
1
 40
1
 10
332.544472
 20
543.829181
 30
0.0
 10
331.067027
 20
544.397414
 30
0.0
 10
326.882324
 20
546.071443
 30
0.0
 10
325.347817
 20
544.728756
 30
0.0
  0
SPLINE
  5
16f
100
AcDbEntity
  8
Calque_1
 62
7
100
AcDbSpline
 70
8
 71
3
 72
8
 73
4
 74
0
 40
0
 40
0
 40
0
 40
0
 40
1
 40
1
 40
1
 40
1
 10
325.347817
 20
544.728756
 30
0.0
 10
322.733310
 20
542.441027
 30
0.0
 10
321.925635
 20
534.917083
 30
0.0
 10
321.749518
 20
531.834775
 30
0.0
  0
SPLINE
  5
170
100
AcDbEntity
  8
Calque_1
 62
7
100
AcDbSpline
 70
8
 71
3
 72
8
 73
4
 74
0
 40
0
 40
0
 40
0
 40
0
 40
1
 40
1
 40
1
 40
1
 10
321.749518
 20
531.834775
 30
0.0
 10
321.287613
 20
523.751471
 30
0.0
 10
321.758022
 20
528.176013
 30
0.0
 10
322.649093
 20
521.039849
 30
0.0
  0
SPLINE
  5
171
100
AcDbEntity
  8
Calque_1
 62
7
100
AcDbSpline
 70
8
 71
3
 72
8
 73
4
 74
0
 40
0
 40
0
 40
0
 40
0
 40
1
 40
1
 40
1
 40
1
 10
322.649093
 20
521.039849
 30
0.0
 10
323.127921
 20
517.209080
 30
0.0
 10
323.063660
 20
513.337408
 30
0.0
 10
324.448243
 20
509.645169
 30
0.0
  0
SPLINE
  5
172
100
AcDbEntity
  8
Calque_1
 62
7
100
AcDbSpline
 70
8
 71
3
 72
8
 73
4
 74
0
 40
0
 40
0
 40
0
 40
0
 40
1
 40
1
 40
1
 40
1
 10
324.448243
 20
509.645169
 30
0.0
 10
325.264564
 20
507.468331
 30
0.0
 10
326.569691
 20
505.501143
 30
0.0
 10
327.446844
 20
503.348117
 30
0.0
  0
SPLINE
  5
173
100
AcDbEntity
  8
Calque_1
 62
7
100
AcDbSpline
 70
8
 71
3
 72
8
 73
4
 74
0
 40
0
 40
0
 40
0
 40
0
 40
1
 40
1
 40
1
 40
1
 10
327.446844
 20
503.348117
 30
0.0
 10
328.007480
 20
501.972009
 30
0.0
 10
328.446369
 20
500.549414
 30
0.0
 10
328.946145
 20
499.150063
 30
0.0
  0
SPLINE
  5
174
100
AcDbEntity
  8
Calque_1
 62
7
100
AcDbSpline
 70
8
 71
3
 72
8
 73
4
 74
0
 40
0
 40
0
 40
0
 40
0
 40
1
 40
1
 40
1
 40
1
 10
328.946145
 20
499.150063
 30
0.0
 10
329.645820
 20
497.350913
 30
0.0
 10
330.305783
 20
495.535805
 30
0.0
 10
331.045172
 20
493.752586
 30
0.0
  0
SPLINE
  5
175
100
AcDbEntity
  8
Calque_1
 62
7
100
AcDbSpline
 70
8
 71
3
 72
8
 73
4
 74
0
 40
0
 40
0
 40
0
 40
0
 40
1
 40
1
 40
1
 40
1
 10
331.045172
 20
493.752586
 30
0.0
 10
332.005294
 20
491.436935
 30
0.0
 10
333.128551
 20
489.189600
 30
0.0
 10
334.043773
 20
486.855808
 30
0.0
  0
SPLINE
  5
176
100
AcDbEntity
  8
Calque_1
 62
7
100
AcDbSpline
 70
8
 71
3
 72
8
 73
4
 74
0
 40
0
 40
0
 40
0
 40
0
 40
1
 40
1
 40
1
 40
1
 10
334.043773
 20
486.855808
 30
0.0
 10
335.128734
 20
484.089137
 30
0.0
 10
335.984400
 20
481.236888
 30
0.0
 10
337.042375
 20
478.459757
 30
0.0
  0
SPLINE
  5
177
100
AcDbEntity
  8
Calque_1
 62
7
100
AcDbSpline
 70
8
 71
3
 72
8
 73
4
 74
0
 40
0
 40
0
 40
0
 40
0
 40
1
 40
1
 40
1
 40
1
 10
337.042375
 20
478.459757
 30
0.0
 10
342.194117
 20
464.936400
 30
0.0
 10
339.766554
 20
471.770986
 30
0.0
 10
344.538850
 20
460.468176
 30
0.0
  0
SPLINE
  5
178
100
AcDbEntity
  8
Calque_1
 62
7
100
AcDbSpline
 70
8
 71
3
 72
8
 73
4
 74
0
 40
0
 40
0
 40
0
 40
0
 40
1
 40
1
 40
1
 40
1
 10
344.538850
 20
460.468176
 30
0.0
 10
345.376318
 20
458.484661
 30
0.0
 10
346.201937
 20
456.494400
 30
0.0
 10
346.937726
 20
454.470973
 30
0.0
  0
SPLINE
  5
179
100
AcDbEntity
  8
Calque_1
 62
7
100
AcDbSpline
 70
8
 71
3
 72
8
 73
4
 74
0
 40
0
 40
0
 40
0
 40
0
 40
1
 40
1
 40
1
 40
1
 10
346.937726
 20
454.470973
 30
0.0
 10
348.883682
 20
449.119616
 30
0.0
 10
348.313550
 20
443.992706
 30
0.0
 10
355.033956
 20
443.076293
 30
0.0
  0
SPLINE
  5
17a
100
AcDbEntity
  8
Calque_1
 62
7
100
AcDbSpline
 70
8
 71
3
 72
8
 73
4
 74
0
 40
0
 40
0
 40
0
 40
0
 40
1
 40
1
 40
1
 40
1
 10
355.033956
 20
443.076293
 30
0.0
 10
361.361310
 20
442.213483
 30
0.0
 10
364.752765
 20
447.987090
 30
0.0
 10
367.028334
 20
452.971672
 30
0.0
  0
SPLINE
  5
17b
100
AcDbEntity
  8
Calque_1
 62
7
100
AcDbSpline
 70
8
 71
3
 72
8
 73
4
 74
0
 40
0
 40
0
 40
0
 40
0
 40
1
 40
1
 40
1
 40
1
 10
367.028334
 20
452.971672
 30
0.0
 10
370.361820
 20
460.273578
 30
0.0
 10
369.579175
 20
462.366227
 30
0.0
 10
370.026935
 20
470.963254
 30
0.0
  0
SPLINE
  5
17c
100
AcDbEntity
  8
Calque_1
 62
7
100
AcDbSpline
 70
8
 71
3
 72
8
 73
4
 74
0
 40
0
 40
0
 40
0
 40
0
 40
1
 40
1
 40
1
 40
1
 10
370.026935
 20
470.963254
 30
0.0
 10
370.547830
 20
480.964422
 30
0.0
 10
371.224998
 20
489.149008
 30
0.0
 10
370.926510
 20
498.850214
 30
0.0
  0
SPLINE
  5
17d
100
AcDbEntity
  8
Calque_1
 62
7
100
AcDbSpline
 70
8
 71
3
 72
8
 73
4
 74
0
 40
0
 40
0
 40
0
 40
0
 40
1
 40
1
 40
1
 40
1
 10
370.926510
 20
498.850214
 30
0.0
 10
370.827865
 20
502.053449
 30
0.0
 10
370.512255
 20
505.246337
 30
0.0
 10
370.326784
 20
508.445717
 30
0.0
  0
SPLINE
  5
17e
100
AcDbEntity
  8
Calque_1
 62
7
100
AcDbSpline
 70
8
 71
3
 72
8
 73
4
 74
0
 40
0
 40
0
 40
0
 40
0
 40
1
 40
1
 40
1
 40
1
 10
370.326784
 20
508.445717
 30
0.0
 10
370.112485
 20
512.143172
 30
0.0
 10
370.236643
 20
515.872091
 30
0.0
 10
369.727058
 20
519.540520
 30
0.0
  0
SPLINE
  5
17f
100
AcDbEntity
  8
Calque_1
 62
7
100
AcDbSpline
 70
8
 71
3
 72
8
 73
4
 74
0
 40
0
 40
0
 40
0
 40
0
 40
1
 40
1
 40
1
 40
1
 10
369.727058
 20
519.540520
 30
0.0
 10
369.233405
 20
523.094995
 30
0.0
 10
368.185918
 20
526.551052
 30
0.0
 10
367.328183
 20
530.035625
 30
0.0
  0
SPLINE
  5
180
100
AcDbEntity
  8
Calque_1
 62
7
100
AcDbSpline
 70
8
 71
3
 72
8
 73
4
 74
0
 40
0
 40
0
 40
0
 40
0
 40
1
 40
1
 40
1
 40
1
 10
367.328183
 20
530.035625
 30
0.0
 10
366.586441
 20
533.049052
 30
0.0
 10
365.712690
 20
536.028520
 30
0.0
 10
364.929307
 20
539.031430
 30
0.0
  0
SPLINE
  5
181
100
AcDbEntity
  8
Calque_1
 62
7
100
AcDbSpline
 70
8
 71
3
 72
8
 73
4
 74
0
 40
0
 40
0
 40
0
 40
0
 40
1
 40
1
 40
1
 40
1
 10
364.929307
 20
539.031430
 30
0.0
 10
364.011902
 20
542.548205
 30
0.0
 10
363.355427
 20
545.590261
 30
0.0
 10
361.331008
 20
548.626932
 30
0.0
  0
SPLINE
  5
182
100
AcDbEntity
  8
Calque_1
 62
7
100
AcDbSpline
 70
8
 71
3
 72
8
 73
4
 74
0
 40
0
 40
0
 40
0
 40
0
 40
1
 40
1
 40
1
 40
1
 10
361.331008
 20
548.626932
 30
0.0
 10
361.174252
 20
548.862208
 30
0.0
 10
360.888094
 20
548.991411
 30
0.0
 10
360.731282
 20
549.226658
 30
0.0
  0
SPLINE
  5
183
100
AcDbEntity
  8
Calque_1
 62
7
100
AcDbSpline
 70
8
 71
3
 72
8
 73
4
 74
0
 40
0
 40
0
 40
0
 40
0
 40
1
 40
1
 40
1
 40
1
 10
360.731282
 20
549.226658
 30
0.0
 10
360.675723
 20
549.309713
 30
0.0
 10
360.820573
 20
549.481776
 30
0.0
 10
360.731282
 20
549.526507
 30
0.0
  0
SPLINE
  5
184
100
AcDbEntity
  8
Calque_1
 62
7
100
AcDbSpline
 70
8
 71
3
 72
8
 73
4
 74
0
 40
0
 40
0
 40
0
 40
0
 40
1
 40
1
 40
1
 40
1
 10
360.731282
 20
549.526507
 30
0.0
 10
360.284287
 20
549.749877
 30
0.0
 10
359.731729
 20
549.526507
 30
0.0
 10
359.231981
 20
549.526507
 30
0.0
  0
SPLINE
  5
185
100
AcDbEntity
  8
Calque_1
 62
7
100
AcDbSpline
 70
8
 71
3
 72
8
 73
4
 74
0
 40
0
 40
0
 40
0
 40
0
 40
1
 40
1
 40
1
 40
1
 10
359.231981
 20
549.526507
 30
0.0
 10
358.832183
 20
549.526507
 30
0.0
 10
358.432356
 20
549.526507
 30
0.0
 10
358.032529
 20
549.526507
 30
0.0
  0
SPLINE
  5
186
100
AcDbEntity
  8
Calque_1
 62
7
100
AcDbSpline
 70
8
 71
3
 72
8
 73
4
 74
0
 40
0
 40
0
 40
0
 40
0
 40
1
 40
1
 40
1
 40
1
 10
358.032529
 20
549.526507
 30
0.0
 10
357.832687
 20
549.526507
 30
0.0
 10
357.535672
 20
549.698003
 30
0.0
 10
357.432831
 20
549.526507
 30
0.0
  0
SPLINE
  5
187
100
AcDbEntity
  8
Calque_1
 62
7
100
AcDbSpline
 70
8
 71
3
 72
8
 73
4
 74
0
 40
0
 40
0
 40
0
 40
0
 40
1
 40
1
 40
1
 40
1
 10
357.432831
 20
549.526507
 30
0.0
 10
356.773805
 20
548.428139
 30
0.0
 10
357.401934
 20
545.802746
 30
0.0
 10
357.432831
 20
545.028605
 30
0.0
  0
SPLINE
  5
188
100
AcDbEntity
  8
Calque_1
 62
7
100
AcDbSpline
 70
8
 71
3
 72
8
 73
4
 74
0
 40
0
 40
0
 40
0
 40
0
 40
1
 40
1
 40
1
 40
1
 10
357.432831
 20
545.028605
 30
0.0
 10
357.827528
 20
535.160806
 30
0.0
 10
356.695427
 20
546.737641
 30
0.0
 10
358.032529
 20
533.633953
 30
0.0
  0
SPLINE
  5
189
100
AcDbEntity
  8
Calque_1
 62
7
100
AcDbSpline
 70
8
 71
3
 72
8
 73
4
 74
0
 40
0
 40
0
 40
0
 40
0
 40
1
 40
1
 40
1
 40
1
 10
358.032529
 20
533.633953
 30
0.0
 10
358.762082
 20
526.484523
 30
0.0
 10
359.557710
 20
519.254362
 30
0.0
 10
361.630857
 20
512.343893
 30
0.0
  0
SPLINE
  5
18a
100
AcDbEntity
  8
Calque_1
 62
7
100
AcDbSpline
 70
8
 71
3
 72
8
 73
4
 74
0
 40
0
 40
0
 40
0
 40
0
 40
1
 40
1
 40
1
 40
1
 10
361.630857
 20
512.343893
 30
0.0
 10
365.115288
 20
500.729159
 30
0.0
 10
362.261225
 20
511.298532
 30
0.0
 10
365.529033
 20
502.148665
 30
0.0
  0
SPLINE
  5
18b
100
AcDbEntity
  8
Calque_1
 62
7
100
AcDbSpline
 70
8
 71
3
 72
8
 73
4
 74
0
 40
0
 40
0
 40
0
 40
0
 40
1
 40
1
 40
1
 40
1
 10
365.529033
 20
502.148665
 30
0.0
 10
367.893014
 20
495.529512
 30
0.0
 10
365.447679
 20
500.340189
 30
0.0
 10
368.227786
 20
494.352312
 30
0.0
  0
SPLINE
  5
18c
100
AcDbEntity
  8
Calque_1
 62
7
100
AcDbSpline
 70
8
 71
3
 72
8
 73
4
 74
0
 40
0
 40
0
 40
0
 40
0
 40
1
 40
1
 40
1
 40
1
 10
368.227786
 20
494.352312
 30
0.0
 10
372.439843
 20
485.280170
 30
0.0
 10
368.910879
 20
494.048494
 30
0.0
 10
373.325386
 20
483.257509
 30
0.0
  0
SPLINE
  5
18d
100
AcDbEntity
  8
Calque_1
 62
7
100
AcDbSpline
 70
8
 71
3
 72
8
 73
4
 74
0
 40
0
 40
0
 40
0
 40
0
 40
1
 40
1
 40
1
 40
1
 10
373.325386
 20
483.257509
 30
0.0
 10
376.164850
 20
476.316595
 30
0.0
 10
378.599754
 20
469.213427
 30
0.0
 10
381.421587
 20
462.267326
 30
0.0
  0
SPLINE
  5
18e
100
AcDbEntity
  8
Calque_1
 62
7
100
AcDbSpline
 70
8
 71
3
 72
8
 73
4
 74
0
 40
0
 40
0
 40
0
 40
0
 40
1
 40
1
 40
1
 40
1
 10
381.421587
 20
462.267326
 30
0.0
 10
382.232976
 20
460.270091
 30
0.0
 10
382.920917
 20
459.568488
 30
0.0
 10
383.220765
 20
457.769424
 30
0.0
  0
SPLINE
  5
18f
100
AcDbEntity
  8
Calque_1
 62
7
100
AcDbSpline
 70
8
 71
3
 72
8
 73
4
 74
0
 40
0
 40
0
 40
0
 40
0
 40
1
 40
1
 40
1
 40
1
 10
383.220765
 20
457.769424
 30
0.0
 10
383.262718
 20
457.518557
 30
0.0
 10
383.567301
 20
455.758384
 30
0.0
 10
384.420189
 20
456.270123
 30
0.0
  0
SPLINE
  5
190
100
AcDbEntity
  8
Calque_1
 62
7
100
AcDbSpline
 70
8
 71
3
 72
8
 73
4
 74
0
 40
0
 40
0
 40
0
 40
0
 40
1
 40
1
 40
1
 40
1
 10
384.420189
 20
456.270123
 30
0.0
 10
385.330309
 20
456.816189
 30
0.0
 10
387.959754
 20
467.981433
 30
0.0
 10
388.018517
 20
468.264529
 30
0.0
  0
SPLINE
  5
191
100
AcDbEntity
  8
Calque_1
 62
7
100
AcDbSpline
 70
8
 71
3
 72
8
 73
4
 74
0
 40
0
 40
0
 40
0
 40
0
 40
1
 40
1
 40
1
 40
1
 10
388.018517
 20
468.264529
 30
0.0
 10
389.068129
 20
473.321764
 30
0.0
 10
390.803556
 20
482.994312
 30
0.0
 10
391.316967
 20
488.055260
 30
0.0
  0
SPLINE
  5
192
100
AcDbEntity
  8
Calque_1
 62
7
100
AcDbSpline
 70
8
 71
3
 72
8
 73
4
 74
0
 40
0
 40
0
 40
0
 40
0
 40
1
 40
1
 40
1
 40
1
 10
391.316967
 20
488.055260
 30
0.0
 10
392.110583
 20
495.877861
 30
0.0
 10
391.916693
 20
500.928746
 30
0.0
 10
391.916693
 20
508.745594
 30
0.0
  0
SPLINE
  5
193
100
AcDbEntity
  8
Calque_1
 62
7
100
AcDbSpline
 70
8
 71
3
 72
8
 73
4
 74
0
 40
0
 40
0
 40
0
 40
0
 40
1
 40
1
 40
1
 40
1
 10
391.916693
 20
508.745594
 30
0.0
 10
391.916693
 20
517.515619
 30
0.0
 10
392.538302
 20
527.598879
 30
0.0
 10
389.817666
 20
536.032828
 30
0.0
  0
SPLINE
  5
194
100
AcDbEntity
  8
Calque_1
 62
7
100
AcDbSpline
 70
8
 71
3
 72
8
 73
4
 74
0
 40
0
 40
0
 40
0
 40
0
 40
1
 40
1
 40
1
 40
1
 10
389.817666
 20
536.032828
 30
0.0
 10
388.301329
 20
540.733436
 30
0.0
 10
385.632028
 20
544.811868
 30
0.0
 10
383.520614
 20
549.226658
 30
0.0
  0
SPLINE
  5
195
100
AcDbEntity
  8
Calque_1
 62
7
100
AcDbSpline
 70
8
 71
3
 72
8
 73
4
 74
0
 40
0
 40
0
 40
0
 40
0
 40
1
 40
1
 40
1
 40
1
 10
383.520614
 20
549.226658
 30
0.0
 10
383.056129
 20
550.197836
 30
0.0
 10
382.855294
 20
551.290564
 30
0.0
 10
382.321191
 20
552.225260
 30
0.0
  0
SPLINE
  5
196
100
AcDbEntity
  8
Calque_1
 62
7
100
AcDbSpline
 70
8
 71
3
 72
8
 73
4
 74
0
 40
0
 40
0
 40
0
 40
0
 40
1
 40
1
 40
1
 40
1
 10
382.321191
 20
552.225260
 30
0.0
 10
382.082513
 20
552.643058
 30
0.0
 10
379.962539
 20
555.076120
 30
0.0
 10
379.022712
 20
554.324258
 30
0.0
  0
SPLINE
  5
197
100
AcDbEntity
  8
Calque_1
 62
7
100
AcDbSpline
 70
8
 71
3
 72
8
 73
4
 74
0
 40
0
 40
0
 40
0
 40
0
 40
1
 40
1
 40
1
 40
1
 10
379.022712
 20
554.324258
 30
0.0
 10
377.811043
 20
553.354923
 30
0.0
 10
378.078378
 20
551.356951
 30
0.0
 10
377.823288
 20
549.826356
 30
0.0
  0
SPLINE
  5
198
100
AcDbEntity
  8
Calque_1
 62
7
100
AcDbSpline
 70
8
 71
3
 72
8
 73
4
 74
0
 40
0
 40
0
 40
0
 40
0
 40
1
 40
1
 40
1
 40
1
 10
377.823288
 20
549.826356
 30
0.0
 10
376.596340
 20
542.464668
 30
0.0
 10
376.923713
 20
545.605172
 30
0.0
 10
376.923713
 20
537.831978
 30
0.0
  0
SPLINE
  5
199
100
AcDbEntity
  8
Calque_1
 62
7
100
AcDbSpline
 70
8
 71
3
 72
8
 73
4
 74
0
 40
0
 40
0
 40
0
 40
0
 40
1
 40
1
 40
1
 40
1
 10
376.923713
 20
537.831978
 30
0.0
 10
376.923713
 20
533.633953
 30
0.0
 10
376.713950
 20
529.430683
 30
0.0
 10
376.923713
 20
525.237874
 30
0.0
  0
SPLINE
  5
19a
100
AcDbEntity
  8
Calque_1
 62
7
100
AcDbSpline
 70
8
 71
3
 72
8
 73
4
 74
0
 40
0
 40
0
 40
0
 40
0
 40
1
 40
1
 40
1
 40
1
 10
376.923713
 20
525.237874
 30
0.0
 10
377.185068
 20
520.009455
 30
0.0
 10
377.841798
 20
517.630309
 30
0.0
 10
378.722863
 20
512.343893
 30
0.0
  0
SPLINE
  5
19b
100
AcDbEntity
  8
Calque_1
 62
7
100
AcDbSpline
 70
8
 71
3
 72
8
 73
4
 74
0
 40
0
 40
0
 40
0
 40
0
 40
1
 40
1
 40
1
 40
1
 10
378.722863
 20
512.343893
 30
0.0
 10
379.608973
 20
507.027175
 30
0.0
 10
380.257909
 20
501.655011
 30
0.0
 10
381.721465
 20
496.451339
 30
0.0
  0
SPLINE
  5
19c
100
AcDbEntity
  8
Calque_1
 62
7
100
AcDbSpline
 70
8
 71
3
 72
8
 73
4
 74
0
 40
0
 40
0
 40
0
 40
0
 40
1
 40
1
 40
1
 40
1
 10
381.721465
 20
496.451339
 30
0.0
 10
383.075150
 20
491.638224
 30
0.0
 10
385.192261
 20
487.075720
 30
0.0
 10
386.819093
 20
482.357934
 30
0.0
  0
SPLINE
  5
19d
100
AcDbEntity
  8
Calque_1
 62
7
100
AcDbSpline
 70
8
 71
3
 72
8
 73
4
 74
0
 40
0
 40
0
 40
0
 40
0
 40
1
 40
1
 40
1
 40
1
 10
386.819093
 20
482.357934
 30
0.0
 10
387.262261
 20
481.072677
 30
0.0
 10
387.521405
 20
479.725115
 30
0.0
 10
388.018517
 20
478.459757
 30
0.0
  0
SPLINE
  5
19e
100
AcDbEntity
  8
Calque_1
 62
7
100
AcDbSpline
 70
8
 71
3
 72
8
 73
4
 74
0
 40
0
 40
0
 40
0
 40
0
 40
1
 40
1
 40
1
 40
1
 10
388.018517
 20
478.459757
 30
0.0
 10
388.716775
 20
476.682350
 30
0.0
 10
390.972586
 20
472.251770
 30
0.0
 10
391.916693
 20
470.363528
 30
0.0
  0
SPLINE
  5
19f
100
AcDbEntity
  8
Calque_1
 62
7
100
AcDbSpline
 70
8
 71
3
 72
8
 73
4
 74
0
 40
0
 40
0
 40
0
 40
0
 40
1
 40
1
 40
1
 40
1
 10
391.916693
 20
470.363528
 30
0.0
 10
392.416469
 20
469.364003
 30
0.0
 10
392.745487
 20
468.258945
 30
0.0
 10
393.415994
 20
467.364926
 30
0.0
  0
SPLINE
  5
1a0
100
AcDbEntity
  8
Calque_1
 62
7
100
AcDbSpline
 70
8
 71
3
 72
8
 73
4
 74
0
 40
0
 40
0
 40
0
 40
0
 40
1
 40
1
 40
1
 40
1
 10
393.415994
 20
467.364926
 30
0.0
 10
395.074460
 20
465.153647
 30
0.0
 10
398.156145
 20
463.601480
 30
0.0
 10
400.612620
 20
462.567175
 30
0.0
  0
SPLINE
  5
1a1
100
AcDbEntity
  8
Calque_1
 62
7
100
AcDbSpline
 70
8
 71
3
 72
8
 73
4
 74
0
 40
0
 40
0
 40
0
 40
0
 40
1
 40
1
 40
1
 40
1
 10
400.612620
 20
462.567175
 30
0.0
 10
401.604803
 20
462.149433
 30
0.0
 10
402.536551
 20
461.430964
 30
0.0
 10
403.611222
 20
461.367751
 30
0.0
  0
SPLINE
  5
1a2
100
AcDbEntity
  8
Calque_1
 62
7
100
AcDbSpline
 70
8
 71
3
 72
8
 73
4
 74
0
 40
0
 40
0
 40
0
 40
0
 40
1
 40
1
 40
1
 40
1
 10
403.611222
 20
461.367751
 30
0.0
 10
408.100649
 20
461.103562
 30
0.0
 10
408.366000
 20
469.231682
 30
0.0
 10
408.708822
 20
471.562980
 30
0.0
  0
SPLINE
  5
1a3
100
AcDbEntity
  8
Calque_1
 62
7
100
AcDbSpline
 70
8
 71
3
 72
8
 73
4
 74
0
 40
0
 40
0
 40
0
 40
0
 40
1
 40
1
 40
1
 40
1
 10
408.708822
 20
471.562980
 30
0.0
 10
408.967058
 20
473.319156
 30
0.0
 10
409.787631
 20
478.072205
 30
0.0
 10
410.208151
 20
480.258907
 30
0.0
  0
SPLINE
  5
1a4
100
AcDbEntity
  8
Calque_1
 62
7
100
AcDbSpline
 70
8
 71
3
 72
8
 73
4
 74
0
 40
0
 40
0
 40
0
 40
0
 40
1
 40
1
 40
1
 40
1
 10
410.208151
 20
480.258907
 30
0.0
 10
410.496888
 20
481.760391
 30
0.0
 10
411.009279
 20
483.230976
 30
0.0
 10
411.107726
 20
484.756809
 30
0.0
  0
SPLINE
  5
1a5
100
AcDbEntity
  8
Calque_1
 62
7
100
AcDbSpline
 70
8
 71
3
 72
8
 73
4
 74
0
 40
0
 40
0
 40
0
 40
0
 40
1
 40
1
 40
1
 40
1
 10
411.107726
 20
484.756809
 30
0.0
 10
411.210907
 20
486.355861
 30
0.0
 10
410.854876
 20
487.952872
 30
0.0
 10
410.807849
 20
489.554561
 30
0.0
  0
SPLINE
  5
1a6
100
AcDbEntity
  8
Calque_1
 62
7
100
AcDbSpline
 70
8
 71
3
 72
8
 73
4
 74
0
 40
0
 40
0
 40
0
 40
0
 40
1
 40
1
 40
1
 40
1
 10
410.807849
 20
489.554561
 30
0.0
 10
410.633235
 20
495.488863
 30
0.0
 10
411.371008
 20
501.633184
 30
0.0
 10
410.807849
 20
507.546142
 30
0.0
  0
SPLINE
  5
1a7
100
AcDbEntity
  8
Calque_1
 62
7
100
AcDbSpline
 70
8
 71
3
 72
8
 73
4
 74
0
 40
0
 40
0
 40
0
 40
0
 40
1
 40
1
 40
1
 40
1
 10
410.807849
 20
507.546142
 30
0.0
 10
410.720542
 20
508.463518
 30
0.0
 10
410.351868
 20
509.334633
 30
0.0
 10
410.208151
 20
510.244894
 30
0.0
  0
SPLINE
  5
1a8
100
AcDbEntity
  8
Calque_1
 62
7
100
AcDbSpline
 70
8
 71
3
 72
8
 73
4
 74
0
 40
0
 40
0
 40
0
 40
0
 40
1
 40
1
 40
1
 40
1
 10
410.208151
 20
510.244894
 30
0.0
 10
410.051395
 20
511.237106
 30
0.0
 10
410.008309
 20
512.243943
 30
0.0
 10
409.908274
 20
513.243468
 30
0.0
  0
SPLINE
  5
1a9
100
AcDbEntity
  8
Calque_1
 62
7
100
AcDbSpline
 70
8
 71
3
 72
8
 73
4
 74
0
 40
0
 40
0
 40
0
 40
0
 40
1
 40
1
 40
1
 40
1
 10
409.908274
 20
513.243468
 30
0.0
 10
409.708431
 20
514.243020
 30
0.0
 10
409.496400
 20
515.240192
 30
0.0
 10
409.308548
 20
516.242069
 30
0.0
  0
SPLINE
  5
1aa
100
AcDbEntity
  8
Calque_1
 62
7
100
AcDbSpline
 70
8
 71
3
 72
8
 73
4
 74
0
 40
0
 40
0
 40
0
 40
0
 40
1
 40
1
 40
1
 40
1
 10
409.308548
 20
516.242069
 30
0.0
 10
408.609099
 20
519.972491
 30
0.0
 10
408.899679
 20
522.419159
 30
0.0
 10
407.209550
 20
526.137449
 30
0.0
  0
SPLINE
  5
1ab
100
AcDbEntity
  8
Calque_1
 62
7
100
AcDbSpline
 70
8
 71
3
 72
8
 73
4
 74
0
 40
0
 40
0
 40
0
 40
0
 40
1
 40
1
 40
1
 40
1
 10
407.209550
 20
526.137449
 30
0.0
 10
407.024447
 20
526.544391
 30
0.0
 10
406.809723
 20
526.937074
 30
0.0
 10
406.609824
 20
527.336901
 30
0.0
  0
SPLINE
  5
1ac
100
AcDbEntity
  8
Calque_1
 62
7
100
AcDbSpline
 70
8
 71
3
 72
8
 73
4
 74
0
 40
0
 40
0
 40
0
 40
0
 40
1
 40
1
 40
1
 40
1
 10
406.609824
 20
527.336901
 30
0.0
 10
406.509761
 20
527.836649
 30
0.0
 10
406.516847
 20
528.370441
 30
0.0
 10
406.309946
 20
528.836173
 30
0.0
  0
SPLINE
  5
1ad
100
AcDbEntity
  8
Calque_1
 62
7
100
AcDbSpline
 70
8
 71
3
 72
8
 73
4
 74
0
 40
0
 40
0
 40
0
 40
0
 40
1
 40
1
 40
1
 40
1
 10
406.309946
 20
528.836173
 30
0.0
 10
406.106986
 20
529.292891
 30
0.0
 10
405.633883
 20
529.588630
 30
0.0
 10
405.410372
 20
530.035625
 30
0.0
  0
SPLINE
  5
1ae
100
AcDbEntity
  8
Calque_1
 62
7
100
AcDbSpline
 70
8
 71
3
 72
8
 73
4
 74
0
 40
0
 40
0
 40
0
 40
0
 40
1
 40
1
 40
1
 40
1
 10
405.410372
 20
530.035625
 30
0.0
 10
404.986309
 20
530.883751
 30
0.0
 10
405.181332
 20
532.063843
 30
0.0
 10
404.510797
 20
532.734350
 30
0.0
  0
SPLINE
  5
1af
100
AcDbEntity
  8
Calque_1
 62
7
100
AcDbSpline
 70
8
 71
3
 72
8
 73
4
 74
0
 40
0
 40
0
 40
0
 40
0
 40
1
 40
1
 40
1
 40
1
 10
404.510797
 20
532.734350
 30
0.0
 10
404.287427
 20
532.958003
 30
0.0
 10
403.921162
 20
532.972176
 30
0.0
 10
403.611222
 20
533.034227
 30
0.0
  0
SPLINE
  5
1b0
100
AcDbEntity
  8
Calque_1
 62
7
100
AcDbSpline
 70
8
 71
3
 72
8
 73
4
 74
0
 40
0
 40
0
 40
0
 40
0
 40
1
 40
1
 40
1
 40
1
 10
403.611222
 20
533.034227
 30
0.0
 10
402.559909
 20
533.244557
 30
0.0
 10
403.086869
 20
532.213342
 30
0.0
 10
403.011496
 20
531.534926
 30
0.0
  0
SPLINE
  5
1b1
100
AcDbEntity
  8
Calque_1
 62
7
100
AcDbSpline
 70
8
 71
3
 72
8
 73
4
 74
0
 40
0
 40
0
 40
0
 40
0
 40
1
 40
1
 40
1
 40
1
 10
403.011496
 20
531.534926
 30
0.0
 10
402.645770
 20
528.243250
 30
0.0
 10
402.888472
 20
525.257773
 30
0.0
 10
403.011496
 20
521.939395
 30
0.0
  0
SPLINE
  5
1b2
100
AcDbEntity
  8
Calque_1
 62
7
100
AcDbSpline
 70
8
 71
3
 72
8
 73
4
 74
0
 40
0
 40
0
 40
0
 40
0
 40
1
 40
1
 40
1
 40
1
 10
403.011496
 20
521.939395
 30
0.0
 10
403.100220
 20
519.542164
 30
0.0
 10
402.746740
 20
517.126989
 30
0.0
 10
403.011496
 20
514.742769
 30
0.0
  0
SPLINE
  5
1b3
100
AcDbEntity
  8
Calque_1
 62
7
100
AcDbSpline
 70
8
 71
3
 72
8
 73
4
 74
0
 40
0
 40
0
 40
0
 40
0
 40
1
 40
1
 40
1
 40
1
 10
403.011496
 20
514.742769
 30
0.0
 10
403.092000
 20
514.019565
 30
0.0
 10
403.491600
 20
513.361531
 30
0.0
 10
403.611222
 20
512.643770
 30
0.0
  0
SPLINE
  5
1b4
100
AcDbEntity
  8
Calque_1
 62
7
100
AcDbSpline
 70
8
 71
3
 72
8
 73
4
 74
0
 40
0
 40
0
 40
0
 40
0
 40
1
 40
1
 40
1
 40
1
 10
403.611222
 20
512.643770
 30
0.0
 10
403.957871
 20
510.563934
 30
0.0
 10
404.020035
 20
508.446567
 30
0.0
 10
404.210948
 20
506.346718
 30
0.0
  0
SPLINE
  5
1b5
100
AcDbEntity
  8
Calque_1
 62
7
100
AcDbSpline
 70
8
 71
3
 72
8
 73
4
 74
0
 40
0
 40
0
 40
0
 40
0
 40
1
 40
1
 40
1
 40
1
 10
404.210948
 20
506.346718
 30
0.0
 10
404.843244
 20
499.391405
 30
0.0
 10
405.158202
 20
492.396463
 30
0.0
 10
407.209550
 20
485.656384
 30
0.0
  0
SPLINE
  5
1b6
100
AcDbEntity
  8
Calque_1
 62
7
100
AcDbSpline
 70
8
 71
3
 72
8
 73
4
 74
0
 40
0
 40
0
 40
0
 40
0
 40
1
 40
1
 40
1
 40
1
 10
407.209550
 20
485.656384
 30
0.0
 10
407.496161
 20
484.714602
 30
0.0
 10
408.115361
 20
483.897260
 30
0.0
 10
408.408973
 20
482.957631
 30
0.0
  0
SPLINE
  5
1b7
100
AcDbEntity
  8
Calque_1
 62
7
100
AcDbSpline
 70
8
 71
3
 72
8
 73
4
 74
0
 40
0
 40
0
 40
0
 40
0
 40
1
 40
1
 40
1
 40
1
 10
408.408973
 20
482.957631
 30
0.0
 10
408.619871
 20
482.283043
 30
0.0
 10
408.485225
 20
481.529140
 30
0.0
 10
408.708822
 20
480.858633
 30
0.0
  0
SPLINE
  5
1b8
100
AcDbEntity
  8
Calque_1
 62
7
100
AcDbSpline
 70
8
 71
3
 72
8
 73
4
 74
0
 40
0
 40
0
 40
0
 40
0
 40
1
 40
1
 40
1
 40
1
 10
408.708822
 20
480.858633
 30
0.0
 10
408.893074
 20
480.305707
 30
0.0
 10
409.384261
 20
479.897320
 30
0.0
 10
409.608425
 20
479.359332
 30
0.0
  0
SPLINE
  5
1b9
100
AcDbEntity
  8
Calque_1
 62
7
100
AcDbSpline
 70
8
 71
3
 72
8
 73
4
 74
0
 40
0
 40
0
 40
0
 40
0
 40
1
 40
1
 40
1
 40
1
 10
409.608425
 20
479.359332
 30
0.0
 10
409.888205
 20
478.687635
 30
0.0
 10
409.854756
 20
477.896400
 30
0.0
 10
410.208151
 20
477.260306
 30
0.0
  0
SPLINE
  5
1ba
100
AcDbEntity
  8
Calque_1
 62
7
100
AcDbSpline
 70
8
 71
3
 72
8
 73
4
 74
0
 40
0
 40
0
 40
0
 40
0
 40
1
 40
1
 40
1
 40
1
 10
410.208151
 20
477.260306
 30
0.0
 10
411.066283
 20
475.715650
 30
0.0
 10
413.341257
 20
476.618570
 30
0.0
 10
414.106328
 20
477.560154
 30
0.0
  0
SPLINE
  5
1bb
100
AcDbEntity
  8
Calque_1
 62
7
100
AcDbSpline
 70
8
 71
3
 72
8
 73
4
 74
0
 40
0
 40
0
 40
0
 40
0
 40
1
 40
1
 40
1
 40
1
 10
414.106328
 20
477.560154
 30
0.0
 10
414.951959
 20
478.600951
 30
0.0
 10
415.336309
 20
479.944261
 30
0.0
 10
415.905477
 20
481.158482
 30
0.0
  0
SPLINE
  5
1bc
100
AcDbEntity
  8
Calque_1
 62
7
100
AcDbSpline
 70
8
 71
3
 72
8
 73
4
 74
0
 40
0
 40
0
 40
0
 40
0
 40
1
 40
1
 40
1
 40
1
 10
415.905477
 20
481.158482
 30
0.0
 10
418.216507
 20
486.088668
 30
0.0
 10
419.231849
 20
487.798299
 30
0.0
 10
420.103502
 20
493.152888
 30
0.0
  0
SPLINE
  5
1bd
100
AcDbEntity
  8
Calque_1
 62
7
100
AcDbSpline
 70
8
 71
3
 72
8
 73
4
 74
0
 40
0
 40
0
 40
0
 40
0
 40
1
 40
1
 40
1
 40
1
 10
420.103502
 20
493.152888
 30
0.0
 10
420.876397
 20
497.900665
 30
0.0
 10
420.703228
 20
501.328970
 30
0.0
 10
420.703228
 20
506.046841
 30
0.0
  0
SPLINE
  5
1be
100
AcDbEntity
  8
Calque_1
 62
7
100
AcDbSpline
 70
8
 71
3
 72
8
 73
4
 74
0
 40
0
 40
0
 40
0
 40
0
 40
1
 40
1
 40
1
 40
1
 10
420.703228
 20
506.046841
 30
0.0
 10
420.703228
 20
507.780000
 30
0.0
 10
420.852047
 20
510.249515
 30
0.0
 10
420.403380
 20
512.044044
 30
0.0
  0
SPLINE
  5
1bf
100
AcDbEntity
  8
Calque_1
 62
7
100
AcDbSpline
 70
8
 71
3
 72
8
 73
4
 74
0
 40
0
 40
0
 40
0
 40
0
 40
1
 40
1
 40
1
 40
1
 10
420.403380
 20
512.044044
 30
0.0
 10
420.377868
 20
512.140989
 30
0.0
 10
420.148261
 20
511.954753
 30
0.0
 10
420.103502
 20
512.044044
 30
0.0
  0
SPLINE
  5
1c0
100
AcDbEntity
  8
Calque_1
 62
7
100
AcDbSpline
 70
8
 71
3
 72
8
 73
4
 74
0
 40
0
 40
0
 40
0
 40
0
 40
1
 40
1
 40
1
 40
1
 10
420.103502
 20
512.044044
 30
0.0
 10
420.014211
 20
512.222910
 30
0.0
 10
420.192794
 20
512.464961
 30
0.0
 10
420.103502
 20
512.643770
 30
0.0
  0
SPLINE
  5
1c1
100
AcDbEntity
  8
Calque_1
 62
7
100
AcDbSpline
 70
8
 71
3
 72
8
 73
4
 74
0
 40
0
 40
0
 40
0
 40
0
 40
1
 40
1
 40
1
 40
1
 10
420.103502
 20
512.643770
 30
0.0
 10
418.766825
 20
515.317153
 30
0.0
 10
420.221991
 20
510.371150
 30
0.0
 10
419.203928
 20
514.442920
 30
0.0
  0
ENDSEC
  0
SECTION
  2
OBJECTS
  0
DICTIONARY
  5
C
330
0
100
AcDbDictionary
  3
ACAD_GROUP
350
D
  3
ACAD_MLINESTYLE
350
17
  0
DICTIONARY
  5
D
330
C
100
AcDbDictionary
  0
DICTIONARY
  5
1A
330
C
100
AcDbDictionary
  0
DICTIONARY
  5
17
330
C
100
AcDbDictionary
  3
STANDARD
350
18
  0
DICTIONARY
  5
19
330
C
100
AcDbDictionary
  0
ENDSEC
  0
EOF
