  0
SECTION
  2
HEADER
  9
$ACADVER
  1
AC1014
  9
$HANDSEED
  5
FFFF
  9
$MEASUREMENT
 70
     1
  0
ENDSEC
  0
SECTION
  2
TABLES
  0
TABLE
  2
VPORT
  5
8
330
0
100
AcDbSymbolTable
 70
     4
  0
VPORT
  5
2E
330
8
100
AcDbSymbolTableRecord
100
AcDbViewportTableRecord
  2
*ACTIVE
 70
     0
 10
0.0
 20
0.0
 11
1.0
 21
1.0
 12
210.0
 22
148.5
 13
0.0
 23
0.0
 14
10.0
 24
10.0
 15
10.0
 25
10.0
 16
0.0
 26
0.0
 36
1.0
 17
0.0
 27
0.0
 37
0.0
 40
341.0
 41
1.24
 42
50.0
 43
0.0
 44
0.0
 50
0.0
 51
0.0
 71
     0
 72
   100
 73
     1
 74
     3
 75
     0
 76
     0
 77
     0
 78
     0
  0
ENDTAB
  0
TABLE
  2
LTYPE
  5
5
330
0
100
AcDbSymbolTable
 70
     1
  0
LTYPE
  5
14
330
5
100
AcDbSymbolTableRecord
100
AcDbLinetypeTableRecord
  2
BYBLOCK
 70
     0
  3

 72
    65
 73
     0
 40
0.0
  0
LTYPE
  5
15
330
5
100
AcDbSymbolTableRecord
100
AcDbLinetypeTableRecord
  2
BYLAYER
 70
     0
  3

 72
    65
 73
     0
 40
0.0
  0
LTYPE
  5
16
330
5
100
AcDbSymbolTableRecord
100
AcDbLinetypeTableRecord
  2
CONTINUOUS
 70
     0
  3
Solid line
 72
    65
 73
     0
 40
0.0
  0
ENDTAB
  0
TABLE
  2
LAYER
  5
2
100
AcDbSymbolTable
 70
2
  0
LAYER
  5
50
100
AcDbSymbolTableRecord
100
AcDbLayerTableRecord
  2
0
 70
0
  6
CONTINUOUS
  0
LAYER
  5
51
100
AcDbSymbolTableRecord
100
AcDbLayerTableRecord
  2
Ebene_1
 70
0
  6
CONTINUOUS
  0
ENDTAB
  0
TABLE
  2
STYLE
  5
3
330
0
100
AcDbSymbolTable
 70
     1
  0
STYLE
  5
11
330
3
100
AcDbSymbolTableRecord
100
AcDbTextStyleTableRecord
  2
STANDARD
 70
     0
 40
0.0
 41
1.0
 50
0.0
 71
     0
 42
2.5
  3
txt
  4

  0
ENDTAB
  0
TABLE
  2
VIEW
  5
6
330
0
100
AcDbSymbolTable
 70
     0
  0
ENDTAB
  0
TABLE
  2
UCS
  5
7
330
0
100
AcDbSymbolTable
 70
     0
  0
ENDTAB
  0
TABLE
  2
APPID
  5
9
330
0
100
AcDbSymbolTable
 70
     2
  0
APPID
  5
12
330
9
100
AcDbSymbolTableRecord
100
AcDbRegAppTableRecord
  2
ACAD
 70
     0
  0
ENDTAB
  0
TABLE
  2
DIMSTYLE
  5
A
330
0
100
AcDbSymbolTable
 70
     1
  0
DIMSTYLE
105
27
330
A
100
AcDbSymbolTableRecord
100
AcDbDimStyleTableRecord
  2
ISO-25
 70
     0
  3

  4

  5

  6

  7

 40
1.0
 41
2.5
 42
0.625
 43
3.75
 44
1.25
 45
0.0
 46
0.0
 47
0.0
 48
0.0
140
2.5
141
2.5
142
0.0
143
0.03937007874016
144
1.0
145
0.0
146
1.0
147
0.625
 71
     0
 72
     0
 73
     0
 74
     0
 75
     0
 76
     0
 77
     1
 78
     8
170
     0
171
     3
172
     1
173
     0
174
     0
175
     0
176
     0
177
     0
178
     0
270
     2
271
     2
272
     2
273
     2
274
     3
340
11
275
     0
280
     0
281
     0
282
     0
283
     0
284
     8
285
     0
286
     0
287
     3
288
     0
  0
ENDTAB
  0
TABLE
  2
BLOCK_RECORD
  5
1
330
0
100
AcDbSymbolTable
 70
     1
  0
BLOCK_RECORD
  5
1F
330
1
100
AcDbSymbolTableRecord
100
AcDbBlockTableRecord
  2
*MODEL_SPACE
  0
BLOCK_RECORD
  5
1B
330
1
100
AcDbSymbolTableRecord
100
AcDbBlockTableRecord
  2
*PAPER_SPACE
  0
ENDTAB
  0
ENDSEC
  0
SECTION
  2
BLOCKS
  0
BLOCK
  5
20
330
1F
100
AcDbEntity
  8
0
100
AcDbBlockBegin
  2
*MODEL_SPACE
 70
     0
 10
0.0
 20
0.0
 30
0.0
  3
*MODEL_SPACE
  1

  0
ENDBLK
  5
21
330
1F
100
AcDbEntity
  8
0
100
AcDbBlockEnd
  0
BLOCK
  5
1C
330
1B
100
AcDbEntity
 67
     1
  8
0
100
AcDbBlockBegin
  2
*PAPER_SPACE
  1

  0
ENDBLK
  5
1D
330
1B
100
AcDbEntity
 67
     1
  8
0
100
AcDbBlockEnd
  0
ENDSEC
  0
SECTION
  2
ENTITIES
  0
SPLINE
  5
100
100
AcDbEntity
  8
Ebene_1
 62
7
100
AcDbSpline
 70
8
 71
3
 72
8
 73
4
 74
0
 40
0
 40
0
 40
0
 40
0
 40
1
 40
1
 40
1
 40
1
 10
939.904723
 20
0.860570
 30
0.0
 10
898.913154
 20
3.197255
 30
0.0
 10
873.787385
 20
5.654071
 30
0.0
 10
843.904682
 20
10.247162
 30
0.0
  0
SPLINE
  5
101
100
AcDbEntity
  8
Ebene_1
 62
7
100
AcDbSpline
 70
8
 71
3
 72
8
 73
4
 74
0
 40
0
 40
0
 40
0
 40
0
 40
1
 40
1
 40
1
 40
1
 10
843.904682
 20
10.247162
 30
0.0
 10
838.129685
 20
11.134860
 30
0.0
 10
830.479682
 20
12.286265
 30
0.0
 10
826.904683
 20
12.805856
 30
0.0
  0
SPLINE
  5
102
100
AcDbEntity
  8
Ebene_1
 62
7
100
AcDbSpline
 70
8
 71
3
 72
8
 73
4
 74
0
 40
0
 40
0
 40
0
 40
0
 40
1
 40
1
 40
1
 40
1
 10
826.904683
 20
12.805856
 30
0.0
 10
810.351367
 20
15.211763
 30
0.0
 10
788.357968
 20
19.444769
 30
0.0
 10
772.274976
 20
23.320269
 30
0.0
  0
SPLINE
  5
103
100
AcDbEntity
  8
Ebene_1
 62
7
100
AcDbSpline
 70
8
 71
3
 72
8
 73
4
 74
0
 40
0
 40
0
 40
0
 40
0
 40
1
 40
1
 40
1
 40
1
 10
772.274976
 20
23.320269
 30
0.0
 10
766.703649
 20
24.662786
 30
0.0
 10
761.161574
 20
25.761183
 30
0.0
 10
759.959231
 20
25.761183
 30
0.0
  0
SPLINE
  5
104
100
AcDbEntity
  8
Ebene_1
 62
7
100
AcDbSpline
 70
8
 71
3
 72
8
 73
4
 74
0
 40
0
 40
0
 40
0
 40
0
 40
1
 40
1
 40
1
 40
1
 10
759.959231
 20
25.761183
 30
0.0
 10
758.756915
 20
25.761183
 30
0.0
 10
756.872839
 20
26.242988
 30
0.0
 10
755.772429
 20
26.831971
 30
0.0
  0
SPLINE
  5
105
100
AcDbEntity
  8
Ebene_1
 62
7
100
AcDbSpline
 70
8
 71
3
 72
8
 73
4
 74
0
 40
0
 40
0
 40
0
 40
0
 40
1
 40
1
 40
1
 40
1
 10
755.772429
 20
26.831971
 30
0.0
 10
754.671991
 20
27.420869
 30
0.0
 10
751.664091
 20
28.288668
 30
0.0
 10
749.088162
 20
28.760466
 30
0.0
  0
SPLINE
  5
106
100
AcDbEntity
  8
Ebene_1
 62
7
100
AcDbSpline
 70
8
 71
3
 72
8
 73
4
 74
0
 40
0
 40
0
 40
0
 40
0
 40
1
 40
1
 40
1
 40
1
 10
749.088162
 20
28.760466
 30
0.0
 10
746.512234
 20
29.232265
 30
0.0
 10
742.829660
 20
30.070782
 30
0.0
 10
740.904651
 20
30.623764
 30
0.0
  0
SPLINE
  5
107
100
AcDbEntity
  8
Ebene_1
 62
7
100
AcDbSpline
 70
8
 71
3
 72
8
 73
4
 74
0
 40
0
 40
0
 40
0
 40
0
 40
1
 40
1
 40
1
 40
1
 10
740.904651
 20
30.623764
 30
0.0
 10
738.979643
 20
31.176776
 30
0.0
 10
732.679640
 20
32.840486
 30
0.0
 10
726.904643
 20
34.321079
 30
0.0
  0
SPLINE
  5
108
100
AcDbEntity
  8
Ebene_1
 62
7
100
AcDbSpline
 70
8
 71
3
 72
8
 73
4
 74
0
 40
0
 40
0
 40
0
 40
0
 40
1
 40
1
 40
1
 40
1
 10
726.904643
 20
34.321079
 30
0.0
 10
721.129646
 20
35.801587
 30
0.0
 10
715.504658
 20
37.343890
 30
0.0
 10
714.404645
 20
37.748479
 30
0.0
  0
SPLINE
  5
109
100
AcDbEntity
  8
Ebene_1
 62
7
100
AcDbSpline
 70
8
 71
3
 72
8
 73
4
 74
0
 40
0
 40
0
 40
0
 40
0
 40
1
 40
1
 40
1
 40
1
 10
714.404645
 20
37.748479
 30
0.0
 10
712.366081
 20
38.498186
 30
0.0
 10
711.073142
 20
38.893676
 30
0.0
 10
697.904649
 20
42.794490
 30
0.0
  0
SPLINE
  5
10a
100
AcDbEntity
  8
Ebene_1
 62
7
100
AcDbSpline
 70
8
 71
3
 72
8
 73
4
 74
0
 40
0
 40
0
 40
0
 40
0
 40
1
 40
1
 40
1
 40
1
 10
697.904649
 20
42.794490
 30
0.0
 10
687.555893
 20
45.859990
 30
0.0
 10
669.824357
 20
51.687286
 30
0.0
 10
667.404617
 20
52.817885
 30
0.0
  0
SPLINE
  5
10b
100
AcDbEntity
  8
Ebene_1
 62
7
100
AcDbSpline
 70
8
 71
3
 72
8
 73
4
 74
0
 40
0
 40
0
 40
0
 40
0
 40
1
 40
1
 40
1
 40
1
 10
667.404617
 20
52.817885
 30
0.0
 10
666.304633
 20
53.331892
 30
0.0
 10
662.479617
 20
54.656380
 30
0.0
 10
658.904618
 20
55.761184
 30
0.0
  0
SPLINE
  5
10c
100
AcDbEntity
  8
Ebene_1
 62
7
100
AcDbSpline
 70
8
 71
3
 72
8
 73
4
 74
0
 40
0
 40
0
 40
0
 40
0
 40
1
 40
1
 40
1
 40
1
 10
658.904618
 20
55.761184
 30
0.0
 10
655.329618
 20
56.865987
 30
0.0
 10
651.504631
 20
58.182992
 30
0.0
 10
650.404618
 20
58.687900
 30
0.0
  0
SPLINE
  5
10d
100
AcDbEntity
  8
Ebene_1
 62
7
100
AcDbSpline
 70
8
 71
3
 72
8
 73
4
 74
0
 40
0
 40
0
 40
0
 40
0
 40
1
 40
1
 40
1
 40
1
 10
650.404618
 20
58.687900
 30
0.0
 10
649.304605
 20
59.192779
 30
0.0
 10
646.154604
 20
60.370603
 30
0.0
 10
643.404628
 20
61.305299
 30
0.0
  0
SPLINE
  5
10e
100
AcDbEntity
  8
Ebene_1
 62
7
100
AcDbSpline
 70
8
 71
3
 72
8
 73
4
 74
0
 40
0
 40
0
 40
0
 40
0
 40
1
 40
1
 40
1
 40
1
 10
643.404628
 20
61.305299
 30
0.0
 10
640.654624
 20
62.239995
 30
0.0
 10
637.054623
 20
63.589486
 30
0.0
 10
635.404604
 20
64.304100
 30
0.0
  0
SPLINE
  5
10f
100
AcDbEntity
  8
Ebene_1
 62
7
100
AcDbSpline
 70
8
 71
3
 72
8
 73
4
 74
0
 40
0
 40
0
 40
0
 40
0
 40
1
 40
1
 40
1
 40
1
 10
635.404604
 20
64.304100
 30
0.0
 10
633.754613
 20
65.018799
 30
0.0
 10
629.254611
 20
66.768287
 30
0.0
 10
625.404622
 20
68.191903
 30
0.0
  0
SPLINE
  5
110
100
AcDbEntity
  8
Ebene_1
 62
7
100
AcDbSpline
 70
8
 71
3
 72
8
 73
4
 74
0
 40
0
 40
0
 40
0
 40
0
 40
1
 40
1
 40
1
 40
1
 10
625.404622
 20
68.191903
 30
0.0
 10
621.554605
 20
69.615491
 30
0.0
 10
617.504604
 20
71.187104
 30
0.0
 10
616.404619
 20
71.684301
 30
0.0
  0
SPLINE
  5
111
100
AcDbEntity
  8
Ebene_1
 62
7
100
AcDbSpline
 70
8
 71
3
 72
8
 73
4
 74
0
 40
0
 40
0
 40
0
 40
0
 40
1
 40
1
 40
1
 40
1
 10
616.404619
 20
71.684301
 30
0.0
 10
615.304606
 20
72.181498
 30
0.0
 10
610.836240
 20
74.023905
 30
0.0
 10
606.474909
 20
75.778494
 30
0.0
  0
SPLINE
  5
112
100
AcDbEntity
  8
Ebene_1
 62
7
100
AcDbSpline
 70
8
 71
3
 72
8
 73
4
 74
0
 40
0
 40
0
 40
0
 40
0
 40
1
 40
1
 40
1
 40
1
 10
606.474909
 20
75.778494
 30
0.0
 10
602.113578
 20
77.533084
 30
0.0
 10
597.838563
 20
79.334190
 30
0.0
 10
596.974903
 20
79.780902
 30
0.0
  0
SPLINE
  5
113
100
AcDbEntity
  8
Ebene_1
 62
7
100
AcDbSpline
 70
8
 71
3
 72
8
 73
4
 74
0
 40
0
 40
0
 40
0
 40
0
 40
1
 40
1
 40
1
 40
1
 10
596.974903
 20
79.780902
 30
0.0
 10
596.111243
 20
80.227586
 30
0.0
 10
593.829607
 20
81.239186
 30
0.0
 10
591.904599
 20
82.028890
 30
0.0
  0
SPLINE
  5
114
100
AcDbEntity
  8
Ebene_1
 62
7
100
AcDbSpline
 70
8
 71
3
 72
8
 73
4
 74
0
 40
0
 40
0
 40
0
 40
0
 40
1
 40
1
 40
1
 40
1
 10
591.904599
 20
82.028890
 30
0.0
 10
577.635923
 20
87.882407
 30
0.0
 10
516.933157
 20
117.940206
 30
0.0
 10
508.152017
 20
123.500223
 30
0.0
  0
SPLINE
  5
115
100
AcDbEntity
  8
Ebene_1
 62
7
100
AcDbSpline
 70
8
 71
3
 72
8
 73
4
 74
0
 40
0
 40
0
 40
0
 40
0
 40
1
 40
1
 40
1
 40
1
 10
508.152017
 20
123.500223
 30
0.0
 10
505.263115
 20
125.329308
 30
0.0
 10
502.113114
 20
127.116921
 30
0.0
 10
501.152027
 20
127.472527
 30
0.0
  0
SPLINE
  5
116
100
AcDbEntity
  8
Ebene_1
 62
7
100
AcDbSpline
 70
8
 71
3
 72
8
 73
4
 74
0
 40
0
 40
0
 40
0
 40
0
 40
1
 40
1
 40
1
 40
1
 10
501.152027
 20
127.472527
 30
0.0
 10
499.704997
 20
128.007907
 30
0.0
 10
487.510715
 20
135.188322
 30
0.0
 10
481.904578
 20
138.806011
 30
0.0
  0
SPLINE
  5
117
100
AcDbEntity
  8
Ebene_1
 62
7
100
AcDbSpline
 70
8
 71
3
 72
8
 73
4
 74
0
 40
0
 40
0
 40
0
 40
0
 40
1
 40
1
 40
1
 40
1
 10
481.904578
 20
138.806011
 30
0.0
 10
481.079583
 20
139.338329
 30
0.0
 10
479.729582
 20
140.069328
 30
0.0
 10
478.904558
 20
140.430320
 30
0.0
  0
SPLINE
  5
118
100
AcDbEntity
  8
Ebene_1
 62
7
100
AcDbSpline
 70
8
 71
3
 72
8
 73
4
 74
0
 40
0
 40
0
 40
0
 40
0
 40
1
 40
1
 40
1
 40
1
 10
478.904558
 20
140.430320
 30
0.0
 10
478.079563
 20
140.791313
 30
0.0
 10
476.056447
 20
142.025915
 30
0.0
 10
474.408752
 20
143.173918
 30
0.0
  0
SPLINE
  5
119
100
AcDbEntity
  8
Ebene_1
 62
7
100
AcDbSpline
 70
8
 71
3
 72
8
 73
4
 74
0
 40
0
 40
0
 40
0
 40
0
 40
1
 40
1
 40
1
 40
1
 10
474.408752
 20
143.173918
 30
0.0
 10
472.761057
 20
144.321922
 30
0.0
 10
469.953680
 20
146.046832
 30
0.0
 10
468.170148
 20
147.007012
 30
0.0
  0
SPLINE
  5
11a
100
AcDbEntity
  8
Ebene_1
 62
7
100
AcDbSpline
 70
8
 71
3
 72
8
 73
4
 74
0
 40
0
 40
0
 40
0
 40
0
 40
1
 40
1
 40
1
 40
1
 10
468.170148
 20
147.007012
 30
0.0
 10
466.386617
 20
147.967221
 30
0.0
 10
458.284715
 20
153.138636
 30
0.0
 10
450.165947
 20
158.498925
 30
0.0
  0
SPLINE
  5
11b
100
AcDbEntity
  8
Ebene_1
 62
7
100
AcDbSpline
 70
8
 71
3
 72
8
 73
4
 74
0
 40
0
 40
0
 40
0
 40
0
 40
1
 40
1
 40
1
 40
1
 10
450.165947
 20
158.498925
 30
0.0
 10
442.047179
 20
163.859242
 30
0.0
 10
434.617060
 20
168.571643
 30
0.0
 10
433.654556
 20
168.970818
 30
0.0
  0
SPLINE
  5
11c
100
AcDbEntity
  8
Ebene_1
 62
7
100
AcDbSpline
 70
8
 71
3
 72
8
 73
4
 74
0
 40
0
 40
0
 40
0
 40
0
 40
1
 40
1
 40
1
 40
1
 10
433.654556
 20
168.970818
 30
0.0
 10
432.692052
 20
169.370135
 30
0.0
 10
431.904558
 20
170.161341
 30
0.0
 10
431.904558
 20
170.729036
 30
0.0
  0
SPLINE
  5
11d
100
AcDbEntity
  8
Ebene_1
 62
7
100
AcDbSpline
 70
8
 71
3
 72
8
 73
4
 74
0
 40
0
 40
0
 40
0
 40
0
 40
1
 40
1
 40
1
 40
1
 10
431.904558
 20
170.729036
 30
0.0
 10
431.904558
 20
171.296731
 30
0.0
 10
431.449938
 20
171.761244
 30
0.0
 10
430.894290
 20
171.761244
 30
0.0
  0
SPLINE
  5
11e
100
AcDbEntity
  8
Ebene_1
 62
7
100
AcDbSpline
 70
8
 71
3
 72
8
 73
4
 74
0
 40
0
 40
0
 40
0
 40
0
 40
1
 40
1
 40
1
 40
1
 10
430.894290
 20
171.761244
 30
0.0
 10
429.862536
 20
171.761244
 30
0.0
 10
426.484714
 20
174.036530
 30
0.0
 10
411.757308
 20
184.651630
 30
0.0
  0
SPLINE
  5
11f
100
AcDbEntity
  8
Ebene_1
 62
7
100
AcDbSpline
 70
8
 71
3
 72
8
 73
4
 74
0
 40
0
 40
0
 40
0
 40
0
 40
1
 40
1
 40
1
 40
1
 10
411.757308
 20
184.651630
 30
0.0
 10
400.983525
 20
192.417144
 30
0.0
 10
394.822930
 20
197.006635
 30
0.0
 10
393.478117
 20
198.269045
 30
0.0
  0
SPLINE
  5
120
100
AcDbEntity
  8
Ebene_1
 62
7
100
AcDbSpline
 70
8
 71
3
 72
8
 73
4
 74
0
 40
0
 40
0
 40
0
 40
0
 40
1
 40
1
 40
1
 40
1
 10
393.478117
 20
198.269045
 30
0.0
 10
392.887660
 20
198.823445
 30
0.0
 10
391.457440
 20
199.948431
 30
0.0
 10
390.299827
 20
200.769033
 30
0.0
  0
SPLINE
  5
121
100
AcDbEntity
  8
Ebene_1
 62
7
100
AcDbSpline
 70
8
 71
3
 72
8
 73
4
 74
0
 40
0
 40
0
 40
0
 40
0
 40
1
 40
1
 40
1
 40
1
 10
390.299827
 20
200.769033
 30
0.0
 10
389.142214
 20
201.589748
 30
0.0
 10
384.699075
 20
204.961249
 30
0.0
 10
380.426129
 20
208.261259
 30
0.0
  0
SPLINE
  5
122
100
AcDbEntity
  8
Ebene_1
 62
7
100
AcDbSpline
 70
8
 71
3
 72
8
 73
4
 74
0
 40
0
 40
0
 40
0
 40
0
 40
1
 40
1
 40
1
 40
1
 10
380.426129
 20
208.261259
 30
0.0
 10
376.153211
 20
211.561242
 30
0.0
 10
371.406368
 20
215.161243
 30
0.0
 10
369.877615
 20
216.261256
 30
0.0
  0
SPLINE
  5
123
100
AcDbEntity
  8
Ebene_1
 62
7
100
AcDbSpline
 70
8
 71
3
 72
8
 73
4
 74
0
 40
0
 40
0
 40
0
 40
0
 40
1
 40
1
 40
1
 40
1
 10
369.877615
 20
216.261256
 30
0.0
 10
364.252372
 20
220.308848
 30
0.0
 10
334.955591
 20
245.586469
 30
0.0
 10
319.904525
 20
259.378668
 30
0.0
  0
SPLINE
  5
124
100
AcDbEntity
  8
Ebene_1
 62
7
100
AcDbSpline
 70
8
 71
3
 72
8
 73
4
 74
0
 40
0
 40
0
 40
0
 40
0
 40
1
 40
1
 40
1
 40
1
 10
319.904525
 20
259.378668
 30
0.0
 10
288.392183
 20
288.255185
 30
0.0
 10
248.635443
 20
330.085498
 30
0.0
 10
225.904468
 20
358.281501
 30
0.0
  0
SPLINE
  5
125
100
AcDbEntity
  8
Ebene_1
 62
7
100
AcDbSpline
 70
8
 71
3
 72
8
 73
4
 74
0
 40
0
 40
0
 40
0
 40
0
 40
1
 40
1
 40
1
 40
1
 10
225.904468
 20
358.281501
 30
0.0
 10
222.879475
 20
362.033808
 30
0.0
 10
219.676466
 20
365.867214
 30
0.0
 10
218.786699
 20
366.800323
 30
0.0
  0
SPLINE
  5
126
100
AcDbEntity
  8
Ebene_1
 62
7
100
AcDbSpline
 70
8
 71
3
 72
8
 73
4
 74
0
 40
0
 40
0
 40
0
 40
0
 40
1
 40
1
 40
1
 40
1
 10
218.786699
 20
366.800323
 30
0.0
 10
217.896932
 20
367.733403
 30
0.0
 10
215.196931
 20
371.143823
 30
0.0
 10
212.786716
 20
374.379119
 30
0.0
  0
SPLINE
  5
127
100
AcDbEntity
  8
Ebene_1
 62
7
100
AcDbSpline
 70
8
 71
3
 72
8
 73
4
 74
0
 40
0
 40
0
 40
0
 40
0
 40
1
 40
1
 40
1
 40
1
 10
212.786716
 20
374.379119
 30
0.0
 10
208.574601
 20
380.032907
 30
0.0
 10
202.682760
 20
387.623807
 30
0.0
 10
197.144767
 20
394.531529
 30
0.0
  0
SPLINE
  5
128
100
AcDbEntity
  8
Ebene_1
 62
7
100
AcDbSpline
 70
8
 71
3
 72
8
 73
4
 74
0
 40
0
 40
0
 40
0
 40
0
 40
1
 40
1
 40
1
 40
1
 10
197.144767
 20
394.531529
 30
0.0
 10
195.702811
 20
396.330112
 30
0.0
 10
192.740549
 20
400.380113
 30
0.0
 10
190.561953
 20
403.531532
 30
0.0
  0
SPLINE
  5
129
100
AcDbEntity
  8
Ebene_1
 62
7
100
AcDbSpline
 70
8
 71
3
 72
8
 73
4
 74
0
 40
0
 40
0
 40
0
 40
0
 40
1
 40
1
 40
1
 40
1
 10
190.561953
 20
403.531532
 30
0.0
 10
188.383357
 20
406.682922
 30
0.0
 10
183.369632
 20
413.761318
 30
0.0
 10
179.420346
 20
419.261326
 30
0.0
  0
SPLINE
  5
12a
100
AcDbEntity
  8
Ebene_1
 62
7
100
AcDbSpline
 70
8
 71
3
 72
8
 73
4
 74
0
 40
0
 40
0
 40
0
 40
0
 40
1
 40
1
 40
1
 40
1
 10
179.420346
 20
419.261326
 30
0.0
 10
171.728362
 20
429.973626
 30
0.0
 10
151.805956
 20
460.075333
 30
0.0
 10
145.337958
 20
470.758039
 30
0.0
  0
SPLINE
  5
12b
100
AcDbEntity
  8
Ebene_1
 62
7
100
AcDbSpline
 70
8
 71
3
 72
8
 73
4
 74
0
 40
0
 40
0
 40
0
 40
0
 40
1
 40
1
 40
1
 40
1
 10
145.337958
 20
470.758039
 30
0.0
 10
143.174528
 20
474.331253
 30
0.0
 10
140.954432
 20
477.982759
 30
0.0
 10
140.404426
 20
478.872442
 30
0.0
  0
SPLINE
  5
12c
100
AcDbEntity
  8
Ebene_1
 62
7
100
AcDbSpline
 70
8
 71
3
 72
8
 73
4
 74
0
 40
0
 40
0
 40
0
 40
0
 40
1
 40
1
 40
1
 40
1
 10
140.404426
 20
478.872442
 30
0.0
 10
139.854448
 20
479.762266
 30
0.0
 10
138.368781
 20
482.378644
 30
0.0
 10
137.102970
 20
484.686755
 30
0.0
  0
SPLINE
  5
12d
100
AcDbEntity
  8
Ebene_1
 62
7
100
AcDbSpline
 70
8
 71
3
 72
8
 73
4
 74
0
 40
0
 40
0
 40
0
 40
0
 40
1
 40
1
 40
1
 40
1
 10
137.102970
 20
484.686755
 30
0.0
 10
135.837187
 20
486.994866
 30
0.0
 10
133.326115
 20
491.218461
 30
0.0
 10
131.522826
 20
494.072355
 30
0.0
  0
SPLINE
  5
12e
100
AcDbEntity
  8
Ebene_1
 62
7
100
AcDbSpline
 70
8
 71
3
 72
8
 73
4
 74
0
 40
0
 40
0
 40
0
 40
0
 40
1
 40
1
 40
1
 40
1
 10
131.522826
 20
494.072355
 30
0.0
 10
129.719509
 20
496.926363
 30
0.0
 10
127.957238
 20
500.047649
 30
0.0
 10
127.606620
 20
501.008764
 30
0.0
  0
SPLINE
  5
12f
100
AcDbEntity
  8
Ebene_1
 62
7
100
AcDbSpline
 70
8
 71
3
 72
8
 73
4
 74
0
 40
0
 40
0
 40
0
 40
0
 40
1
 40
1
 40
1
 40
1
 10
127.606620
 20
501.008764
 30
0.0
 10
127.256031
 20
501.969851
 30
0.0
 10
125.379608
 20
505.241175
 30
0.0
 10
123.436798
 20
508.278272
 30
0.0
  0
SPLINE
  5
130
100
AcDbEntity
  8
Ebene_1
 62
7
100
AcDbSpline
 70
8
 71
3
 72
8
 73
4
 74
0
 40
0
 40
0
 40
0
 40
0
 40
1
 40
1
 40
1
 40
1
 10
123.436798
 20
508.278272
 30
0.0
 10
121.493988
 20
511.315256
 30
0.0
 10
119.904432
 20
514.439858
 30
0.0
 10
119.904432
 20
515.221767
 30
0.0
  0
SPLINE
  5
131
100
AcDbEntity
  8
Ebene_1
 62
7
100
AcDbSpline
 70
8
 71
3
 72
8
 73
4
 74
0
 40
0
 40
0
 40
0
 40
0
 40
1
 40
1
 40
1
 40
1
 10
119.904432
 20
515.221767
 30
0.0
 10
119.904432
 20
516.003676
 30
0.0
 10
119.458145
 20
516.919182
 30
0.0
 10
118.912731
 20
517.256278
 30
0.0
  0
SPLINE
  5
132
100
AcDbEntity
  8
Ebene_1
 62
7
100
AcDbSpline
 70
8
 71
3
 72
8
 73
4
 74
0
 40
0
 40
0
 40
0
 40
0
 40
1
 40
1
 40
1
 40
1
 10
118.912731
 20
517.256278
 30
0.0
 10
117.280003
 20
518.265270
 30
0.0
 10
87.951785
 20
577.727085
 30
0.0
 10
82.164684
 20
591.761392
 30
0.0
  0
SPLINE
  5
133
100
AcDbEntity
  8
Ebene_1
 62
7
100
AcDbSpline
 70
8
 71
3
 72
8
 73
4
 74
0
 40
0
 40
0
 40
0
 40
0
 40
1
 40
1
 40
1
 40
1
 10
82.164684
 20
591.761392
 30
0.0
 10
81.370898
 20
593.686401
 30
0.0
 10
79.905839
 20
597.061388
 30
0.0
 10
78.909007
 20
599.261414
 30
0.0
  0
SPLINE
  5
134
100
AcDbEntity
  8
Ebene_1
 62
7
100
AcDbSpline
 70
8
 71
3
 72
8
 73
4
 74
0
 40
0
 40
0
 40
0
 40
0
 40
1
 40
1
 40
1
 40
1
 10
78.909007
 20
599.261414
 30
0.0
 10
77.912175
 20
601.461411
 30
0.0
 10
76.106902
 20
605.736399
 30
0.0
 10
74.897302
 20
608.761392
 30
0.0
  0
SPLINE
  5
135
100
AcDbEntity
  8
Ebene_1
 62
7
100
AcDbSpline
 70
8
 71
3
 72
8
 73
4
 74
0
 40
0
 40
0
 40
0
 40
0
 40
1
 40
1
 40
1
 40
1
 10
74.897302
 20
608.761392
 30
0.0
 10
73.687673
 20
611.786413
 30
0.0
 10
72.318199
 20
615.161400
 30
0.0
 10
71.853997
 20
616.261413
 30
0.0
  0
SPLINE
  5
136
100
AcDbEntity
  8
Ebene_1
 62
7
100
AcDbSpline
 70
8
 71
3
 72
8
 73
4
 74
0
 40
0
 40
0
 40
0
 40
0
 40
1
 40
1
 40
1
 40
1
 10
71.853997
 20
616.261413
 30
0.0
 10
71.389767
 20
617.361398
 30
0.0
 10
69.597306
 20
621.861399
 30
0.0
 10
67.870723
 20
626.261423
 30
0.0
  0
SPLINE
  5
137
100
AcDbEntity
  8
Ebene_1
 62
7
100
AcDbSpline
 70
8
 71
3
 72
8
 73
4
 74
0
 40
0
 40
0
 40
0
 40
0
 40
1
 40
1
 40
1
 40
1
 10
67.870723
 20
626.261423
 30
0.0
 10
66.144168
 20
630.661418
 30
0.0
 10
64.336231
 20
635.161419
 30
0.0
 10
63.853150
 20
636.261404
 30
0.0
  0
SPLINE
  5
138
100
AcDbEntity
  8
Ebene_1
 62
7
100
AcDbSpline
 70
8
 71
3
 72
8
 73
4
 74
0
 40
0
 40
0
 40
0
 40
0
 40
1
 40
1
 40
1
 40
1
 10
63.853150
 20
636.261404
 30
0.0
 10
61.637562
 20
641.306224
 30
0.0
 10
46.193274
 20
686.722932
 30
0.0
 10
43.449704
 20
696.261433
 30
0.0
  0
SPLINE
  5
139
100
AcDbEntity
  8
Ebene_1
 62
7
100
AcDbSpline
 70
8
 71
3
 72
8
 73
4
 74
0
 40
0
 40
0
 40
0
 40
0
 40
1
 40
1
 40
1
 40
1
 10
43.449704
 20
696.261433
 30
0.0
 10
42.500523
 20
699.561444
 30
0.0
 10
41.141820
 20
704.061445
 30
0.0
 10
40.430409
 20
706.261443
 30
0.0
  0
SPLINE
  5
13a
100
AcDbEntity
  8
Ebene_1
 62
7
100
AcDbSpline
 70
8
 71
3
 72
8
 73
4
 74
0
 40
0
 40
0
 40
0
 40
0
 40
1
 40
1
 40
1
 40
1
 10
40.430409
 20
706.261443
 30
0.0
 10
39.093788
 20
710.394839
 30
0.0
 10
36.581951
 20
719.275759
 30
0.0
 10
34.773701
 20
726.261462
 30
0.0
  0
SPLINE
  5
13b
100
AcDbEntity
  8
Ebene_1
 62
7
100
AcDbSpline
 70
8
 71
3
 72
8
 73
4
 74
0
 40
0
 40
0
 40
0
 40
0
 40
1
 40
1
 40
1
 40
1
 10
34.773701
 20
726.261462
 30
0.0
 10
33.425373
 20
731.470465
 30
0.0
 10
30.960280
 20
740.448953
 30
0.0
 10
29.812248
 20
744.332447
 30
0.0
  0
SPLINE
  5
13c
100
AcDbEntity
  8
Ebene_1
 62
7
100
AcDbSpline
 70
8
 71
3
 72
8
 73
4
 74
0
 40
0
 40
0
 40
0
 40
0
 40
1
 40
1
 40
1
 40
1
 10
29.812248
 20
744.332447
 30
0.0
 10
29.312925
 20
746.021472
 30
0.0
 10
28.904395
 20
748.107346
 30
0.0
 10
28.904395
 20
748.967662
 30
0.0
  0
SPLINE
  5
13d
100
AcDbEntity
  8
Ebene_1
 62
7
100
AcDbSpline
 70
8
 71
3
 72
8
 73
4
 74
0
 40
0
 40
0
 40
0
 40
0
 40
1
 40
1
 40
1
 40
1
 10
28.904395
 20
748.967662
 30
0.0
 10
28.904395
 20
749.827948
 30
0.0
 10
28.254184
 20
752.720960
 30
0.0
 10
27.459491
 20
755.396668
 30
0.0
  0
SPLINE
  5
13e
100
AcDbEntity
  8
Ebene_1
 62
7
100
AcDbSpline
 70
8
 71
3
 72
8
 73
4
 74
0
 40
0
 40
0
 40
0
 40
0
 40
1
 40
1
 40
1
 40
1
 10
27.459491
 20
755.396668
 30
0.0
 10
25.679560
 20
761.389565
 30
0.0
 10
21.603423
 20
779.360176
 30
0.0
 10
19.437951
 20
790.761464
 30
0.0
  0
SPLINE
  5
13f
100
AcDbEntity
  8
Ebene_1
 62
7
100
AcDbSpline
 70
8
 71
3
 72
8
 73
4
 74
0
 40
0
 40
0
 40
0
 40
0
 40
1
 40
1
 40
1
 40
1
 10
19.437951
 20
790.761464
 30
0.0
 10
18.550027
 20
795.436477
 30
0.0
 10
17.427450
 20
801.061493
 30
0.0
 10
16.943349
 20
803.261491
 30
0.0
  0
SPLINE
  5
140
100
AcDbEntity
  8
Ebene_1
 62
7
100
AcDbSpline
 70
8
 71
3
 72
8
 73
4
 74
0
 40
0
 40
0
 40
0
 40
0
 40
1
 40
1
 40
1
 40
1
 10
16.943349
 20
803.261491
 30
0.0
 10
14.973695
 20
812.212482
 30
0.0
 10
13.805282
 20
818.725480
 30
0.0
 10
12.899300
 20
825.804103
 30
0.0
  0
SPLINE
  5
141
100
AcDbEntity
  8
Ebene_1
 62
7
100
AcDbSpline
 70
8
 71
3
 72
8
 73
4
 74
0
 40
0
 40
0
 40
0
 40
0
 40
1
 40
1
 40
1
 40
1
 10
12.899300
 20
825.804103
 30
0.0
 10
12.374324
 20
829.905695
 30
0.0
 10
11.272156
 20
837.311492
 30
0.0
 10
10.450052
 20
842.261494
 30
0.0
  0
SPLINE
  5
142
100
AcDbEntity
  8
Ebene_1
 62
7
100
AcDbSpline
 70
8
 71
3
 72
8
 73
4
 74
0
 40
0
 40
0
 40
0
 40
0
 40
1
 40
1
 40
1
 40
1
 10
10.450052
 20
842.261494
 30
0.0
 10
4.359814
 20
878.930908
 30
0.0
 10
0.000071
 20
939.216329
 30
0.0
 10
0.000071
 20
986.761545
 30
0.0
  0
SPLINE
  5
143
100
AcDbEntity
  8
Ebene_1
 62
7
100
AcDbSpline
 70
8
 71
3
 72
8
 73
4
 74
0
 40
0
 40
0
 40
0
 40
0
 40
1
 40
1
 40
1
 40
1
 10
0.000071
 20
986.761545
 30
0.0
 10
0.000071
 20
1034.597822
 30
0.0
 10
4.311994
 20
1094.087700
 30
0.0
 10
10.473665
 20
1131.261624
 30
0.0
  0
SPLINE
  5
144
100
AcDbEntity
  8
Ebene_1
 62
7
100
AcDbSpline
 70
8
 71
3
 72
8
 73
4
 74
0
 40
0
 40
0
 40
0
 40
0
 40
1
 40
1
 40
1
 40
1
 10
10.473665
 20
1131.261624
 30
0.0
 10
11.385287
 20
1136.761604
 30
0.0
 10
12.484563
 20
1143.736620
 30
0.0
 10
12.916478
 20
1146.761613
 30
0.0
  0
SPLINE
  5
145
100
AcDbEntity
  8
Ebene_1
 62
7
100
AcDbSpline
 70
8
 71
3
 72
8
 73
4
 74
0
 40
0
 40
0
 40
0
 40
0
 40
1
 40
1
 40
1
 40
1
 10
12.916478
 20
1146.761613
 30
0.0
 10
13.804148
 20
1152.978560
 30
0.0
 10
16.582102
 20
1169.229391
 30
0.0
 10
17.275513
 20
1172.261612
 30
0.0
  0
SPLINE
  5
146
100
AcDbEntity
  8
Ebene_1
 62
7
100
AcDbSpline
 70
8
 71
3
 72
8
 73
4
 74
0
 40
0
 40
0
 40
0
 40
0
 40
1
 40
1
 40
1
 40
1
 10
17.275513
 20
1172.261612
 30
0.0
 10
17.526946
 20
1173.361625
 30
0.0
 10
18.482959
 20
1178.086641
 30
0.0
 10
19.399740
 20
1182.761625
 30
0.0
  0
SPLINE
  5
147
100
AcDbEntity
  8
Ebene_1
 62
7
100
AcDbSpline
 70
8
 71
3
 72
8
 73
4
 74
0
 40
0
 40
0
 40
0
 40
0
 40
1
 40
1
 40
1
 40
1
 10
19.399740
 20
1182.761625
 30
0.0
 10
22.618425
 20
1199.175193
 30
0.0
 10
25.984171
 20
1214.306707
 30
0.0
 10
27.437154
 20
1218.895858
 30
0.0
  0
SPLINE
  5
148
100
AcDbEntity
  8
Ebene_1
 62
7
100
AcDbSpline
 70
8
 71
3
 72
8
 73
4
 74
0
 40
0
 40
0
 40
0
 40
0
 40
1
 40
1
 40
1
 40
1
 10
27.437154
 20
1218.895858
 30
0.0
 10
28.244121
 20
1221.444687
 30
0.0
 10
28.904395
 20
1224.461006
 30
0.0
 10
28.904395
 20
1225.598805
 30
0.0
  0
SPLINE
  5
149
100
AcDbEntity
  8
Ebene_1
 62
7
100
AcDbSpline
 70
8
 71
3
 72
8
 73
4
 74
0
 40
0
 40
0
 40
0
 40
0
 40
1
 40
1
 40
1
 40
1
 10
28.904395
 20
1225.598805
 30
0.0
 10
28.904395
 20
1226.736604
 30
0.0
 10
29.296144
 20
1228.701212
 30
0.0
 10
29.774944
 20
1229.964586
 30
0.0
  0
SPLINE
  5
14a
100
AcDbEntity
  8
Ebene_1
 62
7
100
AcDbSpline
 70
8
 71
3
 72
8
 73
4
 74
0
 40
0
 40
0
 40
0
 40
0
 40
1
 40
1
 40
1
 40
1
 10
29.774944
 20
1229.964586
 30
0.0
 10
30.670635
 20
1232.327944
 30
0.0
 10
32.947423
 20
1240.206192
 30
0.0
 10
34.773701
 20
1247.261656
 30
0.0
  0
SPLINE
  5
14b
100
AcDbEntity
  8
Ebene_1
 62
7
100
AcDbSpline
 70
8
 71
3
 72
8
 73
4
 74
0
 40
0
 40
0
 40
0
 40
0
 40
1
 40
1
 40
1
 40
1
 10
34.773701
 20
1247.261656
 30
0.0
 10
36.581951
 20
1254.247331
 30
0.0
 10
39.093788
 20
1263.128279
 30
0.0
 10
40.430409
 20
1267.261675
 30
0.0
  0
SPLINE
  5
14c
100
AcDbEntity
  8
Ebene_1
 62
7
100
AcDbSpline
 70
8
 71
3
 72
8
 73
4
 74
0
 40
0
 40
0
 40
0
 40
0
 40
1
 40
1
 40
1
 40
1
 10
40.430409
 20
1267.261675
 30
0.0
 10
41.141820
 20
1269.461673
 30
0.0
 10
42.501373
 20
1273.961674
 30
0.0
 10
43.451632
 20
1277.261657
 30
0.0
  0
SPLINE
  5
14d
100
AcDbEntity
  8
Ebene_1
 62
7
100
AcDbSpline
 70
8
 71
3
 72
8
 73
4
 74
0
 40
0
 40
0
 40
0
 40
0
 40
1
 40
1
 40
1
 40
1
 10
43.451632
 20
1277.261657
 30
0.0
 10
44.401862
 20
1280.561667
 30
0.0
 10
46.530710
 20
1287.311669
 30
0.0
 10
48.182373
 20
1292.261671
 30
0.0
  0
SPLINE
  5
14e
100
AcDbEntity
  8
Ebene_1
 62
7
100
AcDbSpline
 70
8
 71
3
 72
8
 73
4
 74
0
 40
0
 40
0
 40
0
 40
0
 40
1
 40
1
 40
1
 40
1
 10
48.182373
 20
1292.261671
 30
0.0
 10
49.834065
 20
1297.211673
 30
0.0
 10
51.534116
 20
1302.611674
 30
0.0
 10
51.960334
 20
1304.261665
 30
0.0
  0
SPLINE
  5
14f
100
AcDbEntity
  8
Ebene_1
 62
7
100
AcDbSpline
 70
8
 71
3
 72
8
 73
4
 74
0
 40
0
 40
0
 40
0
 40
0
 40
1
 40
1
 40
1
 40
1
 10
51.960334
 20
1304.261665
 30
0.0
 10
52.708255
 20
1307.157285
 30
0.0
 10
57.009236
 20
1319.158924
 30
0.0
 10
58.769297
 20
1323.261678
 30
0.0
  0
SPLINE
  5
150
100
AcDbEntity
  8
Ebene_1
 62
7
100
AcDbSpline
 70
8
 71
3
 72
8
 73
4
 74
0
 40
0
 40
0
 40
0
 40
0
 40
1
 40
1
 40
1
 40
1
 10
58.769297
 20
1323.261678
 30
0.0
 10
59.241180
 20
1324.361691
 30
0.0
 10
60.191410
 20
1327.061692
 30
0.0
 10
60.880938
 20
1329.261690
 30
0.0
  0
SPLINE
  5
151
100
AcDbEntity
  8
Ebene_1
 62
7
100
AcDbSpline
 70
8
 71
3
 72
8
 73
4
 74
0
 40
0
 40
0
 40
0
 40
0
 40
1
 40
1
 40
1
 40
1
 10
60.880938
 20
1329.261690
 30
0.0
 10
61.570438
 20
1331.461687
 30
0.0
 10
62.711383
 20
1334.611688
 30
0.0
 10
63.416360
 20
1336.261679
 30
0.0
  0
SPLINE
  5
152
100
AcDbEntity
  8
Ebene_1
 62
7
100
AcDbSpline
 70
8
 71
3
 72
8
 73
4
 74
0
 40
0
 40
0
 40
0
 40
0
 40
1
 40
1
 40
1
 40
1
 10
63.416360
 20
1336.261679
 30
0.0
 10
64.121364
 20
1337.911699
 30
0.0
 10
66.118316
 20
1342.861700
 30
0.0
 10
67.854055
 20
1347.261695
 30
0.0
  0
SPLINE
  5
153
100
AcDbEntity
  8
Ebene_1
 62
7
100
AcDbSpline
 70
8
 71
3
 72
8
 73
4
 74
0
 40
0
 40
0
 40
0
 40
0
 40
1
 40
1
 40
1
 40
1
 10
67.854055
 20
1347.261695
 30
0.0
 10
69.589823
 20
1351.661691
 30
0.0
 10
71.397307
 20
1356.161692
 30
0.0
 10
71.870750
 20
1357.261705
 30
0.0
  0
SPLINE
  5
154
100
AcDbEntity
  8
Ebene_1
 62
7
100
AcDbSpline
 70
8
 71
3
 72
8
 73
4
 74
0
 40
0
 40
0
 40
0
 40
0
 40
1
 40
1
 40
1
 40
1
 10
71.870750
 20
1357.261705
 30
0.0
 10
72.344164
 20
1358.361690
 30
0.0
 10
74.179144
 20
1362.861691
 30
0.0
 10
75.948446
 20
1367.261715
 30
0.0
  0
SPLINE
  5
155
100
AcDbEntity
  8
Ebene_1
 62
7
100
AcDbSpline
 70
8
 71
3
 72
8
 73
4
 74
0
 40
0
 40
0
 40
0
 40
0
 40
1
 40
1
 40
1
 40
1
 10
75.948446
 20
1367.261715
 30
0.0
 10
77.717775
 20
1371.661710
 30
0.0
 10
80.265272
 20
1377.736698
 30
0.0
 10
81.609547
 20
1380.761719
 30
0.0
  0
SPLINE
  5
156
100
AcDbEntity
  8
Ebene_1
 62
7
100
AcDbSpline
 70
8
 71
3
 72
8
 73
4
 74
0
 40
0
 40
0
 40
0
 40
0
 40
1
 40
1
 40
1
 40
1
 10
81.609547
 20
1380.761719
 30
0.0
 10
82.953821
 20
1383.786712
 30
0.0
 10
84.743107
 20
1387.836714
 30
0.0
 10
85.585734
 20
1389.761722
 30
0.0
  0
SPLINE
  5
157
100
AcDbEntity
  8
Ebene_1
 62
7
100
AcDbSpline
 70
8
 71
3
 72
8
 73
4
 74
0
 40
0
 40
0
 40
0
 40
0
 40
1
 40
1
 40
1
 40
1
 10
85.585734
 20
1389.761722
 30
0.0
 10
95.900162
 20
1413.325005
 30
0.0
 10
120.946930
 20
1462.399230
 30
0.0
 10
130.754864
 20
1478.261770
 30
0.0
  0
SPLINE
  5
158
100
AcDbEntity
  8
Ebene_1
 62
7
100
AcDbSpline
 70
8
 71
3
 72
8
 73
4
 74
0
 40
0
 40
0
 40
0
 40
0
 40
1
 40
1
 40
1
 40
1
 10
130.754864
 20
1478.261770
 30
0.0
 10
132.455198
 20
1481.011746
 30
0.0
 10
135.213111
 20
1485.736762
 30
0.0
 10
136.883596
 20
1488.761755
 30
0.0
  0
SPLINE
  5
159
100
AcDbEntity
  8
Ebene_1
 62
7
100
AcDbSpline
 70
8
 71
3
 72
8
 73
4
 74
0
 40
0
 40
0
 40
0
 40
0
 40
1
 40
1
 40
1
 40
1
 10
136.883596
 20
1488.761755
 30
0.0
 10
147.849753
 20
1508.620098
 30
0.0
 10
175.039825
 20
1549.137205
 30
0.0
 10
199.827534
 20
1582.557178
 30
0.0
  0
SPLINE
  5
15a
100
AcDbEntity
  8
Ebene_1
 62
7
100
AcDbSpline
 70
8
 71
3
 72
8
 73
4
 74
0
 40
0
 40
0
 40
0
 40
0
 40
1
 40
1
 40
1
 40
1
 10
199.827534
 20
1582.557178
 30
0.0
 10
205.010203
 20
1589.544724
 30
0.0
 10
209.531209
 20
1595.486795
 30
0.0
 10
209.874173
 20
1595.761812
 30
0.0
  0
SPLINE
  5
15b
100
AcDbEntity
  8
Ebene_1
 62
7
100
AcDbSpline
 70
8
 71
3
 72
8
 73
4
 74
0
 40
0
 40
0
 40
0
 40
0
 40
1
 40
1
 40
1
 40
1
 10
209.874173
 20
1595.761812
 30
0.0
 10
210.217166
 20
1596.036773
 30
0.0
 10
212.724042
 20
1599.186802
 30
0.0
 10
215.445019
 20
1602.761802
 30
0.0
  0
SPLINE
  5
15c
100
AcDbEntity
  8
Ebene_1
 62
7
100
AcDbSpline
 70
8
 71
3
 72
8
 73
4
 74
0
 40
0
 40
0
 40
0
 40
0
 40
1
 40
1
 40
1
 40
1
 10
215.445019
 20
1602.761802
 30
0.0
 10
218.165996
 20
1606.336802
 30
0.0
 10
222.420007
 20
1611.561991
 30
0.0
 10
224.898367
 20
1614.373308
 30
0.0
  0
SPLINE
  5
15d
100
AcDbEntity
  8
Ebene_1
 62
7
100
AcDbSpline
 70
8
 71
3
 72
8
 73
4
 74
0
 40
0
 40
0
 40
0
 40
0
 40
1
 40
1
 40
1
 40
1
 10
224.898367
 20
1614.373308
 30
0.0
 10
227.376727
 20
1617.184654
 30
0.0
 10
232.329478
 20
1622.991513
 30
0.0
 10
235.904478
 20
1627.277470
 30
0.0
  0
SPLINE
  5
15e
100
AcDbEntity
  8
Ebene_1
 62
7
100
AcDbSpline
 70
8
 71
3
 72
8
 73
4
 74
0
 40
0
 40
0
 40
0
 40
0
 40
1
 40
1
 40
1
 40
1
 10
235.904478
 20
1627.277470
 30
0.0
 10
263.115214
 20
1659.899518
 30
0.0
 10
322.846661
 20
1719.345601
 30
0.0
 10
350.405719
 20
1741.231681
 30
0.0
  0
SPLINE
  5
15f
100
AcDbEntity
  8
Ebene_1
 62
7
100
AcDbSpline
 70
8
 71
3
 72
8
 73
4
 74
0
 40
0
 40
0
 40
0
 40
0
 40
1
 40
1
 40
1
 40
1
 10
350.405719
 20
1741.231681
 30
0.0
 10
354.779947
 20
1744.705512
 30
0.0
 10
358.971482
 20
1748.195160
 30
0.0
 10
366.404549
 20
1754.551572
 30
0.0
  0
SPLINE
  5
160
100
AcDbEntity
  8
Ebene_1
 62
7
100
AcDbSpline
 70
8
 71
3
 72
8
 73
4
 74
0
 40
0
 40
0
 40
0
 40
0
 40
1
 40
1
 40
1
 40
1
 10
366.404549
 20
1754.551572
 30
0.0
 10
367.504534
 20
1755.492221
 30
0.0
 10
370.429549
 20
1757.825257
 30
0.0
 10
372.904536
 20
1759.736035
 30
0.0
  0
SPLINE
  5
161
100
AcDbEntity
  8
Ebene_1
 62
7
100
AcDbSpline
 70
8
 71
3
 72
8
 73
4
 74
0
 40
0
 40
0
 40
0
 40
0
 40
1
 40
1
 40
1
 40
1
 10
372.904536
 20
1759.736035
 30
0.0
 10
375.379551
 20
1761.646814
 30
0.0
 10
377.629552
 20
1763.477429
 30
0.0
 10
377.904541
 20
1763.804008
 30
0.0
  0
SPLINE
  5
162
100
AcDbEntity
  8
Ebene_1
 62
7
100
AcDbSpline
 70
8
 71
3
 72
8
 73
4
 74
0
 40
0
 40
0
 40
0
 40
0
 40
1
 40
1
 40
1
 40
1
 10
377.904541
 20
1763.804008
 30
0.0
 10
378.179501
 20
1764.130616
 30
0.0
 10
383.816395
 20
1768.417226
 30
0.0
 10
390.430872
 20
1773.329838
 30
0.0
  0
SPLINE
  5
163
100
AcDbEntity
  8
Ebene_1
 62
7
100
AcDbSpline
 70
8
 71
3
 72
8
 73
4
 74
0
 40
0
 40
0
 40
0
 40
0
 40
1
 40
1
 40
1
 40
1
 10
390.430872
 20
1773.329838
 30
0.0
 10
397.045350
 20
1778.242479
 30
0.0
 10
403.795352
 20
1783.279079
 30
0.0
 10
405.430858
 20
1784.522327
 30
0.0
  0
SPLINE
  5
164
100
AcDbEntity
  8
Ebene_1
 62
7
100
AcDbSpline
 70
8
 71
3
 72
8
 73
4
 74
0
 40
0
 40
0
 40
0
 40
0
 40
1
 40
1
 40
1
 40
1
 10
405.430858
 20
1784.522327
 30
0.0
 10
407.066393
 20
1785.765575
 30
0.0
 10
410.204545
 20
1788.010388
 30
0.0
 10
412.404543
 20
1789.510795
 30
0.0
  0
SPLINE
  5
165
100
AcDbEntity
  8
Ebene_1
 62
7
100
AcDbSpline
 70
8
 71
3
 72
8
 73
4
 74
0
 40
0
 40
0
 40
0
 40
0
 40
1
 40
1
 40
1
 40
1
 10
412.404543
 20
1789.510795
 30
0.0
 10
414.604540
 20
1791.011202
 30
0.0
 10
420.253367
 20
1794.944019
 30
0.0
 10
424.957492
 20
1798.250351
 30
0.0
  0
SPLINE
  5
166
100
AcDbEntity
  8
Ebene_1
 62
7
100
AcDbSpline
 70
8
 71
3
 72
8
 73
4
 74
0
 40
0
 40
0
 40
0
 40
0
 40
1
 40
1
 40
1
 40
1
 10
424.957492
 20
1798.250351
 30
0.0
 10
429.661588
 20
1801.556711
 30
0.0
 10
434.260291
 20
1804.711899
 30
0.0
 10
435.176846
 20
1805.261906
 30
0.0
  0
SPLINE
  5
167
100
AcDbEntity
  8
Ebene_1
 62
7
100
AcDbSpline
 70
8
 71
3
 72
8
 73
4
 74
0
 40
0
 40
0
 40
0
 40
0
 40
1
 40
1
 40
1
 40
1
 10
435.176846
 20
1805.261906
 30
0.0
 10
436.093401
 20
1805.811884
 30
0.0
 10
439.894577
 20
1808.345633
 30
0.0
 10
443.623923
 20
1810.892449
 30
0.0
  0
SPLINE
  5
168
100
AcDbEntity
  8
Ebene_1
 62
7
100
AcDbSpline
 70
8
 71
3
 72
8
 73
4
 74
0
 40
0
 40
0
 40
0
 40
0
 40
1
 40
1
 40
1
 40
1
 10
443.623923
 20
1810.892449
 30
0.0
 10
454.284745
 20
1818.172788
 30
0.0
 10
469.381024
 20
1827.919154
 30
0.0
 10
474.572651
 20
1830.873366
 30
0.0
  0
SPLINE
  5
169
100
AcDbEntity
  8
Ebene_1
 62
7
100
AcDbSpline
 70
8
 71
3
 72
8
 73
4
 74
0
 40
0
 40
0
 40
0
 40
0
 40
1
 40
1
 40
1
 40
1
 10
474.572651
 20
1830.873366
 30
0.0
 10
476.130205
 20
1831.759675
 30
0.0
 10
482.579564
 20
1835.512840
 30
0.0
 10
488.904568
 20
1839.213780
 30
0.0
  0
SPLINE
  5
16a
100
AcDbEntity
  8
Ebene_1
 62
7
100
AcDbSpline
 70
8
 71
3
 72
8
 73
4
 74
0
 40
0
 40
0
 40
0
 40
0
 40
1
 40
1
 40
1
 40
1
 10
488.904568
 20
1839.213780
 30
0.0
 10
495.229571
 20
1842.914723
 30
0.0
 10
502.879574
 20
1847.325584
 30
0.0
 10
505.904567
 20
1849.015685
 30
0.0
  0
SPLINE
  5
16b
100
AcDbEntity
  8
Ebene_1
 62
7
100
AcDbSpline
 70
8
 71
3
 72
8
 73
4
 74
0
 40
0
 40
0
 40
0
 40
0
 40
1
 40
1
 40
1
 40
1
 10
505.904567
 20
1849.015685
 30
0.0
 10
508.929589
 20
1850.705795
 30
0.0
 10
512.979590
 20
1852.976367
 30
0.0
 10
514.904570
 20
1854.061407
 30
0.0
  0
SPLINE
  5
16c
100
AcDbEntity
  8
Ebene_1
 62
7
100
AcDbSpline
 70
8
 71
3
 72
8
 73
4
 74
0
 40
0
 40
0
 40
0
 40
0
 40
1
 40
1
 40
1
 40
1
 10
514.904570
 20
1854.061407
 30
0.0
 10
519.593076
 20
1856.704089
 30
0.0
 10
571.652069
 20
1882.761926
 30
0.0
 10
572.243206
 20
1882.761926
 30
0.0
  0
SPLINE
  5
16d
100
AcDbEntity
  8
Ebene_1
 62
7
100
AcDbSpline
 70
8
 71
3
 72
8
 73
4
 74
0
 40
0
 40
0
 40
0
 40
0
 40
1
 40
1
 40
1
 40
1
 10
572.243206
 20
1882.761926
 30
0.0
 10
572.499175
 20
1882.761926
 30
0.0
 10
576.690030
 20
1884.596906
 30
0.0
 10
581.556494
 20
1886.839667
 30
0.0
  0
SPLINE
  5
16e
100
AcDbEntity
  8
Ebene_1
 62
7
100
AcDbSpline
 70
8
 71
3
 72
8
 73
4
 74
0
 40
0
 40
0
 40
0
 40
0
 40
1
 40
1
 40
1
 40
1
 10
581.556494
 20
1886.839667
 30
0.0
 10
586.422959
 20
1889.082423
 30
0.0
 10
591.529603
 20
1891.384927
 30
0.0
 10
592.904605
 20
1891.956341
 30
0.0
  0
SPLINE
  5
16f
100
AcDbEntity
  8
Ebene_1
 62
7
100
AcDbSpline
 70
8
 71
3
 72
8
 73
4
 74
0
 40
0
 40
0
 40
0
 40
0
 40
1
 40
1
 40
1
 40
1
 10
592.904605
 20
1891.956341
 30
0.0
 10
594.279607
 20
1892.527751
 30
0.0
 10
596.111243
 20
1893.346083
 30
0.0
 10
596.974903
 20
1893.774854
 30
0.0
  0
SPLINE
  5
170
100
AcDbEntity
  8
Ebene_1
 62
7
100
AcDbSpline
 70
8
 71
3
 72
8
 73
4
 74
0
 40
0
 40
0
 40
0
 40
0
 40
1
 40
1
 40
1
 40
1
 10
596.974903
 20
1893.774854
 30
0.0
 10
597.838563
 20
1894.203623
 30
0.0
 10
602.113578
 20
1895.990026
 30
0.0
 10
606.474909
 20
1897.744638
 30
0.0
  0
SPLINE
  5
171
100
AcDbEntity
  8
Ebene_1
 62
7
100
AcDbSpline
 70
8
 71
3
 72
8
 73
4
 74
0
 40
0
 40
0
 40
0
 40
0
 40
1
 40
1
 40
1
 40
1
 10
606.474909
 20
1897.744638
 30
0.0
 10
615.239665
 20
1901.270788
 30
0.0
 10
615.999662
 20
1901.590083
 30
0.0
 10
623.904612
 20
1905.067165
 30
0.0
  0
SPLINE
  5
172
100
AcDbEntity
  8
Ebene_1
 62
7
100
AcDbSpline
 70
8
 71
3
 72
8
 73
4
 74
0
 40
0
 40
0
 40
0
 40
0
 40
1
 40
1
 40
1
 40
1
 10
623.904612
 20
1905.067165
 30
0.0
 10
626.929606
 20
1906.397748
 30
0.0
 10
630.529607
 20
1907.801686
 30
0.0
 10
631.904609
 20
1908.187022
 30
0.0
  0
SPLINE
  5
173
100
AcDbEntity
  8
Ebene_1
 62
7
100
AcDbSpline
 70
8
 71
3
 72
8
 73
4
 74
0
 40
0
 40
0
 40
0
 40
0
 40
1
 40
1
 40
1
 40
1
 10
631.904609
 20
1908.187022
 30
0.0
 10
633.279611
 20
1908.572362
 30
0.0
 10
635.304626
 20
1909.261756
 30
0.0
 10
636.404610
 20
1909.719010
 30
0.0
  0
SPLINE
  5
174
100
AcDbEntity
  8
Ebene_1
 62
7
100
AcDbSpline
 70
8
 71
3
 72
8
 73
4
 74
0
 40
0
 40
0
 40
0
 40
0
 40
1
 40
1
 40
1
 40
1
 10
636.404610
 20
1909.719010
 30
0.0
 10
637.504623
 20
1910.176264
 30
0.0
 10
640.654624
 20
1911.315435
 30
0.0
 10
643.404628
 20
1912.250500
 30
0.0
  0
SPLINE
  5
175
100
AcDbEntity
  8
Ebene_1
 62
7
100
AcDbSpline
 70
8
 71
3
 72
8
 73
4
 74
0
 40
0
 40
0
 40
0
 40
0
 40
1
 40
1
 40
1
 40
1
 10
643.404628
 20
1912.250500
 30
0.0
 10
646.154604
 20
1913.185565
 30
0.0
 10
649.754605
 20
1914.525029
 30
0.0
 10
651.404625
 20
1915.227086
 30
0.0
  0
SPLINE
  5
176
100
AcDbEntity
  8
Ebene_1
 62
7
100
AcDbSpline
 70
8
 71
3
 72
8
 73
4
 74
0
 40
0
 40
0
 40
0
 40
0
 40
1
 40
1
 40
1
 40
1
 10
651.404625
 20
1915.227086
 30
0.0
 10
656.314119
 20
1917.316027
 30
0.0
 10
679.595242
 20
1925.480666
 30
0.0
 10
684.404645
 20
1926.800120
 30
0.0
  0
SPLINE
  5
177
100
AcDbEntity
  8
Ebene_1
 62
7
100
AcDbSpline
 70
8
 71
3
 72
8
 73
4
 74
0
 40
0
 40
0
 40
0
 40
0
 40
1
 40
1
 40
1
 40
1
 10
684.404645
 20
1926.800120
 30
0.0
 10
686.054636
 20
1927.252796
 30
0.0
 10
689.767144
 20
1928.329392
 30
0.0
 10
692.654629
 20
1929.192556
 30
0.0
  0
SPLINE
  5
178
100
AcDbEntity
  8
Ebene_1
 62
7
100
AcDbSpline
 70
8
 71
3
 72
8
 73
4
 74
0
 40
0
 40
0
 40
0
 40
0
 40
1
 40
1
 40
1
 40
1
 10
692.654629
 20
1929.192556
 30
0.0
 10
695.542142
 20
1930.055720
 30
0.0
 10
700.267129
 20
1931.468171
 30
0.0
 10
703.154642
 20
1932.331332
 30
0.0
  0
SPLINE
  5
179
100
AcDbEntity
  8
Ebene_1
 62
7
100
AcDbSpline
 70
8
 71
3
 72
8
 73
4
 74
0
 40
0
 40
0
 40
0
 40
0
 40
1
 40
1
 40
1
 40
1
 10
703.154642
 20
1932.331332
 30
0.0
 10
712.834761
 20
1935.225021
 30
0.0
 10
722.242698
 20
1937.832372
 30
0.0
 10
729.904663
 20
1939.744928
 30
0.0
  0
SPLINE
  5
17a
100
AcDbEntity
  8
Ebene_1
 62
7
100
AcDbSpline
 70
8
 71
3
 72
8
 73
4
 74
0
 40
0
 40
0
 40
0
 40
0
 40
1
 40
1
 40
1
 40
1
 10
729.904663
 20
1939.744928
 30
0.0
 10
731.829643
 20
1940.225443
 30
0.0
 10
736.554659
 20
1941.507741
 30
0.0
 10
740.404648
 20
1942.594479
 30
0.0
  0
SPLINE
  5
17b
100
AcDbEntity
  8
Ebene_1
 62
7
100
AcDbSpline
 70
8
 71
3
 72
8
 73
4
 74
0
 40
0
 40
0
 40
0
 40
0
 40
1
 40
1
 40
1
 40
1
 10
740.404648
 20
1942.594479
 30
0.0
 10
750.657054
 20
1945.488423
 30
0.0
 10
755.828584
 20
1946.777663
 30
0.0
 10
761.105590
 20
1947.755146
 30
0.0
  0
SPLINE
  5
17c
100
AcDbEntity
  8
Ebene_1
 62
7
100
AcDbSpline
 70
8
 71
3
 72
8
 73
4
 74
0
 40
0
 40
0
 40
0
 40
0
 40
1
 40
1
 40
1
 40
1
 10
761.105590
 20
1947.755146
 30
0.0
 10
763.691128
 20
1948.234071
 30
0.0
 10
769.541130
 20
1949.532512
 30
0.0
 10
774.105619
 20
1950.640572
 30
0.0
  0
SPLINE
  5
17d
100
AcDbEntity
  8
Ebene_1
 62
7
100
AcDbSpline
 70
8
 71
3
 72
8
 73
4
 74
0
 40
0
 40
0
 40
0
 40
0
 40
1
 40
1
 40
1
 40
1
 10
774.105619
 20
1950.640572
 30
0.0
 10
783.452243
 20
1952.909531
 30
0.0
 10
800.202170
 20
1956.298348
 30
0.0
 10
812.904675
 20
1958.490332
 30
0.0
  0
SPLINE
  5
17e
100
AcDbEntity
  8
Ebene_1
 62
7
100
AcDbSpline
 70
8
 71
3
 72
8
 73
4
 74
0
 40
0
 40
0
 40
0
 40
0
 40
1
 40
1
 40
1
 40
1
 10
812.904675
 20
1958.490332
 30
0.0
 10
821.217021
 20
1959.924737
 30
0.0
 10
824.636880
 20
1960.455173
 30
0.0
 10
839.899893
 20
1962.677417
 30
0.0
  0
SPLINE
  5
17f
100
AcDbEntity
  8
Ebene_1
 62
7
100
AcDbSpline
 70
8
 71
3
 72
8
 73
4
 74
0
 40
0
 40
0
 40
0
 40
0
 40
1
 40
1
 40
1
 40
1
 10
839.899893
 20
1962.677417
 30
0.0
 10
844.022235
 20
1963.277620
 30
0.0
 10
848.747250
 20
1964.176594
 30
0.0
 10
850.399878
 20
1964.675143
 30
0.0
  0
SPLINE
  5
180
100
AcDbEntity
  8
Ebene_1
 62
7
100
AcDbSpline
 70
8
 71
3
 72
8
 73
4
 74
0
 40
0
 40
0
 40
0
 40
0
 40
1
 40
1
 40
1
 40
1
 10
850.399878
 20
1964.675143
 30
0.0
 10
852.052533
 20
1965.173689
 30
0.0
 10
857.004689
 20
1965.845685
 30
0.0
 10
861.404713
 20
1966.168463
 30
0.0
  0
SPLINE
  5
181
100
AcDbEntity
  8
Ebene_1
 62
7
100
AcDbSpline
 70
8
 71
3
 72
8
 73
4
 74
0
 40
0
 40
0
 40
0
 40
0
 40
1
 40
1
 40
1
 40
1
 10
861.404713
 20
1966.168463
 30
0.0
 10
865.804708
 20
1966.491241
 30
0.0
 10
870.979696
 20
1966.971842
 30
0.0
 10
872.904704
 20
1967.236467
 30
0.0
  0
SPLINE
  5
182
100
AcDbEntity
  8
Ebene_1
 62
7
100
AcDbSpline
 70
8
 71
3
 72
8
 73
4
 74
0
 40
0
 40
0
 40
0
 40
0
 40
1
 40
1
 40
1
 40
1
 10
872.904704
 20
1967.236467
 30
0.0
 10
884.503993
 20
1968.830981
 30
0.0
 10
910.954619
 20
1970.931211
 30
0.0
 10
941.904736
 20
1972.715190
 30
0.0
  0
SPLINE
  5
183
100
AcDbEntity
  8
Ebene_1
 62
7
100
AcDbSpline
 70
8
 71
3
 72
8
 73
4
 74
0
 40
0
 40
0
 40
0
 40
0
 40
1
 40
1
 40
1
 40
1
 10
941.904736
 20
1972.715190
 30
0.0
 10
963.110104
 20
1973.937481
 30
0.0
 10
1010.699398
 20
1973.937481
 30
0.0
 10
1031.904794
 20
1972.715190
 30
0.0
  0
SPLINE
  5
184
100
AcDbEntity
  8
Ebene_1
 62
7
100
AcDbSpline
 70
8
 71
3
 72
8
 73
4
 74
0
 40
0
 40
0
 40
0
 40
0
 40
1
 40
1
 40
1
 40
1
 10
1031.904794
 20
1972.715190
 30
0.0
 10
1062.854912
 20
1970.931211
 30
0.0
 10
1089.305509
 20
1968.830981
 30
0.0
 10
1100.904827
 20
1967.236467
 30
0.0
  0
SPLINE
  5
185
100
AcDbEntity
  8
Ebene_1
 62
7
100
AcDbSpline
 70
8
 71
3
 72
8
 73
4
 74
0
 40
0
 40
0
 40
0
 40
0
 40
1
 40
1
 40
1
 40
1
 10
1100.904827
 20
1967.236467
 30
0.0
 10
1102.829835
 20
1966.971853
 30
0.0
 10
1108.004823
 20
1966.491241
 30
0.0
 10
1112.404818
 20
1966.168463
 30
0.0
  0
SPLINE
  5
186
100
AcDbEntity
  8
Ebene_1
 62
7
100
AcDbSpline
 70
8
 71
3
 72
8
 73
4
 74
0
 40
0
 40
0
 40
0
 40
0
 40
1
 40
1
 40
1
 40
1
 10
1112.404818
 20
1966.168463
 30
0.0
 10
1116.804841
 20
1965.845685
 30
0.0
 10
1121.757026
 20
1965.173689
 30
0.0
 10
1123.409625
 20
1964.675143
 30
0.0
  0
SPLINE
  5
187
100
AcDbEntity
  8
Ebene_1
 62
7
100
AcDbSpline
 70
8
 71
3
 72
8
 73
4
 74
0
 40
0
 40
0
 40
0
 40
0
 40
1
 40
1
 40
1
 40
1
 10
1123.409625
 20
1964.675143
 30
0.0
 10
1125.062337
 20
1964.176594
 30
0.0
 10
1129.787324
 20
1963.277620
 30
0.0
 10
1133.909638
 20
1962.677417
 30
0.0
  0
SPLINE
  5
188
100
AcDbEntity
  8
Ebene_1
 62
7
100
AcDbSpline
 70
8
 71
3
 72
8
 73
4
 74
0
 40
0
 40
0
 40
0
 40
0
 40
1
 40
1
 40
1
 40
1
 10
1133.909638
 20
1962.677417
 30
0.0
 10
1149.172650
 20
1960.455173
 30
0.0
 10
1152.592538
 20
1959.924737
 30
0.0
 10
1160.904856
 20
1958.490332
 30
0.0
  0
SPLINE
  5
189
100
AcDbEntity
  8
Ebene_1
 62
7
100
AcDbSpline
 70
8
 71
3
 72
8
 73
4
 74
0
 40
0
 40
0
 40
0
 40
0
 40
1
 40
1
 40
1
 40
1
 10
1160.904856
 20
1958.490332
 30
0.0
 10
1174.034457
 20
1956.224647
 30
0.0
 10
1190.384869
 20
1952.889570
 30
0.0
 10
1201.534554
 20
1950.202863
 30
0.0
  0
SPLINE
  5
18a
100
AcDbEntity
  8
Ebene_1
 62
7
100
AcDbSpline
 70
8
 71
3
 72
8
 73
4
 74
0
 40
0
 40
0
 40
0
 40
0
 40
1
 40
1
 40
1
 40
1
 10
1201.534554
 20
1950.202863
 30
0.0
 10
1207.105854
 20
1948.860360
 30
0.0
 10
1212.647956
 20
1947.761952
 30
0.0
 10
1213.850272
 20
1947.761952
 30
0.0
  0
SPLINE
  5
18b
100
AcDbEntity
  8
Ebene_1
 62
7
100
AcDbSpline
 70
8
 71
3
 72
8
 73
4
 74
0
 40
0
 40
0
 40
0
 40
0
 40
1
 40
1
 40
1
 40
1
 10
1213.850272
 20
1947.761952
 30
0.0
 10
1215.052672
 20
1947.761952
 30
0.0
 10
1216.936663
 20
1947.280104
 30
0.0
 10
1218.037073
 20
1946.691178
 30
0.0
  0
SPLINE
  5
18c
100
AcDbEntity
  8
Ebene_1
 62
7
100
AcDbSpline
 70
8
 71
3
 72
8
 73
4
 74
0
 40
0
 40
0
 40
0
 40
0
 40
1
 40
1
 40
1
 40
1
 10
1218.037073
 20
1946.691178
 30
0.0
 10
1219.137568
 20
1946.102249
 30
0.0
 10
1222.145468
 20
1945.247439
 30
0.0
 10
1224.721368
 20
1944.791594
 30
0.0
  0
SPLINE
  5
18d
100
AcDbEntity
  8
Ebene_1
 62
7
100
AcDbSpline
 70
8
 71
3
 72
8
 73
4
 74
0
 40
0
 40
0
 40
0
 40
0
 40
1
 40
1
 40
1
 40
1
 10
1224.721368
 20
1944.791594
 30
0.0
 10
1227.297268
 20
1944.335748
 30
0.0
 10
1231.879872
 20
1943.219518
 30
0.0
 10
1234.904865
 20
1942.311082
 30
0.0
  0
SPLINE
  5
18e
100
AcDbEntity
  8
Ebene_1
 62
7
100
AcDbSpline
 70
8
 71
3
 72
8
 73
4
 74
0
 40
0
 40
0
 40
0
 40
0
 40
1
 40
1
 40
1
 40
1
 10
1234.904865
 20
1942.311082
 30
0.0
 10
1237.929886
 20
1941.402646
 30
0.0
 10
1241.979887
 20
1940.257055
 30
0.0
 10
1243.904868
 20
1939.765323
 30
0.0
  0
SPLINE
  5
18f
100
AcDbEntity
  8
Ebene_1
 62
7
100
AcDbSpline
 70
8
 71
3
 72
8
 73
4
 74
0
 40
0
 40
0
 40
0
 40
0
 40
1
 40
1
 40
1
 40
1
 10
1243.904868
 20
1939.765323
 30
0.0
 10
1252.674782
 20
1937.525093
 30
0.0
 10
1261.285787
 20
1935.132062
 30
0.0
 10
1270.654889
 20
1932.331332
 30
0.0
  0
SPLINE
  5
190
100
AcDbEntity
  8
Ebene_1
 62
7
100
AcDbSpline
 70
8
 71
3
 72
8
 73
4
 74
0
 40
0
 40
0
 40
0
 40
0
 40
1
 40
1
 40
1
 40
1
 10
1270.654889
 20
1932.331332
 30
0.0
 10
1273.542402
 20
1931.468171
 30
0.0
 10
1278.267389
 20
1930.055720
 30
0.0
 10
1281.154902
 20
1929.192556
 30
0.0
  0
SPLINE
  5
191
100
AcDbEntity
  8
Ebene_1
 62
7
100
AcDbSpline
 70
8
 71
3
 72
8
 73
4
 74
0
 40
0
 40
0
 40
0
 40
0
 40
1
 40
1
 40
1
 40
1
 10
1281.154902
 20
1929.192556
 30
0.0
 10
1284.042386
 20
1928.329392
 30
0.0
 10
1287.754895
 20
1927.252796
 30
0.0
 10
1289.404886
 20
1926.800120
 30
0.0
  0
SPLINE
  5
192
100
AcDbEntity
  8
Ebene_1
 62
7
100
AcDbSpline
 70
8
 71
3
 72
8
 73
4
 74
0
 40
0
 40
0
 40
0
 40
0
 40
1
 40
1
 40
1
 40
1
 10
1289.404886
 20
1926.800120
 30
0.0
 10
1294.214289
 20
1925.480666
 30
0.0
 10
1317.495412
 20
1917.316027
 30
0.0
 10
1322.404906
 20
1915.227086
 30
0.0
  0
SPLINE
  5
193
100
AcDbEntity
  8
Ebene_1
 62
7
100
AcDbSpline
 70
8
 71
3
 72
8
 73
4
 74
0
 40
0
 40
0
 40
0
 40
0
 40
1
 40
1
 40
1
 40
1
 10
1322.404906
 20
1915.227086
 30
0.0
 10
1324.054926
 20
1914.525029
 30
0.0
 10
1327.654927
 20
1913.185565
 30
0.0
 10
1330.404902
 20
1912.250500
 30
0.0
  0
SPLINE
  5
194
100
AcDbEntity
  8
Ebene_1
 62
7
100
AcDbSpline
 70
8
 71
3
 72
8
 73
4
 74
0
 40
0
 40
0
 40
0
 40
0
 40
1
 40
1
 40
1
 40
1
 10
1330.404902
 20
1912.250500
 30
0.0
 10
1333.154907
 20
1911.315435
 30
0.0
 10
1336.304908
 20
1910.176264
 30
0.0
 10
1337.404921
 20
1909.719010
 30
0.0
  0
SPLINE
  5
195
100
AcDbEntity
  8
Ebene_1
 62
7
100
AcDbSpline
 70
8
 71
3
 72
8
 73
4
 74
0
 40
0
 40
0
 40
0
 40
0
 40
1
 40
1
 40
1
 40
1
 10
1337.404921
 20
1909.719010
 30
0.0
 10
1338.504905
 20
1909.261756
 30
0.0
 10
1340.529920
 20
1908.572362
 30
0.0
 10
1341.904922
 20
1908.187022
 30
0.0
  0
SPLINE
  5
196
100
AcDbEntity
  8
Ebene_1
 62
7
100
AcDbSpline
 70
8
 71
3
 72
8
 73
4
 74
0
 40
0
 40
0
 40
0
 40
0
 40
1
 40
1
 40
1
 40
1
 10
1341.904922
 20
1908.187022
 30
0.0
 10
1343.279924
 20
1907.801686
 30
0.0
 10
1346.879925
 20
1906.397748
 30
0.0
 10
1349.904918
 20
1905.067165
 30
0.0
  0
SPLINE
  5
197
100
AcDbEntity
  8
Ebene_1
 62
7
100
AcDbSpline
 70
8
 71
3
 72
8
 73
4
 74
0
 40
0
 40
0
 40
0
 40
0
 40
1
 40
1
 40
1
 40
1
 10
1349.904918
 20
1905.067165
 30
0.0
 10
1357.809812
 20
1901.590083
 30
0.0
 10
1358.569838
 20
1901.270788
 30
0.0
 10
1367.334622
 20
1897.744638
 30
0.0
  0
SPLINE
  5
198
100
AcDbEntity
  8
Ebene_1
 62
7
100
AcDbSpline
 70
8
 71
3
 72
8
 73
4
 74
0
 40
0
 40
0
 40
0
 40
0
 40
1
 40
1
 40
1
 40
1
 10
1367.334622
 20
1897.744638
 30
0.0
 10
1371.695924
 20
1895.990026
 30
0.0
 10
1375.970940
 20
1894.203623
 30
0.0
 10
1376.834628
 20
1893.774854
 30
0.0
  0
SPLINE
  5
199
100
AcDbEntity
  8
Ebene_1
 62
7
100
AcDbSpline
 70
8
 71
3
 72
8
 73
4
 74
0
 40
0
 40
0
 40
0
 40
0
 40
1
 40
1
 40
1
 40
1
 10
1376.834628
 20
1893.774854
 30
0.0
 10
1377.698345
 20
1893.346083
 30
0.0
 10
1379.529923
 20
1892.527751
 30
0.0
 10
1380.904925
 20
1891.956341
 30
0.0
  0
SPLINE
  5
19a
100
AcDbEntity
  8
Ebene_1
 62
7
100
AcDbSpline
 70
8
 71
3
 72
8
 73
4
 74
0
 40
0
 40
0
 40
0
 40
0
 40
1
 40
1
 40
1
 40
1
 10
1380.904925
 20
1891.956341
 30
0.0
 10
1382.279927
 20
1891.384927
 30
0.0
 10
1387.386543
 20
1889.082423
 30
0.0
 10
1392.253036
 20
1886.839667
 30
0.0
  0
SPLINE
  5
19b
100
AcDbEntity
  8
Ebene_1
 62
7
100
AcDbSpline
 70
8
 71
3
 72
8
 73
4
 74
0
 40
0
 40
0
 40
0
 40
0
 40
1
 40
1
 40
1
 40
1
 10
1392.253036
 20
1886.839667
 30
0.0
 10
1397.119444
 20
1884.596906
 30
0.0
 10
1401.308655
 20
1882.761926
 30
0.0
 10
1401.562356
 20
1882.761926
 30
0.0
  0
SPLINE
  5
19c
100
AcDbEntity
  8
Ebene_1
 62
7
100
AcDbSpline
 70
8
 71
3
 72
8
 73
4
 74
0
 40
0
 40
0
 40
0
 40
0
 40
1
 40
1
 40
1
 40
1
 10
1401.562356
 20
1882.761926
 30
0.0
 10
1402.655849
 20
1882.761926
 30
0.0
 10
1454.555677
 20
1856.453137
 30
0.0
 10
1455.983659
 20
1855.174967
 30
0.0
  0
SPLINE
  5
19d
100
AcDbEntity
  8
Ebene_1
 62
7
100
AcDbSpline
 70
8
 71
3
 72
8
 73
4
 74
0
 40
0
 40
0
 40
0
 40
0
 40
1
 40
1
 40
1
 40
1
 10
1455.983659
 20
1855.174967
 30
0.0
 10
1456.851968
 20
1854.397786
 30
0.0
 10
1458.224475
 20
1853.761918
 30
0.0
 10
1459.033654
 20
1853.761918
 30
0.0
  0
SPLINE
  5
19e
100
AcDbEntity
  8
Ebene_1
 62
7
100
AcDbSpline
 70
8
 71
3
 72
8
 73
4
 74
0
 40
0
 40
0
 40
0
 40
0
 40
1
 40
1
 40
1
 40
1
 10
1459.033654
 20
1853.761918
 30
0.0
 10
1459.842860
 20
1853.761918
 30
0.0
 10
1460.932470
 20
1853.366828
 30
0.0
 10
1461.454952
 20
1852.883937
 30
0.0
  0
SPLINE
  5
19f
100
AcDbEntity
  8
Ebene_1
 62
7
100
AcDbSpline
 70
8
 71
3
 72
8
 73
4
 74
0
 40
0
 40
0
 40
0
 40
0
 40
1
 40
1
 40
1
 40
1
 10
1461.454952
 20
1852.883937
 30
0.0
 10
1461.977462
 20
1852.401036
 30
0.0
 10
1464.879971
 20
1850.641735
 30
0.0
 10
1467.904964
 20
1848.974356
 30
0.0
  0
SPLINE
  5
1a0
100
AcDbEntity
  8
Ebene_1
 62
7
100
AcDbSpline
 70
8
 71
3
 72
8
 73
4
 74
0
 40
0
 40
0
 40
0
 40
0
 40
1
 40
1
 40
1
 40
1
 10
1467.904964
 20
1848.974356
 30
0.0
 10
1474.248364
 20
1845.477893
 30
0.0
 10
1494.975584
 20
1833.423244
 30
0.0
 10
1499.404974
 20
1830.654418
 30
0.0
  0
SPLINE
  5
1a1
100
AcDbEntity
  8
Ebene_1
 62
7
100
AcDbSpline
 70
8
 71
3
 72
8
 73
4
 74
0
 40
0
 40
0
 40
0
 40
0
 40
1
 40
1
 40
1
 40
1
 10
1499.404974
 20
1830.654418
 30
0.0
 10
1501.054993
 20
1829.622975
 30
0.0
 10
1503.079980
 20
1828.463179
 30
0.0
 10
1503.904976
 20
1828.077072
 30
0.0
  0
SPLINE
  5
1a2
100
AcDbEntity
  8
Ebene_1
 62
7
100
AcDbSpline
 70
8
 71
3
 72
8
 73
4
 74
0
 40
0
 40
0
 40
0
 40
0
 40
1
 40
1
 40
1
 40
1
 10
1503.904976
 20
1828.077072
 30
0.0
 10
1504.729971
 20
1827.690936
 30
0.0
 10
1508.486076
 20
1825.182132
 30
0.0
 10
1512.251876
 20
1822.501917
 30
0.0
  0
SPLINE
  5
1a3
100
AcDbEntity
  8
Ebene_1
 62
7
100
AcDbSpline
 70
8
 71
3
 72
8
 73
4
 74
0
 40
0
 40
0
 40
0
 40
0
 40
1
 40
1
 40
1
 40
1
 10
1512.251876
 20
1822.501917
 30
0.0
 10
1516.017676
 20
1819.821702
 30
0.0
 10
1520.880398
 20
1816.646274
 30
0.0
 10
1523.057889
 20
1815.445345
 30
0.0
  0
SPLINE
  5
1a4
100
AcDbEntity
  8
Ebene_1
 62
7
100
AcDbSpline
 70
8
 71
3
 72
8
 73
4
 74
0
 40
0
 40
0
 40
0
 40
0
 40
1
 40
1
 40
1
 40
1
 10
1523.057889
 20
1815.445345
 30
0.0
 10
1530.288902
 20
1811.457423
 30
0.0
 10
1530.879501
 20
1811.094560
 30
0.0
 10
1532.648094
 20
1809.552937
 30
0.0
  0
SPLINE
  5
1a5
100
AcDbEntity
  8
Ebene_1
 62
7
100
AcDbSpline
 70
8
 71
3
 72
8
 73
4
 74
0
 40
0
 40
0
 40
0
 40
0
 40
1
 40
1
 40
1
 40
1
 10
1532.648094
 20
1809.552937
 30
0.0
 10
1533.614396
 20
1808.710650
 30
0.0
 10
1538.229995
 20
1805.407493
 30
0.0
 10
1542.905007
 20
1802.212591
 30
0.0
  0
SPLINE
  5
1a6
100
AcDbEntity
  8
Ebene_1
 62
7
100
AcDbSpline
 70
8
 71
3
 72
8
 73
4
 74
0
 40
0
 40
0
 40
0
 40
0
 40
1
 40
1
 40
1
 40
1
 10
1542.905007
 20
1802.212591
 30
0.0
 10
1557.917211
 20
1791.953211
 30
0.0
 10
1565.333298
 20
1786.799484
 30
0.0
 10
1568.387318
 20
1784.503704
 30
0.0
  0
SPLINE
  5
1a7
100
AcDbEntity
  8
Ebene_1
 62
7
100
AcDbSpline
 70
8
 71
3
 72
8
 73
4
 74
0
 40
0
 40
0
 40
0
 40
0
 40
1
 40
1
 40
1
 40
1
 10
1568.387318
 20
1784.503704
 30
0.0
 10
1570.027615
 20
1783.270717
 30
0.0
 10
1574.977616
 20
1779.593840
 30
0.0
 10
1579.387306
 20
1776.332891
 30
0.0
  0
SPLINE
  5
1a8
100
AcDbEntity
  8
Ebene_1
 62
7
100
AcDbSpline
 70
8
 71
3
 72
8
 73
4
 74
0
 40
0
 40
0
 40
0
 40
0
 40
1
 40
1
 40
1
 40
1
 10
1579.387306
 20
1776.332891
 30
0.0
 10
1583.797024
 20
1773.071942
 30
0.0
 10
1588.814915
 20
1769.246955
 30
0.0
 10
1590.538125
 20
1767.832892
 30
0.0
  0
SPLINE
  5
1a9
100
AcDbEntity
  8
Ebene_1
 62
7
100
AcDbSpline
 70
8
 71
3
 72
8
 73
4
 74
0
 40
0
 40
0
 40
0
 40
0
 40
1
 40
1
 40
1
 40
1
 10
1590.538125
 20
1767.832892
 30
0.0
 10
1592.261420
 20
1766.418828
 30
0.0
 10
1595.015932
 20
1764.244881
 30
0.0
 10
1596.659318
 20
1763.001917
 30
0.0
  0
SPLINE
  5
1aa
100
AcDbEntity
  8
Ebene_1
 62
7
100
AcDbSpline
 70
8
 71
3
 72
8
 73
4
 74
0
 40
0
 40
0
 40
0
 40
0
 40
1
 40
1
 40
1
 40
1
 10
1596.659318
 20
1763.001917
 30
0.0
 10
1621.279131
 20
1744.380690
 30
0.0
 10
1659.089433
 20
1710.398889
 30
0.0
 10
1689.434864
 20
1679.620353
 30
0.0
  0
SPLINE
  5
1ab
100
AcDbEntity
  8
Ebene_1
 62
7
100
AcDbSpline
 70
8
 71
3
 72
8
 73
4
 74
0
 40
0
 40
0
 40
0
 40
0
 40
1
 40
1
 40
1
 40
1
 10
1689.434864
 20
1679.620353
 30
0.0
 10
1716.181965
 20
1652.491396
 30
0.0
 10
1725.986158
 20
1641.707947
 30
0.0
 10
1747.587865
 20
1615.658707
 30
0.0
  0
SPLINE
  5
1ac
100
AcDbEntity
  8
Ebene_1
 62
7
100
AcDbSpline
 70
8
 71
3
 72
8
 73
4
 74
0
 40
0
 40
0
 40
0
 40
0
 40
1
 40
1
 40
1
 40
1
 10
1747.587865
 20
1615.658707
 30
0.0
 10
1749.687375
 20
1613.127027
 30
0.0
 10
1753.055785
 20
1609.077026
 30
0.0
 10
1755.073288
 20
1606.658704
 30
0.0
  0
SPLINE
  5
1ad
100
AcDbEntity
  8
Ebene_1
 62
7
100
AcDbSpline
 70
8
 71
3
 72
8
 73
4
 74
0
 40
0
 40
0
 40
0
 40
0
 40
1
 40
1
 40
1
 40
1
 10
1755.073288
 20
1606.658704
 30
0.0
 10
1757.090791
 20
1604.240410
 30
0.0
 10
1759.781183
 20
1600.911798
 30
0.0
 10
1761.051983
 20
1599.261807
 30
0.0
  0
SPLINE
  5
1ae
100
AcDbEntity
  8
Ebene_1
 62
7
100
AcDbSpline
 70
8
 71
3
 72
8
 73
4
 74
0
 40
0
 40
0
 40
0
 40
0
 40
1
 40
1
 40
1
 40
1
 10
1761.051983
 20
1599.261807
 30
0.0
 10
1762.322699
 20
1597.611816
 30
0.0
 10
1763.830986
 20
1595.770713
 30
0.0
 10
1764.403698
 20
1595.170477
 30
0.0
  0
SPLINE
  5
1af
100
AcDbEntity
  8
Ebene_1
 62
7
100
AcDbSpline
 70
8
 71
3
 72
8
 73
4
 74
0
 40
0
 40
0
 40
0
 40
0
 40
1
 40
1
 40
1
 40
1
 10
1764.403698
 20
1595.170477
 30
0.0
 10
1767.107185
 20
1592.336822
 30
0.0
 10
1804.905100
 20
1540.172011
 30
0.0
 10
1804.905100
 20
1539.274477
 30
0.0
  0
SPLINE
  5
1b0
100
AcDbEntity
  8
Ebene_1
 62
7
100
AcDbSpline
 70
8
 71
3
 72
8
 73
4
 74
0
 40
0
 40
0
 40
0
 40
0
 40
1
 40
1
 40
1
 40
1
 10
1804.905100
 20
1539.274477
 30
0.0
 10
1804.905100
 20
1538.996398
 30
0.0
 10
1807.042594
 20
1535.703701
 30
0.0
 10
1809.655089
 20
1531.957177
 30
0.0
  0
SPLINE
  5
1b1
100
AcDbEntity
  8
Ebene_1
 62
7
100
AcDbSpline
 70
8
 71
3
 72
8
 73
4
 74
0
 40
0
 40
0
 40
0
 40
0
 40
1
 40
1
 40
1
 40
1
 10
1809.655089
 20
1531.957177
 30
0.0
 10
1814.967302
 20
1524.339093
 30
0.0
 10
1814.444905
 20
1525.149348
 30
0.0
 10
1823.321799
 20
1510.761759
 30
0.0
  0
SPLINE
  5
1b2
100
AcDbEntity
  8
Ebene_1
 62
7
100
AcDbSpline
 70
8
 71
3
 72
8
 73
4
 74
0
 40
0
 40
0
 40
0
 40
0
 40
1
 40
1
 40
1
 40
1
 10
1823.321799
 20
1510.761759
 30
0.0
 10
1837.889218
 20
1487.151194
 30
0.0
 10
1845.364521
 20
1474.640197
 30
0.0
 10
1846.174522
 20
1472.514326
 30
0.0
  0
SPLINE
  5
1b3
100
AcDbEntity
  8
Ebene_1
 62
7
100
AcDbSpline
 70
8
 71
3
 72
8
 73
4
 74
0
 40
0
 40
0
 40
0
 40
0
 40
1
 40
1
 40
1
 40
1
 10
1846.174522
 20
1472.514326
 30
0.0
 10
1846.540730
 20
1471.553211
 30
0.0
 10
1848.429908
 20
1468.282000
 30
0.0
 10
1850.372718
 20
1465.244903
 30
0.0
  0
SPLINE
  5
1b4
100
AcDbEntity
  8
Ebene_1
 62
7
100
AcDbSpline
 70
8
 71
3
 72
8
 73
4
 74
0
 40
0
 40
0
 40
0
 40
0
 40
1
 40
1
 40
1
 40
1
 10
1850.372718
 20
1465.244903
 30
0.0
 10
1852.315528
 20
1462.207806
 30
0.0
 10
1853.905113
 20
1459.083203
 30
0.0
 10
1853.905113
 20
1458.301351
 30
0.0
  0
SPLINE
  5
1b5
100
AcDbEntity
  8
Ebene_1
 62
7
100
AcDbSpline
 70
8
 71
3
 72
8
 73
4
 74
0
 40
0
 40
0
 40
0
 40
0
 40
1
 40
1
 40
1
 40
1
 10
1853.905113
 20
1458.301351
 30
0.0
 10
1853.905113
 20
1457.519499
 30
0.0
 10
1854.370931
 20
1456.591889
 30
0.0
 10
1854.940326
 20
1456.239996
 30
0.0
  0
SPLINE
  5
1b6
100
AcDbEntity
  8
Ebene_1
 62
7
100
AcDbSpline
 70
8
 71
3
 72
8
 73
4
 74
0
 40
0
 40
0
 40
0
 40
0
 40
1
 40
1
 40
1
 40
1
 10
1854.940326
 20
1456.239996
 30
0.0
 10
1855.986424
 20
1455.593470
 30
0.0
 10
1883.429318
 20
1400.931902
 30
0.0
 10
1887.813723
 20
1390.761700
 30
0.0
  0
SPLINE
  5
1b7
100
AcDbEntity
  8
Ebene_1
 62
7
100
AcDbSpline
 70
8
 71
3
 72
8
 73
4
 74
0
 40
0
 40
0
 40
0
 40
0
 40
1
 40
1
 40
1
 40
1
 10
1887.813723
 20
1390.761700
 30
0.0
 10
1889.117830
 20
1387.736707
 30
0.0
 10
1891.188228
 20
1383.011720
 30
0.0
 10
1892.414524
 20
1380.261716
 30
0.0
  0
SPLINE
  5
1b8
100
AcDbEntity
  8
Ebene_1
 62
7
100
AcDbSpline
 70
8
 71
3
 72
8
 73
4
 74
0
 40
0
 40
0
 40
0
 40
0
 40
1
 40
1
 40
1
 40
1
 10
1892.414524
 20
1380.261716
 30
0.0
 10
1893.640849
 20
1377.511712
 30
0.0
 10
1896.091741
 20
1371.661710
 30
0.0
 10
1897.861128
 20
1367.261715
 30
0.0
  0
SPLINE
  5
1b9
100
AcDbEntity
  8
Ebene_1
 62
7
100
AcDbSpline
 70
8
 71
3
 72
8
 73
4
 74
0
 40
0
 40
0
 40
0
 40
0
 40
1
 40
1
 40
1
 40
1
 10
1897.861128
 20
1367.261715
 30
0.0
 10
1899.630429
 20
1362.861691
 30
0.0
 10
1901.465353
 20
1358.361690
 30
0.0
 10
1901.938852
 20
1357.261705
 30
0.0
  0
SPLINE
  5
1ba
100
AcDbEntity
  8
Ebene_1
 62
7
100
AcDbSpline
 70
8
 71
3
 72
8
 73
4
 74
0
 40
0
 40
0
 40
0
 40
0
 40
1
 40
1
 40
1
 40
1
 10
1901.938852
 20
1357.261705
 30
0.0
 10
1902.412238
 20
1356.161692
 30
0.0
 10
1904.212238
 20
1351.661691
 30
0.0
 10
1905.938850
 20
1347.261695
 30
0.0
  0
SPLINE
  5
1bb
100
AcDbEntity
  8
Ebene_1
 62
7
100
AcDbSpline
 70
8
 71
3
 72
8
 73
4
 74
0
 40
0
 40
0
 40
0
 40
0
 40
1
 40
1
 40
1
 40
1
 10
1905.938850
 20
1347.261695
 30
0.0
 10
1907.665348
 20
1342.861700
 30
0.0
 10
1909.478955
 20
1338.361699
 30
0.0
 10
1909.968839
 20
1337.261686
 30
0.0
  0
SPLINE
  5
1bc
100
AcDbEntity
  8
Ebene_1
 62
7
100
AcDbSpline
 70
8
 71
3
 72
8
 73
4
 74
0
 40
0
 40
0
 40
0
 40
0
 40
1
 40
1
 40
1
 40
1
 10
1909.968839
 20
1337.261686
 30
0.0
 10
1910.458751
 20
1336.161701
 30
0.0
 10
1911.567551
 20
1333.011700
 30
0.0
 10
1912.432742
 20
1330.261696
 30
0.0
  0
SPLINE
  5
1bd
100
AcDbEntity
  8
Ebene_1
 62
7
100
AcDbSpline
 70
8
 71
3
 72
8
 73
4
 74
0
 40
0
 40
0
 40
0
 40
0
 40
1
 40
1
 40
1
 40
1
 10
1912.432742
 20
1330.261696
 30
0.0
 10
1913.297933
 20
1327.511692
 30
0.0
 10
1914.417335
 20
1324.361691
 30
0.0
 10
1914.920343
 20
1323.261678
 30
0.0
  0
SPLINE
  5
1be
100
AcDbEntity
  8
Ebene_1
 62
7
100
AcDbSpline
 70
8
 71
3
 72
8
 73
4
 74
0
 40
0
 40
0
 40
0
 40
0
 40
1
 40
1
 40
1
 40
1
 10
1914.920343
 20
1323.261678
 30
0.0
 10
1916.630258
 20
1319.521985
 30
0.0
 10
1927.383859
 20
1287.493654
 30
0.0
 10
1930.365057
 20
1277.261657
 30
0.0
  0
SPLINE
  5
1bf
100
AcDbEntity
  8
Ebene_1
 62
7
100
AcDbSpline
 70
8
 71
3
 72
8
 73
4
 74
0
 40
0
 40
0
 40
0
 40
0
 40
1
 40
1
 40
1
 40
1
 10
1930.365057
 20
1277.261657
 30
0.0
 10
1932.449457
 20
1270.107519
 30
0.0
 10
1934.976658
 20
1261.844382
 30
0.0
 10
1935.717266
 20
1259.761654
 30
0.0
  0
SPLINE
  5
1c0
100
AcDbEntity
  8
Ebene_1
 62
7
100
AcDbSpline
 70
8
 71
3
 72
8
 73
4
 74
0
 40
0
 40
0
 40
0
 40
0
 40
1
 40
1
 40
1
 40
1
 10
1935.717266
 20
1259.761654
 30
0.0
 10
1936.010652
 20
1258.936658
 30
0.0
 10
1936.859147
 20
1255.786657
 30
0.0
 10
1937.602845
 20
1252.761664
 30
0.0
  0
SPLINE
  5
1c1
100
AcDbEntity
  8
Ebene_1
 62
7
100
AcDbSpline
 70
8
 71
3
 72
8
 73
4
 74
0
 40
0
 40
0
 40
0
 40
0
 40
1
 40
1
 40
1
 40
1
 10
1937.602845
 20
1252.761664
 30
0.0
 10
1939.583554
 20
1244.705910
 30
0.0
 10
1940.607542
 20
1240.909553
 30
0.0
 10
1942.458254
 20
1234.761658
 30
0.0
  0
SPLINE
  5
1c2
100
AcDbEntity
  8
Ebene_1
 62
7
100
AcDbSpline
 70
8
 71
3
 72
8
 73
4
 74
0
 40
0
 40
0
 40
0
 40
0
 40
1
 40
1
 40
1
 40
1
 10
1942.458254
 20
1234.761658
 30
0.0
 10
1943.368856
 20
1231.736637
 30
0.0
 10
1944.481370
 20
1227.461650
 30
0.0
 10
1944.930350
 20
1225.261652
 30
0.0
  0
SPLINE
  5
1c3
100
AcDbEntity
  8
Ebene_1
 62
7
100
AcDbSpline
 70
8
 71
3
 72
8
 73
4
 74
0
 40
0
 40
0
 40
0
 40
0
 40
1
 40
1
 40
1
 40
1
 10
1944.930350
 20
1225.261652
 30
0.0
 10
1945.379443
 20
1223.061654
 30
0.0
 10
1946.205770
 20
1219.461653
 30
0.0
 10
1946.766662
 20
1217.261656
 30
0.0
  0
SPLINE
  5
1c4
100
AcDbEntity
  8
Ebene_1
 62
7
100
AcDbSpline
 70
8
 71
3
 72
8
 73
4
 74
0
 40
0
 40
0
 40
0
 40
0
 40
1
 40
1
 40
1
 40
1
 10
1946.766662
 20
1217.261656
 30
0.0
 10
1951.597268
 20
1198.315501
 30
0.0
 10
1958.277567
 20
1164.967783
 30
0.0
 10
1960.889353
 20
1146.761613
 30
0.0
  0
SPLINE
  5
1c5
100
AcDbEntity
  8
Ebene_1
 62
7
100
AcDbSpline
 70
8
 71
3
 72
8
 73
4
 74
0
 40
0
 40
0
 40
0
 40
0
 40
1
 40
1
 40
1
 40
1
 10
1960.889353
 20
1146.761613
 30
0.0
 10
1961.323253
 20
1143.736620
 30
0.0
 10
1962.424258
 20
1136.761604
 30
0.0
 10
1963.335852
 20
1131.261624
 30
0.0
  0
SPLINE
  5
1c6
100
AcDbEntity
  8
Ebene_1
 62
7
100
AcDbSpline
 70
8
 71
3
 72
8
 73
4
 74
0
 40
0
 40
0
 40
0
 40
0
 40
1
 40
1
 40
1
 40
1
 10
1963.335852
 20
1131.261624
 30
0.0
 10
1971.688563
 20
1080.869233
 30
0.0
 10
1975.832675
 20
998.638629
 30
0.0
 10
1972.835575
 20
942.761537
 30
0.0
  0
SPLINE
  5
1c7
100
AcDbEntity
  8
Ebene_1
 62
7
100
AcDbSpline
 70
8
 71
3
 72
8
 73
4
 74
0
 40
0
 40
0
 40
0
 40
0
 40
1
 40
1
 40
1
 40
1
 10
1972.835575
 20
942.761537
 30
0.0
 10
1971.051873
 20
909.504726
 30
0.0
 10
1968.684575
 20
879.939617
 30
0.0
 10
1967.270766
 20
873.261501
 30
0.0
  0
SPLINE
  5
1c8
100
AcDbEntity
  8
Ebene_1
 62
7
100
AcDbSpline
 70
8
 71
3
 72
8
 73
4
 74
0
 40
0
 40
0
 40
0
 40
0
 40
1
 40
1
 40
1
 40
1
 10
1967.270766
 20
873.261501
 30
0.0
 10
1966.921453
 20
871.611510
 30
0.0
 10
1966.281475
 20
866.661508
 30
0.0
 10
1965.848568
 20
862.261513
 30
0.0
  0
SPLINE
  5
1c9
100
AcDbEntity
  8
Ebene_1
 62
7
100
AcDbSpline
 70
8
 71
3
 72
8
 73
4
 74
0
 40
0
 40
0
 40
0
 40
0
 40
1
 40
1
 40
1
 40
1
 10
1965.848568
 20
862.261513
 30
0.0
 10
1965.415660
 20
857.861490
 30
0.0
 10
1964.362759
 20
849.536501
 30
0.0
 10
1963.508765
 20
843.761504
 30
0.0
  0
SPLINE
  5
1ca
100
AcDbEntity
  8
Ebene_1
 62
7
100
AcDbSpline
 70
8
 71
3
 72
8
 73
4
 74
0
 40
0
 40
0
 40
0
 40
0
 40
1
 40
1
 40
1
 40
1
 10
1963.508765
 20
843.761504
 30
0.0
 10
1962.654771
 20
837.986507
 30
0.0
 10
1961.715171
 20
831.461490
 30
0.0
 10
1961.420764
 20
829.261493
 30
0.0
  0
SPLINE
  5
1cb
100
AcDbEntity
  8
Ebene_1
 62
7
100
AcDbSpline
 70
8
 71
3
 72
8
 73
4
 74
0
 40
0
 40
0
 40
0
 40
0
 40
1
 40
1
 40
1
 40
1
 10
1961.420764
 20
829.261493
 30
0.0
 10
1961.126358
 20
827.061495
 30
0.0
 10
1960.429970
 20
823.011494
 30
0.0
 10
1959.873274
 20
820.261490
 30
0.0
  0
SPLINE
  5
1cc
100
AcDbEntity
  8
Ebene_1
 62
7
100
AcDbSpline
 70
8
 71
3
 72
8
 73
4
 74
0
 40
0
 40
0
 40
0
 40
0
 40
1
 40
1
 40
1
 40
1
 10
1959.873274
 20
820.261490
 30
0.0
 10
1959.316465
 20
817.511486
 30
0.0
 10
1958.477664
 20
812.786498
 30
0.0
 10
1958.009154
 20
809.761477
 30
0.0
  0
SPLINE
  5
1cd
100
AcDbEntity
  8
Ebene_1
 62
7
100
AcDbSpline
 70
8
 71
3
 72
8
 73
4
 74
0
 40
0
 40
0
 40
0
 40
0
 40
1
 40
1
 40
1
 40
1
 10
1958.009154
 20
809.761477
 30
0.0
 10
1956.124964
 20
797.593785
 30
0.0
 10
1949.020546
 20
764.063374
 30
0.0
 10
1946.874350
 20
757.208971
 30
0.0
  0
SPLINE
  5
1ce
100
AcDbEntity
  8
Ebene_1
 62
7
100
AcDbSpline
 70
8
 71
3
 72
8
 73
4
 74
0
 40
0
 40
0
 40
0
 40
0
 40
1
 40
1
 40
1
 40
1
 10
1946.874350
 20
757.208971
 30
0.0
 10
1946.348665
 20
755.530152
 30
0.0
 10
1945.443562
 20
751.930151
 30
0.0
 10
1944.862970
 20
749.208947
 30
0.0
  0
SPLINE
  5
1cf
100
AcDbEntity
  8
Ebene_1
 62
7
100
AcDbSpline
 70
8
 71
3
 72
8
 73
4
 74
0
 40
0
 40
0
 40
0
 40
0
 40
1
 40
1
 40
1
 40
1
 10
1944.862970
 20
749.208947
 30
0.0
 10
1944.282349
 20
746.487856
 30
0.0
 10
1943.400066
 20
742.686453
 30
0.0
 10
1942.902160
 20
740.761445
 30
0.0
  0
SPLINE
  5
1d0
100
AcDbEntity
  8
Ebene_1
 62
7
100
AcDbSpline
 70
8
 71
3
 72
8
 73
4
 74
0
 40
0
 40
0
 40
0
 40
0
 40
1
 40
1
 40
1
 40
1
 10
1942.902160
 20
740.761445
 30
0.0
 10
1942.404254
 20
738.836465
 30
0.0
 10
1940.798058
 20
732.536462
 30
0.0
 10
1939.332858
 20
726.761437
 30
0.0
  0
SPLINE
  5
1d1
100
AcDbEntity
  8
Ebene_1
 62
7
100
AcDbSpline
 70
8
 71
3
 72
8
 73
4
 74
0
 40
0
 40
0
 40
0
 40
0
 40
1
 40
1
 40
1
 40
1
 10
1939.332858
 20
726.761437
 30
0.0
 10
1937.867544
 20
720.986440
 30
0.0
 10
1936.333462
 20
715.361452
 30
0.0
 10
1935.923543
 20
714.261439
 30
0.0
  0
SPLINE
  5
1d2
100
AcDbEntity
  8
Ebene_1
 62
7
100
AcDbSpline
 70
8
 71
3
 72
8
 73
4
 74
0
 40
0
 40
0
 40
0
 40
0
 40
1
 40
1
 40
1
 40
1
 10
1935.923543
 20
714.261439
 30
0.0
 10
1935.023543
 20
711.845838
 30
0.0
 10
1932.732242
 20
704.405345
 30
0.0
 10
1930.380647
 20
696.261433
 30
0.0
  0
SPLINE
  5
1d3
100
AcDbEntity
  8
Ebene_1
 62
7
100
AcDbSpline
 70
8
 71
3
 72
8
 73
4
 74
0
 40
0
 40
0
 40
0
 40
0
 40
1
 40
1
 40
1
 40
1
 10
1930.380647
 20
696.261433
 30
0.0
 10
1929.427752
 20
692.961451
 30
0.0
 10
1928.255938
 20
689.833929
 30
0.0
 10
1927.776656
 20
689.311447
 30
0.0
  0
SPLINE
  5
1d4
100
AcDbEntity
  8
Ebene_1
 62
7
100
AcDbSpline
 70
8
 71
3
 72
8
 73
4
 74
0
 40
0
 40
0
 40
0
 40
0
 40
1
 40
1
 40
1
 40
1
 10
1927.776656
 20
689.311447
 30
0.0
 10
1927.297345
 20
688.788936
 30
0.0
 10
1926.904860
 20
687.663922
 30
0.0
 10
1926.904548
 20
686.811430
 30
0.0
  0
SPLINE
  5
1d5
100
AcDbEntity
  8
Ebene_1
 62
7
100
AcDbSpline
 70
8
 71
3
 72
8
 73
4
 74
0
 40
0
 40
0
 40
0
 40
0
 40
1
 40
1
 40
1
 40
1
 10
1926.904548
 20
686.811430
 30
0.0
 10
1926.903755
 20
684.801240
 30
0.0
 10
1917.470334
 20
655.959221
 30
0.0
 10
1914.950135
 20
650.261412
 30
0.0
  0
SPLINE
  5
1d6
100
AcDbEntity
  8
Ebene_1
 62
7
100
AcDbSpline
 70
8
 71
3
 72
8
 73
4
 74
0
 40
0
 40
0
 40
0
 40
0
 40
1
 40
1
 40
1
 40
1
 10
1914.950135
 20
650.261412
 30
0.0
 10
1914.463540
 20
649.161427
 30
0.0
 10
1912.860348
 20
644.886411
 30
0.0
 10
1911.387438
 20
640.761405
 30
0.0
  0
SPLINE
  5
1d7
100
AcDbEntity
  8
Ebene_1
 62
7
100
AcDbSpline
 70
8
 71
3
 72
8
 73
4
 74
0
 40
0
 40
0
 40
0
 40
0
 40
1
 40
1
 40
1
 40
1
 10
1911.387438
 20
640.761405
 30
0.0
 10
1905.863732
 20
625.292002
 30
0.0
 10
1898.011647
 20
606.200600
 30
0.0
 10
1886.298944
 20
579.761398
 30
0.0
  0
SPLINE
  5
1d8
100
AcDbEntity
  8
Ebene_1
 62
7
100
AcDbSpline
 70
8
 71
3
 72
8
 73
4
 74
0
 40
0
 40
0
 40
0
 40
0
 40
1
 40
1
 40
1
 40
1
 10
1886.298944
 20
579.761398
 30
0.0
 10
1883.031220
 20
572.385279
 30
0.0
 10
1857.279930
 20
520.876178
 30
0.0
 10
1853.053018
 20
513.261354
 30
0.0
  0
SPLINE
  5
1d9
100
AcDbEntity
  8
Ebene_1
 62
7
100
AcDbSpline
 70
8
 71
3
 72
8
 73
4
 74
0
 40
0
 40
0
 40
0
 40
0
 40
1
 40
1
 40
1
 40
1
 10
1853.053018
 20
513.261354
 30
0.0
 10
1851.526533
 20
510.511378
 30
0.0
 10
1848.794926
 20
505.561376
 30
0.0
 10
1846.982821
 20
502.261366
 30
0.0
  0
SPLINE
  5
1da
100
AcDbEntity
  8
Ebene_1
 62
7
100
AcDbSpline
 70
8
 71
3
 72
8
 73
4
 74
0
 40
0
 40
0
 40
0
 40
0
 40
1
 40
1
 40
1
 40
1
 10
1846.982821
 20
502.261366
 30
0.0
 10
1843.316716
 20
495.585150
 30
0.0
 10
1838.145725
 20
486.829465
 30
0.0
 10
1833.399421
 20
479.261355
 30
0.0
  0
SPLINE
  5
1db
100
AcDbEntity
  8
Ebene_1
 62
7
100
AcDbSpline
 70
8
 71
3
 72
8
 73
4
 74
0
 40
0
 40
0
 40
0
 40
0
 40
1
 40
1
 40
1
 40
1
 10
1833.399421
 20
479.261355
 30
0.0
 10
1831.674709
 20
476.511351
 30
0.0
 10
1828.989505
 20
472.011350
 30
0.0
 10
1827.432320
 20
469.261346
 30
0.0
  0
SPLINE
  5
1dc
100
AcDbEntity
  8
Ebene_1
 62
7
100
AcDbSpline
 70
8
 71
3
 72
8
 73
4
 74
0
 40
0
 40
0
 40
0
 40
0
 40
1
 40
1
 40
1
 40
1
 10
1827.432320
 20
469.261346
 30
0.0
 10
1825.875022
 20
466.511342
 30
0.0
 10
1822.923305
 20
461.786354
 30
0.0
 10
1820.873005
 20
458.761333
 30
0.0
  0
SPLINE
  5
1dd
100
AcDbEntity
  8
Ebene_1
 62
7
100
AcDbSpline
 70
8
 71
3
 72
8
 73
4
 74
0
 40
0
 40
0
 40
0
 40
0
 40
1
 40
1
 40
1
 40
1
 10
1820.873005
 20
458.761333
 30
0.0
 10
1818.822620
 20
455.736340
 30
0.0
 10
1813.736300
 20
448.018447
 30
0.0
 10
1809.569993
 20
441.610445
 30
0.0
  0
SPLINE
  5
1de
100
AcDbEntity
  8
Ebene_1
 62
7
100
AcDbSpline
 70
8
 71
3
 72
8
 73
4
 74
0
 40
0
 40
0
 40
0
 40
0
 40
1
 40
1
 40
1
 40
1
 10
1809.569993
 20
441.610445
 30
0.0
 10
1805.403715
 20
435.202443
 30
0.0
 10
1797.355784
 20
423.502439
 30
0.0
 10
1791.685782
 20
415.610443
 30
0.0
  0
SPLINE
  5
1df
100
AcDbEntity
  8
Ebene_1
 62
7
100
AcDbSpline
 70
8
 71
3
 72
8
 73
4
 74
0
 40
0
 40
0
 40
0
 40
0
 40
1
 40
1
 40
1
 40
1
 10
1791.685782
 20
415.610443
 30
0.0
 10
1786.015894
 20
407.718418
 30
0.0
 10
1780.642680
 20
400.136334
 30
0.0
 10
1779.745486
 20
398.761332
 30
0.0
  0
SPLINE
  5
1e0
100
AcDbEntity
  8
Ebene_1
 62
7
100
AcDbSpline
 70
8
 71
3
 72
8
 73
4
 74
0
 40
0
 40
0
 40
0
 40
0
 40
1
 40
1
 40
1
 40
1
 10
1779.745486
 20
398.761332
 30
0.0
 10
1778.848292
 20
397.386330
 30
0.0
 10
1777.174489
 20
395.275510
 30
0.0
 10
1776.025891
 20
394.070615
 30
0.0
  0
SPLINE
  5
1e1
100
AcDbEntity
  8
Ebene_1
 62
7
100
AcDbSpline
 70
8
 71
3
 72
8
 73
4
 74
0
 40
0
 40
0
 40
0
 40
0
 40
1
 40
1
 40
1
 40
1
 10
1776.025891
 20
394.070615
 30
0.0
 10
1774.877377
 20
392.865720
 30
0.0
 10
1772.692800
 20
390.123710
 30
0.0
 10
1771.171388
 20
387.977429
 30
0.0
  0
SPLINE
  5
1e2
100
AcDbEntity
  8
Ebene_1
 62
7
100
AcDbSpline
 70
8
 71
3
 72
8
 73
4
 74
0
 40
0
 40
0
 40
0
 40
0
 40
1
 40
1
 40
1
 40
1
 10
1771.171388
 20
387.977429
 30
0.0
 10
1766.229891
 20
381.006409
 30
0.0
 10
1759.641095
 20
372.343106
 30
0.0
 10
1756.487890
 20
368.671104
 30
0.0
  0
SPLINE
  5
1e3
100
AcDbEntity
  8
Ebene_1
 62
7
100
AcDbSpline
 70
8
 71
3
 72
8
 73
4
 74
0
 40
0
 40
0
 40
0
 40
0
 40
1
 40
1
 40
1
 40
1
 10
1756.487890
 20
368.671104
 30
0.0
 10
1754.792375
 20
366.696518
 30
0.0
 10
1750.480084
 20
361.530715
 30
0.0
 10
1746.905084
 20
357.191608
 30
0.0
  0
SPLINE
  5
1e4
100
AcDbEntity
  8
Ebene_1
 62
7
100
AcDbSpline
 70
8
 71
3
 72
8
 73
4
 74
0
 40
0
 40
0
 40
0
 40
0
 40
1
 40
1
 40
1
 40
1
 10
1746.905084
 20
357.191608
 30
0.0
 10
1703.453665
 20
304.452582
 30
0.0
 10
1644.761939
 20
247.620072
 30
0.0
 10
1592.069628
 20
207.261253
 30
0.0
  0
SPLINE
  5
1e5
100
AcDbEntity
  8
Ebene_1
 62
7
100
AcDbSpline
 70
8
 71
3
 72
8
 73
4
 74
0
 40
0
 40
0
 40
0
 40
0
 40
1
 40
1
 40
1
 40
1
 10
1592.069628
 20
207.261253
 30
0.0
 10
1581.626025
 20
199.262050
 30
0.0
 10
1579.423108
 20
197.606248
 30
0.0
 10
1570.679215
 20
191.182740
 30
0.0
  0
SPLINE
  5
1e6
100
AcDbEntity
  8
Ebene_1
 62
7
100
AcDbSpline
 70
8
 71
3
 72
8
 73
4
 74
0
 40
0
 40
0
 40
0
 40
0
 40
1
 40
1
 40
1
 40
1
 10
1570.679215
 20
191.182740
 30
0.0
 10
1551.179397
 20
176.857429
 30
0.0
 10
1543.898891
 20
171.761244
 30
0.0
 10
1542.933212
 20
171.761244
 30
0.0
  0
SPLINE
  5
1e7
100
AcDbEntity
  8
Ebene_1
 62
7
100
AcDbSpline
 70
8
 71
3
 72
8
 73
4
 74
0
 40
0
 40
0
 40
0
 40
0
 40
1
 40
1
 40
1
 40
1
 10
1542.933212
 20
171.761244
 30
0.0
 10
1542.367700
 20
171.761244
 30
0.0
 10
1541.905001
 20
171.296731
 30
0.0
 10
1541.905001
 20
170.729036
 30
0.0
  0
SPLINE
  5
1e8
100
AcDbEntity
  8
Ebene_1
 62
7
100
AcDbSpline
 70
8
 71
3
 72
8
 73
4
 74
0
 40
0
 40
0
 40
0
 40
0
 40
1
 40
1
 40
1
 40
1
 10
1541.905001
 20
170.729036
 30
0.0
 10
1541.905001
 20
170.161341
 30
0.0
 10
1541.117508
 20
169.373820
 30
0.0
 10
1540.155003
 20
168.979038
 30
0.0
  0
SPLINE
  5
1e9
100
AcDbEntity
  8
Ebene_1
 62
7
100
AcDbSpline
 70
8
 71
3
 72
8
 73
4
 74
0
 40
0
 40
0
 40
0
 40
0
 40
1
 40
1
 40
1
 40
1
 10
1540.155003
 20
168.979038
 30
0.0
 10
1539.192499
 20
168.584229
 30
0.0
 10
1531.774994
 20
163.878631
 30
0.0
 10
1523.671590
 20
158.522027
 30
0.0
  0
SPLINE
  5
1ea
100
AcDbEntity
  8
Ebene_1
 62
7
100
AcDbSpline
 70
8
 71
3
 72
8
 73
4
 74
0
 40
0
 40
0
 40
0
 40
0
 40
1
 40
1
 40
1
 40
1
 10
1523.671590
 20
158.522027
 30
0.0
 10
1515.568186
 20
153.165537
 30
0.0
 10
1507.466284
 20
147.990521
 30
0.0
 10
1505.667389
 20
147.022036
 30
0.0
  0
SPLINE
  5
1eb
100
AcDbEntity
  8
Ebene_1
 62
7
100
AcDbSpline
 70
8
 71
3
 72
8
 73
4
 74
0
 40
0
 40
0
 40
0
 40
0
 40
1
 40
1
 40
1
 40
1
 10
1505.667389
 20
147.022036
 30
0.0
 10
1503.868494
 20
146.053636
 30
0.0
 10
1501.046575
 20
144.361210
 30
0.0
 10
1499.396470
 20
143.261225
 30
0.0
  0
SPLINE
  5
1ec
100
AcDbEntity
  8
Ebene_1
 62
7
100
AcDbSpline
 70
8
 71
3
 72
8
 73
4
 74
0
 40
0
 40
0
 40
0
 40
0
 40
1
 40
1
 40
1
 40
1
 10
1499.396470
 20
143.261225
 30
0.0
 10
1494.698979
 20
140.129621
 30
0.0
 10
1492.526165
 20
138.802808
 30
0.0
 10
1490.904974
 20
138.075920
 30
0.0
  0
SPLINE
  5
1ed
100
AcDbEntity
  8
Ebene_1
 62
7
100
AcDbSpline
 70
8
 71
3
 72
8
 73
4
 74
0
 40
0
 40
0
 40
0
 40
0
 40
1
 40
1
 40
1
 40
1
 10
1490.904974
 20
138.075920
 30
0.0
 10
1490.079979
 20
137.706027
 30
0.0
 10
1486.029978
 20
135.314407
 30
0.0
 10
1481.904971
 20
132.761212
 30
0.0
  0
SPLINE
  5
1ee
100
AcDbEntity
  8
Ebene_1
 62
7
100
AcDbSpline
 70
8
 71
3
 72
8
 73
4
 74
0
 40
0
 40
0
 40
0
 40
0
 40
1
 40
1
 40
1
 40
1
 10
1481.904971
 20
132.761212
 30
0.0
 10
1477.779965
 20
130.208018
 30
0.0
 10
1473.618676
 20
127.828105
 30
0.0
 10
1472.657560
 20
127.472527
 30
0.0
  0
SPLINE
  5
1ef
100
AcDbEntity
  8
Ebene_1
 62
7
100
AcDbSpline
 70
8
 71
3
 72
8
 73
4
 74
0
 40
0
 40
0
 40
0
 40
0
 40
1
 40
1
 40
1
 40
1
 10
1472.657560
 20
127.472527
 30
0.0
 10
1471.696474
 20
127.116921
 30
0.0
 10
1468.425178
 20
125.236416
 30
0.0
 10
1465.388081
 20
123.293606
 30
0.0
  0
SPLINE
  5
1f0
100
AcDbEntity
  8
Ebene_1
 62
7
100
AcDbSpline
 70
8
 71
3
 72
8
 73
4
 74
0
 40
0
 40
0
 40
0
 40
0
 40
1
 40
1
 40
1
 40
1
 10
1465.388081
 20
123.293606
 30
0.0
 10
1462.351069
 20
121.350824
 30
0.0
 10
1459.468063
 20
119.761211
 30
0.0
 10
1458.981553
 20
119.761211
 30
0.0
  0
SPLINE
  5
1f1
100
AcDbEntity
  8
Ebene_1
 62
7
100
AcDbSpline
 70
8
 71
3
 72
8
 73
4
 74
0
 40
0
 40
0
 40
0
 40
0
 40
1
 40
1
 40
1
 40
1
 10
1458.981553
 20
119.761211
 30
0.0
 10
1458.495156
 20
119.761211
 30
0.0
 10
1455.241350
 20
118.134804
 30
0.0
 10
1451.751050
 20
116.146923
 30
0.0
  0
SPLINE
  5
1f2
100
AcDbEntity
  8
Ebene_1
 62
7
100
AcDbSpline
 70
8
 71
3
 72
8
 73
4
 74
0
 40
0
 40
0
 40
0
 40
0
 40
1
 40
1
 40
1
 40
1
 10
1451.751050
 20
116.146923
 30
0.0
 10
1440.092347
 20
109.507019
 30
0.0
 10
1394.172942
 20
87.052706
 30
0.0
 10
1382.404935
 20
82.237095
 30
0.0
  0
SPLINE
  5
1f3
100
AcDbEntity
  8
Ebene_1
 62
7
100
AcDbSpline
 70
8
 71
3
 72
8
 73
4
 74
0
 40
0
 40
0
 40
0
 40
0
 40
1
 40
1
 40
1
 40
1
 10
1382.404935
 20
82.237095
 30
0.0
 10
1380.754944
 20
81.561910
 30
0.0
 10
1374.904942
 20
79.085988
 30
0.0
 10
1369.404934
 20
76.734989
 30
0.0
  0
SPLINE
  5
1f4
100
AcDbEntity
  8
Ebene_1
 62
7
100
AcDbSpline
 70
8
 71
3
 72
8
 73
4
 74
0
 40
0
 40
0
 40
0
 40
0
 40
1
 40
1
 40
1
 40
1
 10
1369.404934
 20
76.734989
 30
0.0
 10
1355.975512
 20
70.994801
 30
0.0
 10
1355.460911
 20
70.790197
 30
0.0
 10
1339.404905
 20
64.810198
 30
0.0
  0
SPLINE
  5
1f5
100
AcDbEntity
  8
Ebene_1
 62
7
100
AcDbSpline
 70
8
 71
3
 72
8
 73
4
 74
0
 40
0
 40
0
 40
0
 40
0
 40
1
 40
1
 40
1
 40
1
 10
1339.404905
 20
64.810198
 30
0.0
 10
1331.704928
 20
61.942301
 30
0.0
 10
1324.504926
 20
59.185097
 30
0.0
 10
1323.404913
 20
58.682882
 30
0.0
  0
SPLINE
  5
1f6
100
AcDbEntity
  8
Ebene_1
 62
7
100
AcDbSpline
 70
8
 71
3
 72
8
 73
4
 74
0
 40
0
 40
0
 40
0
 40
0
 40
1
 40
1
 40
1
 40
1
 10
1323.404913
 20
58.682882
 30
0.0
 10
1322.304900
 20
58.180781
 30
0.0
 10
1318.479913
 20
56.865987
 30
0.0
 10
1314.904913
 20
55.761184
 30
0.0
  0
SPLINE
  5
1f7
100
AcDbEntity
  8
Ebene_1
 62
7
100
AcDbSpline
 70
8
 71
3
 72
8
 73
4
 74
0
 40
0
 40
0
 40
0
 40
0
 40
1
 40
1
 40
1
 40
1
 10
1314.904913
 20
55.761184
 30
0.0
 10
1311.329913
 20
54.656380
 30
0.0
 10
1307.504898
 20
53.331892
 30
0.0
 10
1306.404913
 20
52.817885
 30
0.0
  0
SPLINE
  5
1f8
100
AcDbEntity
  8
Ebene_1
 62
7
100
AcDbSpline
 70
8
 71
3
 72
8
 73
4
 74
0
 40
0
 40
0
 40
0
 40
0
 40
1
 40
1
 40
1
 40
1
 10
1306.404913
 20
52.817885
 30
0.0
 10
1303.921593
 20
51.657579
 30
0.0
 10
1285.957984
 20
45.765681
 30
0.0
 10
1275.904881
 20
42.814276
 30
0.0
  0
SPLINE
  5
1f9
100
AcDbEntity
  8
Ebene_1
 62
7
100
AcDbSpline
 70
8
 71
3
 72
8
 73
4
 74
0
 40
0
 40
0
 40
0
 40
0
 40
1
 40
1
 40
1
 40
1
 10
1275.904881
 20
42.814276
 30
0.0
 10
1271.779904
 20
41.603173
 30
0.0
 10
1267.279902
 20
40.248070
 30
0.0
 10
1265.904900
 20
39.802775
 30
0.0
  0
SPLINE
  5
1fa
100
AcDbEntity
  8
Ebene_1
 62
7
100
AcDbSpline
 70
8
 71
3
 72
8
 73
4
 74
0
 40
0
 40
0
 40
0
 40
0
 40
1
 40
1
 40
1
 40
1
 10
1265.904900
 20
39.802775
 30
0.0
 10
1264.529898
 20
39.357481
 30
0.0
 10
1261.604883
 20
38.516866
 30
0.0
 10
1259.404885
 20
37.934687
 30
0.0
  0
SPLINE
  5
1fb
100
AcDbEntity
  8
Ebene_1
 62
7
100
AcDbSpline
 70
8
 71
3
 72
8
 73
4
 74
0
 40
0
 40
0
 40
0
 40
0
 40
1
 40
1
 40
1
 40
1
 10
1259.404885
 20
37.934687
 30
0.0
 10
1257.204888
 20
37.352592
 30
0.0
 10
1251.129872
 20
35.682191
 30
0.0
 10
1245.904881
 20
34.222575
 30
0.0
  0
SPLINE
  5
1fc
100
AcDbEntity
  8
Ebene_1
 62
7
100
AcDbSpline
 70
8
 71
3
 72
8
 73
4
 74
0
 40
0
 40
0
 40
0
 40
0
 40
1
 40
1
 40
1
 40
1
 10
1245.904881
 20
34.222575
 30
0.0
 10
1240.679890
 20
32.763072
 30
0.0
 10
1234.829888
 20
31.130089
 30
0.0
 10
1232.904880
 20
30.593575
 30
0.0
  0
SPLINE
  5
1fd
100
AcDbEntity
  8
Ebene_1
 62
7
100
AcDbSpline
 70
8
 71
3
 72
8
 73
4
 74
0
 40
0
 40
0
 40
0
 40
0
 40
1
 40
1
 40
1
 40
1
 10
1232.904880
 20
30.593575
 30
0.0
 10
1230.979871
 20
30.057175
 30
0.0
 10
1227.297268
 20
29.232265
 30
0.0
 10
1224.721368
 20
28.760466
 30
0.0
  0
SPLINE
  5
1fe
100
AcDbEntity
  8
Ebene_1
 62
7
100
AcDbSpline
 70
8
 71
3
 72
8
 73
4
 74
0
 40
0
 40
0
 40
0
 40
0
 40
1
 40
1
 40
1
 40
1
 10
1224.721368
 20
28.760466
 30
0.0
 10
1222.145468
 20
28.288668
 30
0.0
 10
1219.137568
 20
27.420869
 30
0.0
 10
1218.037073
 20
26.831971
 30
0.0
  0
SPLINE
  5
1ff
100
AcDbEntity
  8
Ebene_1
 62
7
100
AcDbSpline
 70
8
 71
3
 72
8
 73
4
 74
0
 40
0
 40
0
 40
0
 40
0
 40
1
 40
1
 40
1
 40
1
 10
1218.037073
 20
26.831971
 30
0.0
 10
1216.936663
 20
26.242988
 30
0.0
 10
1215.052672
 20
25.761183
 30
0.0
 10
1213.850272
 20
25.761183
 30
0.0
  0
SPLINE
  5
200
100
AcDbEntity
  8
Ebene_1
 62
7
100
AcDbSpline
 70
8
 71
3
 72
8
 73
4
 74
0
 40
0
 40
0
 40
0
 40
0
 40
1
 40
1
 40
1
 40
1
 10
1213.850272
 20
25.761183
 30
0.0
 10
1212.647956
 20
25.761183
 30
0.0
 10
1207.105854
 20
24.662786
 30
0.0
 10
1201.534554
 20
23.320269
 30
0.0
  0
SPLINE
  5
201
100
AcDbEntity
  8
Ebene_1
 62
7
100
AcDbSpline
 70
8
 71
3
 72
8
 73
4
 74
0
 40
0
 40
0
 40
0
 40
0
 40
1
 40
1
 40
1
 40
1
 10
1201.534554
 20
23.320269
 30
0.0
 10
1185.672467
 20
19.498060
 30
0.0
 10
1164.421348
 20
15.397460
 30
0.0
 10
1146.904848
 20
12.778984
 30
0.0
  0
SPLINE
  5
202
100
AcDbEntity
  8
Ebene_1
 62
7
100
AcDbSpline
 70
8
 71
3
 72
8
 73
4
 74
0
 40
0
 40
0
 40
0
 40
0
 40
1
 40
1
 40
1
 40
1
 10
1146.904848
 20
12.778984
 30
0.0
 10
1143.329849
 20
12.244568
 30
0.0
 10
1135.904832
 20
11.118164
 30
0.0
 10
1130.404824
 20
10.275877
 30
0.0
  0
SPLINE
  5
203
100
AcDbEntity
  8
Ebene_1
 62
7
100
AcDbSpline
 70
8
 71
3
 72
8
 73
4
 74
0
 40
0
 40
0
 40
0
 40
0
 40
1
 40
1
 40
1
 40
1
 10
1130.404824
 20
10.275877
 30
0.0
 10
1099.701718
 20
5.573964
 30
0.0
 10
1077.401213
 20
3.430376
 30
0.0
 10
1031.904794
 20
0.807959
 30
0.0
  0
SPLINE
  5
204
100
AcDbEntity
  8
Ebene_1
 62
7
100
AcDbSpline
 70
8
 71
3
 72
8
 73
4
 74
0
 40
0
 40
0
 40
0
 40
0
 40
1
 40
1
 40
1
 40
1
 10
1031.904794
 20
0.807959
 30
0.0
 10
1012.807780
 20
-0.292847
 30
0.0
 10
959.604156
 20
-0.262432
 30
0.0
 10
939.904723
 20
0.860967
 30
0.0
  0
SPLINE
  5
205
100
AcDbEntity
  8
Ebene_1
 62
7
100
AcDbSpline
 70
8
 71
3
 72
8
 73
4
 74
0
 40
0
 40
0
 40
0
 40
0
 40
1
 40
1
 40
1
 40
1
 10
1063.404805
 20
28.057077
 30
0.0
 10
1087.301528
 20
30.240690
 30
0.0
 10
1098.185720
 20
31.430080
 30
0.0
 10
1111.404840
 20
33.302477
 30
0.0
  0
SPLINE
  5
206
100
AcDbEntity
  8
Ebene_1
 62
7
100
AcDbSpline
 70
8
 71
3
 72
8
 73
4
 74
0
 40
0
 40
0
 40
0
 40
0
 40
1
 40
1
 40
1
 40
1
 10
1111.404840
 20
33.302477
 30
0.0
 10
1117.454826
 20
34.159476
 30
0.0
 10
1125.622747
 20
35.261388
 30
0.0
 10
1129.555734
 20
35.751187
 30
0.0
  0
SPLINE
  5
207
100
AcDbEntity
  8
Ebene_1
 62
7
100
AcDbSpline
 70
8
 71
3
 72
8
 73
4
 74
0
 40
0
 40
0
 40
0
 40
0
 40
1
 40
1
 40
1
 40
1
 10
1129.555734
 20
35.751187
 30
0.0
 10
1137.329327
 20
36.719389
 30
0.0
 10
1142.590346
 20
37.625880
 30
0.0
 10
1159.404846
 20
40.894369
 30
0.0
  0
SPLINE
  5
208
100
AcDbEntity
  8
Ebene_1
 62
7
100
AcDbSpline
 70
8
 71
3
 72
8
 73
4
 74
0
 40
0
 40
0
 40
0
 40
0
 40
1
 40
1
 40
1
 40
1
 10
1159.404846
 20
40.894369
 30
0.0
 10
1165.454861
 20
42.070493
 30
0.0
 10
1173.329849
 20
43.417177
 30
0.0
 10
1176.904849
 20
43.887189
 30
0.0
  0
SPLINE
  5
209
100
AcDbEntity
  8
Ebene_1
 62
7
100
AcDbSpline
 70
8
 71
3
 72
8
 73
4
 74
0
 40
0
 40
0
 40
0
 40
0
 40
1
 40
1
 40
1
 40
1
 10
1176.904849
 20
43.887189
 30
0.0
 10
1180.479848
 20
44.357174
 30
0.0
 10
1184.079849
 20
45.001687
 30
0.0
 10
1184.904845
 20
45.319394
 30
0.0
  0
SPLINE
  5
20a
100
AcDbEntity
  8
Ebene_1
 62
7
100
AcDbSpline
 70
8
 71
3
 72
8
 73
4
 74
0
 40
0
 40
0
 40
0
 40
0
 40
1
 40
1
 40
1
 40
1
 10
1184.904845
 20
45.319394
 30
0.0
 10
1185.729869
 20
45.637187
 30
0.0
 10
1191.354857
 20
47.021175
 30
0.0
 10
1197.404871
 20
48.394986
 30
0.0
  0
SPLINE
  5
20b
100
AcDbEntity
  8
Ebene_1
 62
7
100
AcDbSpline
 70
8
 71
3
 72
8
 73
4
 74
0
 40
0
 40
0
 40
0
 40
0
 40
1
 40
1
 40
1
 40
1
 10
1197.404871
 20
48.394986
 30
0.0
 10
1203.454857
 20
49.768798
 30
0.0
 10
1209.979874
 20
51.297296
 30
0.0
 10
1211.904882
 20
51.791800
 30
0.0
  0
SPLINE
  5
20c
100
AcDbEntity
  8
Ebene_1
 62
7
100
AcDbSpline
 70
8
 71
3
 72
8
 73
4
 74
0
 40
0
 40
0
 40
0
 40
0
 40
1
 40
1
 40
1
 40
1
 10
1211.904882
 20
51.791800
 30
0.0
 10
1213.829862
 20
52.286191
 30
0.0
 10
1218.329864
 20
53.354200
 30
0.0
 10
1221.904863
 20
54.165193
 30
0.0
  0
SPLINE
  5
20d
100
AcDbEntity
  8
Ebene_1
 62
7
100
AcDbSpline
 70
8
 71
3
 72
8
 73
4
 74
0
 40
0
 40
0
 40
0
 40
0
 40
1
 40
1
 40
1
 40
1
 10
1221.904863
 20
54.165193
 30
0.0
 10
1225.479863
 20
54.976185
 30
0.0
 10
1229.979865
 20
56.088387
 30
0.0
 10
1231.904873
 20
56.636891
 30
0.0
  0
SPLINE
  5
20e
100
AcDbEntity
  8
Ebene_1
 62
7
100
AcDbSpline
 70
8
 71
3
 72
8
 73
4
 74
0
 40
0
 40
0
 40
0
 40
0
 40
1
 40
1
 40
1
 40
1
 10
1231.904873
 20
56.636891
 30
0.0
 10
1233.829882
 20
57.185282
 30
0.0
 10
1240.354870
 20
58.965893
 30
0.0
 10
1246.404884
 20
60.593689
 30
0.0
  0
SPLINE
  5
20f
100
AcDbEntity
  8
Ebene_1
 62
7
100
AcDbSpline
 70
8
 71
3
 72
8
 73
4
 74
0
 40
0
 40
0
 40
0
 40
0
 40
1
 40
1
 40
1
 40
1
 10
1246.404884
 20
60.593689
 30
0.0
 10
1252.454870
 20
62.221485
 30
0.0
 10
1260.104873
 20
64.443395
 30
0.0
 10
1263.404883
 20
65.531105
 30
0.0
  0
SPLINE
  5
210
100
AcDbEntity
  8
Ebene_1
 62
7
100
AcDbSpline
 70
8
 71
3
 72
8
 73
4
 74
0
 40
0
 40
0
 40
0
 40
0
 40
1
 40
1
 40
1
 40
1
 10
1263.404883
 20
65.531105
 30
0.0
 10
1266.704894
 20
66.618787
 30
0.0
 10
1271.429881
 20
68.062388
 30
0.0
 10
1273.904896
 20
68.739103
 30
0.0
  0
SPLINE
  5
211
100
AcDbEntity
  8
Ebene_1
 62
7
100
AcDbSpline
 70
8
 71
3
 72
8
 73
4
 74
0
 40
0
 40
0
 40
0
 40
0
 40
1
 40
1
 40
1
 40
1
 10
1273.904896
 20
68.739103
 30
0.0
 10
1276.379883
 20
69.415790
 30
0.0
 10
1279.529884
 20
70.417185
 30
0.0
 10
1280.904886
 20
70.964499
 30
0.0
  0
SPLINE
  5
212
100
AcDbEntity
  8
Ebene_1
 62
7
100
AcDbSpline
 70
8
 71
3
 72
8
 73
4
 74
0
 40
0
 40
0
 40
0
 40
0
 40
1
 40
1
 40
1
 40
1
 10
1280.904886
 20
70.964499
 30
0.0
 10
1282.279888
 20
71.511784
 30
0.0
 10
1288.579890
 20
73.676490
 30
0.0
 10
1294.904894
 20
75.775008
 30
0.0
  0
SPLINE
  5
213
100
AcDbEntity
  8
Ebene_1
 62
7
100
AcDbSpline
 70
8
 71
3
 72
8
 73
4
 74
0
 40
0
 40
0
 40
0
 40
0
 40
1
 40
1
 40
1
 40
1
 10
1294.904894
 20
75.775008
 30
0.0
 10
1301.229898
 20
77.873383
 30
0.0
 10
1310.904915
 20
81.248285
 30
0.0
 10
1316.404923
 20
83.274689
 30
0.0
  0
SPLINE
  5
214
100
AcDbEntity
  8
Ebene_1
 62
7
100
AcDbSpline
 70
8
 71
3
 72
8
 73
4
 74
0
 40
0
 40
0
 40
0
 40
0
 40
1
 40
1
 40
1
 40
1
 10
1316.404923
 20
83.274689
 30
0.0
 10
1321.904903
 20
85.301093
 30
0.0
 10
1329.486023
 20
88.057702
 30
0.0
 10
1333.251710
 20
89.400502
 30
0.0
  0
SPLINE
  5
215
100
AcDbEntity
  8
Ebene_1
 62
7
100
AcDbSpline
 70
8
 71
3
 72
8
 73
4
 74
0
 40
0
 40
0
 40
0
 40
0
 40
1
 40
1
 40
1
 40
1
 10
1333.251710
 20
89.400502
 30
0.0
 10
1337.017509
 20
90.743302
 30
0.0
 10
1341.967511
 20
92.683306
 30
0.0
 10
1344.251726
 20
93.711489
 30
0.0
  0
SPLINE
  5
216
100
AcDbEntity
  8
Ebene_1
 62
7
100
AcDbSpline
 70
8
 71
3
 72
8
 73
4
 74
0
 40
0
 40
0
 40
0
 40
0
 40
1
 40
1
 40
1
 40
1
 10
1344.251726
 20
93.711489
 30
0.0
 10
1346.536026
 20
94.739814
 30
0.0
 10
1351.352828
 20
96.725002
 30
0.0
 10
1354.955833
 20
98.123191
 30
0.0
  0
SPLINE
  5
217
100
AcDbEntity
  8
Ebene_1
 62
7
100
AcDbSpline
 70
8
 71
3
 72
8
 73
4
 74
0
 40
0
 40
0
 40
0
 40
0
 40
1
 40
1
 40
1
 40
1
 10
1354.955833
 20
98.123191
 30
0.0
 10
1358.558726
 20
99.521409
 30
0.0
 10
1364.271021
 20
102.037016
 30
0.0
 10
1367.649721
 20
103.713313
 30
0.0
  0
SPLINE
  5
218
100
AcDbEntity
  8
Ebene_1
 62
7
100
AcDbSpline
 70
8
 71
3
 72
8
 73
4
 74
0
 40
0
 40
0
 40
0
 40
0
 40
1
 40
1
 40
1
 40
1
 10
1367.649721
 20
103.713313
 30
0.0
 10
1371.028421
 20
105.389695
 30
0.0
 10
1374.198832
 20
106.761210
 30
0.0
 10
1374.695235
 20
106.761210
 30
0.0
  0
SPLINE
  5
219
100
AcDbEntity
  8
Ebene_1
 62
7
100
AcDbSpline
 70
8
 71
3
 72
8
 73
4
 74
0
 40
0
 40
0
 40
0
 40
0
 40
1
 40
1
 40
1
 40
1
 10
1374.695235
 20
106.761210
 30
0.0
 10
1375.191525
 20
106.761210
 30
0.0
 10
1376.904332
 20
107.388914
 30
0.0
 10
1378.501344
 20
108.156196
 30
0.0
  0
SPLINE
  5
21a
100
AcDbEntity
  8
Ebene_1
 62
7
100
AcDbSpline
 70
8
 71
3
 72
8
 73
4
 74
0
 40
0
 40
0
 40
0
 40
0
 40
1
 40
1
 40
1
 40
1
 10
1378.501344
 20
108.156196
 30
0.0
 10
1380.098327
 20
108.923422
 30
0.0
 10
1385.004930
 20
111.226317
 30
0.0
 10
1389.404925
 20
113.273612
 30
0.0
  0
SPLINE
  5
21b
100
AcDbEntity
  8
Ebene_1
 62
7
100
AcDbSpline
 70
8
 71
3
 72
8
 73
4
 74
0
 40
0
 40
0
 40
0
 40
0
 40
1
 40
1
 40
1
 40
1
 10
1389.404925
 20
113.273612
 30
0.0
 10
1405.679453
 20
120.846399
 30
0.0
 10
1447.048654
 20
141.845830
 30
0.0
 10
1449.401950
 20
143.728829
 30
0.0
  0
SPLINE
  5
21c
100
AcDbEntity
  8
Ebene_1
 62
7
100
AcDbSpline
 70
8
 71
3
 72
8
 73
4
 74
0
 40
0
 40
0
 40
0
 40
0
 40
1
 40
1
 40
1
 40
1
 10
1449.401950
 20
143.728829
 30
0.0
 10
1449.953572
 20
144.170211
 30
0.0
 10
1454.229976
 20
146.560414
 30
0.0
 10
1458.904961
 20
149.040333
 30
0.0
  0
SPLINE
  5
21d
100
AcDbEntity
  8
Ebene_1
 62
7
100
AcDbSpline
 70
8
 71
3
 72
8
 73
4
 74
0
 40
0
 40
0
 40
0
 40
0
 40
1
 40
1
 40
1
 40
1
 10
1458.904961
 20
149.040333
 30
0.0
 10
1468.912255
 20
154.348832
 30
0.0
 10
1481.459280
 20
161.739039
 30
0.0
 10
1491.859485
 20
168.450632
 30
0.0
  0
SPLINE
  5
21e
100
AcDbEntity
  8
Ebene_1
 62
7
100
AcDbSpline
 70
8
 71
3
 72
8
 73
4
 74
0
 40
0
 40
0
 40
0
 40
0
 40
1
 40
1
 40
1
 40
1
 10
1491.859485
 20
168.450632
 30
0.0
 10
1495.959376
 20
171.096434
 30
0.0
 10
1501.209595
 20
174.386240
 30
0.0
 10
1503.526579
 20
175.761242
 30
0.0
  0
SPLINE
  5
21f
100
AcDbEntity
  8
Ebene_1
 62
7
100
AcDbSpline
 70
8
 71
3
 72
8
 73
4
 74
0
 40
0
 40
0
 40
0
 40
0
 40
1
 40
1
 40
1
 40
1
 10
1503.526579
 20
175.761242
 30
0.0
 10
1510.138278
 20
179.685045
 30
0.0
 10
1528.493494
 20
191.852652
 30
0.0
 10
1534.451382
 20
196.261236
 30
0.0
  0
SPLINE
  5
220
100
AcDbEntity
  8
Ebene_1
 62
7
100
AcDbSpline
 70
8
 71
3
 72
8
 73
4
 74
0
 40
0
 40
0
 40
0
 40
0
 40
1
 40
1
 40
1
 40
1
 10
1534.451382
 20
196.261236
 30
0.0
 10
1537.424502
 20
198.461234
 30
0.0
 10
1541.330389
 20
201.267052
 30
0.0
 10
1543.130985
 20
202.496354
 30
0.0
  0
SPLINE
  5
221
100
AcDbEntity
  8
Ebene_1
 62
7
100
AcDbSpline
 70
8
 71
3
 72
8
 73
4
 74
0
 40
0
 40
0
 40
0
 40
0
 40
1
 40
1
 40
1
 40
1
 10
1543.130985
 20
202.496354
 30
0.0
 10
1556.783409
 20
211.816445
 30
0.0
 10
1597.542821
 20
243.443050
 30
0.0
 10
1601.310009
 20
247.639263
 30
0.0
  0
SPLINE
  5
222
100
AcDbEntity
  8
Ebene_1
 62
7
100
AcDbSpline
 70
8
 71
3
 72
8
 73
4
 74
0
 40
0
 40
0
 40
0
 40
0
 40
1
 40
1
 40
1
 40
1
 10
1601.310009
 20
247.639263
 30
0.0
 10
1602.357723
 20
248.806372
 30
0.0
 10
1603.614832
 20
249.761251
 30
0.0
 10
1604.103412
 20
249.761251
 30
0.0
  0
SPLINE
  5
223
100
AcDbEntity
  8
Ebene_1
 62
7
100
AcDbSpline
 70
8
 71
3
 72
8
 73
4
 74
0
 40
0
 40
0
 40
0
 40
0
 40
1
 40
1
 40
1
 40
1
 10
1604.103412
 20
249.761251
 30
0.0
 10
1605.863529
 20
249.761251
 30
0.0
 10
1640.842728
 20
281.534266
 30
0.0
 10
1661.263239
 20
301.681885
 30
0.0
  0
SPLINE
  5
224
100
AcDbEntity
  8
Ebene_1
 62
7
100
AcDbSpline
 70
8
 71
3
 72
8
 73
4
 74
0
 40
0
 40
0
 40
0
 40
0
 40
1
 40
1
 40
1
 40
1
 10
1661.263239
 20
301.681885
 30
0.0
 10
1679.414445
 20
319.590587
 30
0.0
 10
1696.469549
 20
337.719201
 30
0.0
 10
1717.004353
 20
360.931811
 30
0.0
  0
SPLINE
  5
225
100
AcDbEntity
  8
Ebene_1
 62
7
100
AcDbSpline
 70
8
 71
3
 72
8
 73
4
 74
0
 40
0
 40
0
 40
0
 40
0
 40
1
 40
1
 40
1
 40
1
 10
1717.004353
 20
360.931811
 30
0.0
 10
1729.601267
 20
375.171403
 30
0.0
 10
1758.229469
 20
411.928634
 30
0.0
 10
1772.948485
 20
432.761330
 30
0.0
  0
SPLINE
  5
226
100
AcDbEntity
  8
Ebene_1
 62
7
100
AcDbSpline
 70
8
 71
3
 72
8
 73
4
 74
0
 40
0
 40
0
 40
0
 40
0
 40
1
 40
1
 40
1
 40
1
 10
1772.948485
 20
432.761330
 30
0.0
 10
1780.362985
 20
443.255646
 30
0.0
 10
1796.905104
 20
467.898051
 30
0.0
 10
1796.905104
 20
468.449163
 30
0.0
  0
SPLINE
  5
227
100
AcDbEntity
  8
Ebene_1
 62
7
100
AcDbSpline
 70
8
 71
3
 72
8
 73
4
 74
0
 40
0
 40
0
 40
0
 40
0
 40
1
 40
1
 40
1
 40
1
 10
1796.905104
 20
468.449163
 30
0.0
 10
1796.905104
 20
468.609604
 30
0.0
 10
1799.030012
 20
472.007948
 30
0.0
 10
1801.627086
 20
476.001143
 30
0.0
  0
SPLINE
  5
228
100
AcDbEntity
  8
Ebene_1
 62
7
100
AcDbSpline
 70
8
 71
3
 72
8
 73
4
 74
0
 40
0
 40
0
 40
0
 40
0
 40
1
 40
1
 40
1
 40
1
 10
1801.627086
 20
476.001143
 30
0.0
 10
1807.949709
 20
485.722450
 30
0.0
 10
1808.037016
 20
485.861263
 30
0.0
 10
1810.905112
 20
490.761346
 30
0.0
  0
SPLINE
  5
229
100
AcDbEntity
  8
Ebene_1
 62
7
100
AcDbSpline
 70
8
 71
3
 72
8
 73
4
 74
0
 40
0
 40
0
 40
0
 40
0
 40
1
 40
1
 40
1
 40
1
 10
1810.905112
 20
490.761346
 30
0.0
 10
1812.280114
 20
493.110560
 30
0.0
 10
1813.857509
 20
495.759055
 30
0.0
 10
1814.410492
 20
496.646951
 30
0.0
  0
SPLINE
  5
22a
100
AcDbEntity
  8
Ebene_1
 62
7
100
AcDbSpline
 70
8
 71
3
 72
8
 73
4
 74
0
 40
0
 40
0
 40
0
 40
0
 40
1
 40
1
 40
1
 40
1
 10
1814.410492
 20
496.646951
 30
0.0
 10
1815.271715
 20
498.029664
 30
0.0
 10
1820.918898
 20
507.909059
 30
0.0
 10
1828.194698
 20
520.761375
 30
0.0
  0
SPLINE
  5
22b
100
AcDbEntity
  8
Ebene_1
 62
7
100
AcDbSpline
 70
8
 71
3
 72
8
 73
4
 74
0
 40
0
 40
0
 40
0
 40
0
 40
1
 40
1
 40
1
 40
1
 10
1828.194698
 20
520.761375
 30
0.0
 10
1838.189719
 20
538.416972
 30
0.0
 10
1858.922126
 20
580.230107
 30
0.0
 10
1866.374015
 20
597.761404
 30
0.0
  0
SPLINE
  5
22c
100
AcDbEntity
  8
Ebene_1
 62
7
100
AcDbSpline
 70
8
 71
3
 72
8
 73
4
 74
0
 40
0
 40
0
 40
0
 40
0
 40
1
 40
1
 40
1
 40
1
 10
1866.374015
 20
597.761404
 30
0.0
 10
1868.361216
 20
602.436416
 30
0.0
 10
1870.379115
 20
606.979504
 30
0.0
 10
1870.858227
 20
607.857196
 30
0.0
  0
SPLINE
  5
22d
100
AcDbEntity
  8
Ebene_1
 62
7
100
AcDbSpline
 70
8
 71
3
 72
8
 73
4
 74
0
 40
0
 40
0
 40
0
 40
0
 40
1
 40
1
 40
1
 40
1
 10
1870.858227
 20
607.857196
 30
0.0
 10
1875.375917
 20
616.132210
 30
0.0
 10
1899.420949
 20
680.522738
 30
0.0
 10
1903.870635
 20
696.261433
 30
0.0
  0
SPLINE
  5
22e
100
AcDbEntity
  8
Ebene_1
 62
7
100
AcDbSpline
 70
8
 71
3
 72
8
 73
4
 74
0
 40
0
 40
0
 40
0
 40
0
 40
1
 40
1
 40
1
 40
1
 10
1903.870635
 20
696.261433
 30
0.0
 10
1904.337133
 20
697.911453
 30
0.0
 10
1905.918327
 20
703.086440
 30
0.0
 10
1907.384435
 20
707.761453
 30
0.0
  0
SPLINE
  5
22f
100
AcDbEntity
  8
Ebene_1
 62
7
100
AcDbSpline
 70
8
 71
3
 72
8
 73
4
 74
0
 40
0
 40
0
 40
0
 40
0
 40
1
 40
1
 40
1
 40
1
 10
1907.384435
 20
707.761453
 30
0.0
 10
1908.850542
 20
712.436437
 30
0.0
 10
1911.396055
 20
721.211454
 30
0.0
 10
1913.041256
 20
727.261440
 30
0.0
  0
SPLINE
  5
230
100
AcDbEntity
  8
Ebene_1
 62
7
100
AcDbSpline
 70
8
 71
3
 72
8
 73
4
 74
0
 40
0
 40
0
 40
0
 40
0
 40
1
 40
1
 40
1
 40
1
 10
1913.041256
 20
727.261440
 30
0.0
 10
1914.686343
 20
733.311455
 30
0.0
 10
1916.487647
 20
739.836443
 30
0.0
 10
1917.044145
 20
741.761451
 30
0.0
  0
SPLINE
  5
231
100
AcDbEntity
  8
Ebene_1
 62
7
100
AcDbSpline
 70
8
 71
3
 72
8
 73
4
 74
0
 40
0
 40
0
 40
0
 40
0
 40
1
 40
1
 40
1
 40
1
 10
1917.044145
 20
741.761451
 30
0.0
 10
1917.600643
 20
743.686460
 30
0.0
 10
1918.401346
 20
747.061447
 30
0.0
 10
1918.823538
 20
749.261473
 30
0.0
  0
SPLINE
  5
232
100
AcDbEntity
  8
Ebene_1
 62
7
100
AcDbSpline
 70
8
 71
3
 72
8
 73
4
 74
0
 40
0
 40
0
 40
0
 40
0
 40
1
 40
1
 40
1
 40
1
 10
1918.823538
 20
749.261473
 30
0.0
 10
1919.531151
 20
752.949263
 30
0.0
 10
1920.719236
 20
757.628953
 30
0.0
 10
1922.885756
 20
765.261465
 30
0.0
  0
SPLINE
  5
233
100
AcDbEntity
  8
Ebene_1
 62
7
100
AcDbSpline
 70
8
 71
3
 72
8
 73
4
 74
0
 40
0
 40
0
 40
0
 40
0
 40
1
 40
1
 40
1
 40
1
 10
1922.885756
 20
765.261465
 30
0.0
 10
1923.354040
 20
766.911456
 30
0.0
 10
1924.480359
 20
772.086472
 30
0.0
 10
1925.388551
 20
776.761485
 30
0.0
  0
SPLINE
  5
234
100
AcDbEntity
  8
Ebene_1
 62
7
100
AcDbSpline
 70
8
 71
3
 72
8
 73
4
 74
0
 40
0
 40
0
 40
0
 40
0
 40
1
 40
1
 40
1
 40
1
 10
1925.388551
 20
776.761485
 30
0.0
 10
1926.296743
 20
781.436469
 30
0.0
 10
1927.684558
 20
787.450682
 30
0.0
 10
1928.472561
 20
790.126277
 30
0.0
  0
SPLINE
  5
235
100
AcDbEntity
  8
Ebene_1
 62
7
100
AcDbSpline
 70
8
 71
3
 72
8
 73
4
 74
0
 40
0
 40
0
 40
0
 40
0
 40
1
 40
1
 40
1
 40
1
 10
1928.472561
 20
790.126277
 30
0.0
 10
1929.260451
 20
792.801985
 30
0.0
 10
1929.909359
 20
795.951986
 30
0.0
 10
1929.914546
 20
797.126266
 30
0.0
  0
SPLINE
  5
236
100
AcDbEntity
  8
Ebene_1
 62
7
100
AcDbSpline
 70
8
 71
3
 72
8
 73
4
 74
0
 40
0
 40
0
 40
0
 40
0
 40
1
 40
1
 40
1
 40
1
 10
1929.914546
 20
797.126266
 30
0.0
 10
1929.925885
 20
798.300689
 30
0.0
 10
1930.858143
 20
803.761494
 30
0.0
 10
1931.999939
 20
809.261474
 30
0.0
  0
SPLINE
  5
237
100
AcDbEntity
  8
Ebene_1
 62
7
100
AcDbSpline
 70
8
 71
3
 72
8
 73
4
 74
0
 40
0
 40
0
 40
0
 40
0
 40
1
 40
1
 40
1
 40
1
 10
1931.999939
 20
809.261474
 30
0.0
 10
1933.141650
 20
814.761482
 30
0.0
 10
1934.436856
 20
821.736498
 30
0.0
 10
1934.878041
 20
824.761491
 30
0.0
  0
SPLINE
  5
238
100
AcDbEntity
  8
Ebene_1
 62
7
100
AcDbSpline
 70
8
 71
3
 72
8
 73
4
 74
0
 40
0
 40
0
 40
0
 40
0
 40
1
 40
1
 40
1
 40
1
 10
1934.878041
 20
824.761491
 30
0.0
 10
1935.319253
 20
827.786484
 30
0.0
 10
1936.396164
 20
834.761501
 30
0.0
 10
1937.271163
 20
840.261509
 30
0.0
  0
SPLINE
  5
239
100
AcDbEntity
  8
Ebene_1
 62
7
100
AcDbSpline
 70
8
 71
3
 72
8
 73
4
 74
0
 40
0
 40
0
 40
0
 40
0
 40
1
 40
1
 40
1
 40
1
 10
1937.271163
 20
840.261509
 30
0.0
 10
1944.764750
 20
887.364208
 30
0.0
 10
1947.077453
 20
918.540020
 30
0.0
 10
1947.619664
 20
979.761555
 30
0.0
  0
SPLINE
  5
23a
100
AcDbEntity
  8
Ebene_1
 62
7
100
AcDbSpline
 70
8
 71
3
 72
8
 73
4
 74
0
 40
0
 40
0
 40
0
 40
0
 40
1
 40
1
 40
1
 40
1
 10
1947.619664
 20
979.761555
 30
0.0
 10
1947.966851
 20
1018.970614
 30
0.0
 10
1947.725963
 20
1033.627438
 30
0.0
 10
1946.460860
 20
1050.261569
 30
0.0
  0
SPLINE
  5
23b
100
AcDbEntity
  8
Ebene_1
 62
7
100
AcDbSpline
 70
8
 71
3
 72
8
 73
4
 74
0
 40
0
 40
0
 40
0
 40
0
 40
1
 40
1
 40
1
 40
1
 10
1946.460860
 20
1050.261569
 30
0.0
 10
1943.992960
 20
1082.709599
 30
0.0
 10
1940.936049
 20
1110.400014
 30
0.0
 10
1937.334064
 20
1132.933896
 30
0.0
  0
SPLINE
  5
23c
100
AcDbEntity
  8
Ebene_1
 62
7
100
AcDbSpline
 70
8
 71
3
 72
8
 73
4
 74
0
 40
0
 40
0
 40
0
 40
0
 40
1
 40
1
 40
1
 40
1
 10
1937.334064
 20
1132.933896
 30
0.0
 10
1936.514057
 20
1138.064152
 30
0.0
 10
1935.428954
 20
1144.961613
 30
0.0
 10
1934.922857
 20
1148.261623
 30
0.0
  0
SPLINE
  5
23d
100
AcDbEntity
  8
Ebene_1
 62
7
100
AcDbSpline
 70
8
 71
3
 72
8
 73
4
 74
0
 40
0
 40
0
 40
0
 40
0
 40
1
 40
1
 40
1
 40
1
 10
1934.922857
 20
1148.261623
 30
0.0
 10
1933.163646
 20
1159.731511
 30
0.0
 10
1929.001251
 20
1181.856494
 30
0.0
 10
1928.001840
 20
1185.049355
 30
0.0
  0
SPLINE
  5
23e
100
AcDbEntity
  8
Ebene_1
 62
7
100
AcDbSpline
 70
8
 71
3
 72
8
 73
4
 74
0
 40
0
 40
0
 40
0
 40
0
 40
1
 40
1
 40
1
 40
1
 10
1928.001840
 20
1185.049355
 30
0.0
 10
1927.448857
 20
1186.816105
 30
0.0
 10
1926.051745
 20
1192.761635
 30
0.0
 10
1924.897137
 20
1198.261643
 30
0.0
  0
SPLINE
  5
23f
100
AcDbEntity
  8
Ebene_1
 62
7
100
AcDbSpline
 70
8
 71
3
 72
8
 73
4
 74
0
 40
0
 40
0
 40
0
 40
0
 40
1
 40
1
 40
1
 40
1
 10
1924.897137
 20
1198.261643
 30
0.0
 10
1921.379539
 20
1215.018543
 30
0.0
 10
1919.612250
 20
1222.528826
 30
0.0
 10
1916.425455
 20
1234.261655
 30
0.0
  0
SPLINE
  5
240
100
AcDbEntity
  8
Ebene_1
 62
7
100
AcDbSpline
 70
8
 71
3
 72
8
 73
4
 74
0
 40
0
 40
0
 40
0
 40
0
 40
1
 40
1
 40
1
 40
1
 10
1916.425455
 20
1234.261655
 30
0.0
 10
1915.529140
 20
1237.561666
 30
0.0
 10
1914.393552
 20
1241.836653
 30
0.0
 10
1913.901741
 20
1243.761661
 30
0.0
  0
SPLINE
  5
241
100
AcDbEntity
  8
Ebene_1
 62
7
100
AcDbSpline
 70
8
 71
3
 72
8
 73
4
 74
0
 40
0
 40
0
 40
0
 40
0
 40
1
 40
1
 40
1
 40
1
 10
1913.901741
 20
1243.761661
 30
0.0
 10
1912.749854
 20
1248.271301
 30
0.0
 10
1910.715145
 20
1255.139422
 30
0.0
 10
1907.384236
 20
1265.761665
 30
0.0
  0
SPLINE
  5
242
100
AcDbEntity
  8
Ebene_1
 62
7
100
AcDbSpline
 70
8
 71
3
 72
8
 73
4
 74
0
 40
0
 40
0
 40
0
 40
0
 40
1
 40
1
 40
1
 40
1
 10
1907.384236
 20
1265.761665
 30
0.0
 10
1905.918242
 20
1270.436678
 30
0.0
 10
1904.341527
 20
1275.611665
 30
0.0
 10
1903.880443
 20
1277.261657
 30
0.0
  0
SPLINE
  5
243
100
AcDbEntity
  8
Ebene_1
 62
7
100
AcDbSpline
 70
8
 71
3
 72
8
 73
4
 74
0
 40
0
 40
0
 40
0
 40
0
 40
1
 40
1
 40
1
 40
1
 10
1903.880443
 20
1277.261657
 30
0.0
 10
1903.419331
 20
1278.911676
 30
0.0
 10
1902.281050
 20
1282.286663
 30
0.0
 10
1901.350833
 20
1284.761678
 30
0.0
  0
SPLINE
  5
244
100
AcDbEntity
  8
Ebene_1
 62
7
100
AcDbSpline
 70
8
 71
3
 72
8
 73
4
 74
0
 40
0
 40
0
 40
0
 40
0
 40
1
 40
1
 40
1
 40
1
 10
1901.350833
 20
1284.761678
 30
0.0
 10
1900.420729
 20
1287.236665
 30
0.0
 10
1899.300448
 20
1290.611680
 30
0.0
 10
1898.861333
 20
1292.261671
 30
0.0
  0
SPLINE
  5
245
100
AcDbEntity
  8
Ebene_1
 62
7
100
AcDbSpline
 70
8
 71
3
 72
8
 73
4
 74
0
 40
0
 40
0
 40
0
 40
0
 40
1
 40
1
 40
1
 40
1
 10
1898.861333
 20
1292.261671
 30
0.0
 10
1898.168035
 20
1294.866484
 30
0.0
 10
1895.556532
 20
1302.300062
 30
0.0
 10
1887.970621
 20
1323.261678
 30
0.0
  0
SPLINE
  5
246
100
AcDbEntity
  8
Ebene_1
 62
7
100
AcDbSpline
 70
8
 71
3
 72
8
 73
4
 74
0
 40
0
 40
0
 40
0
 40
0
 40
1
 40
1
 40
1
 40
1
 10
1887.970621
 20
1323.261678
 30
0.0
 10
1882.353031
 20
1338.784486
 30
0.0
 10
1872.067941
 20
1363.983134
 30
0.0
 10
1870.848221
 20
1365.211698
 30
0.0
  0
SPLINE
  5
247
100
AcDbEntity
  8
Ebene_1
 62
7
100
AcDbSpline
 70
8
 71
3
 72
8
 73
4
 74
0
 40
0
 40
0
 40
0
 40
0
 40
1
 40
1
 40
1
 40
1
 10
1870.848221
 20
1365.211698
 30
0.0
 10
1870.329538
 20
1365.734209
 30
0.0
 10
1869.905134
 20
1366.713834
 30
0.0
 10
1869.905134
 20
1367.388678
 30
0.0
  0
SPLINE
  5
248
100
AcDbEntity
  8
Ebene_1
 62
7
100
AcDbSpline
 70
8
 71
3
 72
8
 73
4
 74
0
 40
0
 40
0
 40
0
 40
0
 40
1
 40
1
 40
1
 40
1
 10
1869.905134
 20
1367.388678
 30
0.0
 10
1869.905134
 20
1368.063494
 30
0.0
 10
1868.292135
 20
1372.136003
 30
0.0
 10
1866.320639
 20
1376.438685
 30
0.0
  0
SPLINE
  5
249
100
AcDbEntity
  8
Ebene_1
 62
7
100
AcDbSpline
 70
8
 71
3
 72
8
 73
4
 74
0
 40
0
 40
0
 40
0
 40
0
 40
1
 40
1
 40
1
 40
1
 10
1866.320639
 20
1376.438685
 30
0.0
 10
1864.349114
 20
1380.741338
 30
0.0
 10
1861.924215
 20
1386.061715
 30
0.0
 10
1860.931919
 20
1388.261712
 30
0.0
  0
SPLINE
  5
24a
100
AcDbEntity
  8
Ebene_1
 62
7
100
AcDbSpline
 70
8
 71
3
 72
8
 73
4
 74
0
 40
0
 40
0
 40
0
 40
0
 40
1
 40
1
 40
1
 40
1
 10
1860.931919
 20
1388.261712
 30
0.0
 10
1856.927215
 20
1397.140732
 30
0.0
 10
1839.556019
 20
1431.892848
 30
0.0
 10
1834.439311
 20
1441.261723
 30
0.0
  0
SPLINE
  5
24b
100
AcDbEntity
  8
Ebene_1
 62
7
100
AcDbSpline
 70
8
 71
3
 72
8
 73
4
 74
0
 40
0
 40
0
 40
0
 40
0
 40
1
 40
1
 40
1
 40
1
 10
1834.439311
 20
1441.261723
 30
0.0
 10
1831.435607
 20
1446.761731
 30
0.0
 10
1828.624119
 20
1451.936917
 30
0.0
 10
1828.191524
 20
1452.762083
 30
0.0
  0
SPLINE
  5
24c
100
AcDbEntity
  8
Ebene_1
 62
7
100
AcDbSpline
 70
8
 71
3
 72
8
 73
4
 74
0
 40
0
 40
0
 40
0
 40
0
 40
1
 40
1
 40
1
 40
1
 10
1828.191524
 20
1452.762083
 30
0.0
 10
1827.068210
 20
1454.905218
 30
0.0
 10
1815.621113
 20
1474.945234
 30
0.0
 10
1814.414517
 20
1476.881156
 30
0.0
  0
SPLINE
  5
24d
100
AcDbEntity
  8
Ebene_1
 62
7
100
AcDbSpline
 70
8
 71
3
 72
8
 73
4
 74
0
 40
0
 40
0
 40
0
 40
0
 40
1
 40
1
 40
1
 40
1
 10
1814.414517
 20
1476.881156
 30
0.0
 10
1813.859295
 20
1477.771858
 30
0.0
 10
1812.558703
 20
1480.021859
 30
0.0
 10
1811.524312
 20
1481.881160
 30
0.0
  0
SPLINE
  5
24e
100
AcDbEntity
  8
Ebene_1
 62
7
100
AcDbSpline
 70
8
 71
3
 72
8
 73
4
 74
0
 40
0
 40
0
 40
0
 40
0
 40
1
 40
1
 40
1
 40
1
 10
1811.524312
 20
1481.881160
 30
0.0
 10
1810.489808
 20
1483.740490
 30
0.0
 10
1806.777299
 20
1489.641034
 30
0.0
 10
1803.274300
 20
1494.993499
 30
0.0
  0
SPLINE
  5
24f
100
AcDbEntity
  8
Ebene_1
 62
7
100
AcDbSpline
 70
8
 71
3
 72
8
 73
4
 74
0
 40
0
 40
0
 40
0
 40
0
 40
1
 40
1
 40
1
 40
1
 10
1803.274300
 20
1494.993499
 30
0.0
 10
1799.771187
 20
1500.345963
 30
0.0
 10
1796.905104
 20
1504.879584
 30
0.0
 10
1796.905104
 20
1505.068258
 30
0.0
  0
SPLINE
  5
250
100
AcDbEntity
  8
Ebene_1
 62
7
100
AcDbSpline
 70
8
 71
3
 72
8
 73
4
 74
0
 40
0
 40
0
 40
0
 40
0
 40
1
 40
1
 40
1
 40
1
 10
1796.905104
 20
1505.068258
 30
0.0
 10
1796.905104
 20
1505.655710
 30
0.0
 10
1777.989394
 20
1533.820022
 30
0.0
 10
1771.589499
 20
1542.761773
 30
0.0
  0
SPLINE
  5
251
100
AcDbEntity
  8
Ebene_1
 62
7
100
AcDbSpline
 70
8
 71
3
 72
8
 73
4
 74
0
 40
0
 40
0
 40
0
 40
0
 40
1
 40
1
 40
1
 40
1
 10
1771.589499
 20
1542.761773
 30
0.0
 10
1760.991577
 20
1557.568663
 30
0.0
 10
1744.820967
 20
1578.916244
 30
0.0
 10
1736.471685
 20
1589.122503
 30
0.0
  0
SPLINE
  5
252
100
AcDbEntity
  8
Ebene_1
 62
7
100
AcDbSpline
 70
8
 71
3
 72
8
 73
4
 74
0
 40
0
 40
0
 40
0
 40
0
 40
1
 40
1
 40
1
 40
1
 10
1736.471685
 20
1589.122503
 30
0.0
 10
1732.035067
 20
1594.545919
 30
0.0
 10
1727.055074
 20
1600.679754
 30
0.0
 10
1725.405083
 20
1602.753270
 30
0.0
  0
SPLINE
  5
253
100
AcDbEntity
  8
Ebene_1
 62
7
100
AcDbSpline
 70
8
 71
3
 72
8
 73
4
 74
0
 40
0
 40
0
 40
0
 40
0
 40
1
 40
1
 40
1
 40
1
 10
1725.405083
 20
1602.753270
 30
0.0
 10
1717.259471
 20
1612.989689
 30
0.0
 10
1696.814668
 20
1635.826225
 30
0.0
 10
1683.354547
 20
1649.723052
 30
0.0
  0
SPLINE
  5
254
100
AcDbEntity
  8
Ebene_1
 62
7
100
AcDbSpline
 70
8
 71
3
 72
8
 73
4
 74
0
 40
0
 40
0
 40
0
 40
0
 40
1
 40
1
 40
1
 40
1
 10
1683.354547
 20
1649.723052
 30
0.0
 10
1644.940635
 20
1689.383386
 30
0.0
 10
1615.184329
 20
1716.395329
 30
0.0
 10
1579.405023
 20
1744.085461
 30
0.0
  0
SPLINE
  5
255
100
AcDbEntity
  8
Ebene_1
 62
7
100
AcDbSpline
 70
8
 71
3
 72
8
 73
4
 74
0
 40
0
 40
0
 40
0
 40
0
 40
1
 40
1
 40
1
 40
1
 10
1579.405023
 20
1744.085461
 30
0.0
 10
1573.905014
 20
1748.341995
 30
0.0
 10
1566.929998
 20
1753.746135
 30
0.0
 10
1563.905005
 20
1756.094648
 30
0.0
  0
SPLINE
  5
256
100
AcDbEntity
  8
Ebene_1
 62
7
100
AcDbSpline
 70
8
 71
3
 72
8
 73
4
 74
0
 40
0
 40
0
 40
0
 40
0
 40
1
 40
1
 40
1
 40
1
 10
1563.905005
 20
1756.094648
 30
0.0
 10
1550.586191
 20
1766.434901
 30
0.0
 10
1506.776671
 20
1796.761878
 30
0.0
 10
1505.158286
 20
1796.761878
 30
0.0
  0
SPLINE
  5
257
100
AcDbEntity
  8
Ebene_1
 62
7
100
AcDbSpline
 70
8
 71
3
 72
8
 73
4
 74
0
 40
0
 40
0
 40
0
 40
0
 40
1
 40
1
 40
1
 40
1
 10
1505.158286
 20
1796.761878
 30
0.0
 10
1504.847779
 20
1796.761878
 30
0.0
 10
1503.201275
 20
1797.821072
 30
0.0
 10
1501.499381
 20
1799.115626
 30
0.0
  0
SPLINE
  5
258
100
AcDbEntity
  8
Ebene_1
 62
7
100
AcDbSpline
 70
8
 71
3
 72
8
 73
4
 74
0
 40
0
 40
0
 40
0
 40
0
 40
1
 40
1
 40
1
 40
1
 10
1501.499381
 20
1799.115626
 30
0.0
 10
1498.406867
 20
1801.467930
 30
0.0
 10
1477.002677
 20
1814.761884
 30
0.0
 10
1476.307763
 20
1814.761884
 30
0.0
  0
SPLINE
  5
259
100
AcDbEntity
  8
Ebene_1
 62
7
100
AcDbSpline
 70
8
 71
3
 72
8
 73
4
 74
0
 40
0
 40
0
 40
0
 40
0
 40
1
 40
1
 40
1
 40
1
 10
1476.307763
 20
1814.761884
 30
0.0
 10
1476.105653
 20
1814.761884
 30
0.0
 10
1473.119778
 20
1816.486372
 30
0.0
 10
1469.672564
 20
1818.594074
 30
0.0
  0
SPLINE
  5
25a
100
AcDbEntity
  8
Ebene_1
 62
7
100
AcDbSpline
 70
8
 71
3
 72
8
 73
4
 74
0
 40
0
 40
0
 40
0
 40
0
 40
1
 40
1
 40
1
 40
1
 10
1469.672564
 20
1818.594074
 30
0.0
 10
1466.225379
 20
1820.701747
 30
0.0
 10
1461.379976
 20
1823.552806
 30
0.0
 10
1458.904961
 20
1824.929764
 30
0.0
  0
SPLINE
  5
25b
100
AcDbEntity
  8
Ebene_1
 62
7
100
AcDbSpline
 70
8
 71
3
 72
8
 73
4
 74
0
 40
0
 40
0
 40
0
 40
0
 40
1
 40
1
 40
1
 40
1
 10
1458.904961
 20
1824.929764
 30
0.0
 10
1446.224764
 20
1831.984405
 30
0.0
 10
1442.701951
 20
1833.927989
 30
0.0
 10
1438.733445
 20
1836.058980
 30
0.0
  0
SPLINE
  5
25c
100
AcDbEntity
  8
Ebene_1
 62
7
100
AcDbSpline
 70
8
 71
3
 72
8
 73
4
 74
0
 40
0
 40
0
 40
0
 40
0
 40
1
 40
1
 40
1
 40
1
 10
1438.733445
 20
1836.058980
 30
0.0
 10
1436.352767
 20
1837.337349
 30
0.0
 10
1433.504968
 20
1838.882212
 30
0.0
 10
1432.404955
 20
1839.492012
 30
0.0
  0
SPLINE
  5
25d
100
AcDbEntity
  8
Ebene_1
 62
7
100
AcDbSpline
 70
8
 71
3
 72
8
 73
4
 74
0
 40
0
 40
0
 40
0
 40
0
 40
1
 40
1
 40
1
 40
1
 10
1432.404955
 20
1839.492012
 30
0.0
 10
1431.304942
 20
1840.101813
 30
0.0
 10
1427.479955
 20
1842.054332
 30
0.0
 10
1423.904955
 20
1843.830952
 30
0.0
  0
SPLINE
  5
25e
100
AcDbEntity
  8
Ebene_1
 62
7
100
AcDbSpline
 70
8
 71
3
 72
8
 73
4
 74
0
 40
0
 40
0
 40
0
 40
0
 40
1
 40
1
 40
1
 40
1
 10
1423.904955
 20
1843.830952
 30
0.0
 10
1420.329956
 20
1845.607573
 30
0.0
 10
1416.729955
 20
1847.427333
 30
0.0
 10
1415.904959
 20
1847.874876
 30
0.0
  0
SPLINE
  5
25f
100
AcDbEntity
  8
Ebene_1
 62
7
100
AcDbSpline
 70
8
 71
3
 72
8
 73
4
 74
0
 40
0
 40
0
 40
0
 40
0
 40
1
 40
1
 40
1
 40
1
 10
1415.904959
 20
1847.874876
 30
0.0
 10
1414.110146
 20
1848.848495
 30
0.0
 10
1387.680241
 20
1861.374889
 30
0.0
 10
1383.404942
 20
1863.278181
 30
0.0
  0
SPLINE
  5
260
100
AcDbEntity
  8
Ebene_1
 62
7
100
AcDbSpline
 70
8
 71
3
 72
8
 73
4
 74
0
 40
0
 40
0
 40
0
 40
0
 40
1
 40
1
 40
1
 40
1
 10
1383.404942
 20
1863.278181
 30
0.0
 10
1381.754923
 20
1864.012732
 30
0.0
 10
1378.829936
 20
1865.280352
 30
0.0
 10
1376.904927
 20
1866.095103
 30
0.0
  0
SPLINE
  5
261
100
AcDbEntity
  8
Ebene_1
 62
7
100
AcDbSpline
 70
8
 71
3
 72
8
 73
4
 74
0
 40
0
 40
0
 40
0
 40
0
 40
1
 40
1
 40
1
 40
1
 10
1376.904927
 20
1866.095103
 30
0.0
 10
1374.979919
 20
1866.909862
 30
0.0
 10
1369.884528
 20
1869.193204
 30
0.0
 10
1365.581931
 20
1871.169205
 30
0.0
  0
SPLINE
  5
262
100
AcDbEntity
  8
Ebene_1
 62
7
100
AcDbSpline
 70
8
 71
3
 72
8
 73
4
 74
0
 40
0
 40
0
 40
0
 40
0
 40
1
 40
1
 40
1
 40
1
 10
1365.581931
 20
1871.169205
 30
0.0
 10
1361.279221
 20
1873.145201
 30
0.0
 10
1357.454234
 20
1874.761023
 30
0.0
 10
1357.081932
 20
1874.759923
 30
0.0
  0
SPLINE
  5
263
100
AcDbEntity
  8
Ebene_1
 62
7
100
AcDbSpline
 70
8
 71
3
 72
8
 73
4
 74
0
 40
0
 40
0
 40
0
 40
0
 40
1
 40
1
 40
1
 40
1
 10
1357.081932
 20
1874.759923
 30
0.0
 10
1356.709516
 20
1874.758922
 30
0.0
 10
1351.904932
 20
1876.597494
 30
0.0
 10
1346.404924
 20
1878.845853
 30
0.0
  0
SPLINE
  5
264
100
AcDbEntity
  8
Ebene_1
 62
7
100
AcDbSpline
 70
8
 71
3
 72
8
 73
4
 74
0
 40
0
 40
0
 40
0
 40
0
 40
1
 40
1
 40
1
 40
1
 10
1346.404924
 20
1878.845853
 30
0.0
 10
1328.275204
 20
1886.257156
 30
0.0
 10
1302.751309
 20
1895.761930
 30
0.0
 10
1300.978890
 20
1895.761930
 30
0.0
  0
SPLINE
  5
265
100
AcDbEntity
  8
Ebene_1
 62
7
100
AcDbSpline
 70
8
 71
3
 72
8
 73
4
 74
0
 40
0
 40
0
 40
0
 40
0
 40
1
 40
1
 40
1
 40
1
 10
1300.978890
 20
1895.761930
 30
0.0
 10
1300.419614
 20
1895.761930
 30
0.0
 10
1297.418092
 20
1896.886931
 30
0.0
 10
1294.308994
 20
1898.261933
 30
0.0
  0
SPLINE
  5
266
100
AcDbEntity
  8
Ebene_1
 62
7
100
AcDbSpline
 70
8
 71
3
 72
8
 73
4
 74
0
 40
0
 40
0
 40
0
 40
0
 40
1
 40
1
 40
1
 40
1
 10
1294.308994
 20
1898.261933
 30
0.0
 10
1291.199897
 20
1899.636932
 30
0.0
 10
1287.827292
 20
1900.761932
 30
0.0
 10
1286.814387
 20
1900.761932
 30
0.0
  0
SPLINE
  5
267
100
AcDbEntity
  8
Ebene_1
 62
7
100
AcDbSpline
 70
8
 71
3
 72
8
 73
4
 74
0
 40
0
 40
0
 40
0
 40
0
 40
1
 40
1
 40
1
 40
1
 10
1286.814387
 20
1900.761932
 30
0.0
 10
1285.801483
 20
1900.761932
 30
0.0
 10
1283.494988
 20
1901.389940
 30
0.0
 10
1281.688808
 20
1902.157502
 30
0.0
  0
SPLINE
  5
268
100
AcDbEntity
  8
Ebene_1
 62
7
100
AcDbSpline
 70
8
 71
3
 72
8
 73
4
 74
0
 40
0
 40
0
 40
0
 40
0
 40
1
 40
1
 40
1
 40
1
 10
1281.688808
 20
1902.157502
 30
0.0
 10
1278.235386
 20
1903.625124
 30
0.0
 10
1265.532286
 20
1907.690438
 30
0.0
 10
1257.904875
 20
1909.768968
 30
0.0
  0
SPLINE
  5
269
100
AcDbEntity
  8
Ebene_1
 62
7
100
AcDbSpline
 70
8
 71
3
 72
8
 73
4
 74
0
 40
0
 40
0
 40
0
 40
0
 40
1
 40
1
 40
1
 40
1
 10
1257.904875
 20
1909.768968
 30
0.0
 10
1255.429889
 20
1910.443430
 30
0.0
 10
1252.054873
 20
1911.442498
 30
0.0
 10
1250.404882
 20
1911.989120
 30
0.0
  0
SPLINE
  5
26a
100
AcDbEntity
  8
Ebene_1
 62
7
100
AcDbSpline
 70
8
 71
3
 72
8
 73
4
 74
0
 40
0
 40
0
 40
0
 40
0
 40
1
 40
1
 40
1
 40
1
 10
1250.404882
 20
1911.989120
 30
0.0
 10
1248.754891
 20
1912.535742
 30
0.0
 10
1245.829876
 20
1913.347840
 30
0.0
 10
1243.904868
 20
1913.793783
 30
0.0
  0
SPLINE
  5
26b
100
AcDbEntity
  8
Ebene_1
 62
7
100
AcDbSpline
 70
8
 71
3
 72
8
 73
4
 74
0
 40
0
 40
0
 40
0
 40
0
 40
1
 40
1
 40
1
 40
1
 10
1243.904868
 20
1913.793783
 30
0.0
 10
1241.979887
 20
1914.239724
 30
0.0
 10
1235.229885
 20
1916.026348
 30
0.0
 10
1228.904882
 20
1917.764057
 30
0.0
  0
SPLINE
  5
26c
100
AcDbEntity
  8
Ebene_1
 62
7
100
AcDbSpline
 70
8
 71
3
 72
8
 73
4
 74
0
 40
0
 40
0
 40
0
 40
0
 40
1
 40
1
 40
1
 40
1
 10
1228.904882
 20
1917.764057
 30
0.0
 10
1222.579878
 20
1919.501767
 30
0.0
 10
1215.379876
 20
1921.310317
 30
0.0
 10
1212.904861
 20
1921.783056
 30
0.0
  0
SPLINE
  5
26d
100
AcDbEntity
  8
Ebene_1
 62
7
100
AcDbSpline
 70
8
 71
3
 72
8
 73
4
 74
0
 40
0
 40
0
 40
0
 40
0
 40
1
 40
1
 40
1
 40
1
 10
1212.904861
 20
1921.783056
 30
0.0
 10
1210.429874
 20
1922.255796
 30
0.0
 10
1205.704858
 20
1923.385768
 30
0.0
 10
1202.404876
 20
1924.294105
 30
0.0
  0
SPLINE
  5
26e
100
AcDbEntity
  8
Ebene_1
 62
7
100
AcDbSpline
 70
8
 71
3
 72
8
 73
4
 74
0
 40
0
 40
0
 40
0
 40
0
 40
1
 40
1
 40
1
 40
1
 10
1202.404876
 20
1924.294105
 30
0.0
 10
1199.104865
 20
1925.202442
 30
0.0
 10
1194.379850
 20
1926.304834
 30
0.0
 10
1191.904863
 20
1926.743861
 30
0.0
  0
SPLINE
  5
26f
100
AcDbEntity
  8
Ebene_1
 62
7
100
AcDbSpline
 70
8
 71
3
 72
8
 73
4
 74
0
 40
0
 40
0
 40
0
 40
0
 40
1
 40
1
 40
1
 40
1
 10
1191.904863
 20
1926.743861
 30
0.0
 10
1183.911160
 20
1928.161839
 30
0.0
 10
1160.514043
 20
1932.719242
 30
0.0
 10
1156.713633
 20
1933.598600
 30
0.0
  0
SPLINE
  5
270
100
AcDbEntity
  8
Ebene_1
 62
7
100
AcDbSpline
 70
8
 71
3
 72
8
 73
4
 74
0
 40
0
 40
0
 40
0
 40
0
 40
1
 40
1
 40
1
 40
1
 10
1156.713633
 20
1933.598600
 30
0.0
 10
1154.683544
 20
1934.068347
 30
0.0
 10
1152.529552
 20
1934.148037
 30
0.0
 10
1151.927048
 20
1933.775681
 30
0.0
  0
SPLINE
  5
271
100
AcDbEntity
  8
Ebene_1
 62
7
100
AcDbSpline
 70
8
 71
3
 72
8
 73
4
 74
0
 40
0
 40
0
 40
0
 40
0
 40
1
 40
1
 40
1
 40
1
 10
1151.927048
 20
1933.775681
 30
0.0
 10
1150.746134
 20
1933.045824
 30
0.0
 10
1153.722854
 20
1931.602955
 30
0.0
 10
1166.404864
 20
1926.757929
 30
0.0
  0
SPLINE
  5
272
100
AcDbEntity
  8
Ebene_1
 62
7
100
AcDbSpline
 70
8
 71
3
 72
8
 73
4
 74
0
 40
0
 40
0
 40
0
 40
0
 40
1
 40
1
 40
1
 40
1
 10
1166.404864
 20
1926.757929
 30
0.0
 10
1175.243150
 20
1923.381369
 30
0.0
 10
1175.081661
 20
1923.450135
 30
0.0
 10
1186.404855
 20
1918.242316
 30
0.0
  0
SPLINE
  5
273
100
AcDbEntity
  8
Ebene_1
 62
7
100
AcDbSpline
 70
8
 71
3
 72
8
 73
4
 74
0
 40
0
 40
0
 40
0
 40
0
 40
1
 40
1
 40
1
 40
1
 10
1186.404855
 20
1918.242316
 30
0.0
 10
1201.412353
 20
1911.340042
 30
0.0
 10
1213.395566
 20
1905.311415
 30
0.0
 10
1222.904870
 20
1899.879614
 30
0.0
  0
SPLINE
  5
274
100
AcDbEntity
  8
Ebene_1
 62
7
100
AcDbSpline
 70
8
 71
3
 72
8
 73
4
 74
0
 40
0
 40
0
 40
0
 40
0
 40
1
 40
1
 40
1
 40
1
 10
1222.904870
 20
1899.879614
 30
0.0
 10
1228.129861
 20
1896.895040
 30
0.0
 10
1234.429863
 20
1893.322966
 30
0.0
 10
1236.904878
 20
1891.941674
 30
0.0
  0
SPLINE
  5
275
100
AcDbEntity
  8
Ebene_1
 62
7
100
AcDbSpline
 70
8
 71
3
 72
8
 73
4
 74
0
 40
0
 40
0
 40
0
 40
0
 40
1
 40
1
 40
1
 40
1
 10
1236.904878
 20
1891.941674
 30
0.0
 10
1244.403680
 20
1887.756636
 30
0.0
 10
1246.282881
 20
1886.569191
 30
0.0
 10
1258.554690
 20
1878.261919
 30
0.0
  0
SPLINE
  5
276
100
AcDbEntity
  8
Ebene_1
 62
7
100
AcDbSpline
 70
8
 71
3
 72
8
 73
4
 74
0
 40
0
 40
0
 40
0
 40
0
 40
1
 40
1
 40
1
 40
1
 10
1258.554690
 20
1878.261919
 30
0.0
 10
1265.054478
 20
1873.861915
 30
0.0
 10
1272.736002
 20
1868.349418
 30
0.0
 10
1275.624591
 20
1866.011917
 30
0.0
  0
SPLINE
  5
277
100
AcDbEntity
  8
Ebene_1
 62
7
100
AcDbSpline
 70
8
 71
3
 72
8
 73
4
 74
0
 40
0
 40
0
 40
0
 40
0
 40
1
 40
1
 40
1
 40
1
 10
1275.624591
 20
1866.011917
 30
0.0
 10
1278.513181
 20
1863.674417
 30
0.0
 10
1281.125790
 20
1861.761915
 30
0.0
 10
1281.430288
 20
1861.761915
 30
0.0
  0
SPLINE
  5
278
100
AcDbEntity
  8
Ebene_1
 62
7
100
AcDbSpline
 70
8
 71
3
 72
8
 73
4
 74
0
 40
0
 40
0
 40
0
 40
0
 40
1
 40
1
 40
1
 40
1
 10
1281.430288
 20
1861.761915
 30
0.0
 10
1281.954584
 20
1861.761915
 30
0.0
 10
1290.427513
 20
1854.966711
 30
0.0
 10
1304.904904
 20
1842.935337
 30
0.0
  0
SPLINE
  5
279
100
AcDbEntity
  8
Ebene_1
 62
7
100
AcDbSpline
 70
8
 71
3
 72
8
 73
4
 74
0
 40
0
 40
0
 40
0
 40
0
 40
1
 40
1
 40
1
 40
1
 10
1304.904904
 20
1842.935337
 30
0.0
 10
1321.273315
 20
1829.332480
 30
0.0
 10
1352.150015
 20
1797.100051
 30
0.0
 10
1368.485630
 20
1776.562895
 30
0.0
  0
SPLINE
  5
27a
100
AcDbEntity
  8
Ebene_1
 62
7
100
AcDbSpline
 70
8
 71
3
 72
8
 73
4
 74
0
 40
0
 40
0
 40
0
 40
0
 40
1
 40
1
 40
1
 40
1
 10
1368.485630
 20
1776.562895
 30
0.0
 10
1378.897939
 20
1763.472553
 30
0.0
 10
1395.904940
 20
1739.750238
 30
0.0
 10
1395.904940
 20
1738.316984
 30
0.0
  0
SPLINE
  5
27b
100
AcDbEntity
  8
Ebene_1
 62
7
100
AcDbSpline
 70
8
 71
3
 72
8
 73
4
 74
0
 40
0
 40
0
 40
0
 40
0
 40
1
 40
1
 40
1
 40
1
 10
1395.904940
 20
1738.316984
 30
0.0
 10
1395.904940
 20
1738.014215
 30
0.0
 10
1397.421249
 20
1735.627953
 30
0.0
 10
1399.274428
 20
1733.014154
 30
0.0
  0
SPLINE
  5
27c
100
AcDbEntity
  8
Ebene_1
 62
7
100
AcDbSpline
 70
8
 71
3
 72
8
 73
4
 74
0
 40
0
 40
0
 40
0
 40
0
 40
1
 40
1
 40
1
 40
1
 10
1399.274428
 20
1733.014154
 30
0.0
 10
1401.127635
 20
1730.400383
 30
0.0
 10
1404.112234
 20
1725.561839
 30
0.0
 10
1405.906849
 20
1722.261857
 30
0.0
  0
SPLINE
  5
27d
100
AcDbEntity
  8
Ebene_1
 62
7
100
AcDbSpline
 70
8
 71
3
 72
8
 73
4
 74
0
 40
0
 40
0
 40
0
 40
0
 40
1
 40
1
 40
1
 40
1
 10
1405.906849
 20
1722.261857
 30
0.0
 10
1407.701435
 20
1718.961847
 30
0.0
 10
1409.500642
 20
1715.811846
 30
0.0
 10
1409.904948
 20
1715.261839
 30
0.0
  0
SPLINE
  5
27e
100
AcDbEntity
  8
Ebene_1
 62
7
100
AcDbSpline
 70
8
 71
3
 72
8
 73
4
 74
0
 40
0
 40
0
 40
0
 40
0
 40
1
 40
1
 40
1
 40
1
 10
1409.904948
 20
1715.261839
 30
0.0
 10
1413.991856
 20
1709.702644
 30
0.0
 10
1434.904943
 20
1667.146037
 30
0.0
 10
1434.904943
 20
1664.388805
 30
0.0
  0
SPLINE
  5
27f
100
AcDbEntity
  8
Ebene_1
 62
7
100
AcDbSpline
 70
8
 71
3
 72
8
 73
4
 74
0
 40
0
 40
0
 40
0
 40
0
 40
1
 40
1
 40
1
 40
1
 10
1434.904943
 20
1664.388805
 30
0.0
 10
1434.904943
 20
1663.713961
 30
0.0
 10
1435.341365
 20
1662.725463
 30
0.0
 10
1435.874648
 20
1662.192096
 30
0.0
  0
SPLINE
  5
280
100
AcDbEntity
  8
Ebene_1
 62
7
100
AcDbSpline
 70
8
 71
3
 72
8
 73
4
 74
0
 40
0
 40
0
 40
0
 40
0
 40
1
 40
1
 40
1
 40
1
 10
1435.874648
 20
1662.192096
 30
0.0
 10
1437.368563
 20
1660.698208
 30
0.0
 10
1449.335562
 20
1628.147196
 30
0.0
 10
1452.392757
 20
1617.261813
 30
0.0
  0
SPLINE
  5
281
100
AcDbEntity
  8
Ebene_1
 62
7
100
AcDbSpline
 70
8
 71
3
 72
8
 73
4
 74
0
 40
0
 40
0
 40
0
 40
0
 40
1
 40
1
 40
1
 40
1
 10
1452.392757
 20
1617.261813
 30
0.0
 10
1453.165056
 20
1614.511809
 30
0.0
 10
1455.208667
 20
1607.311807
 30
0.0
 10
1456.934059
 20
1601.261792
 30
0.0
  0
SPLINE
  5
282
100
AcDbEntity
  8
Ebene_1
 62
7
100
AcDbSpline
 70
8
 71
3
 72
8
 73
4
 74
0
 40
0
 40
0
 40
0
 40
0
 40
1
 40
1
 40
1
 40
1
 10
1456.934059
 20
1601.261792
 30
0.0
 10
1460.633670
 20
1588.289599
 30
0.0
 10
1467.486173
 20
1555.008268
 30
0.0
 10
1468.965858
 20
1542.826034
 30
0.0
  0
SPLINE
  5
283
100
AcDbEntity
  8
Ebene_1
 62
7
100
AcDbSpline
 70
8
 71
3
 72
8
 73
4
 74
0
 40
0
 40
0
 40
0
 40
0
 40
1
 40
1
 40
1
 40
1
 10
1468.965858
 20
1542.826034
 30
0.0
 10
1473.136672
 20
1508.488259
 30
0.0
 10
1473.783766
 20
1497.996920
 30
0.0
 10
1473.442077
 20
1470.261746
 30
0.0
  0
SPLINE
  5
284
100
AcDbEntity
  8
Ebene_1
 62
7
100
AcDbSpline
 70
8
 71
3
 72
8
 73
4
 74
0
 40
0
 40
0
 40
0
 40
0
 40
1
 40
1
 40
1
 40
1
 10
1473.442077
 20
1470.261746
 30
0.0
 10
1473.130663
 20
1444.983189
 30
0.0
 10
1472.313378
 20
1432.881459
 30
0.0
 10
1468.984766
 20
1404.261705
 30
0.0
  0
SPLINE
  5
285
100
AcDbEntity
  8
Ebene_1
 62
7
100
AcDbSpline
 70
8
 71
3
 72
8
 73
4
 74
0
 40
0
 40
0
 40
0
 40
0
 40
1
 40
1
 40
1
 40
1
 10
1468.984766
 20
1404.261705
 30
0.0
 10
1468.409077
 20
1399.311703
 30
0.0
 10
1467.519764
 20
1393.686716
 30
0.0
 10
1467.008563
 20
1391.761707
 30
0.0
  0
SPLINE
  5
286
100
AcDbEntity
  8
Ebene_1
 62
7
100
AcDbSpline
 70
8
 71
3
 72
8
 73
4
 74
0
 40
0
 40
0
 40
0
 40
0
 40
1
 40
1
 40
1
 40
1
 10
1467.008563
 20
1391.761707
 30
0.0
 10
1466.497363
 20
1389.836698
 30
0.0
 10
1465.300972
 20
1383.986697
 30
0.0
 10
1464.349863
 20
1378.761706
 30
0.0
  0
SPLINE
  5
287
100
AcDbEntity
  8
Ebene_1
 62
7
100
AcDbSpline
 70
8
 71
3
 72
8
 73
4
 74
0
 40
0
 40
0
 40
0
 40
0
 40
1
 40
1
 40
1
 40
1
 10
1464.349863
 20
1378.761706
 30
0.0
 10
1461.384568
 20
1362.470510
 30
0.0
 10
1455.069967
 20
1337.928792
 30
0.0
 10
1450.712974
 20
1325.761695
 30
0.0
  0
SPLINE
  5
288
100
AcDbEntity
  8
Ebene_1
 62
7
100
AcDbSpline
 70
8
 71
3
 72
8
 73
4
 74
0
 40
0
 40
0
 40
0
 40
0
 40
1
 40
1
 40
1
 40
1
 10
1450.712974
 20
1325.761695
 30
0.0
 10
1449.629770
 20
1322.736673
 30
0.0
 10
1448.369373
 20
1318.911686
 30
0.0
 10
1447.912059
 20
1317.261695
 30
0.0
  0
SPLINE
  5
289
100
AcDbEntity
  8
Ebene_1
 62
7
100
AcDbSpline
 70
8
 71
3
 72
8
 73
4
 74
0
 40
0
 40
0
 40
0
 40
0
 40
1
 40
1
 40
1
 40
1
 10
1447.912059
 20
1317.261695
 30
0.0
 10
1446.758755
 20
1313.100490
 30
0.0
 10
1445.228159
 20
1308.853084
 30
0.0
 10
1440.704857
 20
1297.261676
 30
0.0
  0
SPLINE
  5
28a
100
AcDbEntity
  8
Ebene_1
 62
7
100
AcDbSpline
 70
8
 71
3
 72
8
 73
4
 74
0
 40
0
 40
0
 40
0
 40
0
 40
1
 40
1
 40
1
 40
1
 10
1440.704857
 20
1297.261676
 30
0.0
 10
1436.942346
 20
1287.620277
 30
0.0
 10
1436.204345
 20
1285.798308
 30
0.0
 10
1433.413551
 20
1279.261670
 30
0.0
  0
SPLINE
  5
28b
100
AcDbEntity
  8
Ebene_1
 62
7
100
AcDbSpline
 70
8
 71
3
 72
8
 73
4
 74
0
 40
0
 40
0
 40
0
 40
0
 40
1
 40
1
 40
1
 40
1
 10
1433.413551
 20
1279.261670
 30
0.0
 10
1429.970362
 20
1271.197185
 30
0.0
 10
1415.121860
 20
1241.644662
 30
0.0
 10
1412.209345
 20
1237.059678
 30
0.0
  0
SPLINE
  5
28c
100
AcDbEntity
  8
Ebene_1
 62
7
100
AcDbSpline
 70
8
 71
3
 72
8
 73
4
 74
0
 40
0
 40
0
 40
0
 40
0
 40
1
 40
1
 40
1
 40
1
 10
1412.209345
 20
1237.059678
 30
0.0
 10
1410.391940
 20
1234.198612
 30
0.0
 10
1408.904941
 20
1231.548133
 30
0.0
 10
1408.904941
 20
1231.169707
 30
0.0
  0
SPLINE
  5
28d
100
AcDbEntity
  8
Ebene_1
 62
7
100
AcDbSpline
 70
8
 71
3
 72
8
 73
4
 74
0
 40
0
 40
0
 40
0
 40
0
 40
1
 40
1
 40
1
 40
1
 10
1408.904941
 20
1231.169707
 30
0.0
 10
1408.904941
 20
1229.349524
 30
0.0
 10
1385.603522
 20
1193.647207
 30
0.0
 10
1377.797529
 20
1183.506996
 30
0.0
  0
SPLINE
  5
28e
100
AcDbEntity
  8
Ebene_1
 62
7
100
AcDbSpline
 70
8
 71
3
 72
8
 73
4
 74
0
 40
0
 40
0
 40
0
 40
0
 40
1
 40
1
 40
1
 40
1
 10
1377.797529
 20
1183.506996
 30
0.0
 10
1349.807010
 20
1147.146785
 30
0.0
 10
1321.914399
 20
1118.481563
 30
0.0
 10
1288.404908
 20
1091.638282
 30
0.0
  0
SPLINE
  5
28f
100
AcDbEntity
  8
Ebene_1
 62
7
100
AcDbSpline
 70
8
 71
3
 72
8
 73
4
 74
0
 40
0
 40
0
 40
0
 40
0
 40
1
 40
1
 40
1
 40
1
 10
1288.404908
 20
1091.638282
 30
0.0
 10
1281.568987
 20
1086.162283
 30
0.0
 10
1256.238188
 20
1067.761572
 30
0.0
 10
1255.535678
 20
1067.761572
 30
0.0
  0
SPLINE
  5
290
100
AcDbEntity
  8
Ebene_1
 62
7
100
AcDbSpline
 70
8
 71
3
 72
8
 73
4
 74
0
 40
0
 40
0
 40
0
 40
0
 40
1
 40
1
 40
1
 40
1
 10
1255.535678
 20
1067.761572
 30
0.0
 10
1255.341221
 20
1067.761572
 30
0.0
 10
1251.857185
 20
1065.578979
 30
0.0
 10
1247.793493
 20
1062.911350
 30
0.0
  0
SPLINE
  5
291
100
AcDbEntity
  8
Ebene_1
 62
7
100
AcDbSpline
 70
8
 71
3
 72
8
 73
4
 74
0
 40
0
 40
0
 40
0
 40
0
 40
1
 40
1
 40
1
 40
1
 10
1247.793493
 20
1062.911350
 30
0.0
 10
1243.729771
 20
1060.243749
 30
0.0
 10
1237.704872
 20
1056.576283
 30
0.0
 10
1234.404890
 20
1054.761457
 30
0.0
  0
SPLINE
  5
292
100
AcDbEntity
  8
Ebene_1
 62
7
100
AcDbSpline
 70
8
 71
3
 72
8
 73
4
 74
0
 40
0
 40
0
 40
0
 40
0
 40
1
 40
1
 40
1
 40
1
 10
1234.404890
 20
1054.761457
 30
0.0
 10
1231.104879
 20
1052.946603
 30
0.0
 10
1226.154877
 20
1050.043046
 30
0.0
 10
1223.404873
 20
1048.309093
 30
0.0
  0
SPLINE
  5
293
100
AcDbEntity
  8
Ebene_1
 62
7
100
AcDbSpline
 70
8
 71
3
 72
8
 73
4
 74
0
 40
0
 40
0
 40
0
 40
0
 40
1
 40
1
 40
1
 40
1
 10
1223.404873
 20
1048.309093
 30
0.0
 10
1214.492263
 20
1042.689434
 30
0.0
 10
1183.582454
 20
1027.941306
 30
0.0
 10
1168.904852
 20
1022.305264
 30
0.0
  0
SPLINE
  5
294
100
AcDbEntity
  8
Ebene_1
 62
7
100
AcDbSpline
 70
8
 71
3
 72
8
 73
4
 74
0
 40
0
 40
0
 40
0
 40
0
 40
1
 40
1
 40
1
 40
1
 10
1168.904852
 20
1022.305264
 30
0.0
 10
1164.743052
 20
1020.707175
 30
0.0
 10
1162.596346
 20
1019.827357
 30
0.0
 10
1155.904851
 20
1016.977092
 30
0.0
  0
SPLINE
  5
295
100
AcDbEntity
  8
Ebene_1
 62
7
100
AcDbSpline
 70
8
 71
3
 72
8
 73
4
 74
0
 40
0
 40
0
 40
0
 40
0
 40
1
 40
1
 40
1
 40
1
 10
1155.904851
 20
1016.977092
 30
0.0
 10
1154.529849
 20
1016.391397
 30
0.0
 10
1152.279848
 20
1015.694783
 30
0.0
 10
1150.904846
 20
1015.429006
 30
0.0
  0
SPLINE
  5
296
100
AcDbEntity
  8
Ebene_1
 62
7
100
AcDbSpline
 70
8
 71
3
 72
8
 73
4
 74
0
 40
0
 40
0
 40
0
 40
0
 40
1
 40
1
 40
1
 40
1
 10
1150.904846
 20
1015.429006
 30
0.0
 10
1149.529844
 20
1015.163400
 30
0.0
 10
1144.579843
 20
1013.502666
 30
0.0
 10
1139.904830
 20
1011.738807
 30
0.0
  0
SPLINE
  5
297
100
AcDbEntity
  8
Ebene_1
 62
7
100
AcDbSpline
 70
8
 71
3
 72
8
 73
4
 74
0
 40
0
 40
0
 40
0
 40
0
 40
1
 40
1
 40
1
 40
1
 10
1139.904830
 20
1011.738807
 30
0.0
 10
1135.229846
 20
1009.974919
 30
0.0
 10
1129.604830
 20
1008.157429
 30
0.0
 10
1127.404832
 20
1007.699889
 30
0.0
  0
SPLINE
  5
298
100
AcDbEntity
  8
Ebene_1
 62
7
100
AcDbSpline
 70
8
 71
3
 72
8
 73
4
 74
0
 40
0
 40
0
 40
0
 40
0
 40
1
 40
1
 40
1
 40
1
 10
1127.404832
 20
1007.699889
 30
0.0
 10
1125.204835
 20
1007.242348
 30
0.0
 10
1120.704833
 20
1005.986033
 30
0.0
 10
1117.404823
 20
1004.908074
 30
0.0
  0
SPLINE
  5
299
100
AcDbEntity
  8
Ebene_1
 62
7
100
AcDbSpline
 70
8
 71
3
 72
8
 73
4
 74
0
 40
0
 40
0
 40
0
 40
0
 40
1
 40
1
 40
1
 40
1
 10
1117.404823
 20
1004.908074
 30
0.0
 10
1114.104840
 20
1003.830143
 30
0.0
 10
1108.029824
 20
1002.195317
 30
0.0
 10
1103.904818
 20
1001.275162
 30
0.0
  0
SPLINE
  5
29a
100
AcDbEntity
  8
Ebene_1
 62
7
100
AcDbSpline
 70
8
 71
3
 72
8
 73
4
 74
0
 40
0
 40
0
 40
0
 40
0
 40
1
 40
1
 40
1
 40
1
 10
1103.904818
 20
1001.275162
 30
0.0
 10
1099.779812
 20
1000.355036
 30
0.0
 10
1091.846430
 20
998.513026
 30
0.0
 10
1086.275130
 20
997.181876
 30
0.0
  0
SPLINE
  5
29b
100
AcDbEntity
  8
Ebene_1
 62
7
100
AcDbSpline
 70
8
 71
3
 72
8
 73
4
 74
0
 40
0
 40
0
 40
0
 40
0
 40
1
 40
1
 40
1
 40
1
 10
1086.275130
 20
997.181876
 30
0.0
 10
1080.703803
 20
995.850697
 30
0.0
 10
1074.850824
 20
994.761570
 30
0.0
 10
1073.268525
 20
994.761570
 30
0.0
  0
SPLINE
  5
29c
100
AcDbEntity
  8
Ebene_1
 62
7
100
AcDbSpline
 70
8
 71
3
 72
8
 73
4
 74
0
 40
0
 40
0
 40
0
 40
0
 40
1
 40
1
 40
1
 40
1
 10
1073.268525
 20
994.761570
 30
0.0
 10
1071.686225
 20
994.761570
 30
0.0
 10
1068.819603
 20
994.303236
 30
0.0
 10
1066.898223
 20
993.743053
 30
0.0
  0
SPLINE
  5
29d
100
AcDbEntity
  8
Ebene_1
 62
7
100
AcDbSpline
 70
8
 71
3
 72
8
 73
4
 74
0
 40
0
 40
0
 40
0
 40
0
 40
1
 40
1
 40
1
 40
1
 10
1066.898223
 20
993.743053
 30
0.0
 10
1057.565518
 20
991.022047
 30
0.0
 10
1009.098588
 20
986.853331
 30
0.0
 10
986.404776
 20
986.819683
 30
0.0
  0
SPLINE
  5
29e
100
AcDbEntity
  8
Ebene_1
 62
7
100
AcDbSpline
 70
8
 71
3
 72
8
 73
4
 74
0
 40
0
 40
0
 40
0
 40
0
 40
1
 40
1
 40
1
 40
1
 10
986.404776
 20
986.819683
 30
0.0
 10
965.997220
 20
986.789353
 30
0.0
 10
948.316934
 20
985.758165
 30
0.0
 10
930.904720
 20
983.582460
 30
0.0
  0
SPLINE
  5
29f
100
AcDbEntity
  8
Ebene_1
 62
7
100
AcDbSpline
 70
8
 71
3
 72
8
 73
4
 74
0
 40
0
 40
0
 40
0
 40
0
 40
1
 40
1
 40
1
 40
1
 10
930.904720
 20
983.582460
 30
0.0
 10
926.229736
 20
982.998240
 30
0.0
 10
919.254719
 20
982.166441
 30
0.0
 10
915.404731
 20
981.733959
 30
0.0
  0
SPLINE
  5
2a0
100
AcDbEntity
  8
Ebene_1
 62
7
100
AcDbSpline
 70
8
 71
3
 72
8
 73
4
 74
0
 40
0
 40
0
 40
0
 40
0
 40
1
 40
1
 40
1
 40
1
 10
915.404731
 20
981.733959
 30
0.0
 10
911.554714
 20
981.301449
 30
0.0
 10
904.804711
 20
980.175754
 30
0.0
 10
900.404716
 20
979.232440
 30
0.0
  0
SPLINE
  5
2a1
100
AcDbEntity
  8
Ebene_1
 62
7
100
AcDbSpline
 70
8
 71
3
 72
8
 73
4
 74
0
 40
0
 40
0
 40
0
 40
0
 40
1
 40
1
 40
1
 40
1
 10
900.404716
 20
979.232440
 30
0.0
 10
896.004721
 20
978.289240
 30
0.0
 10
890.379705
 20
977.193337
 30
0.0
 10
887.904719
 20
976.797138
 30
0.0
  0
SPLINE
  5
2a2
100
AcDbEntity
  8
Ebene_1
 62
7
100
AcDbSpline
 70
8
 71
3
 72
8
 73
4
 74
0
 40
0
 40
0
 40
0
 40
0
 40
1
 40
1
 40
1
 40
1
 10
887.904719
 20
976.797138
 30
0.0
 10
881.028575
 20
975.696559
 30
0.0
 10
860.626744
 20
970.736947
 30
0.0
 10
858.668258
 20
969.689942
 30
0.0
  0
SPLINE
  5
2a3
100
AcDbEntity
  8
Ebene_1
 62
7
100
AcDbSpline
 70
8
 71
3
 72
8
 73
4
 74
0
 40
0
 40
0
 40
0
 40
0
 40
1
 40
1
 40
1
 40
1
 10
858.668258
 20
969.689942
 30
0.0
 10
857.713238
 20
969.179337
 30
0.0
 10
856.313461
 20
968.761539
 30
0.0
 10
855.557687
 20
968.761539
 30
0.0
  0
SPLINE
  5
2a4
100
AcDbEntity
  8
Ebene_1
 62
7
100
AcDbSpline
 70
8
 71
3
 72
8
 73
4
 74
0
 40
0
 40
0
 40
0
 40
0
 40
1
 40
1
 40
1
 40
1
 10
855.557687
 20
968.761539
 30
0.0
 10
853.900893
 20
968.761539
 30
0.0
 10
815.656096
 20
956.298845
 30
0.0
 10
811.404693
 20
954.373553
 30
0.0
  0
SPLINE
  5
2a5
100
AcDbEntity
  8
Ebene_1
 62
7
100
AcDbSpline
 70
8
 71
3
 72
8
 73
4
 74
0
 40
0
 40
0
 40
0
 40
0
 40
1
 40
1
 40
1
 40
1
 10
811.404693
 20
954.373553
 30
0.0
 10
809.754674
 20
953.626340
 30
0.0
 10
806.252496
 20
952.216245
 30
0.0
 10
803.622029
 20
951.239936
 30
0.0
  0
SPLINE
  5
2a6
100
AcDbEntity
  8
Ebene_1
 62
7
100
AcDbSpline
 70
8
 71
3
 72
8
 73
4
 74
0
 40
0
 40
0
 40
0
 40
0
 40
1
 40
1
 40
1
 40
1
 10
803.622029
 20
951.239936
 30
0.0
 10
800.991562
 20
950.263627
 30
0.0
 10
798.602494
 20
949.081636
 30
0.0
 10
798.313020
 20
948.613239
 30
0.0
  0
SPLINE
  5
2a7
100
AcDbEntity
  8
Ebene_1
 62
7
100
AcDbSpline
 70
8
 71
3
 72
8
 73
4
 74
0
 40
0
 40
0
 40
0
 40
0
 40
1
 40
1
 40
1
 40
1
 10
798.313020
 20
948.613239
 30
0.0
 10
798.023517
 20
948.144842
 30
0.0
 10
797.119435
 20
947.761541
 30
0.0
 10
796.303964
 20
947.761541
 30
0.0
  0
SPLINE
  5
2a8
100
AcDbEntity
  8
Ebene_1
 62
7
100
AcDbSpline
 70
8
 71
3
 72
8
 73
4
 74
0
 40
0
 40
0
 40
0
 40
0
 40
1
 40
1
 40
1
 40
1
 10
796.303964
 20
947.761541
 30
0.0
 10
794.086420
 20
947.761541
 30
0.0
 10
765.612168
 20
934.285036
 30
0.0
 10
753.904652
 20
927.694426
 30
0.0
  0
SPLINE
  5
2a9
100
AcDbEntity
  8
Ebene_1
 62
7
100
AcDbSpline
 70
8
 71
3
 72
8
 73
4
 74
0
 40
0
 40
0
 40
0
 40
0
 40
1
 40
1
 40
1
 40
1
 10
753.904652
 20
927.694426
 30
0.0
 10
696.380318
 20
895.312019
 30
0.0
 10
654.370714
 20
860.761503
 30
0.0
 10
612.319412
 20
811.248986
 30
0.0
  0
SPLINE
  5
2aa
100
AcDbEntity
  8
Ebene_1
 62
7
100
AcDbSpline
 70
8
 71
3
 72
8
 73
4
 74
0
 40
0
 40
0
 40
0
 40
0
 40
1
 40
1
 40
1
 40
1
 10
612.319412
 20
811.248986
 30
0.0
 10
599.151089
 20
795.744178
 30
0.0
 10
574.114924
 20
760.270361
 30
0.0
 10
567.512068
 20
747.761463
 30
0.0
  0
SPLINE
  5
2ab
100
AcDbEntity
  8
Ebene_1
 62
7
100
AcDbSpline
 70
8
 71
3
 72
8
 73
4
 74
0
 40
0
 40
0
 40
0
 40
0
 40
1
 40
1
 40
1
 40
1
 10
567.512068
 20
747.761463
 30
0.0
 10
565.915340
 20
744.736470
 30
0.0
 10
563.161537
 20
739.985744
 30
0.0
 10
561.392519
 20
737.204247
 30
0.0
  0
SPLINE
  5
2ac
100
AcDbEntity
  8
Ebene_1
 62
7
100
AcDbSpline
 70
8
 71
3
 72
8
 73
4
 74
0
 40
0
 40
0
 40
0
 40
0
 40
1
 40
1
 40
1
 40
1
 10
561.392519
 20
737.204247
 30
0.0
 10
556.079598
 20
728.850742
 30
0.0
 10
533.904583
 20
682.330336
 30
0.0
 10
533.904583
 20
679.538124
 30
0.0
  0
SPLINE
  5
2ad
100
AcDbEntity
  8
Ebene_1
 62
7
100
AcDbSpline
 70
8
 71
3
 72
8
 73
4
 74
0
 40
0
 40
0
 40
0
 40
0
 40
1
 40
1
 40
1
 40
1
 10
533.904583
 20
679.538124
 30
0.0
 10
533.904583
 20
679.002234
 30
0.0
 10
533.278834
 20
677.145739
 30
0.0
 10
532.514018
 20
675.412522
 30
0.0
  0
SPLINE
  5
2ae
100
AcDbEntity
  8
Ebene_1
 62
7
100
AcDbSpline
 70
8
 71
3
 72
8
 73
4
 74
0
 40
0
 40
0
 40
0
 40
0
 40
1
 40
1
 40
1
 40
1
 10
532.514018
 20
675.412522
 30
0.0
 10
529.379410
 20
668.309238
 30
0.0
 10
524.620605
 20
654.404730
 30
0.0
 10
519.456842
 20
637.261411
 30
0.0
  0
SPLINE
  5
2af
100
AcDbEntity
  8
Ebene_1
 62
7
100
AcDbSpline
 70
8
 71
3
 72
8
 73
4
 74
0
 40
0
 40
0
 40
0
 40
0
 40
1
 40
1
 40
1
 40
1
 10
519.456842
 20
637.261411
 30
0.0
 10
514.380359
 20
620.407821
 30
0.0
 10
507.904580
 20
593.391399
 30
0.0
 10
507.904580
 20
589.066295
 30
0.0
  0
SPLINE
  5
2b0
100
AcDbEntity
  8
Ebene_1
 62
7
100
AcDbSpline
 70
8
 71
3
 72
8
 73
4
 74
0
 40
0
 40
0
 40
0
 40
0
 40
1
 40
1
 40
1
 40
1
 10
507.904580
 20
589.066295
 30
0.0
 10
507.904580
 20
587.516282
 30
0.0
 10
507.471503
 20
584.738102
 30
0.0
 10
506.942190
 20
582.892492
 30
0.0
  0
SPLINE
  5
2b1
100
AcDbEntity
  8
Ebene_1
 62
7
100
AcDbSpline
 70
8
 71
3
 72
8
 73
4
 74
0
 40
0
 40
0
 40
0
 40
0
 40
1
 40
1
 40
1
 40
1
 10
506.942190
 20
582.892492
 30
0.0
 10
505.614044
 20
578.261501
 30
0.0
 10
504.176170
 20
567.573891
 30
0.0
 10
501.879482
 20
545.261368
 30
0.0
  0
SPLINE
  5
2b2
100
AcDbEntity
  8
Ebene_1
 62
7
100
AcDbSpline
 70
8
 71
3
 72
8
 73
4
 74
0
 40
0
 40
0
 40
0
 40
0
 40
1
 40
1
 40
1
 40
1
 10
501.879482
 20
545.261368
 30
0.0
 10
499.644930
 20
523.552878
 30
0.0
 10
499.177979
 20
480.674767
 30
0.0
 10
500.975542
 20
462.261356
 30
0.0
  0
SPLINE
  5
2b3
100
AcDbEntity
  8
Ebene_1
 62
7
100
AcDbSpline
 70
8
 71
3
 72
8
 73
4
 74
0
 40
0
 40
0
 40
0
 40
0
 40
1
 40
1
 40
1
 40
1
 10
500.975542
 20
462.261356
 30
0.0
 10
502.796349
 20
443.610033
 30
0.0
 10
505.803852
 20
420.438044
 30
0.0
 10
506.880111
 20
416.767942
 30
0.0
  0
SPLINE
  5
2b4
100
AcDbEntity
  8
Ebene_1
 62
7
100
AcDbSpline
 70
8
 71
3
 72
8
 73
4
 74
0
 40
0
 40
0
 40
0
 40
0
 40
1
 40
1
 40
1
 40
1
 10
506.880111
 20
416.767942
 30
0.0
 10
507.443582
 20
414.846534
 30
0.0
 10
507.904580
 20
412.006416
 30
0.0
 10
507.904580
 20
410.456432
 30
0.0
  0
SPLINE
  5
2b5
100
AcDbEntity
  8
Ebene_1
 62
7
100
AcDbSpline
 70
8
 71
3
 72
8
 73
4
 74
0
 40
0
 40
0
 40
0
 40
0
 40
1
 40
1
 40
1
 40
1
 10
507.904580
 20
410.456432
 30
0.0
 10
507.904580
 20
402.756114
 30
0.0
 10
523.657534
 20
345.051015
 30
0.0
 10
529.797123
 20
330.261303
 30
0.0
  0
SPLINE
  5
2b6
100
AcDbEntity
  8
Ebene_1
 62
7
100
AcDbSpline
 70
8
 71
3
 72
8
 73
4
 74
0
 40
0
 40
0
 40
0
 40
0
 40
1
 40
1
 40
1
 40
1
 10
529.797123
 20
330.261303
 30
0.0
 10
530.253756
 20
329.161290
 30
0.0
 10
531.364739
 20
326.558489
 30
0.0
 10
532.265987
 20
324.477405
 30
0.0
  0
SPLINE
  5
2b7
100
AcDbEntity
  8
Ebene_1
 62
7
100
AcDbSpline
 70
8
 71
3
 72
8
 73
4
 74
0
 40
0
 40
0
 40
0
 40
0
 40
1
 40
1
 40
1
 40
1
 10
532.265987
 20
324.477405
 30
0.0
 10
533.167234
 20
322.396179
 30
0.0
 10
533.904583
 20
320.291596
 30
0.0
 10
533.904583
 20
319.800380
 30
0.0
  0
SPLINE
  5
2b8
100
AcDbEntity
  8
Ebene_1
 62
7
100
AcDbSpline
 70
8
 71
3
 72
8
 73
4
 74
0
 40
0
 40
0
 40
0
 40
0
 40
1
 40
1
 40
1
 40
1
 10
533.904583
 20
319.800380
 30
0.0
 10
533.904583
 20
319.309192
 30
0.0
 10
535.409582
 20
315.611991
 30
0.0
 10
537.249012
 20
311.584298
 30
0.0
  0
SPLINE
  5
2b9
100
AcDbEntity
  8
Ebene_1
 62
7
100
AcDbSpline
 70
8
 71
3
 72
8
 73
4
 74
0
 40
0
 40
0
 40
0
 40
0
 40
1
 40
1
 40
1
 40
1
 10
537.249012
 20
311.584298
 30
0.0
 10
539.088443
 20
307.556691
 30
0.0
 10
542.059011
 20
300.886285
 30
0.0
 10
543.850309
 20
296.761279
 30
0.0
  0
SPLINE
  5
2ba
100
AcDbEntity
  8
Ebene_1
 62
7
100
AcDbSpline
 70
8
 71
3
 72
8
 73
4
 74
0
 40
0
 40
0
 40
0
 40
0
 40
1
 40
1
 40
1
 40
1
 10
543.850309
 20
296.761279
 30
0.0
 10
545.641579
 20
292.636273
 30
0.0
 10
547.593545
 20
288.361286
 30
0.0
 10
548.188027
 20
287.261273
 30
0.0
  0
SPLINE
  5
2bb
100
AcDbEntity
  8
Ebene_1
 62
7
100
AcDbSpline
 70
8
 71
3
 72
8
 73
4
 74
0
 40
0
 40
0
 40
0
 40
0
 40
1
 40
1
 40
1
 40
1
 10
548.188027
 20
287.261273
 30
0.0
 10
548.782480
 20
286.161288
 30
0.0
 10
551.573275
 20
280.761286
 30
0.0
 10
554.389752
 20
275.261278
 30
0.0
  0
SPLINE
  5
2bc
100
AcDbEntity
  8
Ebene_1
 62
7
100
AcDbSpline
 70
8
 71
3
 72
8
 73
4
 74
0
 40
0
 40
0
 40
0
 40
0
 40
1
 40
1
 40
1
 40
1
 10
554.389752
 20
275.261278
 30
0.0
 10
557.206257
 20
269.761270
 30
0.0
 10
560.627703
 20
263.461268
 30
0.0
 10
561.993039
 20
261.261271
 30
0.0
  0
SPLINE
  5
2bd
100
AcDbEntity
  8
Ebene_1
 62
7
100
AcDbSpline
 70
8
 71
3
 72
8
 73
4
 74
0
 40
0
 40
0
 40
0
 40
0
 40
1
 40
1
 40
1
 40
1
 10
561.993039
 20
261.261271
 30
0.0
 10
563.358347
 20
259.061273
 30
0.0
 10
565.011881
 20
256.136258
 30
0.0
 10
565.667535
 20
254.761256
 30
0.0
  0
SPLINE
  5
2be
100
AcDbEntity
  8
Ebene_1
 62
7
100
AcDbSpline
 70
8
 71
3
 72
8
 73
4
 74
0
 40
0
 40
0
 40
0
 40
0
 40
1
 40
1
 40
1
 40
1
 10
565.667535
 20
254.761256
 30
0.0
 10
568.179854
 20
249.492753
 30
0.0
 10
579.974365
 20
231.115342
 30
0.0
 10
588.772201
 20
218.761244
 30
0.0
  0
SPLINE
  5
2bf
100
AcDbEntity
  8
Ebene_1
 62
7
100
AcDbSpline
 70
8
 71
3
 72
8
 73
4
 74
0
 40
0
 40
0
 40
0
 40
0
 40
1
 40
1
 40
1
 40
1
 10
588.772201
 20
218.761244
 30
0.0
 10
621.115348
 20
173.344224
 30
0.0
 10
661.318404
 20
133.241713
 30
0.0
 10
706.404649
 20
101.422692
 30
0.0
  0
SPLINE
  5
2c0
100
AcDbEntity
  8
Ebene_1
 62
7
100
AcDbSpline
 70
8
 71
3
 72
8
 73
4
 74
0
 40
0
 40
0
 40
0
 40
0
 40
1
 40
1
 40
1
 40
1
 10
706.404649
 20
101.422692
 30
0.0
 10
722.905325
 20
89.777510
 30
0.0
 10
732.334352
 20
83.749209
 30
0.0
 10
743.404668
 20
77.766999
 30
0.0
  0
SPLINE
  5
2c1
100
AcDbEntity
  8
Ebene_1
 62
7
100
AcDbSpline
 70
8
 71
3
 72
8
 73
4
 74
0
 40
0
 40
0
 40
0
 40
0
 40
1
 40
1
 40
1
 40
1
 10
743.404668
 20
77.766999
 30
0.0
 10
746.704650
 20
75.983808
 30
0.0
 10
749.958456
 20
74.080087
 30
0.0
 10
750.635313
 20
73.536601
 30
0.0
  0
SPLINE
  5
2c2
100
AcDbEntity
  8
Ebene_1
 62
7
100
AcDbSpline
 70
8
 71
3
 72
8
 73
4
 74
0
 40
0
 40
0
 40
0
 40
0
 40
1
 40
1
 40
1
 40
1
 10
750.635313
 20
73.536601
 30
0.0
 10
752.229291
 20
72.256701
 30
0.0
 10
773.021140
 20
61.561183
 30
0.0
 10
780.404658
 20
58.222989
 30
0.0
  0
SPLINE
  5
2c3
100
AcDbEntity
  8
Ebene_1
 62
7
100
AcDbSpline
 70
8
 71
3
 72
8
 73
4
 74
0
 40
0
 40
0
 40
0
 40
0
 40
1
 40
1
 40
1
 40
1
 10
780.404658
 20
58.222989
 30
0.0
 10
792.683808
 20
52.671391
 30
0.0
 10
798.120632
 20
50.334791
 30
0.0
 10
802.904665
 20
48.553074
 30
0.0
  0
SPLINE
  5
2c4
100
AcDbEntity
  8
Ebene_1
 62
7
100
AcDbSpline
 70
8
 71
3
 72
8
 73
4
 74
0
 40
0
 40
0
 40
0
 40
0
 40
1
 40
1
 40
1
 40
1
 10
802.904665
 20
48.553074
 30
0.0
 10
805.929687
 20
47.426472
 30
0.0
 10
810.253203
 20
45.680273
 30
0.0
 10
812.512473
 20
44.672783
 30
0.0
  0
SPLINE
  5
2c5
100
AcDbEntity
  8
Ebene_1
 62
7
100
AcDbSpline
 70
8
 71
3
 72
8
 73
4
 74
0
 40
0
 40
0
 40
0
 40
0
 40
1
 40
1
 40
1
 40
1
 10
812.512473
 20
44.672783
 30
0.0
 10
820.588835
 20
41.070883
 30
0.0
 10
835.931700
 20
36.813187
 30
0.0
 10
844.904689
 20
35.683665
 30
0.0
  0
SPLINE
  5
2c6
100
AcDbEntity
  8
Ebene_1
 62
7
100
AcDbSpline
 70
8
 71
3
 72
8
 73
4
 74
0
 40
0
 40
0
 40
0
 40
0
 40
1
 40
1
 40
1
 40
1
 10
844.904689
 20
35.683665
 30
0.0
 10
848.479688
 20
35.233665
 30
0.0
 10
856.354705
 20
34.165570
 30
0.0
 10
862.404691
 20
33.309989
 30
0.0
  0
SPLINE
  5
2c7
100
AcDbEntity
  8
Ebene_1
 62
7
100
AcDbSpline
 70
8
 71
3
 72
8
 73
4
 74
0
 40
0
 40
0
 40
0
 40
0
 40
1
 40
1
 40
1
 40
1
 10
862.404691
 20
33.309989
 30
0.0
 10
876.253471
 20
31.351673
 30
0.0
 10
896.904977
 20
29.239663
 30
0.0
 10
916.904712
 20
27.736365
 30
0.0
  0
SPLINE
  5
2c8
100
AcDbEntity
  8
Ebene_1
 62
7
100
AcDbSpline
 70
8
 71
3
 72
8
 73
4
 74
0
 40
0
 40
0
 40
0
 40
0
 40
1
 40
1
 40
1
 40
1
 10
916.904712
 20
27.736365
 30
0.0
 10
925.429714
 20
27.095565
 30
0.0
 10
932.612907
 20
26.368365
 30
0.0
 10
932.867344
 20
26.120276
 30
0.0
  0
SPLINE
  5
2c9
100
AcDbEntity
  8
Ebene_1
 62
7
100
AcDbSpline
 70
8
 71
3
 72
8
 73
4
 74
0
 40
0
 40
0
 40
0
 40
0
 40
1
 40
1
 40
1
 40
1
 10
932.867344
 20
26.120276
 30
0.0
 10
933.121896
 20
25.872245
 30
0.0
 10
958.546776
 20
25.836472
 30
0.0
 10
989.367379
 20
26.041190
 30
0.0
  0
SPLINE
  5
2ca
100
AcDbEntity
  8
Ebene_1
 62
7
100
AcDbSpline
 70
8
 71
3
 72
8
 73
4
 74
0
 40
0
 40
0
 40
0
 40
0
 40
1
 40
1
 40
1
 40
1
 10
989.367379
 20
26.041190
 30
0.0
 10
1030.845204
 20
26.316150
 30
0.0
 10
1050.081597
 20
26.839993
 30
0.0
 10
1063.404805
 20
28.057389
 30
0.0
  0
LWPOLYLINE
  5
2cb
100
AcDbEntity
  8
Ebene_1
 62
7
100
AcDbPolyline
 90
2
 70
0
 10
939.904723
 20
0.860967
 30
0.0
 10
939.904723
 20
0.860570
 30
0.0
  0
SPLINE
  5
2cc
100
AcDbEntity
  8
Ebene_1
 62
7
100
AcDbSpline
 70
8
 71
3
 72
8
 73
4
 74
0
 40
0
 40
0
 40
0
 40
0
 40
1
 40
1
 40
1
 40
1
 10
966.404785
 20
373.339626
 30
0.0
 10
958.078550
 20
374.620517
 30
0.0
 10
950.277092
 20
376.609702
 30
0.0
 10
945.404731
 20
378.694103
 30
0.0
  0
SPLINE
  5
2cd
100
AcDbEntity
  8
Ebene_1
 62
7
100
AcDbSpline
 70
8
 71
3
 72
8
 73
4
 74
0
 40
0
 40
0
 40
0
 40
0
 40
1
 40
1
 40
1
 40
1
 10
945.404731
 20
378.694103
 30
0.0
 10
944.304747
 20
379.164711
 30
0.0
 10
941.345971
 20
380.279521
 30
0.0
 10
938.829683
 20
381.171414
 30
0.0
  0
SPLINE
  5
2ce
100
AcDbEntity
  8
Ebene_1
 62
7
100
AcDbSpline
 70
8
 71
3
 72
8
 73
4
 74
0
 40
0
 40
0
 40
0
 40
0
 40
1
 40
1
 40
1
 40
1
 10
938.829683
 20
381.171414
 30
0.0
 10
923.099577
 20
386.747107
 30
0.0
 10
903.526172
 20
400.799811
 30
0.0
 10
889.954338
 20
416.261334
 30
0.0
  0
SPLINE
  5
2cf
100
AcDbEntity
  8
Ebene_1
 62
7
100
AcDbSpline
 70
8
 71
3
 72
8
 73
4
 74
0
 40
0
 40
0
 40
0
 40
0
 40
1
 40
1
 40
1
 40
1
 10
889.954338
 20
416.261334
 30
0.0
 10
877.916870
 20
429.974844
 30
0.0
 10
867.115364
 20
450.667339
 30
0.0
 10
863.071230
 20
467.761336
 30
0.0
  0
SPLINE
  5
2d0
100
AcDbEntity
  8
Ebene_1
 62
7
100
AcDbSpline
 70
8
 71
3
 72
8
 73
4
 74
0
 40
0
 40
0
 40
0
 40
0
 40
1
 40
1
 40
1
 40
1
 10
863.071230
 20
467.761336
 30
0.0
 10
862.485677
 20
470.236351
 30
0.0
 10
861.421182
 20
474.736352
 30
0.0
 10
860.705661
 20
477.761345
 30
0.0
  0
SPLINE
  5
2d1
100
AcDbEntity
  8
Ebene_1
 62
7
100
AcDbSpline
 70
8
 71
3
 72
8
 73
4
 74
0
 40
0
 40
0
 40
0
 40
0
 40
1
 40
1
 40
1
 40
1
 10
860.705661
 20
477.761345
 30
0.0
 10
858.735808
 20
486.089253
 30
0.0
 10
859.071430
 20
514.264762
 30
0.0
 10
861.259551
 20
524.261370
 30
0.0
  0
SPLINE
  5
2d2
100
AcDbEntity
  8
Ebene_1
 62
7
100
AcDbSpline
 70
8
 71
3
 72
8
 73
4
 74
0
 40
0
 40
0
 40
0
 40
0
 40
1
 40
1
 40
1
 40
1
 10
861.259551
 20
524.261370
 30
0.0
 10
865.488276
 20
543.580677
 30
0.0
 10
871.990559
 20
558.537577
 30
0.0
 10
883.404717
 20
575.200792
 30
0.0
  0
SPLINE
  5
2d3
100
AcDbEntity
  8
Ebene_1
 62
7
100
AcDbSpline
 70
8
 71
3
 72
8
 73
4
 74
0
 40
0
 40
0
 40
0
 40
0
 40
1
 40
1
 40
1
 40
1
 10
883.404717
 20
575.200792
 30
0.0
 10
886.657729
 20
579.949788
 30
0.0
 10
905.081656
 20
598.763310
 30
0.0
 10
909.279230
 20
601.622391
 30
0.0
  0
SPLINE
  5
2d4
100
AcDbEntity
  8
Ebene_1
 62
7
100
AcDbSpline
 70
8
 71
3
 72
8
 73
4
 74
0
 40
0
 40
0
 40
0
 40
0
 40
1
 40
1
 40
1
 40
1
 10
909.279230
 20
601.622391
 30
0.0
 10
931.094415
 20
616.481410
 30
0.0
 10
947.913195
 20
623.338420
 30
0.0
 10
969.689149
 20
626.251700
 30
0.0
  0
SPLINE
  5
2d5
100
AcDbEntity
  8
Ebene_1
 62
7
100
AcDbSpline
 70
8
 71
3
 72
8
 73
4
 74
0
 40
0
 40
0
 40
0
 40
0
 40
1
 40
1
 40
1
 40
1
 10
969.689149
 20
626.251700
 30
0.0
 10
983.875279
 20
628.149609
 30
0.0
 10
989.987770
 20
628.146718
 30
0.0
 10
1004.120382
 20
626.234692
 30
0.0
  0
SPLINE
  5
2d6
100
AcDbEntity
  8
Ebene_1
 62
7
100
AcDbSpline
 70
8
 71
3
 72
8
 73
4
 74
0
 40
0
 40
0
 40
0
 40
0
 40
1
 40
1
 40
1
 40
1
 10
1004.120382
 20
626.234692
 30
0.0
 10
1027.143609
 20
623.120577
 30
0.0
 10
1048.386592
 20
614.164965
 30
0.0
 10
1065.904821
 20
600.187663
 30
0.0
  0
SPLINE
  5
2d7
100
AcDbEntity
  8
Ebene_1
 62
7
100
AcDbSpline
 70
8
 71
3
 72
8
 73
4
 74
0
 40
0
 40
0
 40
0
 40
0
 40
1
 40
1
 40
1
 40
1
 10
1065.904821
 20
600.187663
 30
0.0
 10
1072.391513
 20
595.012080
 30
0.0
 10
1086.556327
 20
580.564878
 30
0.0
 10
1090.472307
 20
575.130266
 30
0.0
  0
SPLINE
  5
2d8
100
AcDbEntity
  8
Ebene_1
 62
7
100
AcDbSpline
 70
8
 71
3
 72
8
 73
4
 74
0
 40
0
 40
0
 40
0
 40
0
 40
1
 40
1
 40
1
 40
1
 10
1090.472307
 20
575.130266
 30
0.0
 10
1100.482918
 20
561.237663
 30
0.0
 10
1108.455928
 20
542.861357
 30
0.0
 10
1112.543120
 20
524.260945
 30
0.0
  0
SPLINE
  5
2d9
100
AcDbEntity
  8
Ebene_1
 62
7
100
AcDbSpline
 70
8
 71
3
 72
8
 73
4
 74
0
 40
0
 40
0
 40
0
 40
0
 40
1
 40
1
 40
1
 40
1
 10
1112.543120
 20
524.260945
 30
0.0
 10
1114.738327
 20
514.270828
 30
0.0
 10
1115.078031
 20
486.106828
 30
0.0
 10
1113.103927
 20
477.760920
 30
0.0
  0
SPLINE
  5
2da
100
AcDbEntity
  8
Ebene_1
 62
7
100
AcDbSpline
 70
8
 71
3
 72
8
 73
4
 74
0
 40
0
 40
0
 40
0
 40
0
 40
1
 40
1
 40
1
 40
1
 10
1113.103927
 20
477.760920
 30
0.0
 10
1112.388320
 20
474.735927
 30
0.0
 10
1111.323825
 20
470.235925
 30
0.0
 10
1110.738329
 20
467.760910
 30
0.0
  0
SPLINE
  5
2db
100
AcDbEntity
  8
Ebene_1
 62
7
100
AcDbSpline
 70
8
 71
3
 72
8
 73
4
 74
0
 40
0
 40
0
 40
0
 40
0
 40
1
 40
1
 40
1
 40
1
 10
1110.738329
 20
467.760910
 30
0.0
 10
1107.549720
 20
454.283130
 30
0.0
 10
1097.989931
 20
434.239599
 30
0.0
 10
1089.523409
 20
423.280515
 30
0.0
  0
SPLINE
  5
2dc
100
AcDbEntity
  8
Ebene_1
 62
7
100
AcDbSpline
 70
8
 71
3
 72
8
 73
4
 74
0
 40
0
 40
0
 40
0
 40
0
 40
1
 40
1
 40
1
 40
1
 10
1089.523409
 20
423.280515
 30
0.0
 10
1079.777525
 20
410.665487
 30
0.0
 10
1066.808705
 20
398.694803
 30
0.0
 10
1055.379694
 20
391.764602
 30
0.0
  0
SPLINE
  5
2dd
100
AcDbEntity
  8
Ebene_1
 62
7
100
AcDbSpline
 70
8
 71
3
 72
8
 73
4
 74
0
 40
0
 40
0
 40
0
 40
0
 40
1
 40
1
 40
1
 40
1
 10
1055.379694
 20
391.764602
 30
0.0
 10
1045.939612
 20
386.040288
 30
0.0
 10
1033.124685
 20
379.760894
 30
0.0
 10
1030.882989
 20
379.760894
 30
0.0
  0
SPLINE
  5
2de
100
AcDbEntity
  8
Ebene_1
 62
7
100
AcDbSpline
 70
8
 71
3
 72
8
 73
4
 74
0
 40
0
 40
0
 40
0
 40
0
 40
1
 40
1
 40
1
 40
1
 10
1030.882989
 20
379.760894
 30
0.0
 10
1030.014992
 20
379.760894
 30
0.0
 10
1028.877307
 20
379.381477
 30
0.0
 10
1028.354796
 20
378.917700
 30
0.0
  0
SPLINE
  5
2df
100
AcDbEntity
  8
Ebene_1
 62
7
100
AcDbSpline
 70
8
 71
3
 72
8
 73
4
 74
0
 40
0
 40
0
 40
0
 40
0
 40
1
 40
1
 40
1
 40
1
 10
1028.354796
 20
378.917700
 30
0.0
 10
1026.618207
 20
377.376389
 30
0.0
 10
1016.531004
 20
374.779371
 30
0.0
 10
1006.404795
 20
373.266577
 30
0.0
  0
SPLINE
  5
2e0
100
AcDbEntity
  8
Ebene_1
 62
7
100
AcDbSpline
 70
8
 71
3
 72
8
 73
4
 74
0
 40
0
 40
0
 40
0
 40
0
 40
1
 40
1
 40
1
 40
1
 10
1006.404795
 20
373.266577
 30
0.0
 10
994.247676
 20
371.450390
 30
0.0
 10
978.496367
 20
371.478992
 30
0.0
 10
966.404785
 20
373.339711
 30
0.0
  0
LWPOLYLINE
  5
2e1
100
AcDbEntity
  8
Ebene_1
 62
7
100
AcDbPolyline
 90
2
 70
0
 10
1063.404805
 20
28.057389
 30
0.0
 10
1063.404805
 20
28.057077
 30
0.0
  0
SPLINE
  5
2e2
100
AcDbEntity
  8
Ebene_1
 62
7
100
AcDbSpline
 70
8
 71
3
 72
8
 73
4
 74
0
 40
0
 40
0
 40
0
 40
0
 40
1
 40
1
 40
1
 40
1
 10
1004.904786
 20
1347.270313
 30
0.0
 10
1031.840505
 20
1351.940393
 30
0.0
 10
1052.982206
 20
1362.106059
 30
0.0
 10
1072.404014
 20
1379.726223
 30
0.0
  0
SPLINE
  5
2e3
100
AcDbEntity
  8
Ebene_1
 62
7
100
AcDbSpline
 70
8
 71
3
 72
8
 73
4
 74
0
 40
0
 40
0
 40
0
 40
0
 40
1
 40
1
 40
1
 40
1
 10
1072.404014
 20
1379.726223
 30
0.0
 10
1088.941512
 20
1394.729582
 30
0.0
 10
1104.463839
 20
1419.788680
 30
0.0
 10
1108.972316
 20
1438.761735
 30
0.0
  0
SPLINE
  5
2e4
100
AcDbEntity
  8
Ebene_1
 62
7
100
AcDbSpline
 70
8
 71
3
 72
8
 73
4
 74
0
 40
0
 40
0
 40
0
 40
0
 40
1
 40
1
 40
1
 40
1
 10
1108.972316
 20
1438.761735
 30
0.0
 10
1113.952336
 20
1459.719156
 30
0.0
 10
1115.332923
 20
1477.199685
 30
0.0
 10
1112.974639
 20
1489.435465
 30
0.0
  0
SPLINE
  5
2e5
100
AcDbEntity
  8
Ebene_1
 62
7
100
AcDbSpline
 70
8
 71
3
 72
8
 73
4
 74
0
 40
0
 40
0
 40
0
 40
0
 40
1
 40
1
 40
1
 40
1
 10
1112.974639
 20
1489.435465
 30
0.0
 10
1112.462928
 20
1492.089942
 30
0.0
 10
1111.522222
 20
1497.186239
 30
0.0
 10
1110.884030
 20
1500.760615
 30
0.0
  0
SPLINE
  5
2e6
100
AcDbEntity
  8
Ebene_1
 62
7
100
AcDbSpline
 70
8
 71
3
 72
8
 73
4
 74
0
 40
0
 40
0
 40
0
 40
0
 40
1
 40
1
 40
1
 40
1
 10
1110.884030
 20
1500.760615
 30
0.0
 10
1105.938932
 20
1528.456247
 30
0.0
 10
1086.120812
 20
1559.499425
 30
0.0
 10
1062.372398
 20
1576.749412
 30
0.0
  0
SPLINE
  5
2e7
100
AcDbEntity
  8
Ebene_1
 62
7
100
AcDbSpline
 70
8
 71
3
 72
8
 73
4
 74
0
 40
0
 40
0
 40
0
 40
0
 40
1
 40
1
 40
1
 40
1
 10
1062.372398
 20
1576.749412
 30
0.0
 10
1053.850005
 20
1582.939770
 30
0.0
 10
1036.415596
 20
1592.566343
 30
0.0
 10
1031.404791
 20
1593.848482
 30
0.0
  0
SPLINE
  5
2e8
100
AcDbEntity
  8
Ebene_1
 62
7
100
AcDbSpline
 70
8
 71
3
 72
8
 73
4
 74
0
 40
0
 40
0
 40
0
 40
0
 40
1
 40
1
 40
1
 40
1
 10
1031.404791
 20
1593.848482
 30
0.0
 10
1029.754800
 20
1594.270675
 30
0.0
 10
1025.929785
 20
1595.513582
 30
0.0
 10
1022.904791
 20
1596.610505
 30
0.0
  0
SPLINE
  5
2e9
100
AcDbEntity
  8
Ebene_1
 62
7
100
AcDbSpline
 70
8
 71
3
 72
8
 73
4
 74
0
 40
0
 40
0
 40
0
 40
0
 40
1
 40
1
 40
1
 40
1
 10
1022.904791
 20
1596.610505
 30
0.0
 10
1007.081284
 20
1602.348397
 30
0.0
 10
979.129344
 20
1603.566785
 30
0.0
 10
959.404739
 20
1599.378368
 30
0.0
  0
SPLINE
  5
2ea
100
AcDbEntity
  8
Ebene_1
 62
7
100
AcDbSpline
 70
8
 71
3
 72
8
 73
4
 74
0
 40
0
 40
0
 40
0
 40
0
 40
1
 40
1
 40
1
 40
1
 10
959.404739
 20
1599.378368
 30
0.0
 10
928.317255
 20
1592.777071
 30
0.0
 10
902.401470
 20
1576.338814
 30
0.0
 10
883.546421
 20
1551.261772
 30
0.0
  0
SPLINE
  5
2eb
100
AcDbEntity
  8
Ebene_1
 62
7
100
AcDbSpline
 70
8
 71
3
 72
8
 73
4
 74
0
 40
0
 40
0
 40
0
 40
0
 40
1
 40
1
 40
1
 40
1
 10
883.546421
 20
1551.261772
 30
0.0
 10
868.442630
 20
1531.173907
 30
0.0
 10
860.492042
 20
1510.888808
 30
0.0
 10
857.950781
 20
1485.957184
 30
0.0
  0
SPLINE
  5
2ec
100
AcDbEntity
  8
Ebene_1
 62
7
100
AcDbSpline
 70
8
 71
3
 72
8
 73
4
 74
0
 40
0
 40
0
 40
0
 40
0
 40
1
 40
1
 40
1
 40
1
 10
857.950781
 20
1485.957184
 30
0.0
 10
856.189927
 20
1468.681969
 30
0.0
 10
859.969390
 20
1440.272488
 30
0.0
 10
865.434390
 20
1429.704331
 30
0.0
  0
SPLINE
  5
2ed
100
AcDbEntity
  8
Ebene_1
 62
7
100
AcDbSpline
 70
8
 71
3
 72
8
 73
4
 74
0
 40
0
 40
0
 40
0
 40
0
 40
1
 40
1
 40
1
 40
1
 10
865.434390
 20
1429.704331
 30
0.0
 10
866.243058
 20
1428.140541
 30
0.0
 10
866.904693
 20
1426.254764
 30
0.0
 10
866.904693
 20
1425.513787
 30
0.0
  0
SPLINE
  5
2ee
100
AcDbEntity
  8
Ebene_1
 62
7
100
AcDbSpline
 70
8
 71
3
 72
8
 73
4
 74
0
 40
0
 40
0
 40
0
 40
0
 40
1
 40
1
 40
1
 40
1
 10
866.904693
 20
1425.513787
 30
0.0
 10
866.904693
 20
1423.826266
 30
0.0
 10
873.491306
 20
1410.875984
 30
0.0
 10
875.450897
 20
1408.710683
 30
0.0
  0
SPLINE
  5
2ef
100
AcDbEntity
  8
Ebene_1
 62
7
100
AcDbSpline
 70
8
 71
3
 72
8
 73
4
 74
0
 40
0
 40
0
 40
0
 40
0
 40
1
 40
1
 40
1
 40
1
 10
875.450897
 20
1408.710683
 30
0.0
 10
876.250494
 20
1407.827123
 30
0.0
 10
876.904702
 20
1406.822156
 30
0.0
 10
876.904702
 20
1406.477378
 30
0.0
  0
SPLINE
  5
2f0
100
AcDbEntity
  8
Ebene_1
 62
7
100
AcDbSpline
 70
8
 71
3
 72
8
 73
4
 74
0
 40
0
 40
0
 40
0
 40
0
 40
1
 40
1
 40
1
 40
1
 10
876.904702
 20
1406.477378
 30
0.0
 10
876.904702
 20
1404.281264
 30
0.0
 10
889.126026
 20
1388.778015
 30
0.0
 10
895.900860
 20
1382.379962
 30
0.0
  0
SPLINE
  5
2f1
100
AcDbEntity
  8
Ebene_1
 62
7
100
AcDbSpline
 70
8
 71
3
 72
8
 73
4
 74
0
 40
0
 40
0
 40
0
 40
0
 40
1
 40
1
 40
1
 40
1
 10
895.900860
 20
1382.379962
 30
0.0
 10
902.095356
 20
1376.529960
 30
0.0
 10
914.301203
 20
1366.761711
 30
0.0
 10
915.416495
 20
1366.761711
 30
0.0
  0
SPLINE
  5
2f2
100
AcDbEntity
  8
Ebene_1
 62
7
100
AcDbSpline
 70
8
 71
3
 72
8
 73
4
 74
0
 40
0
 40
0
 40
0
 40
0
 40
1
 40
1
 40
1
 40
1
 10
915.416495
 20
1366.761711
 30
0.0
 10
915.737858
 20
1366.761711
 30
0.0
 10
918.341680
 20
1365.267994
 30
0.0
 10
921.202774
 20
1363.442340
 30
0.0
  0
SPLINE
  5
2f3
100
AcDbEntity
  8
Ebene_1
 62
7
100
AcDbSpline
 70
8
 71
3
 72
8
 73
4
 74
0
 40
0
 40
0
 40
0
 40
0
 40
1
 40
1
 40
1
 40
1
 10
921.202774
 20
1363.442340
 30
0.0
 10
943.390800
 20
1349.284216
 30
0.0
 10
977.977542
 20
1342.601735
 30
0.0
 10
1004.904786
 20
1347.270313
 30
0.0
  0
LWPOLYLINE
  5
2f4
100
AcDbEntity
  8
Ebene_1
 62
7
100
AcDbPolyline
 90
1
 70
1
 10
966.404785
 20
373.339711
 30
0.0
  0
LWPOLYLINE
  5
2f5
100
AcDbEntity
  8
Ebene_1
 62
7
100
AcDbPolyline
 90
1
 70
1
 10
1004.904786
 20
1347.270313
 30
0.0
  0
ENDSEC
  0
SECTION
  2
OBJECTS
  0
DICTIONARY
  5
C
330
0
100
AcDbDictionary
  3
ACAD_GROUP
350
D
  3
ACAD_MLINESTYLE
350
17
  0
DICTIONARY
  5
D
330
C
100
AcDbDictionary
  0
DICTIONARY
  5
1A
330
C
100
AcDbDictionary
  0
DICTIONARY
  5
17
330
C
100
AcDbDictionary
  3
STANDARD
350
18
  0
DICTIONARY
  5
19
330
C
100
AcDbDictionary
  0
ENDSEC
  0
EOF
