999
DXF created by Sailcut CAD
0
SECTION
2
HEADER
0
ENDSEC
0
SECTION
2
TABLES
0
TABLE
2
LAYER
70
6
0
LAYER
2
1
70
64
62
3
6
CONTINUOUS
0
LAYER
2
2
70
64
62
3
6
CONTINUOUS
0
LAYER
2
3
70
64
62
3
6
CONTINUOUS
0
LAYER
2
4
70
64
62
3
6
CONTINUOUS
0
LAYER
2
5
70
64
62
3
6
CONTINUOUS
0
LAYER
2
6
70
64
62
3
6
CONTINUOUS
0
LAYER
2
7
70
64
62
3
6
CONTINUOUS
0
LAYER
2
8
70
64
62
3
6
CONTINUOUS
0
LAYER
2
9
70
64
62
3
6
CONTINUOUS
0
LAYER
2
10
70
64
62
3
6
CONTINUOUS
0
LAYER
2
11
70
64
62
3
6
CONTINUOUS
0
LAYER
2
12
70
64
62
3
6
CONTINUOUS
0
LAYER
2
13
70
64
62
3
6
CONTINUOUS
0
LAYER
2
14
70
64
62
3
6
CONTINUOUS
0
LAYER
2
15
70
64
62
3
6
CONTINUOUS
0
LAYER
2
16
70
64
62
3
6
CONTINUOUS
0
LAYER
2
17
70
64
62
3
6
CONTINUOUS
0
LAYER
2
18
70
64
62
3
6
CONTINUOUS
0
LAYER
2
19
70
64
62
3
6
CONTINUOUS
0
LAYER
2
20
70
64
62
3
6
CONTINUOUS
0
LAYER
2
21
70
64
62
3
6
CONTINUOUS
0
LAYER
2
22
70
64
62
3
6
CONTINUOUS
0
LAYER
2
23
70
64
62
3
6
CONTINUOUS
0
LAYER
2
24
70
64
62
3
6
CONTINUOUS
0
LAYER
2
25
70
64
62
3
6
CONTINUOUS
0
LAYER
2
26
70
64
62
3
6
CONTINUOUS
0
LAYER
2
27
70
64
62
3
6
CONTINUOUS
0
LAYER
2
28
70
64
62
3
6
CONTINUOUS
0
LAYER
2
29
70
64
62
3
6
CONTINUOUS
0
LAYER
2
30
70
64
62
3
6
CONTINUOUS
0
LAYER
2
31
70
64
62
3
6
CONTINUOUS
0
LAYER
2
32
70
64
62
3
6
CONTINUOUS
0
LAYER
2
33
70
64
62
3
6
CONTINUOUS
0
LAYER
2
34
70
64
62
3
6
CONTINUOUS
0
LAYER
2
35
70
64
62
3
6
CONTINUOUS
0
LAYER
2
36
70
64
62
3
6
CONTINUOUS
0
LAYER
2
37
70
64
62
3
6
CONTINUOUS
0
LAYER
2
38
70
64
62
3
6
CONTINUOUS
0
LAYER
2
39
70
64
62
3
6
CONTINUOUS
0
LAYER
2
40
70
64
62
3
6
CONTINUOUS
0
LAYER
2
41
70
64
62
3
6
CONTINUOUS
0
LAYER
2
42
70
64
62
3
6
CONTINUOUS
0
LAYER
2
43
70
64
62
3
6
CONTINUOUS
0
LAYER
2
44
70
64
62
3
6
CONTINUOUS
0
LAYER
2
45
70
64
62
3
6
CONTINUOUS
0
LAYER
2
46
70
64
62
3
6
CONTINUOUS
0
LAYER
2
47
70
64
62
3
6
CONTINUOUS
0
ENDTAB
0
ENDSEC
0
SECTION
2
ENTITIES
0
POLYLINE
8
1
62
5
66
1
6
CONTINUOUS
0
VERTEX
8
1
10
0.19441
20
208.413
0
VERTEX
8
1
10
0.162011
20
208.435
0
VERTEX
8
1
10
0.129604
20
208.457
0
VERTEX
8
1
10
0.0972057
20
208.478
0
VERTEX
8
1
10
0.0648011
20
208.5
0
VERTEX
8
1
10
0.0323967
20
208.522
0
VERTEX
8
1
10
0
20
208.543
0
VERTEX
8
1
10
129.04
20
208.628
0
VERTEX
8
1
10
258.021
20
208.714
0
VERTEX
8
1
10
386.948
20
208.803
0
VERTEX
8
1
10
515.82
20
208.892
0
VERTEX
8
1
10
644.638
20
208.98
0
VERTEX
8
1
10
773.405
20
209.067
0
VERTEX
8
1
10
902.115
20
209.145
0
VERTEX
8
1
10
1030.77
20
209.213
0
VERTEX
8
1
10
1159.38
20
209.27
0
VERTEX
8
1
10
1287.93
20
209.314
0
VERTEX
8
1
10
1416.43
20
209.343
0
VERTEX
8
1
10
1544.87
20
209.354
0
VERTEX
8
1
10
1673.27
20
209.344
0
VERTEX
8
1
10
1801.61
20
209.313
0
VERTEX
8
1
10
1929.91
20
209.257
0
VERTEX
8
1
10
2058.15
20
209.174
0
VERTEX
8
1
10
2186.34
20
209.062
0
VERTEX
8
1
10
2314.49
20
208.919
0
VERTEX
8
1
10
2442.59
20
208.758
0
VERTEX
8
1
10
2570.63
20
208.543
0
VERTEX
8
1
10
2580.44
20
175.819
0
VERTEX
8
1
10
2590.05
20
142.419
0
VERTEX
8
1
10
2599.31
20
108.231
0
VERTEX
8
1
10
2608.13
20
73.1532
0
VERTEX
8
1
10
2616.49
20
37.0977
0
VERTEX
8
1
10
2624.5
20
0
0
VERTEX
8
1
10
2493.83
20
10.2089
0
VERTEX
8
1
10
2363.11
20
20.4312
0
VERTEX
8
1
10
2232.34
20
30.6683
0
VERTEX
8
1
10
2101.5
20
40.9217
0
VERTEX
8
1
10
1970.62
20
51.1928
0
VERTEX
8
1
10
1839.68
20
61.4831
0
VERTEX
8
1
10
1708.68
20
71.7941
0
VERTEX
8
1
10
1577.62
20
82.1272
0
VERTEX
8
1
10
1446.5
20
92.4839
0
VERTEX
8
1
10
1315.33
20
102.866
0
VERTEX
8
1
10
1184.09
20
113.274
0
VERTEX
8
1
10
1052.8
20
123.711
0
VERTEX
8
1
10
921.445
20
134.178
0
VERTEX
8
1
10
790.028
20
144.676
0
VERTEX
8
1
10
658.548
20
155.207
0
VERTEX
8
1
10
527.006
20
165.772
0
VERTEX
8
1
10
395.4
20
176.374
0
VERTEX
8
1
10
263.73
20
187.014
0
VERTEX
8
1
10
131.995
20
197.693
0
VERTEX
8
1
10
0.19441
20
208.413
0
VERTEX
8
1
10
0.19441
20
208.413
0
SEQEND
0
POLYLINE
8
1
62
1
66
1
6
CONTINUOUS
0
VERTEX
8
1
10
-3.20137
20
198.657
0
VERTEX
8
1
10
-5.39096
20
200.119
0
VERTEX
8
1
10
-5.42253
20
200.14
0
VERTEX
8
1
10
-5.45491
20
200.161
0
VERTEX
8
1
10
-5.48708
20
200.183
0
VERTEX
8
1
10
-5.51992
20
200.205
0
VERTEX
8
1
10
-47.9032
20
228.512
0
VERTEX
8
1
10
129.027
20
228.628
0
VERTEX
8
1
10
258.008
20
228.714
0
VERTEX
8
1
10
386.934
20
228.803
0
VERTEX
8
1
10
515.806
20
228.892
0
VERTEX
8
1
10
644.624
20
228.98
0
VERTEX
8
1
10
773.391
20
229.067
0
VERTEX
8
1
10
902.103
20
229.145
0
VERTEX
8
1
10
1030.76
20
229.213
0
VERTEX
8
1
10
1159.37
20
229.27
0
VERTEX
8
1
10
1287.92
20
229.314
0
VERTEX
8
1
10
1416.42
20
229.343
0
VERTEX
8
1
10
1544.87
20
229.354
0
VERTEX
8
1
10
1673.27
20
229.344
0
VERTEX
8
1
10
1801.62
20
229.313
0
VERTEX
8
1
10
1929.92
20
229.257
0
VERTEX
8
1
10
2058.16
20
229.174
0
VERTEX
8
1
10
2186.36
20
229.062
0
VERTEX
8
1
10
2314.51
20
228.919
0
VERTEX
8
1
10
2442.61
20
228.758
0
VERTEX
8
1
10
2564.64
20
228.553
0
VERTEX
8
1
10
2580.44
20
175.819
0
VERTEX
8
1
10
2590.05
20
142.419
0
VERTEX
8
1
10
2599.31
20
108.231
0
VERTEX
8
1
10
2608.13
20
73.1532
0
VERTEX
8
1
10
2616.49
20
37.0977
0
VERTEX
8
1
10
2626.88
20
-10.2163
0
VERTEX
8
1
10
2493.05
20
0.239299
0
VERTEX
8
1
10
2362.33
20
10.4617
0
VERTEX
8
1
10
2231.55
20
20.6989
0
VERTEX
8
1
10
2100.72
20
30.9524
0
VERTEX
8
1
10
1969.83
20
41.2236
0
VERTEX
8
1
10
1838.89
20
51.514
0
VERTEX
8
1
10
1707.89
20
61.825
0
VERTEX
8
1
10
1576.83
20
72.1583
0
VERTEX
8
1
10
1445.71
20
82.5151
0
VERTEX
8
1
10
1314.54
20
92.8972
0
VERTEX
8
1
10
1183.3
20
103.306
0
VERTEX
8
1
10
1052.01
20
113.743
0
VERTEX
8
1
10
920.648
20
124.21
0
VERTEX
8
1
10
789.229
20
134.708
0
VERTEX
8
1
10
657.748
20
145.239
0
VERTEX
8
1
10
526.203
20
155.805
0
VERTEX
8
1
10
394.595
20
166.407
0
VERTEX
8
1
10
262.922
20
177.047
0
VERTEX
8
1
10
131.184
20
187.726
0
VERTEX
8
1
10
-3.20137
20
198.657
0
VERTEX
8
1
10
-3.20137
20
198.657
0
SEQEND
0
POLYLINE
8
2
62
5
66
1
6
CONTINUOUS
0
VERTEX
8
2
10
0.183473
20
496.333
0
VERTEX
8
2
10
0.152889
20
496.357
0
VERTEX
8
2
10
0.122313
20
496.381
0
VERTEX
8
2
10
0.0917362
20
496.405
0
VERTEX
8
2
10
0.0611596
20
496.429
0
VERTEX
8
2
10
0.030583
20
496.453
0
VERTEX
8
2
10
0
20
496.476
0
VERTEX
8
2
10
126.274
20
495.958
0
VERTEX
8
2
10
252.489
20
495.508
0
VERTEX
8
2
10
378.648
20
495.118
0
VERTEX
8
2
10
504.751
20
494.788
0
VERTEX
8
2
10
630.798
20
494.516
0
VERTEX
8
2
10
756.792
20
494.302
0
VERTEX
8
2
10
882.728
20
494.142
0
VERTEX
8
2
10
1008.61
20
494.037
0
VERTEX
8
2
10
1134.44
20
493.984
0
VERTEX
8
2
10
1260.21
20
493.983
0
VERTEX
8
2
10
1385.92
20
494.031
0
VERTEX
8
2
10
1511.59
20
494.128
0
VERTEX
8
2
10
1637.2
20
494.273
0
VERTEX
8
2
10
1762.75
20
494.462
0
VERTEX
8
2
10
1888.25
20
494.696
0
VERTEX
8
2
10
2013.7
20
494.973
0
VERTEX
8
2
10
2139.1
20
495.29
0
VERTEX
8
2
10
2264.45
20
495.647
0
VERTEX
8
2
10
2389.75
20
496.047
0
VERTEX
8
2
10
2515
20
496.476
0
VERTEX
8
2
10
2523.46
20
463.982
0
VERTEX
8
2
10
2531.81
20
431.388
0
VERTEX
8
2
10
2539.99
20
398.668
0
VERTEX
8
2
10
2547.97
20
365.802
0
VERTEX
8
2
10
2555.73
20
332.773
0
VERTEX
8
2
10
2563.27
20
299.57
0
VERTEX
8
2
10
2435.57
20
309.005
0
VERTEX
8
2
10
2307.82
20
318.466
0
VERTEX
8
2
10
2180.03
20
327.967
0
VERTEX
8
2
10
2052.19
20
337.503
0
VERTEX
8
2
10
1924.31
20
347.077
0
VERTEX
8
2
10
1796.38
20
356.69
0
VERTEX
8
2
10
1668.4
20
366.344
0
VERTEX
8
2
10
1540.37
20
376.042
0
VERTEX
8
2
10
1412.29
20
385.783
0
VERTEX
8
2
10
1284.16
20
395.571
0
VERTEX
8
2
10
1155.99
20
405.406
0
VERTEX
8
2
10
1027.76
20
415.291
0
VERTEX
8
2
10
899.492
20
425.227
0
VERTEX
8
2
10
771.169
20
435.215
0
VERTEX
8
2
10
642.795
20
445.256
0
VERTEX
8
2
10
514.373
20
455.354
0
VERTEX
8
2
10
385.901
20
465.51
0
VERTEX
8
2
10
257.38
20
475.723
0
VERTEX
8
2
10
128.809
20
485.997
0
VERTEX
8
2
10
0.183473
20
496.333
0
VERTEX
8
2
10
0.183473
20
496.333
0
SEQEND
0
POLYLINE
8
2
62
1
66
1
6
CONTINUOUS
0
VERTEX
8
2
10
-17.9576
20
497.791
0
VERTEX
8
2
10
-6.05156
20
488.514
0
VERTEX
8
2
10
-6.08562
20
488.541
0
VERTEX
8
2
10
-6.11616
20
488.565
0
VERTEX
8
2
10
-42.1725
20
516.65
0
VERTEX
8
2
10
126.356
20
515.958
0
VERTEX
8
2
10
252.56
20
515.508
0
VERTEX
8
2
10
378.71
20
515.118
0
VERTEX
8
2
10
504.804
20
514.788
0
VERTEX
8
2
10
630.841
20
514.516
0
VERTEX
8
2
10
756.826
20
514.302
0
VERTEX
8
2
10
882.754
20
514.142
0
VERTEX
8
2
10
1008.63
20
514.037
0
VERTEX
8
2
10
1134.44
20
513.984
0
VERTEX
8
2
10
1260.21
20
513.983
0
VERTEX
8
2
10
1385.92
20
514.031
0
VERTEX
8
2
10
1511.57
20
514.128
0
VERTEX
8
2
10
1637.17
20
514.273
0
VERTEX
8
2
10
1762.72
20
514.462
0
VERTEX
8
2
10
1888.22
20
514.696
0
VERTEX
8
2
10
2013.66
20
514.973
0
VERTEX
8
2
10
2139.05
20
515.29
0
VERTEX
8
2
10
2264.39
20
515.646
0
VERTEX
8
2
10
2389.69
20
516.047
0
VERTEX
8
2
10
2509.8
20
516.459
0
VERTEX
8
2
10
2523.46
20
463.982
0
VERTEX
8
2
10
2531.81
20
431.388
0
VERTEX
8
2
10
2539.99
20
398.668
0
VERTEX
8
2
10
2547.97
20
365.802
0
VERTEX
8
2
10
2555.73
20
332.773
0
VERTEX
8
2
10
2563.27
20
299.57
0
VERTEX
8
2
10
2435.57
20
309.005
0
VERTEX
8
2
10
2307.82
20
318.466
0
VERTEX
8
2
10
2180.03
20
327.967
0
VERTEX
8
2
10
2052.19
20
337.503
0
VERTEX
8
2
10
1924.31
20
347.077
0
VERTEX
8
2
10
1796.38
20
356.69
0
VERTEX
8
2
10
1668.4
20
366.344
0
VERTEX
8
2
10
1540.37
20
376.042
0
VERTEX
8
2
10
1412.29
20
385.783
0
VERTEX
8
2
10
1284.16
20
395.571
0
VERTEX
8
2
10
1155.99
20
405.406
0
VERTEX
8
2
10
1027.76
20
415.291
0
VERTEX
8
2
10
899.492
20
425.227
0
VERTEX
8
2
10
771.169
20
435.215
0
VERTEX
8
2
10
642.795
20
445.256
0
VERTEX
8
2
10
514.373
20
455.354
0
VERTEX
8
2
10
385.901
20
465.51
0
VERTEX
8
2
10
257.38
20
475.723
0
VERTEX
8
2
10
128.809
20
485.997
0
VERTEX
8
2
10
-17.9576
20
497.791
0
VERTEX
8
2
10
-17.9576
20
497.791
0
SEQEND
0
POLYLINE
8
3
62
5
66
1
6
CONTINUOUS
0
VERTEX
8
3
10
0.17159
20
775.31
0
VERTEX
8
3
10
0.14299
20
775.335
0
VERTEX
8
3
10
0.114396
20
775.361
0
VERTEX
8
3
10
0.0858011
20
775.387
0
VERTEX
8
3
10
0.0571972
20
775.412
0
VERTEX
8
3
10
0.0285993
20
775.438
0
VERTEX
8
3
10
0
20
775.464
0
VERTEX
8
3
10
124.044
20
774.666
0
VERTEX
8
3
10
248.032
20
773.965
0
VERTEX
8
3
10
371.959
20
773.35
0
VERTEX
8
3
10
495.825
20
772.822
0
VERTEX
8
3
10
619.631
20
772.38
0
VERTEX
8
3
10
743.38
20
772.023
0
VERTEX
8
3
10
867.068
20
771.749
0
VERTEX
8
3
10
990.697
20
771.56
0
VERTEX
8
3
10
1114.27
20
771.452
0
VERTEX
8
3
10
1237.78
20
771.427
0
VERTEX
8
3
10
1361.24
20
771.482
0
VERTEX
8
3
10
1484.64
20
771.617
0
VERTEX
8
3
10
1607.99
20
771.832
0
VERTEX
8
3
10
1731.28
20
772.124
0
VERTEX
8
3
10
1854.51
20
772.493
0
VERTEX
8
3
10
1977.69
20
772.939
0
VERTEX
8
3
10
2100.82
20
773.46
0
VERTEX
8
3
10
2223.9
20
774.056
0
VERTEX
8
3
10
2346.93
20
774.723
0
VERTEX
8
3
10
2469.9
20
775.464
0
VERTEX
8
3
10
2476.3
20
742.303
0
VERTEX
8
3
10
2482.66
20
709.152
0
VERTEX
8
3
10
2488.95
20
676.011
0
VERTEX
8
3
10
2495.16
20
642.878
0
VERTEX
8
3
10
2501.28
20
609.757
0
VERTEX
8
3
10
2507.3
20
576.65
0
VERTEX
8
3
10
2382.39
20
585.818
0
VERTEX
8
3
10
2257.43
20
595.063
0
VERTEX
8
3
10
2132.43
20
604.382
0
VERTEX
8
3
10
2007.38
20
613.778
0
VERTEX
8
3
10
1882.29
20
623.251
0
VERTEX
8
3
10
1757.15
20
632.803
0
VERTEX
8
3
10
1631.96
20
642.435
0
VERTEX
8
3
10
1506.73
20
652.147
0
VERTEX
8
3
10
1381.45
20
661.941
0
VERTEX
8
3
10
1256.12
20
671.817
0
VERTEX
8
3
10
1130.75
20
681.777
0
VERTEX
8
3
10
1005.32
20
691.82
0
VERTEX
8
3
10
879.849
20
701.95
0
VERTEX
8
3
10
754.328
20
712.165
0
VERTEX
8
3
10
628.755
20
722.467
0
VERTEX
8
3
10
503.137
20
732.856
0
VERTEX
8
3
10
377.47
20
743.334
0
VERTEX
8
3
10
251.753
20
753.9
0
VERTEX
8
3
10
125.988
20
764.557
0
VERTEX
8
3
10
0.17159
20
775.31
0
VERTEX
8
3
10
0.17159
20
775.31
0
SEQEND
0
POLYLINE
8
3
62
1
66
1
6
CONTINUOUS
0
VERTEX
8
3
10
-16.3882
20
776.725
0
VERTEX
8
3
10
-6.58869
20
767.94
0
VERTEX
8
3
10
-6.61677
20
767.965
0
VERTEX
8
3
10
-6.64641
20
767.992
0
VERTEX
8
3
10
-37.5625
20
795.706
0
VERTEX
8
3
10
124.172
20
794.665
0
VERTEX
8
3
10
248.145
20
793.964
0
VERTEX
8
3
10
372.058
20
793.35
0
VERTEX
8
3
10
495.91
20
792.822
0
VERTEX
8
3
10
619.702
20
792.38
0
VERTEX
8
3
10
743.438
20
792.023
0
VERTEX
8
3
10
867.112
20
791.749
0
VERTEX
8
3
10
990.728
20
791.56
0
VERTEX
8
3
10
1114.29
20
791.452
0
VERTEX
8
3
10
1237.79
20
791.427
0
VERTEX
8
3
10
1361.23
20
791.482
0
VERTEX
8
3
10
1484.62
20
791.617
0
VERTEX
8
3
10
1607.95
20
791.832
0
VERTEX
8
3
10
1731.23
20
792.124
0
VERTEX
8
3
10
1854.45
20
792.493
0
VERTEX
8
3
10
1977.62
20
792.939
0
VERTEX
8
3
10
2100.74
20
793.46
0
VERTEX
8
3
10
2223.8
20
794.055
0
VERTEX
8
3
10
2346.82
20
794.723
0
VERTEX
8
3
10
2466.05
20
795.441
0
VERTEX
8
3
10
2476.3
20
742.303
0
VERTEX
8
3
10
2482.66
20
709.152
0
VERTEX
8
3
10
2488.95
20
676.011
0
VERTEX
8
3
10
2495.16
20
642.878
0
VERTEX
8
3
10
2501.28
20
609.757
0
VERTEX
8
3
10
2507.3
20
576.65
0
VERTEX
8
3
10
2382.39
20
585.818
0
VERTEX
8
3
10
2257.43
20
595.063
0
VERTEX
8
3
10
2132.43
20
604.382
0
VERTEX
8
3
10
2007.38
20
613.778
0
VERTEX
8
3
10
1882.29
20
623.251
0
VERTEX
8
3
10
1757.15
20
632.803
0
VERTEX
8
3
10
1631.96
20
642.435
0
VERTEX
8
3
10
1506.73
20
652.147
0
VERTEX
8
3
10
1381.45
20
661.941
0
VERTEX
8
3
10
1256.12
20
671.817
0
VERTEX
8
3
10
1130.75
20
681.777
0
VERTEX
8
3
10
1005.32
20
691.82
0
VERTEX
8
3
10
879.849
20
701.95
0
VERTEX
8
3
10
754.328
20
712.165
0
VERTEX
8
3
10
628.755
20
722.467
0
VERTEX
8
3
10
503.137
20
732.856
0
VERTEX
8
3
10
377.47
20
743.334
0
VERTEX
8
3
10
251.753
20
753.9
0
VERTEX
8
3
10
125.988
20
764.557
0
VERTEX
8
3
10
-16.3882
20
776.725
0
VERTEX
8
3
10
-16.3882
20
776.725
0
SEQEND
0
POLYLINE
8
4
62
5
66
1
6
CONTINUOUS
0
VERTEX
8
4
10
0.153092
20
1135.98
0
VERTEX
8
4
10
0.127579
20
1136.01
0
VERTEX
8
4
10
0.102062
20
1136.03
0
VERTEX
8
4
10
0.0765492
20
1136.06
0
VERTEX
8
4
10
0.0510334
20
1136.09
0
VERTEX
8
4
10
0.0255145
20
1136.12
0
VERTEX
8
4
10
0
20
1136.15
0
VERTEX
8
4
10
122.165
20
1135.18
0
VERTEX
8
4
10
244.274
20
1134.32
0
VERTEX
8
4
10
366.312
20
1133.57
0
VERTEX
8
4
10
488.281
20
1132.92
0
VERTEX
8
4
10
610.182
20
1132.38
0
VERTEX
8
4
10
732.017
20
1131.94
0
VERTEX
8
4
10
853.784
20
1131.6
0
VERTEX
8
4
10
975.485
20
1131.36
0
VERTEX
8
4
10
1097.12
20
1131.23
0
VERTEX
8
4
10
1218.7
20
1131.19
0
VERTEX
8
4
10
1340.21
20
1131.25
0
VERTEX
8
4
10
1461.66
20
1131.42
0
VERTEX
8
4
10
1583.05
20
1131.67
0
VERTEX
8
4
10
1704.39
20
1132.03
0
VERTEX
8
4
10
1825.66
20
1132.48
0
VERTEX
8
4
10
1946.88
20
1133.03
0
VERTEX
8
4
10
2068.04
20
1133.67
0
VERTEX
8
4
10
2189.15
20
1134.41
0
VERTEX
8
4
10
2310.21
20
1135.23
0
VERTEX
8
4
10
2431.22
20
1136.15
0
VERTEX
8
4
10
2435.11
20
1089.35
0
VERTEX
8
4
10
2438.98
20
1042.56
0
VERTEX
8
4
10
2442.83
20
995.799
0
VERTEX
8
4
10
2446.64
20
949.063
0
VERTEX
8
4
10
2450.4
20
902.362
0
VERTEX
8
4
10
2454.1
20
855.706
0
VERTEX
8
4
10
2331.82
20
868.793
0
VERTEX
8
4
10
2209.49
20
881.978
0
VERTEX
8
4
10
2087.13
20
895.252
0
VERTEX
8
4
10
1964.73
20
908.621
0
VERTEX
8
4
10
1842.29
20
922.085
0
VERTEX
8
4
10
1719.8
20
935.644
0
VERTEX
8
4
10
1597.27
20
949.301
0
VERTEX
8
4
10
1474.69
20
963.055
0
VERTEX
8
4
10
1352.07
20
976.907
0
VERTEX
8
4
10
1229.4
20
990.859
0
VERTEX
8
4
10
1106.69
20
1004.91
0
VERTEX
8
4
10
983.934
20
1019.06
0
VERTEX
8
4
10
861.129
20
1033.31
0
VERTEX
8
4
10
738.277
20
1047.67
0
VERTEX
8
4
10
615.375
20
1062.13
0
VERTEX
8
4
10
492.427
20
1076.69
0
VERTEX
8
4
10
369.431
20
1091.35
0
VERTEX
8
4
10
246.386
20
1106.12
0
VERTEX
8
4
10
123.291
20
1120.99
0
VERTEX
8
4
10
0.153092
20
1135.98
0
VERTEX
8
4
10
0.153092
20
1135.98
0
SEQEND
0
POLYLINE
8
4
62
1
66
1
6
CONTINUOUS
0
VERTEX
8
4
10
-14.9275
20
1137.81
0
VERTEX
8
4
10
-7.36693
20
1129.39
0
VERTEX
8
4
10
-7.39253
20
1129.41
0
VERTEX
8
4
10
-7.41757
20
1129.44
0
VERTEX
8
4
10
-31.6019
20
1156.4
0
VERTEX
8
4
10
122.324
20
1155.18
0
VERTEX
8
4
10
244.415
20
1154.32
0
VERTEX
8
4
10
366.436
20
1153.57
0
VERTEX
8
4
10
488.387
20
1152.92
0
VERTEX
8
4
10
610.271
20
1152.38
0
VERTEX
8
4
10
732.089
20
1151.94
0
VERTEX
8
4
10
853.839
20
1151.6
0
VERTEX
8
4
10
975.524
20
1151.36
0
VERTEX
8
4
10
1097.15
20
1151.23
0
VERTEX
8
4
10
1218.7
20
1151.19
0
VERTEX
8
4
10
1340.2
20
1151.25
0
VERTEX
8
4
10
1461.64
20
1151.42
0
VERTEX
8
4
10
1583.01
20
1151.67
0
VERTEX
8
4
10
1704.33
20
1152.03
0
VERTEX
8
4
10
1825.59
20
1152.48
0
VERTEX
8
4
10
1946.79
20
1153.03
0
VERTEX
8
4
10
2067.94
20
1153.67
0
VERTEX
8
4
10
2189.03
20
1154.41
0
VERTEX
8
4
10
2310.08
20
1155.23
0
VERTEX
8
4
10
2429.56
20
1156.14
0
VERTEX
8
4
10
2435.11
20
1089.35
0
VERTEX
8
4
10
2438.98
20
1042.56
0
VERTEX
8
4
10
2442.83
20
995.799
0
VERTEX
8
4
10
2446.64
20
949.063
0
VERTEX
8
4
10
2450.4
20
902.362
0
VERTEX
8
4
10
2454.1
20
855.706
0
VERTEX
8
4
10
2331.82
20
868.793
0
VERTEX
8
4
10
2209.49
20
881.978
0
VERTEX
8
4
10
2087.13
20
895.252
0
VERTEX
8
4
10
1964.73
20
908.621
0
VERTEX
8
4
10
1842.29
20
922.085
0
VERTEX
8
4
10
1719.8
20
935.644
0
VERTEX
8
4
10
1597.27
20
949.301
0
VERTEX
8
4
10
1474.69
20
963.055
0
VERTEX
8
4
10
1352.07
20
976.907
0
VERTEX
8
4
10
1229.4
20
990.859
0
VERTEX
8
4
10
1106.69
20
1004.91
0
VERTEX
8
4
10
983.934
20
1019.06
0
VERTEX
8
4
10
861.129
20
1033.31
0
VERTEX
8
4
10
738.277
20
1047.67
0
VERTEX
8
4
10
615.375
20
1062.13
0
VERTEX
8
4
10
492.427
20
1076.69
0
VERTEX
8
4
10
369.431
20
1091.35
0
VERTEX
8
4
10
246.386
20
1106.12
0
VERTEX
8
4
10
123.291
20
1120.99
0
VERTEX
8
4
10
-14.9275
20
1137.81
0
VERTEX
8
4
10
-14.9275
20
1137.81
0
SEQEND
0
POLYLINE
8
5
62
5
66
1
6
CONTINUOUS
0
VERTEX
8
5
10
0.135537
20
1456.15
0
VERTEX
8
5
10
0.112951
20
1456.18
0
VERTEX
8
5
10
0.0903597
20
1456.21
0
VERTEX
8
5
10
0.0677695
20
1456.24
0
VERTEX
8
5
10
0.0451807
20
1456.27
0
VERTEX
8
5
10
0.022586
20
1456.3
0
VERTEX
8
5
10
0
20
1456.33
0
VERTEX
8
5
10
121.797
20
1455.25
0
VERTEX
8
5
10
243.539
20
1454.28
0
VERTEX
8
5
10
365.203
20
1453.44
0
VERTEX
8
5
10
486.791
20
1452.71
0
VERTEX
8
5
10
608.303
20
1452.1
0
VERTEX
8
5
10
729.744
20
1451.61
0
VERTEX
8
5
10
851.111
20
1451.23
0
VERTEX
8
5
10
972.408
20
1450.97
0
VERTEX
8
5
10
1093.64
20
1450.82
0
VERTEX
8
5
10
1214.8
20
1450.78
0
VERTEX
8
5
10
1335.89
20
1450.85
0
VERTEX
8
5
10
1456.92
20
1451.03
0
VERTEX
8
5
10
1577.89
20
1451.33
0
VERTEX
8
5
10
1698.8
20
1451.73
0
VERTEX
8
5
10
1819.65
20
1452.23
0
VERTEX
8
5
10
1940.44
20
1452.85
0
VERTEX
8
5
10
2061.17
20
1453.57
0
VERTEX
8
5
10
2181.85
20
1454.39
0
VERTEX
8
5
10
2302.47
20
1455.31
0
VERTEX
8
5
10
2423.05
20
1456.33
0
VERTEX
8
5
10
2422.47
20
1416.32
0
VERTEX
8
5
10
2421.89
20
1376.32
0
VERTEX
8
5
10
2421.3
20
1336.33
0
VERTEX
8
5
10
2420.71
20
1296.34
0
VERTEX
8
5
10
2420.11
20
1256.36
0
VERTEX
8
5
10
2419.5
20
1216.4
0
VERTEX
8
5
10
2298.99
20
1227.38
0
VERTEX
8
5
10
2178.44
20
1238.47
0
VERTEX
8
5
10
2057.84
20
1249.65
0
VERTEX
8
5
10
1937.21
20
1260.93
0
VERTEX
8
5
10
1816.52
20
1272.32
0
VERTEX
8
5
10
1695.79
20
1283.81
0
VERTEX
8
5
10
1575.01
20
1295.4
0
VERTEX
8
5
10
1454.19
20
1307.1
0
VERTEX
8
5
10
1333.31
20
1318.91
0
VERTEX
8
5
10
1212.38
20
1330.83
0
VERTEX
8
5
10
1091.4
20
1342.86
0
VERTEX
8
5
10
970.373
20
1354.99
0
VERTEX
8
5
10
849.289
20
1367.24
0
VERTEX
8
5
10
728.15
20
1379.6
0
VERTEX
8
5
10
606.955
20
1392.07
0
VERTEX
8
5
10
485.704
20
1404.65
0
VERTEX
8
5
10
364.397
20
1417.35
0
VERTEX
8
5
10
243.031
20
1430.17
0
VERTEX
8
5
10
121.605
20
1443.1
0
VERTEX
8
5
10
0.135537
20
1456.15
0
VERTEX
8
5
10
0.135537
20
1456.15
0
SEQEND
0
POLYLINE
8
5
62
1
66
1
6
CONTINUOUS
0
VERTEX
8
5
10
-13.3416
20
1457.6
0
VERTEX
8
5
10
-7.9887
20
1450.32
0
VERTEX
8
5
10
-8.01136
20
1450.35
0
VERTEX
8
5
10
-8.0332
20
1450.38
0
VERTEX
8
5
10
-27.2955
20
1476.58
0
VERTEX
8
5
10
121.975
20
1475.25
0
VERTEX
8
5
10
243.698
20
1474.28
0
VERTEX
8
5
10
365.342
20
1473.44
0
VERTEX
8
5
10
486.91
20
1472.71
0
VERTEX
8
5
10
608.404
20
1472.1
0
VERTEX
8
5
10
729.825
20
1471.61
0
VERTEX
8
5
10
851.173
20
1471.23
0
VERTEX
8
5
10
972.452
20
1470.97
0
VERTEX
8
5
10
1093.66
20
1470.82
0
VERTEX
8
5
10
1214.8
20
1470.78
0
VERTEX
8
5
10
1335.88
20
1470.85
0
VERTEX
8
5
10
1456.89
20
1471.03
0
VERTEX
8
5
10
1577.85
20
1471.33
0
VERTEX
8
5
10
1698.73
20
1471.73
0
VERTEX
8
5
10
1819.56
20
1472.23
0
VERTEX
8
5
10
1940.34
20
1472.85
0
VERTEX
8
5
10
2061.05
20
1473.56
0
VERTEX
8
5
10
2181.71
20
1474.39
0
VERTEX
8
5
10
2302.32
20
1475.31
0
VERTEX
8
5
10
2423.34
20
1476.34
0
VERTEX
8
5
10
2422.47
20
1416.32
0
VERTEX
8
5
10
2421.89
20
1376.32
0
VERTEX
8
5
10
2421.3
20
1336.33
0
VERTEX
8
5
10
2420.71
20
1296.34
0
VERTEX
8
5
10
2420.11
20
1256.36
0
VERTEX
8
5
10
2419.5
20
1216.4
0
VERTEX
8
5
10
2298.99
20
1227.38
0
VERTEX
8
5
10
2178.44
20
1238.47
0
VERTEX
8
5
10
2057.84
20
1249.65
0
VERTEX
8
5
10
1937.21
20
1260.93
0
VERTEX
8
5
10
1816.52
20
1272.32
0
VERTEX
8
5
10
1695.79
20
1283.81
0
VERTEX
8
5
10
1575.01
20
1295.4
0
VERTEX
8
5
10
1454.19
20
1307.1
0
VERTEX
8
5
10
1333.31
20
1318.91
0
VERTEX
8
5
10
1212.38
20
1330.83
0
VERTEX
8
5
10
1091.4
20
1342.86
0
VERTEX
8
5
10
970.373
20
1354.99
0
VERTEX
8
5
10
849.289
20
1367.24
0
VERTEX
8
5
10
728.15
20
1379.6
0
VERTEX
8
5
10
606.955
20
1392.07
0
VERTEX
8
5
10
485.704
20
1404.65
0
VERTEX
8
5
10
364.397
20
1417.35
0
VERTEX
8
5
10
243.031
20
1430.17
0
VERTEX
8
5
10
121.605
20
1443.1
0
VERTEX
8
5
10
-13.3416
20
1457.6
0
VERTEX
8
5
10
-13.3416
20
1457.6
0
SEQEND
0
POLYLINE
8
6
62
5
66
1
6
CONTINUOUS
0
VERTEX
8
6
10
0.116762
20
1775.14
0
VERTEX
8
6
10
0.0973055
20
1775.18
0
VERTEX
8
6
10
0.0778477
20
1775.21
0
VERTEX
8
6
10
0.058389
20
1775.24
0
VERTEX
8
6
10
0.0389221
20
1775.27
0
VERTEX
8
6
10
0.0194615
20
1775.31
0
VERTEX
8
6
10
0
20
1775.34
0
VERTEX
8
6
10
122.446
20
1773.02
0
VERTEX
8
6
10
244.856
20
1770.94
0
VERTEX
8
6
10
367.198
20
1769.12
0
VERTEX
8
6
10
489.474
20
1767.54
0
VERTEX
8
6
10
611.686
20
1766.22
0
VERTEX
8
6
10
733.835
20
1765.14
0
VERTEX
8
6
10
855.924
20
1764.31
0
VERTEX
8
6
10
977.953
20
1763.73
0
VERTEX
8
6
10
1099.93
20
1763.39
0
VERTEX
8
6
10
1221.84
20
1763.29
0
VERTEX
8
6
10
1343.7
20
1763.43
0
VERTEX
8
6
10
1465.52
20
1763.82
0
VERTEX
8
6
10
1587.28
20
1764.44
0
VERTEX
8
6
10
1708.99
20
1765.3
0
VERTEX
8
6
10
1830.65
20
1766.39
0
VERTEX
8
6
10
1952.27
20
1767.72
0
VERTEX
8
6
10
2073.85
20
1769.28
0
VERTEX
8
6
10
2195.39
20
1771.07
0
VERTEX
8
6
10
2316.88
20
1773.09
0
VERTEX
8
6
10
2438.34
20
1775.34
0
VERTEX
8
6
10
2433.86
20
1735.52
0
VERTEX
8
6
10
2429.38
20
1695.71
0
VERTEX
8
6
10
2424.89
20
1655.91
0
VERTEX
8
6
10
2420.4
20
1616.13
0
VERTEX
8
6
10
2415.9
20
1576.35
0
VERTEX
8
6
10
2411.39
20
1536.58
0
VERTEX
8
6
10
2291.3
20
1547.42
0
VERTEX
8
6
10
2171.17
20
1558.36
0
VERTEX
8
6
10
2051
20
1569.41
0
VERTEX
8
6
10
1930.78
20
1580.57
0
VERTEX
8
6
10
1810.51
20
1591.85
0
VERTEX
8
6
10
1690.2
20
1603.23
0
VERTEX
8
6
10
1569.84
20
1614.73
0
VERTEX
8
6
10
1449.43
20
1626.34
0
VERTEX
8
6
10
1328.97
20
1638.07
0
VERTEX
8
6
10
1208.46
20
1649.91
0
VERTEX
8
6
10
1087.89
20
1661.88
0
VERTEX
8
6
10
967.262
20
1673.96
0
VERTEX
8
6
10
846.58
20
1686.17
0
VERTEX
8
6
10
725.84
20
1698.5
0
VERTEX
8
6
10
605.039
20
1710.96
0
VERTEX
8
6
10
484.178
20
1723.54
0
VERTEX
8
6
10
363.254
20
1736.25
0
VERTEX
8
6
10
242.266
20
1749.08
0
VERTEX
8
6
10
121.213
20
1762.05
0
VERTEX
8
6
10
0.116762
20
1775.14
0
VERTEX
8
6
10
0.116762
20
1775.14
0
SEQEND
0
POLYLINE
8
6
62
1
66
1
6
CONTINUOUS
0
VERTEX
8
6
10
-12.3154
20
1776.49
0
VERTEX
8
6
10
-8.53722
20
1770.13
0
VERTEX
8
6
10
-8.55625
20
1770.16
0
VERTEX
8
6
10
-8.57639
20
1770.2
0
VERTEX
8
6
10
-35.8213
20
1816.03
0
VERTEX
8
6
10
123.204
20
1813.01
0
VERTEX
8
6
10
245.534
20
1810.93
0
VERTEX
8
6
10
367.794
20
1809.11
0
VERTEX
8
6
10
489.989
20
1807.54
0
VERTEX
8
6
10
612.119
20
1806.22
0
VERTEX
8
6
10
734.188
20
1805.14
0
VERTEX
8
6
10
856.195
20
1804.31
0
VERTEX
8
6
10
978.145
20
1803.73
0
VERTEX
8
6
10
1100.04
20
1803.39
0
VERTEX
8
6
10
1221.87
20
1803.29
0
VERTEX
8
6
10
1343.66
20
1803.43
0
VERTEX
8
6
10
1465.39
20
1803.82
0
VERTEX
8
6
10
1587.07
20
1804.44
0
VERTEX
8
6
10
1708.71
20
1805.3
0
VERTEX
8
6
10
1830.29
20
1806.39
0
VERTEX
8
6
10
1951.84
20
1807.72
0
VERTEX
8
6
10
2073.34
20
1809.28
0
VERTEX
8
6
10
2194.8
20
1811.07
0
VERTEX
8
6
10
2316.22
20
1813.09
0
VERTEX
8
6
10
2442.85
20
1815.43
0
VERTEX
8
6
10
2433.86
20
1735.52
0
VERTEX
8
6
10
2429.38
20
1695.71
0
VERTEX
8
6
10
2424.89
20
1655.91
0
VERTEX
8
6
10
2420.4
20
1616.13
0
VERTEX
8
6
10
2415.9
20
1576.35
0
VERTEX
8
6
10
2411.39
20
1536.58
0
VERTEX
8
6
10
2291.3
20
1547.42
0
VERTEX
8
6
10
2171.17
20
1558.36
0
VERTEX
8
6
10
2051
20
1569.41
0
VERTEX
8
6
10
1930.78
20
1580.57
0
VERTEX
8
6
10
1810.51
20
1591.85
0
VERTEX
8
6
10
1690.2
20
1603.23
0
VERTEX
8
6
10
1569.84
20
1614.73
0
VERTEX
8
6
10
1449.43
20
1626.34
0
VERTEX
8
6
10
1328.97
20
1638.07
0
VERTEX
8
6
10
1208.46
20
1649.91
0
VERTEX
8
6
10
1087.89
20
1661.88
0
VERTEX
8
6
10
967.262
20
1673.96
0
VERTEX
8
6
10
846.58
20
1686.17
0
VERTEX
8
6
10
725.84
20
1698.5
0
VERTEX
8
6
10
605.039
20
1710.96
0
VERTEX
8
6
10
484.178
20
1723.54
0
VERTEX
8
6
10
363.254
20
1736.25
0
VERTEX
8
6
10
242.266
20
1749.08
0
VERTEX
8
6
10
121.213
20
1762.05
0
VERTEX
8
6
10
-12.3154
20
1776.49
0
VERTEX
8
6
10
-12.3154
20
1776.49
0
SEQEND
0
POLYLINE
8
7
62
5
66
1
6
CONTINUOUS
0
VERTEX
8
7
10
2745.38
20
145.61
0
VERTEX
8
7
10
2736.33
20
182.45
0
VERTEX
8
7
10
2726.86
20
218.223
0
VERTEX
8
7
10
2717.18
20
253.069
0
VERTEX
8
7
10
2707.32
20
287.089
0
VERTEX
8
7
10
2697.25
20
320.352
0
VERTEX
8
7
10
2686.88
20
352.902
0
VERTEX
8
7
10
2815.51
20
353.467
0
VERTEX
8
7
10
2944.1
20
353.987
0
VERTEX
8
7
10
3072.64
20
354.458
0
VERTEX
8
7
10
3201.14
20
354.878
0
VERTEX
8
7
10
3329.59
20
355.246
0
VERTEX
8
7
10
3458
20
355.558
0
VERTEX
8
7
10
3586.37
20
355.813
0
VERTEX
8
7
10
3714.7
20
356.008
0
VERTEX
8
7
10
3842.98
20
356.142
0
VERTEX
8
7
10
3971.23
20
356.211
0
VERTEX
8
7
10
4099.44
20
356.237
0
VERTEX
8
7
10
4227.61
20
356.168
0
VERTEX
8
7
10
4355.74
20
356.028
0
VERTEX
8
7
10
4483.83
20
355.816
0
VERTEX
8
7
10
4611.89
20
355.528
0
VERTEX
8
7
10
4739.91
20
355.164
0
VERTEX
8
7
10
4867.9
20
354.722
0
VERTEX
8
7
10
4995.85
20
354.199
0
VERTEX
8
7
10
5123.77
20
353.593
0
VERTEX
8
7
10
5251.67
20
352.902
0
VERTEX
8
7
10
5269.24
20
297.179
0
VERTEX
8
7
10
5286.69
20
240.384
0
VERTEX
8
7
10
5303.78
20
182.368
0
VERTEX
8
7
10
5320.39
20
123.011
0
VERTEX
8
7
10
5336.53
20
62.2316
0
VERTEX
8
7
10
5352.42
20
0
0
VERTEX
8
7
10
5222.48
20
7.35476
0
VERTEX
8
7
10
5092.51
20
14.6939
0
VERTEX
8
7
10
4962.49
20
22.0187
0
VERTEX
8
7
10
4832.43
20
29.3304
0
VERTEX
8
7
10
4702.34
20
36.6302
0
VERTEX
8
7
10
4572.2
20
43.9194
0
VERTEX
8
7
10
4442.01
20
51.1992
0
VERTEX
8
7
10
4311.78
20
58.4709
0
VERTEX
8
7
10
4181.51
20
65.736
0
VERTEX
8
7
10
4051.2
20
72.9957
0
VERTEX
8
7
10
3920.83
20
80.2514
0
VERTEX
8
7
10
3790.42
20
87.5046
0
VERTEX
8
7
10
3659.96
20
94.7565
0
VERTEX
8
7
10
3529.46
20
102.009
0
VERTEX
8
7
10
3398.91
20
109.263
0
VERTEX
8
7
10
3268.3
20
116.52
0
VERTEX
8
7
10
3137.65
20
123.781
0
VERTEX
8
7
10
3006.94
20
131.049
0
VERTEX
8
7
10
2876.19
20
138.325
0
VERTEX
8
7
10
2745.38
20
145.61
0
VERTEX
8
7
10
2745.38
20
145.61
0
SEQEND
0
POLYLINE
8
7
62
1
66
1
6
CONTINUOUS
0
VERTEX
8
7
10
2706.08
20
137.783
0
VERTEX
8
7
10
2697.48
20
172.906
0
VERTEX
8
7
10
2688.19
20
207.995
0
VERTEX
8
7
10
2678.78
20
241.862
0
VERTEX
8
7
10
2668.9
20
275.955
0
VERTEX
8
7
10
2658.96
20
308.766
0
VERTEX
8
7
10
2638.59
20
372.69
0
VERTEX
8
7
10
2815.43
20
373.467
0
VERTEX
8
7
10
2944.02
20
373.987
0
VERTEX
8
7
10
3072.57
20
374.458
0
VERTEX
8
7
10
3201.08
20
374.878
0
VERTEX
8
7
10
3329.54
20
375.246
0
VERTEX
8
7
10
3457.96
20
375.558
0
VERTEX
8
7
10
3586.33
20
375.813
0
VERTEX
8
7
10
3714.67
20
376.008
0
VERTEX
8
7
10
3842.96
20
376.142
0
VERTEX
8
7
10
3971.22
20
376.211
0
VERTEX
8
7
10
4099.44
20
376.237
0
VERTEX
8
7
10
4227.62
20
376.168
0
VERTEX
8
7
10
4355.76
20
376.028
0
VERTEX
8
7
10
4483.86
20
375.816
0
VERTEX
8
7
10
4611.93
20
375.528
0
VERTEX
8
7
10
4739.96
20
375.164
0
VERTEX
8
7
10
4867.96
20
374.722
0
VERTEX
8
7
10
4995.93
20
374.198
0
VERTEX
8
7
10
5123.87
20
373.593
0
VERTEX
8
7
10
5245.35
20
372.936
0
VERTEX
8
7
10
5269.24
20
297.179
0
VERTEX
8
7
10
5286.69
20
240.384
0
VERTEX
8
7
10
5303.78
20
182.368
0
VERTEX
8
7
10
5320.39
20
123.011
0
VERTEX
8
7
10
5336.53
20
62.2316
0
VERTEX
8
7
10
5355.13
20
-10.1695
0
VERTEX
8
7
10
5221.92
20
-2.62934
0
VERTEX
8
7
10
5091.94
20
4.70977
0
VERTEX
8
7
10
4961.93
20
12.0345
0
VERTEX
8
7
10
4831.87
20
19.3461
0
VERTEX
8
7
10
4701.78
20
26.6458
0
VERTEX
8
7
10
4571.64
20
33.935
0
VERTEX
8
7
10
4441.45
20
41.2147
0
VERTEX
8
7
10
4311.23
20
48.4864
0
VERTEX
8
7
10
4180.96
20
55.7514
0
VERTEX
8
7
10
4050.64
20
63.0111
0
VERTEX
8
7
10
3920.28
20
70.2669
0
VERTEX
8
7
10
3789.87
20
77.52
0
VERTEX
8
7
10
3659.41
20
84.7719
0
VERTEX
8
7
10
3528.9
20
92.0241
0
VERTEX
8
7
10
3398.35
20
99.278
0
VERTEX
8
7
10
3267.75
20
106.535
0
VERTEX
8
7
10
3137.09
20
113.797
0
VERTEX
8
7
10
3006.39
20
121.065
0
VERTEX
8
7
10
2875.63
20
128.34
0
VERTEX
8
7
10
2706.08
20
137.783
0
VERTEX
8
7
10
2706.08
20
137.783
0
SEQEND
0
POLYLINE
8
8
62
5
66
1
6
CONTINUOUS
0
VERTEX
8
8
10
2742.32
20
581.293
0
VERTEX
8
8
10
2733.49
20
614.178
0
VERTEX
8
8
10
2724.44
20
646.877
0
VERTEX
8
8
10
2715.25
20
679.423
0
VERTEX
8
8
10
2705.92
20
711.836
0
VERTEX
8
8
10
2696.48
20
744.127
0
VERTEX
8
8
10
2686.88
20
776.302
0
VERTEX
8
8
10
2813.53
20
776.165
0
VERTEX
8
8
10
2940.12
20
776.057
0
VERTEX
8
8
10
3066.67
20
775.977
0
VERTEX
8
8
10
3193.17
20
775.922
0
VERTEX
8
8
10
3319.61
20
775.889
0
VERTEX
8
8
10
3446.01
20
775.876
0
VERTEX
8
8
10
3572.36
20
775.879
0
VERTEX
8
8
10
3698.67
20
775.897
0
VERTEX
8
8
10
3824.93
20
775.927
0
VERTEX
8
8
10
3951.14
20
775.967
0
VERTEX
8
8
10
4077.32
20
776.027
0
VERTEX
8
8
10
4203.44
20
776.075
0
VERTEX
8
8
10
4329.53
20
776.125
0
VERTEX
8
8
10
4455.56
20
776.174
0
VERTEX
8
8
10
4581.56
20
776.22
0
VERTEX
8
8
10
4707.52
20
776.259
0
VERTEX
8
8
10
4833.44
20
776.289
0
VERTEX
8
8
10
4959.32
20
776.308
0
VERTEX
8
8
10
5085.16
20
776.313
0
VERTEX
8
8
10
5210.97
20
776.302
0
VERTEX
8
8
10
5226.9
20
722.232
0
VERTEX
8
8
10
5242.73
20
667.86
0
VERTEX
8
8
10
5258.34
20
613.127
0
VERTEX
8
8
10
5273.66
20
557.988
0
VERTEX
8
8
10
5288.7
20
502.414
0
VERTEX
8
8
10
5303.57
20
446.407
0
VERTEX
8
8
10
5175.86
20
453.226
0
VERTEX
8
8
10
5048.11
20
460.023
0
VERTEX
8
8
10
4920.34
20
466.8
0
VERTEX
8
8
10
4792.53
20
473.559
0
VERTEX
8
8
10
4664.68
20
480.303
0
VERTEX
8
8
10
4536.8
20
487.034
0
VERTEX
8
8
10
4408.88
20
493.755
0
VERTEX
8
8
10
4280.93
20
500.468
0
VERTEX
8
8
10
4152.94
20
507.175
0
VERTEX
8
8
10
4024.9
20
513.868
0
VERTEX
8
8
10
3896.83
20
520.571
0
VERTEX
8
8
10
3768.72
20
527.276
0
VERTEX
8
8
10
3640.57
20
533.985
0
VERTEX
8
8
10
3512.38
20
540.702
0
VERTEX
8
8
10
3384.15
20
547.428
0
VERTEX
8
8
10
3255.87
20
554.166
0
VERTEX
8
8
10
3127.55
20
560.919
0
VERTEX
8
8
10
2999.19
20
567.69
0
VERTEX
8
8
10
2870.78
20
574.48
0
VERTEX
8
8
10
2742.32
20
581.293
0
VERTEX
8
8
10
2742.32
20
581.293
0
SEQEND
0
POLYLINE
8
8
62
1
66
1
6
CONTINUOUS
0
VERTEX
8
8
10
2700.21
20
583.526
0
VERTEX
8
8
10
2694.86
20
603.804
0
VERTEX
8
8
10
2685.89
20
636.21
0
VERTEX
8
8
10
2676.81
20
668.332
0
VERTEX
8
8
10
2667.48
20
700.781
0
VERTEX
8
8
10
2658.09
20
732.894
0
VERTEX
8
8
10
2639.16
20
796.354
0
VERTEX
8
8
10
2813.55
20
796.165
0
VERTEX
8
8
10
2940.14
20
796.057
0
VERTEX
8
8
10
3066.68
20
795.977
0
VERTEX
8
8
10
3193.17
20
795.922
0
VERTEX
8
8
10
3319.62
20
795.889
0
VERTEX
8
8
10
3446.01
20
795.876
0
VERTEX
8
8
10
3572.36
20
795.879
0
VERTEX
8
8
10
3698.66
20
795.897
0
VERTEX
8
8
10
3824.92
20
795.927
0
VERTEX
8
8
10
3951.13
20
795.967
0
VERTEX
8
8
10
4077.31
20
796.027
0
VERTEX
8
8
10
4203.44
20
796.075
0
VERTEX
8
8
10
4329.52
20
796.125
0
VERTEX
8
8
10
4455.56
20
796.174
0
VERTEX
8
8
10
4581.56
20
796.22
0
VERTEX
8
8
10
4707.51
20
796.259
0
VERTEX
8
8
10
4833.43
20
796.289
0
VERTEX
8
8
10
4959.32
20
796.308
0
VERTEX
8
8
10
5085.16
20
796.313
0
VERTEX
8
8
10
5205.07
20
796.303
0
VERTEX
8
8
10
5226.9
20
722.232
0
VERTEX
8
8
10
5242.73
20
667.86
0
VERTEX
8
8
10
5258.34
20
613.127
0
VERTEX
8
8
10
5273.66
20
557.988
0
VERTEX
8
8
10
5288.7
20
502.414
0
VERTEX
8
8
10
5303.57
20
446.407
0
VERTEX
8
8
10
5175.86
20
453.226
0
VERTEX
8
8
10
5048.11
20
460.023
0
VERTEX
8
8
10
4920.34
20
466.8
0
VERTEX
8
8
10
4792.53
20
473.559
0
VERTEX
8
8
10
4664.68
20
480.303
0
VERTEX
8
8
10
4536.8
20
487.034
0
VERTEX
8
8
10
4408.88
20
493.755
0
VERTEX
8
8
10
4280.93
20
500.468
0
VERTEX
8
8
10
4152.94
20
507.175
0
VERTEX
8
8
10
4024.9
20
513.868
0
VERTEX
8
8
10
3896.83
20
520.571
0
VERTEX
8
8
10
3768.72
20
527.276
0
VERTEX
8
8
10
3640.57
20
533.985
0
VERTEX
8
8
10
3512.38
20
540.702
0
VERTEX
8
8
10
3384.15
20
547.428
0
VERTEX
8
8
10
3255.87
20
554.166
0
VERTEX
8
8
10
3127.55
20
560.919
0
VERTEX
8
8
10
2999.19
20
567.69
0
VERTEX
8
8
10
2870.78
20
574.48
0
VERTEX
8
8
10
2700.21
20
583.526
0
VERTEX
8
8
10
2700.21
20
583.526
0
SEQEND
0
POLYLINE
8
9
62
5
66
1
6
CONTINUOUS
0
VERTEX
8
9
10
2735.74
20
987.807
0
VERTEX
8
9
10
2727.79
20
1020.5
0
VERTEX
8
9
10
2719.74
20
1053.21
0
VERTEX
8
9
10
2711.61
20
1085.92
0
VERTEX
8
9
10
2703.43
20
1118.65
0
VERTEX
8
9
10
2695.18
20
1151.38
0
VERTEX
8
9
10
2686.88
20
1184.12
0
VERTEX
8
9
10
2811.7
20
1183.56
0
VERTEX
8
9
10
2936.48
20
1183.08
0
VERTEX
8
9
10
3061.2
20
1182.66
0
VERTEX
8
9
10
3185.88
20
1182.31
0
VERTEX
8
9
10
3310.5
20
1182.02
0
VERTEX
8
9
10
3435.08
20
1181.79
0
VERTEX
8
9
10
3559.62
20
1181.63
0
VERTEX
8
9
10
3684.1
20
1181.52
0
VERTEX
8
9
10
3808.55
20
1181.48
0
VERTEX
8
9
10
3932.94
20
1181.48
0
VERTEX
8
9
10
4057.31
20
1181.54
0
VERTEX
8
9
10
4181.62
20
1181.65
0
VERTEX
8
9
10
4305.88
20
1181.81
0
VERTEX
8
9
10
4430.11
20
1182.02
0
VERTEX
8
9
10
4554.29
20
1182.27
0
VERTEX
8
9
10
4678.44
20
1182.56
0
VERTEX
8
9
10
4802.54
20
1182.89
0
VERTEX
8
9
10
4926.61
20
1183.27
0
VERTEX
8
9
10
5050.63
20
1183.68
0
VERTEX
8
9
10
5174.63
20
1184.12
0
VERTEX
8
9
10
5188.53
20
1129.6
0
VERTEX
8
9
10
5202.36
20
1075.05
0
VERTEX
8
9
10
5216.08
20
1020.46
0
VERTEX
8
9
10
5229.66
20
965.81
0
VERTEX
8
9
10
5243.08
20
911.107
0
VERTEX
8
9
10
5256.39
20
856.354
0
VERTEX
8
9
10
5130.74
20
862.505
0
VERTEX
8
9
10
5005.05
20
868.687
0
VERTEX
8
9
10
4879.32
20
874.903
0
VERTEX
8
9
10
4753.56
20
881.154
0
VERTEX
8
9
10
4627.76
20
887.444
0
VERTEX
8
9
10
4501.92
20
893.774
0
VERTEX
8
9
10
4376.04
20
900.146
0
VERTEX
8
9
10
4250.12
20
906.563
0
VERTEX
8
9
10
4124.16
20
913.026
0
VERTEX
8
9
10
3998.15
20
919.537
0
VERTEX
8
9
10
3872.11
20
926.101
0
VERTEX
8
9
10
3746.02
20
932.717
0
VERTEX
8
9
10
3619.89
20
939.389
0
VERTEX
8
9
10
3493.72
20
946.118
0
VERTEX
8
9
10
3367.51
20
952.906
0
VERTEX
8
9
10
3241.24
20
959.756
0
VERTEX
8
9
10
3114.94
20
966.668
0
VERTEX
8
9
10
2988.58
20
973.646
0
VERTEX
8
9
10
2862.18
20
980.692
0
VERTEX
8
9
10
2735.74
20
987.807
0
VERTEX
8
9
10
2735.74
20
987.807
0
SEQEND
0
POLYLINE
8
9
62
1
66
1
6
CONTINUOUS
0
VERTEX
8
9
10
2693.97
20
990.157
0
VERTEX
8
9
10
2688.92
20
1011.05
0
VERTEX
8
9
10
2680.9
20
1043.65
0
VERTEX
8
9
10
2672.81
20
1076.2
0
VERTEX
8
9
10
2664.62
20
1108.94
0
VERTEX
8
9
10
2656.39
20
1141.61
0
VERTEX
8
9
10
2640.49
20
1204.33
0
VERTEX
8
9
10
2811.79
20
1203.56
0
VERTEX
8
9
10
2936.55
20
1203.08
0
VERTEX
8
9
10
3061.27
20
1202.66
0
VERTEX
8
9
10
3185.93
20
1202.31
0
VERTEX
8
9
10
3310.55
20
1202.02
0
VERTEX
8
9
10
3435.12
20
1201.79
0
VERTEX
8
9
10
3559.64
20
1201.63
0
VERTEX
8
9
10
3684.12
20
1201.52
0
VERTEX
8
9
10
3808.55
20
1201.48
0
VERTEX
8
9
10
3932.94
20
1201.48
0
VERTEX
8
9
10
4057.3
20
1201.54
0
VERTEX
8
9
10
4181.6
20
1201.65
0
VERTEX
8
9
10
4305.86
20
1201.81
0
VERTEX
8
9
10
4430.08
20
1202.02
0
VERTEX
8
9
10
4554.25
20
1202.27
0
VERTEX
8
9
10
4678.39
20
1202.56
0
VERTEX
8
9
10
4802.49
20
1202.89
0
VERTEX
8
9
10
4926.55
20
1203.27
0
VERTEX
8
9
10
5050.57
20
1203.68
0
VERTEX
8
9
10
5169.53
20
1204.1
0
VERTEX
8
9
10
5188.53
20
1129.6
0
VERTEX
8
9
10
5202.36
20
1075.05
0
VERTEX
8
9
10
5216.08
20
1020.46
0
VERTEX
8
9
10
5229.66
20
965.81
0
VERTEX
8
9
10
5243.08
20
911.107
0
VERTEX
8
9
10
5256.39
20
856.354
0
VERTEX
8
9
10
5130.74
20
862.505
0
VERTEX
8
9
10
5005.05
20
868.687
0
VERTEX
8
9
10
4879.32
20
874.903
0
VERTEX
8
9
10
4753.56
20
881.154
0
VERTEX
8
9
10
4627.76
20
887.444
0
VERTEX
8
9
10
4501.92
20
893.774
0
VERTEX
8
9
10
4376.04
20
900.146
0
VERTEX
8
9
10
4250.12
20
906.563
0
VERTEX
8
9
10
4124.16
20
913.026
0
VERTEX
8
9
10
3998.15
20
919.537
0
VERTEX
8
9
10
3872.11
20
926.101
0
VERTEX
8
9
10
3746.02
20
932.717
0
VERTEX
8
9
10
3619.89
20
939.389
0
VERTEX
8
9
10
3493.72
20
946.118
0
VERTEX
8
9
10
3367.51
20
952.906
0
VERTEX
8
9
10
3241.24
20
959.756
0
VERTEX
8
9
10
3114.94
20
966.668
0
VERTEX
8
9
10
2988.58
20
973.646
0
VERTEX
8
9
10
2862.18
20
980.692
0
VERTEX
8
9
10
2693.97
20
990.157
0
VERTEX
8
9
10
2693.97
20
990.157
0
SEQEND
0
POLYLINE
8
10
62
5
66
1
6
CONTINUOUS
0
VERTEX
8
10
10
2704.19
20
1576.72
0
VERTEX
8
10
10
2701.34
20
1599.95
0
VERTEX
8
10
10
2698.47
20
1623.18
0
VERTEX
8
10
10
2695.59
20
1646.42
0
VERTEX
8
10
10
2692.7
20
1669.67
0
VERTEX
8
10
10
2689.79
20
1692.93
0
VERTEX
8
10
10
2686.88
20
1716.2
0
VERTEX
8
10
10
2808.63
20
1715.46
0
VERTEX
8
10
10
2930.32
20
1714.8
0
VERTEX
8
10
10
3051.97
20
1714.22
0
VERTEX
8
10
10
3173.58
20
1713.73
0
VERTEX
8
10
10
3295.13
20
1713.32
0
VERTEX
8
10
10
3416.65
20
1712.99
0
VERTEX
8
10
10
3538.11
20
1712.74
0
VERTEX
8
10
10
3659.54
20
1712.57
0
VERTEX
8
10
10
3780.92
20
1712.48
0
VERTEX
8
10
10
3902.26
20
1712.46
0
VERTEX
8
10
10
4023.57
20
1712.52
0
VERTEX
8
10
10
4144.83
20
1712.65
0
VERTEX
8
10
10
4266.05
20
1712.85
0
VERTEX
8
10
10
4387.23
20
1713.13
0
VERTEX
8
10
10
4508.37
20
1713.48
0
VERTEX
8
10
10
4629.48
20
1713.89
0
VERTEX
8
10
10
4750.56
20
1714.37
0
VERTEX
8
10
10
4871.6
20
1714.92
0
VERTEX
8
10
10
4992.61
20
1715.53
0
VERTEX
8
10
10
5113.59
20
1716.2
0
VERTEX
8
10
10
5123.55
20
1640.74
0
VERTEX
8
10
10
5133.47
20
1565.34
0
VERTEX
8
10
10
5143.33
20
1489.98
0
VERTEX
8
10
10
5153.08
20
1414.69
0
VERTEX
8
10
10
5162.71
20
1339.47
0
VERTEX
8
10
10
5172.23
20
1264.33
0
VERTEX
8
10
10
5049.14
20
1279.24
0
VERTEX
8
10
10
4926.02
20
1294.21
0
VERTEX
8
10
10
4802.87
20
1309.25
0
VERTEX
8
10
10
4679.69
20
1324.37
0
VERTEX
8
10
10
4556.48
20
1339.55
0
VERTEX
8
10
10
4433.23
20
1354.8
0
VERTEX
8
10
10
4309.96
20
1370.13
0
VERTEX
8
10
10
4186.65
20
1385.54
0
VERTEX
8
10
10
4063.31
20
1401.02
0
VERTEX
8
10
10
3939.92
20
1416.58
0
VERTEX
8
10
10
3816.51
20
1432.22
0
VERTEX
8
10
10
3693.06
20
1447.94
0
VERTEX
8
10
10
3569.58
20
1463.74
0
VERTEX
8
10
10
3446.07
20
1479.62
0
VERTEX
8
10
10
3322.51
20
1495.59
0
VERTEX
8
10
10
3198.92
20
1511.64
0
VERTEX
8
10
10
3075.3
20
1527.78
0
VERTEX
8
10
10
2951.63
20
1544
0
VERTEX
8
10
10
2827.93
20
1560.32
0
VERTEX
8
10
10
2704.19
20
1576.72
0
VERTEX
8
10
10
2704.19
20
1576.72
0
SEQEND
0
POLYLINE
8
10
62
1
66
1
6
CONTINUOUS
0
VERTEX
8
10
10
2663.21
20
1582.16
0
VERTEX
8
10
10
2661.64
20
1595.08
0
VERTEX
8
10
10
2658.77
20
1618.28
0
VERTEX
8
10
10
2655.9
20
1641.48
0
VERTEX
8
10
10
2653.01
20
1664.73
0
VERTEX
8
10
10
2650.1
20
1687.98
0
VERTEX
8
10
10
2644.03
20
1736.46
0
VERTEX
8
10
10
2808.75
20
1735.46
0
VERTEX
8
10
10
2930.43
20
1734.8
0
VERTEX
8
10
10
3052.07
20
1734.22
0
VERTEX
8
10
10
3173.66
20
1733.73
0
VERTEX
8
10
10
3295.2
20
1733.32
0
VERTEX
8
10
10
3416.7
20
1732.99
0
VERTEX
8
10
10
3538.15
20
1732.74
0
VERTEX
8
10
10
3659.57
20
1732.57
0
VERTEX
8
10
10
3780.93
20
1732.48
0
VERTEX
8
10
10
3902.26
20
1732.46
0
VERTEX
8
10
10
4023.56
20
1732.52
0
VERTEX
8
10
10
4144.8
20
1732.65
0
VERTEX
8
10
10
4266.01
20
1732.85
0
VERTEX
8
10
10
4387.18
20
1733.13
0
VERTEX
8
10
10
4508.32
20
1733.48
0
VERTEX
8
10
10
4629.42
20
1733.89
0
VERTEX
8
10
10
4750.48
20
1734.37
0
VERTEX
8
10
10
4871.51
20
1734.92
0
VERTEX
8
10
10
4992.51
20
1735.53
0
VERTEX
8
10
10
5110.95
20
1736.19
0
VERTEX
8
10
10
5123.55
20
1640.74
0
VERTEX
8
10
10
5133.47
20
1565.34
0
VERTEX
8
10
10
5143.33
20
1489.98
0
VERTEX
8
10
10
5153.08
20
1414.69
0
VERTEX
8
10
10
5162.71
20
1339.47
0
VERTEX
8
10
10
5172.23
20
1264.33
0
VERTEX
8
10
10
5049.14
20
1279.24
0
VERTEX
8
10
10
4926.02
20
1294.21
0
VERTEX
8
10
10
4802.87
20
1309.25
0
VERTEX
8
10
10
4679.69
20
1324.37
0
VERTEX
8
10
10
4556.48
20
1339.55
0
VERTEX
8
10
10
4433.23
20
1354.8
0
VERTEX
8
10
10
4309.96
20
1370.13
0
VERTEX
8
10
10
4186.65
20
1385.54
0
VERTEX
8
10
10
4063.31
20
1401.02
0
VERTEX
8
10
10
3939.92
20
1416.58
0
VERTEX
8
10
10
3816.51
20
1432.22
0
VERTEX
8
10
10
3693.06
20
1447.94
0
VERTEX
8
10
10
3569.58
20
1463.74
0
VERTEX
8
10
10
3446.07
20
1479.62
0
VERTEX
8
10
10
3322.51
20
1495.59
0
VERTEX
8
10
10
3198.92
20
1511.64
0
VERTEX
8
10
10
3075.3
20
1527.78
0
VERTEX
8
10
10
2951.63
20
1544
0
VERTEX
8
10
10
2827.93
20
1560.32
0
VERTEX
8
10
10
2663.21
20
1582.16
0
VERTEX
8
10
10
2663.21
20
1582.16
0
SEQEND
0
POLYLINE
8
11
62
5
66
1
6
CONTINUOUS
0
VERTEX
8
11
10
2686.88
20
2113.55
0
VERTEX
8
11
10
2687.03
20
2137
0
VERTEX
8
11
10
2687.18
20
2160.47
0
VERTEX
8
11
10
2687.32
20
2183.94
0
VERTEX
8
11
10
2687.46
20
2207.41
0
VERTEX
8
11
10
2687.59
20
2230.9
0
VERTEX
8
11
10
2687.72
20
2254.38
0
VERTEX
8
11
10
2808.33
20
2253.52
0
VERTEX
8
11
10
2928.89
20
2252.75
0
VERTEX
8
11
10
3049.4
20
2252.07
0
VERTEX
8
11
10
3169.86
20
2251.5
0
VERTEX
8
11
10
3290.28
20
2251.02
0
VERTEX
8
11
10
3410.65
20
2250.63
0
VERTEX
8
11
10
3530.98
20
2250.33
0
VERTEX
8
11
10
3651.27
20
2250.13
0
VERTEX
8
11
10
3771.51
20
2250.01
0
VERTEX
8
11
10
3891.72
20
2249.99
0
VERTEX
8
11
10
4011.89
20
2250.05
0
VERTEX
8
11
10
4132.03
20
2250.19
0
VERTEX
8
11
10
4252.13
20
2250.43
0
VERTEX
8
11
10
4372.19
20
2250.75
0
VERTEX
8
11
10
4492.23
20
2251.16
0
VERTEX
8
11
10
4612.23
20
2251.64
0
VERTEX
8
11
10
4732.2
20
2252.21
0
VERTEX
8
11
10
4852.15
20
2252.86
0
VERTEX
8
11
10
4972.07
20
2253.58
0
VERTEX
8
11
10
5091.97
20
2254.38
0
VERTEX
8
11
10
5092.14
20
2177.97
0
VERTEX
8
11
10
5092.3
20
2101.59
0
VERTEX
8
11
10
5092.46
20
2025.24
0
VERTEX
8
11
10
5092.59
20
1948.93
0
VERTEX
8
11
10
5092.7
20
1872.67
0
VERTEX
8
11
10
5092.78
20
1796.46
0
VERTEX
8
11
10
4972.74
20
1811.51
0
VERTEX
8
11
10
4852.68
20
1826.64
0
VERTEX
8
11
10
4732.6
20
1841.85
0
VERTEX
8
11
10
4612.49
20
1857.14
0
VERTEX
8
11
10
4492.36
20
1872.51
0
VERTEX
8
11
10
4372.2
20
1887.96
0
VERTEX
8
11
10
4252.02
20
1903.49
0
VERTEX
8
11
10
4131.81
20
1919.11
0
VERTEX
8
11
10
4011.57
20
1934.82
0
VERTEX
8
11
10
3891.3
20
1950.62
0
VERTEX
8
11
10
3771
20
1966.5
0
VERTEX
8
11
10
3650.67
20
1982.47
0
VERTEX
8
11
10
3530.31
20
1998.53
0
VERTEX
8
11
10
3409.93
20
2014.68
0
VERTEX
8
11
10
3289.5
20
2030.93
0
VERTEX
8
11
10
3169.05
20
2047.26
0
VERTEX
8
11
10
3048.56
20
2063.69
0
VERTEX
8
11
10
2928.04
20
2080.21
0
VERTEX
8
11
10
2807.48
20
2096.83
0
VERTEX
8
11
10
2686.88
20
2113.55
0
VERTEX
8
11
10
2686.88
20
2113.55
0
SEQEND
0
POLYLINE
8
11
62
1
66
1
6
CONTINUOUS
0
VERTEX
8
11
10
2646.91
20
2119.09
0
VERTEX
8
11
10
2647.03
20
2137.27
0
VERTEX
8
11
10
2647.18
20
2160.72
0
VERTEX
8
11
10
2647.32
20
2184.17
0
VERTEX
8
11
10
2647.46
20
2207.65
0
VERTEX
8
11
10
2647.59
20
2231.12
0
VERTEX
8
11
10
2647.83
20
2274.67
0
VERTEX
8
11
10
2808.47
20
2273.52
0
VERTEX
8
11
10
2929.02
20
2272.75
0
VERTEX
8
11
10
3049.51
20
2272.07
0
VERTEX
8
11
10
3169.96
20
2271.5
0
VERTEX
8
11
10
3290.36
20
2271.02
0
VERTEX
8
11
10
3410.72
20
2270.63
0
VERTEX
8
11
10
3531.03
20
2270.33
0
VERTEX
8
11
10
3651.3
20
2270.13
0
VERTEX
8
11
10
3771.53
20
2270.01
0
VERTEX
8
11
10
3891.73
20
2269.99
0
VERTEX
8
11
10
4011.88
20
2270.05
0
VERTEX
8
11
10
4132.01
20
2270.19
0
VERTEX
8
11
10
4252.09
20
2270.43
0
VERTEX
8
11
10
4372.14
20
2270.75
0
VERTEX
8
11
10
4492.16
20
2271.16
0
VERTEX
8
11
10
4612.15
20
2271.64
0
VERTEX
8
11
10
4732.11
20
2272.21
0
VERTEX
8
11
10
4852.04
20
2272.86
0
VERTEX
8
11
10
4971.95
20
2273.58
0
VERTEX
8
11
10
5091.92
20
2274.38
0
VERTEX
8
11
10
5092.14
20
2177.97
0
VERTEX
8
11
10
5092.3
20
2101.59
0
VERTEX
8
11
10
5092.46
20
2025.24
0
VERTEX
8
11
10
5092.59
20
1948.93
0
VERTEX
8
11
10
5092.7
20
1872.67
0
VERTEX
8
11
10
5092.78
20
1796.46
0
VERTEX
8
11
10
4972.74
20
1811.51
0
VERTEX
8
11
10
4852.68
20
1826.64
0
VERTEX
8
11
10
4732.6
20
1841.85
0
VERTEX
8
11
10
4612.49
20
1857.14
0
VERTEX
8
11
10
4492.36
20
1872.51
0
VERTEX
8
11
10
4372.2
20
1887.96
0
VERTEX
8
11
10
4252.02
20
1903.49
0
VERTEX
8
11
10
4131.81
20
1919.11
0
VERTEX
8
11
10
4011.57
20
1934.82
0
VERTEX
8
11
10
3891.3
20
1950.62
0
VERTEX
8
11
10
3771
20
1966.5
0
VERTEX
8
11
10
3650.67
20
1982.47
0
VERTEX
8
11
10
3530.31
20
1998.53
0
VERTEX
8
11
10
3409.93
20
2014.68
0
VERTEX
8
11
10
3289.5
20
2030.93
0
VERTEX
8
11
10
3169.05
20
2047.26
0
VERTEX
8
11
10
3048.56
20
2063.69
0
VERTEX
8
11
10
2928.04
20
2080.21
0
VERTEX
8
11
10
2807.48
20
2096.83
0
VERTEX
8
11
10
2646.91
20
2119.09
0
VERTEX
8
11
10
2646.91
20
2119.09
0
SEQEND
0
POLYLINE
8
12
62
5
66
1
6
CONTINUOUS
0
VERTEX
8
12
10
2686.88
20
2510.59
0
VERTEX
8
12
10
2690.01
20
2550.43
0
VERTEX
8
12
10
2693.14
20
2590.29
0
VERTEX
8
12
10
2696.26
20
2630.16
0
VERTEX
8
12
10
2699.38
20
2670.04
0
VERTEX
8
12
10
2702.49
20
2709.92
0
VERTEX
8
12
10
2705.59
20
2749.82
0
VERTEX
8
12
10
2826.37
20
2748.91
0
VERTEX
8
12
10
2947.11
20
2748.1
0
VERTEX
8
12
10
3067.8
20
2747.4
0
VERTEX
8
12
10
3188.44
20
2746.8
0
VERTEX
8
12
10
3309.04
20
2746.3
0
VERTEX
8
12
10
3429.6
20
2745.89
0
VERTEX
8
12
10
3550.12
20
2745.59
0
VERTEX
8
12
10
3670.61
20
2745.38
0
VERTEX
8
12
10
3791.06
20
2745.26
0
VERTEX
8
12
10
3911.47
20
2745.24
0
VERTEX
8
12
10
4031.85
20
2745.3
0
VERTEX
8
12
10
4152.2
20
2745.46
0
VERTEX
8
12
10
4272.52
20
2745.71
0
VERTEX
8
12
10
4392.82
20
2746.04
0
VERTEX
8
12
10
4513.09
20
2746.47
0
VERTEX
8
12
10
4633.33
20
2746.97
0
VERTEX
8
12
10
4753.56
20
2747.56
0
VERTEX
8
12
10
4873.76
20
2748.24
0
VERTEX
8
12
10
4993.94
20
2748.99
0
VERTEX
8
12
10
5114.11
20
2749.82
0
VERTEX
8
12
10
5109.21
20
2680.59
0
VERTEX
8
12
10
5104.31
20
2611.37
0
VERTEX
8
12
10
5099.41
20
2542.17
0
VERTEX
8
12
10
5094.5
20
2472.98
0
VERTEX
8
12
10
5089.6
20
2403.82
0
VERTEX
8
12
10
5084.69
20
2334.67
0
VERTEX
8
12
10
4965.05
20
2342.64
0
VERTEX
8
12
10
4845.4
20
2350.68
0
VERTEX
8
12
10
4725.72
20
2358.81
0
VERTEX
8
12
10
4606.03
20
2367.02
0
VERTEX
8
12
10
4486.31
20
2375.31
0
VERTEX
8
12
10
4366.57
20
2383.69
0
VERTEX
8
12
10
4246.8
20
2392.15
0
VERTEX
8
12
10
4127.01
20
2400.7
0
VERTEX
8
12
10
4007.18
20
2409.34
0
VERTEX
8
12
10
3887.33
20
2418.07
0
VERTEX
8
12
10
3767.45
20
2426.89
0
VERTEX
8
12
10
3647.53
20
2435.81
0
VERTEX
8
12
10
3527.58
20
2444.81
0
VERTEX
8
12
10
3407.6
20
2453.91
0
VERTEX
8
12
10
3287.58
20
2463.11
0
VERTEX
8
12
10
3167.52
20
2472.41
0
VERTEX
8
12
10
3047.42
20
2481.8
0
VERTEX
8
12
10
2927.28
20
2491.29
0
VERTEX
8
12
10
2807.1
20
2500.89
0
VERTEX
8
12
10
2686.88
20
2510.59
0
VERTEX
8
12
10
2686.88
20
2510.59
0
SEQEND
0
POLYLINE
8
12
62
1
66
1
6
CONTINUOUS
0
VERTEX
8
12
10
2647.01
20
2513.81
0
VERTEX
8
12
10
2650.14
20
2553.57
0
VERTEX
8
12
10
2653.26
20
2593.42
0
VERTEX
8
12
10
2656.38
20
2633.27
0
VERTEX
8
12
10
2659.5
20
2673.15
0
VERTEX
8
12
10
2662.61
20
2713.03
0
VERTEX
8
12
10
2667.05
20
2770.11
0
VERTEX
8
12
10
2826.52
20
2768.91
0
VERTEX
8
12
10
2947.24
20
2768.1
0
VERTEX
8
12
10
3067.91
20
2767.4
0
VERTEX
8
12
10
3188.54
20
2766.8
0
VERTEX
8
12
10
3309.13
20
2766.3
0
VERTEX
8
12
10
3429.67
20
2765.89
0
VERTEX
8
12
10
3550.17
20
2765.59
0
VERTEX
8
12
10
3670.64
20
2765.38
0
VERTEX
8
12
10
3791.07
20
2765.26
0
VERTEX
8
12
10
3911.47
20
2765.24
0
VERTEX
8
12
10
4031.84
20
2765.3
0
VERTEX
8
12
10
4152.18
20
2765.46
0
VERTEX
8
12
10
4272.48
20
2765.71
0
VERTEX
8
12
10
4392.76
20
2766.04
0
VERTEX
8
12
10
4513.02
20
2766.47
0
VERTEX
8
12
10
4633.25
20
2766.97
0
VERTEX
8
12
10
4753.46
20
2767.56
0
VERTEX
8
12
10
4873.65
20
2768.24
0
VERTEX
8
12
10
4993.82
20
2768.99
0
VERTEX
8
12
10
5115.52
20
2769.83
0
VERTEX
8
12
10
5109.21
20
2680.59
0
VERTEX
8
12
10
5104.31
20
2611.37
0
VERTEX
8
12
10
5099.41
20
2542.17
0
VERTEX
8
12
10
5094.5
20
2472.98
0
VERTEX
8
12
10
5089.6
20
2403.82
0
VERTEX
8
12
10
5084.69
20
2334.67
0
VERTEX
8
12
10
4965.05
20
2342.64
0
VERTEX
8
12
10
4845.4
20
2350.68
0
VERTEX
8
12
10
4725.72
20
2358.81
0
VERTEX
8
12
10
4606.03
20
2367.02
0
VERTEX
8
12
10
4486.31
20
2375.31
0
VERTEX
8
12
10
4366.57
20
2383.69
0
VERTEX
8
12
10
4246.8
20
2392.15
0
VERTEX
8
12
10
4127.01
20
2400.7
0
VERTEX
8
12
10
4007.18
20
2409.34
0
VERTEX
8
12
10
3887.33
20
2418.07
0
VERTEX
8
12
10
3767.45
20
2426.89
0
VERTEX
8
12
10
3647.53
20
2435.81
0
VERTEX
8
12
10
3527.58
20
2444.81
0
VERTEX
8
12
10
3407.6
20
2453.91
0
VERTEX
8
12
10
3287.58
20
2463.11
0
VERTEX
8
12
10
3167.52
20
2472.41
0
VERTEX
8
12
10
3047.42
20
2481.8
0
VERTEX
8
12
10
2927.28
20
2491.29
0
VERTEX
8
12
10
2807.1
20
2500.89
0
VERTEX
8
12
10
2647.01
20
2513.81
0
VERTEX
8
12
10
2647.01
20
2513.81
0
SEQEND
0
POLYLINE
8
13
62
5
66
1
6
CONTINUOUS
0
VERTEX
8
13
10
2686.88
20
3005
0
VERTEX
8
13
10
2692.87
20
3044.57
0
VERTEX
8
13
10
2698.85
20
3084.16
0
VERTEX
8
13
10
2704.82
20
3123.75
0
VERTEX
8
13
10
2710.8
20
3163.35
0
VERTEX
8
13
10
2716.77
20
3202.96
0
VERTEX
8
13
10
2722.73
20
3242.59
0
VERTEX
8
13
10
2844.16
20
3240.53
0
VERTEX
8
13
10
2965.56
20
3238.69
0
VERTEX
8
13
10
3086.94
20
3237.08
0
VERTEX
8
13
10
3208.3
20
3235.7
0
VERTEX
8
13
10
3329.64
20
3234.53
0
VERTEX
8
13
10
3450.96
20
3233.59
0
VERTEX
8
13
10
3572.26
20
3232.86
0
VERTEX
8
13
10
3693.55
20
3232.35
0
VERTEX
8
13
10
3814.83
20
3232.06
0
VERTEX
8
13
10
3936.1
20
3231.98
0
VERTEX
8
13
10
4057.35
20
3232.11
0
VERTEX
8
13
10
4178.61
20
3232.46
0
VERTEX
8
13
10
4299.85
20
3233.01
0
VERTEX
8
13
10
4421.09
20
3233.77
0
VERTEX
8
13
10
4542.33
20
3234.74
0
VERTEX
8
13
10
4663.58
20
3235.91
0
VERTEX
8
13
10
4784.82
20
3237.28
0
VERTEX
8
13
10
4906.07
20
3238.85
0
VERTEX
8
13
10
5027.32
20
3240.62
0
VERTEX
8
13
10
5148.59
20
3242.59
0
VERTEX
8
13
10
5138.66
20
3173.8
0
VERTEX
8
13
10
5128.73
20
3105.03
0
VERTEX
8
13
10
5118.81
20
3036.28
0
VERTEX
8
13
10
5108.89
20
2967.54
0
VERTEX
8
13
10
5098.96
20
2898.82
0
VERTEX
8
13
10
5089.04
20
2830.11
0
VERTEX
8
13
10
4969.13
20
2838.02
0
VERTEX
8
13
10
4849.21
20
2846.01
0
VERTEX
8
13
10
4729.28
20
2854.08
0
VERTEX
8
13
10
4609.33
20
2862.23
0
VERTEX
8
13
10
4489.37
20
2870.46
0
VERTEX
8
13
10
4369.38
20
2878.78
0
VERTEX
8
13
10
4249.38
20
2887.18
0
VERTEX
8
13
10
4129.36
20
2895.67
0
VERTEX
8
13
10
4009.32
20
2904.26
0
VERTEX
8
13
10
3889.25
20
2912.93
0
VERTEX
8
13
10
3769.15
20
2921.69
0
VERTEX
8
13
10
3649.03
20
2930.55
0
VERTEX
8
13
10
3528.88
20
2939.51
0
VERTEX
8
13
10
3408.7
20
2948.56
0
VERTEX
8
13
10
3288.49
20
2957.71
0
VERTEX
8
13
10
3168.24
20
2966.96
0
VERTEX
8
13
10
3047.96
20
2976.31
0
VERTEX
8
13
10
2927.64
20
2985.77
0
VERTEX
8
13
10
2807.28
20
2995.33
0
VERTEX
8
13
10
2686.88
20
3005
0
VERTEX
8
13
10
2686.88
20
3005
0
SEQEND
0
POLYLINE
8
13
62
1
66
1
6
CONTINUOUS
0
VERTEX
8
13
10
2646.91
20
3008.21
0
VERTEX
8
13
10
2653.32
20
3050.56
0
VERTEX
8
13
10
2659.3
20
3090.13
0
VERTEX
8
13
10
2665.27
20
3129.71
0
VERTEX
8
13
10
2671.25
20
3169.32
0
VERTEX
8
13
10
2677.21
20
3208.92
0
VERTEX
8
13
10
2688.39
20
3283.18
0
VERTEX
8
13
10
2844.84
20
3280.52
0
VERTEX
8
13
10
2966.17
20
3278.69
0
VERTEX
8
13
10
3087.47
20
3277.08
0
VERTEX
8
13
10
3208.76
20
3275.69
0
VERTEX
8
13
10
3330.02
20
3274.53
0
VERTEX
8
13
10
3451.27
20
3273.59
0
VERTEX
8
13
10
3572.5
20
3272.86
0
VERTEX
8
13
10
3693.72
20
3272.35
0
VERTEX
8
13
10
3814.93
20
3272.06
0
VERTEX
8
13
10
3936.12
20
3271.98
0
VERTEX
8
13
10
4057.31
20
3272.11
0
VERTEX
8
13
10
4178.49
20
3272.46
0
VERTEX
8
13
10
4299.67
20
3273.01
0
VERTEX
8
13
10
4420.84
20
3273.77
0
VERTEX
8
13
10
4542.02
20
3274.74
0
VERTEX
8
13
10
4663.19
20
3275.9
0
VERTEX
8
13
10
4784.37
20
3277.28
0
VERTEX
8
13
10
4905.55
20
3278.85
0
VERTEX
8
13
10
5026.74
20
3280.62
0
VERTEX
8
13
10
5154.37
20
3282.69
0
VERTEX
8
13
10
5138.66
20
3173.8
0
VERTEX
8
13
10
5128.73
20
3105.03
0
VERTEX
8
13
10
5118.81
20
3036.28
0
VERTEX
8
13
10
5108.89
20
2967.54
0
VERTEX
8
13
10
5098.96
20
2898.82
0
VERTEX
8
13
10
5089.04
20
2830.11
0
VERTEX
8
13
10
4969.13
20
2838.02
0
VERTEX
8
13
10
4849.21
20
2846.01
0
VERTEX
8
13
10
4729.28
20
2854.08
0
VERTEX
8
13
10
4609.33
20
2862.23
0
VERTEX
8
13
10
4489.37
20
2870.46
0
VERTEX
8
13
10
4369.38
20
2878.78
0
VERTEX
8
13
10
4249.38
20
2887.18
0
VERTEX
8
13
10
4129.36
20
2895.67
0
VERTEX
8
13
10
4009.32
20
2904.26
0
VERTEX
8
13
10
3889.25
20
2912.93
0
VERTEX
8
13
10
3769.15
20
2921.69
0
VERTEX
8
13
10
3649.03
20
2930.55
0
VERTEX
8
13
10
3528.88
20
2939.51
0
VERTEX
8
13
10
3408.7
20
2948.56
0
VERTEX
8
13
10
3288.49
20
2957.71
0
VERTEX
8
13
10
3168.24
20
2966.96
0
VERTEX
8
13
10
3047.96
20
2976.31
0
VERTEX
8
13
10
2927.64
20
2985.77
0
VERTEX
8
13
10
2807.28
20
2995.33
0
VERTEX
8
13
10
2646.91
20
3008.21
0
VERTEX
8
13
10
2646.91
20
3008.21
0
SEQEND
0
POLYLINE
8
14
62
5
66
1
6
CONTINUOUS
0
VERTEX
8
14
10
5529.03
20
54.9622
0
VERTEX
8
14
10
5510.45
20
116.408
0
VERTEX
8
14
10
5491.52
20
176.354
0
VERTEX
8
14
10
5472.52
20
234.985
0
VERTEX
8
14
10
5453.54
20
292.414
0
VERTEX
8
14
10
5434.48
20
348.696
0
VERTEX
8
14
10
5415.13
20
403.842
0
VERTEX
8
14
10
5544.01
20
404.882
0
VERTEX
8
14
10
5672.87
20
405.784
0
VERTEX
8
14
10
5801.7
20
406.588
0
VERTEX
8
14
10
5930.51
20
407.291
0
VERTEX
8
14
10
6059.29
20
407.893
0
VERTEX
8
14
10
6188.06
20
408.392
0
VERTEX
8
14
10
6316.81
20
408.786
0
VERTEX
8
14
10
6445.54
20
409.075
0
VERTEX
8
14
10
6574.25
20
409.256
0
VERTEX
8
14
10
6702.95
20
409.33
0
VERTEX
8
14
10
6831.63
20
409.294
0
VERTEX
8
14
10
6960.31
20
409.18
0
VERTEX
8
14
10
7088.96
20
408.915
0
VERTEX
8
14
10
7217.61
20
408.537
0
VERTEX
8
14
10
7346.25
20
408.045
0
VERTEX
8
14
10
7474.88
20
407.438
0
VERTEX
8
14
10
7603.5
20
406.715
0
VERTEX
8
14
10
7732.11
20
405.876
0
VERTEX
8
14
10
7860.72
20
404.92
0
VERTEX
8
14
10
7989.33
20
403.842
0
VERTEX
8
14
10
8012.07
20
339.04
0
VERTEX
8
14
10
8034.82
20
273.329
0
VERTEX
8
14
10
8057.46
20
206.619
0
VERTEX
8
14
10
8079.9
20
138.846
0
VERTEX
8
14
10
8102.16
20
69.9721
0
VERTEX
8
14
10
8124.39
20
0
0
VERTEX
8
14
10
7994.89
20
3.06205
0
VERTEX
8
14
10
7865.37
20
6.08464
0
VERTEX
8
14
10
7735.83
20
9.06877
0
VERTEX
8
14
10
7606.26
20
12.0154
0
VERTEX
8
14
10
7476.66
20
14.9257
0
VERTEX
8
14
10
7347.04
20
17.8005
0
VERTEX
8
14
10
7217.38
20
20.641
0
VERTEX
8
14
10
7087.7
20
23.4482
0
VERTEX
8
14
10
6957.99
20
26.2234
0
VERTEX
8
14
10
6828.25
20
28.9677
0
VERTEX
8
14
10
6698.48
20
31.682
0
VERTEX
8
14
10
6568.68
20
34.3676
0
VERTEX
8
14
10
6438.84
20
37.0256
0
VERTEX
8
14
10
6308.97
20
39.6573
0
VERTEX
8
14
10
6179.07
20
42.2637
0
VERTEX
8
14
10
6049.14
20
44.8462
0
VERTEX
8
14
10
5919.16
20
47.406
0
VERTEX
8
14
10
5789.16
20
49.9443
0
VERTEX
8
14
10
5659.11
20
52.4625
0
VERTEX
8
14
10
5529.03
20
54.9622
0
VERTEX
8
14
10
5529.03
20
54.9622
0
SEQEND
0
POLYLINE
8
14
62
1
66
1
6
CONTINUOUS
0
VERTEX
8
14
10
5490.01
20
45.7101
0
VERTEX
8
14
10
5472.16
20
104.83
0
VERTEX
8
14
10
5453.38
20
164.31
0
VERTEX
8
14
10
5434.57
20
222.366
0
VERTEX
8
14
10
5415.56
20
279.86
0
VERTEX
8
14
10
5396.59
20
335.866
0
VERTEX
8
14
10
5365.86
20
423.445
0
VERTEX
8
14
10
5543.85
20
424.882
0
VERTEX
8
14
10
5672.73
20
425.784
0
VERTEX
8
14
10
5801.57
20
426.588
0
VERTEX
8
14
10
5930.4
20
427.291
0
VERTEX
8
14
10
6059.2
20
427.893
0
VERTEX
8
14
10
6187.98
20
428.392
0
VERTEX
8
14
10
6316.75
20
428.786
0
VERTEX
8
14
10
6445.49
20
429.075
0
VERTEX
8
14
10
6574.22
20
429.256
0
VERTEX
8
14
10
6702.94
20
429.33
0
VERTEX
8
14
10
6831.64
20
429.294
0
VERTEX
8
14
10
6960.32
20
429.18
0
VERTEX
8
14
10
7089
20
428.915
0
VERTEX
8
14
10
7217.67
20
428.537
0
VERTEX
8
14
10
7346.32
20
428.045
0
VERTEX
8
14
10
7474.97
20
427.438
0
VERTEX
8
14
10
7603.61
20
426.715
0
VERTEX
8
14
10
7732.24
20
425.876
0
VERTEX
8
14
10
7860.87
20
424.919
0
VERTEX
8
14
10
7982.29
20
423.902
0
VERTEX
8
14
10
8012.07
20
339.04
0
VERTEX
8
14
10
8034.82
20
273.329
0
VERTEX
8
14
10
8057.46
20
206.619
0
VERTEX
8
14
10
8079.9
20
138.846
0
VERTEX
8
14
10
8102.16
20
69.9721
0
VERTEX
8
14
10
8127.65
20
-10.08
0
VERTEX
8
14
10
7994.66
20
-6.93523
0
VERTEX
8
14
10
7865.14
20
-3.91271
0
VERTEX
8
14
10
7735.6
20
-0.928641
0
VERTEX
8
14
10
7606.03
20
2.01797
0
VERTEX
8
14
10
7476.44
20
4.92814
0
VERTEX
8
14
10
7346.82
20
7.80291
0
VERTEX
8
14
10
7217.17
20
10.6433
0
VERTEX
8
14
10
7087.49
20
13.4505
0
VERTEX
8
14
10
6957.78
20
16.2257
0
VERTEX
8
14
10
6828.04
20
18.9698
0
VERTEX
8
14
10
6698.27
20
21.6841
0
VERTEX
8
14
10
6568.47
20
24.3697
0
VERTEX
8
14
10
6438.64
20
27.0277
0
VERTEX
8
14
10
6308.77
20
29.6593
0
VERTEX
8
14
10
6178.87
20
32.2657
0
VERTEX
8
14
10
6048.94
20
34.8481
0
VERTEX
8
14
10
5918.97
20
37.4079
0
VERTEX
8
14
10
5788.96
20
39.9462
0
VERTEX
8
14
10
5658.92
20
42.4643
0
VERTEX
8
14
10
5490.01
20
45.7101
0
VERTEX
8
14
10
5490.01
20
45.7101
0
SEQEND
0
POLYLINE
8
15
62
5
66
1
6
CONTINUOUS
0
VERTEX
8
15
10
5527.14
20
555.523
0
VERTEX
8
15
10
5508.78
20
610.492
0
VERTEX
8
15
10
5490.22
20
664.992
0
VERTEX
8
15
10
5471.58
20
719.101
0
VERTEX
8
15
10
5452.89
20
772.857
0
VERTEX
8
15
10
5434.1
20
826.274
0
VERTEX
8
15
10
5415.13
20
879.343
0
VERTEX
8
15
10
5543.18
20
879.843
0
VERTEX
8
15
10
5671.2
20
880.332
0
VERTEX
8
15
10
5799.18
20
880.759
0
VERTEX
8
15
10
5927.13
20
881.146
0
VERTEX
8
15
10
6055.04
20
881.49
0
VERTEX
8
15
10
6182.93
20
881.787
0
VERTEX
8
15
10
6310.79
20
882.034
0
VERTEX
8
15
10
6438.62
20
882.229
0
VERTEX
8
15
10
6566.43
20
882.367
0
VERTEX
8
15
10
6694.21
20
882.446
0
VERTEX
8
15
10
6821.97
20
882.464
0
VERTEX
8
15
10
6949.72
20
882.447
0
VERTEX
8
15
10
7077.45
20
882.325
0
VERTEX
8
15
10
7205.15
20
882.133
0
VERTEX
8
15
10
7332.84
20
881.867
0
VERTEX
8
15
10
7460.51
20
881.524
0
VERTEX
8
15
10
7588.18
20
881.103
0
VERTEX
8
15
10
7715.83
20
880.601
0
VERTEX
8
15
10
7843.47
20
880.015
0
VERTEX
8
15
10
7971.1
20
879.343
0
VERTEX
8
15
10
7992.88
20
817.23
0
VERTEX
8
15
10
8014.66
20
754.687
0
VERTEX
8
15
10
8036.34
20
691.66
0
VERTEX
8
15
10
8057.89
20
628.112
0
VERTEX
8
15
10
8079.33
20
564.025
0
VERTEX
8
15
10
8100.75
20
499.41
0
VERTEX
8
15
10
7972.18
20
502.855
0
VERTEX
8
15
10
7843.61
20
506.22
0
VERTEX
8
15
10
7715.04
20
509.508
0
VERTEX
8
15
10
7586.46
20
512.719
0
VERTEX
8
15
10
7457.86
20
515.856
0
VERTEX
8
15
10
7329.26
20
518.922
0
VERTEX
8
15
10
7200.65
20
521.918
0
VERTEX
8
15
10
7072.02
20
524.847
0
VERTEX
8
15
10
6943.38
20
527.687
0
VERTEX
8
15
10
6814.73
20
530.484
0
VERTEX
8
15
10
6686.06
20
533.22
0
VERTEX
8
15
10
6557.37
20
535.899
0
VERTEX
8
15
10
6428.67
20
538.521
0
VERTEX
8
15
10
6299.95
20
541.091
0
VERTEX
8
15
10
6171.2
20
543.611
0
VERTEX
8
15
10
6042.44
20
546.082
0
VERTEX
8
15
10
5913.65
20
548.508
0
VERTEX
8
15
10
5784.84
20
550.892
0
VERTEX
8
15
10
5656.01
20
553.235
0
VERTEX
8
15
10
5527.14
20
555.523
0
VERTEX
8
15
10
5527.14
20
555.523
0
SEQEND
0
POLYLINE
8
15
62
1
66
1
6
CONTINUOUS
0
VERTEX
8
15
10
5484.64
20
556.277
0
VERTEX
8
15
10
5470.84
20
597.825
0
VERTEX
8
15
10
5452.36
20
652.096
0
VERTEX
8
15
10
5433.81
20
705.933
0
VERTEX
8
15
10
5415.11
20
759.721
0
VERTEX
8
15
10
5396.37
20
813.005
0
VERTEX
8
15
10
5365.57
20
899.15
0
VERTEX
8
15
10
5543.1
20
899.842
0
VERTEX
8
15
10
5671.12
20
900.332
0
VERTEX
8
15
10
5799.11
20
900.759
0
VERTEX
8
15
10
5927.07
20
901.146
0
VERTEX
8
15
10
6054.99
20
901.49
0
VERTEX
8
15
10
6182.88
20
901.787
0
VERTEX
8
15
10
6310.75
20
902.034
0
VERTEX
8
15
10
6438.59
20
902.229
0
VERTEX
8
15
10
6566.41
20
902.367
0
VERTEX
8
15
10
6694.2
20
902.446
0
VERTEX
8
15
10
6821.97
20
902.464
0
VERTEX
8
15
10
6949.73
20
902.447
0
VERTEX
8
15
10
7077.46
20
902.325
0
VERTEX
8
15
10
7205.18
20
902.133
0
VERTEX
8
15
10
7332.88
20
901.867
0
VERTEX
8
15
10
7460.57
20
901.524
0
VERTEX
8
15
10
7588.24
20
901.103
0
VERTEX
8
15
10
7715.91
20
900.601
0
VERTEX
8
15
10
7843.56
20
900.015
0
VERTEX
8
15
10
7964.07
20
899.381
0
VERTEX
8
15
10
7992.88
20
817.23
0
VERTEX
8
15
10
8014.66
20
754.687
0
VERTEX
8
15
10
8036.34
20
691.66
0
VERTEX
8
15
10
8057.89
20
628.112
0
VERTEX
8
15
10
8079.33
20
564.025
0
VERTEX
8
15
10
8100.75
20
499.41
0
VERTEX
8
15
10
7972.18
20
502.855
0
VERTEX
8
15
10
7843.61
20
506.22
0
VERTEX
8
15
10
7715.04
20
509.508
0
VERTEX
8
15
10
7586.46
20
512.719
0
VERTEX
8
15
10
7457.86
20
515.856
0
VERTEX
8
15
10
7329.26
20
518.922
0
VERTEX
8
15
10
7200.65
20
521.918
0
VERTEX
8
15
10
7072.02
20
524.847
0
VERTEX
8
15
10
6943.38
20
527.687
0
VERTEX
8
15
10
6814.73
20
530.484
0
VERTEX
8
15
10
6686.06
20
533.22
0
VERTEX
8
15
10
6557.37
20
535.899
0
VERTEX
8
15
10
6428.67
20
538.521
0
VERTEX
8
15
10
6299.95
20
541.091
0
VERTEX
8
15
10
6171.2
20
543.611
0
VERTEX
8
15
10
6042.44
20
546.082
0
VERTEX
8
15
10
5913.65
20
548.508
0
VERTEX
8
15
10
5784.84
20
550.892
0
VERTEX
8
15
10
5656.01
20
553.235
0
VERTEX
8
15
10
5484.64
20
556.277
0
VERTEX
8
15
10
5484.64
20
556.277
0
SEQEND
0
POLYLINE
8
16
62
5
66
1
6
CONTINUOUS
0
VERTEX
8
16
10
5524.26
20
1013.31
0
VERTEX
8
16
10
5506.3
20
1066.73
0
VERTEX
8
16
10
5488.21
20
1120.07
0
VERTEX
8
16
10
5470.05
20
1173.37
0
VERTEX
8
16
10
5451.83
20
1226.63
0
VERTEX
8
16
10
5433.53
20
1279.85
0
VERTEX
8
16
10
5415.13
20
1333.01
0
VERTEX
8
16
10
5542.42
20
1332.95
0
VERTEX
8
16
10
5669.67
20
1332.93
0
VERTEX
8
16
10
5796.88
20
1332.92
0
VERTEX
8
16
10
5924.05
20
1332.94
0
VERTEX
8
16
10
6051.18
20
1332.97
0
VERTEX
8
16
10
6178.28
20
1333.02
0
VERTEX
8
16
10
6305.35
20
1333.08
0
VERTEX
8
16
10
6432.38
20
1333.14
0
VERTEX
8
16
10
6559.38
20
1333.2
0
VERTEX
8
16
10
6686.35
20
1333.27
0
VERTEX
8
16
10
6813.3
20
1333.33
0
VERTEX
8
16
10
6940.22
20
1333.39
0
VERTEX
8
16
10
7067.12
20
1333.42
0
VERTEX
8
16
10
7193.99
20
1333.44
0
VERTEX
8
16
10
7320.84
20
1333.44
0
VERTEX
8
16
10
7447.67
20
1333.42
0
VERTEX
8
16
10
7574.48
20
1333.36
0
VERTEX
8
16
10
7701.27
20
1333.28
0
VERTEX
8
16
10
7828.05
20
1333.16
0
VERTEX
8
16
10
7954.82
20
1333.01
0
VERTEX
8
16
10
7975.76
20
1271.7
0
VERTEX
8
16
10
7996.7
20
1210.23
0
VERTEX
8
16
10
8017.56
20
1148.58
0
VERTEX
8
16
10
8038.34
20
1086.74
0
VERTEX
8
16
10
8059.04
20
1024.7
0
VERTEX
8
16
10
8079.73
20
962.464
0
VERTEX
8
16
10
7952.13
20
965.234
0
VERTEX
8
16
10
7824.51
20
967.961
0
VERTEX
8
16
10
7696.89
20
970.649
0
VERTEX
8
16
10
7569.26
20
973.301
0
VERTEX
8
16
10
7441.61
20
975.919
0
VERTEX
8
16
10
7313.94
20
978.506
0
VERTEX
8
16
10
7186.26
20
981.066
0
VERTEX
8
16
10
7058.57
20
983.602
0
VERTEX
8
16
10
6930.84
20
986.101
0
VERTEX
8
16
10
6803.11
20
988.596
0
VERTEX
8
16
10
6675.34
20
991.077
0
VERTEX
8
16
10
6547.56
20
993.547
0
VERTEX
8
16
10
6419.75
20
996.009
0
VERTEX
8
16
10
6291.92
20
998.467
0
VERTEX
8
16
10
6164.05
20
1000.92
0
VERTEX
8
16
10
6036.16
20
1003.38
0
VERTEX
8
16
10
5908.24
20
1005.85
0
VERTEX
8
16
10
5780.28
20
1008.32
0
VERTEX
8
16
10
5652.28
20
1010.81
0
VERTEX
8
16
10
5524.26
20
1013.31
0
VERTEX
8
16
10
5524.26
20
1013.31
0
SEQEND
0
POLYLINE
8
16
62
1
66
1
6
CONTINUOUS
0
VERTEX
8
16
10
5481.74
20
1014.14
0
VERTEX
8
16
10
5468.38
20
1053.98
0
VERTEX
8
16
10
5450.33
20
1107.23
0
VERTEX
8
16
10
5432.21
20
1160.41
0
VERTEX
8
16
10
5413.98
20
1213.68
0
VERTEX
8
16
10
5395.71
20
1266.84
0
VERTEX
8
16
10
5365.87
20
1353.03
0
VERTEX
8
16
10
5542.43
20
1352.95
0
VERTEX
8
16
10
5669.68
20
1352.93
0
VERTEX
8
16
10
5796.88
20
1352.92
0
VERTEX
8
16
10
5924.05
20
1352.94
0
VERTEX
8
16
10
6051.18
20
1352.97
0
VERTEX
8
16
10
6178.27
20
1353.02
0
VERTEX
8
16
10
6305.34
20
1353.08
0
VERTEX
8
16
10
6432.37
20
1353.14
0
VERTEX
8
16
10
6559.37
20
1353.2
0
VERTEX
8
16
10
6686.34
20
1353.27
0
VERTEX
8
16
10
6813.29
20
1353.33
0
VERTEX
8
16
10
6940.21
20
1353.39
0
VERTEX
8
16
10
7067.11
20
1353.42
0
VERTEX
8
16
10
7193.98
20
1353.44
0
VERTEX
8
16
10
7320.84
20
1353.44
0
VERTEX
8
16
10
7447.67
20
1353.42
0
VERTEX
8
16
10
7574.48
20
1353.36
0
VERTEX
8
16
10
7701.28
20
1353.28
0
VERTEX
8
16
10
7828.07
20
1353.16
0
VERTEX
8
16
10
7947.98
20
1353.02
0
VERTEX
8
16
10
7975.76
20
1271.7
0
VERTEX
8
16
10
7996.7
20
1210.23
0
VERTEX
8
16
10
8017.56
20
1148.58
0
VERTEX
8
16
10
8038.34
20
1086.74
0
VERTEX
8
16
10
8059.04
20
1024.7
0
VERTEX
8
16
10
8079.73
20
962.464
0
VERTEX
8
16
10
7952.13
20
965.234
0
VERTEX
8
16
10
7824.51
20
967.961
0
VERTEX
8
16
10
7696.89
20
970.649
0
VERTEX
8
16
10
7569.26
20
973.301
0
VERTEX
8
16
10
7441.61
20
975.919
0
VERTEX
8
16
10
7313.94
20
978.506
0
VERTEX
8
16
10
7186.26
20
981.066
0
VERTEX
8
16
10
7058.57
20
983.602
0
VERTEX
8
16
10
6930.84
20
986.101
0
VERTEX
8
16
10
6803.11
20
988.596
0
VERTEX
8
16
10
6675.34
20
991.077
0
VERTEX
8
16
10
6547.56
20
993.547
0
VERTEX
8
16
10
6419.75
20
996.009
0
VERTEX
8
16
10
6291.92
20
998.467
0
VERTEX
8
16
10
6164.05
20
1000.92
0
VERTEX
8
16
10
6036.16
20
1003.38
0
VERTEX
8
16
10
5908.24
20
1005.85
0
VERTEX
8
16
10
5780.28
20
1008.32
0
VERTEX
8
16
10
5652.28
20
1010.81
0
VERTEX
8
16
10
5481.74
20
1014.14
0
VERTEX
8
16
10
5481.74
20
1014.14
0
SEQEND
0
POLYLINE
8
17
62
5
66
1
6
CONTINUOUS
0
VERTEX
8
17
10
5473.3
20
1770.69
0
VERTEX
8
17
10
5463.71
20
1820.26
0
VERTEX
8
17
10
5454.07
20
1869.87
0
VERTEX
8
17
10
5444.38
20
1919.5
0
VERTEX
8
17
10
5434.67
20
1969.17
0
VERTEX
8
17
10
5424.92
20
2018.86
0
VERTEX
8
17
10
5415.13
20
2068.57
0
VERTEX
8
17
10
5537.59
20
2068.15
0
VERTEX
8
17
10
5660.02
20
2067.78
0
VERTEX
8
17
10
5782.41
20
2067.48
0
VERTEX
8
17
10
5904.78
20
2067.23
0
VERTEX
8
17
10
6027.11
20
2067.03
0
VERTEX
8
17
10
6149.42
20
2066.88
0
VERTEX
8
17
10
6271.7
20
2066.77
0
VERTEX
8
17
10
6393.95
20
2066.71
0
VERTEX
8
17
10
6516.17
20
2066.69
0
VERTEX
8
17
10
6638.38
20
2066.71
0
VERTEX
8
17
10
6760.56
20
2066.77
0
VERTEX
8
17
10
6882.71
20
2066.86
0
VERTEX
8
17
10
7004.86
20
2066.98
0
VERTEX
8
17
10
7126.97
20
2067.14
0
VERTEX
8
17
10
7249.07
20
2067.32
0
VERTEX
8
17
10
7371.15
20
2067.53
0
VERTEX
8
17
10
7493.21
20
2067.76
0
VERTEX
8
17
10
7615.26
20
2068.01
0
VERTEX
8
17
10
7737.3
20
2068.28
0
VERTEX
8
17
10
7859.32
20
2068.57
0
VERTEX
8
17
10
7881
20
1959.39
0
VERTEX
8
17
10
7902.71
20
1850.25
0
VERTEX
8
17
10
7924.28
20
1741.09
0
VERTEX
8
17
10
7945.6
20
1631.89
0
VERTEX
8
17
10
7966.68
20
1522.67
0
VERTEX
8
17
10
7987.74
20
1413.44
0
VERTEX
8
17
10
7862.2
20
1431.04
0
VERTEX
8
17
10
7736.65
20
1448.65
0
VERTEX
8
17
10
7611.08
20
1466.27
0
VERTEX
8
17
10
7485.5
20
1483.91
0
VERTEX
8
17
10
7359.91
20
1501.57
0
VERTEX
8
17
10
7234.3
20
1519.25
0
VERTEX
8
17
10
7108.67
20
1536.95
0
VERTEX
8
17
10
6983.02
20
1554.68
0
VERTEX
8
17
10
6857.34
20
1572.44
0
VERTEX
8
17
10
6731.65
20
1590.24
0
VERTEX
8
17
10
6605.94
20
1608.07
0
VERTEX
8
17
10
6480.2
20
1625.94
0
VERTEX
8
17
10
6354.44
20
1643.86
0
VERTEX
8
17
10
6228.65
20
1661.82
0
VERTEX
8
17
10
6102.83
20
1679.82
0
VERTEX
8
17
10
5976.99
20
1697.88
0
VERTEX
8
17
10
5851.12
20
1715.99
0
VERTEX
8
17
10
5725.21
20
1734.16
0
VERTEX
8
17
10
5599.27
20
1752.4
0
VERTEX
8
17
10
5473.3
20
1770.69
0
VERTEX
8
17
10
5473.3
20
1770.69
0
SEQEND
0
POLYLINE
8
17
62
1
66
1
6
CONTINUOUS
0
VERTEX
8
17
10
5431.37
20
1776.78
0
VERTEX
8
17
10
5424.44
20
1812.67
0
VERTEX
8
17
10
5414.8
20
1862.23
0
VERTEX
8
17
10
5405.13
20
1911.82
0
VERTEX
8
17
10
5395.41
20
1961.49
0
VERTEX
8
17
10
5385.66
20
2011.15
0
VERTEX
8
17
10
5370.39
20
2088.72
0
VERTEX
8
17
10
5537.65
20
2088.15
0
VERTEX
8
17
10
5660.08
20
2087.78
0
VERTEX
8
17
10
5782.46
20
2087.48
0
VERTEX
8
17
10
5904.82
20
2087.23
0
VERTEX
8
17
10
6027.14
20
2087.03
0
VERTEX
8
17
10
6149.44
20
2086.88
0
VERTEX
8
17
10
6271.71
20
2086.77
0
VERTEX
8
17
10
6393.96
20
2086.71
0
VERTEX
8
17
10
6516.18
20
2086.69
0
VERTEX
8
17
10
6638.37
20
2086.71
0
VERTEX
8
17
10
6760.55
20
2086.77
0
VERTEX
8
17
10
6882.7
20
2086.86
0
VERTEX
8
17
10
7004.84
20
2086.98
0
VERTEX
8
17
10
7126.95
20
2087.14
0
VERTEX
8
17
10
7249.04
20
2087.32
0
VERTEX
8
17
10
7371.12
20
2087.53
0
VERTEX
8
17
10
7493.18
20
2087.76
0
VERTEX
8
17
10
7615.22
20
2088.01
0
VERTEX
8
17
10
7737.25
20
2088.28
0
VERTEX
8
17
10
7855.35
20
2088.56
0
VERTEX
8
17
10
7881
20
1959.39
0
VERTEX
8
17
10
7902.71
20
1850.25
0
VERTEX
8
17
10
7924.28
20
1741.09
0
VERTEX
8
17
10
7945.6
20
1631.89
0
VERTEX
8
17
10
7966.68
20
1522.67
0
VERTEX
8
17
10
7987.74
20
1413.44
0
VERTEX
8
17
10
7862.2
20
1431.04
0
VERTEX
8
17
10
7736.65
20
1448.65
0
VERTEX
8
17
10
7611.08
20
1466.27
0
VERTEX
8
17
10
7485.5
20
1483.91
0
VERTEX
8
17
10
7359.91
20
1501.57
0
VERTEX
8
17
10
7234.3
20
1519.25
0
VERTEX
8
17
10
7108.67
20
1536.95
0
VERTEX
8
17
10
6983.02
20
1554.68
0
VERTEX
8
17
10
6857.34
20
1572.44
0
VERTEX
8
17
10
6731.65
20
1590.24
0
VERTEX
8
17
10
6605.94
20
1608.07
0
VERTEX
8
17
10
6480.2
20
1625.94
0
VERTEX
8
17
10
6354.44
20
1643.86
0
VERTEX
8
17
10
6228.65
20
1661.82
0
VERTEX
8
17
10
6102.83
20
1679.82
0
VERTEX
8
17
10
5976.99
20
1697.88
0
VERTEX
8
17
10
5851.12
20
1715.99
0
VERTEX
8
17
10
5725.21
20
1734.16
0
VERTEX
8
17
10
5599.27
20
1752.4
0
VERTEX
8
17
10
5431.37
20
1776.78
0
VERTEX
8
17
10
5431.37
20
1776.78
0
SEQEND
0
POLYLINE
8
18
62
5
66
1
6
CONTINUOUS
0
VERTEX
8
18
10
5428.57
20
2514.41
0
VERTEX
8
18
10
5426.38
20
2565.06
0
VERTEX
8
18
10
5424.16
20
2615.75
0
VERTEX
8
18
10
5421.92
20
2666.47
0
VERTEX
8
18
10
5419.67
20
2717.22
0
VERTEX
8
18
10
5417.4
20
2767.99
0
VERTEX
8
18
10
5415.13
20
2818.79
0
VERTEX
8
18
10
5535.23
20
2818.2
0
VERTEX
8
18
10
5655.31
20
2817.67
0
VERTEX
8
18
10
5775.37
20
2817.21
0
VERTEX
8
18
10
5895.4
20
2816.83
0
VERTEX
8
18
10
6015.41
20
2816.52
0
VERTEX
8
18
10
6135.4
20
2816.27
0
VERTEX
8
18
10
6255.36
20
2816.08
0
VERTEX
8
18
10
6375.31
20
2815.96
0
VERTEX
8
18
10
6495.25
20
2815.9
0
VERTEX
8
18
10
6615.16
20
2815.89
0
VERTEX
8
18
10
6735.07
20
2815.95
0
VERTEX
8
18
10
6854.96
20
2816.06
0
VERTEX
8
18
10
6974.84
20
2816.21
0
VERTEX
8
18
10
7094.71
20
2816.44
0
VERTEX
8
18
10
7214.58
20
2816.71
0
VERTEX
8
18
10
7334.43
20
2817.03
0
VERTEX
8
18
10
7454.28
20
2817.4
0
VERTEX
8
18
10
7574.13
20
2817.82
0
VERTEX
8
18
10
7693.97
20
2818.28
0
VERTEX
8
18
10
7813.81
20
2818.79
0
VERTEX
8
18
10
7819.08
20
2706.86
0
VERTEX
8
18
10
7824.37
20
2595.02
0
VERTEX
8
18
10
7829.65
20
2483.28
0
VERTEX
8
18
10
7834.89
20
2371.63
0
VERTEX
8
18
10
7840.08
20
2260.11
0
VERTEX
8
18
10
7845.25
20
2148.72
0
VERTEX
8
18
10
7724.52
20
2166.46
0
VERTEX
8
18
10
7603.79
20
2184.25
0
VERTEX
8
18
10
7483.05
20
2202.09
0
VERTEX
8
18
10
7362.31
20
2219.98
0
VERTEX
8
18
10
7241.55
20
2237.92
0
VERTEX
8
18
10
7120.79
20
2255.91
0
VERTEX
8
18
10
7000.01
20
2273.96
0
VERTEX
8
18
10
6879.22
20
2292.08
0
VERTEX
8
18
10
6758.42
20
2310.25
0
VERTEX
8
18
10
6637.61
20
2328.48
0
VERTEX
8
18
10
6516.78
20
2346.77
0
VERTEX
8
18
10
6395.94
20
2365.12
0
VERTEX
8
18
10
6275.09
20
2383.54
0
VERTEX
8
18
10
6154.21
20
2402.03
0
VERTEX
8
18
10
6033.32
20
2420.58
0
VERTEX
8
18
10
5912.41
20
2439.2
0
VERTEX
8
18
10
5791.49
20
2457.89
0
VERTEX
8
18
10
5670.54
20
2476.65
0
VERTEX
8
18
10
5549.56
20
2495.5
0
VERTEX
8
18
10
5428.57
20
2514.41
0
VERTEX
8
18
10
5428.57
20
2514.41
0
SEQEND
0
POLYLINE
8
18
62
1
66
1
6
CONTINUOUS
0
VERTEX
8
18
10
5388.26
20
2520.71
0
VERTEX
8
18
10
5386.41
20
2563.33
0
VERTEX
8
18
10
5384.19
20
2614
0
VERTEX
8
18
10
5381.96
20
2664.7
0
VERTEX
8
18
10
5379.71
20
2715.45
0
VERTEX
8
18
10
5377.44
20
2766.21
0
VERTEX
8
18
10
5374.18
20
2838.99
0
VERTEX
8
18
10
5535.33
20
2838.2
0
VERTEX
8
18
10
5655.4
20
2837.67
0
VERTEX
8
18
10
5775.45
20
2837.21
0
VERTEX
8
18
10
5895.46
20
2836.83
0
VERTEX
8
18
10
6015.46
20
2836.52
0
VERTEX
8
18
10
6135.44
20
2836.27
0
VERTEX
8
18
10
6255.39
20
2836.08
0
VERTEX
8
18
10
6375.33
20
2835.96
0
VERTEX
8
18
10
6495.26
20
2835.9
0
VERTEX
8
18
10
6615.17
20
2835.89
0
VERTEX
8
18
10
6735.06
20
2835.95
0
VERTEX
8
18
10
6854.94
20
2836.06
0
VERTEX
8
18
10
6974.82
20
2836.21
0
VERTEX
8
18
10
7094.68
20
2836.44
0
VERTEX
8
18
10
7214.53
20
2836.71
0
VERTEX
8
18
10
7334.38
20
2837.03
0
VERTEX
8
18
10
7454.22
20
2837.4
0
VERTEX
8
18
10
7574.06
20
2837.82
0
VERTEX
8
18
10
7693.89
20
2838.28
0
VERTEX
8
18
10
7812.87
20
2838.78
0
VERTEX
8
18
10
7819.08
20
2706.86
0
VERTEX
8
18
10
7824.37
20
2595.02
0
VERTEX
8
18
10
7829.65
20
2483.28
0
VERTEX
8
18
10
7834.89
20
2371.63
0
VERTEX
8
18
10
7840.08
20
2260.11
0
VERTEX
8
18
10
7845.25
20
2148.72
0
VERTEX
8
18
10
7724.52
20
2166.46
0
VERTEX
8
18
10
7603.79
20
2184.25
0
VERTEX
8
18
10
7483.05
20
2202.09
0
VERTEX
8
18
10
7362.31
20
2219.98
0
VERTEX
8
18
10
7241.55
20
2237.92
0
VERTEX
8
18
10
7120.79
20
2255.91
0
VERTEX
8
18
10
7000.01
20
2273.96
0
VERTEX
8
18
10
6879.22
20
2292.08
0
VERTEX
8
18
10
6758.42
20
2310.25
0
VERTEX
8
18
10
6637.61
20
2328.48
0
VERTEX
8
18
10
6516.78
20
2346.77
0
VERTEX
8
18
10
6395.94
20
2365.12
0
VERTEX
8
18
10
6275.09
20
2383.54
0
VERTEX
8
18
10
6154.21
20
2402.03
0
VERTEX
8
18
10
6033.32
20
2420.58
0
VERTEX
8
18
10
5912.41
20
2439.2
0
VERTEX
8
18
10
5791.49
20
2457.89
0
VERTEX
8
18
10
5670.54
20
2476.65
0
VERTEX
8
18
10
5549.56
20
2495.5
0
VERTEX
8
18
10
5388.26
20
2520.71
0
VERTEX
8
18
10
5388.26
20
2520.71
0
SEQEND
0
POLYLINE
8
19
62
5
66
1
6
CONTINUOUS
0
VERTEX
8
19
10
5415.13
20
3265.49
0
VERTEX
8
19
10
5420.66
20
3316.05
0
VERTEX
8
19
10
5426.18
20
3366.64
0
VERTEX
8
19
10
5431.7
20
3417.24
0
VERTEX
8
19
10
5437.21
20
3467.86
0
VERTEX
8
19
10
5442.73
20
3518.5
0
VERTEX
8
19
10
5448.24
20
3569.15
0
VERTEX
8
19
10
5568.75
20
3568.48
0
VERTEX
8
19
10
5689.24
20
3567.89
0
VERTEX
8
19
10
5809.72
20
3567.37
0
VERTEX
8
19
10
5930.18
20
3566.94
0
VERTEX
8
19
10
6050.63
20
3566.59
0
VERTEX
8
19
10
6171.06
20
3566.3
0
VERTEX
8
19
10
6291.49
20
3566.09
0
VERTEX
8
19
10
6411.91
20
3565.95
0
VERTEX
8
19
10
6532.33
20
3565.88
0
VERTEX
8
19
10
6652.74
20
3565.88
0
VERTEX
8
19
10
6773.15
20
3565.94
0
VERTEX
8
19
10
6893.56
20
3566.06
0
VERTEX
8
19
10
7013.97
20
3566.25
0
VERTEX
8
19
10
7134.39
20
3566.49
0
VERTEX
8
19
10
7254.81
20
3566.8
0
VERTEX
8
19
10
7375.24
20
3567.16
0
VERTEX
8
19
10
7495.68
20
3567.58
0
VERTEX
8
19
10
7616.14
20
3568.06
0
VERTEX
8
19
10
7736.6
20
3568.58
0
VERTEX
8
19
10
7857.08
20
3569.15
0
VERTEX
8
19
10
7845.14
20
3457.32
0
VERTEX
8
19
10
7833.22
20
3345.54
0
VERTEX
8
19
10
7821.31
20
3233.81
0
VERTEX
8
19
10
7809.41
20
3122.13
0
VERTEX
8
19
10
7797.52
20
3010.52
0
VERTEX
8
19
10
7785.65
20
2898.99
0
VERTEX
8
19
10
7667.12
20
2916.73
0
VERTEX
8
19
10
7548.61
20
2934.52
0
VERTEX
8
19
10
7430.1
20
2952.36
0
VERTEX
8
19
10
7311.59
20
2970.26
0
VERTEX
8
19
10
7193.09
20
2988.21
0
VERTEX
8
19
10
7074.58
20
3006.23
0
VERTEX
8
19
10
6956.08
20
3024.3
0
VERTEX
8
19
10
6837.58
20
3042.46
0
VERTEX
8
19
10
6719.08
20
3060.66
0
VERTEX
8
19
10
6600.58
20
3078.93
0
VERTEX
8
19
10
6482.07
20
3097.26
0
VERTEX
8
19
10
6363.56
20
3115.66
0
VERTEX
8
19
10
6245.04
20
3134.13
0
VERTEX
8
19
10
6126.51
20
3152.67
0
VERTEX
8
19
10
6007.97
20
3171.28
0
VERTEX
8
19
10
5889.43
20
3189.97
0
VERTEX
8
19
10
5770.87
20
3208.73
0
VERTEX
8
19
10
5652.3
20
3227.58
0
VERTEX
8
19
10
5533.72
20
3246.49
0
VERTEX
8
19
10
5415.13
20
3265.49
0
VERTEX
8
19
10
5415.13
20
3265.49
0
SEQEND
0
POLYLINE
8
19
62
1
66
1
6
CONTINUOUS
0
VERTEX
8
19
10
5375.58
20
3271.82
0
VERTEX
8
19
10
5380.89
20
3320.4
0
VERTEX
8
19
10
5386.42
20
3370.98
0
VERTEX
8
19
10
5391.93
20
3421.57
0
VERTEX
8
19
10
5397.45
20
3472.2
0
VERTEX
8
19
10
5402.96
20
3522.83
0
VERTEX
8
19
10
5410.2
20
3589.36
0
VERTEX
8
19
10
5568.86
20
3588.48
0
VERTEX
8
19
10
5689.34
20
3587.89
0
VERTEX
8
19
10
5809.8
20
3587.37
0
VERTEX
8
19
10
5930.25
20
3586.94
0
VERTEX
8
19
10
6050.68
20
3586.59
0
VERTEX
8
19
10
6171.11
20
3586.3
0
VERTEX
8
19
10
6291.53
20
3586.09
0
VERTEX
8
19
10
6411.93
20
3585.95
0
VERTEX
8
19
10
6532.34
20
3585.88
0
VERTEX
8
19
10
6652.74
20
3585.88
0
VERTEX
8
19
10
6773.14
20
3585.94
0
VERTEX
8
19
10
6893.54
20
3586.06
0
VERTEX
8
19
10
7013.94
20
3586.25
0
VERTEX
8
19
10
7134.35
20
3586.49
0
VERTEX
8
19
10
7254.76
20
3586.8
0
VERTEX
8
19
10
7375.18
20
3587.16
0
VERTEX
8
19
10
7495.61
20
3587.58
0
VERTEX
8
19
10
7616.06
20
3588.05
0
VERTEX
8
19
10
7736.51
20
3588.58
0
VERTEX
8
19
10
7859.22
20
3589.16
0
VERTEX
8
19
10
7845.14
20
3457.32
0
VERTEX
8
19
10
7833.22
20
3345.54
0
VERTEX
8
19
10
7821.31
20
3233.81
0
VERTEX
8
19
10
7809.41
20
3122.13
0
VERTEX
8
19
10
7797.52
20
3010.52
0
VERTEX
8
19
10
7785.65
20
2898.99
0
VERTEX
8
19
10
7667.12
20
2916.73
0
VERTEX
8
19
10
7548.61
20
2934.52
0
VERTEX
8
19
10
7430.1
20
2952.36
0
VERTEX
8
19
10
7311.59
20
2970.26
0
VERTEX
8
19
10
7193.09
20
2988.21
0
VERTEX
8
19
10
7074.58
20
3006.23
0
VERTEX
8
19
10
6956.08
20
3024.3
0
VERTEX
8
19
10
6837.58
20
3042.46
0
VERTEX
8
19
10
6719.08
20
3060.66
0
VERTEX
8
19
10
6600.58
20
3078.93
0
VERTEX
8
19
10
6482.07
20
3097.26
0
VERTEX
8
19
10
6363.56
20
3115.66
0
VERTEX
8
19
10
6245.04
20
3134.13
0
VERTEX
8
19
10
6126.51
20
3152.67
0
VERTEX
8
19
10
6007.97
20
3171.28
0
VERTEX
8
19
10
5889.43
20
3189.97
0
VERTEX
8
19
10
5770.87
20
3208.73
0
VERTEX
8
19
10
5652.3
20
3227.58
0
VERTEX
8
19
10
5533.72
20
3246.49
0
VERTEX
8
19
10
5375.58
20
3271.82
0
VERTEX
8
19
10
5375.58
20
3271.82
0
SEQEND
0
POLYLINE
8
20
62
5
66
1
6
CONTINUOUS
0
VERTEX
8
20
10
5415.13
20
3729.31
0
VERTEX
8
20
10
5424.9
20
3797.94
0
VERTEX
8
20
10
5434.67
20
3866.59
0
VERTEX
8
20
10
5444.44
20
3935.25
0
VERTEX
8
20
10
5454.2
20
4003.94
0
VERTEX
8
20
10
5463.97
20
4072.64
0
VERTEX
8
20
10
5473.74
20
4141.35
0
VERTEX
8
20
10
5594.64
20
4140.71
0
VERTEX
8
20
10
5715.52
20
4140.14
0
VERTEX
8
20
10
5836.41
20
4139.64
0
VERTEX
8
20
10
5957.28
20
4139.23
0
VERTEX
8
20
10
6078.15
20
4138.89
0
VERTEX
8
20
10
6199.01
20
4138.62
0
VERTEX
8
20
10
6319.88
20
4138.42
0
VERTEX
8
20
10
6440.74
20
4138.28
0
VERTEX
8
20
10
6561.61
20
4138.22
0
VERTEX
8
20
10
6682.49
20
4138.22
0
VERTEX
8
20
10
6803.37
20
4138.28
0
VERTEX
8
20
10
6924.25
20
4138.4
0
VERTEX
8
20
10
7045.15
20
4138.58
0
VERTEX
8
20
10
7166.06
20
4138.82
0
VERTEX
8
20
10
7286.99
20
4139.11
0
VERTEX
8
20
10
7407.93
20
4139.46
0
VERTEX
8
20
10
7528.89
20
4139.86
0
VERTEX
8
20
10
7649.87
20
4140.31
0
VERTEX
8
20
10
7770.87
20
4140.81
0
VERTEX
8
20
10
7891.89
20
4141.35
0
VERTEX
8
20
10
7880.33
20
4059.31
0
VERTEX
8
20
10
7868.78
20
3977.29
0
VERTEX
8
20
10
7857.24
20
3895.28
0
VERTEX
8
20
10
7845.7
20
3813.29
0
VERTEX
8
20
10
7834.17
20
3731.32
0
VERTEX
8
20
10
7822.64
20
3649.36
0
VERTEX
8
20
10
7702.21
20
3652.8
0
VERTEX
8
20
10
7581.79
20
3656.28
0
VERTEX
8
20
10
7461.39
20
3659.81
0
VERTEX
8
20
10
7341.01
20
3663.4
0
VERTEX
8
20
10
7220.63
20
3667.03
0
VERTEX
8
20
10
7100.26
20
3670.73
0
VERTEX
8
20
10
6979.91
20
3674.49
0
VERTEX
8
20
10
6859.55
20
3678.3
0
VERTEX
8
20
10
6739.2
20
3682.17
0
VERTEX
8
20
10
6618.86
20
3686.11
0
VERTEX
8
20
10
6498.51
20
3690.11
0
VERTEX
8
20
10
6378.17
20
3694.17
0
VERTEX
8
20
10
6257.82
20
3698.31
0
VERTEX
8
20
10
6137.46
20
3702.51
0
VERTEX
8
20
10
6017.1
20
3706.79
0
VERTEX
8
20
10
5896.73
20
3711.14
0
VERTEX
8
20
10
5776.35
20
3715.56
0
VERTEX
8
20
10
5655.96
20
3720.07
0
VERTEX
8
20
10
5535.55
20
3724.65
0
VERTEX
8
20
10
5415.13
20
3729.31
0
VERTEX
8
20
10
5415.13
20
3729.31
0
SEQEND
0
POLYLINE
8
20
62
1
66
1
6
CONTINUOUS
0
VERTEX
8
20
10
5374.95
20
3730.87
0
VERTEX
8
20
10
5385.3
20
3803.58
0
VERTEX
8
20
10
5395.07
20
3872.22
0
VERTEX
8
20
10
5404.84
20
3940.88
0
VERTEX
8
20
10
5414.6
20
4009.57
0
VERTEX
8
20
10
5424.37
20
4078.27
0
VERTEX
8
20
10
5436.2
20
4161.55
0
VERTEX
8
20
10
5594.74
20
4160.71
0
VERTEX
8
20
10
5715.62
20
4160.14
0
VERTEX
8
20
10
5836.49
20
4159.64
0
VERTEX
8
20
10
5957.35
20
4159.23
0
VERTEX
8
20
10
6078.21
20
4158.89
0
VERTEX
8
20
10
6199.06
20
4158.62
0
VERTEX
8
20
10
6319.91
20
4158.42
0
VERTEX
8
20
10
6440.77
20
4158.28
0
VERTEX
8
20
10
6561.62
20
4158.22
0
VERTEX
8
20
10
6682.49
20
4158.22
0
VERTEX
8
20
10
6803.36
20
4158.28
0
VERTEX
8
20
10
6924.23
20
4158.4
0
VERTEX
8
20
10
7045.12
20
4158.58
0
VERTEX
8
20
10
7166.02
20
4158.82
0
VERTEX
8
20
10
7286.94
20
4159.11
0
VERTEX
8
20
10
7407.87
20
4159.46
0
VERTEX
8
20
10
7528.82
20
4159.86
0
VERTEX
8
20
10
7649.79
20
4160.31
0
VERTEX
8
20
10
7770.78
20
4160.81
0
VERTEX
8
20
10
7894.71
20
4161.37
0
VERTEX
8
20
10
7880.33
20
4059.31
0
VERTEX
8
20
10
7868.78
20
3977.29
0
VERTEX
8
20
10
7857.24
20
3895.28
0
VERTEX
8
20
10
7845.7
20
3813.29
0
VERTEX
8
20
10
7834.17
20
3731.32
0
VERTEX
8
20
10
7822.64
20
3649.36
0
VERTEX
8
20
10
7702.21
20
3652.8
0
VERTEX
8
20
10
7581.79
20
3656.28
0
VERTEX
8
20
10
7461.39
20
3659.81
0
VERTEX
8
20
10
7341.01
20
3663.4
0
VERTEX
8
20
10
7220.63
20
3667.03
0
VERTEX
8
20
10
7100.26
20
3670.73
0
VERTEX
8
20
10
6979.91
20
3674.49
0
VERTEX
8
20
10
6859.55
20
3678.3
0
VERTEX
8
20
10
6739.2
20
3682.17
0
VERTEX
8
20
10
6618.86
20
3686.11
0
VERTEX
8
20
10
6498.51
20
3690.11
0
VERTEX
8
20
10
6378.17
20
3694.17
0
VERTEX
8
20
10
6257.82
20
3698.31
0
VERTEX
8
20
10
6137.46
20
3702.51
0
VERTEX
8
20
10
6017.1
20
3706.79
0
VERTEX
8
20
10
5896.73
20
3711.14
0
VERTEX
8
20
10
5776.35
20
3715.56
0
VERTEX
8
20
10
5655.96
20
3720.07
0
VERTEX
8
20
10
5535.55
20
3724.65
0
VERTEX
8
20
10
5374.95
20
3730.87
0
VERTEX
8
20
10
5374.95
20
3730.87
0
SEQEND
0
POLYLINE
8
21
62
5
66
1
6
CONTINUOUS
0
VERTEX
8
21
10
5415.13
20
4301.06
0
VERTEX
8
21
10
5427.13
20
4369.43
0
VERTEX
8
21
10
5439.14
20
4437.82
0
VERTEX
8
21
10
5451.14
20
4506.23
0
VERTEX
8
21
10
5463.15
20
4574.65
0
VERTEX
8
21
10
5475.16
20
4643.09
0
VERTEX
8
21
10
5487.16
20
4711.54
0
VERTEX
8
21
10
5608.45
20
4710.03
0
VERTEX
8
21
10
5729.75
20
4708.7
0
VERTEX
8
21
10
5851.07
20
4707.57
0
VERTEX
8
21
10
5972.42
20
4706.63
0
VERTEX
8
21
10
6093.78
20
4705.87
0
VERTEX
8
21
10
6215.17
20
4705.29
0
VERTEX
8
21
10
6336.58
20
4704.86
0
VERTEX
8
21
10
6458.02
20
4704.56
0
VERTEX
8
21
10
6579.48
20
4704.41
0
VERTEX
8
21
10
6700.96
20
4704.4
0
VERTEX
8
21
10
6822.48
20
4704.53
0
VERTEX
8
21
10
6944.02
20
4704.79
0
VERTEX
8
21
10
7065.6
20
4705.19
0
VERTEX
8
21
10
7187.21
20
4705.72
0
VERTEX
8
21
10
7308.86
20
4706.38
0
VERTEX
8
21
10
7430.55
20
4707.16
0
VERTEX
8
21
10
7552.27
20
4708.08
0
VERTEX
8
21
10
7674.04
20
4709.11
0
VERTEX
8
21
10
7795.86
20
4710.27
0
VERTEX
8
21
10
7917.72
20
4711.54
0
VERTEX
8
21
10
7903.41
20
4629.84
0
VERTEX
8
21
10
7889.11
20
4548.15
0
VERTEX
8
21
10
7874.82
20
4466.48
0
VERTEX
8
21
10
7860.53
20
4384.82
0
VERTEX
8
21
10
7846.25
20
4303.18
0
VERTEX
8
21
10
7831.98
20
4221.55
0
VERTEX
8
21
10
7711
20
4225.02
0
VERTEX
8
21
10
7590.05
20
4228.53
0
VERTEX
8
21
10
7469.12
20
4232.08
0
VERTEX
8
21
10
7348.22
20
4235.68
0
VERTEX
8
21
10
7227.33
20
4239.32
0
VERTEX
8
21
10
7106.46
20
4243.01
0
VERTEX
8
21
10
6985.61
20
4246.77
0
VERTEX
8
21
10
6864.77
20
4250.57
0
VERTEX
8
21
10
6743.94
20
4254.42
0
VERTEX
8
21
10
6623.13
20
4258.34
0
VERTEX
8
21
10
6502.32
20
4262.31
0
VERTEX
8
21
10
6381.52
20
4266.34
0
VERTEX
8
21
10
6260.72
20
4270.44
0
VERTEX
8
21
10
6139.93
20
4274.6
0
VERTEX
8
21
10
6019.14
20
4278.83
0
VERTEX
8
21
10
5898.34
20
4283.13
0
VERTEX
8
21
10
5777.55
20
4287.5
0
VERTEX
8
21
10
5656.75
20
4291.95
0
VERTEX
8
21
10
5535.94
20
4296.46
0
VERTEX
8
21
10
5415.13
20
4301.06
0
VERTEX
8
21
10
5415.13
20
4301.06
0
SEQEND
0
POLYLINE
8
21
62
1
66
1
6
CONTINUOUS
0
VERTEX
8
21
10
5374.79
20
4302.59
0
VERTEX
8
21
10
5387.74
20
4376.35
0
VERTEX
8
21
10
5399.74
20
4444.74
0
VERTEX
8
21
10
5411.75
20
4513.14
0
VERTEX
8
21
10
5423.75
20
4581.56
0
VERTEX
8
21
10
5435.76
20
4650
0
VERTEX
8
21
10
5453.64
20
4751.97
0
VERTEX
8
21
10
5608.95
20
4750.02
0
VERTEX
8
21
10
5730.19
20
4748.7
0
VERTEX
8
21
10
5851.45
20
4747.57
0
VERTEX
8
21
10
5972.73
20
4746.63
0
VERTEX
8
21
10
6094.03
20
4745.87
0
VERTEX
8
21
10
6215.37
20
4745.29
0
VERTEX
8
21
10
6336.73
20
4744.86
0
VERTEX
8
21
10
6458.12
20
4744.56
0
VERTEX
8
21
10
6579.53
20
4744.41
0
VERTEX
8
21
10
6700.97
20
4744.4
0
VERTEX
8
21
10
6822.44
20
4744.53
0
VERTEX
8
21
10
6943.94
20
4744.79
0
VERTEX
8
21
10
7065.47
20
4745.19
0
VERTEX
8
21
10
7187.04
20
4745.72
0
VERTEX
8
21
10
7308.64
20
4746.38
0
VERTEX
8
21
10
7430.29
20
4747.16
0
VERTEX
8
21
10
7551.97
20
4748.07
0
VERTEX
8
21
10
7673.7
20
4749.11
0
VERTEX
8
21
10
7795.48
20
4750.27
0
VERTEX
8
21
10
7924.73
20
4751.62
0
VERTEX
8
21
10
7903.41
20
4629.84
0
VERTEX
8
21
10
7889.11
20
4548.15
0
VERTEX
8
21
10
7874.82
20
4466.48
0
VERTEX
8
21
10
7860.53
20
4384.82
0
VERTEX
8
21
10
7846.25
20
4303.18
0
VERTEX
8
21
10
7831.98
20
4221.55
0
VERTEX
8
21
10
7711
20
4225.02
0
VERTEX
8
21
10
7590.05
20
4228.53
0
VERTEX
8
21
10
7469.12
20
4232.08
0
VERTEX
8
21
10
7348.22
20
4235.68
0
VERTEX
8
21
10
7227.33
20
4239.32
0
VERTEX
8
21
10
7106.46
20
4243.01
0
VERTEX
8
21
10
6985.61
20
4246.77
0
VERTEX
8
21
10
6864.77
20
4250.57
0
VERTEX
8
21
10
6743.94
20
4254.42
0
VERTEX
8
21
10
6623.13
20
4258.34
0
VERTEX
8
21
10
6502.32
20
4262.31
0
VERTEX
8
21
10
6381.52
20
4266.34
0
VERTEX
8
21
10
6260.72
20
4270.44
0
VERTEX
8
21
10
6139.93
20
4274.6
0
VERTEX
8
21
10
6019.14
20
4278.83
0
VERTEX
8
21
10
5898.34
20
4283.13
0
VERTEX
8
21
10
5777.55
20
4287.5
0
VERTEX
8
21
10
5656.75
20
4291.95
0
VERTEX
8
21
10
5535.94
20
4296.46
0
VERTEX
8
21
10
5374.79
20
4302.59
0
VERTEX
8
21
10
5374.79
20
4302.59
0
SEQEND
0
POLYLINE
8
22
62
5
66
1
6
CONTINUOUS
0
VERTEX
8
22
10
8347.67
20
0
0
VERTEX
8
22
10
8320.91
20
68.322
0
VERTEX
8
22
10
8294.07
20
135.521
0
VERTEX
8
22
10
8267.33
20
201.706
0
VERTEX
8
22
10
8240.72
20
266.94
0
VERTEX
8
22
10
8214.2
20
331.249
0
VERTEX
8
22
10
8187.65
20
394.62
0
VERTEX
8
22
10
8318.16
20
396.348
0
VERTEX
8
22
10
8448.69
20
397.751
0
VERTEX
8
22
10
8579.23
20
398.961
0
VERTEX
8
22
10
8709.79
20
399.98
0
VERTEX
8
22
10
8840.36
20
400.846
0
VERTEX
8
22
10
8970.96
20
401.483
0
VERTEX
8
22
10
9101.58
20
401.946
0
VERTEX
8
22
10
9232.23
20
402.24
0
VERTEX
8
22
10
9362.9
20
402.397
0
VERTEX
8
22
10
9493.6
20
402.356
0
VERTEX
8
22
10
9624.33
20
402.166
0
VERTEX
8
22
10
9755.08
20
401.832
0
VERTEX
8
22
10
9885.87
20
401.374
0
VERTEX
8
22
10
10016.7
20
400.758
0
VERTEX
8
22
10
10147.5
20
400.019
0
VERTEX
8
22
10
10278.4
20
399.175
0
VERTEX
8
22
10
10409.3
20
398.195
0
VERTEX
8
22
10
10540.3
20
397.111
0
VERTEX
8
22
10
10671.3
20
395.937
0
VERTEX
8
22
10
10802.3
20
394.62
0
VERTEX
8
22
10
10824
20
344.232
0
VERTEX
8
22
10
10845.7
20
293.688
0
VERTEX
8
22
10
10867.5
20
242.979
0
VERTEX
8
22
10
10889.3
20
192.102
0
VERTEX
8
22
10
10911.1
20
141.052
0
VERTEX
8
22
10
10933
20
89.8287
0
VERTEX
8
22
10
10803.8
20
85.909
0
VERTEX
8
22
10
10674.6
20
81.9232
0
VERTEX
8
22
10
10545.5
20
77.8716
0
VERTEX
8
22
10
10416.3
20
73.7546
0
VERTEX
8
22
10
10287.1
20
69.574
0
VERTEX
8
22
10
10157.9
20
65.3302
0
VERTEX
8
22
10
10028.7
20
61.024
0
VERTEX
8
22
10
9899.46
20
56.6573
0
VERTEX
8
22
10
9770.23
20
52.2309
0
VERTEX
8
22
10
9640.98
20
47.7458
0
VERTEX
8
22
10
9511.73
20
43.2034
0
VERTEX
8
22
10
9382.45
20
38.6058
0
VERTEX
8
22
10
9253.16
20
33.9538
0
VERTEX
8
22
10
9123.86
20
29.2489
0
VERTEX
8
22
10
8994.54
20
24.4924
0
VERTEX
8
22
10
8865.2
20
19.6866
0
VERTEX
8
22
10
8735.85
20
14.8325
0
VERTEX
8
22
10
8606.48
20
9.93171
0
VERTEX
8
22
10
8477.08
20
4.98565
0
VERTEX
8
22
10
8347.67
20
0
0
VERTEX
8
22
10
8347.67
20
0
0
SEQEND
0
POLYLINE
8
22
62
1
66
1
6
CONTINUOUS
0
VERTEX
8
22
10
8309.19
20
-11.4898
0
VERTEX
8
22
10
8283.66
20
53.734
0
VERTEX
8
22
10
8256.93
20
120.687
0
VERTEX
8
22
10
8230.31
20
186.56
0
VERTEX
8
22
10
8203.68
20
251.833
0
VERTEX
8
22
10
8177.22
20
316.001
0
VERTEX
8
22
10
8136.19
20
413.941
0
VERTEX
8
22
10
8317.9
20
416.346
0
VERTEX
8
22
10
8448.47
20
417.75
0
VERTEX
8
22
10
8579.04
20
418.96
0
VERTEX
8
22
10
8709.63
20
419.98
0
VERTEX
8
22
10
8840.23
20
420.845
0
VERTEX
8
22
10
8970.86
20
421.482
0
VERTEX
8
22
10
9101.51
20
421.946
0
VERTEX
8
22
10
9232.18
20
422.24
0
VERTEX
8
22
10
9362.87
20
422.397
0
VERTEX
8
22
10
9493.6
20
422.356
0
VERTEX
8
22
10
9624.36
20
422.166
0
VERTEX
8
22
10
9755.13
20
421.832
0
VERTEX
8
22
10
9885.94
20
421.374
0
VERTEX
8
22
10
10016.8
20
420.758
0
VERTEX
8
22
10
10147.6
20
420.019
0
VERTEX
8
22
10
10278.5
20
419.175
0
VERTEX
8
22
10
10409.5
20
418.194
0
VERTEX
8
22
10
10540.4
20
417.11
0
VERTEX
8
22
10
10671.4
20
415.936
0
VERTEX
8
22
10
10793.6
20
414.708
0
VERTEX
8
22
10
10824
20
344.232
0
VERTEX
8
22
10
10845.7
20
293.688
0
VERTEX
8
22
10
10867.5
20
242.979
0
VERTEX
8
22
10
10889.3
20
192.102
0
VERTEX
8
22
10
10911.1
20
141.052
0
VERTEX
8
22
10
10937.2
20
79.9522
0
VERTEX
8
22
10
10804.1
20
75.9137
0
VERTEX
8
22
10
10675
20
71.9281
0
VERTEX
8
22
10
10545.8
20
67.8766
0
VERTEX
8
22
10
10416.6
20
63.7599
0
VERTEX
8
22
10
10287.4
20
59.5794
0
VERTEX
8
22
10
10158.2
20
55.3357
0
VERTEX
8
22
10
10029
20
51.0298
0
VERTEX
8
22
10
9899.81
20
46.6632
0
VERTEX
8
22
10
9770.58
20
42.2369
0
VERTEX
8
22
10
9641.34
20
37.752
0
VERTEX
8
22
10
9512.08
20
33.2097
0
VERTEX
8
22
10
9382.81
20
28.6122
0
VERTEX
8
22
10
9253.53
20
23.9604
0
VERTEX
8
22
10
9124.23
20
19.2556
0
VERTEX
8
22
10
8994.91
20
14.4993
0
VERTEX
8
22
10
8865.58
20
9.69364
0
VERTEX
8
22
10
8736.23
20
4.8397
0
VERTEX
8
22
10
8606.86
20
-0.0609945
0
VERTEX
8
22
10
8477.47
20
-5.00694
0
VERTEX
8
22
10
8309.19
20
-11.4898
0
VERTEX
8
22
10
8309.19
20
-11.4898
0
SEQEND
0
POLYLINE
8
23
62
5
66
1
6
CONTINUOUS
0
VERTEX
8
23
10
8356.06
20
493.887
0
VERTEX
8
23
10
8327.88
20
555.863
0
VERTEX
8
23
10
8299.7
20
617.287
0
VERTEX
8
23
10
8271.6
20
678.224
0
VERTEX
8
23
10
8243.6
20
738.708
0
VERTEX
8
23
10
8215.65
20
798.741
0
VERTEX
8
23
10
8187.65
20
858.3
0
VERTEX
8
23
10
8319.55
20
860.423
0
VERTEX
8
23
10
8451.46
20
862.186
0
VERTEX
8
23
10
8583.39
20
863.739
0
VERTEX
8
23
10
8715.35
20
865.08
0
VERTEX
8
23
10
8847.33
20
866.207
0
VERTEX
8
23
10
8979.34
20
867.141
0
VERTEX
8
23
10
9111.4
20
867.818
0
VERTEX
8
23
10
9243.49
20
868.283
0
VERTEX
8
23
10
9375.62
20
868.572
0
VERTEX
8
23
10
9507.8
20
868.596
0
VERTEX
8
23
10
9640.04
20
868.415
0
VERTEX
8
23
10
9772.32
20
868.034
0
VERTEX
8
23
10
9904.66
20
867.48
0
VERTEX
8
23
10
10037.1
20
866.694
0
VERTEX
8
23
10
10169.5
20
865.725
0
VERTEX
8
23
10
10302
20
864.602
0
VERTEX
8
23
10
10434.6
20
863.267
0
VERTEX
8
23
10
10567.2
20
861.769
0
VERTEX
8
23
10
10699.9
20
860.133
0
VERTEX
8
23
10
10832.6
20
858.3
0
VERTEX
8
23
10
10855.4
20
809.246
0
VERTEX
8
23
10
10878.2
20
760.072
0
VERTEX
8
23
10
10901
20
710.77
0
VERTEX
8
23
10
10923.9
20
661.337
0
VERTEX
8
23
10
10946.8
20
611.77
0
VERTEX
8
23
10
10969.8
20
562.069
0
VERTEX
8
23
10
10838.8
20
559.979
0
VERTEX
8
23
10
10707.8
20
557.747
0
VERTEX
8
23
10
10576.9
20
555.396
0
VERTEX
8
23
10
10446
20
552.917
0
VERTEX
8
23
10
10315.1
20
550.286
0
VERTEX
8
23
10
10184.3
20
547.533
0
VERTEX
8
23
10
10053.5
20
544.647
0
VERTEX
8
23
10
9922.78
20
541.604
0
VERTEX
8
23
10
9792.06
20
538.433
0
VERTEX
8
23
10
9661.38
20
535.123
0
VERTEX
8
23
10
9530.72
20
531.674
0
VERTEX
8
23
10
9400.1
20
528.053
0
VERTEX
8
23
10
9269.51
20
524.307
0
VERTEX
8
23
10
9138.95
20
520.418
0
VERTEX
8
23
10
9008.41
20
516.384
0
VERTEX
8
23
10
8877.9
20
512.173
0
VERTEX
8
23
10
8747.41
20
507.838
0
VERTEX
8
23
10
8616.94
20
503.358
0
VERTEX
8
23
10
8486.49
20
498.734
0
VERTEX
8
23
10
8356.06
20
493.887
0
VERTEX
8
23
10
8356.06
20
493.887
0
SEQEND
0
POLYLINE
8
23
62
1
66
1
6
CONTINUOUS
0
VERTEX
8
23
10
8312.8
20
492.279
0
VERTEX
8
23
10
8291.47
20
539.308
0
VERTEX
8
23
10
8263.34
20
600.605
0
VERTEX
8
23
10
8235.3
20
661.403
0
VERTEX
8
23
10
8207.3
20
721.903
0
VERTEX
8
23
10
8179.38
20
781.859
0
VERTEX
8
23
10
8134.46
20
877.447
0
VERTEX
8
23
10
8319.23
20
880.42
0
VERTEX
8
23
10
8451.2
20
882.184
0
VERTEX
8
23
10
8583.16
20
883.738
0
VERTEX
8
23
10
8715.14
20
885.079
0
VERTEX
8
23
10
8847.16
20
886.206
0
VERTEX
8
23
10
8979.2
20
887.14
0
VERTEX
8
23
10
9111.29
20
887.818
0
VERTEX
8
23
10
9243.42
20
888.282
0
VERTEX
8
23
10
9375.58
20
888.572
0
VERTEX
8
23
10
9507.8
20
888.596
0
VERTEX
8
23
10
9640.07
20
888.415
0
VERTEX
8
23
10
9772.38
20
888.034
0
VERTEX
8
23
10
9904.74
20
887.48
0
VERTEX
8
23
10
10037.2
20
886.694
0
VERTEX
8
23
10
10169.6
20
885.725
0
VERTEX
8
23
10
10302.2
20
884.601
0
VERTEX
8
23
10
10434.8
20
883.266
0
VERTEX
8
23
10
10567.4
20
881.768
0
VERTEX
8
23
10
10700.1
20
880.132
0
VERTEX
8
23
10
10823.3
20
878.431
0
VERTEX
8
23
10
10855.4
20
809.246
0
VERTEX
8
23
10
10878.2
20
760.072
0
VERTEX
8
23
10
10901
20
710.77
0
VERTEX
8
23
10
10923.9
20
661.337
0
VERTEX
8
23
10
10946.8
20
611.77
0
VERTEX
8
23
10
10969.8
20
562.069
0
VERTEX
8
23
10
10838.8
20
559.979
0
VERTEX
8
23
10
10707.8
20
557.747
0
VERTEX
8
23
10
10576.9
20
555.396
0
VERTEX
8
23
10
10446
20
552.917
0
VERTEX
8
23
10
10315.1
20
550.286
0
VERTEX
8
23
10
10184.3
20
547.533
0
VERTEX
8
23
10
10053.5
20
544.647
0
VERTEX
8
23
10
9922.78
20
541.604
0
VERTEX
8
23
10
9792.06
20
538.433
0
VERTEX
8
23
10
9661.38
20
535.123
0
VERTEX
8
23
10
9530.72
20
531.674
0
VERTEX
8
23
10
9400.1
20
528.053
0
VERTEX
8
23
10
9269.51
20
524.307
0
VERTEX
8
23
10
9138.95
20
520.418
0
VERTEX
8
23
10
9008.41
20
516.384
0
VERTEX
8
23
10
8877.9
20
512.173
0
VERTEX
8
23
10
8747.41
20
507.838
0
VERTEX
8
23
10
8616.94
20
503.358
0
VERTEX
8
23
10
8486.49
20
498.734
0
VERTEX
8
23
10
8312.8
20
492.279
0
VERTEX
8
23
10
8312.8
20
492.279
0
SEQEND
0
POLYLINE
8
24
62
5
66
1
6
CONTINUOUS
0
VERTEX
8
24
10
8362.49
20
950.204
0
VERTEX
8
24
10
8333.31
20
1008.96
0
VERTEX
8
24
10
8304.13
20
1067.51
0
VERTEX
8
24
10
8274.99
20
1125.88
0
VERTEX
8
24
10
8245.89
20
1184.09
0
VERTEX
8
24
10
8216.8
20
1242.12
0
VERTEX
8
24
10
8187.65
20
1299.97
0
VERTEX
8
24
10
8321.1
20
1301.66
0
VERTEX
8
24
10
8454.54
20
1303.21
0
VERTEX
8
24
10
8587.99
20
1304.61
0
VERTEX
8
24
10
8721.44
20
1305.86
0
VERTEX
8
24
10
8854.91
20
1306.95
0
VERTEX
8
24
10
8988.41
20
1307.89
0
VERTEX
8
24
10
9121.95
20
1308.63
0
VERTEX
8
24
10
9255.54
20
1309.18
0
VERTEX
8
24
10
9389.17
20
1309.53
0
VERTEX
8
24
10
9522.85
20
1309.72
0
VERTEX
8
24
10
9656.6
20
1309.66
0
VERTEX
8
24
10
9790.42
20
1309.41
0
VERTEX
8
24
10
9924.31
20
1308.97
0
VERTEX
8
24
10
10058.3
20
1308.29
0
VERTEX
8
24
10
10192.3
20
1307.4
0
VERTEX
8
24
10
10326.5
20
1306.34
0
VERTEX
8
24
10
10460.7
20
1305.04
0
VERTEX
8
24
10
10595
20
1303.54
0
VERTEX
8
24
10
10729.4
20
1301.87
0
VERTEX
8
24
10
10863.8
20
1299.97
0
VERTEX
8
24
10
10887.6
20
1252.06
0
VERTEX
8
24
10
10911.3
20
1204.06
0
VERTEX
8
24
10
10935.1
20
1155.96
0
VERTEX
8
24
10
10959
20
1107.78
0
VERTEX
8
24
10
10982.8
20
1059.49
0
VERTEX
8
24
10
11006.8
20
1011.11
0
VERTEX
8
24
10
10874
20
1009.58
0
VERTEX
8
24
10
10741.4
20
1007.88
0
VERTEX
8
24
10
10608.7
20
1006.03
0
VERTEX
8
24
10
10476.2
20
1004.04
0
VERTEX
8
24
10
10343.7
20
1001.86
0
VERTEX
8
24
10
10211.3
20
999.535
0
VERTEX
8
24
10
10078.9
20
997.055
0
VERTEX
8
24
10
9946.58
20
994.386
0
VERTEX
8
24
10
9814.33
20
991.573
0
VERTEX
8
24
10
9682.13
20
988.6
0
VERTEX
8
24
10
9549.98
20
985.468
0
VERTEX
8
24
10
9417.89
20
982.14
0
VERTEX
8
24
10
9285.84
20
978.68
0
VERTEX
8
24
10
9153.83
20
975.065
0
VERTEX
8
24
10
9021.87
20
971.274
0
VERTEX
8
24
10
8889.94
20
967.349
0
VERTEX
8
24
10
8758.05
20
963.28
0
VERTEX
8
24
10
8626.17
20
959.075
0
VERTEX
8
24
10
8494.32
20
954.736
0
VERTEX
8
24
10
8362.49
20
950.204
0
VERTEX
8
24
10
8362.49
20
950.204
0
SEQEND
0
POLYLINE
8
24
62
1
66
1
6
CONTINUOUS
0
VERTEX
8
24
10
8318.55
20
948.693
0
VERTEX
8
24
10
8297.49
20
991.174
0
VERTEX
8
24
10
8268.33
20
1049.67
0
VERTEX
8
24
10
8239.21
20
1107.99
0
VERTEX
8
24
10
8210.11
20
1166.2
0
VERTEX
8
24
10
8181.04
20
1224.2
0
VERTEX
8
24
10
8133.14
20
1319.28
0
VERTEX
8
24
10
8320.85
20
1321.66
0
VERTEX
8
24
10
8454.31
20
1323.21
0
VERTEX
8
24
10
8587.78
20
1324.61
0
VERTEX
8
24
10
8721.25
20
1325.86
0
VERTEX
8
24
10
8854.75
20
1326.95
0
VERTEX
8
24
10
8988.27
20
1327.89
0
VERTEX
8
24
10
9121.84
20
1328.63
0
VERTEX
8
24
10
9255.45
20
1329.18
0
VERTEX
8
24
10
9389.11
20
1329.53
0
VERTEX
8
24
10
9522.82
20
1329.72
0
VERTEX
8
24
10
9656.61
20
1329.66
0
VERTEX
8
24
10
9790.46
20
1329.41
0
VERTEX
8
24
10
9924.37
20
1328.97
0
VERTEX
8
24
10
10058.4
20
1328.29
0
VERTEX
8
24
10
10192.5
20
1327.4
0
VERTEX
8
24
10
10326.6
20
1326.34
0
VERTEX
8
24
10
10460.9
20
1325.04
0
VERTEX
8
24
10
10595.2
20
1323.54
0
VERTEX
8
24
10
10729.6
20
1321.87
0
VERTEX
8
24
10
10853.9
20
1320.11
0
VERTEX
8
24
10
10887.6
20
1252.06
0
VERTEX
8
24
10
10911.3
20
1204.06
0
VERTEX
8
24
10
10935.1
20
1155.96
0
VERTEX
8
24
10
10959
20
1107.78
0
VERTEX
8
24
10
10982.8
20
1059.49
0
VERTEX
8
24
10
11006.8
20
1011.11
0
VERTEX
8
24
10
10874
20
1009.58
0
VERTEX
8
24
10
10741.4
20
1007.88
0
VERTEX
8
24
10
10608.7
20
1006.03
0
VERTEX
8
24
10
10476.2
20
1004.04
0
VERTEX
8
24
10
10343.7
20
1001.86
0
VERTEX
8
24
10
10211.3
20
999.535
0
VERTEX
8
24
10
10078.9
20
997.055
0
VERTEX
8
24
10
9946.58
20
994.386
0
VERTEX
8
24
10
9814.33
20
991.573
0
VERTEX
8
24
10
9682.13
20
988.6
0
VERTEX
8
24
10
9549.98
20
985.468
0
VERTEX
8
24
10
9417.89
20
982.14
0
VERTEX
8
24
10
9285.84
20
978.68
0
VERTEX
8
24
10
9153.83
20
975.065
0
VERTEX
8
24
10
9021.87
20
971.274
0
VERTEX
8
24
10
8889.94
20
967.349
0
VERTEX
8
24
10
8758.05
20
963.28
0
VERTEX
8
24
10
8626.17
20
959.075
0
VERTEX
8
24
10
8494.32
20
954.736
0
VERTEX
8
24
10
8318.55
20
948.693
0
VERTEX
8
24
10
8318.55
20
948.693
0
SEQEND
0
POLYLINE
8
25
62
5
66
1
6
CONTINUOUS
0
VERTEX
8
25
10
8423.44
20
1661.89
0
VERTEX
8
25
10
8384.12
20
1765.96
0
VERTEX
8
25
10
8344.71
20
1869.99
0
VERTEX
8
25
10
8305.39
20
1974.08
0
VERTEX
8
25
10
8266.2
20
2078.21
0
VERTEX
8
25
10
8227.01
20
2182.36
0
VERTEX
8
25
10
8187.65
20
2286.45
0
VERTEX
8
25
10
8315.59
20
2286.84
0
VERTEX
8
25
10
8443.51
20
2287.26
0
VERTEX
8
25
10
8571.41
20
2287.69
0
VERTEX
8
25
10
8699.29
20
2288.12
0
VERTEX
8
25
10
8827.16
20
2288.55
0
VERTEX
8
25
10
8955.02
20
2288.95
0
VERTEX
8
25
10
9082.88
20
2289.34
0
VERTEX
8
25
10
9210.74
20
2289.68
0
VERTEX
8
25
10
9338.62
20
2289.96
0
VERTEX
8
25
10
9466.51
20
2290.2
0
VERTEX
8
25
10
9594.44
20
2290.34
0
VERTEX
8
25
10
9722.41
20
2290.4
0
VERTEX
8
25
10
9850.42
20
2290.36
0
VERTEX
8
25
10
9978.48
20
2290.22
0
VERTEX
8
25
10
10106.6
20
2289.95
0
VERTEX
8
25
10
10234.8
20
2289.55
0
VERTEX
8
25
10
10363.1
20
2289.02
0
VERTEX
8
25
10
10491.5
20
2288.32
0
VERTEX
8
25
10
10620
20
2287.46
0
VERTEX
8
25
10
10748.6
20
2286.45
0
VERTEX
8
25
10
10804.2
20
2138.23
0
VERTEX
8
25
10
10860.4
20
1989.76
0
VERTEX
8
25
10
10916.6
20
1840.85
0
VERTEX
8
25
10
10972.8
20
1691.41
0
VERTEX
8
25
10
11029.1
20
1541.49
0
VERTEX
8
25
10
11086
20
1391.23
0
VERTEX
8
25
10
10952.3
20
1405.95
0
VERTEX
8
25
10
10818.7
20
1420.51
0
VERTEX
8
25
10
10685.1
20
1434.93
0
VERTEX
8
25
10
10551.7
20
1449.2
0
VERTEX
8
25
10
10418.3
20
1463.31
0
VERTEX
8
25
10
10285
20
1477.3
0
VERTEX
8
25
10
10151.7
20
1491.14
0
VERTEX
8
25
10
10018.5
20
1504.84
0
VERTEX
8
25
10
9885.41
20
1518.43
0
VERTEX
8
25
10
9752.34
20
1531.9
0
VERTEX
8
25
10
9619.32
20
1545.24
0
VERTEX
8
25
10
9486.35
20
1558.49
0
VERTEX
8
25
10
9353.42
20
1571.64
0
VERTEX
8
25
10
9220.51
20
1584.71
0
VERTEX
8
25
10
9087.64
20
1597.69
0
VERTEX
8
25
10
8954.79
20
1610.62
0
VERTEX
8
25
10
8821.95
20
1623.49
0
VERTEX
8
25
10
8689.12
20
1636.31
0
VERTEX
8
25
10
8556.29
20
1649.11
0
VERTEX
8
25
10
8423.44
20
1661.89
0
VERTEX
8
25
10
8423.44
20
1661.89
0
SEQEND
0
POLYLINE
8
25
62
1
66
1
6
CONTINUOUS
0
VERTEX
8
25
10
8379.06
20
1666.16
0
VERTEX
8
25
10
8346.7
20
1751.82
0
VERTEX
8
25
10
8307.3
20
1855.82
0
VERTEX
8
25
10
8267.96
20
1959.98
0
VERTEX
8
25
10
8228.76
20
2064.12
0
VERTEX
8
25
10
8189.57
20
2168.27
0
VERTEX
8
25
10
8137.39
20
2306.3
0
VERTEX
8
25
10
8315.53
20
2306.84
0
VERTEX
8
25
10
8443.45
20
2307.26
0
VERTEX
8
25
10
8571.34
20
2307.69
0
VERTEX
8
25
10
8699.22
20
2308.12
0
VERTEX
8
25
10
8827.09
20
2308.55
0
VERTEX
8
25
10
8954.96
20
2308.95
0
VERTEX
8
25
10
9082.82
20
2309.34
0
VERTEX
8
25
10
9210.69
20
2309.68
0
VERTEX
8
25
10
9338.58
20
2309.96
0
VERTEX
8
25
10
9466.48
20
2310.2
0
VERTEX
8
25
10
9594.42
20
2310.34
0
VERTEX
8
25
10
9722.4
20
2310.4
0
VERTEX
8
25
10
9850.43
20
2310.36
0
VERTEX
8
25
10
9978.5
20
2310.22
0
VERTEX
8
25
10
10106.7
20
2309.95
0
VERTEX
8
25
10
10234.9
20
2309.55
0
VERTEX
8
25
10
10363.2
20
2309.02
0
VERTEX
8
25
10
10491.6
20
2308.32
0
VERTEX
8
25
10
10620.1
20
2307.46
0
VERTEX
8
25
10
10741
20
2306.51
0
VERTEX
8
25
10
10804.2
20
2138.23
0
VERTEX
8
25
10
10860.4
20
1989.76
0
VERTEX
8
25
10
10916.6
20
1840.85
0
VERTEX
8
25
10
10972.8
20
1691.41
0
VERTEX
8
25
10
11029.1
20
1541.49
0
VERTEX
8
25
10
11086
20
1391.23
0
VERTEX
8
25
10
10952.3
20
1405.95
0
VERTEX
8
25
10
10818.7
20
1420.51
0
VERTEX
8
25
10
10685.1
20
1434.93
0
VERTEX
8
25
10
10551.7
20
1449.2
0
VERTEX
8
25
10
10418.3
20
1463.31
0
VERTEX
8
25
10
10285
20
1477.3
0
VERTEX
8
25
10
10151.7
20
1491.14
0
VERTEX
8
25
10
10018.5
20
1504.84
0
VERTEX
8
25
10
9885.41
20
1518.43
0
VERTEX
8
25
10
9752.34
20
1531.9
0
VERTEX
8
25
10
9619.32
20
1545.24
0
VERTEX
8
25
10
9486.35
20
1558.49
0
VERTEX
8
25
10
9353.42
20
1571.64
0
VERTEX
8
25
10
9220.51
20
1584.71
0
VERTEX
8
25
10
9087.64
20
1597.69
0
VERTEX
8
25
10
8954.79
20
1610.62
0
VERTEX
8
25
10
8821.95
20
1623.49
0
VERTEX
8
25
10
8689.12
20
1636.31
0
VERTEX
8
25
10
8556.29
20
1649.11
0
VERTEX
8
25
10
8379.06
20
1666.16
0
VERTEX
8
25
10
8379.06
20
1666.16
0
SEQEND
0
POLYLINE
8
26
62
5
66
1
6
CONTINUOUS
0
VERTEX
8
26
10
8226.54
20
2980.37
0
VERTEX
8
26
10
8220.07
20
3035.74
0
VERTEX
8
26
10
8213.59
20
3091.14
0
VERTEX
8
26
10
8207.11
20
3146.58
0
VERTEX
8
26
10
8200.63
20
3202.04
0
VERTEX
8
26
10
8194.14
20
3257.53
0
VERTEX
8
26
10
8187.65
20
3313.05
0
VERTEX
8
26
10
8308.24
20
3312.84
0
VERTEX
8
26
10
8428.83
20
3312.66
0
VERTEX
8
26
10
8549.41
20
3312.49
0
VERTEX
8
26
10
8669.99
20
3312.38
0
VERTEX
8
26
10
8790.57
20
3312.31
0
VERTEX
8
26
10
8911.15
20
3312.28
0
VERTEX
8
26
10
9031.74
20
3312.28
0
VERTEX
8
26
10
9152.34
20
3312.32
0
VERTEX
8
26
10
9272.96
20
3312.38
0
VERTEX
8
26
10
9393.6
20
3312.47
0
VERTEX
8
26
10
9514.27
20
3312.56
0
VERTEX
8
26
10
9634.97
20
3312.67
0
VERTEX
8
26
10
9755.7
20
3312.78
0
VERTEX
8
26
10
9876.48
20
3312.89
0
VERTEX
8
26
10
9997.3
20
3312.99
0
VERTEX
8
26
10
10118.2
20
3313.07
0
VERTEX
8
26
10
10239.2
20
3313.12
0
VERTEX
8
26
10
10360.2
20
3313.14
0
VERTEX
8
26
10
10481.3
20
3313.12
0
VERTEX
8
26
10
10602.5
20
3313.05
0
VERTEX
8
26
10
10620.5
20
3155.87
0
VERTEX
8
26
10
10639
20
2998.75
0
VERTEX
8
26
10
10657.5
20
2841.64
0
VERTEX
8
26
10
10676
20
2684.54
0
VERTEX
8
26
10
10694.7
20
2527.45
0
VERTEX
8
26
10
10713.8
20
2370.4
0
VERTEX
8
26
10
10588.9
20
2401.04
0
VERTEX
8
26
10
10464.1
20
2431.6
0
VERTEX
8
26
10
10339.4
20
2462.1
0
VERTEX
8
26
10
10214.7
20
2492.55
0
VERTEX
8
26
10
10090.2
20
2522.96
0
VERTEX
8
26
10
9965.71
20
2553.34
0
VERTEX
8
26
10
9841.3
20
2583.7
0
VERTEX
8
26
10
9716.94
20
2614.05
0
VERTEX
8
26
10
9592.63
20
2644.39
0
VERTEX
8
26
10
9468.35
20
2674.74
0
VERTEX
8
26
10
9344.12
20
2705.13
0
VERTEX
8
26
10
9219.91
20
2735.52
0
VERTEX
8
26
10
9095.71
20
2765.95
0
VERTEX
8
26
10
8971.54
20
2796.43
0
VERTEX
8
26
10
8847.37
20
2826.94
0
VERTEX
8
26
10
8723.21
20
2857.51
0
VERTEX
8
26
10
8599.05
20
2888.14
0
VERTEX
8
26
10
8474.89
20
2918.82
0
VERTEX
8
26
10
8350.72
20
2949.58
0
VERTEX
8
26
10
8226.54
20
2980.37
0
VERTEX
8
26
10
8226.54
20
2980.37
0
SEQEND
0
POLYLINE
8
26
62
1
66
1
6
CONTINUOUS
0
VERTEX
8
26
10
8185.07
20
2990.65
0
VERTEX
8
26
10
8180.34
20
3031.1
0
VERTEX
8
26
10
8173.86
20
3086.5
0
VERTEX
8
26
10
8167.38
20
3141.93
0
VERTEX
8
26
10
8160.9
20
3197.4
0
VERTEX
8
26
10
8154.41
20
3252.89
0
VERTEX
8
26
10
8145.04
20
3333.12
0
VERTEX
8
26
10
8308.28
20
3332.84
0
VERTEX
8
26
10
8428.86
20
3332.66
0
VERTEX
8
26
10
8549.44
20
3332.49
0
VERTEX
8
26
10
8670.01
20
3332.38
0
VERTEX
8
26
10
8790.58
20
3332.31
0
VERTEX
8
26
10
8911.16
20
3332.28
0
VERTEX
8
26
10
9031.74
20
3332.28
0
VERTEX
8
26
10
9152.34
20
3332.32
0
VERTEX
8
26
10
9272.95
20
3332.38
0
VERTEX
8
26
10
9393.59
20
3332.47
0
VERTEX
8
26
10
9514.25
20
3332.56
0
VERTEX
8
26
10
9634.95
20
3332.67
0
VERTEX
8
26
10
9755.68
20
3332.78
0
VERTEX
8
26
10
9876.46
20
3332.89
0
VERTEX
8
26
10
9997.29
20
3332.99
0
VERTEX
8
26
10
10118.2
20
3333.07
0
VERTEX
8
26
10
10239.1
20
3333.12
0
VERTEX
8
26
10
10360.2
20
3333.14
0
VERTEX
8
26
10
10481.3
20
3333.12
0
VERTEX
8
26
10
10600.2
20
3333.05
0
VERTEX
8
26
10
10620.5
20
3155.87
0
VERTEX
8
26
10
10639
20
2998.75
0
VERTEX
8
26
10
10657.5
20
2841.64
0
VERTEX
8
26
10
10676
20
2684.54
0
VERTEX
8
26
10
10694.7
20
2527.45
0
VERTEX
8
26
10
10713.8
20
2370.4
0
VERTEX
8
26
10
10588.9
20
2401.04
0
VERTEX
8
26
10
10464.1
20
2431.6
0
VERTEX
8
26
10
10339.4
20
2462.1
0
VERTEX
8
26
10
10214.7
20
2492.55
0
VERTEX
8
26
10
10090.2
20
2522.96
0
VERTEX
8
26
10
9965.71
20
2553.34
0
VERTEX
8
26
10
9841.3
20
2583.7
0
VERTEX
8
26
10
9716.94
20
2614.05
0
VERTEX
8
26
10
9592.63
20
2644.39
0
VERTEX
8
26
10
9468.35
20
2674.74
0
VERTEX
8
26
10
9344.12
20
2705.13
0
VERTEX
8
26
10
9219.91
20
2735.52
0
VERTEX
8
26
10
9095.71
20
2765.95
0
VERTEX
8
26
10
8971.54
20
2796.43
0
VERTEX
8
26
10
8847.37
20
2826.94
0
VERTEX
8
26
10
8723.21
20
2857.51
0
VERTEX
8
26
10
8599.05
20
2888.14
0
VERTEX
8
26
10
8474.89
20
2918.82
0
VERTEX
8
26
10
8350.72
20
2949.58
0
VERTEX
8
26
10
8185.07
20
2990.65
0
VERTEX
8
26
10
8185.07
20
2990.65
0
SEQEND
0
POLYLINE
8
27
62
5
66
1
6
CONTINUOUS
0
VERTEX
8
27
10
8187.65
20
4003.54
0
VERTEX
8
27
10
8195.54
20
4058.9
0
VERTEX
8
27
10
8203.44
20
4114.29
0
VERTEX
8
27
10
8211.34
20
4169.71
0
VERTEX
8
27
10
8219.24
20
4225.15
0
VERTEX
8
27
10
8227.15
20
4280.62
0
VERTEX
8
27
10
8235.07
20
4336.1
0
VERTEX
8
27
10
8355.98
20
4335.79
0
VERTEX
8
27
10
8476.89
20
4335.51
0
VERTEX
8
27
10
8597.81
20
4335.24
0
VERTEX
8
27
10
8718.76
20
4335.03
0
VERTEX
8
27
10
8839.72
20
4334.87
0
VERTEX
8
27
10
8960.71
20
4334.76
0
VERTEX
8
27
10
9081.73
20
4334.7
0
VERTEX
8
27
10
9202.77
20
4334.67
0
VERTEX
8
27
10
9323.86
20
4334.69
0
VERTEX
8
27
10
9444.99
20
4334.74
0
VERTEX
8
27
10
9566.17
20
4334.82
0
VERTEX
8
27
10
9687.38
20
4334.92
0
VERTEX
8
27
10
9808.66
20
4335.05
0
VERTEX
8
27
10
9929.99
20
4335.2
0
VERTEX
8
27
10
10051.4
20
4335.34
0
VERTEX
8
27
10
10172.8
20
4335.51
0
VERTEX
8
27
10
10294.4
20
4335.67
0
VERTEX
8
27
10
10416
20
4335.83
0
VERTEX
8
27
10
10537.6
20
4335.97
0
VERTEX
8
27
10
10659.4
20
4336.1
0
VERTEX
8
27
10
10636.4
20
4178.65
0
VERTEX
8
27
10
10613.7
20
4021.3
0
VERTEX
8
27
10
10591
20
3864.05
0
VERTEX
8
27
10
10568.5
20
3706.94
0
VERTEX
8
27
10
10546.2
20
3549.97
0
VERTEX
8
27
10
10524.1
20
3393.14
0
VERTEX
8
27
10
10406.7
20
3423.36
0
VERTEX
8
27
10
10289.4
20
3453.57
0
VERTEX
8
27
10
10172.2
20
3483.81
0
VERTEX
8
27
10
10055.1
20
3514.05
0
VERTEX
8
27
10
9938.06
20
3544.31
0
VERTEX
8
27
10
9821.1
20
3574.6
0
VERTEX
8
27
10
9704.19
20
3604.92
0
VERTEX
8
27
10
9587.33
20
3635.27
0
VERTEX
8
27
10
9470.52
20
3665.66
0
VERTEX
8
27
10
9353.76
20
3696.11
0
VERTEX
8
27
10
9237.04
20
3726.6
0
VERTEX
8
27
10
9120.35
20
3757.14
0
VERTEX
8
27
10
9003.69
20
3787.73
0
VERTEX
8
27
10
8887.06
20
3818.39
0
VERTEX
8
27
10
8770.46
20
3849.11
0
VERTEX
8
27
10
8653.87
20
3879.88
0
VERTEX
8
27
10
8537.3
20
3910.72
0
VERTEX
8
27
10
8420.75
20
3941.64
0
VERTEX
8
27
10
8304.2
20
3972.57
0
VERTEX
8
27
10
8187.65
20
4003.54
0
VERTEX
8
27
10
8187.65
20
4003.54
0
SEQEND
0
POLYLINE
8
27
62
1
66
1
6
CONTINUOUS
0
VERTEX
8
27
10
8148.72
20
4013.88
0
VERTEX
8
27
10
8155.94
20
4064.54
0
VERTEX
8
27
10
8163.84
20
4119.93
0
VERTEX
8
27
10
8171.74
20
4175.35
0
VERTEX
8
27
10
8179.64
20
4230.8
0
VERTEX
8
27
10
8187.55
20
4286.26
0
VERTEX
8
27
10
8197.53
20
4356.2
0
VERTEX
8
27
10
8356.03
20
4355.79
0
VERTEX
8
27
10
8476.94
20
4355.51
0
VERTEX
8
27
10
8597.86
20
4355.24
0
VERTEX
8
27
10
8718.79
20
4355.03
0
VERTEX
8
27
10
8839.74
20
4354.87
0
VERTEX
8
27
10
8960.73
20
4354.76
0
VERTEX
8
27
10
9081.74
20
4354.7
0
VERTEX
8
27
10
9202.78
20
4354.67
0
VERTEX
8
27
10
9323.86
20
4354.69
0
VERTEX
8
27
10
9444.98
20
4354.74
0
VERTEX
8
27
10
9566.15
20
4354.82
0
VERTEX
8
27
10
9687.37
20
4354.92
0
VERTEX
8
27
10
9808.64
20
4355.05
0
VERTEX
8
27
10
9929.97
20
4355.2
0
VERTEX
8
27
10
10051.3
20
4355.34
0
VERTEX
8
27
10
10172.8
20
4355.51
0
VERTEX
8
27
10
10294.3
20
4355.67
0
VERTEX
8
27
10
10415.9
20
4355.83
0
VERTEX
8
27
10
10537.6
20
4355.97
0
VERTEX
8
27
10
10662.3
20
4356.11
0
VERTEX
8
27
10
10636.4
20
4178.65
0
VERTEX
8
27
10
10613.7
20
4021.3
0
VERTEX
8
27
10
10591
20
3864.05
0
VERTEX
8
27
10
10568.5
20
3706.94
0
VERTEX
8
27
10
10546.2
20
3549.97
0
VERTEX
8
27
10
10524.1
20
3393.14
0
VERTEX
8
27
10
10406.7
20
3423.36
0
VERTEX
8
27
10
10289.4
20
3453.57
0
VERTEX
8
27
10
10172.2
20
3483.81
0
VERTEX
8
27
10
10055.1
20
3514.05
0
VERTEX
8
27
10
9938.06
20
3544.31
0
VERTEX
8
27
10
9821.1
20
3574.6
0
VERTEX
8
27
10
9704.19
20
3604.92
0
VERTEX
8
27
10
9587.33
20
3635.27
0
VERTEX
8
27
10
9470.52
20
3665.66
0
VERTEX
8
27
10
9353.76
20
3696.11
0
VERTEX
8
27
10
9237.04
20
3726.6
0
VERTEX
8
27
10
9120.35
20
3757.14
0
VERTEX
8
27
10
9003.69
20
3787.73
0
VERTEX
8
27
10
8887.06
20
3818.39
0
VERTEX
8
27
10
8770.46
20
3849.11
0
VERTEX
8
27
10
8653.87
20
3879.88
0
VERTEX
8
27
10
8537.3
20
3910.72
0
VERTEX
8
27
10
8420.75
20
3941.64
0
VERTEX
8
27
10
8304.2
20
3972.57
0
VERTEX
8
27
10
8148.72
20
4013.88
0
VERTEX
8
27
10
8148.72
20
4013.88
0
SEQEND
0
POLYLINE
8
28
62
5
66
1
6
CONTINUOUS
0
VERTEX
8
28
10
8187.65
20
4689.82
0
VERTEX
8
28
10
8216.04
20
4798.33
0
VERTEX
8
28
10
8244.44
20
4906.91
0
VERTEX
8
28
10
8272.87
20
5015.56
0
VERTEX
8
28
10
8301.33
20
5124.27
0
VERTEX
8
28
10
8329.81
20
5233.02
0
VERTEX
8
28
10
8358.31
20
5341.82
0
VERTEX
8
28
10
8482.03
20
5341.53
0
VERTEX
8
28
10
8605.77
20
5341.28
0
VERTEX
8
28
10
8729.55
20
5341.08
0
VERTEX
8
28
10
8853.34
20
5340.89
0
VERTEX
8
28
10
8977.18
20
5340.75
0
VERTEX
8
28
10
9101.06
20
5340.67
0
VERTEX
8
28
10
9224.99
20
5340.62
0
VERTEX
8
28
10
9348.96
20
5340.59
0
VERTEX
8
28
10
9472.99
20
5340.62
0
VERTEX
8
28
10
9597.08
20
5340.67
0
VERTEX
8
28
10
9721.22
20
5340.74
0
VERTEX
8
28
10
9845.41
20
5340.83
0
VERTEX
8
28
10
9969.67
20
5340.94
0
VERTEX
8
28
10
10094
20
5341.06
0
VERTEX
8
28
10
10218.4
20
5341.2
0
VERTEX
8
28
10
10342.8
20
5341.33
0
VERTEX
8
28
10
10467.4
20
5341.46
0
VERTEX
8
28
10
10592
20
5341.59
0
VERTEX
8
28
10
10716.6
20
5341.71
0
VERTEX
8
28
10
10841.4
20
5341.82
0
VERTEX
8
28
10
10800.4
20
5187.37
0
VERTEX
8
28
10
10759.4
20
5032.97
0
VERTEX
8
28
10
10718.5
20
4878.64
0
VERTEX
8
28
10
10677.7
20
4724.4
0
VERTEX
8
28
10
10637
20
4570.25
0
VERTEX
8
28
10
10596.5
20
4416.2
0
VERTEX
8
28
10
10475.5
20
4429.6
0
VERTEX
8
28
10
10354.5
20
4443.02
0
VERTEX
8
28
10
10233.7
20
4456.43
0
VERTEX
8
28
10
10112.9
20
4469.86
0
VERTEX
8
28
10
9992.18
20
4483.31
0
VERTEX
8
28
10
9871.55
20
4496.8
0
VERTEX
8
28
10
9750.97
20
4510.3
0
VERTEX
8
28
10
9630.45
20
4523.83
0
VERTEX
8
28
10
9510
20
4537.42
0
VERTEX
8
28
10
9389.59
20
4551.02
0
VERTEX
8
28
10
9269.23
20
4564.67
0
VERTEX
8
28
10
9148.92
20
4578.37
0
VERTEX
8
28
10
9028.66
20
4592.13
0
VERTEX
8
28
10
8908.43
20
4605.93
0
VERTEX
8
28
10
8788.24
20
4619.78
0
VERTEX
8
28
10
8668.07
20
4633.69
0
VERTEX
8
28
10
8547.94
20
4647.66
0
VERTEX
8
28
10
8427.84
20
4661.7
0
VERTEX
8
28
10
8307.74
20
4675.73
0
VERTEX
8
28
10
8187.65
20
4689.82
0
VERTEX
8
28
10
8187.65
20
4689.82
0
SEQEND
0
POLYLINE
8
28
62
1
66
1
6
CONTINUOUS
0
VERTEX
8
28
10
8147.54
20
4694.53
0
VERTEX
8
28
10
8177.34
20
4808.45
0
VERTEX
8
28
10
8205.74
20
4917.04
0
VERTEX
8
28
10
8234.18
20
5025.69
0
VERTEX
8
28
10
8262.63
20
5134.4
0
VERTEX
8
28
10
8291.11
20
5243.15
0
VERTEX
8
28
10
8322.22
20
5361.9
0
VERTEX
8
28
10
8482.07
20
5361.53
0
VERTEX
8
28
10
8605.81
20
5361.28
0
VERTEX
8
28
10
8729.58
20
5361.08
0
VERTEX
8
28
10
8853.37
20
5360.89
0
VERTEX
8
28
10
8977.2
20
5360.75
0
VERTEX
8
28
10
9101.08
20
5360.67
0
VERTEX
8
28
10
9225
20
5360.62
0
VERTEX
8
28
10
9348.97
20
5360.59
0
VERTEX
8
28
10
9472.99
20
5360.62
0
VERTEX
8
28
10
9597.07
20
5360.67
0
VERTEX
8
28
10
9721.2
20
5360.74
0
VERTEX
8
28
10
9845.39
20
5360.83
0
VERTEX
8
28
10
9969.65
20
5360.94
0
VERTEX
8
28
10
10094
20
5361.06
0
VERTEX
8
28
10
10218.4
20
5361.2
0
VERTEX
8
28
10
10342.8
20
5361.33
0
VERTEX
8
28
10
10467.3
20
5361.46
0
VERTEX
8
28
10
10591.9
20
5361.59
0
VERTEX
8
28
10
10716.6
20
5361.71
0
VERTEX
8
28
10
10846.7
20
5361.82
0
VERTEX
8
28
10
10800.4
20
5187.37
0
VERTEX
8
28
10
10759.4
20
5032.97
0
VERTEX
8
28
10
10718.5
20
4878.64
0
VERTEX
8
28
10
10677.7
20
4724.4
0
VERTEX
8
28
10
10637
20
4570.25
0
VERTEX
8
28
10
10596.5
20
4416.2
0
VERTEX
8
28
10
10475.5
20
4429.6
0
VERTEX
8
28
10
10354.5
20
4443.02
0
VERTEX
8
28
10
10233.7
20
4456.43
0
VERTEX
8
28
10
10112.9
20
4469.86
0
VERTEX
8
28
10
9992.18
20
4483.31
0
VERTEX
8
28
10
9871.55
20
4496.8
0
VERTEX
8
28
10
9750.97
20
4510.3
0
VERTEX
8
28
10
9630.45
20
4523.83
0
VERTEX
8
28
10
9510
20
4537.42
0
VERTEX
8
28
10
9389.59
20
4551.02
0
VERTEX
8
28
10
9269.23
20
4564.67
0
VERTEX
8
28
10
9148.92
20
4578.37
0
VERTEX
8
28
10
9028.66
20
4592.13
0
VERTEX
8
28
10
8908.43
20
4605.93
0
VERTEX
8
28
10
8788.24
20
4619.78
0
VERTEX
8
28
10
8668.07
20
4633.69
0
VERTEX
8
28
10
8547.94
20
4647.66
0
VERTEX
8
28
10
8427.84
20
4661.7
0
VERTEX
8
28
10
8307.74
20
4675.73
0
VERTEX
8
28
10
8147.54
20
4694.53
0
VERTEX
8
28
10
8147.54
20
4694.53
0
SEQEND
0
POLYLINE
8
29
62
5
66
1
6
CONTINUOUS
0
VERTEX
8
29
10
8187.65
20
5421.9
0
VERTEX
8
29
10
8206.09
20
5502.58
0
VERTEX
8
29
10
8224.53
20
5583.28
0
VERTEX
8
29
10
8242.98
20
5664
0
VERTEX
8
29
10
8261.43
20
5744.74
0
VERTEX
8
29
10
8279.89
20
5825.49
0
VERTEX
8
29
10
8298.35
20
5906.25
0
VERTEX
8
29
10
8421.18
20
5906
0
VERTEX
8
29
10
8544.03
20
5905.79
0
VERTEX
8
29
10
8666.92
20
5905.62
0
VERTEX
8
29
10
8789.84
20
5905.47
0
VERTEX
8
29
10
8912.81
20
5905.37
0
VERTEX
8
29
10
9035.81
20
5905.3
0
VERTEX
8
29
10
9158.87
20
5905.26
0
VERTEX
8
29
10
9281.97
20
5905.25
0
VERTEX
8
29
10
9405.13
20
5905.26
0
VERTEX
8
29
10
9528.33
20
5905.3
0
VERTEX
8
29
10
9651.6
20
5905.36
0
VERTEX
8
29
10
9774.92
20
5905.44
0
VERTEX
8
29
10
9898.3
20
5905.52
0
VERTEX
8
29
10
10021.7
20
5905.63
0
VERTEX
8
29
10
10145.2
20
5905.73
0
VERTEX
8
29
10
10268.8
20
5905.84
0
VERTEX
8
29
10
10392.5
20
5905.95
0
VERTEX
8
29
10
10516.2
20
5906.06
0
VERTEX
8
29
10
10640
20
5906.17
0
VERTEX
8
29
10
10763.8
20
5906.25
0
VERTEX
8
29
10
10748.1
20
5838.59
0
VERTEX
8
29
10
10732.3
20
5770.93
0
VERTEX
8
29
10
10716.6
20
5703.28
0
VERTEX
8
29
10
10700.9
20
5635.63
0
VERTEX
8
29
10
10685.2
20
5568
0
VERTEX
8
29
10
10669.5
20
5500.37
0
VERTEX
8
29
10
10544.8
20
5496.31
0
VERTEX
8
29
10
10420.2
20
5492.23
0
VERTEX
8
29
10
10295.7
20
5488.15
0
VERTEX
8
29
10
10171.2
20
5484.07
0
VERTEX
8
29
10
10046.8
20
5480
0
VERTEX
8
29
10
9922.5
20
5475.94
0
VERTEX
8
29
10
9798.24
20
5471.89
0
VERTEX
8
29
10
9674.04
20
5467.85
0
VERTEX
8
29
10
9549.92
20
5463.85
0
VERTEX
8
29
10
9425.84
20
5459.86
0
VERTEX
8
29
10
9301.82
20
5455.89
0
VERTEX
8
29
10
9177.86
20
5451.96
0
VERTEX
8
29
10
9053.95
20
5448.07
0
VERTEX
8
29
10
8930.08
20
5444.21
0
VERTEX
8
29
10
8806.25
20
5440.4
0
VERTEX
8
29
10
8682.47
20
5436.62
0
VERTEX
8
29
10
8558.74
20
5432.9
0
VERTEX
8
29
10
8435.01
20
5429.19
0
VERTEX
8
29
10
8311.32
20
5425.52
0
VERTEX
8
29
10
8187.65
20
5421.9
0
VERTEX
8
29
10
8187.65
20
5421.9
0
SEQEND
0
POLYLINE
8
29
62
1
66
1
6
CONTINUOUS
0
VERTEX
8
29
10
8146.35
20
5420.69
0
VERTEX
8
29
10
8167.09
20
5511.49
0
VERTEX
8
29
10
8185.53
20
5592.19
0
VERTEX
8
29
10
8203.98
20
5672.91
0
VERTEX
8
29
10
8222.43
20
5753.65
0
VERTEX
8
29
10
8240.89
20
5834.4
0
VERTEX
8
29
10
8261.91
20
5926.33
0
VERTEX
8
29
10
8421.22
20
5926
0
VERTEX
8
29
10
8544.07
20
5925.79
0
VERTEX
8
29
10
8666.95
20
5925.62
0
VERTEX
8
29
10
8789.86
20
5925.47
0
VERTEX
8
29
10
8912.82
20
5925.37
0
VERTEX
8
29
10
9035.83
20
5925.3
0
VERTEX
8
29
10
9158.88
20
5925.26
0
VERTEX
8
29
10
9281.98
20
5925.25
0
VERTEX
8
29
10
9405.12
20
5925.26
0
VERTEX
8
29
10
9528.33
20
5925.3
0
VERTEX
8
29
10
9651.59
20
5925.36
0
VERTEX
8
29
10
9774.91
20
5925.44
0
VERTEX
8
29
10
9898.28
20
5925.52
0
VERTEX
8
29
10
10021.7
20
5925.63
0
VERTEX
8
29
10
10145.2
20
5925.73
0
VERTEX
8
29
10
10268.8
20
5925.84
0
VERTEX
8
29
10
10392.4
20
5925.95
0
VERTEX
8
29
10
10516.2
20
5926.06
0
VERTEX
8
29
10
10639.9
20
5926.17
0
VERTEX
8
29
10
10768.5
20
5926.26
0
VERTEX
8
29
10
10748.1
20
5838.59
0
VERTEX
8
29
10
10732.3
20
5770.93
0
VERTEX
8
29
10
10716.6
20
5703.28
0
VERTEX
8
29
10
10700.9
20
5635.63
0
VERTEX
8
29
10
10685.2
20
5568
0
VERTEX
8
29
10
10669.5
20
5500.37
0
VERTEX
8
29
10
10544.8
20
5496.31
0
VERTEX
8
29
10
10420.2
20
5492.23
0
VERTEX
8
29
10
10295.7
20
5488.15
0
VERTEX
8
29
10
10171.2
20
5484.07
0
VERTEX
8
29
10
10046.8
20
5480
0
VERTEX
8
29
10
9922.5
20
5475.94
0
VERTEX
8
29
10
9798.24
20
5471.89
0
VERTEX
8
29
10
9674.04
20
5467.85
0
VERTEX
8
29
10
9549.92
20
5463.85
0
VERTEX
8
29
10
9425.84
20
5459.86
0
VERTEX
8
29
10
9301.82
20
5455.89
0
VERTEX
8
29
10
9177.86
20
5451.96
0
VERTEX
8
29
10
9053.95
20
5448.07
0
VERTEX
8
29
10
8930.08
20
5444.21
0
VERTEX
8
29
10
8806.25
20
5440.4
0
VERTEX
8
29
10
8682.47
20
5436.62
0
VERTEX
8
29
10
8558.74
20
5432.9
0
VERTEX
8
29
10
8435.01
20
5429.19
0
VERTEX
8
29
10
8311.32
20
5425.52
0
VERTEX
8
29
10
8146.35
20
5420.69
0
VERTEX
8
29
10
8146.35
20
5420.69
0
SEQEND
0
POLYLINE
8
30
62
5
66
1
6
CONTINUOUS
0
VERTEX
8
30
10
8187.65
20
5987.54
0
VERTEX
8
30
10
8203.5
20
6068.87
0
VERTEX
8
30
10
8219.35
20
6150.22
0
VERTEX
8
30
10
8235.21
20
6231.59
0
VERTEX
8
30
10
8251.07
20
6312.97
0
VERTEX
8
30
10
8266.94
20
6394.37
0
VERTEX
8
30
10
8282.82
20
6475.78
0
VERTEX
8
30
10
8404.73
20
6474.83
0
VERTEX
8
30
10
8526.7
20
6473.99
0
VERTEX
8
30
10
8648.72
20
6473.26
0
VERTEX
8
30
10
8770.79
20
6472.65
0
VERTEX
8
30
10
8892.93
20
6472.14
0
VERTEX
8
30
10
9015.12
20
6471.74
0
VERTEX
8
30
10
9137.38
20
6471.44
0
VERTEX
8
30
10
9259.7
20
6471.24
0
VERTEX
8
30
10
9382.09
20
6471.14
0
VERTEX
8
30
10
9504.54
20
6471.13
0
VERTEX
8
30
10
9627.07
20
6471.22
0
VERTEX
8
30
10
9749.66
20
6471.4
0
VERTEX
8
30
10
9872.33
20
6471.67
0
VERTEX
8
30
10
9995.08
20
6472.03
0
VERTEX
8
30
10
10117.9
20
6472.46
0
VERTEX
8
30
10
10240.8
20
6472.98
0
VERTEX
8
30
10
10363.8
20
6473.57
0
VERTEX
8
30
10
10486.9
20
6474.24
0
VERTEX
8
30
10
10610
20
6474.98
0
VERTEX
8
30
10
10733.2
20
6475.78
0
VERTEX
8
30
10
10719.7
20
6407.62
0
VERTEX
8
30
10
10706.1
20
6339.45
0
VERTEX
8
30
10
10692.5
20
6271.3
0
VERTEX
8
30
10
10679
20
6203.14
0
VERTEX
8
30
10
10665.4
20
6135
0
VERTEX
8
30
10
10651.8
20
6066.86
0
VERTEX
8
30
10
10528
20
6062.8
0
VERTEX
8
30
10
10404.3
20
6058.74
0
VERTEX
8
30
10
10280.7
20
6054.67
0
VERTEX
8
30
10
10157.1
20
6050.6
0
VERTEX
8
30
10
10033.6
20
6046.53
0
VERTEX
8
30
10
9910.17
20
6042.46
0
VERTEX
8
30
10
9786.79
20
6038.4
0
VERTEX
8
30
10
9663.48
20
6034.35
0
VERTEX
8
30
10
9540.22
20
6030.31
0
VERTEX
8
30
10
9417.02
20
6026.29
0
VERTEX
8
30
10
9293.88
20
6022.29
0
VERTEX
8
30
10
9170.79
20
6018.31
0
VERTEX
8
30
10
9047.75
20
6014.36
0
VERTEX
8
30
10
8924.76
20
6010.43
0
VERTEX
8
30
10
8801.81
20
6006.53
0
VERTEX
8
30
10
8678.91
20
6002.67
0
VERTEX
8
30
10
8556.05
20
5998.84
0
VERTEX
8
30
10
8433.22
20
5995.04
0
VERTEX
8
30
10
8310.42
20
5991.27
0
VERTEX
8
30
10
8187.65
20
5987.54
0
VERTEX
8
30
10
8187.65
20
5987.54
0
SEQEND
0
POLYLINE
8
30
62
1
66
1
6
CONTINUOUS
0
VERTEX
8
30
10
8146.66
20
5986.29
0
VERTEX
8
30
10
8164.24
20
6076.52
0
VERTEX
8
30
10
8180.09
20
6157.87
0
VERTEX
8
30
10
8195.95
20
6239.24
0
VERTEX
8
30
10
8211.81
20
6320.62
0
VERTEX
8
30
10
8227.68
20
6402.02
0
VERTEX
8
30
10
8249.91
20
6516.04
0
VERTEX
8
30
10
8405.04
20
6514.83
0
VERTEX
8
30
10
8526.97
20
6513.99
0
VERTEX
8
30
10
8648.95
20
6513.26
0
VERTEX
8
30
10
8770.99
20
6512.65
0
VERTEX
8
30
10
8893.09
20
6512.14
0
VERTEX
8
30
10
9015.25
20
6511.74
0
VERTEX
8
30
10
9137.48
20
6511.44
0
VERTEX
8
30
10
9259.76
20
6511.24
0
VERTEX
8
30
10
9382.12
20
6511.14
0
VERTEX
8
30
10
9504.54
20
6511.13
0
VERTEX
8
30
10
9627.04
20
6511.22
0
VERTEX
8
30
10
9749.6
20
6511.4
0
VERTEX
8
30
10
9872.25
20
6511.67
0
VERTEX
8
30
10
9994.96
20
6512.03
0
VERTEX
8
30
10
10117.8
20
6512.46
0
VERTEX
8
30
10
10240.6
20
6512.98
0
VERTEX
8
30
10
10363.6
20
6513.57
0
VERTEX
8
30
10
10486.6
20
6514.24
0
VERTEX
8
30
10
10609.8
20
6514.98
0
VERTEX
8
30
10
10741.2
20
6515.84
0
VERTEX
8
30
10
10719.7
20
6407.62
0
VERTEX
8
30
10
10706.1
20
6339.45
0
VERTEX
8
30
10
10692.5
20
6271.3
0
VERTEX
8
30
10
10679
20
6203.14
0
VERTEX
8
30
10
10665.4
20
6135
0
VERTEX
8
30
10
10651.8
20
6066.86
0
VERTEX
8
30
10
10528
20
6062.8
0
VERTEX
8
30
10
10404.3
20
6058.74
0
VERTEX
8
30
10
10280.7
20
6054.67
0
VERTEX
8
30
10
10157.1
20
6050.6
0
VERTEX
8
30
10
10033.6
20
6046.53
0
VERTEX
8
30
10
9910.17
20
6042.46
0
VERTEX
8
30
10
9786.79
20
6038.4
0
VERTEX
8
30
10
9663.48
20
6034.35
0
VERTEX
8
30
10
9540.22
20
6030.31
0
VERTEX
8
30
10
9417.02
20
6026.29
0
VERTEX
8
30
10
9293.88
20
6022.29
0
VERTEX
8
30
10
9170.79
20
6018.31
0
VERTEX
8
30
10
9047.75
20
6014.36
0
VERTEX
8
30
10
8924.76
20
6010.43
0
VERTEX
8
30
10
8801.81
20
6006.53
0
VERTEX
8
30
10
8678.91
20
6002.67
0
VERTEX
8
30
10
8556.05
20
5998.84
0
VERTEX
8
30
10
8433.22
20
5995.04
0
VERTEX
8
30
10
8310.42
20
5991.27
0
VERTEX
8
30
10
8146.66
20
5986.29
0
VERTEX
8
30
10
8146.66
20
5986.29
0
SEQEND
0
POLYLINE
8
31
62
5
66
1
6
CONTINUOUS
0
VERTEX
8
31
10
11302.8
20
0
0
VERTEX
8
31
10
11276.6
20
49.0898
0
VERTEX
8
31
10
11250.4
20
98.0146
0
VERTEX
8
31
10
11224.2
20
146.783
0
VERTEX
8
31
10
11198.1
20
195.4
0
VERTEX
8
31
10
11172
20
243.869
0
VERTEX
8
31
10
11146
20
292.192
0
VERTEX
8
31
10
11282
20
292.292
0
VERTEX
8
31
10
11418.1
20
292.367
0
VERTEX
8
31
10
11554.2
20
292.409
0
VERTEX
8
31
10
11690.4
20
292.443
0
VERTEX
8
31
10
11826.5
20
292.457
0
VERTEX
8
31
10
11962.7
20
292.474
0
VERTEX
8
31
10
12098.9
20
292.48
0
VERTEX
8
31
10
12235.1
20
292.489
0
VERTEX
8
31
10
12371.3
20
292.502
0
VERTEX
8
31
10
12507.5
20
292.514
0
VERTEX
8
31
10
12643.8
20
292.529
0
VERTEX
8
31
10
12780
20
292.542
0
VERTEX
8
31
10
12916.2
20
292.552
0
VERTEX
8
31
10
13052.5
20
292.516
0
VERTEX
8
31
10
13188.7
20
292.377
0
VERTEX
8
31
10
13325
20
292.28
0
VERTEX
8
31
10
13461.2
20
292.218
0
VERTEX
8
31
10
13597.4
20
292.186
0
VERTEX
8
31
10
13733.6
20
292.18
0
VERTEX
8
31
10
13869.8
20
292.192
0
VERTEX
8
31
10
13741.5
20
277.812
0
VERTEX
8
31
10
13613.1
20
263.467
0
VERTEX
8
31
10
13484.7
20
249.153
0
VERTEX
8
31
10
13356.4
20
234.867
0
VERTEX
8
31
10
13228
20
220.603
0
VERTEX
8
31
10
13099.5
20
206.359
0
VERTEX
8
31
10
12971.2
20
192.007
0
VERTEX
8
31
10
12842.8
20
177.562
0
VERTEX
8
31
10
12714.5
20
163.072
0
VERTEX
8
31
10
12586.1
20
148.533
0
VERTEX
8
31
10
12457.8
20
133.942
0
VERTEX
8
31
10
12329.4
20
119.297
0
VERTEX
8
31
10
12201.1
20
104.596
0
VERTEX
8
31
10
12072.8
20
89.8355
0
VERTEX
8
31
10
11944.4
20
75.0153
0
VERTEX
8
31
10
11816.1
20
60.1332
0
VERTEX
8
31
10
11687.8
20
45.1887
0
VERTEX
8
31
10
11559.5
20
30.1805
0
VERTEX
8
31
10
11431.2
20
15.1085
0
VERTEX
8
31
10
11302.8
20
0
0
VERTEX
8
31
10
11302.8
20
0
0
SEQEND
0
POLYLINE
8
31
62
1
66
1
6
CONTINUOUS
0
VERTEX
8
31
10
11265.2
20
-14.4973
0
VERTEX
8
31
10
11241.3
20
30.2425
0
VERTEX
8
31
10
11215.1
20
79.1285
0
VERTEX
8
31
10
11189
20
127.838
0
VERTEX
8
31
10
11162.9
20
176.463
0
VERTEX
8
31
10
11136.8
20
224.913
0
VERTEX
8
31
10
11089.8
20
312.151
0
VERTEX
8
31
10
11282
20
312.292
0
VERTEX
8
31
10
11418.1
20
312.367
0
VERTEX
8
31
10
11554.2
20
312.409
0
VERTEX
8
31
10
11690.4
20
312.443
0
VERTEX
8
31
10
11826.5
20
312.457
0
VERTEX
8
31
10
11962.7
20
312.474
0
VERTEX
8
31
10
12098.9
20
312.48
0
VERTEX
8
31
10
12235.1
20
312.489
0
VERTEX
8
31
10
12371.3
20
312.502
0
VERTEX
8
31
10
12507.5
20
312.514
0
VERTEX
8
31
10
12643.8
20
312.529
0
VERTEX
8
31
10
12780
20
312.542
0
VERTEX
8
31
10
12916.2
20
312.552
0
VERTEX
8
31
10
13052.5
20
312.516
0
VERTEX
8
31
10
13188.8
20
312.377
0
VERTEX
8
31
10
13325
20
312.28
0
VERTEX
8
31
10
13461.2
20
312.218
0
VERTEX
8
31
10
13597.4
20
312.186
0
VERTEX
8
31
10
13733.6
20
312.18
0
VERTEX
8
31
10
13868.7
20
312.192
0
VERTEX
8
31
10
13869.8
20
292.192
0
VERTEX
8
31
10
13870.4
20
282.191
0
VERTEX
8
31
10
13742.6
20
267.874
0
VERTEX
8
31
10
13614.2
20
253.529
0
VERTEX
8
31
10
13485.9
20
239.215
0
VERTEX
8
31
10
13357.5
20
224.928
0
VERTEX
8
31
10
13229.1
20
210.664
0
VERTEX
8
31
10
13100.7
20
196.421
0
VERTEX
8
31
10
12972.3
20
182.07
0
VERTEX
8
31
10
12843.9
20
167.626
0
VERTEX
8
31
10
12715.6
20
153.136
0
VERTEX
8
31
10
12587.2
20
138.597
0
VERTEX
8
31
10
12458.9
20
124.007
0
VERTEX
8
31
10
12330.6
20
109.362
0
VERTEX
8
31
10
12202.2
20
94.6613
0
VERTEX
8
31
10
12073.9
20
79.9015
0
VERTEX
8
31
10
11945.6
20
65.0819
0
VERTEX
8
31
10
11817.3
20
50.2003
0
VERTEX
8
31
10
11689
20
35.2564
0
VERTEX
8
31
10
11560.6
20
20.2487
0
VERTEX
8
31
10
11432.3
20
5.17712
0
VERTEX
8
31
10
11265.2
20
-14.4973
0
VERTEX
8
31
10
11265.2
20
-14.4973
0
SEQEND
0
POLYLINE
8
32
62
5
66
1
6
CONTINUOUS
0
VERTEX
8
32
10
11329.8
20
387.049
0
VERTEX
8
32
10
11299
20
432.305
0
VERTEX
8
32
10
11268.3
20
477.439
0
VERTEX
8
32
10
11237.6
20
522.458
0
VERTEX
8
32
10
11207
20
567.367
0
VERTEX
8
32
10
11176.5
20
612.168
0
VERTEX
8
32
10
11146
20
656.86
0
VERTEX
8
32
10
11290.6
20
657.135
0
VERTEX
8
32
10
11435.3
20
657.317
0
VERTEX
8
32
10
11580
20
657.396
0
VERTEX
8
32
10
11724.8
20
657.425
0
VERTEX
8
32
10
11869.6
20
657.384
0
VERTEX
8
32
10
12014.5
20
657.314
0
VERTEX
8
32
10
12159.3
20
657.228
0
VERTEX
8
32
10
12304.1
20
657.127
0
VERTEX
8
32
10
12449
20
657.031
0
VERTEX
8
32
10
12593.8
20
656.939
0
VERTEX
8
32
10
12738.6
20
656.863
0
VERTEX
8
32
10
12883.4
20
656.802
0
VERTEX
8
32
10
13028.1
20
656.759
0
VERTEX
8
32
10
13172.8
20
656.709
0
VERTEX
8
32
10
13317.5
20
656.564
0
VERTEX
8
32
10
13462.2
20
656.499
0
VERTEX
8
32
10
13606.8
20
656.504
0
VERTEX
8
32
10
13751.3
20
656.573
0
VERTEX
8
32
10
13895.8
20
656.694
0
VERTEX
8
32
10
14040.2
20
656.86
0
VERTEX
8
32
10
13904.7
20
643.607
0
VERTEX
8
32
10
13769.1
20
630.369
0
VERTEX
8
32
10
13633.5
20
617.147
0
VERTEX
8
32
10
13498
20
603.944
0
VERTEX
8
32
10
13362.3
20
590.763
0
VERTEX
8
32
10
13226.7
20
577.605
0
VERTEX
8
32
10
13091.1
20
564.323
0
VERTEX
8
32
10
12955.5
20
550.964
0
VERTEX
8
32
10
12820
20
537.566
0
VERTEX
8
32
10
12684.4
20
524.126
0
VERTEX
8
32
10
12548.8
20
510.644
0
VERTEX
8
32
10
12413.3
20
497.118
0
VERTEX
8
32
10
12277.8
20
483.549
0
VERTEX
8
32
10
12142.3
20
469.935
0
VERTEX
8
32
10
12006.8
20
456.263
0
VERTEX
8
32
10
11871.3
20
442.545
0
VERTEX
8
32
10
11735.9
20
428.762
0
VERTEX
8
32
10
11600.5
20
414.926
0
VERTEX
8
32
10
11465.1
20
401.016
0
VERTEX
8
32
10
11329.8
20
387.049
0
VERTEX
8
32
10
11329.8
20
387.049
0
SEQEND
0
POLYLINE
8
32
62
1
66
1
6
CONTINUOUS
0
VERTEX
8
32
10
11284.6
20
382.383
0
VERTEX
8
32
10
11265.9
20
409.811
0
VERTEX
8
32
10
11235.2
20
454.929
0
VERTEX
8
32
10
11204.5
20
499.927
0
VERTEX
8
32
10
11173.9
20
544.842
0
VERTEX
8
32
10
11143.4
20
589.639
0
VERTEX
8
32
10
11084
20
676.742
0
VERTEX
8
32
10
11290.6
20
677.135
0
VERTEX
8
32
10
11435.3
20
677.317
0
VERTEX
8
32
10
11580
20
677.396
0
VERTEX
8
32
10
11724.8
20
677.425
0
VERTEX
8
32
10
11869.6
20
677.384
0
VERTEX
8
32
10
12014.5
20
677.314
0
VERTEX
8
32
10
12159.3
20
677.228
0
VERTEX
8
32
10
12304.2
20
677.127
0
VERTEX
8
32
10
12449
20
677.031
0
VERTEX
8
32
10
12593.8
20
676.939
0
VERTEX
8
32
10
12738.6
20
676.863
0
VERTEX
8
32
10
12883.4
20
676.802
0
VERTEX
8
32
10
13028.1
20
676.759
0
VERTEX
8
32
10
13172.8
20
676.709
0
VERTEX
8
32
10
13317.6
20
676.564
0
VERTEX
8
32
10
13462.2
20
676.499
0
VERTEX
8
32
10
13606.8
20
676.504
0
VERTEX
8
32
10
13751.3
20
676.573
0
VERTEX
8
32
10
13895.8
20
676.694
0
VERTEX
8
32
10
14038.2
20
676.858
0
VERTEX
8
32
10
14040.2
20
656.86
0
VERTEX
8
32
10
14040.2
20
656.86
0
VERTEX
8
32
10
13904.7
20
643.607
0
VERTEX
8
32
10
13769.1
20
630.369
0
VERTEX
8
32
10
13633.5
20
617.147
0
VERTEX
8
32
10
13498
20
603.944
0
VERTEX
8
32
10
13362.3
20
590.763
0
VERTEX
8
32
10
13226.7
20
577.605
0
VERTEX
8
32
10
13091.1
20
564.323
0
VERTEX
8
32
10
12955.5
20
550.964
0
VERTEX
8
32
10
12820
20
537.566
0
VERTEX
8
32
10
12684.4
20
524.126
0
VERTEX
8
32
10
12548.8
20
510.644
0
VERTEX
8
32
10
12413.3
20
497.118
0
VERTEX
8
32
10
12277.8
20
483.549
0
VERTEX
8
32
10
12142.3
20
469.935
0
VERTEX
8
32
10
12006.8
20
456.263
0
VERTEX
8
32
10
11871.3
20
442.545
0
VERTEX
8
32
10
11735.9
20
428.762
0
VERTEX
8
32
10
11600.5
20
414.926
0
VERTEX
8
32
10
11465.1
20
401.016
0
VERTEX
8
32
10
11284.6
20
382.383
0
VERTEX
8
32
10
11284.6
20
382.383
0
SEQEND
0
POLYLINE
8
33
62
5
66
1
6
CONTINUOUS
0
VERTEX
8
33
10
11350.3
20
742.09
0
VERTEX
8
33
10
11316.1
20
783.82
0
VERTEX
8
33
10
11281.9
20
825.469
0
VERTEX
8
33
10
11247.8
20
867.044
0
VERTEX
8
33
10
11213.8
20
908.546
0
VERTEX
8
33
10
11179.9
20
949.976
0
VERTEX
8
33
10
11146
20
991.33
0
VERTEX
8
33
10
11300.1
20
992.05
0
VERTEX
8
33
10
11454.4
20
992.596
0
VERTEX
8
33
10
11608.8
20
992.953
0
VERTEX
8
33
10
11763.3
20
993.17
0
VERTEX
8
33
10
11917.9
20
993.27
0
VERTEX
8
33
10
12072.5
20
993.262
0
VERTEX
8
33
10
12227.2
20
993.184
0
VERTEX
8
33
10
12381.9
20
993.041
0
VERTEX
8
33
10
12536.5
20
992.866
0
VERTEX
8
33
10
12691.2
20
992.662
0
VERTEX
8
33
10
12845.7
20
992.454
0
VERTEX
8
33
10
13000.3
20
992.245
0
VERTEX
8
33
10
13154.8
20
992.048
0
VERTEX
8
33
10
13309.2
20
991.856
0
VERTEX
8
33
10
13463.5
20
991.546
0
VERTEX
8
33
10
13617.8
20
991.337
0
VERTEX
8
33
10
13771.9
20
991.22
0
VERTEX
8
33
10
13926
20
991.187
0
VERTEX
8
33
10
14079.9
20
991.228
0
VERTEX
8
33
10
14233.8
20
991.33
0
VERTEX
8
33
10
14089.9
20
978.94
0
VERTEX
8
33
10
13945.9
20
966.586
0
VERTEX
8
33
10
13801.9
20
954.275
0
VERTEX
8
33
10
13657.9
20
942.012
0
VERTEX
8
33
10
13513.7
20
929.802
0
VERTEX
8
33
10
13369.5
20
917.651
0
VERTEX
8
33
10
13225.3
20
905.38
0
VERTEX
8
33
10
13081.1
20
893.067
0
VERTEX
8
33
10
12936.9
20
880.737
0
VERTEX
8
33
10
12792.6
20
868.381
0
VERTEX
8
33
10
12648.3
20
856.002
0
VERTEX
8
33
10
12504
20
843.587
0
VERTEX
8
33
10
12359.7
20
831.138
0
VERTEX
8
33
10
12215.4
20
818.638
0
VERTEX
8
33
10
12071.1
20
806.086
0
VERTEX
8
33
10
11926.9
20
793.473
0
VERTEX
8
33
10
11782.6
20
780.767
0
VERTEX
8
33
10
11638.5
20
767.986
0
VERTEX
8
33
10
11494.4
20
755.09
0
VERTEX
8
33
10
11350.3
20
742.09
0
VERTEX
8
33
10
11350.3
20
742.09
0
SEQEND
0
POLYLINE
8
33
62
1
66
1
6
CONTINUOUS
0
VERTEX
8
33
10
11302.1
20
737.743
0
VERTEX
8
33
10
11285.2
20
758.453
0
VERTEX
8
33
10
11251
20
800.102
0
VERTEX
8
33
10
11216.9
20
841.685
0
VERTEX
8
33
10
11182.9
20
883.188
0
VERTEX
8
33
10
11148.9
20
924.623
0
VERTEX
8
33
10
11078.1
20
1011.01
0
VERTEX
8
33
10
11300
20
1012.05
0
VERTEX
8
33
10
11454.3
20
1012.6
0
VERTEX
8
33
10
11608.8
20
1012.95
0
VERTEX
8
33
10
11763.3
20
1013.17
0
VERTEX
8
33
10
11917.9
20
1013.27
0
VERTEX
8
33
10
12072.5
20
1013.26
0
VERTEX
8
33
10
12227.2
20
1013.18
0
VERTEX
8
33
10
12381.9
20
1013.04
0
VERTEX
8
33
10
12536.5
20
1012.87
0
VERTEX
8
33
10
12691.2
20
1012.66
0
VERTEX
8
33
10
12845.8
20
1012.45
0
VERTEX
8
33
10
13000.3
20
1012.24
0
VERTEX
8
33
10
13154.8
20
1012.05
0
VERTEX
8
33
10
13309.2
20
1011.86
0
VERTEX
8
33
10
13463.6
20
1011.55
0
VERTEX
8
33
10
13617.8
20
1011.34
0
VERTEX
8
33
10
13771.9
20
1011.22
0
VERTEX
8
33
10
13926
20
1011.19
0
VERTEX
8
33
10
14079.9
20
1011.23
0
VERTEX
8
33
10
14232.1
20
1011.33
0
VERTEX
8
33
10
14233.8
20
991.33
0
VERTEX
8
33
10
14089.9
20
978.94
0
VERTEX
8
33
10
13945.9
20
966.586
0
VERTEX
8
33
10
13801.9
20
954.275
0
VERTEX
8
33
10
13657.9
20
942.012
0
VERTEX
8
33
10
13513.7
20
929.802
0
VERTEX
8
33
10
13369.5
20
917.651
0
VERTEX
8
33
10
13225.3
20
905.38
0
VERTEX
8
33
10
13081.1
20
893.067
0
VERTEX
8
33
10
12936.9
20
880.737
0
VERTEX
8
33
10
12792.6
20
868.381
0
VERTEX
8
33
10
12648.3
20
856.002
0
VERTEX
8
33
10
12504
20
843.587
0
VERTEX
8
33
10
12359.7
20
831.138
0
VERTEX
8
33
10
12215.4
20
818.638
0
VERTEX
8
33
10
12071.1
20
806.086
0
VERTEX
8
33
10
11926.9
20
793.473
0
VERTEX
8
33
10
11782.6
20
780.767
0
VERTEX
8
33
10
11638.5
20
767.986
0
VERTEX
8
33
10
11494.4
20
755.09
0
VERTEX
8
33
10
11302.1
20
737.743
0
VERTEX
8
33
10
11302.1
20
737.743
0
SEQEND
0
POLYLINE
8
34
62
5
66
1
6
CONTINUOUS
0
VERTEX
8
34
10
11884.8
20
1077.62
0
VERTEX
8
34
10
11760.1
20
1178.99
0
VERTEX
8
34
10
11636
20
1280.19
0
VERTEX
8
34
10
11512.6
20
1381.51
0
VERTEX
8
34
10
11389.9
20
1482.98
0
VERTEX
8
34
10
11267.9
20
1584.39
0
VERTEX
8
34
10
11146
20
1685.3
0
VERTEX
8
34
10
11332.5
20
1686.96
0
VERTEX
8
34
10
11519.5
20
1688.39
0
VERTEX
8
34
10
11706.8
20
1689.59
0
VERTEX
8
34
10
11894.5
20
1690.52
0
VERTEX
8
34
10
12082.5
20
1691.21
0
VERTEX
8
34
10
12270.9
20
1691.66
0
VERTEX
8
34
10
12459.5
20
1691.9
0
VERTEX
8
34
10
12648.4
20
1691.93
0
VERTEX
8
34
10
12837.5
20
1691.79
0
VERTEX
8
34
10
13026.6
20
1691.5
0
VERTEX
8
34
10
13215.8
20
1691.09
0
VERTEX
8
34
10
13405
20
1690.57
0
VERTEX
8
34
10
13594.1
20
1689.98
0
VERTEX
8
34
10
13783
20
1689.32
0
VERTEX
8
34
10
13971.8
20
1688.45
0
VERTEX
8
34
10
14160.4
20
1687.62
0
VERTEX
8
34
10
14348.7
20
1686.9
0
VERTEX
8
34
10
14536.8
20
1686.28
0
VERTEX
8
34
10
14724.6
20
1685.75
0
VERTEX
8
34
10
14912.3
20
1685.3
0
VERTEX
8
34
10
14761.4
20
1655.23
0
VERTEX
8
34
10
14610.4
20
1625.19
0
VERTEX
8
34
10
14459.3
20
1595.18
0
VERTEX
8
34
10
14308.1
20
1565.22
0
VERTEX
8
34
10
14156.7
20
1535.31
0
VERTEX
8
34
10
14005.3
20
1505.44
0
VERTEX
8
34
10
13853.8
20
1475.4
0
VERTEX
8
34
10
13702.3
20
1445.3
0
VERTEX
8
34
10
13550.8
20
1415.15
0
VERTEX
8
34
10
13399.2
20
1384.94
0
VERTEX
8
34
10
13247.5
20
1354.66
0
VERTEX
8
34
10
13095.9
20
1324.31
0
VERTEX
8
34
10
12944.2
20
1293.88
0
VERTEX
8
34
10
12792.6
20
1263.36
0
VERTEX
8
34
10
12641
20
1232.74
0
VERTEX
8
34
10
12489.5
20
1202
0
VERTEX
8
34
10
12338.2
20
1171.13
0
VERTEX
8
34
10
12186.9
20
1140.11
0
VERTEX
8
34
10
12035.8
20
1108.93
0
VERTEX
8
34
10
11884.8
20
1077.62
0
VERTEX
8
34
10
11884.8
20
1077.62
0
SEQEND
0
POLYLINE
8
34
62
1
66
1
6
CONTINUOUS
0
VERTEX
8
34
10
11834.4
20
1067.15
0
VERTEX
8
34
10
11734.9
20
1147.95
0
VERTEX
8
34
10
11610.7
20
1249.18
0
VERTEX
8
34
10
11487.1
20
1350.69
0
VERTEX
8
34
10
11364.4
20
1452.17
0
VERTEX
8
34
10
11242.3
20
1553.62
0
VERTEX
8
34
10
11060
20
1704.54
0
VERTEX
8
34
10
11332.4
20
1706.96
0
VERTEX
8
34
10
11519.3
20
1708.39
0
VERTEX
8
34
10
11706.6
20
1709.59
0
VERTEX
8
34
10
11894.4
20
1710.52
0
VERTEX
8
34
10
12082.4
20
1711.21
0
VERTEX
8
34
10
12270.8
20
1711.66
0
VERTEX
8
34
10
12459.5
20
1711.9
0
VERTEX
8
34
10
12648.4
20
1711.93
0
VERTEX
8
34
10
12837.5
20
1711.79
0
VERTEX
8
34
10
13026.7
20
1711.5
0
VERTEX
8
34
10
13215.9
20
1711.09
0
VERTEX
8
34
10
13405
20
1710.57
0
VERTEX
8
34
10
13594.1
20
1709.98
0
VERTEX
8
34
10
13783.1
20
1709.32
0
VERTEX
8
34
10
13971.9
20
1708.45
0
VERTEX
8
34
10
14160.4
20
1707.62
0
VERTEX
8
34
10
14348.8
20
1706.9
0
VERTEX
8
34
10
14536.8
20
1706.28
0
VERTEX
8
34
10
14724.7
20
1705.75
0
VERTEX
8
34
10
14908.3
20
1705.31
0
VERTEX
8
34
10
14912.3
20
1685.3
0
VERTEX
8
34
10
14761.4
20
1655.23
0
VERTEX
8
34
10
14610.4
20
1625.19
0
VERTEX
8
34
10
14459.3
20
1595.18
0
VERTEX
8
34
10
14308.1
20
1565.22
0
VERTEX
8
34
10
14156.7
20
1535.31
0
VERTEX
8
34
10
14005.3
20
1505.44
0
VERTEX
8
34
10
13853.8
20
1475.4
0
VERTEX
8
34
10
13702.3
20
1445.3
0
VERTEX
8
34
10
13550.8
20
1415.15
0
VERTEX
8
34
10
13399.2
20
1384.94
0
VERTEX
8
34
10
13247.5
20
1354.66
0
VERTEX
8
34
10
13095.9
20
1324.31
0
VERTEX
8
34
10
12944.2
20
1293.88
0
VERTEX
8
34
10
12792.6
20
1263.36
0
VERTEX
8
34
10
12641
20
1232.74
0
VERTEX
8
34
10
12489.5
20
1202
0
VERTEX
8
34
10
12338.2
20
1171.13
0
VERTEX
8
34
10
12186.9
20
1140.11
0
VERTEX
8
34
10
12035.8
20
1108.93
0
VERTEX
8
34
10
11834.4
20
1067.15
0
VERTEX
8
34
10
11834.4
20
1067.15
0
SEQEND
0
POLYLINE
8
35
62
5
66
1
6
CONTINUOUS
0
VERTEX
8
35
10
11947.5
20
1782.39
0
VERTEX
8
35
10
11813.3
20
1866.34
0
VERTEX
8
35
10
11679.4
20
1950.68
0
VERTEX
8
35
10
11545.8
20
2035.42
0
VERTEX
8
35
10
11412.5
20
2120.5
0
VERTEX
8
35
10
11279.3
20
2205.69
0
VERTEX
8
35
10
11146
20
2290.65
0
VERTEX
8
35
10
11369.8
20
2290.83
0
VERTEX
8
35
10
11593.9
20
2291.26
0
VERTEX
8
35
10
11818.2
20
2291.89
0
VERTEX
8
35
10
12042.9
20
2292.64
0
VERTEX
8
35
10
12268.1
20
2293.46
0
VERTEX
8
35
10
12493.9
20
2294.28
0
VERTEX
8
35
10
12720.2
20
2295.05
0
VERTEX
8
35
10
12947.1
20
2295.71
0
VERTEX
8
35
10
13174.4
20
2296.24
0
VERTEX
8
35
10
13402.2
20
2296.59
0
VERTEX
8
35
10
13630.3
20
2296.76
0
VERTEX
8
35
10
13858.5
20
2296.72
0
VERTEX
8
35
10
14086.9
20
2296.47
0
VERTEX
8
35
10
14315.2
20
2296.02
0
VERTEX
8
35
10
14543.3
20
2295.16
0
VERTEX
8
35
10
14771.2
20
2294.16
0
VERTEX
8
35
10
14998.8
20
2293.2
0
VERTEX
8
35
10
15226
20
2292.29
0
VERTEX
8
35
10
15452.8
20
2291.44
0
VERTEX
8
35
10
15679.3
20
2290.65
0
VERTEX
8
35
10
15493.3
20
2266.08
0
VERTEX
8
35
10
15307.1
20
2241.56
0
VERTEX
8
35
10
15120.6
20
2217.07
0
VERTEX
8
35
10
14933.8
20
2192.63
0
VERTEX
8
35
10
14746.9
20
2168.21
0
VERTEX
8
35
10
14559.7
20
2143.77
0
VERTEX
8
35
10
14372.3
20
2119
0
VERTEX
8
35
10
14184.9
20
2094.08
0
VERTEX
8
35
10
13997.4
20
2069
0
VERTEX
8
35
10
13809.9
20
2043.74
0
VERTEX
8
35
10
13622.5
20
2018.31
0
VERTEX
8
35
10
13435.2
20
1992.69
0
VERTEX
8
35
10
13248.1
20
1966.88
0
VERTEX
8
35
10
13061.2
20
1940.9
0
VERTEX
8
35
10
12874.6
20
1914.73
0
VERTEX
8
35
10
12688.5
20
1888.43
0
VERTEX
8
35
10
12502.6
20
1861.98
0
VERTEX
8
35
10
12317.2
20
1835.45
0
VERTEX
8
35
10
12132.2
20
1808.84
0
VERTEX
8
35
10
11947.5
20
1782.39
0
VERTEX
8
35
10
11947.5
20
1782.39
0
SEQEND
0
POLYLINE
8
35
62
1
66
1
6
CONTINUOUS
0
VERTEX
8
35
10
11886.4
20
1773.64
0
VERTEX
8
35
10
11792.1
20
1832.43
0
VERTEX
8
35
10
11658.1
20
1916.83
0
VERTEX
8
35
10
11524.3
20
2001.71
0
VERTEX
8
35
10
11391
20
2086.78
0
VERTEX
8
35
10
11257.7
20
2171.99
0
VERTEX
8
35
10
11040.3
20
2310.56
0
VERTEX
8
35
10
11369.8
20
2310.83
0
VERTEX
8
35
10
11593.8
20
2311.26
0
VERTEX
8
35
10
11818.1
20
2311.89
0
VERTEX
8
35
10
12042.9
20
2312.64
0
VERTEX
8
35
10
12268.1
20
2313.46
0
VERTEX
8
35
10
12493.8
20
2314.28
0
VERTEX
8
35
10
12720.1
20
2315.05
0
VERTEX
8
35
10
12947
20
2315.71
0
VERTEX
8
35
10
13174.4
20
2316.24
0
VERTEX
8
35
10
13402.1
20
2316.59
0
VERTEX
8
35
10
13630.2
20
2316.76
0
VERTEX
8
35
10
13858.5
20
2316.72
0
VERTEX
8
35
10
14086.9
20
2316.47
0
VERTEX
8
35
10
14315.2
20
2316.02
0
VERTEX
8
35
10
14543.4
20
2315.16
0
VERTEX
8
35
10
14771.3
20
2314.16
0
VERTEX
8
35
10
14998.9
20
2313.2
0
VERTEX
8
35
10
15226.1
20
2312.29
0
VERTEX
8
35
10
15452.9
20
2311.44
0
VERTEX
8
35
10
15676.7
20
2310.66
0
VERTEX
8
35
10
15679.3
20
2290.65
0
VERTEX
8
35
10
15679.3
20
2290.65
0
VERTEX
8
35
10
15493.3
20
2266.08
0
VERTEX
8
35
10
15307.1
20
2241.56
0
VERTEX
8
35
10
15120.6
20
2217.07
0
VERTEX
8
35
10
14933.8
20
2192.63
0
VERTEX
8
35
10
14746.9
20
2168.21
0
VERTEX
8
35
10
14559.7
20
2143.77
0
VERTEX
8
35
10
14372.3
20
2119
0
VERTEX
8
35
10
14184.9
20
2094.08
0
VERTEX
8
35
10
13997.4
20
2069
0
VERTEX
8
35
10
13809.9
20
2043.74
0
VERTEX
8
35
10
13622.5
20
2018.31
0
VERTEX
8
35
10
13435.2
20
1992.69
0
VERTEX
8
35
10
13248.1
20
1966.88
0
VERTEX
8
35
10
13061.2
20
1940.9
0
VERTEX
8
35
10
12874.6
20
1914.73
0
VERTEX
8
35
10
12688.5
20
1888.43
0
VERTEX
8
35
10
12502.6
20
1861.98
0
VERTEX
8
35
10
12317.2
20
1835.45
0
VERTEX
8
35
10
12132.2
20
1808.84
0
VERTEX
8
35
10
11886.4
20
1773.64
0
VERTEX
8
35
10
11886.4
20
1773.64
0
SEQEND
0
POLYLINE
8
36
62
5
66
1
6
CONTINUOUS
0
VERTEX
8
36
10
11146
20
2385.52
0
VERTEX
8
36
10
11203.7
20
2476.08
0
VERTEX
8
36
10
11261.4
20
2566.76
0
VERTEX
8
36
10
11319.2
20
2657.52
0
VERTEX
8
36
10
11377.1
20
2748.33
0
VERTEX
8
36
10
11435
20
2839.23
0
VERTEX
8
36
10
11493.1
20
2930.2
0
VERTEX
8
36
10
11698.6
20
2929.3
0
VERTEX
8
36
10
11904.2
20
2928.78
0
VERTEX
8
36
10
12110.2
20
2928.6
0
VERTEX
8
36
10
12316.5
20
2928.67
0
VERTEX
8
36
10
12523.3
20
2929
0
VERTEX
8
36
10
12730.5
20
2929.5
0
VERTEX
8
36
10
12938
20
2930.1
0
VERTEX
8
36
10
13146
20
2930.77
0
VERTEX
8
36
10
13354.2
20
2931.42
0
VERTEX
8
36
10
13562.8
20
2932.02
0
VERTEX
8
36
10
13771.5
20
2932.52
0
VERTEX
8
36
10
13980.4
20
2932.88
0
VERTEX
8
36
10
14189.2
20
2932.94
0
VERTEX
8
36
10
14398
20
2932.6
0
VERTEX
8
36
10
14606.7
20
2932.25
0
VERTEX
8
36
10
14815.2
20
2931.87
0
VERTEX
8
36
10
15023.4
20
2931.47
0
VERTEX
8
36
10
15231.4
20
2931.05
0
VERTEX
8
36
10
15439.1
20
2930.62
0
VERTEX
8
36
10
15646.5
20
2930.2
0
VERTEX
8
36
10
15421.5
20
2903.74
0
VERTEX
8
36
10
15196.2
20
2877.29
0
VERTEX
8
36
10
14970.6
20
2850.81
0
VERTEX
8
36
10
14744.5
20
2824.31
0
VERTEX
8
36
10
14518.2
20
2797.78
0
VERTEX
8
36
10
14291.6
20
2771
0
VERTEX
8
36
10
14065
20
2743.69
0
VERTEX
8
36
10
13838.3
20
2716.09
0
VERTEX
8
36
10
13611.7
20
2688.26
0
VERTEX
8
36
10
13385.4
20
2660.21
0
VERTEX
8
36
10
13159.4
20
2632.03
0
VERTEX
8
36
10
12933.8
20
2603.78
0
VERTEX
8
36
10
12708.7
20
2575.55
0
VERTEX
8
36
10
12484.1
20
2547.42
0
VERTEX
8
36
10
12260.1
20
2519.5
0
VERTEX
8
36
10
12036.6
20
2491.85
0
VERTEX
8
36
10
11813.5
20
2464.56
0
VERTEX
8
36
10
11590.8
20
2437.73
0
VERTEX
8
36
10
11368.3
20
2411.34
0
VERTEX
8
36
10
11146
20
2385.52
0
VERTEX
8
36
10
11146
20
2385.52
0
SEQEND
0
POLYLINE
8
36
62
1
66
1
6
CONTINUOUS
0
VERTEX
8
36
10
11120.4
20
2382.54
0
VERTEX
8
36
10
11186.8
20
2486.82
0
VERTEX
8
36
10
11244.5
20
2577.5
0
VERTEX
8
36
10
11302.3
20
2668.27
0
VERTEX
8
36
10
11360.2
20
2759.08
0
VERTEX
8
36
10
11418.2
20
2849.99
0
VERTEX
8
36
10
11482.2
20
2950.25
0
VERTEX
8
36
10
11698.6
20
2949.3
0
VERTEX
8
36
10
11904.3
20
2948.78
0
VERTEX
8
36
10
12110.2
20
2948.6
0
VERTEX
8
36
10
12316.5
20
2948.67
0
VERTEX
8
36
10
12523.3
20
2949
0
VERTEX
8
36
10
12730.4
20
2949.5
0
VERTEX
8
36
10
12938
20
2950.1
0
VERTEX
8
36
10
13145.9
20
2950.77
0
VERTEX
8
36
10
13354.2
20
2951.42
0
VERTEX
8
36
10
13562.7
20
2952.02
0
VERTEX
8
36
10
13771.5
20
2952.52
0
VERTEX
8
36
10
13980.3
20
2952.88
0
VERTEX
8
36
10
14189.2
20
2952.94
0
VERTEX
8
36
10
14398.1
20
2952.6
0
VERTEX
8
36
10
14606.7
20
2952.25
0
VERTEX
8
36
10
14815.2
20
2951.87
0
VERTEX
8
36
10
15023.4
20
2951.47
0
VERTEX
8
36
10
15231.4
20
2951.05
0
VERTEX
8
36
10
15439.1
20
2950.62
0
VERTEX
8
36
10
15644.1
20
2950.2
0
VERTEX
8
36
10
15646.5
20
2930.2
0
VERTEX
8
36
10
15646.5
20
2930.2
0
VERTEX
8
36
10
15421.5
20
2903.74
0
VERTEX
8
36
10
15196.2
20
2877.29
0
VERTEX
8
36
10
14970.6
20
2850.81
0
VERTEX
8
36
10
14744.5
20
2824.31
0
VERTEX
8
36
10
14518.2
20
2797.78
0
VERTEX
8
36
10
14291.6
20
2771
0
VERTEX
8
36
10
14065
20
2743.69
0
VERTEX
8
36
10
13838.3
20
2716.09
0
VERTEX
8
36
10
13611.7
20
2688.26
0
VERTEX
8
36
10
13385.4
20
2660.21
0
VERTEX
8
36
10
13159.4
20
2632.03
0
VERTEX
8
36
10
12933.8
20
2603.78
0
VERTEX
8
36
10
12708.7
20
2575.55
0
VERTEX
8
36
10
12484.1
20
2547.42
0
VERTEX
8
36
10
12260.1
20
2519.5
0
VERTEX
8
36
10
12036.6
20
2491.85
0
VERTEX
8
36
10
11813.5
20
2464.56
0
VERTEX
8
36
10
11590.8
20
2437.73
0
VERTEX
8
36
10
11368.3
20
2411.34
0
VERTEX
8
36
10
11120.4
20
2382.54
0
VERTEX
8
36
10
11120.4
20
2382.54
0
SEQEND
0
POLYLINE
8
37
62
5
66
1
6
CONTINUOUS
0
VERTEX
8
37
10
11146
20
3015.91
0
VERTEX
8
37
10
11190.8
20
3114.15
0
VERTEX
8
37
10
11235.8
20
3212.56
0
VERTEX
8
37
10
11280.8
20
3311.09
0
VERTEX
8
37
10
11326
20
3409.71
0
VERTEX
8
37
10
11371.4
20
3508.46
0
VERTEX
8
37
10
11416.9
20
3607.32
0
VERTEX
8
37
10
11607.4
20
3606.17
0
VERTEX
8
37
10
11798.2
20
3605.4
0
VERTEX
8
37
10
11989.1
20
3604.96
0
VERTEX
8
37
10
12180.3
20
3604.78
0
VERTEX
8
37
10
12371.8
20
3604.88
0
VERTEX
8
37
10
12563.6
20
3605.17
0
VERTEX
8
37
10
12755.5
20
3605.59
0
VERTEX
8
37
10
12947.8
20
3606.13
0
VERTEX
8
37
10
13140.2
20
3606.71
0
VERTEX
8
37
10
13332.7
20
3607.08
0
VERTEX
8
37
10
13525.4
20
3607.09
0
VERTEX
8
37
10
13718.1
20
3607.19
0
VERTEX
8
37
10
13910.9
20
3607.32
0
VERTEX
8
37
10
14103.5
20
3607.44
0
VERTEX
8
37
10
14296.1
20
3607.53
0
VERTEX
8
37
10
14488.6
20
3607.57
0
VERTEX
8
37
10
14681
20
3607.57
0
VERTEX
8
37
10
14873.1
20
3607.53
0
VERTEX
8
37
10
15065.1
20
3607.44
0
VERTEX
8
37
10
15257
20
3607.32
0
VERTEX
8
37
10
15051.6
20
3578.34
0
VERTEX
8
37
10
14845.9
20
3549.32
0
VERTEX
8
37
10
14640
20
3520.22
0
VERTEX
8
37
10
14433.9
20
3491.04
0
VERTEX
8
37
10
14227.5
20
3461.76
0
VERTEX
8
37
10
14020.9
20
3432.41
0
VERTEX
8
37
10
13814.1
20
3402.98
0
VERTEX
8
37
10
13607.4
20
3373.08
0
VERTEX
8
37
10
13400.8
20
3342.8
0
VERTEX
8
37
10
13194.3
20
3312.35
0
VERTEX
8
37
10
12988
20
3281.79
0
VERTEX
8
37
10
12782
20
3251.24
0
VERTEX
8
37
10
12576.3
20
3220.74
0
VERTEX
8
37
10
12370.9
20
3190.42
0
VERTEX
8
37
10
12166
20
3160.32
0
VERTEX
8
37
10
11961.4
20
3130.54
0
VERTEX
8
37
10
11757.1
20
3101.18
0
VERTEX
8
37
10
11553.2
20
3072.24
0
VERTEX
8
37
10
11349.5
20
3043.78
0
VERTEX
8
37
10
11146
20
3015.91
0
VERTEX
8
37
10
11146
20
3015.91
0
SEQEND
0
POLYLINE
8
37
62
1
66
1
6
CONTINUOUS
0
VERTEX
8
37
10
11122.5
20
3012.7
0
VERTEX
8
37
10
11172.6
20
3122.46
0
VERTEX
8
37
10
11217.6
20
3220.87
0
VERTEX
8
37
10
11262.7
20
3319.42
0
VERTEX
8
37
10
11307.9
20
3418.04
0
VERTEX
8
37
10
11353.2
20
3516.81
0
VERTEX
8
37
10
11404.1
20
3627.4
0
VERTEX
8
37
10
11607.5
20
3626.17
0
VERTEX
8
37
10
11798.2
20
3625.4
0
VERTEX
8
37
10
11989.2
20
3624.96
0
VERTEX
8
37
10
12180.3
20
3624.78
0
VERTEX
8
37
10
12371.8
20
3624.88
0
VERTEX
8
37
10
12563.5
20
3625.17
0
VERTEX
8
37
10
12755.5
20
3625.59
0
VERTEX
8
37
10
12947.7
20
3626.13
0
VERTEX
8
37
10
13140.1
20
3626.71
0
VERTEX
8
37
10
13332.7
20
3627.08
0
VERTEX
8
37
10
13525.4
20
3627.09
0
VERTEX
8
37
10
13718.1
20
3627.19
0
VERTEX
8
37
10
13910.8
20
3627.32
0
VERTEX
8
37
10
14103.5
20
3627.44
0
VERTEX
8
37
10
14296.1
20
3627.53
0
VERTEX
8
37
10
14488.6
20
3627.57
0
VERTEX
8
37
10
14681
20
3627.57
0
VERTEX
8
37
10
14873.1
20
3627.53
0
VERTEX
8
37
10
15065.2
20
3627.44
0
VERTEX
8
37
10
15254.2
20
3627.32
0
VERTEX
8
37
10
15257
20
3607.32
0
VERTEX
8
37
10
15051.6
20
3578.34
0
VERTEX
8
37
10
14845.9
20
3549.32
0
VERTEX
8
37
10
14640
20
3520.22
0
VERTEX
8
37
10
14433.9
20
3491.04
0
VERTEX
8
37
10
14227.5
20
3461.76
0
VERTEX
8
37
10
14020.9
20
3432.41
0
VERTEX
8
37
10
13814.1
20
3402.98
0
VERTEX
8
37
10
13607.4
20
3373.08
0
VERTEX
8
37
10
13400.8
20
3342.8
0
VERTEX
8
37
10
13194.3
20
3312.35
0
VERTEX
8
37
10
12988
20
3281.79
0
VERTEX
8
37
10
12782
20
3251.24
0
VERTEX
8
37
10
12576.3
20
3220.74
0
VERTEX
8
37
10
12370.9
20
3190.42
0
VERTEX
8
37
10
12166
20
3160.32
0
VERTEX
8
37
10
11961.4
20
3130.54
0
VERTEX
8
37
10
11757.1
20
3101.18
0
VERTEX
8
37
10
11553.2
20
3072.24
0
VERTEX
8
37
10
11349.5
20
3043.78
0
VERTEX
8
37
10
11122.5
20
3012.7
0
VERTEX
8
37
10
11122.5
20
3012.7
0
SEQEND
0
POLYLINE
8
38
62
5
66
1
6
CONTINUOUS
0
VERTEX
8
38
10
11146
20
3690.79
0
VERTEX
8
38
10
11174.7
20
3795.9
0
VERTEX
8
38
10
11203.6
20
3901.23
0
VERTEX
8
38
10
11232.7
20
4006.72
0
VERTEX
8
38
10
11261.9
20
4112.42
0
VERTEX
8
38
10
11291.3
20
4218.27
0
VERTEX
8
38
10
11320.9
20
4324.34
0
VERTEX
8
38
10
11500.7
20
4323.27
0
VERTEX
8
38
10
11680.7
20
4322.5
0
VERTEX
8
38
10
11860.8
20
4321.33
0
VERTEX
8
38
10
12041.2
20
4320.37
0
VERTEX
8
38
10
12221.6
20
4319.71
0
VERTEX
8
38
10
12402.1
20
4319.31
0
VERTEX
8
38
10
12582.6
20
4319.15
0
VERTEX
8
38
10
12763.3
20
4319.18
0
VERTEX
8
38
10
12944.1
20
4319.39
0
VERTEX
8
38
10
13124.9
20
4319.72
0
VERTEX
8
38
10
13305.8
20
4320.13
0
VERTEX
8
38
10
13486.7
20
4320.59
0
VERTEX
8
38
10
13667.6
20
4321.09
0
VERTEX
8
38
10
13848.6
20
4321.61
0
VERTEX
8
38
10
14029.5
20
4322.12
0
VERTEX
8
38
10
14210.4
20
4322.62
0
VERTEX
8
38
10
14391.2
20
4323.1
0
VERTEX
8
38
10
14572
20
4323.54
0
VERTEX
8
38
10
14752.8
20
4323.96
0
VERTEX
8
38
10
14933.4
20
4324.34
0
VERTEX
8
38
10
14744.2
20
4293.03
0
VERTEX
8
38
10
14554.7
20
4261.65
0
VERTEX
8
38
10
14365.1
20
4230.18
0
VERTEX
8
38
10
14175.4
20
4198.61
0
VERTEX
8
38
10
13985.5
20
4166.94
0
VERTEX
8
38
10
13795.6
20
4135.18
0
VERTEX
8
38
10
13605.6
20
4103.35
0
VERTEX
8
38
10
13415.5
20
4071.48
0
VERTEX
8
38
10
13225.4
20
4039.59
0
VERTEX
8
38
10
13035.4
20
4007.73
0
VERTEX
8
38
10
12845.6
20
3975.51
0
VERTEX
8
38
10
12655.9
20
3943.05
0
VERTEX
8
38
10
12466.4
20
3910.63
0
VERTEX
8
38
10
12277.2
20
3878.34
0
VERTEX
8
38
10
12088.2
20
3846.21
0
VERTEX
8
38
10
11899.3
20
3814.33
0
VERTEX
8
38
10
11710.7
20
3782.81
0
VERTEX
8
38
10
11522.3
20
3751.66
0
VERTEX
8
38
10
11334.1
20
3720.96
0
VERTEX
8
38
10
11146
20
3690.79
0
VERTEX
8
38
10
11146
20
3690.79
0
SEQEND
0
POLYLINE
8
38
62
1
66
1
6
CONTINUOUS
0
VERTEX
8
38
10
11124.3
20
3687.31
0
VERTEX
8
38
10
11155.4
20
3801.18
0
VERTEX
8
38
10
11184.3
20
3906.52
0
VERTEX
8
38
10
11213.4
20
4012.05
0
VERTEX
8
38
10
11242.6
20
4117.75
0
VERTEX
8
38
10
11272
20
4223.63
0
VERTEX
8
38
10
11305.8
20
4344.43
0
VERTEX
8
38
10
11500.9
20
4343.27
0
VERTEX
8
38
10
11680.8
20
4342.5
0
VERTEX
8
38
10
11861
20
4341.33
0
VERTEX
8
38
10
12041.3
20
4340.37
0
VERTEX
8
38
10
12221.6
20
4339.71
0
VERTEX
8
38
10
12402.1
20
4339.31
0
VERTEX
8
38
10
12582.7
20
4339.15
0
VERTEX
8
38
10
12763.3
20
4339.18
0
VERTEX
8
38
10
12944.1
20
4339.39
0
VERTEX
8
38
10
13124.9
20
4339.72
0
VERTEX
8
38
10
13305.7
20
4340.13
0
VERTEX
8
38
10
13486.6
20
4340.59
0
VERTEX
8
38
10
13667.6
20
4341.09
0
VERTEX
8
38
10
13848.5
20
4341.61
0
VERTEX
8
38
10
14029.4
20
4342.12
0
VERTEX
8
38
10
14210.3
20
4342.62
0
VERTEX
8
38
10
14391.2
20
4343.09
0
VERTEX
8
38
10
14572
20
4343.54
0
VERTEX
8
38
10
14752.7
20
4343.96
0
VERTEX
8
38
10
14930.1
20
4344.34
0
VERTEX
8
38
10
14933.4
20
4324.34
0
VERTEX
8
38
10
14744.2
20
4293.03
0
VERTEX
8
38
10
14554.7
20
4261.65
0
VERTEX
8
38
10
14365.1
20
4230.18
0
VERTEX
8
38
10
14175.4
20
4198.61
0
VERTEX
8
38
10
13985.5
20
4166.94
0
VERTEX
8
38
10
13795.6
20
4135.18
0
VERTEX
8
38
10
13605.6
20
4103.35
0
VERTEX
8
38
10
13415.5
20
4071.48
0
VERTEX
8
38
10
13225.4
20
4039.59
0
VERTEX
8
38
10
13035.4
20
4007.73
0
VERTEX
8
38
10
12845.6
20
3975.51
0
VERTEX
8
38
10
12655.9
20
3943.05
0
VERTEX
8
38
10
12466.4
20
3910.63
0
VERTEX
8
38
10
12277.2
20
3878.34
0
VERTEX
8
38
10
12088.2
20
3846.21
0
VERTEX
8
38
10
11899.3
20
3814.33
0
VERTEX
8
38
10
11710.7
20
3782.81
0
VERTEX
8
38
10
11522.3
20
3751.66
0
VERTEX
8
38
10
11334.1
20
3720.96
0
VERTEX
8
38
10
11124.3
20
3687.31
0
VERTEX
8
38
10
11124.3
20
3687.31
0
SEQEND
0
POLYLINE
8
39
62
5
66
1
6
CONTINUOUS
0
VERTEX
8
39
10
11146
20
4407.91
0
VERTEX
8
39
10
11156
20
4517.48
0
VERTEX
8
39
10
11166.9
20
4625.54
0
VERTEX
8
39
10
11177.7
20
4733.7
0
VERTEX
8
39
10
11188.6
20
4842.02
0
VERTEX
8
39
10
11199.5
20
4950.44
0
VERTEX
8
39
10
11210.4
20
5059.03
0
VERTEX
8
39
10
11385.3
20
5064.96
0
VERTEX
8
39
10
11560.1
20
5070.32
0
VERTEX
8
39
10
11734.9
20
5075.09
0
VERTEX
8
39
10
11909.6
20
5079.24
0
VERTEX
8
39
10
12084.3
20
5082.79
0
VERTEX
8
39
10
12258.9
20
5085.73
0
VERTEX
8
39
10
12433.5
20
5088.05
0
VERTEX
8
39
10
12608
20
5089.73
0
VERTEX
8
39
10
12782.5
20
5090.78
0
VERTEX
8
39
10
12957
20
5091.19
0
VERTEX
8
39
10
13131.4
20
5090.96
0
VERTEX
8
39
10
13305.7
20
5090.07
0
VERTEX
8
39
10
13480.1
20
5088.54
0
VERTEX
8
39
10
13654.3
20
5086.34
0
VERTEX
8
39
10
13828.6
20
5083.49
0
VERTEX
8
39
10
14002.8
20
5079.96
0
VERTEX
8
39
10
14177
20
5075.76
0
VERTEX
8
39
10
14351.1
20
5070.88
0
VERTEX
8
39
10
14525.2
20
5065.3
0
VERTEX
8
39
10
14699.3
20
5059.03
0
VERTEX
8
39
10
14521.7
20
5026.32
0
VERTEX
8
39
10
14343.9
20
4993.56
0
VERTEX
8
39
10
14166.1
20
4960.73
0
VERTEX
8
39
10
13988.3
20
4927.84
0
VERTEX
8
39
10
13810.4
20
4894.89
0
VERTEX
8
39
10
13632.5
20
4861.88
0
VERTEX
8
39
10
13454.6
20
4828.85
0
VERTEX
8
39
10
13276.7
20
4795.8
0
VERTEX
8
39
10
13098.9
20
4762.78
0
VERTEX
8
39
10
12921
20
4729.79
0
VERTEX
8
39
10
12743.2
20
4696.89
0
VERTEX
8
39
10
12565.5
20
4664.09
0
VERTEX
8
39
10
12387.8
20
4631.45
0
VERTEX
8
39
10
12210.1
20
4598.98
0
VERTEX
8
39
10
12032.5
20
4566.72
0
VERTEX
8
39
10
11855
20
4534.7
0
VERTEX
8
39
10
11677.5
20
4502.95
0
VERTEX
8
39
10
11500.1
20
4471.38
0
VERTEX
8
39
10
11323
20
4439.51
0
VERTEX
8
39
10
11146
20
4407.91
0
VERTEX
8
39
10
11146
20
4407.91
0
SEQEND
0
POLYLINE
8
39
62
1
66
1
6
CONTINUOUS
0
VERTEX
8
39
10
11125.5
20
4404.26
0
VERTEX
8
39
10
11136.1
20
4519.3
0
VERTEX
8
39
10
11147
20
4627.54
0
VERTEX
8
39
10
11157.8
20
4735.69
0
VERTEX
8
39
10
11168.7
20
4844.01
0
VERTEX
8
39
10
11179.6
20
4952.44
0
VERTEX
8
39
10
11193.2
20
5088.46
0
VERTEX
8
39
10
11384.2
20
5094.95
0
VERTEX
8
39
10
11559.2
20
5100.31
0
VERTEX
8
39
10
11734.1
20
5105.08
0
VERTEX
8
39
10
11908.9
20
5109.23
0
VERTEX
8
39
10
12083.7
20
5112.79
0
VERTEX
8
39
10
12258.4
20
5115.73
0
VERTEX
8
39
10
12433.1
20
5118.05
0
VERTEX
8
39
10
12607.7
20
5119.73
0
VERTEX
8
39
10
12782.3
20
5120.78
0
VERTEX
8
39
10
12956.9
20
5121.19
0
VERTEX
8
39
10
13131.4
20
5120.96
0
VERTEX
8
39
10
13305.9
20
5120.07
0
VERTEX
8
39
10
13480.3
20
5118.54
0
VERTEX
8
39
10
13654.7
20
5116.34
0
VERTEX
8
39
10
13829.1
20
5113.48
0
VERTEX
8
39
10
14003.4
20
5109.95
0
VERTEX
8
39
10
14177.7
20
5105.75
0
VERTEX
8
39
10
14352
20
5100.87
0
VERTEX
8
39
10
14526.2
20
5095.29
0
VERTEX
8
39
10
14693.8
20
5089.25
0
VERTEX
8
39
10
14699.3
20
5059.03
0
VERTEX
8
39
10
14699.3
20
5059.03
0
VERTEX
8
39
10
14521.7
20
5026.32
0
VERTEX
8
39
10
14343.9
20
4993.56
0
VERTEX
8
39
10
14166.1
20
4960.73
0
VERTEX
8
39
10
13988.3
20
4927.84
0
VERTEX
8
39
10
13810.4
20
4894.89
0
VERTEX
8
39
10
13632.5
20
4861.88
0
VERTEX
8
39
10
13454.6
20
4828.85
0
VERTEX
8
39
10
13276.7
20
4795.8
0
VERTEX
8
39
10
13098.9
20
4762.78
0
VERTEX
8
39
10
12921
20
4729.79
0
VERTEX
8
39
10
12743.2
20
4696.89
0
VERTEX
8
39
10
12565.5
20
4664.09
0
VERTEX
8
39
10
12387.8
20
4631.45
0
VERTEX
8
39
10
12210.1
20
4598.98
0
VERTEX
8
39
10
12032.5
20
4566.72
0
VERTEX
8
39
10
11855
20
4534.7
0
VERTEX
8
39
10
11677.5
20
4502.95
0
VERTEX
8
39
10
11500.1
20
4471.38
0
VERTEX
8
39
10
11323
20
4439.51
0
VERTEX
8
39
10
11125.5
20
4404.26
0
VERTEX
8
39
10
11125.5
20
4404.26
0
SEQEND
0
POLYLINE
8
40
62
5
66
1
6
CONTINUOUS
0
VERTEX
8
40
10
11159.8
20
5184.84
0
VERTEX
8
40
10
11157.6
20
5293.95
0
VERTEX
8
40
10
11155.5
20
5402.9
0
VERTEX
8
40
10
11153.3
20
5511.74
0
VERTEX
8
40
10
11151.2
20
5620.43
0
VERTEX
8
40
10
11149.1
20
5729.01
0
VERTEX
8
40
10
11146
20
5838.99
0
VERTEX
8
40
10
11319.5
20
5840.74
0
VERTEX
8
40
10
11493
20
5842.22
0
VERTEX
8
40
10
11666.6
20
5843.42
0
VERTEX
8
40
10
11840.2
20
5844.38
0
VERTEX
8
40
10
12013.9
20
5845.11
0
VERTEX
8
40
10
12187.7
20
5845.63
0
VERTEX
8
40
10
12361.6
20
5845.95
0
VERTEX
8
40
10
12535.5
20
5846.08
0
VERTEX
8
40
10
12709.5
20
5846.06
0
VERTEX
8
40
10
12883.5
20
5845.89
0
VERTEX
8
40
10
13057.7
20
5845.58
0
VERTEX
8
40
10
13231.9
20
5845.16
0
VERTEX
8
40
10
13406.2
20
5844.63
0
VERTEX
8
40
10
13580.6
20
5844.01
0
VERTEX
8
40
10
13755
20
5843.31
0
VERTEX
8
40
10
13929.6
20
5842.54
0
VERTEX
8
40
10
14104.1
20
5841.71
0
VERTEX
8
40
10
14278.8
20
5840.83
0
VERTEX
8
40
10
14453.5
20
5839.92
0
VERTEX
8
40
10
14628.2
20
5838.99
0
VERTEX
8
40
10
14453.9
20
5800.4
0
VERTEX
8
40
10
14279.7
20
5762.54
0
VERTEX
8
40
10
14105.6
20
5725.37
0
VERTEX
8
40
10
13931.6
20
5688.87
0
VERTEX
8
40
10
13757.7
20
5653.03
0
VERTEX
8
40
10
13583.9
20
5617.83
0
VERTEX
8
40
10
13410.3
20
5583.25
0
VERTEX
8
40
10
13236.8
20
5549.25
0
VERTEX
8
40
10
13063.3
20
5515.85
0
VERTEX
8
40
10
12890
20
5483.01
0
VERTEX
8
40
10
12716.8
20
5450.74
0
VERTEX
8
40
10
12543.6
20
5419.01
0
VERTEX
8
40
10
12370.5
20
5387.84
0
VERTEX
8
40
10
12197.5
20
5357.2
0
VERTEX
8
40
10
12024.5
20
5327.11
0
VERTEX
8
40
10
11851.5
20
5297.56
0
VERTEX
8
40
10
11678.5
20
5268.55
0
VERTEX
8
40
10
11505.6
20
5240.09
0
VERTEX
8
40
10
11332.7
20
5212.18
0
VERTEX
8
40
10
11159.8
20
5184.84
0
VERTEX
8
40
10
11159.8
20
5184.84
0
SEQEND
0
POLYLINE
8
40
62
1
66
1
6
CONTINUOUS
0
VERTEX
8
40
10
11160.4
20
5154.56
0
VERTEX
8
40
10
11157.6
20
5293.95
0
VERTEX
8
40
10
11155.5
20
5402.9
0
VERTEX
8
40
10
11153.3
20
5511.74
0
VERTEX
8
40
10
11151.2
20
5620.43
0
VERTEX
8
40
10
11149.1
20
5729.01
0
VERTEX
8
40
10
11145.4
20
5858.98
0
VERTEX
8
40
10
11319.3
20
5860.74
0
VERTEX
8
40
10
11492.9
20
5862.21
0
VERTEX
8
40
10
11666.5
20
5863.42
0
VERTEX
8
40
10
11840.1
20
5864.38
0
VERTEX
8
40
10
12013.9
20
5865.11
0
VERTEX
8
40
10
12187.7
20
5865.63
0
VERTEX
8
40
10
12361.5
20
5865.95
0
VERTEX
8
40
10
12535.4
20
5866.08
0
VERTEX
8
40
10
12709.5
20
5866.06
0
VERTEX
8
40
10
12883.5
20
5865.89
0
VERTEX
8
40
10
13057.7
20
5865.58
0
VERTEX
8
40
10
13231.9
20
5865.16
0
VERTEX
8
40
10
13406.3
20
5864.63
0
VERTEX
8
40
10
13580.6
20
5864.01
0
VERTEX
8
40
10
13755.1
20
5863.31
0
VERTEX
8
40
10
13929.6
20
5862.54
0
VERTEX
8
40
10
14104.2
20
5861.71
0
VERTEX
8
40
10
14278.9
20
5860.83
0
VERTEX
8
40
10
14453.6
20
5859.92
0
VERTEX
8
40
10
14626
20
5859
0
VERTEX
8
40
10
14628.2
20
5838.99
0
VERTEX
8
40
10
14631.4
20
5808.98
0
VERTEX
8
40
10
14460.3
20
5771.09
0
VERTEX
8
40
10
14285.9
20
5733.2
0
VERTEX
8
40
10
14111.7
20
5696.01
0
VERTEX
8
40
10
13937.6
20
5659.49
0
VERTEX
8
40
10
13763.6
20
5623.63
0
VERTEX
8
40
10
13589.8
20
5588.41
0
VERTEX
8
40
10
13416.1
20
5553.8
0
VERTEX
8
40
10
13242.4
20
5519.8
0
VERTEX
8
40
10
13068.9
20
5486.37
0
VERTEX
8
40
10
12895.5
20
5453.52
0
VERTEX
8
40
10
12722.2
20
5421.23
0
VERTEX
8
40
10
12548.9
20
5389.49
0
VERTEX
8
40
10
12375.7
20
5358.29
0
VERTEX
8
40
10
12202.6
20
5327.64
0
VERTEX
8
40
10
12029.5
20
5297.54
0
VERTEX
8
40
10
11856.5
20
5267.97
0
VERTEX
8
40
10
11683.4
20
5238.94
0
VERTEX
8
40
10
11510.4
20
5210.47
0
VERTEX
8
40
10
11337.4
20
5182.55
0
VERTEX
8
40
10
11160.4
20
5154.56
0
VERTEX
8
40
10
11160.4
20
5154.56
0
SEQEND
0
POLYLINE
8
41
62
5
66
1
6
CONTINUOUS
0
VERTEX
8
41
10
11290.8
20
5956.36
0
VERTEX
8
41
10
11266.8
20
6063.84
0
VERTEX
8
41
10
11242.7
20
6171.03
0
VERTEX
8
41
10
11218.6
20
6278.01
0
VERTEX
8
41
10
11194.4
20
6384.72
0
VERTEX
8
41
10
11170.2
20
6491.23
0
VERTEX
8
41
10
11146
20
6597.48
0
VERTEX
8
41
10
11323.4
20
6600.1
0
VERTEX
8
41
10
11501
20
6602.27
0
VERTEX
8
41
10
11678.6
20
6604.04
0
VERTEX
8
41
10
11856.5
20
6605.46
0
VERTEX
8
41
10
12034.4
20
6606.55
0
VERTEX
8
41
10
12212.5
20
6607.33
0
VERTEX
8
41
10
12390.6
20
6607.83
0
VERTEX
8
41
10
12568.9
20
6608.09
0
VERTEX
8
41
10
12747.3
20
6608.1
0
VERTEX
8
41
10
12925.8
20
6607.88
0
VERTEX
8
41
10
13104.3
20
6607.48
0
VERTEX
8
41
10
13282.9
20
6606.89
0
VERTEX
8
41
10
13461.6
20
6606.14
0
VERTEX
8
41
10
13640.4
20
6605.24
0
VERTEX
8
41
10
13819.2
20
6604.21
0
VERTEX
8
41
10
13998
20
6603.05
0
VERTEX
8
41
10
14176.8
20
6601.78
0
VERTEX
8
41
10
14355.7
20
6600.42
0
VERTEX
8
41
10
14534.6
20
6598.98
0
VERTEX
8
41
10
14713.4
20
6597.48
0
VERTEX
8
41
10
14541.4
20
6566.9
0
VERTEX
8
41
10
14369.4
20
6536.26
0
VERTEX
8
41
10
14197.5
20
6505.54
0
VERTEX
8
41
10
14025.6
20
6474.72
0
VERTEX
8
41
10
13853.9
20
6443.77
0
VERTEX
8
41
10
13682.2
20
6412.7
0
VERTEX
8
41
10
13510.6
20
6381.47
0
VERTEX
8
41
10
13339.2
20
6350.09
0
VERTEX
8
41
10
13167.8
20
6318.53
0
VERTEX
8
41
10
12996.6
20
6286.79
0
VERTEX
8
41
10
12825.5
20
6254.85
0
VERTEX
8
41
10
12654.5
20
6222.7
0
VERTEX
8
41
10
12483.6
20
6190.32
0
VERTEX
8
41
10
12312.9
20
6157.71
0
VERTEX
8
41
10
12142.3
20
6124.84
0
VERTEX
8
41
10
11971.7
20
6091.72
0
VERTEX
8
41
10
11801.3
20
6058.32
0
VERTEX
8
41
10
11631
20
6024.64
0
VERTEX
8
41
10
11460.9
20
5990.65
0
VERTEX
8
41
10
11290.8
20
5956.36
0
VERTEX
8
41
10
11290.8
20
5956.36
0
SEQEND
0
POLYLINE
8
41
62
1
66
1
6
CONTINUOUS
0
VERTEX
8
41
10
11290.8
20
5956.36
0
VERTEX
8
41
10
11266.8
20
6063.84
0
VERTEX
8
41
10
11242.7
20
6171.03
0
VERTEX
8
41
10
11218.6
20
6278.01
0
VERTEX
8
41
10
11194.4
20
6384.72
0
VERTEX
8
41
10
11170.2
20
6491.23
0
VERTEX
8
41
10
11141.4
20
6617.42
0
VERTEX
8
41
10
11323.1
20
6620.1
0
VERTEX
8
41
10
11500.7
20
6622.27
0
VERTEX
8
41
10
11678.4
20
6624.04
0
VERTEX
8
41
10
11856.3
20
6625.46
0
VERTEX
8
41
10
12034.3
20
6626.55
0
VERTEX
8
41
10
12212.4
20
6627.33
0
VERTEX
8
41
10
12390.6
20
6627.83
0
VERTEX
8
41
10
12568.9
20
6628.09
0
VERTEX
8
41
10
12747.3
20
6628.1
0
VERTEX
8
41
10
12925.8
20
6627.88
0
VERTEX
8
41
10
13104.4
20
6627.48
0
VERTEX
8
41
10
13283
20
6626.89
0
VERTEX
8
41
10
13461.7
20
6626.14
0
VERTEX
8
41
10
13640.5
20
6625.24
0
VERTEX
8
41
10
13819.3
20
6624.21
0
VERTEX
8
41
10
13998.1
20
6623.05
0
VERTEX
8
41
10
14177
20
6621.78
0
VERTEX
8
41
10
14355.8
20
6620.42
0
VERTEX
8
41
10
14534.7
20
6618.98
0
VERTEX
8
41
10
14709.9
20
6617.51
0
VERTEX
8
41
10
14713.4
20
6597.48
0
VERTEX
8
41
10
14541.4
20
6566.9
0
VERTEX
8
41
10
14369.4
20
6536.26
0
VERTEX
8
41
10
14197.5
20
6505.54
0
VERTEX
8
41
10
14025.6
20
6474.72
0
VERTEX
8
41
10
13853.9
20
6443.77
0
VERTEX
8
41
10
13682.2
20
6412.7
0
VERTEX
8
41
10
13510.6
20
6381.47
0
VERTEX
8
41
10
13339.2
20
6350.09
0
VERTEX
8
41
10
13167.8
20
6318.53
0
VERTEX
8
41
10
12996.6
20
6286.79
0
VERTEX
8
41
10
12825.5
20
6254.85
0
VERTEX
8
41
10
12654.5
20
6222.7
0
VERTEX
8
41
10
12483.6
20
6190.32
0
VERTEX
8
41
10
12312.9
20
6157.71
0
VERTEX
8
41
10
12142.3
20
6124.84
0
VERTEX
8
41
10
11971.7
20
6091.72
0
VERTEX
8
41
10
11801.3
20
6058.32
0
VERTEX
8
41
10
11631
20
6024.64
0
VERTEX
8
41
10
11460.9
20
5990.65
0
VERTEX
8
41
10
11290.8
20
5956.36
0
VERTEX
8
41
10
11290.8
20
5956.36
0
SEQEND
0
POLYLINE
8
42
62
5
66
1
6
CONTINUOUS
0
VERTEX
8
42
10
11395.3
20
6688.1
0
VERTEX
8
42
10
11353.7
20
6788.67
0
VERTEX
8
42
10
11312.1
20
6889.07
0
VERTEX
8
42
10
11270.6
20
6989.28
0
VERTEX
8
42
10
11229
20
7089.34
0
VERTEX
8
42
10
11187.5
20
7189.25
0
VERTEX
8
42
10
11146
20
7288.95
0
VERTEX
8
42
10
11333.1
20
7291.45
0
VERTEX
8
42
10
11520.4
20
7293.58
0
VERTEX
8
42
10
11707.9
20
7295.33
0
VERTEX
8
42
10
11895.5
20
7296.75
0
VERTEX
8
42
10
12083.4
20
7297.86
0
VERTEX
8
42
10
12271.4
20
7298.71
0
VERTEX
8
42
10
12459.6
20
7299.26
0
VERTEX
8
42
10
12647.8
20
7299.58
0
VERTEX
8
42
10
12836.2
20
7299.66
0
VERTEX
8
42
10
13024.7
20
7299.54
0
VERTEX
8
42
10
13213.3
20
7299.2
0
VERTEX
8
42
10
13401.9
20
7298.67
0
VERTEX
8
42
10
13590.6
20
7297.97
0
VERTEX
8
42
10
13779.3
20
7297.1
0
VERTEX
8
42
10
13968.1
20
7296.07
0
VERTEX
8
42
10
14156.9
20
7294.9
0
VERTEX
8
42
10
14345.6
20
7293.59
0
VERTEX
8
42
10
14534.4
20
7292.15
0
VERTEX
8
42
10
14723.1
20
7290.6
0
VERTEX
8
42
10
14911.8
20
7288.95
0
VERTEX
8
42
10
14735.3
20
7260.15
0
VERTEX
8
42
10
14558.7
20
7231.29
0
VERTEX
8
42
10
14382.2
20
7202.35
0
VERTEX
8
42
10
14205.7
20
7173.32
0
VERTEX
8
42
10
14029.3
20
7144.19
0
VERTEX
8
42
10
13852.9
20
7114.95
0
VERTEX
8
42
10
13676.6
20
7085.6
0
VERTEX
8
42
10
13500.4
20
7056.12
0
VERTEX
8
42
10
13324.2
20
7026.51
0
VERTEX
8
42
10
13148.2
20
6996.74
0
VERTEX
8
42
10
12972.2
20
6966.83
0
VERTEX
8
42
10
12796.4
20
6936.74
0
VERTEX
8
42
10
12620.7
20
6906.45
0
VERTEX
8
42
10
12445.2
20
6875.98
0
VERTEX
8
42
10
12269.8
20
6845.3
0
VERTEX
8
42
10
12094.5
20
6814.39
0
VERTEX
8
42
10
11919.4
20
6783.23
0
VERTEX
8
42
10
11744.5
20
6751.82
0
VERTEX
8
42
10
11569.8
20
6720.12
0
VERTEX
8
42
10
11395.3
20
6688.1
0
VERTEX
8
42
10
11395.3
20
6688.1
0
SEQEND
0
POLYLINE
8
42
62
1
66
1
6
CONTINUOUS
0
VERTEX
8
42
10
11395.3
20
6688.1
0
VERTEX
8
42
10
11353.7
20
6788.67
0
VERTEX
8
42
10
11312.1
20
6889.07
0
VERTEX
8
42
10
11270.6
20
6989.28
0
VERTEX
8
42
10
11229
20
7089.34
0
VERTEX
8
42
10
11187.5
20
7189.25
0
VERTEX
8
42
10
11137.7
20
7308.84
0
VERTEX
8
42
10
11332.8
20
7311.45
0
VERTEX
8
42
10
11520.1
20
7313.58
0
VERTEX
8
42
10
11707.7
20
7315.33
0
VERTEX
8
42
10
11895.4
20
7316.75
0
VERTEX
8
42
10
12083.3
20
7317.86
0
VERTEX
8
42
10
12271.3
20
7318.71
0
VERTEX
8
42
10
12459.5
20
7319.26
0
VERTEX
8
42
10
12647.8
20
7319.58
0
VERTEX
8
42
10
12836.2
20
7319.66
0
VERTEX
8
42
10
13024.7
20
7319.54
0
VERTEX
8
42
10
13213.3
20
7319.2
0
VERTEX
8
42
10
13402
20
7318.67
0
VERTEX
8
42
10
13590.7
20
7317.97
0
VERTEX
8
42
10
13779.4
20
7317.1
0
VERTEX
8
42
10
13968.2
20
7316.07
0
VERTEX
8
42
10
14157
20
7314.89
0
VERTEX
8
42
10
14345.8
20
7313.59
0
VERTEX
8
42
10
14534.5
20
7312.15
0
VERTEX
8
42
10
14723.3
20
7310.6
0
VERTEX
8
42
10
14908.5
20
7308.98
0
VERTEX
8
42
10
14911.8
20
7288.95
0
VERTEX
8
42
10
14735.3
20
7260.15
0
VERTEX
8
42
10
14558.7
20
7231.29
0
VERTEX
8
42
10
14382.2
20
7202.35
0
VERTEX
8
42
10
14205.7
20
7173.32
0
VERTEX
8
42
10
14029.3
20
7144.19
0
VERTEX
8
42
10
13852.9
20
7114.95
0
VERTEX
8
42
10
13676.6
20
7085.6
0
VERTEX
8
42
10
13500.4
20
7056.12
0
VERTEX
8
42
10
13324.2
20
7026.51
0
VERTEX
8
42
10
13148.2
20
6996.74
0
VERTEX
8
42
10
12972.2
20
6966.83
0
VERTEX
8
42
10
12796.4
20
6936.74
0
VERTEX
8
42
10
12620.7
20
6906.45
0
VERTEX
8
42
10
12445.2
20
6875.98
0
VERTEX
8
42
10
12269.8
20
6845.3
0
VERTEX
8
42
10
12094.5
20
6814.39
0
VERTEX
8
42
10
11919.4
20
6783.23
0
VERTEX
8
42
10
11744.5
20
6751.82
0
VERTEX
8
42
10
11569.8
20
6720.12
0
VERTEX
8
42
10
11395.3
20
6688.1
0
VERTEX
8
42
10
11395.3
20
6688.1
0
SEQEND
0
POLYLINE
8
43
62
5
66
1
6
CONTINUOUS
0
VERTEX
8
43
10
11478.4
20
7379.66
0
VERTEX
8
43
10
11422.9
20
7472.22
0
VERTEX
8
43
10
11367.4
20
7564.67
0
VERTEX
8
43
10
11312
20
7657.01
0
VERTEX
8
43
10
11256.6
20
7749.27
0
VERTEX
8
43
10
11201.3
20
7841.42
0
VERTEX
8
43
10
11146
20
7933.45
0
VERTEX
8
43
10
11347.3
20
7935.88
0
VERTEX
8
43
10
11549
20
7937.98
0
VERTEX
8
43
10
11750.8
20
7939.78
0
VERTEX
8
43
10
11953
20
7941.31
0
VERTEX
8
43
10
12155.3
20
7942.57
0
VERTEX
8
43
10
12357.8
20
7943.56
0
VERTEX
8
43
10
12560.5
20
7944.3
0
VERTEX
8
43
10
12763.3
20
7944.81
0
VERTEX
8
43
10
12966.3
20
7945.06
0
VERTEX
8
43
10
13169.4
20
7945.08
0
VERTEX
8
43
10
13372.6
20
7944.87
0
VERTEX
8
43
10
13575.9
20
7944.43
0
VERTEX
8
43
10
13779.2
20
7943.78
0
VERTEX
8
43
10
13982.7
20
7942.9
0
VERTEX
8
43
10
14186.1
20
7941.81
0
VERTEX
8
43
10
14389.6
20
7940.52
0
VERTEX
8
43
10
14593.1
20
7939.03
0
VERTEX
8
43
10
14796.5
20
7937.35
0
VERTEX
8
43
10
14999.9
20
7935.49
0
VERTEX
8
43
10
15203.3
20
7933.45
0
VERTEX
8
43
10
15016.5
20
7907.18
0
VERTEX
8
43
10
14829.6
20
7880.8
0
VERTEX
8
43
10
14642.7
20
7854.31
0
VERTEX
8
43
10
14455.8
20
7827.69
0
VERTEX
8
43
10
14268.9
20
7800.94
0
VERTEX
8
43
10
14082.1
20
7774.06
0
VERTEX
8
43
10
13895.3
20
7747.03
0
VERTEX
8
43
10
13708.6
20
7719.85
0
VERTEX
8
43
10
13522
20
7692.52
0
VERTEX
8
43
10
13335.4
20
7665.03
0
VERTEX
8
43
10
13149
20
7637.36
0
VERTEX
8
43
10
12962.6
20
7609.53
0
VERTEX
8
43
10
12776.4
20
7581.51
0
VERTEX
8
43
10
12590.4
20
7553.32
0
VERTEX
8
43
10
12404.6
20
7524.91
0
VERTEX
8
43
10
12218.9
20
7496.31
0
VERTEX
8
43
10
12033.4
20
7467.5
0
VERTEX
8
43
10
11848.2
20
7438.47
0
VERTEX
8
43
10
11663.2
20
7409.18
0
VERTEX
8
43
10
11478.4
20
7379.66
0
VERTEX
8
43
10
11478.4
20
7379.66
0
SEQEND
0
POLYLINE
8
43
62
1
66
1
6
CONTINUOUS
0
VERTEX
8
43
10
11478.4
20
7379.66
0
VERTEX
8
43
10
11422.9
20
7472.22
0
VERTEX
8
43
10
11367.4
20
7564.67
0
VERTEX
8
43
10
11312
20
7657.01
0
VERTEX
8
43
10
11256.6
20
7749.27
0
VERTEX
8
43
10
11201.3
20
7841.42
0
VERTEX
8
43
10
11134
20
7953.31
0
VERTEX
8
43
10
11347.1
20
7955.88
0
VERTEX
8
43
10
11548.8
20
7957.98
0
VERTEX
8
43
10
11750.7
20
7959.78
0
VERTEX
8
43
10
11952.8
20
7961.31
0
VERTEX
8
43
10
12155.1
20
7962.57
0
VERTEX
8
43
10
12357.7
20
7963.56
0
VERTEX
8
43
10
12560.4
20
7964.3
0
VERTEX
8
43
10
12763.3
20
7964.81
0
VERTEX
8
43
10
12966.3
20
7965.06
0
VERTEX
8
43
10
13169.4
20
7965.08
0
VERTEX
8
43
10
13372.6
20
7964.87
0
VERTEX
8
43
10
13575.9
20
7964.43
0
VERTEX
8
43
10
13779.3
20
7963.78
0
VERTEX
8
43
10
13982.7
20
7962.9
0
VERTEX
8
43
10
14186.2
20
7961.81
0
VERTEX
8
43
10
14389.7
20
7960.52
0
VERTEX
8
43
10
14593.2
20
7959.03
0
VERTEX
8
43
10
14796.7
20
7957.35
0
VERTEX
8
43
10
15000.1
20
7955.48
0
VERTEX
8
43
10
15200.5
20
7953.48
0
VERTEX
8
43
10
15203.3
20
7933.45
0
VERTEX
8
43
10
15016.5
20
7907.18
0
VERTEX
8
43
10
14829.6
20
7880.8
0
VERTEX
8
43
10
14642.7
20
7854.31
0
VERTEX
8
43
10
14455.8
20
7827.69
0
VERTEX
8
43
10
14268.9
20
7800.94
0
VERTEX
8
43
10
14082.1
20
7774.06
0
VERTEX
8
43
10
13895.3
20
7747.03
0
VERTEX
8
43
10
13708.6
20
7719.85
0
VERTEX
8
43
10
13522
20
7692.52
0
VERTEX
8
43
10
13335.4
20
7665.03
0
VERTEX
8
43
10
13149
20
7637.36
0
VERTEX
8
43
10
12962.6
20
7609.53
0
VERTEX
8
43
10
12776.4
20
7581.51
0
VERTEX
8
43
10
12590.4
20
7553.32
0
VERTEX
8
43
10
12404.6
20
7524.91
0
VERTEX
8
43
10
12218.9
20
7496.31
0
VERTEX
8
43
10
12033.4
20
7467.5
0
VERTEX
8
43
10
11848.2
20
7438.47
0
VERTEX
8
43
10
11663.2
20
7409.18
0
VERTEX
8
43
10
11478.4
20
7379.66
0
VERTEX
8
43
10
11478.4
20
7379.66
0
SEQEND
0
POLYLINE
8
44
62
5
66
1
6
CONTINUOUS
0
VERTEX
8
44
10
11146
20
8025.08
0
VERTEX
8
44
10
11253.7
20
8141.17
0
VERTEX
8
44
10
11361.5
20
8257.37
0
VERTEX
8
44
10
11469.6
20
8373.58
0
VERTEX
8
44
10
11577.9
20
8489.74
0
VERTEX
8
44
10
11686.6
20
8605.86
0
VERTEX
8
44
10
11795.4
20
8721.96
0
VERTEX
8
44
10
11962
20
8723.27
0
VERTEX
8
44
10
12128.7
20
8724.49
0
VERTEX
8
44
10
12295.5
20
8725.58
0
VERTEX
8
44
10
12462.4
20
8726.55
0
VERTEX
8
44
10
12629.4
20
8727.4
0
VERTEX
8
44
10
12796.6
20
8728.11
0
VERTEX
8
44
10
12963.8
20
8728.68
0
VERTEX
8
44
10
13131.1
20
8729.11
0
VERTEX
8
44
10
13298.5
20
8729.39
0
VERTEX
8
44
10
13465.9
20
8729.52
0
VERTEX
8
44
10
13633.5
20
8729.49
0
VERTEX
8
44
10
13801.1
20
8729.3
0
VERTEX
8
44
10
13968.7
20
8728.96
0
VERTEX
8
44
10
14136.4
20
8728.45
0
VERTEX
8
44
10
14304.1
20
8727.77
0
VERTEX
8
44
10
14471.9
20
8726.94
0
VERTEX
8
44
10
14639.7
20
8725.94
0
VERTEX
8
44
10
14807.5
20
8724.77
0
VERTEX
8
44
10
14975.3
20
8723.44
0
VERTEX
8
44
10
15143.1
20
8721.96
0
VERTEX
8
44
10
14942.4
20
8688.83
0
VERTEX
8
44
10
14741.7
20
8655.54
0
VERTEX
8
44
10
14541
20
8622.05
0
VERTEX
8
44
10
14340.3
20
8588.39
0
VERTEX
8
44
10
14139.7
20
8554.53
0
VERTEX
8
44
10
13939.1
20
8520.48
0
VERTEX
8
44
10
13738.6
20
8486.24
0
VERTEX
8
44
10
13538.2
20
8451.8
0
VERTEX
8
44
10
13337.8
20
8417.18
0
VERTEX
8
44
10
13137.7
20
8382.36
0
VERTEX
8
44
10
12937.6
20
8347.37
0
VERTEX
8
44
10
12737.7
20
8312.19
0
VERTEX
8
44
10
12537.9
20
8276.83
0
VERTEX
8
44
10
12338.4
20
8241.31
0
VERTEX
8
44
10
12139
20
8205.62
0
VERTEX
8
44
10
11939.9
20
8169.77
0
VERTEX
8
44
10
11741
20
8133.78
0
VERTEX
8
44
10
11542.4
20
8097.65
0
VERTEX
8
44
10
11344
20
8061.39
0
VERTEX
8
44
10
11146
20
8025.08
0
VERTEX
8
44
10
11146
20
8025.08
0
SEQEND
0
POLYLINE
8
44
62
1
66
1
6
CONTINUOUS
0
VERTEX
8
44
10
11080.2
20
8013.02
0
VERTEX
8
44
10
11224.3
20
8168.37
0
VERTEX
8
44
10
11332.2
20
8284.58
0
VERTEX
8
44
10
11440.3
20
8400.86
0
VERTEX
8
44
10
11548.7
20
8517.03
0
VERTEX
8
44
10
11657.4
20
8633.19
0
VERTEX
8
44
10
11759.1
20
8741.67
0
VERTEX
8
44
10
11961.8
20
8743.27
0
VERTEX
8
44
10
12128.5
20
8744.49
0
VERTEX
8
44
10
12295.4
20
8745.58
0
VERTEX
8
44
10
12462.3
20
8746.55
0
VERTEX
8
44
10
12629.3
20
8747.4
0
VERTEX
8
44
10
12796.5
20
8748.11
0
VERTEX
8
44
10
12963.7
20
8748.68
0
VERTEX
8
44
10
13131
20
8749.11
0
VERTEX
8
44
10
13298.4
20
8749.39
0
VERTEX
8
44
10
13465.9
20
8749.52
0
VERTEX
8
44
10
13633.5
20
8749.49
0
VERTEX
8
44
10
13801.1
20
8749.3
0
VERTEX
8
44
10
13968.7
20
8748.96
0
VERTEX
8
44
10
14136.5
20
8748.45
0
VERTEX
8
44
10
14304.2
20
8747.77
0
VERTEX
8
44
10
14472
20
8746.94
0
VERTEX
8
44
10
14639.8
20
8745.94
0
VERTEX
8
44
10
14807.6
20
8744.77
0
VERTEX
8
44
10
14975.4
20
8743.44
0
VERTEX
8
44
10
15139.7
20
8741.99
0
VERTEX
8
44
10
15143.1
20
8721.96
0
VERTEX
8
44
10
14942.4
20
8688.83
0
VERTEX
8
44
10
14741.7
20
8655.54
0
VERTEX
8
44
10
14541
20
8622.05
0
VERTEX
8
44
10
14340.3
20
8588.39
0
VERTEX
8
44
10
14139.7
20
8554.53
0
VERTEX
8
44
10
13939.1
20
8520.48
0
VERTEX
8
44
10
13738.6
20
8486.24
0
VERTEX
8
44
10
13538.2
20
8451.8
0
VERTEX
8
44
10
13337.8
20
8417.18
0
VERTEX
8
44
10
13137.7
20
8382.36
0
VERTEX
8
44
10
12937.6
20
8347.37
0
VERTEX
8
44
10
12737.7
20
8312.19
0
VERTEX
8
44
10
12537.9
20
8276.83
0
VERTEX
8
44
10
12338.4
20
8241.31
0
VERTEX
8
44
10
12139
20
8205.62
0
VERTEX
8
44
10
11939.9
20
8169.77
0
VERTEX
8
44
10
11741
20
8133.78
0
VERTEX
8
44
10
11542.4
20
8097.65
0
VERTEX
8
44
10
11344
20
8061.39
0
VERTEX
8
44
10
11080.2
20
8013.02
0
VERTEX
8
44
10
11080.2
20
8013.02
0
SEQEND
0
POLYLINE
8
45
62
5
66
1
6
CONTINUOUS
0
VERTEX
8
45
10
11146
20
8821.58
0
VERTEX
8
45
10
11222.5
20
8961.26
0
VERTEX
8
45
10
11299.2
20
9101.02
0
VERTEX
8
45
10
11376.1
20
9240.84
0
VERTEX
8
45
10
11453
20
9380.72
0
VERTEX
8
45
10
11530.1
20
9520.63
0
VERTEX
8
45
10
11607.3
20
9660.59
0
VERTEX
8
45
10
11745.5
20
9661.42
0
VERTEX
8
45
10
11883.8
20
9662.19
0
VERTEX
8
45
10
12022.2
20
9662.9
0
VERTEX
8
45
10
12160.6
20
9663.54
0
VERTEX
8
45
10
12299.2
20
9664.11
0
VERTEX
8
45
10
12437.8
20
9664.6
0
VERTEX
8
45
10
12576.5
20
9665.01
0
VERTEX
8
45
10
12715.3
20
9665.33
0
VERTEX
8
45
10
12854.2
20
9665.55
0
VERTEX
8
45
10
12993.2
20
9665.68
0
VERTEX
8
45
10
13132.2
20
9665.7
0
VERTEX
8
45
10
13271.3
20
9665.62
0
VERTEX
8
45
10
13410.5
20
9665.42
0
VERTEX
8
45
10
13549.8
20
9665.11
0
VERTEX
8
45
10
13689.1
20
9664.67
0
VERTEX
8
45
10
13828.5
20
9664.12
0
VERTEX
8
45
10
13968
20
9663.43
0
VERTEX
8
45
10
14107.5
20
9662.62
0
VERTEX
8
45
10
14247.1
20
9661.67
0
VERTEX
8
45
10
14386.8
20
9660.59
0
VERTEX
8
45
10
14224
20
9619.92
0
VERTEX
8
45
10
14061.2
20
9579.09
0
VERTEX
8
45
10
13898.5
20
9538.1
0
VERTEX
8
45
10
13735.8
20
9496.97
0
VERTEX
8
45
10
13573.2
20
9455.68
0
VERTEX
8
45
10
13410.7
20
9414.24
0
VERTEX
8
45
10
13248.2
20
9372.65
0
VERTEX
8
45
10
13085.9
20
9330.93
0
VERTEX
8
45
10
12923.6
20
9289.07
0
VERTEX
8
45
10
12761.4
20
9247.08
0
VERTEX
8
45
10
12599.3
20
9204.97
0
VERTEX
8
45
10
12437.3
20
9162.73
0
VERTEX
8
45
10
12275.5
20
9120.39
0
VERTEX
8
45
10
12113.7
20
9077.94
0
VERTEX
8
45
10
11952.1
20
9035.4
0
VERTEX
8
45
10
11790.6
20
8992.77
0
VERTEX
8
45
10
11629.3
20
8950.06
0
VERTEX
8
45
10
11468
20
8907.28
0
VERTEX
8
45
10
11306.9
20
8864.45
0
VERTEX
8
45
10
11146
20
8821.58
0
VERTEX
8
45
10
11146
20
8821.58
0
SEQEND
0
POLYLINE
8
45
62
1
66
1
6
CONTINUOUS
0
VERTEX
8
45
10
11092.5
20
8807.34
0
VERTEX
8
45
10
11187.5
20
8980.48
0
VERTEX
8
45
10
11264.2
20
9120.26
0
VERTEX
8
45
10
11341
20
9260.13
0
VERTEX
8
45
10
11418
20
9400
0
VERTEX
8
45
10
11495.1
20
9539.93
0
VERTEX
8
45
10
11572.5
20
9680.38
0
VERTEX
8
45
10
11745.4
20
9681.42
0
VERTEX
8
45
10
11883.7
20
9682.19
0
VERTEX
8
45
10
12022.1
20
9682.9
0
VERTEX
8
45
10
12160.5
20
9683.54
0
VERTEX
8
45
10
12299.1
20
9684.11
0
VERTEX
8
45
10
12437.7
20
9684.6
0
VERTEX
8
45
10
12576.5
20
9685.01
0
VERTEX
8
45
10
12715.3
20
9685.33
0
VERTEX
8
45
10
12854.2
20
9685.55
0
VERTEX
8
45
10
12993.2
20
9685.68
0
VERTEX
8
45
10
13132.2
20
9685.7
0
VERTEX
8
45
10
13271.3
20
9685.62
0
VERTEX
8
45
10
13410.6
20
9685.42
0
VERTEX
8
45
10
13549.8
20
9685.11
0
VERTEX
8
45
10
13689.2
20
9684.67
0
VERTEX
8
45
10
13828.6
20
9684.12
0
VERTEX
8
45
10
13968.1
20
9683.43
0
VERTEX
8
45
10
14107.7
20
9682.62
0
VERTEX
8
45
10
14247.3
20
9681.67
0
VERTEX
8
45
10
14381.8
20
9680.63
0
VERTEX
8
45
10
14386.8
20
9660.59
0
VERTEX
8
45
10
14224
20
9619.92
0
VERTEX
8
45
10
14061.2
20
9579.09
0
VERTEX
8
45
10
13898.5
20
9538.1
0
VERTEX
8
45
10
13735.8
20
9496.97
0
VERTEX
8
45
10
13573.2
20
9455.68
0
VERTEX
8
45
10
13410.7
20
9414.24
0
VERTEX
8
45
10
13248.2
20
9372.65
0
VERTEX
8
45
10
13085.9
20
9330.93
0
VERTEX
8
45
10
12923.6
20
9289.07
0
VERTEX
8
45
10
12761.4
20
9247.08
0
VERTEX
8
45
10
12599.3
20
9204.97
0
VERTEX
8
45
10
12437.3
20
9162.73
0
VERTEX
8
45
10
12275.5
20
9120.39
0
VERTEX
8
45
10
12113.7
20
9077.94
0
VERTEX
8
45
10
11952.1
20
9035.4
0
VERTEX
8
45
10
11790.6
20
8992.77
0
VERTEX
8
45
10
11629.3
20
8950.06
0
VERTEX
8
45
10
11468
20
8907.28
0
VERTEX
8
45
10
11306.9
20
8864.45
0
VERTEX
8
45
10
11092.5
20
8807.34
0
VERTEX
8
45
10
11092.5
20
8807.34
0
SEQEND
0
POLYLINE
8
46
62
5
66
1
6
CONTINUOUS
0
VERTEX
8
46
10
11146
20
9759.94
0
VERTEX
8
46
10
11170.7
20
9824.82
0
VERTEX
8
46
10
11195.4
20
9889.72
0
VERTEX
8
46
10
11220.1
20
9954.62
0
VERTEX
8
46
10
11244.8
20
10019.5
0
VERTEX
8
46
10
11269.5
20
10084.4
0
VERTEX
8
46
10
11294.2
20
10149.4
0
VERTEX
8
46
10
11423.6
20
10150
0
VERTEX
8
46
10
11553.1
20
10150.5
0
VERTEX
8
46
10
11682.7
20
10151.1
0
VERTEX
8
46
10
11812.3
20
10151.6
0
VERTEX
8
46
10
11942
20
10152
0
VERTEX
8
46
10
12071.8
20
10152.4
0
VERTEX
8
46
10
12201.7
20
10152.7
0
VERTEX
8
46
10
12331.7
20
10152.9
0
VERTEX
8
46
10
12461.7
20
10153.1
0
VERTEX
8
46
10
12591.9
20
10153.2
0
VERTEX
8
46
10
12722.1
20
10153.3
0
VERTEX
8
46
10
12852.4
20
10153.2
0
VERTEX
8
46
10
12982.8
20
10153.1
0
VERTEX
8
46
10
13113.3
20
10152.9
0
VERTEX
8
46
10
13243.9
20
10152.5
0
VERTEX
8
46
10
13374.6
20
10152.1
0
VERTEX
8
46
10
13505.3
20
10151.6
0
VERTEX
8
46
10
13636.2
20
10151
0
VERTEX
8
46
10
13767.1
20
10150.2
0
VERTEX
8
46
10
13898.1
20
10149.4
0
VERTEX
8
46
10
13759.6
20
10130.9
0
VERTEX
8
46
10
13621.3
20
10112.2
0
VERTEX
8
46
10
13483
20
10093.5
0
VERTEX
8
46
10
13344.9
20
10074.6
0
VERTEX
8
46
10
13206.7
20
10055.6
0
VERTEX
8
46
10
13068.7
20
10036.5
0
VERTEX
8
46
10
12930.8
20
10017.3
0
VERTEX
8
46
10
12792.9
20
9997.97
0
VERTEX
8
46
10
12655.2
20
9978.55
0
VERTEX
8
46
10
12517.5
20
9959.04
0
VERTEX
8
46
10
12379.9
20
9939.45
0
VERTEX
8
46
10
12242.5
20
9919.77
0
VERTEX
8
46
10
12105.1
20
9900.01
0
VERTEX
8
46
10
11967.8
20
9880.17
0
VERTEX
8
46
10
11830.6
20
9860.28
0
VERTEX
8
46
10
11693.5
20
9840.31
0
VERTEX
8
46
10
11556.5
20
9820.29
0
VERTEX
8
46
10
11419.5
20
9800.22
0
VERTEX
8
46
10
11282.7
20
9780.1
0
VERTEX
8
46
10
11146
20
9759.94
0
VERTEX
8
46
10
11146
20
9759.94
0
SEQEND
0
POLYLINE
8
46
62
1
66
1
6
CONTINUOUS
0
VERTEX
8
46
10
11100.6
20
9753.25
0
VERTEX
8
46
10
11133.3
20
9839.05
0
VERTEX
8
46
10
11158
20
9903.94
0
VERTEX
8
46
10
11182.7
20
9968.85
0
VERTEX
8
46
10
11207.4
20
10033.8
0
VERTEX
8
46
10
11232.1
20
10098.7
0
VERTEX
8
46
10
11259
20
10169.2
0
VERTEX
8
46
10
11423.5
20
10170
0
VERTEX
8
46
10
11553
20
10170.5
0
VERTEX
8
46
10
11682.6
20
10171.1
0
VERTEX
8
46
10
11812.2
20
10171.6
0
VERTEX
8
46
10
11941.9
20
10172
0
VERTEX
8
46
10
12071.8
20
10172.4
0
VERTEX
8
46
10
12201.7
20
10172.7
0
VERTEX
8
46
10
12331.6
20
10172.9
0
VERTEX
8
46
10
12461.7
20
10173.1
0
VERTEX
8
46
10
12591.9
20
10173.2
0
VERTEX
8
46
10
12722.1
20
10173.3
0
VERTEX
8
46
10
12852.4
20
10173.2
0
VERTEX
8
46
10
12982.9
20
10173.1
0
VERTEX
8
46
10
13113.4
20
10172.9
0
VERTEX
8
46
10
13244
20
10172.5
0
VERTEX
8
46
10
13374.6
20
10172.1
0
VERTEX
8
46
10
13505.4
20
10171.6
0
VERTEX
8
46
10
13636.2
20
10171
0
VERTEX
8
46
10
13767.2
20
10170.2
0
VERTEX
8
46
10
13895.4
20
10169.4
0
VERTEX
8
46
10
13898.1
20
10149.4
0
VERTEX
8
46
10
13759.6
20
10130.9
0
VERTEX
8
46
10
13621.3
20
10112.2
0
VERTEX
8
46
10
13483
20
10093.5
0
VERTEX
8
46
10
13344.9
20
10074.6
0
VERTEX
8
46
10
13206.7
20
10055.6
0
VERTEX
8
46
10
13068.7
20
10036.5
0
VERTEX
8
46
10
12930.8
20
10017.3
0
VERTEX
8
46
10
12792.9
20
9997.97
0
VERTEX
8
46
10
12655.2
20
9978.55
0
VERTEX
8
46
10
12517.5
20
9959.04
0
VERTEX
8
46
10
12379.9
20
9939.45
0
VERTEX
8
46
10
12242.5
20
9919.77
0
VERTEX
8
46
10
12105.1
20
9900.01
0
VERTEX
8
46
10
11967.8
20
9880.17
0
VERTEX
8
46
10
11830.6
20
9860.28
0
VERTEX
8
46
10
11693.5
20
9840.31
0
VERTEX
8
46
10
11556.5
20
9820.29
0
VERTEX
8
46
10
11419.5
20
9800.22
0
VERTEX
8
46
10
11282.7
20
9780.1
0
VERTEX
8
46
10
11100.6
20
9753.25
0
VERTEX
8
46
10
11100.6
20
9753.25
0
SEQEND
0
POLYLINE
8
47
62
5
66
1
6
CONTINUOUS
0
VERTEX
8
47
10
11146
20
10240
0
VERTEX
8
47
10
11160.2
20
10308
0
VERTEX
8
47
10
11174.5
20
10376
0
VERTEX
8
47
10
11188.7
20
10444
0
VERTEX
8
47
10
11203
20
10512
0
VERTEX
8
47
10
11217.3
20
10580
0
VERTEX
8
47
10
11231.5
20
10648
0
VERTEX
8
47
10
11354.9
20
10647.7
0
VERTEX
8
47
10
11478.3
20
10647.3
0
VERTEX
8
47
10
11601.8
20
10647.1
0
VERTEX
8
47
10
11725.4
20
10646.9
0
VERTEX
8
47
10
11849.1
20
10646.7
0
VERTEX
8
47
10
11972.9
20
10646.6
0
VERTEX
8
47
10
12096.8
20
10646.6
0
VERTEX
8
47
10
12220.8
20
10646.6
0
VERTEX
8
47
10
12345
20
10646.6
0
VERTEX
8
47
10
12469.2
20
10646.6
0
VERTEX
8
47
10
12593.5
20
10646.7
0
VERTEX
8
47
10
12717.9
20
10646.8
0
VERTEX
8
47
10
12842.5
20
10646.9
0
VERTEX
8
47
10
12967.2
20
10647.1
0
VERTEX
8
47
10
13091.9
20
10647.2
0
VERTEX
8
47
10
13216.8
20
10647.4
0
VERTEX
8
47
10
13341.8
20
10647.6
0
VERTEX
8
47
10
13467
20
10647.7
0
VERTEX
8
47
10
13592.2
20
10647.9
0
VERTEX
8
47
10
13717.6
20
10648
0
VERTEX
8
47
10
13588.1
20
10628.4
0
VERTEX
8
47
10
13458.7
20
10608.6
0
VERTEX
8
47
10
13329.4
20
10588.7
0
VERTEX
8
47
10
13200.2
20
10568.7
0
VERTEX
8
47
10
13071.1
20
10548.7
0
VERTEX
8
47
10
12942
20
10528.5
0
VERTEX
8
47
10
12813.1
20
10508.3
0
VERTEX
8
47
10
12684.3
20
10488
0
VERTEX
8
47
10
12555.6
20
10467.6
0
VERTEX
8
47
10
12427
20
10447.1
0
VERTEX
8
47
10
12298.5
20
10426.6
0
VERTEX
8
47
10
12170
20
10406.1
0
VERTEX
8
47
10
12041.7
20
10385.5
0
VERTEX
8
47
10
11913.5
20
10364.8
0
VERTEX
8
47
10
11785.3
20
10344.1
0
VERTEX
8
47
10
11657.3
20
10323.3
0
VERTEX
8
47
10
11529.3
20
10302.5
0
VERTEX
8
47
10
11401.5
20
10281.7
0
VERTEX
8
47
10
11273.7
20
10260.8
0
VERTEX
8
47
10
11146
20
10240
0
VERTEX
8
47
10
11146
20
10240
0
SEQEND
0
POLYLINE
8
47
62
1
66
1
6
CONTINUOUS
0
VERTEX
8
47
10
11103.7
20
10233
0
VERTEX
8
47
10
11121.1
20
10316.2
0
VERTEX
8
47
10
11135.3
20
10384.2
0
VERTEX
8
47
10
11149.6
20
10452.2
0
VERTEX
8
47
10
11163.9
20
10520.2
0
VERTEX
8
47
10
11178.1
20
10588.2
0
VERTEX
8
47
10
11199.1
20
10688.1
0
VERTEX
8
47
10
11355
20
10687.7
0
VERTEX
8
47
10
11478.4
20
10687.3
0
VERTEX
8
47
10
11601.9
20
10687.1
0
VERTEX
8
47
10
11725.5
20
10686.9
0
VERTEX
8
47
10
11849.2
20
10686.7
0
VERTEX
8
47
10
11973
20
10686.6
0
VERTEX
8
47
10
12096.9
20
10686.6
0
VERTEX
8
47
10
12220.8
20
10686.6
0
VERTEX
8
47
10
12345
20
10686.6
0
VERTEX
8
47
10
12469.2
20
10686.6
0
VERTEX
8
47
10
12593.5
20
10686.7
0
VERTEX
8
47
10
12717.9
20
10686.8
0
VERTEX
8
47
10
12842.5
20
10686.9
0
VERTEX
8
47
10
12967.1
20
10687.1
0
VERTEX
8
47
10
13091.9
20
10687.2
0
VERTEX
8
47
10
13216.8
20
10687.4
0
VERTEX
8
47
10
13341.8
20
10687.6
0
VERTEX
8
47
10
13466.9
20
10687.7
0
VERTEX
8
47
10
13592.2
20
10687.9
0
VERTEX
8
47
10
13711.5
20
10688
0
VERTEX
8
47
10
13717.6
20
10648
0
VERTEX
8
47
10
13588.1
20
10628.4
0
VERTEX
8
47
10
13458.7
20
10608.6
0
VERTEX
8
47
10
13329.4
20
10588.7
0
VERTEX
8
47
10
13200.2
20
10568.7
0
VERTEX
8
47
10
13071.1
20
10548.7
0
VERTEX
8
47
10
12942
20
10528.5
0
VERTEX
8
47
10
12813.1
20
10508.3
0
VERTEX
8
47
10
12684.3
20
10488
0
VERTEX
8
47
10
12555.6
20
10467.6
0
VERTEX
8
47
10
12427
20
10447.1
0
VERTEX
8
47
10
12298.5
20
10426.6
0
VERTEX
8
47
10
12170
20
10406.1
0
VERTEX
8
47
10
12041.7
20
10385.5
0
VERTEX
8
47
10
11913.5
20
10364.8
0
VERTEX
8
47
10
11785.3
20
10344.1
0
VERTEX
8
47
10
11657.3
20
10323.3
0
VERTEX
8
47
10
11529.3
20
10302.5
0
VERTEX
8
47
10
11401.5
20
10281.7
0
VERTEX
8
47
10
11273.7
20
10260.8
0
VERTEX
8
47
10
11103.7
20
10233
0
VERTEX
8
47
10
11103.7
20
10233
0
SEQEND
0
ENDSEC
0
EOF
