  0
SECTION
  2
HEADER
  9
$ACADVER
  1
AC1014
  9
$HANDSEED
  5
FFFF
  9
$MEASUREMENT
 70
     1
  0
ENDSEC
  0
SECTION
  2
TABLES
  0
TABLE
  2
VPORT
  5
8
330
0
100
AcDbSymbolTable
 70
     4
  0
VPORT
  5
2E
330
8
100
AcDbSymbolTableRecord
100
AcDbViewportTableRecord
  2
*ACTIVE
 70
     0
 10
0.0
 20
0.0
 11
1.0
 21
1.0
 12
210.0
 22
148.5
 13
0.0
 23
0.0
 14
10.0
 24
10.0
 15
10.0
 25
10.0
 16
0.0
 26
0.0
 36
1.0
 17
0.0
 27
0.0
 37
0.0
 40
341.0
 41
1.24
 42
50.0
 43
0.0
 44
0.0
 50
0.0
 51
0.0
 71
     0
 72
   100
 73
     1
 74
     3
 75
     0
 76
     0
 77
     0
 78
     0
  0
ENDTAB
  0
TABLE
  2
LTYPE
  5
5
330
0
100
AcDbSymbolTable
 70
     1
  0
LTYPE
  5
14
330
5
100
AcDbSymbolTableRecord
100
AcDbLinetypeTableRecord
  2
BYBLOCK
 70
     0
  3

 72
    65
 73
     0
 40
0.0
  0
LTYPE
  5
15
330
5
100
AcDbSymbolTableRecord
100
AcDbLinetypeTableRecord
  2
BYLAYER
 70
     0
  3

 72
    65
 73
     0
 40
0.0
  0
LTYPE
  5
16
330
5
100
AcDbSymbolTableRecord
100
AcDbLinetypeTableRecord
  2
CONTINUOUS
 70
     0
  3
Solid line
 72
    65
 73
     0
 40
0.0
  0
ENDTAB
  0
TABLE
  2
LAYER
  5
2
100
AcDbSymbolTable
 70
2
  0
LAYER
  5
50
100
AcDbSymbolTableRecord
100
AcDbLayerTableRecord
  2
0
 70
0
  6
CONTINUOUS
  0
LAYER
  5
51
100
AcDbSymbolTableRecord
100
AcDbLayerTableRecord
  2
Layer_1
 70
0
  6
CONTINUOUS
  0
ENDTAB
  0
TABLE
  2
STYLE
  5
3
330
0
100
AcDbSymbolTable
 70
     1
  0
STYLE
  5
11
330
3
100
AcDbSymbolTableRecord
100
AcDbTextStyleTableRecord
  2
STANDARD
 70
     0
 40
0.0
 41
1.0
 50
0.0
 71
     0
 42
2.5
  3
txt
  4

  0
ENDTAB
  0
TABLE
  2
VIEW
  5
6
330
0
100
AcDbSymbolTable
 70
     0
  0
ENDTAB
  0
TABLE
  2
UCS
  5
7
330
0
100
AcDbSymbolTable
 70
     0
  0
ENDTAB
  0
TABLE
  2
APPID
  5
9
330
0
100
AcDbSymbolTable
 70
     2
  0
APPID
  5
12
330
9
100
AcDbSymbolTableRecord
100
AcDbRegAppTableRecord
  2
ACAD
 70
     0
  0
ENDTAB
  0
TABLE
  2
DIMSTYLE
  5
A
330
0
100
AcDbSymbolTable
 70
     1
  0
DIMSTYLE
105
27
330
A
100
AcDbSymbolTableRecord
100
AcDbDimStyleTableRecord
  2
ISO-25
 70
     0
  3

  4

  5

  6

  7

 40
1.0
 41
2.5
 42
0.625
 43
3.75
 44
1.25
 45
0.0
 46
0.0
 47
0.0
 48
0.0
140
2.5
141
2.5
142
0.0
143
0.03937007874016
144
1.0
145
0.0
146
1.0
147
0.625
 71
     0
 72
     0
 73
     0
 74
     0
 75
     0
 76
     0
 77
     1
 78
     8
170
     0
171
     3
172
     1
173
     0
174
     0
175
     0
176
     0
177
     0
178
     0
270
     2
271
     2
272
     2
273
     2
274
     3
340
11
275
     0
280
     0
281
     0
282
     0
283
     0
284
     8
285
     0
286
     0
287
     3
288
     0
  0
ENDTAB
  0
TABLE
  2
BLOCK_RECORD
  5
1
330
0
100
AcDbSymbolTable
 70
     1
  0
BLOCK_RECORD
  5
1F
330
1
100
AcDbSymbolTableRecord
100
AcDbBlockTableRecord
  2
*MODEL_SPACE
  0
BLOCK_RECORD
  5
1B
330
1
100
AcDbSymbolTableRecord
100
AcDbBlockTableRecord
  2
*PAPER_SPACE
  0
ENDTAB
  0
ENDSEC
  0
SECTION
  2
BLOCKS
  0
BLOCK
  5
20
330
1F
100
AcDbEntity
  8
0
100
AcDbBlockBegin
  2
*MODEL_SPACE
 70
     0
 10
0.0
 20
0.0
 30
0.0
  3
*MODEL_SPACE
  1

  0
ENDBLK
  5
21
330
1F
100
AcDbEntity
  8
0
100
AcDbBlockEnd
  0
BLOCK
  5
1C
330
1B
100
AcDbEntity
 67
     1
  8
0
100
AcDbBlockBegin
  2
*PAPER_SPACE
  1

  0
ENDBLK
  5
1D
330
1B
100
AcDbEntity
 67
     1
  8
0
100
AcDbBlockEnd
  0
ENDSEC
  0
SECTION
  2
ENTITIES
  0
SPLINE
  5
100
100
AcDbEntity
  8
Layer_1
 62
7
100
AcDbSpline
 70
8
 71
3
 72
8
 73
4
 74
0
 40
0
 40
0
 40
0
 40
0
 40
1
 40
1
 40
1
 40
1
 10
140.422085
 20
0.820252
 30
0.0
 10
133.848173
 20
1.259474
 30
0.0
 10
128.711291
 20
2.576182
 30
0.0
 10
124.219600
 20
4.973378
 30
0.0
  0
SPLINE
  5
101
100
AcDbEntity
  8
Layer_1
 62
7
100
AcDbSpline
 70
8
 71
3
 72
8
 73
4
 74
0
 40
0
 40
0
 40
0
 40
0
 40
1
 40
1
 40
1
 40
1
 10
124.219600
 20
4.973378
 30
0.0
 10
122.739065
 20
5.763515
 30
0.0
 10
119.636342
 20
7.815130
 30
0.0
 10
118.338699
 20
8.862005
 30
0.0
  0
SPLINE
  5
102
100
AcDbEntity
  8
Layer_1
 62
7
100
AcDbSpline
 70
8
 71
3
 72
8
 73
4
 74
0
 40
0
 40
0
 40
0
 40
0
 40
1
 40
1
 40
1
 40
1
 10
118.338699
 20
8.862005
 30
0.0
 10
112.728934
 20
13.387664
 30
0.0
 10
109.415064
 20
19.886991
 30
0.0
 10
108.836291
 20
27.498631
 30
0.0
  0
SPLINE
  5
103
100
AcDbEntity
  8
Layer_1
 62
7
100
AcDbSpline
 70
8
 71
3
 72
8
 73
4
 74
0
 40
0
 40
0
 40
0
 40
0
 40
1
 40
1
 40
1
 40
1
 10
108.836291
 20
27.498631
 30
0.0
 10
108.278128
 20
34.839220
 30
0.0
 10
111.171104
 20
42.811202
 30
0.0
 10
117.074642
 20
50.200505
 30
0.0
  0
SPLINE
  5
104
100
AcDbEntity
  8
Layer_1
 62
7
100
AcDbSpline
 70
8
 71
3
 72
8
 73
4
 74
0
 40
0
 40
0
 40
0
 40
0
 40
1
 40
1
 40
1
 40
1
 10
117.074642
 20
50.200505
 30
0.0
 10
118.561863
 20
52.062014
 30
0.0
 10
122.463374
 20
55.994586
 30
0.0
 10
124.459639
 20
57.644285
 30
0.0
  0
SPLINE
  5
105
100
AcDbEntity
  8
Layer_1
 62
7
100
AcDbSpline
 70
8
 71
3
 72
8
 73
4
 74
0
 40
0
 40
0
 40
0
 40
0
 40
1
 40
1
 40
1
 40
1
 10
124.459639
 20
57.644285
 30
0.0
 10
131.710515
 20
63.636385
 30
0.0
 10
140.359387
 20
68.279079
 30
0.0
 10
149.483476
 20
71.077033
 30
0.0
  0
SPLINE
  5
106
100
AcDbEntity
  8
Layer_1
 62
7
100
AcDbSpline
 70
8
 71
3
 72
8
 73
4
 74
0
 40
0
 40
0
 40
0
 40
0
 40
1
 40
1
 40
1
 40
1
 10
149.483476
 20
71.077033
 30
0.0
 10
160.282972
 20
74.388758
 30
0.0
 10
171.648210
 20
76.339490
 30
0.0
 10
185.609013
 20
77.277622
 30
0.0
  0
SPLINE
  5
107
100
AcDbEntity
  8
Layer_1
 62
7
100
AcDbSpline
 70
8
 71
3
 72
8
 73
4
 74
0
 40
0
 40
0
 40
0
 40
0
 40
1
 40
1
 40
1
 40
1
 10
185.609013
 20
77.277622
 30
0.0
 10
188.884580
 20
77.497732
 30
0.0
 10
195.025656
 20
77.560792
 30
0.0
 10
197.777295
 20
77.402573
 30
0.0
  0
SPLINE
  5
108
100
AcDbEntity
  8
Layer_1
 62
7
100
AcDbSpline
 70
8
 71
3
 72
8
 73
4
 74
0
 40
0
 40
0
 40
0
 40
0
 40
1
 40
1
 40
1
 40
1
 10
197.777295
 20
77.402573
 30
0.0
 10
199.418595
 20
77.308198
 30
0.0
 10
199.500676
 20
77.314133
 30
0.0
 10
199.437077
 20
77.522591
 30
0.0
  0
SPLINE
  5
109
100
AcDbEntity
  8
Layer_1
 62
7
100
AcDbSpline
 70
8
 71
3
 72
8
 73
4
 74
0
 40
0
 40
0
 40
0
 40
0
 40
1
 40
1
 40
1
 40
1
 10
199.437077
 20
77.522591
 30
0.0
 10
199.400281
 20
77.643207
 30
0.0
 10
198.932100
 20
78.712372
 30
0.0
 10
198.396685
 20
79.898512
 30
0.0
  0
SPLINE
  5
10a
100
AcDbEntity
  8
Layer_1
 62
7
100
AcDbSpline
 70
8
 71
3
 72
8
 73
4
 74
0
 40
0
 40
0
 40
0
 40
0
 40
1
 40
1
 40
1
 40
1
 10
198.396685
 20
79.898512
 30
0.0
 10
195.533287
 20
86.241936
 30
0.0
 10
192.960261
 20
93.956656
 30
0.0
 10
190.589848
 20
103.305812
 30
0.0
  0
SPLINE
  5
10b
100
AcDbEntity
  8
Layer_1
 62
7
100
AcDbSpline
 70
8
 71
3
 72
8
 73
4
 74
0
 40
0
 40
0
 40
0
 40
0
 40
1
 40
1
 40
1
 40
1
 10
190.589848
 20
103.305812
 30
0.0
 10
189.920386
 20
105.946215
 30
0.0
 10
189.191384
 20
108.808654
 30
0.0
 10
188.969842
 20
109.666787
 30
0.0
  0
SPLINE
  5
10c
100
AcDbEntity
  8
Layer_1
 62
7
100
AcDbSpline
 70
8
 71
3
 72
8
 73
4
 74
0
 40
0
 40
0
 40
0
 40
0
 40
1
 40
1
 40
1
 40
1
 10
188.969842
 20
109.666787
 30
0.0
 10
188.748286
 20
110.524918
 30
0.0
 10
187.911520
 20
113.819422
 30
0.0
 10
187.110336
 20
116.987908
 30
0.0
  0
SPLINE
  5
10d
100
AcDbEntity
  8
Layer_1
 62
7
100
AcDbSpline
 70
8
 71
3
 72
8
 73
4
 74
0
 40
0
 40
0
 40
0
 40
0
 40
1
 40
1
 40
1
 40
1
 10
187.110336
 20
116.987908
 30
0.0
 10
186.309164
 20
120.156395
 30
0.0
 10
185.436487
 20
123.396890
 30
0.0
 10
185.171066
 20
124.189012
 30
0.0
  0
SPLINE
  5
10e
100
AcDbEntity
  8
Layer_1
 62
7
100
AcDbSpline
 70
8
 71
3
 72
8
 73
4
 74
0
 40
0
 40
0
 40
0
 40
0
 40
1
 40
1
 40
1
 40
1
 10
185.171066
 20
124.189012
 30
0.0
 10
184.673553
 20
125.673749
 30
0.0
 10
183.545813
 20
128.132720
 30
0.0
 10
182.705372
 20
129.565277
 30
0.0
  0
SPLINE
  5
10f
100
AcDbEntity
  8
Layer_1
 62
7
100
AcDbSpline
 70
8
 71
3
 72
8
 73
4
 74
0
 40
0
 40
0
 40
0
 40
0
 40
1
 40
1
 40
1
 40
1
 10
182.705372
 20
129.565277
 30
0.0
 10
182.085971
 20
130.621090
 30
0.0
 10
182.095236
 20
130.631747
 30
0.0
 10
181.041870
 20
127.653529
 30
0.0
  0
SPLINE
  5
110
100
AcDbEntity
  8
Layer_1
 62
7
100
AcDbSpline
 70
8
 71
3
 72
8
 73
4
 74
0
 40
0
 40
0
 40
0
 40
0
 40
1
 40
1
 40
1
 40
1
 10
181.041870
 20
127.653529
 30
0.0
 10
180.354932
 20
125.711352
 30
0.0
 10
179.469471
 20
123.872694
 30
0.0
 10
178.789161
 20
122.975809
 30
0.0
  0
SPLINE
  5
111
100
AcDbEntity
  8
Layer_1
 62
7
100
AcDbSpline
 70
8
 71
3
 72
8
 73
4
 74
0
 40
0
 40
0
 40
0
 40
0
 40
1
 40
1
 40
1
 40
1
 10
178.789161
 20
122.975809
 30
0.0
 10
177.254041
 20
120.951962
 30
0.0
 10
174.559183
 20
119.072399
 30
0.0
 10
172.089925
 20
118.303329
 30
0.0
  0
SPLINE
  5
112
100
AcDbEntity
  8
Layer_1
 62
7
100
AcDbSpline
 70
8
 71
3
 72
8
 73
4
 74
0
 40
0
 40
0
 40
0
 40
0
 40
1
 40
1
 40
1
 40
1
 10
172.089925
 20
118.303329
 30
0.0
 10
171.266683
 20
118.046925
 30
0.0
 10
171.026777
 20
118.115468
 30
0.0
 10
171.026777
 20
118.607071
 30
0.0
  0
SPLINE
  5
113
100
AcDbEntity
  8
Layer_1
 62
7
100
AcDbSpline
 70
8
 71
3
 72
8
 73
4
 74
0
 40
0
 40
0
 40
0
 40
0
 40
1
 40
1
 40
1
 40
1
 10
171.026777
 20
118.607071
 30
0.0
 10
171.026777
 20
118.868527
 30
0.0
 10
171.165941
 20
119.124542
 30
0.0
 10
171.512289
 20
119.500296
 30
0.0
  0
SPLINE
  5
114
100
AcDbEntity
  8
Layer_1
 62
7
100
AcDbSpline
 70
8
 71
3
 72
8
 73
4
 74
0
 40
0
 40
0
 40
0
 40
0
 40
1
 40
1
 40
1
 40
1
 10
171.512289
 20
119.500296
 30
0.0
 10
171.865191
 20
119.883147
 30
0.0
 10
172.212367
 20
120.529865
 30
0.0
 10
172.783342
 20
121.867979
 30
0.0
  0
SPLINE
  5
115
100
AcDbEntity
  8
Layer_1
 62
7
100
AcDbSpline
 70
8
 71
3
 72
8
 73
4
 74
0
 40
0
 40
0
 40
0
 40
0
 40
1
 40
1
 40
1
 40
1
 10
172.783342
 20
121.867979
 30
0.0
 10
173.575740
 20
123.725030
 30
0.0
 10
174.747349
 20
126.637509
 30
0.0
 10
174.747349
 20
126.750277
 30
0.0
  0
SPLINE
  5
116
100
AcDbEntity
  8
Layer_1
 62
7
100
AcDbSpline
 70
8
 71
3
 72
8
 73
4
 74
0
 40
0
 40
0
 40
0
 40
0
 40
1
 40
1
 40
1
 40
1
 10
174.747349
 20
126.750277
 30
0.0
 10
174.747349
 20
126.879961
 30
0.0
 10
174.037210
 20
126.142145
 30
0.0
 10
171.967531
 20
123.862099
 30
0.0
  0
SPLINE
  5
117
100
AcDbEntity
  8
Layer_1
 62
7
100
AcDbSpline
 70
8
 71
3
 72
8
 73
4
 74
0
 40
0
 40
0
 40
0
 40
0
 40
1
 40
1
 40
1
 40
1
 10
171.967531
 20
123.862099
 30
0.0
 10
169.749625
 20
121.418763
 30
0.0
 10
168.461662
 20
120.194040
 30
0.0
 10
167.235000
 20
119.361936
 30
0.0
  0
SPLINE
  5
118
100
AcDbEntity
  8
Layer_1
 62
7
100
AcDbSpline
 70
8
 71
3
 72
8
 73
4
 74
0
 40
0
 40
0
 40
0
 40
0
 40
1
 40
1
 40
1
 40
1
 10
167.235000
 20
119.361936
 30
0.0
 10
165.747960
 20
118.353204
 30
0.0
 10
164.136448
 20
117.702642
 30
0.0
 10
162.805516
 20
117.573768
 30
0.0
  0
SPLINE
  5
119
100
AcDbEntity
  8
Layer_1
 62
7
100
AcDbSpline
 70
8
 71
3
 72
8
 73
4
 74
0
 40
0
 40
0
 40
0
 40
0
 40
1
 40
1
 40
1
 40
1
 10
162.805516
 20
117.573768
 30
0.0
 10
162.179071
 20
117.513110
 30
0.0
 10
162.032216
 20
117.540722
 30
0.0
 10
161.676481
 20
117.786058
 30
0.0
  0
SPLINE
  5
11a
100
AcDbEntity
  8
Layer_1
 62
7
100
AcDbSpline
 70
8
 71
3
 72
8
 73
4
 74
0
 40
0
 40
0
 40
0
 40
0
 40
1
 40
1
 40
1
 40
1
 10
161.676481
 20
117.786058
 30
0.0
 10
160.580809
 20
118.541697
 30
0.0
 10
160.249870
 20
119.617102
 30
0.0
 10
160.389330
 20
121.968671
 30
0.0
  0
SPLINE
  5
11b
100
AcDbEntity
  8
Layer_1
 62
7
100
AcDbSpline
 70
8
 71
3
 72
8
 73
4
 74
0
 40
0
 40
0
 40
0
 40
0
 40
1
 40
1
 40
1
 40
1
 10
160.389330
 20
121.968671
 30
0.0
 10
160.514355
 20
124.076602
 30
0.0
 10
160.928693
 20
125.483455
 30
0.0
 10
162.474820
 20
129.049756
 30
0.0
  0
SPLINE
  5
11c
100
AcDbEntity
  8
Layer_1
 62
7
100
AcDbSpline
 70
8
 71
3
 72
8
 73
4
 74
0
 40
0
 40
0
 40
0
 40
0
 40
1
 40
1
 40
1
 40
1
 10
162.474820
 20
129.049756
 30
0.0
 10
163.032869
 20
130.336955
 30
0.0
 10
163.640304
 20
131.795177
 30
0.0
 10
163.824689
 20
132.290254
 30
0.0
  0
SPLINE
  5
11d
100
AcDbEntity
  8
Layer_1
 62
7
100
AcDbSpline
 70
8
 71
3
 72
8
 73
4
 74
0
 40
0
 40
0
 40
0
 40
0
 40
1
 40
1
 40
1
 40
1
 10
163.824689
 20
132.290254
 30
0.0
 10
164.009073
 20
132.785328
 30
0.0
 10
164.737621
 20
134.405577
 30
0.0
 10
165.443702
 20
135.890806
 30
0.0
  0
SPLINE
  5
11e
100
AcDbEntity
  8
Layer_1
 62
7
100
AcDbSpline
 70
8
 71
3
 72
8
 73
4
 74
0
 40
0
 40
0
 40
0
 40
0
 40
1
 40
1
 40
1
 40
1
 10
165.443702
 20
135.890806
 30
0.0
 10
166.149771
 20
137.376034
 30
0.0
 10
166.958755
 20
139.131301
 30
0.0
 10
167.241457
 20
139.791402
 30
0.0
  0
SPLINE
  5
11f
100
AcDbEntity
  8
Layer_1
 62
7
100
AcDbSpline
 70
8
 71
3
 72
8
 73
4
 74
0
 40
0
 40
0
 40
0
 40
0
 40
1
 40
1
 40
1
 40
1
 10
167.241457
 20
139.791402
 30
0.0
 10
168.629782
 20
143.033190
 30
0.0
 10
169.305486
 20
145.976175
 30
0.0
 10
168.813771
 20
146.639518
 30
0.0
  0
SPLINE
  5
120
100
AcDbEntity
  8
Layer_1
 62
7
100
AcDbSpline
 70
8
 71
3
 72
8
 73
4
 74
0
 40
0
 40
0
 40
0
 40
0
 40
1
 40
1
 40
1
 40
1
 10
168.813771
 20
146.639518
 30
0.0
 10
168.644113
 20
146.868398
 30
0.0
 10
168.630936
 20
146.867221
 30
0.0
 10
168.063655
 20
146.572443
 30
0.0
  0
SPLINE
  5
121
100
AcDbEntity
  8
Layer_1
 62
7
100
AcDbSpline
 70
8
 71
3
 72
8
 73
4
 74
0
 40
0
 40
0
 40
0
 40
0
 40
1
 40
1
 40
1
 40
1
 10
168.063655
 20
146.572443
 30
0.0
 10
166.790740
 20
145.910998
 30
0.0
 10
164.937632
 20
143.619134
 30
0.0
 10
162.874827
 20
140.155096
 30
0.0
  0
SPLINE
  5
122
100
AcDbEntity
  8
Layer_1
 62
7
100
AcDbSpline
 70
8
 71
3
 72
8
 73
4
 74
0
 40
0
 40
0
 40
0
 40
0
 40
1
 40
1
 40
1
 40
1
 10
162.874827
 20
140.155096
 30
0.0
 10
160.287699
 20
135.810542
 30
0.0
 10
158.516577
 20
132.297081
 30
0.0
 10
155.286772
 20
125.102285
 30
0.0
  0
SPLINE
  5
123
100
AcDbEntity
  8
Layer_1
 62
7
100
AcDbSpline
 70
8
 71
3
 72
8
 73
4
 74
0
 40
0
 40
0
 40
0
 40
0
 40
1
 40
1
 40
1
 40
1
 10
155.286772
 20
125.102285
 30
0.0
 10
154.231571
 20
122.751702
 30
0.0
 10
153.200182
 20
120.460475
 30
0.0
 10
152.994781
 20
120.010672
 30
0.0
  0
SPLINE
  5
124
100
AcDbEntity
  8
Layer_1
 62
7
100
AcDbSpline
 70
8
 71
3
 72
8
 73
4
 74
0
 40
0
 40
0
 40
0
 40
0
 40
1
 40
1
 40
1
 40
1
 10
152.994781
 20
120.010672
 30
0.0
 10
152.645347
 20
119.245435
 30
0.0
 10
152.551313
 20
119.144549
 30
0.0
 10
151.532477
 20
118.441675
 30
0.0
  0
SPLINE
  5
125
100
AcDbEntity
  8
Layer_1
 62
7
100
AcDbSpline
 70
8
 71
3
 72
8
 73
4
 74
0
 40
0
 40
0
 40
0
 40
0
 40
1
 40
1
 40
1
 40
1
 10
151.532477
 20
118.441675
 30
0.0
 10
150.933610
 20
118.028527
 30
0.0
 10
149.849532
 20
117.269126
 30
0.0
 10
149.123420
 20
116.754113
 30
0.0
  0
SPLINE
  5
126
100
AcDbEntity
  8
Layer_1
 62
7
100
AcDbSpline
 70
8
 71
3
 72
8
 73
4
 74
0
 40
0
 40
0
 40
0
 40
0
 40
1
 40
1
 40
1
 40
1
 10
149.123420
 20
116.754113
 30
0.0
 10
147.752618
 20
115.781840
 30
0.0
 10
145.851623
 20
114.767567
 30
0.0
 10
145.400161
 20
114.767567
 30
0.0
  0
SPLINE
  5
127
100
AcDbEntity
  8
Layer_1
 62
7
100
AcDbSpline
 70
8
 71
3
 72
8
 73
4
 74
0
 40
0
 40
0
 40
0
 40
0
 40
1
 40
1
 40
1
 40
1
 10
145.400161
 20
114.767567
 30
0.0
 10
145.257074
 20
114.767567
 30
0.0
 10
145.048819
 20
114.868324
 30
0.0
 10
144.937381
 20
114.991468
 30
0.0
  0
SPLINE
  5
128
100
AcDbEntity
  8
Layer_1
 62
7
100
AcDbSpline
 70
8
 71
3
 72
8
 73
4
 74
0
 40
0
 40
0
 40
0
 40
0
 40
1
 40
1
 40
1
 40
1
 10
144.937381
 20
114.991468
 30
0.0
 10
144.575922
 20
115.390869
 30
0.0
 10
144.827865
 20
116.122432
 30
0.0
 10
146.575585
 20
119.748332
 30
0.0
  0
SPLINE
  5
129
100
AcDbEntity
  8
Layer_1
 62
7
100
AcDbSpline
 70
8
 71
3
 72
8
 73
4
 74
0
 40
0
 40
0
 40
0
 40
0
 40
1
 40
1
 40
1
 40
1
 10
146.575585
 20
119.748332
 30
0.0
 10
151.645643
 20
130.266935
 30
0.0
 10
154.058578
 20
136.120309
 30
0.0
 10
156.395033
 20
143.568681
 30
0.0
  0
SPLINE
  5
12a
100
AcDbEntity
  8
Layer_1
 62
7
100
AcDbSpline
 70
8
 71
3
 72
8
 73
4
 74
0
 40
0
 40
0
 40
0
 40
0
 40
1
 40
1
 40
1
 40
1
 10
156.395033
 20
143.568681
 30
0.0
 10
156.949665
 20
145.336775
 30
0.0
 10
156.986343
 20
145.733819
 30
0.0
 10
156.594564
 20
145.728974
 30
0.0
  0
SPLINE
  5
12b
100
AcDbEntity
  8
Layer_1
 62
7
100
AcDbSpline
 70
8
 71
3
 72
8
 73
4
 74
0
 40
0
 40
0
 40
0
 40
0
 40
1
 40
1
 40
1
 40
1
 10
156.594564
 20
145.728974
 30
0.0
 10
156.446042
 20
145.726998
 30
0.0
 10
156.112368
 20
145.565113
 30
0.0
 10
155.853079
 20
145.368920
 30
0.0
  0
SPLINE
  5
12c
100
AcDbEntity
  8
Layer_1
 62
7
100
AcDbSpline
 70
8
 71
3
 72
8
 73
4
 74
0
 40
0
 40
0
 40
0
 40
0
 40
1
 40
1
 40
1
 40
1
 10
155.853079
 20
145.368920
 30
0.0
 10
155.315900
 20
144.962472
 30
0.0
 10
155.064330
 20
144.916769
 30
0.0
 10
155.064330
 20
145.225622
 30
0.0
  0
SPLINE
  5
12d
100
AcDbEntity
  8
Layer_1
 62
7
100
AcDbSpline
 70
8
 71
3
 72
8
 73
4
 74
0
 40
0
 40
0
 40
0
 40
0
 40
1
 40
1
 40
1
 40
1
 10
155.064330
 20
145.225622
 30
0.0
 10
155.064330
 20
145.673158
 30
0.0
 10
155.660750
 20
146.260068
 30
0.0
 10
157.284671
 20
147.410544
 30
0.0
  0
SPLINE
  5
12e
100
AcDbEntity
  8
Layer_1
 62
7
100
AcDbSpline
 70
8
 71
3
 72
8
 73
4
 74
0
 40
0
 40
0
 40
0
 40
0
 40
1
 40
1
 40
1
 40
1
 10
157.284671
 20
147.410544
 30
0.0
 10
160.043509
 20
149.365065
 30
0.0
 10
162.041707
 20
150.274193
 30
0.0
 10
162.846275
 20
149.940929
 30
0.0
  0
SPLINE
  5
12f
100
AcDbEntity
  8
Layer_1
 62
7
100
AcDbSpline
 70
8
 71
3
 72
8
 73
4
 74
0
 40
0
 40
0
 40
0
 40
0
 40
1
 40
1
 40
1
 40
1
 10
162.846275
 20
149.940929
 30
0.0
 10
163.041858
 20
149.859919
 30
0.0
 10
163.328725
 20
149.658543
 30
0.0
 10
163.483764
 20
149.493420
 30
0.0
  0
SPLINE
  5
130
100
AcDbEntity
  8
Layer_1
 62
7
100
AcDbSpline
 70
8
 71
3
 72
8
 73
4
 74
0
 40
0
 40
0
 40
0
 40
0
 40
1
 40
1
 40
1
 40
1
 10
163.483764
 20
149.493420
 30
0.0
 10
163.917859
 20
149.031123
 30
0.0
 10
163.871521
 20
147.634058
 30
0.0
 10
163.367277
 20
145.981385
 30
0.0
  0
SPLINE
  5
131
100
AcDbEntity
  8
Layer_1
 62
7
100
AcDbSpline
 70
8
 71
3
 72
8
 73
4
 74
0
 40
0
 40
0
 40
0
 40
0
 40
1
 40
1
 40
1
 40
1
 10
163.367277
 20
145.981385
 30
0.0
 10
163.157326
 20
145.293248
 30
0.0
 10
162.985546
 20
144.678393
 30
0.0
 10
162.985546
 20
144.615040
 30
0.0
  0
SPLINE
  5
132
100
AcDbEntity
  8
Layer_1
 62
7
100
AcDbSpline
 70
8
 71
3
 72
8
 73
4
 74
0
 40
0
 40
0
 40
0
 40
0
 40
1
 40
1
 40
1
 40
1
 10
162.985546
 20
144.615040
 30
0.0
 10
162.985546
 20
144.551689
 30
0.0
 10
163.602343
 20
145.097380
 30
0.0
 10
164.356226
 20
145.827686
 30
0.0
  0
SPLINE
  5
133
100
AcDbEntity
  8
Layer_1
 62
7
100
AcDbSpline
 70
8
 71
3
 72
8
 73
4
 74
0
 40
0
 40
0
 40
0
 40
0
 40
1
 40
1
 40
1
 40
1
 10
164.356226
 20
145.827686
 30
0.0
 10
165.934602
 20
147.356724
 30
0.0
 10
167.668219
 20
148.767180
 30
0.0
 10
169.046474
 20
149.643633
 30
0.0
  0
SPLINE
  5
134
100
AcDbEntity
  8
Layer_1
 62
7
100
AcDbSpline
 70
8
 71
3
 72
8
 73
4
 74
0
 40
0
 40
0
 40
0
 40
0
 40
1
 40
1
 40
1
 40
1
 10
169.046474
 20
149.643633
 30
0.0
 10
171.330267
 20
151.095934
 30
0.0
 10
172.633561
 20
151.613214
 30
0.0
 10
174.008852
 20
151.613214
 30
0.0
  0
SPLINE
  5
135
100
AcDbEntity
  8
Layer_1
 62
7
100
AcDbSpline
 70
8
 71
3
 72
8
 73
4
 74
0
 40
0
 40
0
 40
0
 40
0
 40
1
 40
1
 40
1
 40
1
 10
174.008852
 20
151.613214
 30
0.0
 10
174.709314
 20
151.613214
 30
0.0
 10
174.802989
 20
151.581481
 30
0.0
 10
175.160271
 20
151.223154
 30
0.0
  0
SPLINE
  5
136
100
AcDbEntity
  8
Layer_1
 62
7
100
AcDbSpline
 70
8
 71
3
 72
8
 73
4
 74
0
 40
0
 40
0
 40
0
 40
0
 40
1
 40
1
 40
1
 40
1
 10
175.160271
 20
151.223154
 30
0.0
 10
176.062905
 20
150.317893
 30
0.0
 10
176.357311
 20
148.141420
 30
0.0
 10
175.854879
 20
146.088118
 30
0.0
  0
SPLINE
  5
137
100
AcDbEntity
  8
Layer_1
 62
7
100
AcDbSpline
 70
8
 71
3
 72
8
 73
4
 74
0
 40
0
 40
0
 40
0
 40
0
 40
1
 40
1
 40
1
 40
1
 10
175.854879
 20
146.088118
 30
0.0
 10
175.524803
 20
144.739184
 30
0.0
 10
174.269363
 20
141.410714
 30
0.0
 10
173.548748
 20
139.974050
 30
0.0
  0
SPLINE
  5
138
100
AcDbEntity
  8
Layer_1
 62
7
100
AcDbSpline
 70
8
 71
3
 72
8
 73
4
 74
0
 40
0
 40
0
 40
0
 40
0
 40
1
 40
1
 40
1
 40
1
 10
173.548748
 20
139.974050
 30
0.0
 10
171.337122
 20
135.564732
 30
0.0
 10
169.059064
 20
130.233085
 30
0.0
 10
167.530509
 20
125.888717
 30
0.0
  0
SPLINE
  5
139
100
AcDbEntity
  8
Layer_1
 62
7
100
AcDbSpline
 70
8
 71
3
 72
8
 73
4
 74
0
 40
0
 40
0
 40
0
 40
0
 40
1
 40
1
 40
1
 40
1
 10
167.530509
 20
125.888717
 30
0.0
 10
167.063014
 20
124.560058
 30
0.0
 10
166.946151
 20
124.072809
 30
0.0
 10
166.946151
 20
123.452386
 30
0.0
  0
SPLINE
  5
13a
100
AcDbEntity
  8
Layer_1
 62
7
100
AcDbSpline
 70
8
 71
3
 72
8
 73
4
 74
0
 40
0
 40
0
 40
0
 40
0
 40
1
 40
1
 40
1
 40
1
 10
166.946151
 20
123.452386
 30
0.0
 10
166.946151
 20
122.590324
 30
0.0
 10
167.189263
 20
121.968671
 30
0.0
 10
167.526380
 20
121.968671
 30
0.0
  0
SPLINE
  5
13b
100
AcDbEntity
  8
Layer_1
 62
7
100
AcDbSpline
 70
8
 71
3
 72
8
 73
4
 74
0
 40
0
 40
0
 40
0
 40
0
 40
1
 40
1
 40
1
 40
1
 10
167.526380
 20
121.968671
 30
0.0
 10
167.897045
 20
121.968671
 30
0.0
 10
169.136427
 20
122.793078
 30
0.0
 10
169.927360
 20
123.565738
 30
0.0
  0
SPLINE
  5
13c
100
AcDbEntity
  8
Layer_1
 62
7
100
AcDbSpline
 70
8
 71
3
 72
8
 73
4
 74
0
 40
0
 40
0
 40
0
 40
0
 40
1
 40
1
 40
1
 40
1
 10
169.927360
 20
123.565738
 30
0.0
 10
170.694435
 20
124.315083
 30
0.0
 10
173.299315
 20
127.259945
 30
0.0
 10
173.982039
 20
128.149619
 30
0.0
  0
SPLINE
  5
13d
100
AcDbEntity
  8
Layer_1
 62
7
100
AcDbSpline
 70
8
 71
3
 72
8
 73
4
 74
0
 40
0
 40
0
 40
0
 40
0
 40
1
 40
1
 40
1
 40
1
 10
173.982039
 20
128.149619
 30
0.0
 10
174.513073
 20
128.841628
 30
0.0
 10
175.536025
 20
130.615593
 30
0.0
 10
176.089838
 20
131.804897
 30
0.0
  0
SPLINE
  5
13e
100
AcDbEntity
  8
Layer_1
 62
7
100
AcDbSpline
 70
8
 71
3
 72
8
 73
4
 74
0
 40
0
 40
0
 40
0
 40
0
 40
1
 40
1
 40
1
 40
1
 10
176.089838
 20
131.804897
 30
0.0
 10
176.711796
 20
133.140536
 30
0.0
 10
178.657380
 20
138.015270
 30
0.0
 10
178.832764
 20
138.677392
 30
0.0
  0
SPLINE
  5
13f
100
AcDbEntity
  8
Layer_1
 62
7
100
AcDbSpline
 70
8
 71
3
 72
8
 73
4
 74
0
 40
0
 40
0
 40
0
 40
0
 40
1
 40
1
 40
1
 40
1
 10
178.832764
 20
138.677392
 30
0.0
 10
179.283205
 20
140.378006
 30
0.0
 10
180.793418
 20
145.287922
 30
0.0
 10
181.704166
 20
148.012662
 30
0.0
  0
SPLINE
  5
140
100
AcDbEntity
  8
Layer_1
 62
7
100
AcDbSpline
 70
8
 71
3
 72
8
 73
4
 74
0
 40
0
 40
0
 40
0
 40
0
 40
1
 40
1
 40
1
 40
1
 10
181.704166
 20
148.012662
 30
0.0
 10
186.235439
 20
161.569334
 30
0.0
 10
191.585317
 20
170.907658
 30
0.0
 10
198.824864
 20
177.897244
 30
0.0
  0
SPLINE
  5
141
100
AcDbEntity
  8
Layer_1
 62
7
100
AcDbSpline
 70
8
 71
3
 72
8
 73
4
 74
0
 40
0
 40
0
 40
0
 40
0
 40
1
 40
1
 40
1
 40
1
 10
198.824864
 20
177.897244
 30
0.0
 10
206.026557
 20
184.850277
 30
0.0
 10
214.469887
 20
188.870261
 30
0.0
 10
223.765708
 20
189.771916
 30
0.0
  0
SPLINE
  5
142
100
AcDbEntity
  8
Layer_1
 62
7
100
AcDbSpline
 70
8
 71
3
 72
8
 73
4
 74
0
 40
0
 40
0
 40
0
 40
0
 40
1
 40
1
 40
1
 40
1
 10
223.765708
 20
189.771916
 30
0.0
 10
226.700374
 20
190.056568
 30
0.0
 10
231.325931
 20
189.869164
 30
0.0
 10
234.036438
 20
189.355796
 30
0.0
  0
SPLINE
  5
143
100
AcDbEntity
  8
Layer_1
 62
7
100
AcDbSpline
 70
8
 71
3
 72
8
 73
4
 74
0
 40
0
 40
0
 40
0
 40
0
 40
1
 40
1
 40
1
 40
1
 10
234.036438
 20
189.355796
 30
0.0
 10
235.301576
 20
189.116184
 30
0.0
 10
238.079449
 20
188.426757
 30
0.0
 10
239.433187
 20
188.016406
 30
0.0
  0
SPLINE
  5
144
100
AcDbEntity
  8
Layer_1
 62
7
100
AcDbSpline
 70
8
 71
3
 72
8
 73
4
 74
0
 40
0
 40
0
 40
0
 40
0
 40
1
 40
1
 40
1
 40
1
 10
239.433187
 20
188.016406
 30
0.0
 10
243.041887
 20
186.922524
 30
0.0
 10
247.696945
 20
184.403313
 30
0.0
 10
250.959033
 20
181.778869
 30
0.0
  0
SPLINE
  5
145
100
AcDbEntity
  8
Layer_1
 62
7
100
AcDbSpline
 70
8
 71
3
 72
8
 73
4
 74
0
 40
0
 40
0
 40
0
 40
0
 40
1
 40
1
 40
1
 40
1
 10
250.959033
 20
181.778869
 30
0.0
 10
252.381094
 20
180.634785
 30
0.0
 10
254.948481
 20
178.057560
 30
0.0
 10
256.027315
 20
176.691178
 30
0.0
  0
SPLINE
  5
146
100
AcDbEntity
  8
Layer_1
 62
7
100
AcDbSpline
 70
8
 71
3
 72
8
 73
4
 74
0
 40
0
 40
0
 40
0
 40
0
 40
1
 40
1
 40
1
 40
1
 10
256.027315
 20
176.691178
 30
0.0
 10
258.722506
 20
173.277616
 30
0.0
 10
260.361887
 20
169.994463
 30
0.0
 10
261.703944
 20
165.322669
 30
0.0
  0
SPLINE
  5
147
100
AcDbEntity
  8
Layer_1
 62
7
100
AcDbSpline
 70
8
 71
3
 72
8
 73
4
 74
0
 40
0
 40
0
 40
0
 40
0
 40
1
 40
1
 40
1
 40
1
 10
261.703944
 20
165.322669
 30
0.0
 10
262.966609
 20
160.927306
 30
0.0
 10
263.445591
 20
157.384054
 30
0.0
 10
263.448797
 20
152.415380
 30
0.0
  0
SPLINE
  5
148
100
AcDbEntity
  8
Layer_1
 62
7
100
AcDbSpline
 70
8
 71
3
 72
8
 73
4
 74
0
 40
0
 40
0
 40
0
 40
0
 40
1
 40
1
 40
1
 40
1
 10
263.448797
 20
152.415380
 30
0.0
 10
263.450773
 20
149.256613
 30
0.0
 10
263.269081
 20
147.034378
 30
0.0
 10
262.774568
 20
144.172075
 30
0.0
  0
SPLINE
  5
149
100
AcDbEntity
  8
Layer_1
 62
7
100
AcDbSpline
 70
8
 71
3
 72
8
 73
4
 74
0
 40
0
 40
0
 40
0
 40
0
 40
1
 40
1
 40
1
 40
1
 10
262.774568
 20
144.172075
 30
0.0
 10
261.327316
 20
135.795104
 30
0.0
 10
257.487615
 20
127.525324
 30
0.0
 10
251.936019
 20
120.828498
 30
0.0
  0
SPLINE
  5
14a
100
AcDbEntity
  8
Layer_1
 62
7
100
AcDbSpline
 70
8
 71
3
 72
8
 73
4
 74
0
 40
0
 40
0
 40
0
 40
0
 40
1
 40
1
 40
1
 40
1
 10
251.936019
 20
120.828498
 30
0.0
 10
249.853281
 20
118.316100
 30
0.0
 10
247.666761
 20
116.276271
 30
0.0
 10
244.538048
 20
113.926827
 30
0.0
  0
SPLINE
  5
14b
100
AcDbEntity
  8
Layer_1
 62
7
100
AcDbSpline
 70
8
 71
3
 72
8
 73
4
 74
0
 40
0
 40
0
 40
0
 40
0
 40
1
 40
1
 40
1
 40
1
 10
244.538048
 20
113.926827
 30
0.0
 10
237.434185
 20
108.592319
 30
0.0
 10
229.980417
 20
105.491019
 30
0.0
 10
222.599058
 20
104.798621
 30
0.0
  0
SPLINE
  5
14c
100
AcDbEntity
  8
Layer_1
 62
7
100
AcDbSpline
 70
8
 71
3
 72
8
 73
4
 74
0
 40
0
 40
0
 40
0
 40
0
 40
1
 40
1
 40
1
 40
1
 10
222.599058
 20
104.798621
 30
0.0
 10
220.669533
 20
104.617626
 30
0.0
 10
216.419814
 20
104.716886
 30
0.0
 10
214.773485
 20
104.981405
 30
0.0
  0
SPLINE
  5
14d
100
AcDbEntity
  8
Layer_1
 62
7
100
AcDbSpline
 70
8
 71
3
 72
8
 73
4
 74
0
 40
0
 40
0
 40
0
 40
0
 40
1
 40
1
 40
1
 40
1
 10
214.773485
 20
104.981405
 30
0.0
 10
212.168859
 20
105.399892
 30
0.0
 10
209.236352
 20
106.221994
 30
0.0
 10
207.812970
 20
106.932717
 30
0.0
  0
SPLINE
  5
14e
100
AcDbEntity
  8
Layer_1
 62
7
100
AcDbSpline
 70
8
 71
3
 72
8
 73
4
 74
0
 40
0
 40
0
 40
0
 40
0
 40
1
 40
1
 40
1
 40
1
 10
207.812970
 20
106.932717
 30
0.0
 10
205.434709
 20
108.120235
 30
0.0
 10
203.428109
 20
109.867515
 30
0.0
 10
202.671550
 20
111.409713
 30
0.0
  0
SPLINE
  5
14f
100
AcDbEntity
  8
Layer_1
 62
7
100
AcDbSpline
 70
8
 71
3
 72
8
 73
4
 74
0
 40
0
 40
0
 40
0
 40
0
 40
1
 40
1
 40
1
 40
1
 10
202.671550
 20
111.409713
 30
0.0
 10
201.860308
 20
113.063368
 30
0.0
 10
201.854477
 20
114.109453
 30
0.0
 10
202.651569
 20
114.991745
 30
0.0
  0
SPLINE
  5
150
100
AcDbEntity
  8
Layer_1
 62
7
100
AcDbSpline
 70
8
 71
3
 72
8
 73
4
 74
0
 40
0
 40
0
 40
0
 40
0
 40
1
 40
1
 40
1
 40
1
 10
202.651569
 20
114.991745
 30
0.0
 10
203.066317
 20
115.450827
 30
0.0
 10
204.109012
 20
116.037195
 30
0.0
 10
204.732258
 20
116.161847
 30
0.0
  0
SPLINE
  5
151
100
AcDbEntity
  8
Layer_1
 62
7
100
AcDbSpline
 70
8
 71
3
 72
8
 73
4
 74
0
 40
0
 40
0
 40
0
 40
0
 40
1
 40
1
 40
1
 40
1
 10
204.732258
 20
116.161847
 30
0.0
 10
205.158600
 20
116.247115
 30
0.0
 10
205.193163
 20
116.170003
 30
0.0
 10
205.350305
 20
114.782788
 30
0.0
  0
SPLINE
  5
152
100
AcDbEntity
  8
Layer_1
 62
7
100
AcDbSpline
 70
8
 71
3
 72
8
 73
4
 74
0
 40
0
 40
0
 40
0
 40
0
 40
1
 40
1
 40
1
 40
1
 10
205.350305
 20
114.782788
 30
0.0
 10
205.575278
 20
112.796832
 30
0.0
 10
206.297443
 20
111.232965
 30
0.0
 10
207.664248
 20
109.771842
 30
0.0
  0
SPLINE
  5
153
100
AcDbEntity
  8
Layer_1
 62
7
100
AcDbSpline
 70
8
 71
3
 72
8
 73
4
 74
0
 40
0
 40
0
 40
0
 40
0
 40
1
 40
1
 40
1
 40
1
 10
207.664248
 20
109.771842
 30
0.0
 10
209.706817
 20
107.588331
 30
0.0
 10
212.609029
 20
106.412299
 30
0.0
 10
216.603120
 20
106.149641
 30
0.0
  0
SPLINE
  5
154
100
AcDbEntity
  8
Layer_1
 62
7
100
AcDbSpline
 70
8
 71
3
 72
8
 73
4
 74
0
 40
0
 40
0
 40
0
 40
0
 40
1
 40
1
 40
1
 40
1
 10
216.603120
 20
106.149641
 30
0.0
 10
222.128949
 20
105.786257
 30
0.0
 10
227.663225
 20
107.336493
 30
0.0
 10
234.436308
 20
111.144980
 30
0.0
  0
SPLINE
  5
155
100
AcDbEntity
  8
Layer_1
 62
7
100
AcDbSpline
 70
8
 71
3
 72
8
 73
4
 74
0
 40
0
 40
0
 40
0
 40
0
 40
1
 40
1
 40
1
 40
1
 10
234.436308
 20
111.144980
 30
0.0
 10
238.279754
 20
113.306144
 30
0.0
 10
243.265365
 20
117.947873
 30
0.0
 10
246.899800
 20
122.748792
 30
0.0
  0
SPLINE
  5
156
100
AcDbEntity
  8
Layer_1
 62
7
100
AcDbSpline
 70
8
 71
3
 72
8
 73
4
 74
0
 40
0
 40
0
 40
0
 40
0
 40
1
 40
1
 40
1
 40
1
 10
246.899800
 20
122.748792
 30
0.0
 10
247.736278
 20
123.853737
 30
0.0
 10
249.663955
 20
126.822532
 30
0.0
 10
250.335373
 20
128.039883
 30
0.0
  0
SPLINE
  5
157
100
AcDbEntity
  8
Layer_1
 62
7
100
AcDbSpline
 70
8
 71
3
 72
8
 73
4
 74
0
 40
0
 40
0
 40
0
 40
0
 40
1
 40
1
 40
1
 40
1
 10
250.335373
 20
128.039883
 30
0.0
 10
255.352838
 20
137.136992
 30
0.0
 10
257.360507
 20
147.042509
 30
0.0
 10
256.300385
 20
157.470222
 30
0.0
  0
SPLINE
  5
158
100
AcDbEntity
  8
Layer_1
 62
7
100
AcDbSpline
 70
8
 71
3
 72
8
 73
4
 74
0
 40
0
 40
0
 40
0
 40
0
 40
1
 40
1
 40
1
 40
1
 10
256.300385
 20
157.470222
 30
0.0
 10
255.590260
 20
164.455172
 30
0.0
 10
253.617733
 20
170.449298
 30
0.0
 10
250.427465
 20
175.316847
 30
0.0
  0
SPLINE
  5
159
100
AcDbEntity
  8
Layer_1
 62
7
100
AcDbSpline
 70
8
 71
3
 72
8
 73
4
 74
0
 40
0
 40
0
 40
0
 40
0
 40
1
 40
1
 40
1
 40
1
 10
250.427465
 20
175.316847
 30
0.0
 10
246.838470
 20
180.792768
 30
0.0
 10
241.505486
 20
184.971477
 30
0.0
 10
235.593862
 20
186.939858
 30
0.0
  0
SPLINE
  5
15a
100
AcDbEntity
  8
Layer_1
 62
7
100
AcDbSpline
 70
8
 71
3
 72
8
 73
4
 74
0
 40
0
 40
0
 40
0
 40
0
 40
1
 40
1
 40
1
 40
1
 10
235.593862
 20
186.939858
 30
0.0
 10
230.062309
 20
188.781694
 30
0.0
 10
223.659268
 20
188.899528
 30
0.0
 10
218.668529
 20
187.251333
 30
0.0
  0
SPLINE
  5
15b
100
AcDbEntity
  8
Layer_1
 62
7
100
AcDbSpline
 70
8
 71
3
 72
8
 73
4
 74
0
 40
0
 40
0
 40
0
 40
0
 40
1
 40
1
 40
1
 40
1
 10
218.668529
 20
187.251333
 30
0.0
 10
210.770360
 20
184.642965
 30
0.0
 10
203.165693
 20
178.272983
 30
0.0
 10
197.243505
 20
169.304844
 30
0.0
  0
SPLINE
  5
15c
100
AcDbEntity
  8
Layer_1
 62
7
100
AcDbSpline
 70
8
 71
3
 72
8
 73
4
 74
0
 40
0
 40
0
 40
0
 40
0
 40
1
 40
1
 40
1
 40
1
 10
197.243505
 20
169.304844
 30
0.0
 10
194.594520
 20
165.293411
 30
0.0
 10
192.339818
 20
160.781578
 30
0.0
 10
190.711562
 20
156.233922
 30
0.0
  0
SPLINE
  5
15d
100
AcDbEntity
  8
Layer_1
 62
7
100
AcDbSpline
 70
8
 71
3
 72
8
 73
4
 74
0
 40
0
 40
0
 40
0
 40
0
 40
1
 40
1
 40
1
 40
1
 10
190.711562
 20
156.233922
 30
0.0
 10
190.498854
 20
155.639831
 30
0.0
 10
189.986785
 20
154.262620
 30
0.0
 10
189.573634
 20
153.173454
 30
0.0
  0
SPLINE
  5
15e
100
AcDbEntity
  8
Layer_1
 62
7
100
AcDbSpline
 70
8
 71
3
 72
8
 73
4
 74
0
 40
0
 40
0
 40
0
 40
0
 40
1
 40
1
 40
1
 40
1
 10
189.573634
 20
153.173454
 30
0.0
 10
189.160469
 20
152.084288
 30
0.0
 10
188.540706
 20
150.329018
 30
0.0
 10
188.196387
 20
149.272855
 30
0.0
  0
SPLINE
  5
15f
100
AcDbEntity
  8
Layer_1
 62
7
100
AcDbSpline
 70
8
 71
3
 72
8
 73
4
 74
0
 40
0
 40
0
 40
0
 40
0
 40
1
 40
1
 40
1
 40
1
 10
188.196387
 20
149.272855
 30
0.0
 10
187.403568
 20
146.841045
 30
0.0
 10
187.432061
 20
146.945481
 30
0.0
 10
187.631028
 20
147.200864
 30
0.0
  0
SPLINE
  5
160
100
AcDbEntity
  8
Layer_1
 62
7
100
AcDbSpline
 70
8
 71
3
 72
8
 73
4
 74
0
 40
0
 40
0
 40
0
 40
0
 40
1
 40
1
 40
1
 40
1
 10
187.631028
 20
147.200864
 30
0.0
 10
188.135872
 20
147.848880
 30
0.0
 10
190.476305
 20
150.352225
 30
0.0
 10
191.042214
 20
150.849495
 30
0.0
  0
SPLINE
  5
161
100
AcDbEntity
  8
Layer_1
 62
7
100
AcDbSpline
 70
8
 71
3
 72
8
 73
4
 74
0
 40
0
 40
0
 40
0
 40
0
 40
1
 40
1
 40
1
 40
1
 10
191.042214
 20
150.849495
 30
0.0
 10
193.591152
 20
153.089275
 30
0.0
 10
196.122270
 20
154.188286
 30
0.0
 10
198.030911
 20
153.883982
 30
0.0
  0
SPLINE
  5
162
100
AcDbEntity
  8
Layer_1
 62
7
100
AcDbSpline
 70
8
 71
3
 72
8
 73
4
 74
0
 40
0
 40
0
 40
0
 40
0
 40
1
 40
1
 40
1
 40
1
 10
198.030911
 20
153.883982
 30
0.0
 10
199.572702
 20
153.638164
 30
0.0
 10
201.191523
 20
152.372403
 30
0.0
 10
201.564852
 20
151.120775
 30
0.0
  0
SPLINE
  5
163
100
AcDbEntity
  8
Layer_1
 62
7
100
AcDbSpline
 70
8
 71
3
 72
8
 73
4
 74
0
 40
0
 40
0
 40
0
 40
0
 40
1
 40
1
 40
1
 40
1
 10
201.564852
 20
151.120775
 30
0.0
 10
202.209027
 20
148.961061
 30
0.0
 10
201.680719
 20
146.135464
 30
0.0
 10
200.209508
 20
143.872028
 30
0.0
  0
SPLINE
  5
164
100
AcDbEntity
  8
Layer_1
 62
7
100
AcDbSpline
 70
8
 71
3
 72
8
 73
4
 74
0
 40
0
 40
0
 40
0
 40
0
 40
1
 40
1
 40
1
 40
1
 10
200.209508
 20
143.872028
 30
0.0
 10
199.370662
 20
142.581482
 30
0.0
 10
196.020529
 20
139.295410
 30
0.0
 10
194.070303
 20
137.850238
 30
0.0
  0
SPLINE
  5
165
100
AcDbEntity
  8
Layer_1
 62
7
100
AcDbSpline
 70
8
 71
3
 72
8
 73
4
 74
0
 40
0
 40
0
 40
0
 40
0
 40
1
 40
1
 40
1
 40
1
 10
194.070303
 20
137.850238
 30
0.0
 10
191.570020
 20
135.997457
 30
0.0
 10
189.346499
 20
134.658432
 30
0.0
 10
185.929431
 20
132.947744
 30
0.0
  0
LINE
  5
166
100
AcDbEntity
  8
Layer_1
 62
7
100
AcDbLine
 10
185.929431
 20
132.947744
 30
0.0
 11
183.969505
 21
131.966548
 31
0.0
  0
LINE
  5
167
100
AcDbEntity
  8
Layer_1
 62
7
100
AcDbLine
 10
183.969505
 20
131.966548
 30
0.0
 11
184.609229
 21
131.509289
 31
0.0
  0
SPLINE
  5
168
100
AcDbEntity
  8
Layer_1
 62
7
100
AcDbSpline
 70
8
 71
3
 72
8
 73
4
 74
0
 40
0
 40
0
 40
0
 40
0
 40
1
 40
1
 40
1
 40
1
 10
184.609229
 20
131.509289
 30
0.0
 10
186.339065
 20
130.272839
 30
0.0
 10
187.813408
 20
128.704031
 30
0.0
 10
189.160602
 20
126.666265
 30
0.0
  0
SPLINE
  5
169
100
AcDbEntity
  8
Layer_1
 62
7
100
AcDbSpline
 70
8
 71
3
 72
8
 73
4
 74
0
 40
0
 40
0
 40
0
 40
0
 40
1
 40
1
 40
1
 40
1
 10
189.160602
 20
126.666265
 30
0.0
 10
191.343977
 20
123.363695
 30
0.0
 10
192.946234
 20
119.256543
 30
0.0
 10
195.043182
 20
111.587081
 30
0.0
  0
SPLINE
  5
16a
100
AcDbEntity
  8
Layer_1
 62
7
100
AcDbSpline
 70
8
 71
3
 72
8
 73
4
 74
0
 40
0
 40
0
 40
0
 40
0
 40
1
 40
1
 40
1
 40
1
 10
195.043182
 20
111.587081
 30
0.0
 10
198.008646
 20
100.741114
 30
0.0
 10
199.759127
 20
94.965947
 30
0.0
 10
201.955019
 20
88.783585
 30
0.0
  0
SPLINE
  5
16b
100
AcDbEntity
  8
Layer_1
 62
7
100
AcDbSpline
 70
8
 71
3
 72
8
 73
4
 74
0
 40
0
 40
0
 40
0
 40
0
 40
1
 40
1
 40
1
 40
1
 10
201.955019
 20
88.783585
 30
0.0
 10
203.038953
 20
85.731840
 30
0.0
 10
204.951818
 20
80.912638
 30
0.0
 10
206.050334
 20
78.465964
 30
0.0
  0
SPLINE
  5
16c
100
AcDbEntity
  8
Layer_1
 62
7
100
AcDbSpline
 70
8
 71
3
 72
8
 73
4
 74
0
 40
0
 40
0
 40
0
 40
0
 40
1
 40
1
 40
1
 40
1
 10
206.050334
 20
78.465964
 30
0.0
 10
206.978510
 20
76.398720
 30
0.0
 10
206.586830
 20
76.665942
 30
0.0
 10
209.312640
 20
76.240201
 30
0.0
  0
SPLINE
  5
16d
100
AcDbEntity
  8
Layer_1
 62
7
100
AcDbSpline
 70
8
 71
3
 72
8
 73
4
 74
0
 40
0
 40
0
 40
0
 40
0
 40
1
 40
1
 40
1
 40
1
 10
209.312640
 20
76.240201
 30
0.0
 10
218.170179
 20
74.856756
 30
0.0
 10
227.083044
 20
71.968830
 30
0.0
 10
233.917913
 20
68.267655
 30
0.0
  0
SPLINE
  5
16e
100
AcDbEntity
  8
Layer_1
 62
7
100
AcDbSpline
 70
8
 71
3
 72
8
 73
4
 74
0
 40
0
 40
0
 40
0
 40
0
 40
1
 40
1
 40
1
 40
1
 10
233.917913
 20
68.267655
 30
0.0
 10
238.114140
 20
65.995357
 30
0.0
 10
242.385319
 20
63.094394
 30
0.0
 10
245.002716
 20
60.738937
 30
0.0
  0
SPLINE
  5
16f
100
AcDbEntity
  8
Layer_1
 62
7
100
AcDbSpline
 70
8
 71
3
 72
8
 73
4
 74
0
 40
0
 40
0
 40
0
 40
0
 40
1
 40
1
 40
1
 40
1
 10
245.002716
 20
60.738937
 30
0.0
 10
246.101557
 20
59.750070
 30
0.0
 10
247.827145
 20
57.725658
 30
0.0
 10
248.685623
 20
56.418275
 30
0.0
  0
SPLINE
  5
170
100
AcDbEntity
  8
Layer_1
 62
7
100
AcDbSpline
 70
8
 71
3
 72
8
 73
4
 74
0
 40
0
 40
0
 40
0
 40
0
 40
1
 40
1
 40
1
 40
1
 10
248.685623
 20
56.418275
 30
0.0
 10
250.353099
 20
53.878854
 30
0.0
 10
250.768364
 20
51.223685
 30
0.0
 10
249.822041
 20
49.152120
 30
0.0
  0
SPLINE
  5
171
100
AcDbEntity
  8
Layer_1
 62
7
100
AcDbSpline
 70
8
 71
3
 72
8
 73
4
 74
0
 40
0
 40
0
 40
0
 40
0
 40
1
 40
1
 40
1
 40
1
 10
249.822041
 20
49.152120
 30
0.0
 10
249.355494
 20
48.130837
 30
0.0
 10
248.084380
 20
46.960656
 30
0.0
 10
246.741651
 20
46.316326
 30
0.0
  0
SPLINE
  5
172
100
AcDbEntity
  8
Layer_1
 62
7
100
AcDbSpline
 70
8
 71
3
 72
8
 73
4
 74
0
 40
0
 40
0
 40
0
 40
0
 40
1
 40
1
 40
1
 40
1
 10
246.741651
 20
46.316326
 30
0.0
 10
244.221576
 20
45.107057
 30
0.0
 10
241.383970
 20
44.974940
 30
0.0
 10
236.316780
 20
45.830971
 30
0.0
  0
SPLINE
  5
173
100
AcDbEntity
  8
Layer_1
 62
7
100
AcDbSpline
 70
8
 71
3
 72
8
 73
4
 74
0
 40
0
 40
0
 40
0
 40
0
 40
1
 40
1
 40
1
 40
1
 10
236.316780
 20
45.830971
 30
0.0
 10
231.035719
 20
46.723129
 30
0.0
 10
223.252213
 20
50.141131
 30
0.0
 10
217.982145
 20
53.882334
 30
0.0
  0
SPLINE
  5
174
100
AcDbEntity
  8
Layer_1
 62
7
100
AcDbSpline
 70
8
 71
3
 72
8
 73
4
 74
0
 40
0
 40
0
 40
0
 40
0
 40
1
 40
1
 40
1
 40
1
 10
217.982145
 20
53.882334
 30
0.0
 10
214.016615
 20
56.697435
 30
0.0
 10
210.795791
 20
59.861025
 30
0.0
 10
207.769875
 20
63.913098
 30
0.0
  0
SPLINE
  5
175
100
AcDbEntity
  8
Layer_1
 62
7
100
AcDbSpline
 70
8
 71
3
 72
8
 73
4
 74
0
 40
0
 40
0
 40
0
 40
0
 40
1
 40
1
 40
1
 40
1
 10
207.769875
 20
63.913098
 30
0.0
 10
205.527583
 20
66.915816
 30
0.0
 10
204.416019
 20
68.612107
 30
0.0
 10
202.472564
 20
71.996950
 30
0.0
  0
LINE
  5
176
100
AcDbEntity
  8
Layer_1
 62
7
100
AcDbLine
 10
202.472564
 20
71.996950
 30
0.0
 11
200.878480
 21
74.773314
 31
0.0
  0
LINE
  5
177
100
AcDbEntity
  8
Layer_1
 62
7
100
AcDbLine
 10
200.878480
 20
74.773314
 30
0.0
 11
199.964779
 21
74.849500
 31
0.0
  0
SPLINE
  5
178
100
AcDbEntity
  8
Layer_1
 62
7
100
AcDbSpline
 70
8
 71
3
 72
8
 73
4
 74
0
 40
0
 40
0
 40
0
 40
0
 40
1
 40
1
 40
1
 40
1
 10
199.964779
 20
74.849500
 30
0.0
 10
199.462238
 20
74.891402
 30
0.0
 10
197.511831
 20
74.980542
 30
0.0
 10
195.630540
 20
75.047589
 30
0.0
  0
SPLINE
  5
179
100
AcDbEntity
  8
Layer_1
 62
7
100
AcDbSpline
 70
8
 71
3
 72
8
 73
4
 74
0
 40
0
 40
0
 40
0
 40
0
 40
1
 40
1
 40
1
 40
1
 10
195.630540
 20
75.047589
 30
0.0
 10
183.614241
 20
75.475833
 30
0.0
 10
171.285961
 20
73.896571
 30
0.0
 10
160.105096
 20
70.496756
 30
0.0
  0
SPLINE
  5
17a
100
AcDbEntity
  8
Layer_1
 62
7
100
AcDbSpline
 70
8
 71
3
 72
8
 73
4
 74
0
 40
0
 40
0
 40
0
 40
0
 40
1
 40
1
 40
1
 40
1
 10
160.105096
 20
70.496756
 30
0.0
 10
153.444626
 20
68.471470
 30
0.0
 10
146.222531
 20
65.367638
 30
0.0
 10
141.502243
 20
62.501801
 30
0.0
  0
SPLINE
  5
17b
100
AcDbEntity
  8
Layer_1
 62
7
100
AcDbSpline
 70
8
 71
3
 72
8
 73
4
 74
0
 40
0
 40
0
 40
0
 40
0
 40
1
 40
1
 40
1
 40
1
 10
141.502243
 20
62.501801
 30
0.0
 10
128.198143
 20
54.424491
 30
0.0
 10
118.711359
 20
43.749289
 30
0.0
 10
115.474880
 20
33.213942
 30
0.0
  0
SPLINE
  5
17c
100
AcDbEntity
  8
Layer_1
 62
7
100
AcDbSpline
 70
8
 71
3
 72
8
 73
4
 74
0
 40
0
 40
0
 40
0
 40
0
 40
1
 40
1
 40
1
 40
1
 10
115.474880
 20
33.213942
 30
0.0
 10
114.421618
 20
29.785365
 30
0.0
 10
114.239937
 20
24.624861
 30
0.0
 10
115.035482
 20
20.733158
 30
0.0
  0
SPLINE
  5
17d
100
AcDbEntity
  8
Layer_1
 62
7
100
AcDbSpline
 70
8
 71
3
 72
8
 73
4
 74
0
 40
0
 40
0
 40
0
 40
0
 40
1
 40
1
 40
1
 40
1
 10
115.035482
 20
20.733158
 30
0.0
 10
115.895363
 20
16.526757
 30
0.0
 10
117.929206
 20
12.716398
 30
0.0
 10
120.704762
 20
10.111882
 30
0.0
  0
SPLINE
  5
17e
100
AcDbEntity
  8
Layer_1
 62
7
100
AcDbSpline
 70
8
 71
3
 72
8
 73
4
 74
0
 40
0
 40
0
 40
0
 40
0
 40
1
 40
1
 40
1
 40
1
 10
120.704762
 20
10.111882
 30
0.0
 10
123.835685
 20
7.173949
 30
0.0
 10
128.770727
 20
4.818268
 30
0.0
 10
134.121110
 20
3.707780
 30
0.0
  0
SPLINE
  5
17f
100
AcDbEntity
  8
Layer_1
 62
7
100
AcDbSpline
 70
8
 71
3
 72
8
 73
4
 74
0
 40
0
 40
0
 40
0
 40
0
 40
1
 40
1
 40
1
 40
1
 10
134.121110
 20
3.707780
 30
0.0
 10
139.523416
 20
2.586512
 30
0.0
 10
144.851704
 20
2.449916
 30
0.0
 10
150.683651
 20
3.283149
 30
0.0
  0
SPLINE
  5
180
100
AcDbEntity
  8
Layer_1
 62
7
100
AcDbSpline
 70
8
 71
3
 72
8
 73
4
 74
0
 40
0
 40
0
 40
0
 40
0
 40
1
 40
1
 40
1
 40
1
 10
150.683651
 20
3.283149
 30
0.0
 10
159.469548
 20
4.538445
 30
0.0
 10
167.952979
 20
7.692137
 30
0.0
 10
178.047845
 20
13.455680
 30
0.0
  0
SPLINE
  5
181
100
AcDbEntity
  8
Layer_1
 62
7
100
AcDbSpline
 70
8
 71
3
 72
8
 73
4
 74
0
 40
0
 40
0
 40
0
 40
0
 40
1
 40
1
 40
1
 40
1
 10
178.047845
 20
13.455680
 30
0.0
 10
182.861568
 20
16.204039
 30
0.0
 10
189.665062
 20
22.316416
 30
0.0
 10
193.361965
 20
27.214151
 30
0.0
  0
SPLINE
  5
182
100
AcDbEntity
  8
Layer_1
 62
7
100
AcDbSpline
 70
8
 71
3
 72
8
 73
4
 74
0
 40
0
 40
0
 40
0
 40
0
 40
1
 40
1
 40
1
 40
1
 10
193.361965
 20
27.214151
 30
0.0
 10
197.678105
 20
32.932270
 30
0.0
 10
200.000904
 20
38.591209
 30
0.0
 10
200.561547
 20
44.754118
 30
0.0
  0
SPLINE
  5
183
100
AcDbEntity
  8
Layer_1
 62
7
100
AcDbSpline
 70
8
 71
3
 72
8
 73
4
 74
0
 40
0
 40
0
 40
0
 40
0
 40
1
 40
1
 40
1
 40
1
 10
200.561547
 20
44.754118
 30
0.0
 10
201.070676
 20
50.350912
 30
0.0
 10
198.909505
 20
55.634327
 30
0.0
 10
194.893051
 20
58.611850
 30
0.0
  0
SPLINE
  5
184
100
AcDbEntity
  8
Layer_1
 62
7
100
AcDbSpline
 70
8
 71
3
 72
8
 73
4
 74
0
 40
0
 40
0
 40
0
 40
0
 40
1
 40
1
 40
1
 40
1
 10
194.893051
 20
58.611850
 30
0.0
 10
194.440536
 20
58.947303
 30
0.0
 10
194.071130
 20
59.311174
 30
0.0
 10
194.072137
 20
59.420451
 30
0.0
  0
SPLINE
  5
185
100
AcDbEntity
  8
Layer_1
 62
7
100
AcDbSpline
 70
8
 71
3
 72
8
 73
4
 74
0
 40
0
 40
0
 40
0
 40
0
 40
1
 40
1
 40
1
 40
1
 10
194.072137
 20
59.420451
 30
0.0
 10
194.077528
 20
60.000042
 30
0.0
 10
194.607468
 20
60.170626
 30
0.0
 10
196.403555
 20
60.170854
 30
0.0
  0
SPLINE
  5
186
100
AcDbEntity
  8
Layer_1
 62
7
100
AcDbSpline
 70
8
 71
3
 72
8
 73
4
 74
0
 40
0
 40
0
 40
0
 40
0
 40
1
 40
1
 40
1
 40
1
 10
196.403555
 20
60.170854
 30
0.0
 10
198.612938
 20
60.170854
 30
0.0
 10
200.261691
 20
59.736325
 30
0.0
 10
201.968918
 20
58.703220
 30
0.0
  0
SPLINE
  5
187
100
AcDbEntity
  8
Layer_1
 62
7
100
AcDbSpline
 70
8
 71
3
 72
8
 73
4
 74
0
 40
0
 40
0
 40
0
 40
0
 40
1
 40
1
 40
1
 40
1
 10
201.968918
 20
58.703220
 30
0.0
 10
203.663242
 20
57.677915
 30
0.0
 10
204.781260
 20
56.429471
 30
0.0
 10
205.662880
 20
54.578344
 30
0.0
  0
SPLINE
  5
188
100
AcDbEntity
  8
Layer_1
 62
7
100
AcDbSpline
 70
8
 71
3
 72
8
 73
4
 74
0
 40
0
 40
0
 40
0
 40
0
 40
1
 40
1
 40
1
 40
1
 10
205.662880
 20
54.578344
 30
0.0
 10
208.324600
 20
48.989543
 30
0.0
 10
207.397373
 20
41.577182
 30
0.0
 10
203.080072
 20
33.931029
 30
0.0
  0
SPLINE
  5
189
100
AcDbEntity
  8
Layer_1
 62
7
100
AcDbSpline
 70
8
 71
3
 72
8
 73
4
 74
0
 40
0
 40
0
 40
0
 40
0
 40
1
 40
1
 40
1
 40
1
 10
203.080072
 20
33.931029
 30
0.0
 10
197.033566
 20
23.222327
 30
0.0
 10
188.778411
 20
16.472892
 30
0.0
 10
170.606593
 20
7.380592
 30
0.0
  0
SPLINE
  5
18a
100
AcDbEntity
  8
Layer_1
 62
7
100
AcDbSpline
 70
8
 71
3
 72
8
 73
4
 74
0
 40
0
 40
0
 40
0
 40
0
 40
1
 40
1
 40
1
 40
1
 10
170.606593
 20
7.380592
 30
0.0
 10
163.732275
 20
3.941009
 30
0.0
 10
155.886709
 20
1.730701
 30
0.0
 10
147.923236
 20
0.990065
 30
0.0
  0
SPLINE
  5
18b
100
AcDbEntity
  8
Layer_1
 62
7
100
AcDbSpline
 70
8
 71
3
 72
8
 73
4
 74
0
 40
0
 40
0
 40
0
 40
0
 40
1
 40
1
 40
1
 40
1
 10
147.923236
 20
0.990065
 30
0.0
 10
146.519152
 20
0.859481
 30
0.0
 10
141.526664
 20
0.746451
 30
0.0
 10
140.422085
 20
0.820252
 30
0.0
  0
LINE
  5
18c
100
AcDbEntity
  8
Layer_1
 62
7
100
AcDbLine
 10
140.422085
 20
0.820252
 30
0.0
 11
140.422085
 21
0.820252
 31
0.0
  0
LINE
  5
18d
100
AcDbEntity
  8
Layer_1
 62
7
100
AcDbLine
 10
149.183423
 20
1.466710
 30
0.0
 11
149.183429
 21
1.466710
 31
0.0
  0
LINE
  5
18e
100
AcDbEntity
  8
Layer_1
 62
7
100
AcDbLine
 10
239.257239
 20
46.913237
 30
0.0
 11
239.257239
 21
46.913237
 31
0.0
  0
SPLINE
  5
18f
100
AcDbEntity
  8
Layer_1
 62
7
100
AcDbSpline
 70
8
 71
3
 72
8
 73
4
 74
0
 40
0
 40
0
 40
0
 40
0
 40
1
 40
1
 40
1
 40
1
 10
242.634316
 20
47.371515
 30
0.0
 10
244.614020
 20
47.632616
 30
0.0
 10
245.615683
 20
48.040545
 30
0.0
 10
246.313494
 20
48.869850
 30
0.0
  0
SPLINE
  5
190
100
AcDbEntity
  8
Layer_1
 62
7
100
AcDbSpline
 70
8
 71
3
 72
8
 73
4
 74
0
 40
0
 40
0
 40
0
 40
0
 40
1
 40
1
 40
1
 40
1
 10
246.313494
 20
48.869850
 30
0.0
 10
247.163751
 20
49.880332
 30
0.0
 10
246.889222
 20
52.658553
 30
0.0
 10
245.752586
 20
54.546106
 30
0.0
  0
SPLINE
  5
191
100
AcDbEntity
  8
Layer_1
 62
7
100
AcDbSpline
 70
8
 71
3
 72
8
 73
4
 74
0
 40
0
 40
0
 40
0
 40
0
 40
1
 40
1
 40
1
 40
1
 10
245.752586
 20
54.546106
 30
0.0
 10
244.038941
 20
57.391888
 30
0.0
 10
240.675606
 20
60.790496
 30
0.0
 10
237.036898
 20
63.353201
 30
0.0
  0
SPLINE
  5
192
100
AcDbEntity
  8
Layer_1
 62
7
100
AcDbSpline
 70
8
 71
3
 72
8
 73
4
 74
0
 40
0
 40
0
 40
0
 40
0
 40
1
 40
1
 40
1
 40
1
 10
237.036898
 20
63.353201
 30
0.0
 10
234.400096
 20
65.210282
 30
0.0
 10
231.139613
 20
67.067073
 30
0.0
 10
228.585082
 20
68.166382
 30
0.0
  0
SPLINE
  5
193
100
AcDbEntity
  8
Layer_1
 62
7
100
AcDbSpline
 70
8
 71
3
 72
8
 73
4
 74
0
 40
0
 40
0
 40
0
 40
0
 40
1
 40
1
 40
1
 40
1
 10
228.585082
 20
68.166382
 30
0.0
 10
222.099073
 20
70.957554
 30
0.0
 10
216.798088
 20
72.697937
 30
0.0
 10
211.653007
 20
73.725392
 30
0.0
  0
SPLINE
  5
194
100
AcDbEntity
  8
Layer_1
 62
7
100
AcDbSpline
 70
8
 71
3
 72
8
 73
4
 74
0
 40
0
 40
0
 40
0
 40
0
 40
1
 40
1
 40
1
 40
1
 10
211.653007
 20
73.725392
 30
0.0
 10
210.189826
 20
74.017585
 30
0.0
 10
208.313003
 20
74.313301
 30
0.0
 10
208.255238
 20
74.260751
 30
0.0
  0
SPLINE
  5
195
100
AcDbEntity
  8
Layer_1
 62
7
100
AcDbSpline
 70
8
 71
3
 72
8
 73
4
 74
0
 40
0
 40
0
 40
0
 40
0
 40
1
 40
1
 40
1
 40
1
 10
208.255238
 20
74.260751
 30
0.0
 10
208.234748
 20
74.242096
 30
0.0
 10
208.569769
 20
73.524839
 30
0.0
 10
208.999723
 20
72.666816
 30
0.0
  0
SPLINE
  5
196
100
AcDbEntity
  8
Layer_1
 62
7
100
AcDbSpline
 70
8
 71
3
 72
8
 73
4
 74
0
 40
0
 40
0
 40
0
 40
0
 40
1
 40
1
 40
1
 40
1
 10
208.999723
 20
72.666816
 30
0.0
 10
211.077302
 20
68.520797
 30
0.0
 10
213.616173
 20
64.600324
 30
0.0
 10
216.633242
 20
60.879308
 30
0.0
  0
SPLINE
  5
197
100
AcDbEntity
  8
Layer_1
 62
7
100
AcDbSpline
 70
8
 71
3
 72
8
 73
4
 74
0
 40
0
 40
0
 40
0
 40
0
 40
1
 40
1
 40
1
 40
1
 10
216.633242
 20
60.879308
 30
0.0
 10
218.048222
 20
59.134182
 30
0.0
 10
221.824206
 20
55.359688
 30
0.0
 10
223.474819
 20
54.040435
 30
0.0
  0
SPLINE
  5
198
100
AcDbEntity
  8
Layer_1
 62
7
100
AcDbSpline
 70
8
 71
3
 72
8
 73
4
 74
0
 40
0
 40
0
 40
0
 40
0
 40
1
 40
1
 40
1
 40
1
 10
223.474819
 20
54.040435
 30
0.0
 10
227.311664
 20
50.973819
 30
0.0
 10
232.209614
 20
48.521700
 30
0.0
 10
236.076752
 20
47.731365
 30
0.0
  0
SPLINE
  5
199
100
AcDbEntity
  8
Layer_1
 62
7
100
AcDbSpline
 70
8
 71
3
 72
8
 73
4
 74
0
 40
0
 40
0
 40
0
 40
0
 40
1
 40
1
 40
1
 40
1
 10
236.076752
 20
47.731365
 30
0.0
 10
238.667756
 20
47.201835
 30
0.0
 10
240.560386
 20
47.097968
 30
0.0
 10
242.634316
 20
47.371515
 30
0.0
  0
LINE
  5
19a
100
AcDbEntity
  8
Layer_1
 62
7
100
AcDbLine
 10
242.634316
 20
47.371515
 30
0.0
 11
242.634316
 21
47.371515
 31
0.0
  0
LINE
  5
19b
100
AcDbEntity
  8
Layer_1
 62
7
100
AcDbLine
 10
182.837080
 20
132.937057
 30
0.0
 11
182.837080
 21
132.937057
 31
0.0
  0
SPLINE
  5
19c
100
AcDbEntity
  8
Layer_1
 62
7
100
AcDbSpline
 70
8
 71
3
 72
8
 73
4
 74
0
 40
0
 40
0
 40
0
 40
0
 40
1
 40
1
 40
1
 40
1
 10
185.549004
 20
135.035204
 30
0.0
 10
187.788510
 20
136.804294
 30
0.0
 10
190.078428
 20
139.303677
 30
0.0
 10
191.758601
 20
141.812818
 30
0.0
  0
SPLINE
  5
19d
100
AcDbEntity
  8
Layer_1
 62
7
100
AcDbSpline
 70
8
 71
3
 72
8
 73
4
 74
0
 40
0
 40
0
 40
0
 40
0
 40
1
 40
1
 40
1
 40
1
 10
191.758601
 20
141.812818
 30
0.0
 10
193.012074
 20
143.684731
 30
0.0
 10
193.943475
 20
146.487875
 30
0.0
 10
193.770913
 20
147.869053
 30
0.0
  0
SPLINE
  5
19e
100
AcDbEntity
  8
Layer_1
 62
7
100
AcDbSpline
 70
8
 71
3
 72
8
 73
4
 74
0
 40
0
 40
0
 40
0
 40
0
 40
1
 40
1
 40
1
 40
1
 10
193.770913
 20
147.869053
 30
0.0
 10
193.626712
 20
149.023164
 30
0.0
 10
192.733439
 20
149.563970
 30
0.0
 10
191.899515
 20
149.002023
 30
0.0
  0
SPLINE
  5
19f
100
AcDbEntity
  8
Layer_1
 62
7
100
AcDbSpline
 70
8
 71
3
 72
8
 73
4
 74
0
 40
0
 40
0
 40
0
 40
0
 40
1
 40
1
 40
1
 40
1
 10
191.899515
 20
149.002023
 30
0.0
 10
191.509105
 20
148.738944
 30
0.0
 10
189.643337
 20
147.042091
 30
0.0
 10
188.990436
 20
146.356328
 30
0.0
  0
SPLINE
  5
1a0
100
AcDbEntity
  8
Layer_1
 62
7
100
AcDbSpline
 70
8
 71
3
 72
8
 73
4
 74
0
 40
0
 40
0
 40
0
 40
0
 40
1
 40
1
 40
1
 40
1
 10
188.990436
 20
146.356328
 30
0.0
 10
187.160670
 20
144.434451
 30
0.0
 10
185.831827
 20
141.745748
 30
0.0
 10
184.411194
 20
137.090990
 30
0.0
  0
SPLINE
  5
1a1
100
AcDbEntity
  8
Layer_1
 62
7
100
AcDbSpline
 70
8
 71
3
 72
8
 73
4
 74
0
 40
0
 40
0
 40
0
 40
0
 40
1
 40
1
 40
1
 40
1
 10
184.411194
 20
137.090990
 30
0.0
 10
184.038477
 20
135.869803
 30
0.0
 10
183.609818
 20
134.507279
 30
0.0
 10
183.458609
 20
134.063163
 30
0.0
  0
LINE
  5
1a2
100
AcDbEntity
  8
Layer_1
 62
7
100
AcDbLine
 10
183.458609
 20
134.063163
 30
0.0
 11
183.183671
 21
133.255674
 31
0.0
  0
LINE
  5
1a3
100
AcDbEntity
  8
Layer_1
 62
7
100
AcDbLine
 10
183.183671
 20
133.255674
 30
0.0
 11
183.796257
 21
133.695103
 31
0.0
  0
SPLINE
  5
1a4
100
AcDbEntity
  8
Layer_1
 62
7
100
AcDbSpline
 70
8
 71
3
 72
8
 73
4
 74
0
 40
0
 40
0
 40
0
 40
0
 40
1
 40
1
 40
1
 40
1
 10
183.796257
 20
133.695103
 30
0.0
 10
184.133171
 20
133.936786
 30
0.0
 10
184.921909
 20
134.539833
 30
0.0
 10
185.549004
 20
135.035204
 30
0.0
  0
LINE
  5
1a5
100
AcDbEntity
  8
Layer_1
 62
7
100
AcDbLine
 10
185.549004
 20
135.035204
 30
0.0
 11
185.549004
 21
135.035204
 31
0.0
  0
SPLINE
  5
1a6
100
AcDbEntity
  8
Layer_1
 62
7
100
AcDbSpline
 70
8
 71
3
 72
8
 73
4
 74
0
 40
0
 40
0
 40
0
 40
0
 40
1
 40
1
 40
1
 40
1
 10
51.668477
 20
10.063143
 30
0.0
 10
42.573578
 20
10.755264
 30
0.0
 10
35.840964
 20
13.005620
 30
0.0
 10
28.833818
 20
17.695591
 30
0.0
  0
SPLINE
  5
1a7
100
AcDbEntity
  8
Layer_1
 62
7
100
AcDbSpline
 70
8
 71
3
 72
8
 73
4
 74
0
 40
0
 40
0
 40
0
 40
0
 40
1
 40
1
 40
1
 40
1
 10
28.833818
 20
17.695591
 30
0.0
 10
24.609362
 20
20.523066
 30
0.0
 10
20.604941
 20
24.249012
 30
0.0
 10
17.507446
 20
28.234305
 30
0.0
  0
SPLINE
  5
1a8
100
AcDbEntity
  8
Layer_1
 62
7
100
AcDbSpline
 70
8
 71
3
 72
8
 73
4
 74
0
 40
0
 40
0
 40
0
 40
0
 40
1
 40
1
 40
1
 40
1
 10
17.507446
 20
28.234305
 30
0.0
 10
10.826983
 20
36.829533
 30
0.0
 10
7.487581
 20
47.367375
 30
0.0
 10
8.455514
 20
56.798685
 30
0.0
  0
SPLINE
  5
1a9
100
AcDbEntity
  8
Layer_1
 62
7
100
AcDbSpline
 70
8
 71
3
 72
8
 73
4
 74
0
 40
0
 40
0
 40
0
 40
0
 40
1
 40
1
 40
1
 40
1
 10
8.455514
 20
56.798685
 30
0.0
 10
9.336574
 20
65.383541
 30
0.0
 10
12.446579
 20
73.237588
 30
0.0
 10
17.741257
 20
80.249044
 30
0.0
  0
SPLINE
  5
1aa
100
AcDbEntity
  8
Layer_1
 62
7
100
AcDbSpline
 70
8
 71
3
 72
8
 73
4
 74
0
 40
0
 40
0
 40
0
 40
0
 40
1
 40
1
 40
1
 40
1
 10
17.741257
 20
80.249044
 30
0.0
 10
20.903049
 20
84.436033
 30
0.0
 10
25.375271
 20
88.598430
 30
0.0
 10
29.827353
 20
91.497834
 30
0.0
  0
LINE
  5
1ab
100
AcDbEntity
  8
Layer_1
 62
7
100
AcDbLine
 10
29.827353
 20
91.497834
 30
0.0
 11
30.961082
 21
92.236173
 31
0.0
  0
LINE
  5
1ac
100
AcDbEntity
  8
Layer_1
 62
7
100
AcDbLine
 10
30.961082
 20
92.236173
 30
0.0
 11
30.007738
 21
93.243317
 31
0.0
  0
SPLINE
  5
1ad
100
AcDbEntity
  8
Layer_1
 62
7
100
AcDbSpline
 70
8
 71
3
 72
8
 73
4
 74
0
 40
0
 40
0
 40
0
 40
0
 40
1
 40
1
 40
1
 40
1
 10
30.007738
 20
93.243317
 30
0.0
 10
26.936510
 20
96.487856
 30
0.0
 10
25.149060
 20
100.135872
 30
0.0
 10
24.599513
 20
104.280971
 30
0.0
  0
SPLINE
  5
1ae
100
AcDbEntity
  8
Layer_1
 62
7
100
AcDbSpline
 70
8
 71
3
 72
8
 73
4
 74
0
 40
0
 40
0
 40
0
 40
0
 40
1
 40
1
 40
1
 40
1
 10
24.599513
 20
104.280971
 30
0.0
 10
24.418208
 20
105.648521
 30
0.0
 10
24.506030
 20
108.689435
 30
0.0
 10
24.767500
 20
110.097679
 30
0.0
  0
SPLINE
  5
1af
100
AcDbEntity
  8
Layer_1
 62
7
100
AcDbSpline
 70
8
 71
3
 72
8
 73
4
 74
0
 40
0
 40
0
 40
0
 40
0
 40
1
 40
1
 40
1
 40
1
 10
24.767500
 20
110.097679
 30
0.0
 10
25.692388
 20
115.078997
 30
0.0
 10
29.031065
 20
119.568540
 30
0.0
 10
33.339800
 20
121.624910
 30
0.0
  0
SPLINE
  5
1b0
100
AcDbEntity
  8
Layer_1
 62
7
100
AcDbSpline
 70
8
 71
3
 72
8
 73
4
 74
0
 40
0
 40
0
 40
0
 40
0
 40
1
 40
1
 40
1
 40
1
 10
33.339800
 20
121.624910
 30
0.0
 10
34.286983
 20
122.076959
 30
0.0
 10
34.515606
 20
122.146095
 30
0.0
 10
36.250344
 20
122.505082
 30
0.0
  0
SPLINE
  5
1b1
100
AcDbEntity
  8
Layer_1
 62
7
100
AcDbSpline
 70
8
 71
3
 72
8
 73
4
 74
0
 40
0
 40
0
 40
0
 40
0
 40
1
 40
1
 40
1
 40
1
 10
36.250344
 20
122.505082
 30
0.0
 10
40.800539
 20
123.446699
 30
0.0
 10
44.161498
 20
122.982864
 30
0.0
 10
46.233131
 20
121.127380
 30
0.0
  0
SPLINE
  5
1b2
100
AcDbEntity
  8
Layer_1
 62
7
100
AcDbSpline
 70
8
 71
3
 72
8
 73
4
 74
0
 40
0
 40
0
 40
0
 40
0
 40
1
 40
1
 40
1
 40
1
 10
46.233131
 20
121.127380
 30
0.0
 10
46.819439
 20
120.602247
 30
0.0
 10
46.856848
 20
120.536658
 30
0.0
 10
46.746606
 20
120.227097
 30
0.0
  0
SPLINE
  5
1b3
100
AcDbEntity
  8
Layer_1
 62
7
100
AcDbSpline
 70
8
 71
3
 72
8
 73
4
 74
0
 40
0
 40
0
 40
0
 40
0
 40
1
 40
1
 40
1
 40
1
 10
46.746606
 20
120.227097
 30
0.0
 10
46.550622
 20
119.676764
 30
0.0
 10
46.272109
 20
119.584246
 30
0.0
 10
45.881956
 20
119.939871
 30
0.0
  0
SPLINE
  5
1b4
100
AcDbEntity
  8
Layer_1
 62
7
100
AcDbSpline
 70
8
 71
3
 72
8
 73
4
 74
0
 40
0
 40
0
 40
0
 40
0
 40
1
 40
1
 40
1
 40
1
 10
45.881956
 20
119.939871
 30
0.0
 10
44.947549
 20
120.791589
 30
0.0
 10
43.847148
 20
121.166688
 30
0.0
 10
42.247033
 20
121.178920
 30
0.0
  0
SPLINE
  5
1b5
100
AcDbEntity
  8
Layer_1
 62
7
100
AcDbSpline
 70
8
 71
3
 72
8
 73
4
 74
0
 40
0
 40
0
 40
0
 40
0
 40
1
 40
1
 40
1
 40
1
 10
42.247033
 20
121.178920
 30
0.0
 10
41.160756
 20
121.187217
 30
0.0
 10
40.846050
 20
121.141012
 30
0.0
 10
39.966683
 20
120.844071
 30
0.0
  0
SPLINE
  5
1b6
100
AcDbEntity
  8
Layer_1
 62
7
100
AcDbSpline
 70
8
 71
3
 72
8
 73
4
 74
0
 40
0
 40
0
 40
0
 40
0
 40
1
 40
1
 40
1
 40
1
 10
39.966683
 20
120.844071
 30
0.0
 10
37.977445
 20
120.172354
 30
0.0
 10
36.505834
 20
119.228530
 30
0.0
 10
35.050465
 20
117.691034
 30
0.0
  0
SPLINE
  5
1b7
100
AcDbEntity
  8
Layer_1
 62
7
100
AcDbSpline
 70
8
 71
3
 72
8
 73
4
 74
0
 40
0
 40
0
 40
0
 40
0
 40
1
 40
1
 40
1
 40
1
 10
35.050465
 20
117.691034
 30
0.0
 10
32.453140
 20
114.947140
 30
0.0
 10
31.117184
 20
111.751848
 30
0.0
 10
30.717270
 20
107.327047
 30
0.0
  0
SPLINE
  5
1b8
100
AcDbEntity
  8
Layer_1
 62
7
100
AcDbSpline
 70
8
 71
3
 72
8
 73
4
 74
0
 40
0
 40
0
 40
0
 40
0
 40
1
 40
1
 40
1
 40
1
 10
30.717270
 20
107.327047
 30
0.0
 10
30.373820
 20
103.526995
 30
0.0
 10
30.919829
 20
100.238237
 30
0.0
 10
32.401104
 20
97.184875
 30
0.0
  0
SPLINE
  5
1b9
100
AcDbEntity
  8
Layer_1
 62
7
100
AcDbSpline
 70
8
 71
3
 72
8
 73
4
 74
0
 40
0
 40
0
 40
0
 40
0
 40
1
 40
1
 40
1
 40
1
 10
32.401104
 20
97.184875
 30
0.0
 10
33.029553
 20
95.889441
 30
0.0
 10
34.131735
 20
94.124403
 30
0.0
 10
34.312217
 20
94.124403
 30
0.0
  0
SPLINE
  5
1ba
100
AcDbEntity
  8
Layer_1
 62
7
100
AcDbSpline
 70
8
 71
3
 72
8
 73
4
 74
0
 40
0
 40
0
 40
0
 40
0
 40
1
 40
1
 40
1
 40
1
 10
34.312217
 20
94.124403
 30
0.0
 10
34.373411
 20
94.124403
 30
0.0
 10
35.225132
 20
94.469203
 30
0.0
 10
36.204931
 20
94.890625
 30
0.0
  0
SPLINE
  5
1bb
100
AcDbEntity
  8
Layer_1
 62
7
100
AcDbSpline
 70
8
 71
3
 72
8
 73
4
 74
0
 40
0
 40
0
 40
0
 40
0
 40
1
 40
1
 40
1
 40
1
 10
36.204931
 20
94.890625
 30
0.0
 10
38.528732
 20
95.890115
 30
0.0
 10
39.773008
 20
96.323380
 30
0.0
 10
41.233677
 20
96.641667
 30
0.0
  0
SPLINE
  5
1bc
100
AcDbEntity
  8
Layer_1
 62
7
100
AcDbSpline
 70
8
 71
3
 72
8
 73
4
 74
0
 40
0
 40
0
 40
0
 40
0
 40
1
 40
1
 40
1
 40
1
 10
41.233677
 20
96.641667
 30
0.0
 10
44.807813
 20
97.420491
 30
0.0
 10
48.308051
 20
97.442250
 30
0.0
 10
50.815040
 20
96.701236
 30
0.0
  0
SPLINE
  5
1bd
100
AcDbEntity
  8
Layer_1
 62
7
100
AcDbSpline
 70
8
 71
3
 72
8
 73
4
 74
0
 40
0
 40
0
 40
0
 40
0
 40
1
 40
1
 40
1
 40
1
 10
50.815040
 20
96.701236
 30
0.0
 10
51.575039
 20
96.476596
 30
0.0
 10
52.111721
 20
96.059008
 30
0.0
 10
52.630527
 20
95.288626
 30
0.0
  0
SPLINE
  5
1be
100
AcDbEntity
  8
Layer_1
 62
7
100
AcDbSpline
 70
8
 71
3
 72
8
 73
4
 74
0
 40
0
 40
0
 40
0
 40
0
 40
1
 40
1
 40
1
 40
1
 10
52.630527
 20
95.288626
 30
0.0
 10
52.992390
 20
94.751292
 30
0.0
 10
53.048690
 20
94.570921
 30
0.0
 10
53.048690
 20
93.948951
 30
0.0
  0
SPLINE
  5
1bf
100
AcDbEntity
  8
Layer_1
 62
7
100
AcDbSpline
 70
8
 71
3
 72
8
 73
4
 74
0
 40
0
 40
0
 40
0
 40
0
 40
1
 40
1
 40
1
 40
1
 10
53.048690
 20
93.948951
 30
0.0
 10
53.048690
 20
93.451876
 30
0.0
 10
52.948654
 20
92.975234
 30
0.0
 10
52.724327
 20
92.403460
 30
0.0
  0
SPLINE
  5
1c0
100
AcDbEntity
  8
Layer_1
 62
7
100
AcDbSpline
 70
8
 71
3
 72
8
 73
4
 74
0
 40
0
 40
0
 40
0
 40
0
 40
1
 40
1
 40
1
 40
1
 10
52.724327
 20
92.403460
 30
0.0
 10
52.215181
 20
91.105737
 30
0.0
 10
51.697007
 20
91.042122
 30
0.0
 10
50.542963
 20
92.135657
 30
0.0
  0
SPLINE
  5
1c1
100
AcDbEntity
  8
Layer_1
 62
7
100
AcDbSpline
 70
8
 71
3
 72
8
 73
4
 74
0
 40
0
 40
0
 40
0
 40
0
 40
1
 40
1
 40
1
 40
1
 10
50.542963
 20
92.135657
 30
0.0
 10
49.331934
 20
93.283192
 30
0.0
 10
47.852025
 20
94.046936
 30
0.0
 10
46.043825
 20
94.457552
 30
0.0
  0
SPLINE
  5
1c2
100
AcDbEntity
  8
Layer_1
 62
7
100
AcDbSpline
 70
8
 71
3
 72
8
 73
4
 74
0
 40
0
 40
0
 40
0
 40
0
 40
1
 40
1
 40
1
 40
1
 10
46.043825
 20
94.457552
 30
0.0
 10
44.711104
 20
94.760193
 30
0.0
 10
41.461713
 20
94.723084
 30
0.0
 10
39.895859
 20
94.387338
 30
0.0
  0
SPLINE
  5
1c3
100
AcDbEntity
  8
Layer_1
 62
7
100
AcDbSpline
 70
8
 71
3
 72
8
 73
4
 74
0
 40
0
 40
0
 40
0
 40
0
 40
1
 40
1
 40
1
 40
1
 10
39.895859
 20
94.387338
 30
0.0
 10
38.743427
 20
94.140239
 30
0.0
 10
36.682053
 20
93.343830
 30
0.0
 10
35.879233
 20
92.835520
 30
0.0
  0
LINE
  5
1c4
100
AcDbEntity
  8
Layer_1
 62
7
100
AcDbLine
 10
35.879233
 20
92.835520
 30
0.0
 11
35.505901
 21
92.599142
 31
0.0
  0
LINE
  5
1c5
100
AcDbEntity
  8
Layer_1
 62
7
100
AcDbLine
 10
35.505901
 20
92.599142
 30
0.0
 11
36.424627
 21
91.771528
 31
0.0
  0
SPLINE
  5
1c6
100
AcDbEntity
  8
Layer_1
 62
7
100
AcDbSpline
 70
8
 71
3
 72
8
 73
4
 74
0
 40
0
 40
0
 40
0
 40
0
 40
1
 40
1
 40
1
 40
1
 10
36.424627
 20
91.771528
 30
0.0
 10
38.283521
 20
90.096996
 30
0.0
 10
40.302166
 20
88.923087
 30
0.0
 10
42.688719
 20
88.128753
 30
0.0
  0
SPLINE
  5
1c7
100
AcDbEntity
  8
Layer_1
 62
7
100
AcDbSpline
 70
8
 71
3
 72
8
 73
4
 74
0
 40
0
 40
0
 40
0
 40
0
 40
1
 40
1
 40
1
 40
1
 10
42.688719
 20
88.128753
 30
0.0
 10
45.048003
 20
87.343495
 30
0.0
 10
46.190326
 20
87.150692
 30
0.0
 10
48.913113
 20
87.078192
 30
0.0
  0
SPLINE
  5
1c8
100
AcDbEntity
  8
Layer_1
 62
7
100
AcDbSpline
 70
8
 71
3
 72
8
 73
4
 74
0
 40
0
 40
0
 40
0
 40
0
 40
1
 40
1
 40
1
 40
1
 10
48.913113
 20
87.078192
 30
0.0
 10
52.185943
 20
86.991045
 30
0.0
 10
54.179922
 20
87.267453
 30
0.0
 10
57.282831
 20
88.238422
 30
0.0
  0
SPLINE
  5
1c9
100
AcDbEntity
  8
Layer_1
 62
7
100
AcDbSpline
 70
8
 71
3
 72
8
 73
4
 74
0
 40
0
 40
0
 40
0
 40
0
 40
1
 40
1
 40
1
 40
1
 10
57.282831
 20
88.238422
 30
0.0
 10
61.174698
 20
89.456270
 30
0.0
 10
63.301877
 20
90.713042
 30
0.0
 10
66.112904
 20
93.455378
 30
0.0
  0
SPLINE
  5
1ca
100
AcDbEntity
  8
Layer_1
 62
7
100
AcDbSpline
 70
8
 71
3
 72
8
 73
4
 74
0
 40
0
 40
0
 40
0
 40
0
 40
1
 40
1
 40
1
 40
1
 10
66.112904
 20
93.455378
 30
0.0
 10
70.634217
 20
97.866215
 30
0.0
 10
74.142321
 20
104.127310
 30
0.0
 10
83.736493
 20
124.909121
 30
0.0
  0
SPLINE
  5
1cb
100
AcDbEntity
  8
Layer_1
 62
7
100
AcDbSpline
 70
8
 71
3
 72
8
 73
4
 74
0
 40
0
 40
0
 40
0
 40
0
 40
1
 40
1
 40
1
 40
1
 10
83.736493
 20
124.909121
 30
0.0
 10
86.479188
 20
130.850032
 30
0.0
 10
88.926966
 20
136.172737
 30
0.0
 10
89.176008
 20
136.737354
 30
0.0
  0
SPLINE
  5
1cc
100
AcDbEntity
  8
Layer_1
 62
7
100
AcDbSpline
 70
8
 71
3
 72
8
 73
4
 74
0
 40
0
 40
0
 40
0
 40
0
 40
1
 40
1
 40
1
 40
1
 10
89.176008
 20
136.737354
 30
0.0
 10
90.873016
 20
140.584776
 30
0.0
 10
92.987114
 20
144.014225
 30
0.0
 10
95.645805
 20
147.232543
 30
0.0
  0
SPLINE
  5
1cd
100
AcDbEntity
  8
Layer_1
 62
7
100
AcDbSpline
 70
8
 71
3
 72
8
 73
4
 74
0
 40
0
 40
0
 40
0
 40
0
 40
1
 40
1
 40
1
 40
1
 10
95.645805
 20
147.232543
 30
0.0
 10
99.351293
 20
151.718000
 30
0.0
 10
104.215802
 20
155.817859
 30
0.0
 10
108.720698
 20
158.252206
 30
0.0
  0
SPLINE
  5
1ce
100
AcDbEntity
  8
Layer_1
 62
7
100
AcDbSpline
 70
8
 71
3
 72
8
 73
4
 74
0
 40
0
 40
0
 40
0
 40
0
 40
1
 40
1
 40
1
 40
1
 10
108.720698
 20
158.252206
 30
0.0
 10
109.328433
 20
158.580612
 30
0.0
 10
109.552997
 20
158.758400
 30
0.0
 10
109.439967
 20
158.821655
 30
0.0
  0
SPLINE
  5
1cf
100
AcDbEntity
  8
Layer_1
 62
7
100
AcDbSpline
 70
8
 71
3
 72
8
 73
4
 74
0
 40
0
 40
0
 40
0
 40
0
 40
1
 40
1
 40
1
 40
1
 10
109.439967
 20
158.821655
 30
0.0
 10
109.215865
 20
158.947069
 30
0.0
 10
103.852898
 20
159.497202
 30
0.0
 10
101.416104
 20
159.644745
 30
0.0
  0
SPLINE
  5
1d0
100
AcDbEntity
  8
Layer_1
 62
7
100
AcDbSpline
 70
8
 71
3
 72
8
 73
4
 74
0
 40
0
 40
0
 40
0
 40
0
 40
1
 40
1
 40
1
 40
1
 10
101.416104
 20
159.644745
 30
0.0
 10
92.553883
 20
160.181325
 30
0.0
 10
85.345953
 20
159.562132
 30
0.0
 10
78.972664
 20
157.716752
 30
0.0
  0
SPLINE
  5
1d1
100
AcDbEntity
  8
Layer_1
 62
7
100
AcDbSpline
 70
8
 71
3
 72
8
 73
4
 74
0
 40
0
 40
0
 40
0
 40
0
 40
1
 40
1
 40
1
 40
1
 10
78.972664
 20
157.716752
 30
0.0
 10
70.940462
 20
155.391032
 30
0.0
 10
63.415441
 20
150.040203
 30
0.0
 10
59.212305
 20
143.665717
 30
0.0
  0
SPLINE
  5
1d2
100
AcDbEntity
  8
Layer_1
 62
7
100
AcDbSpline
 70
8
 71
3
 72
8
 73
4
 74
0
 40
0
 40
0
 40
0
 40
0
 40
1
 40
1
 40
1
 40
1
 10
59.212305
 20
143.665717
 30
0.0
 10
58.362901
 20
142.377508
 30
0.0
 10
57.880445
 20
141.337805
 30
0.0
 10
57.463732
 20
139.897503
 30
0.0
  0
SPLINE
  5
1d3
100
AcDbEntity
  8
Layer_1
 62
7
100
AcDbSpline
 70
8
 71
3
 72
8
 73
4
 74
0
 40
0
 40
0
 40
0
 40
0
 40
1
 40
1
 40
1
 40
1
 10
57.463732
 20
139.897503
 30
0.0
 10
57.230148
 20
139.090153
 30
0.0
 10
57.190502
 20
138.678238
 30
0.0
 10
57.193617
 20
137.090990
 30
0.0
  0
SPLINE
  5
1d4
100
AcDbEntity
  8
Layer_1
 62
7
100
AcDbSpline
 70
8
 71
3
 72
8
 73
4
 74
0
 40
0
 40
0
 40
0
 40
0
 40
1
 40
1
 40
1
 40
1
 10
57.193617
 20
137.090990
 30
0.0
 10
57.196948
 20
135.393276
 30
0.0
 10
57.225650
 20
135.145985
 30
0.0
 10
57.522031
 20
134.261249
 30
0.0
  0
SPLINE
  5
1d5
100
AcDbEntity
  8
Layer_1
 62
7
100
AcDbSpline
 70
8
 71
3
 72
8
 73
4
 74
0
 40
0
 40
0
 40
0
 40
0
 40
1
 40
1
 40
1
 40
1
 10
57.522031
 20
134.261249
 30
0.0
 10
58.330510
 20
131.847837
 30
0.0
 10
60.255410
 20
130.168474
 30
0.0
 10
62.959530
 20
129.517339
 30
0.0
  0
SPLINE
  5
1d6
100
AcDbEntity
  8
Layer_1
 62
7
100
AcDbSpline
 70
8
 71
3
 72
8
 73
4
 74
0
 40
0
 40
0
 40
0
 40
0
 40
1
 40
1
 40
1
 40
1
 10
62.959530
 20
129.517339
 30
0.0
 10
63.957160
 20
129.277114
 30
0.0
 10
64.112425
 20
129.269943
 30
0.0
 10
65.230558
 20
129.412428
 30
0.0
  0
SPLINE
  5
1d7
100
AcDbEntity
  8
Layer_1
 62
7
100
AcDbSpline
 70
8
 71
3
 72
8
 73
4
 74
0
 40
0
 40
0
 40
0
 40
0
 40
1
 40
1
 40
1
 40
1
 10
65.230558
 20
129.412428
 30
0.0
 10
67.359239
 20
129.683695
 30
0.0
 10
67.570917
 20
129.691586
 30
0.0
 10
67.570917
 20
129.499675
 30
0.0
  0
SPLINE
  5
1d8
100
AcDbEntity
  8
Layer_1
 62
7
100
AcDbSpline
 70
8
 71
3
 72
8
 73
4
 74
0
 40
0
 40
0
 40
0
 40
0
 40
1
 40
1
 40
1
 40
1
 10
67.570917
 20
129.499675
 30
0.0
 10
67.570917
 20
129.404337
 30
0.0
 10
67.260368
 20
129.031716
 30
0.0
 10
66.880811
 20
128.671632
 30
0.0
  0
SPLINE
  5
1d9
100
AcDbEntity
  8
Layer_1
 62
7
100
AcDbSpline
 70
8
 71
3
 72
8
 73
4
 74
0
 40
0
 40
0
 40
0
 40
0
 40
1
 40
1
 40
1
 40
1
 10
66.880811
 20
128.671632
 30
0.0
 10
64.985358
 20
126.873427
 30
0.0
 10
62.894887
 20
126.046395
 30
0.0
 10
60.260600
 20
126.052545
 30
0.0
  0
SPLINE
  5
1da
100
AcDbEntity
  8
Layer_1
 62
7
100
AcDbSpline
 70
8
 71
3
 72
8
 73
4
 74
0
 40
0
 40
0
 40
0
 40
0
 40
1
 40
1
 40
1
 40
1
 10
60.260600
 20
126.052545
 30
0.0
 10
59.010141
 20
126.055452
 30
0.0
 10
58.790363
 20
126.089600
 30
0.0
 10
58.085609
 20
126.390367
 30
0.0
  0
SPLINE
  5
1db
100
AcDbEntity
  8
Layer_1
 62
7
100
AcDbSpline
 70
8
 71
3
 72
8
 73
4
 74
0
 40
0
 40
0
 40
0
 40
0
 40
1
 40
1
 40
1
 40
1
 10
58.085609
 20
126.390367
 30
0.0
 10
56.500728
 20
127.066747
 30
0.0
 10
55.201289
 20
128.171113
 30
0.0
 10
54.708075
 20
129.260861
 30
0.0
  0
SPLINE
  5
1dc
100
AcDbEntity
  8
Layer_1
 62
7
100
AcDbSpline
 70
8
 71
3
 72
8
 73
4
 74
0
 40
0
 40
0
 40
0
 40
0
 40
1
 40
1
 40
1
 40
1
 10
54.708075
 20
129.260861
 30
0.0
 10
54.580835
 20
129.541994
 30
0.0
 10
54.399513
 20
130.352118
 30
0.0
 10
54.305135
 20
131.061137
 30
0.0
  0
SPLINE
  5
1dd
100
AcDbEntity
  8
Layer_1
 62
7
100
AcDbSpline
 70
8
 71
3
 72
8
 73
4
 74
0
 40
0
 40
0
 40
0
 40
0
 40
1
 40
1
 40
1
 40
1
 10
54.305135
 20
131.061137
 30
0.0
 10
53.626893
 20
136.156524
 30
0.0
 10
55.207577
 20
141.061261
 30
0.0
 10
59.428848
 20
146.959606
 30
0.0
  0
SPLINE
  5
1de
100
AcDbEntity
  8
Layer_1
 62
7
100
AcDbSpline
 70
8
 71
3
 72
8
 73
4
 74
0
 40
0
 40
0
 40
0
 40
0
 40
1
 40
1
 40
1
 40
1
 10
59.428848
 20
146.959606
 30
0.0
 10
61.646161
 20
150.057842
 30
0.0
 10
63.175332
 20
151.826667
 30
0.0
 10
65.350576
 20
153.809397
 30
0.0
  0
SPLINE
  5
1df
100
AcDbEntity
  8
Layer_1
 62
7
100
AcDbSpline
 70
8
 71
3
 72
8
 73
4
 74
0
 40
0
 40
0
 40
0
 40
0
 40
1
 40
1
 40
1
 40
1
 10
65.350576
 20
153.809397
 30
0.0
 10
75.146603
 20
162.738448
 30
0.0
 10
88.441555
 20
166.796665
 30
0.0
 10
104.716611
 20
165.825679
 30
0.0
  0
SPLINE
  5
1e0
100
AcDbEntity
  8
Layer_1
 62
7
100
AcDbSpline
 70
8
 71
3
 72
8
 73
4
 74
0
 40
0
 40
0
 40
0
 40
0
 40
1
 40
1
 40
1
 40
1
 10
104.716611
 20
165.825679
 30
0.0
 10
107.851488
 20
165.638651
 30
0.0
 10
109.917055
 20
165.368169
 30
0.0
 10
116.256929
 20
164.314506
 30
0.0
  0
LINE
  5
1e1
100
AcDbEntity
  8
Layer_1
 62
7
100
AcDbLine
 10
116.256929
 20
164.314506
 30
0.0
 11
120.716161
 21
163.573396
 31
0.0
  0
LINE
  5
1e2
100
AcDbEntity
  8
Layer_1
 62
7
100
AcDbLine
 10
120.716161
 20
163.573396
 30
0.0
 11
121.177685
 21
163.960645
 31
0.0
  0
SPLINE
  5
1e3
100
AcDbEntity
  8
Layer_1
 62
7
100
AcDbSpline
 70
8
 71
3
 72
8
 73
4
 74
0
 40
0
 40
0
 40
0
 40
0
 40
1
 40
1
 40
1
 40
1
 10
121.177685
 20
163.960645
 30
0.0
 10
124.763705
 20
166.969551
 30
0.0
 10
127.693809
 20
168.951787
 30
0.0
 10
131.000641
 20
170.605951
 30
0.0
  0
SPLINE
  5
1e4
100
AcDbEntity
  8
Layer_1
 62
7
100
AcDbSpline
 70
8
 71
3
 72
8
 73
4
 74
0
 40
0
 40
0
 40
0
 40
0
 40
1
 40
1
 40
1
 40
1
 10
131.000641
 20
170.605951
 30
0.0
 10
135.773448
 20
172.993432
 30
0.0
 10
141.654098
 20
174.762887
 30
0.0
 10
146.242978
 20
175.192282
 30
0.0
  0
SPLINE
  5
1e5
100
AcDbEntity
  8
Layer_1
 62
7
100
AcDbSpline
 70
8
 71
3
 72
8
 73
4
 74
0
 40
0
 40
0
 40
0
 40
0
 40
1
 40
1
 40
1
 40
1
 10
146.242978
 20
175.192282
 30
0.0
 10
155.426150
 20
176.051584
 30
0.0
 10
160.931778
 20
175.524836
 30
0.0
 10
165.571859
 20
173.343004
 30
0.0
  0
SPLINE
  5
1e6
100
AcDbEntity
  8
Layer_1
 62
7
100
AcDbSpline
 70
8
 71
3
 72
8
 73
4
 74
0
 40
0
 40
0
 40
0
 40
0
 40
1
 40
1
 40
1
 40
1
 10
165.571859
 20
173.343004
 30
0.0
 10
167.891296
 20
172.252370
 30
0.0
 10
168.960433
 20
171.436827
 30
0.0
 10
170.165166
 20
169.839229
 30
0.0
  0
SPLINE
  5
1e7
100
AcDbEntity
  8
Layer_1
 62
7
100
AcDbSpline
 70
8
 71
3
 72
8
 73
4
 74
0
 40
0
 40
0
 40
0
 40
0
 40
1
 40
1
 40
1
 40
1
 10
170.165166
 20
169.839229
 30
0.0
 10
171.150240
 20
168.532910
 30
0.0
 10
171.559000
 20
166.545953
 30
0.0
 10
171.230234
 20
164.662015
 30
0.0
  0
SPLINE
  5
1e8
100
AcDbEntity
  8
Layer_1
 62
7
100
AcDbSpline
 70
8
 71
3
 72
8
 73
4
 74
0
 40
0
 40
0
 40
0
 40
0
 40
1
 40
1
 40
1
 40
1
 10
171.230234
 20
164.662015
 30
0.0
 10
170.980870
 20
163.233144
 30
0.0
 10
170.513903
 20
162.305313
 30
0.0
 10
169.490483
 20
161.205250
 30
0.0
  0
SPLINE
  5
1e9
100
AcDbEntity
  8
Layer_1
 62
7
100
AcDbSpline
 70
8
 71
3
 72
8
 73
4
 74
0
 40
0
 40
0
 40
0
 40
0
 40
1
 40
1
 40
1
 40
1
 10
169.490483
 20
161.205250
 30
0.0
 10
165.949734
 20
157.399365
 30
0.0
 10
160.853789
 20
154.810938
 30
0.0
 10
155.004321
 20
153.847175
 30
0.0
  0
SPLINE
  5
1ea
100
AcDbEntity
  8
Layer_1
 62
7
100
AcDbSpline
 70
8
 71
3
 72
8
 73
4
 74
0
 40
0
 40
0
 40
0
 40
0
 40
1
 40
1
 40
1
 40
1
 10
155.004321
 20
153.847175
 30
0.0
 10
152.266811
 20
153.396141
 30
0.0
 10
151.614305
 20
153.353506
 30
0.0
 10
147.503171
 20
153.357042
 30
0.0
  0
SPLINE
  5
1eb
100
AcDbEntity
  8
Layer_1
 62
7
100
AcDbSpline
 70
8
 71
3
 72
8
 73
4
 74
0
 40
0
 40
0
 40
0
 40
0
 40
1
 40
1
 40
1
 40
1
 10
147.503171
 20
153.357042
 30
0.0
 10
141.321214
 20
153.362348
 30
0.0
 10
138.349163
 20
153.714655
 30
0.0
 10
128.780300
 20
155.576404
 30
0.0
  0
SPLINE
  5
1ec
100
AcDbEntity
  8
Layer_1
 62
7
100
AcDbSpline
 70
8
 71
3
 72
8
 73
4
 74
0
 40
0
 40
0
 40
0
 40
0
 40
1
 40
1
 40
1
 40
1
 10
128.780300
 20
155.576404
 30
0.0
 10
124.230926
 20
156.461546
 30
0.0
 10
120.255103
 20
157.172929
 30
0.0
 10
120.200756
 20
157.111521
 30
0.0
  0
SPLINE
  5
1ed
100
AcDbEntity
  8
Layer_1
 62
7
100
AcDbSpline
 70
8
 71
3
 72
8
 73
4
 74
0
 40
0
 40
0
 40
0
 40
0
 40
1
 40
1
 40
1
 40
1
 10
120.200756
 20
157.111521
 30
0.0
 10
120.059303
 20
156.951693
 30
0.0
 10
118.622860
 20
154.714376
 30
0.0
 10
118.134703
 20
153.893564
 30
0.0
  0
SPLINE
  5
1ee
100
AcDbEntity
  8
Layer_1
 62
7
100
AcDbSpline
 70
8
 71
3
 72
8
 73
4
 74
0
 40
0
 40
0
 40
0
 40
0
 40
1
 40
1
 40
1
 40
1
 10
118.134703
 20
153.893564
 30
0.0
 10
116.122825
 20
150.510693
 30
0.0
 10
114.013082
 20
146.072763
 30
0.0
 10
112.001244
 20
140.991589
 30
0.0
  0
SPLINE
  5
1ef
100
AcDbEntity
  8
Layer_1
 62
7
100
AcDbSpline
 70
8
 71
3
 72
8
 73
4
 74
0
 40
0
 40
0
 40
0
 40
0
 40
1
 40
1
 40
1
 40
1
 10
112.001244
 20
140.991589
 30
0.0
 10
111.351255
 20
139.349955
 30
0.0
 10
108.654283
 20
132.377881
 30
0.0
 10
108.171087
 20
131.090070
 30
0.0
  0
SPLINE
  5
1f0
100
AcDbEntity
  8
Layer_1
 62
7
100
AcDbSpline
 70
8
 71
3
 72
8
 73
4
 74
0
 40
0
 40
0
 40
0
 40
0
 40
1
 40
1
 40
1
 40
1
 10
108.171087
 20
131.090070
 30
0.0
 10
108.133936
 20
130.991055
 30
0.0
 10
108.496441
 20
131.477130
 30
0.0
 10
108.976651
 20
132.170236
 30
0.0
  0
SPLINE
  5
1f1
100
AcDbEntity
  8
Layer_1
 62
7
100
AcDbSpline
 70
8
 71
3
 72
8
 73
4
 74
0
 40
0
 40
0
 40
0
 40
0
 40
1
 40
1
 40
1
 40
1
 10
108.976651
 20
132.170236
 30
0.0
 10
110.466875
 20
134.321122
 30
0.0
 10
111.367381
 20
135.418157
 30
0.0
 10
112.870956
 20
136.914443
 30
0.0
  0
SPLINE
  5
1f2
100
AcDbEntity
  8
Layer_1
 62
7
100
AcDbSpline
 70
8
 71
3
 72
8
 73
4
 74
0
 40
0
 40
0
 40
0
 40
0
 40
1
 40
1
 40
1
 40
1
 10
112.870956
 20
136.914443
 30
0.0
 10
114.838782
 20
138.872726
 30
0.0
 10
116.669958
 20
140.093185
 30
0.0
 10
118.773710
 20
140.848564
 30
0.0
  0
SPLINE
  5
1f3
100
AcDbEntity
  8
Layer_1
 62
7
100
AcDbSpline
 70
8
 71
3
 72
8
 73
4
 74
0
 40
0
 40
0
 40
0
 40
0
 40
1
 40
1
 40
1
 40
1
 10
118.773710
 20
140.848564
 30
0.0
 10
121.350888
 20
141.773934
 30
0.0
 10
122.738320
 20
141.455638
 30
0.0
 10
123.533380
 20
139.756632
 30
0.0
  0
SPLINE
  5
1f4
100
AcDbEntity
  8
Layer_1
 62
7
100
AcDbSpline
 70
8
 71
3
 72
8
 73
4
 74
0
 40
0
 40
0
 40
0
 40
0
 40
1
 40
1
 40
1
 40
1
 10
123.533380
 20
139.756632
 30
0.0
 10
123.850860
 20
139.078195
 30
0.0
 10
123.899106
 20
138.840194
 30
0.0
 10
123.900969
 20
137.943329
 30
0.0
  0
SPLINE
  5
1f5
100
AcDbEntity
  8
Layer_1
 62
7
100
AcDbSpline
 70
8
 71
3
 72
8
 73
4
 74
0
 40
0
 40
0
 40
0
 40
0
 40
1
 40
1
 40
1
 40
1
 10
123.900969
 20
137.943329
 30
0.0
 10
123.903509
 20
136.705195
 30
0.0
 10
123.732307
 20
136.080326
 30
0.0
 10
122.783563
 20
133.865652
 30
0.0
  0
SPLINE
  5
1f6
100
AcDbEntity
  8
Layer_1
 62
7
100
AcDbSpline
 70
8
 71
3
 72
8
 73
4
 74
0
 40
0
 40
0
 40
0
 40
0
 40
1
 40
1
 40
1
 40
1
 10
122.783563
 20
133.865652
 30
0.0
 10
122.398240
 20
132.966176
 30
0.0
 10
122.002996
 20
131.960204
 30
0.0
 10
121.905240
 20
131.630153
 30
0.0
  0
SPLINE
  5
1f7
100
AcDbEntity
  8
Layer_1
 62
7
100
AcDbSpline
 70
8
 71
3
 72
8
 73
4
 74
0
 40
0
 40
0
 40
0
 40
0
 40
1
 40
1
 40
1
 40
1
 10
121.905240
 20
131.630153
 30
0.0
 10
121.807484
 20
131.300103
 30
0.0
 10
120.543599
 20
128.653697
 30
0.0
 10
119.096607
 20
125.749252
 30
0.0
  0
SPLINE
  5
1f8
100
AcDbEntity
  8
Layer_1
 62
7
100
AcDbSpline
 70
8
 71
3
 72
8
 73
4
 74
0
 40
0
 40
0
 40
0
 40
0
 40
1
 40
1
 40
1
 40
1
 10
119.096607
 20
125.749252
 30
0.0
 10
116.250858
 20
120.037173
 30
0.0
 10
115.480448
 20
118.382755
 30
0.0
 10
114.290190
 20
115.427668
 30
0.0
  0
SPLINE
  5
1f9
100
AcDbEntity
  8
Layer_1
 62
7
100
AcDbSpline
 70
8
 71
3
 72
8
 73
4
 74
0
 40
0
 40
0
 40
0
 40
0
 40
1
 40
1
 40
1
 40
1
 10
114.290190
 20
115.427668
 30
0.0
 10
113.592384
 20
113.695213
 30
0.0
 10
113.521377
 20
113.440858
 30
0.0
 10
113.564278
 20
112.827369
 30
0.0
  0
SPLINE
  5
1fa
100
AcDbEntity
  8
Layer_1
 62
7
100
AcDbSpline
 70
8
 71
3
 72
8
 73
4
 74
0
 40
0
 40
0
 40
0
 40
0
 40
1
 40
1
 40
1
 40
1
 10
113.564278
 20
112.827369
 30
0.0
 10
113.628624
 20
111.907158
 30
0.0
 10
113.799078
 20
111.721357
 30
0.0
 10
114.493458
 20
111.814510
 30
0.0
  0
SPLINE
  5
1fb
100
AcDbEntity
  8
Layer_1
 62
7
100
AcDbSpline
 70
8
 71
3
 72
8
 73
4
 74
0
 40
0
 40
0
 40
0
 40
0
 40
1
 40
1
 40
1
 40
1
 10
114.493458
 20
111.814510
 30
0.0
 10
115.632535
 20
111.967319
 30
0.0
 10
116.474974
 20
112.528080
 30
0.0
 10
118.375698
 20
114.398680
 30
0.0
  0
SPLINE
  5
1fc
100
AcDbEntity
  8
Layer_1
 62
7
100
AcDbSpline
 70
8
 71
3
 72
8
 73
4
 74
0
 40
0
 40
0
 40
0
 40
0
 40
1
 40
1
 40
1
 40
1
 10
118.375698
 20
114.398680
 30
0.0
 10
119.353192
 20
115.360686
 30
0.0
 10
120.181235
 20
116.174699
 30
0.0
 10
120.215790
 20
116.207601
 30
0.0
  0
SPLINE
  5
1fd
100
AcDbEntity
  8
Layer_1
 62
7
100
AcDbSpline
 70
8
 71
3
 72
8
 73
4
 74
0
 40
0
 40
0
 40
0
 40
0
 40
1
 40
1
 40
1
 40
1
 10
120.215790
 20
116.207601
 30
0.0
 10
120.341023
 20
116.326834
 30
0.0
 10
120.619029
 20
115.792971
 30
0.0
 10
120.618258
 20
115.434735
 30
0.0
  0
SPLINE
  5
1fe
100
AcDbEntity
  8
Layer_1
 62
7
100
AcDbSpline
 70
8
 71
3
 72
8
 73
4
 74
0
 40
0
 40
0
 40
0
 40
0
 40
1
 40
1
 40
1
 40
1
 10
120.618258
 20
115.434735
 30
0.0
 10
120.617412
 20
114.971315
 30
0.0
 10
120.463680
 20
114.748723
 30
0.0
 10
119.034204
 20
113.138874
 30
0.0
  0
SPLINE
  5
1ff
100
AcDbEntity
  8
Layer_1
 62
7
100
AcDbSpline
 70
8
 71
3
 72
8
 73
4
 74
0
 40
0
 40
0
 40
0
 40
0
 40
1
 40
1
 40
1
 40
1
 10
119.034204
 20
113.138874
 30
0.0
 10
117.198975
 20
111.072073
 30
0.0
 10
114.906961
 20
109.027664
 30
0.0
 10
113.117898
 20
107.861702
 30
0.0
  0
SPLINE
  5
200
100
AcDbEntity
  8
Layer_1
 62
7
100
AcDbSpline
 70
8
 71
3
 72
8
 73
4
 74
0
 40
0
 40
0
 40
0
 40
0
 40
1
 40
1
 40
1
 40
1
 10
113.117898
 20
107.861702
 30
0.0
 10
111.450047
 20
106.774738
 30
0.0
 10
110.958935
 20
106.572032
 30
0.0
 10
109.844510
 20
106.510617
 30
0.0
  0
SPLINE
  5
201
100
AcDbEntity
  8
Layer_1
 62
7
100
AcDbSpline
 70
8
 71
3
 72
8
 73
4
 74
0
 40
0
 40
0
 40
0
 40
0
 40
1
 40
1
 40
1
 40
1
 10
109.844510
 20
106.510617
 30
0.0
 10
108.083714
 20
106.413586
 30
0.0
 10
107.301182
 20
106.920491
 30
0.0
 10
106.997300
 20
108.354973
 30
0.0
  0
SPLINE
  5
202
100
AcDbEntity
  8
Layer_1
 62
7
100
AcDbSpline
 70
8
 71
3
 72
8
 73
4
 74
0
 40
0
 40
0
 40
0
 40
0
 40
1
 40
1
 40
1
 40
1
 10
106.997300
 20
108.354973
 30
0.0
 10
106.665945
 20
109.919125
 30
0.0
 10
106.831573
 20
111.582656
 30
0.0
 10
107.546140
 20
113.867431
 30
0.0
  0
SPLINE
  5
203
100
AcDbEntity
  8
Layer_1
 62
7
100
AcDbSpline
 70
8
 71
3
 72
8
 73
4
 74
0
 40
0
 40
0
 40
0
 40
0
 40
1
 40
1
 40
1
 40
1
 10
107.546140
 20
113.867431
 30
0.0
 10
107.946636
 20
115.147986
 30
0.0
 10
108.524466
 20
116.441213
 30
0.0
 10
110.656432
 20
120.828498
 30
0.0
  0
SPLINE
  5
204
100
AcDbEntity
  8
Layer_1
 62
7
100
AcDbSpline
 70
8
 71
3
 72
8
 73
4
 74
0
 40
0
 40
0
 40
0
 40
0
 40
1
 40
1
 40
1
 40
1
 10
110.656432
 20
120.828498
 30
0.0
 10
115.799593
 20
131.412391
 30
0.0
 10
116.658441
 20
133.376462
 30
0.0
 10
116.658441
 20
134.554289
 30
0.0
  0
SPLINE
  5
205
100
AcDbEntity
  8
Layer_1
 62
7
100
AcDbSpline
 70
8
 71
3
 72
8
 73
4
 74
0
 40
0
 40
0
 40
0
 40
0
 40
1
 40
1
 40
1
 40
1
 10
116.658441
 20
134.554289
 30
0.0
 10
116.658441
 20
135.116808
 30
0.0
 10
116.221724
 20
135.814750
 30
0.0
 10
115.834945
 20
135.870361
 30
0.0
  0
SPLINE
  5
206
100
AcDbEntity
  8
Layer_1
 62
7
100
AcDbSpline
 70
8
 71
3
 72
8
 73
4
 74
0
 40
0
 40
0
 40
0
 40
0
 40
1
 40
1
 40
1
 40
1
 10
115.834945
 20
135.870361
 30
0.0
 10
114.967289
 20
135.995112
 30
0.0
 10
113.284720
 20
134.502566
 30
0.0
 10
111.184614
 20
131.745218
 30
0.0
  0
SPLINE
  5
207
100
AcDbEntity
  8
Layer_1
 62
7
100
AcDbSpline
 70
8
 71
3
 72
8
 73
4
 74
0
 40
0
 40
0
 40
0
 40
0
 40
1
 40
1
 40
1
 40
1
 10
111.184614
 20
131.745218
 30
0.0
 10
108.050406
 20
127.630139
 30
0.0
 10
105.431675
 20
122.980852
 30
0.0
 10
101.621886
 20
114.767567
 30
0.0
  0
SPLINE
  5
208
100
AcDbEntity
  8
Layer_1
 62
7
100
AcDbSpline
 70
8
 71
3
 72
8
 73
4
 74
0
 40
0
 40
0
 40
0
 40
0
 40
1
 40
1
 40
1
 40
1
 10
101.621886
 20
114.767567
 30
0.0
 10
100.327429
 20
111.976931
 30
0.0
 10
99.558898
 20
110.357693
 30
0.0
 10
98.261023
 20
107.686482
 30
0.0
  0
SPLINE
  5
209
100
AcDbEntity
  8
Layer_1
 62
7
100
AcDbSpline
 70
8
 71
3
 72
8
 73
4
 74
0
 40
0
 40
0
 40
0
 40
0
 40
1
 40
1
 40
1
 40
1
 10
98.261023
 20
107.686482
 30
0.0
 10
97.525197
 20
106.172046
 30
0.0
 10
97.225824
 20
105.689240
 30
0.0
 10
96.650725
 20
105.089521
 30
0.0
  0
SPLINE
  5
20a
100
AcDbEntity
  8
Layer_1
 62
7
100
AcDbSpline
 70
8
 71
3
 72
8
 73
4
 74
0
 40
0
 40
0
 40
0
 40
0
 40
1
 40
1
 40
1
 40
1
 10
96.650725
 20
105.089521
 30
0.0
 10
95.098689
 20
103.471044
 30
0.0
 10
93.187184
 20
102.561369
 30
0.0
 10
88.875356
 20
101.389263
 30
0.0
  0
SPLINE
  5
20b
100
AcDbEntity
  8
Layer_1
 62
7
100
AcDbSpline
 70
8
 71
3
 72
8
 73
4
 74
0
 40
0
 40
0
 40
0
 40
0
 40
1
 40
1
 40
1
 40
1
 10
88.875356
 20
101.389263
 30
0.0
 10
86.987569
 20
100.876096
 30
0.0
 10
86.653841
 20
100.854359
 30
0.0
 10
86.653841
 20
101.244579
 30
0.0
  0
SPLINE
  5
20c
100
AcDbEntity
  8
Layer_1
 62
7
100
AcDbSpline
 70
8
 71
3
 72
8
 73
4
 74
0
 40
0
 40
0
 40
0
 40
0
 40
1
 40
1
 40
1
 40
1
 10
86.653841
 20
101.244579
 30
0.0
 10
86.653841
 20
101.398097
 30
0.0
 10
86.793914
 20
101.654637
 30
0.0
 10
86.965118
 20
101.814665
 30
0.0
  0
SPLINE
  5
20d
100
AcDbEntity
  8
Layer_1
 62
7
100
AcDbSpline
 70
8
 71
3
 72
8
 73
4
 74
0
 40
0
 40
0
 40
0
 40
0
 40
1
 40
1
 40
1
 40
1
 10
86.965118
 20
101.814665
 30
0.0
 10
87.998585
 20
102.780692
 30
0.0
 10
89.832194
 20
105.233926
 30
0.0
 10
91.174451
 20
107.446446
 30
0.0
  0
SPLINE
  5
20e
100
AcDbEntity
  8
Layer_1
 62
7
100
AcDbSpline
 70
8
 71
3
 72
8
 73
4
 74
0
 40
0
 40
0
 40
0
 40
0
 40
1
 40
1
 40
1
 40
1
 10
91.174451
 20
107.446446
 30
0.0
 10
93.420500
 20
111.148739
 30
0.0
 10
94.761902
 20
113.974162
 30
0.0
 10
102.200115
 20
130.670005
 30
0.0
  0
SPLINE
  5
20f
100
AcDbEntity
  8
Layer_1
 62
7
100
AcDbSpline
 70
8
 71
3
 72
8
 73
4
 74
0
 40
0
 40
0
 40
0
 40
0
 40
1
 40
1
 40
1
 40
1
 10
102.200115
 20
130.670005
 30
0.0
 10
108.187219
 20
144.108693
 30
0.0
 10
111.031971
 20
150.282333
 30
0.0
 10
112.478140
 20
152.975235
 30
0.0
  0
SPLINE
  5
210
100
AcDbEntity
  8
Layer_1
 62
7
100
AcDbSpline
 70
8
 71
3
 72
8
 73
4
 74
0
 40
0
 40
0
 40
0
 40
0
 40
1
 40
1
 40
1
 40
1
 10
112.478140
 20
152.975235
 30
0.0
 10
113.532214
 20
154.938017
 30
0.0
 10
114.558084
 20
156.673012
 30
0.0
 10
115.109588
 20
157.425648
 30
0.0
  0
SPLINE
  5
211
100
AcDbEntity
  8
Layer_1
 62
7
100
AcDbSpline
 70
8
 71
3
 72
8
 73
4
 74
0
 40
0
 40
0
 40
0
 40
0
 40
1
 40
1
 40
1
 40
1
 10
115.109588
 20
157.425648
 30
0.0
 10
115.299659
 20
157.685036
 30
0.0
 10
115.436043
 20
157.916393
 30
0.0
 10
115.412664
 20
157.939772
 30
0.0
  0
SPLINE
  5
212
100
AcDbEntity
  8
Layer_1
 62
7
100
AcDbSpline
 70
8
 71
3
 72
8
 73
4
 74
0
 40
0
 40
0
 40
0
 40
0
 40
1
 40
1
 40
1
 40
1
 10
115.412664
 20
157.939772
 30
0.0
 10
115.389296
 20
157.963140
 30
0.0
 10
114.361471
 20
158.147014
 30
0.0
 10
113.128631
 20
158.348357
 30
0.0
  0
LINE
  5
213
100
AcDbEntity
  8
Layer_1
 62
7
100
AcDbLine
 10
113.128631
 20
158.348357
 30
0.0
 11
110.887106
 21
158.714436
 31
0.0
  0
LINE
  5
214
100
AcDbEntity
  8
Layer_1
 62
7
100
AcDbLine
 10
110.887106
 20
158.714436
 30
0.0
 11
110.112299
 21
158.034195
 31
0.0
  0
SPLINE
  5
215
100
AcDbEntity
  8
Layer_1
 62
7
100
AcDbSpline
 70
8
 71
3
 72
8
 73
4
 74
0
 40
0
 40
0
 40
0
 40
0
 40
1
 40
1
 40
1
 40
1
 10
110.112299
 20
158.034195
 30
0.0
 10
107.838762
 20
156.038139
 30
0.0
 10
104.521706
 20
152.016013
 30
0.0
 10
102.441398
 20
148.732775
 30
0.0
  0
SPLINE
  5
216
100
AcDbEntity
  8
Layer_1
 62
7
100
AcDbSpline
 70
8
 71
3
 72
8
 73
4
 74
0
 40
0
 40
0
 40
0
 40
0
 40
1
 40
1
 40
1
 40
1
 10
102.441398
 20
148.732775
 30
0.0
 10
99.691413
 20
144.392620
 30
0.0
 10
98.017065
 20
141.033800
 30
0.0
 10
93.796203
 20
131.390115
 30
0.0
  0
SPLINE
  5
217
100
AcDbEntity
  8
Layer_1
 62
7
100
AcDbSpline
 70
8
 71
3
 72
8
 73
4
 74
0
 40
0
 40
0
 40
0
 40
0
 40
1
 40
1
 40
1
 40
1
 10
93.796203
 20
131.390115
 30
0.0
 10
90.792232
 20
124.526741
 30
0.0
 10
87.361412
 20
117.010751
 30
0.0
 10
85.688060
 20
113.627392
 30
0.0
  0
SPLINE
  5
218
100
AcDbEntity
  8
Layer_1
 62
7
100
AcDbSpline
 70
8
 71
3
 72
8
 73
4
 74
0
 40
0
 40
0
 40
0
 40
0
 40
1
 40
1
 40
1
 40
1
 10
85.688060
 20
113.627392
 30
0.0
 10
81.886433
 20
105.940867
 30
0.0
 10
78.388772
 20
100.823885
 30
0.0
 10
74.034817
 20
96.579028
 30
0.0
  0
SPLINE
  5
219
100
AcDbEntity
  8
Layer_1
 62
7
100
AcDbSpline
 70
8
 71
3
 72
8
 73
4
 74
0
 40
0
 40
0
 40
0
 40
0
 40
1
 40
1
 40
1
 40
1
 10
74.034817
 20
96.579028
 30
0.0
 10
72.115062
 20
94.707373
 30
0.0
 10
71.294464
 20
94.006827
 30
0.0
 10
69.615400
 20
92.806154
 30
0.0
  0
SPLINE
  5
21a
100
AcDbEntity
  8
Layer_1
 62
7
100
AcDbSpline
 70
8
 71
3
 72
8
 73
4
 74
0
 40
0
 40
0
 40
0
 40
0
 40
1
 40
1
 40
1
 40
1
 10
69.615400
 20
92.806154
 30
0.0
 10
64.505312
 20
89.152014
 30
0.0
 10
58.784086
 20
86.743358
 30
0.0
 10
53.168708
 20
85.882041
 30
0.0
  0
SPLINE
  5
21b
100
AcDbEntity
  8
Layer_1
 62
7
100
AcDbSpline
 70
8
 71
3
 72
8
 73
4
 74
0
 40
0
 40
0
 40
0
 40
0
 40
1
 40
1
 40
1
 40
1
 10
53.168708
 20
85.882041
 30
0.0
 10
51.077904
 20
85.561343
 30
0.0
 10
47.128232
 20
85.593263
 30
0.0
 10
45.106316
 20
85.947198
 30
0.0
  0
SPLINE
  5
21c
100
AcDbEntity
  8
Layer_1
 62
7
100
AcDbSpline
 70
8
 71
3
 72
8
 73
4
 74
0
 40
0
 40
0
 40
0
 40
0
 40
1
 40
1
 40
1
 40
1
 10
45.106316
 20
85.947198
 30
0.0
 10
40.623829
 20
86.731855
 30
0.0
 10
36.726537
 20
88.175788
 30
0.0
 10
33.680750
 20
90.180336
 30
0.0
  0
LINE
  5
21d
100
AcDbEntity
  8
Layer_1
 62
7
100
AcDbLine
 10
33.680750
 20
90.180336
 30
0.0
 11
32.735639
 21
90.802348
 31
0.0
  0
LINE
  5
21e
100
AcDbEntity
  8
Layer_1
 62
7
100
AcDbLine
 10
32.735639
 20
90.802348
 30
0.0
 11
32.302636
 21
90.573088
 31
0.0
  0
SPLINE
  5
21f
100
AcDbEntity
  8
Layer_1
 62
7
100
AcDbSpline
 70
8
 71
3
 72
8
 73
4
 74
0
 40
0
 40
0
 40
0
 40
0
 40
1
 40
1
 40
1
 40
1
 10
32.302636
 20
90.573088
 30
0.0
 10
30.308460
 20
89.517227
 30
0.0
 10
26.701411
 20
85.880486
 30
0.0
 10
23.921114
 20
82.122564
 30
0.0
  0
SPLINE
  5
220
100
AcDbEntity
  8
Layer_1
 62
7
100
AcDbSpline
 70
8
 71
3
 72
8
 73
4
 74
0
 40
0
 40
0
 40
0
 40
0
 40
1
 40
1
 40
1
 40
1
 10
23.921114
 20
82.122564
 30
0.0
 10
16.213277
 20
71.704464
 30
0.0
 10
13.301616
 20
59.767494
 30
0.0
 10
15.419218
 20
47.267242
 30
0.0
  0
SPLINE
  5
221
100
AcDbEntity
  8
Layer_1
 62
7
100
AcDbSpline
 70
8
 71
3
 72
8
 73
4
 74
0
 40
0
 40
0
 40
0
 40
0
 40
1
 40
1
 40
1
 40
1
 10
15.419218
 20
47.267242
 30
0.0
 10
16.446111
 20
41.205462
 30
0.0
 10
18.578879
 20
35.424873
 30
0.0
 10
21.998657
 20
29.434489
 30
0.0
  0
SPLINE
  5
222
100
AcDbEntity
  8
Layer_1
 62
7
100
AcDbSpline
 70
8
 71
3
 72
8
 73
4
 74
0
 40
0
 40
0
 40
0
 40
0
 40
1
 40
1
 40
1
 40
1
 10
21.998657
 20
29.434489
 30
0.0
 10
23.564310
 20
26.691961
 30
0.0
 10
25.035202
 20
24.783058
 30
0.0
 10
27.415042
 20
22.405195
 30
0.0
  0
SPLINE
  5
223
100
AcDbEntity
  8
Layer_1
 62
7
100
AcDbSpline
 70
8
 71
3
 72
8
 73
4
 74
0
 40
0
 40
0
 40
0
 40
0
 40
1
 40
1
 40
1
 40
1
 10
27.415042
 20
22.405195
 30
0.0
 10
33.172403
 20
16.652620
 30
0.0
 10
40.473297
 20
13.387749
 30
0.0
 10
50.228257
 20
12.203347
 30
0.0
  0
SPLINE
  5
224
100
AcDbEntity
  8
Layer_1
 62
7
100
AcDbSpline
 70
8
 71
3
 72
8
 73
4
 74
0
 40
0
 40
0
 40
0
 40
0
 40
1
 40
1
 40
1
 40
1
 10
50.228257
 20
12.203347
 30
0.0
 10
52.307769
 20
11.950899
 30
0.0
 10
58.007614
 20
11.844614
 30
0.0
 10
60.321198
 20
12.015217
 30
0.0
  0
SPLINE
  5
225
100
AcDbEntity
  8
Layer_1
 62
7
100
AcDbSpline
 70
8
 71
3
 72
8
 73
4
 74
0
 40
0
 40
0
 40
0
 40
0
 40
1
 40
1
 40
1
 40
1
 10
60.321198
 20
12.015217
 30
0.0
 10
71.944368
 20
12.872157
 30
0.0
 10
83.173319
 20
19.062766
 30
0.0
 10
92.788300
 20
29.914563
 30
0.0
  0
SPLINE
  5
226
100
AcDbEntity
  8
Layer_1
 62
7
100
AcDbSpline
 70
8
 71
3
 72
8
 73
4
 74
0
 40
0
 40
0
 40
0
 40
0
 40
1
 40
1
 40
1
 40
1
 10
92.788300
 20
29.914563
 30
0.0
 10
98.542280
 20
36.408700
 30
0.0
 10
103.768215
 20
45.189534
 30
0.0
 10
110.538463
 20
59.739136
 30
0.0
  0
SPLINE
  5
227
100
AcDbEntity
  8
Layer_1
 62
7
100
AcDbSpline
 70
8
 71
3
 72
8
 73
4
 74
0
 40
0
 40
0
 40
0
 40
0
 40
1
 40
1
 40
1
 40
1
 10
110.538463
 20
59.739136
 30
0.0
 10
111.725628
 20
62.290414
 30
0.0
 10
117.359063
 20
74.647850
 30
0.0
 10
118.170963
 20
76.481701
 30
0.0
  0
SPLINE
  5
228
100
AcDbEntity
  8
Layer_1
 62
7
100
AcDbSpline
 70
8
 71
3
 72
8
 73
4
 74
0
 40
0
 40
0
 40
0
 40
0
 40
1
 40
1
 40
1
 40
1
 10
118.170963
 20
76.481701
 30
0.0
 10
118.677109
 20
77.624944
 30
0.0
 10
120.384629
 20
81.917519
 30
0.0
 10
120.347176
 20
81.952543
 30
0.0
  0
SPLINE
  5
229
100
AcDbEntity
  8
Layer_1
 62
7
100
AcDbSpline
 70
8
 71
3
 72
8
 73
4
 74
0
 40
0
 40
0
 40
0
 40
0
 40
1
 40
1
 40
1
 40
1
 10
120.347176
 20
81.952543
 30
0.0
 10
120.331682
 20
81.967021
 30
0.0
 10
119.971809
 20
81.430623
 30
0.0
 10
119.547459
 20
80.760529
 30
0.0
  0
SPLINE
  5
22a
100
AcDbEntity
  8
Layer_1
 62
7
100
AcDbSpline
 70
8
 71
3
 72
8
 73
4
 74
0
 40
0
 40
0
 40
0
 40
0
 40
1
 40
1
 40
1
 40
1
 10
119.547459
 20
80.760529
 30
0.0
 10
119.123110
 20
80.090432
 30
0.0
 10
117.683732
 20
77.894918
 30
0.0
 10
116.348837
 20
75.881610
 30
0.0
  0
SPLINE
  5
22b
100
AcDbEntity
  8
Layer_1
 62
7
100
AcDbSpline
 70
8
 71
3
 72
8
 73
4
 74
0
 40
0
 40
0
 40
0
 40
0
 40
1
 40
1
 40
1
 40
1
 10
116.348837
 20
75.881610
 30
0.0
 10
111.137886
 20
68.022361
 30
0.0
 10
107.046274
 20
62.872370
 30
0.0
 10
102.423801
 20
58.354579
 30
0.0
  0
SPLINE
  5
22c
100
AcDbEntity
  8
Layer_1
 62
7
100
AcDbSpline
 70
8
 71
3
 72
8
 73
4
 74
0
 40
0
 40
0
 40
0
 40
0
 40
1
 40
1
 40
1
 40
1
 10
102.423801
 20
58.354579
 30
0.0
 10
99.944722
 20
55.931648
 30
0.0
 10
99.225938
 20
55.347962
 30
0.0
 10
97.960533
 20
54.730214
 30
0.0
  0
SPLINE
  5
22d
100
AcDbEntity
  8
Layer_1
 62
7
100
AcDbSpline
 70
8
 71
3
 72
8
 73
4
 74
0
 40
0
 40
0
 40
0
 40
0
 40
1
 40
1
 40
1
 40
1
 10
97.960533
 20
54.730214
 30
0.0
 10
97.015170
 20
54.268707
 30
0.0
 10
96.829499
 20
54.219922
 30
0.0
 10
96.015277
 20
54.219152
 30
0.0
  0
SPLINE
  5
22e
100
AcDbEntity
  8
Layer_1
 62
7
100
AcDbSpline
 70
8
 71
3
 72
8
 73
4
 74
0
 40
0
 40
0
 40
0
 40
0
 40
1
 40
1
 40
1
 40
1
 10
96.015277
 20
54.219152
 30
0.0
 10
95.180167
 20
54.218023
 30
0.0
 10
95.067450
 20
54.249855
 30
0.0
 10
94.455036
 20
54.655179
 30
0.0
  0
SPLINE
  5
22f
100
AcDbEntity
  8
Layer_1
 62
7
100
AcDbSpline
 70
8
 71
3
 72
8
 73
4
 74
0
 40
0
 40
0
 40
0
 40
0
 40
1
 40
1
 40
1
 40
1
 10
94.455036
 20
54.655179
 30
0.0
 10
93.181150
 20
55.498284
 30
0.0
 10
93.022668
 20
55.814520
 30
0.0
 10
92.929710
 20
57.698822
 30
0.0
  0
SPLINE
  5
230
100
AcDbEntity
  8
Layer_1
 62
7
100
AcDbSpline
 70
8
 71
3
 72
8
 73
4
 74
0
 40
0
 40
0
 40
0
 40
0
 40
1
 40
1
 40
1
 40
1
 10
92.929710
 20
57.698822
 30
0.0
 10
92.808360
 20
60.158634
 30
0.0
 10
93.278037
 20
62.257625
 30
0.0
 10
95.051313
 20
67.180275
 30
0.0
  0
SPLINE
  5
231
100
AcDbEntity
  8
Layer_1
 62
7
100
AcDbSpline
 70
8
 71
3
 72
8
 73
4
 74
0
 40
0
 40
0
 40
0
 40
0
 40
1
 40
1
 40
1
 40
1
 10
95.051313
 20
67.180275
 30
0.0
 10
96.395072
 20
70.910578
 30
0.0
 10
97.909631
 20
74.313769
 30
0.0
 10
100.312499
 20
79.002087
 30
0.0
  0
SPLINE
  5
232
100
AcDbEntity
  8
Layer_1
 62
7
100
AcDbSpline
 70
8
 71
3
 72
8
 73
4
 74
0
 40
0
 40
0
 40
0
 40
0
 40
1
 40
1
 40
1
 40
1
 10
100.312499
 20
79.002087
 30
0.0
 10
105.480711
 20
89.085963
 30
0.0
 10
107.281816
 20
93.011138
 30
0.0
 10
108.733926
 20
97.355026
 30
0.0
  0
SPLINE
  5
233
100
AcDbEntity
  8
Layer_1
 62
7
100
AcDbSpline
 70
8
 71
3
 72
8
 73
4
 74
0
 40
0
 40
0
 40
0
 40
0
 40
1
 40
1
 40
1
 40
1
 10
108.733926
 20
97.355026
 30
0.0
 10
109.263592
 20
98.939484
 30
0.0
 10
109.258108
 20
99.108843
 30
0.0
 10
108.659292
 20
99.660243
 30
0.0
  0
SPLINE
  5
234
100
AcDbEntity
  8
Layer_1
 62
7
100
AcDbSpline
 70
8
 71
3
 72
8
 73
4
 74
0
 40
0
 40
0
 40
0
 40
0
 40
1
 40
1
 40
1
 40
1
 10
108.659292
 20
99.660243
 30
0.0
 10
108.217671
 20
100.066894
 30
0.0
 10
107.814203
 20
100.133233
 30
0.0
 10
106.636905
 20
99.992771
 30
0.0
  0
SPLINE
  5
235
100
AcDbEntity
  8
Layer_1
 62
7
100
AcDbSpline
 70
8
 71
3
 72
8
 73
4
 74
0
 40
0
 40
0
 40
0
 40
0
 40
1
 40
1
 40
1
 40
1
 10
106.636905
 20
99.992771
 30
0.0
 10
104.523738
 20
99.740656
 30
0.0
 10
97.321867
 20
97.619505
 30
0.0
 10
93.734927
 20
96.192784
 30
0.0
  0
SPLINE
  5
236
100
AcDbEntity
  8
Layer_1
 62
7
100
AcDbSpline
 70
8
 71
3
 72
8
 73
4
 74
0
 40
0
 40
0
 40
0
 40
0
 40
1
 40
1
 40
1
 40
1
 10
93.734927
 20
96.192784
 30
0.0
 10
85.088817
 20
92.753751
 30
0.0
 10
78.146806
 20
88.355744
 30
0.0
 10
72.475925
 20
82.724465
 30
0.0
  0
SPLINE
  5
237
100
AcDbEntity
  8
Layer_1
 62
7
100
AcDbSpline
 70
8
 71
3
 72
8
 73
4
 74
0
 40
0
 40
0
 40
0
 40
0
 40
1
 40
1
 40
1
 40
1
 10
72.475925
 20
82.724465
 30
0.0
 10
68.435996
 20
78.712744
 30
0.0
 10
65.633973
 20
74.808358
 30
0.0
 10
63.129262
 20
69.700661
 30
0.0
  0
SPLINE
  5
238
100
AcDbEntity
  8
Layer_1
 62
7
100
AcDbSpline
 70
8
 71
3
 72
8
 73
4
 74
0
 40
0
 40
0
 40
0
 40
0
 40
1
 40
1
 40
1
 40
1
 10
63.129262
 20
69.700661
 30
0.0
 10
59.932062
 20
63.180805
 30
0.0
 10
58.449518
 20
56.219822
 30
0.0
 10
58.449518
 20
47.727863
 30
0.0
  0
SPLINE
  5
239
100
AcDbEntity
  8
Layer_1
 62
7
100
AcDbSpline
 70
8
 71
3
 72
8
 73
4
 74
0
 40
0
 40
0
 40
0
 40
0
 40
1
 40
1
 40
1
 40
1
 10
58.449518
 20
47.727863
 30
0.0
 10
58.449518
 20
45.142535
 30
0.0
 10
58.482958
 20
44.632060
 30
0.0
 10
58.745182
 20
43.214593
 30
0.0
  0
SPLINE
  5
23a
100
AcDbEntity
  8
Layer_1
 62
7
100
AcDbSpline
 70
8
 71
3
 72
8
 73
4
 74
0
 40
0
 40
0
 40
0
 40
0
 40
1
 40
1
 40
1
 40
1
 10
58.745182
 20
43.214593
 30
0.0
 10
59.191358
 20
40.802765
 30
0.0
 10
59.590488
 20
39.783640
 30
0.0
 10
60.487255
 20
38.766438
 30
0.0
  0
SPLINE
  5
23b
100
AcDbEntity
  8
Layer_1
 62
7
100
AcDbSpline
 70
8
 71
3
 72
8
 73
4
 74
0
 40
0
 40
0
 40
0
 40
0
 40
1
 40
1
 40
1
 40
1
 10
60.487255
 20
38.766438
 30
0.0
 10
61.420841
 20
37.707478
 30
0.0
 10
62.783982
 20
37.601755
 30
0.0
 10
64.545614
 20
38.451664
 30
0.0
  0
SPLINE
  5
23c
100
AcDbEntity
  8
Layer_1
 62
7
100
AcDbSpline
 70
8
 71
3
 72
8
 73
4
 74
0
 40
0
 40
0
 40
0
 40
0
 40
1
 40
1
 40
1
 40
1
 10
64.545614
 20
38.451664
 30
0.0
 10
65.315262
 20
38.822978
 30
0.0
 10
65.944428
 20
39.471737
 30
0.0
 10
66.530387
 20
40.498219
 30
0.0
  0
SPLINE
  5
23d
100
AcDbEntity
  8
Layer_1
 62
7
100
AcDbSpline
 70
8
 71
3
 72
8
 73
4
 74
0
 40
0
 40
0
 40
0
 40
0
 40
1
 40
1
 40
1
 40
1
 10
66.530387
 20
40.498219
 30
0.0
 10
66.847198
 20
41.053209
 30
0.0
 10
67.258057
 20
41.139656
 30
0.0
 10
67.138725
 20
40.626206
 30
0.0
  0
SPLINE
  5
23e
100
AcDbEntity
  8
Layer_1
 62
7
100
AcDbSpline
 70
8
 71
3
 72
8
 73
4
 74
0
 40
0
 40
0
 40
0
 40
0
 40
1
 40
1
 40
1
 40
1
 10
67.138725
 20
40.626206
 30
0.0
 10
66.956683
 20
39.842955
 30
0.0
 10
66.278585
 20
38.708995
 30
0.0
 10
65.531193
 20
37.937986
 30
0.0
  0
SPLINE
  5
23f
100
AcDbEntity
  8
Layer_1
 62
7
100
AcDbSpline
 70
8
 71
3
 72
8
 73
4
 74
0
 40
0
 40
0
 40
0
 40
0
 40
1
 40
1
 40
1
 40
1
 10
65.531193
 20
37.937986
 30
0.0
 10
64.566498
 20
36.942817
 30
0.0
 10
63.896336
 20
36.697752
 30
0.0
 10
62.361081
 20
36.778727
 30
0.0
  0
SPLINE
  5
240
100
AcDbEntity
  8
Layer_1
 62
7
100
AcDbSpline
 70
8
 71
3
 72
8
 73
4
 74
0
 40
0
 40
0
 40
0
 40
0
 40
1
 40
1
 40
1
 40
1
 10
62.361081
 20
36.778727
 30
0.0
 10
60.864225
 20
36.857687
 30
0.0
 10
59.678265
 20
37.488937
 30
0.0
 10
58.089461
 20
39.052380
 30
0.0
  0
SPLINE
  5
241
100
AcDbEntity
  8
Layer_1
 62
7
100
AcDbSpline
 70
8
 71
3
 72
8
 73
4
 74
0
 40
0
 40
0
 40
0
 40
0
 40
1
 40
1
 40
1
 40
1
 10
58.089461
 20
39.052380
 30
0.0
 10
55.140524
 20
41.954257
 30
0.0
 10
53.427892
 20
45.647882
 30
0.0
 10
52.671289
 20
50.737754
 30
0.0
  0
SPLINE
  5
242
100
AcDbEntity
  8
Layer_1
 62
7
100
AcDbSpline
 70
8
 71
3
 72
8
 73
4
 74
0
 40
0
 40
0
 40
0
 40
0
 40
1
 40
1
 40
1
 40
1
 10
52.671289
 20
50.737754
 30
0.0
 10
52.434239
 20
52.332451
 30
0.0
 10
52.471470
 20
57.172938
 30
0.0
 10
52.735446
 20
59.079033
 30
0.0
  0
SPLINE
  5
243
100
AcDbEntity
  8
Layer_1
 62
7
100
AcDbSpline
 70
8
 71
3
 72
8
 73
4
 74
0
 40
0
 40
0
 40
0
 40
0
 40
1
 40
1
 40
1
 40
1
 10
52.735446
 20
59.079033
 30
0.0
 10
53.031328
 20
61.215506
 30
0.0
 10
53.604933
 20
63.853197
 30
0.0
 10
54.092636
 20
65.319990
 30
0.0
  0
SPLINE
  5
244
100
AcDbEntity
  8
Layer_1
 62
7
100
AcDbSpline
 70
8
 71
3
 72
8
 73
4
 74
0
 40
0
 40
0
 40
0
 40
0
 40
1
 40
1
 40
1
 40
1
 10
54.092636
 20
65.319990
 30
0.0
 10
54.590307
 20
66.816776
 30
0.0
 10
55.751230
 20
69.412929
 30
0.0
 10
56.765540
 20
71.297361
 30
0.0
  0
SPLINE
  5
245
100
AcDbEntity
  8
Layer_1
 62
7
100
AcDbSpline
 70
8
 71
3
 72
8
 73
4
 74
0
 40
0
 40
0
 40
0
 40
0
 40
1
 40
1
 40
1
 40
1
 10
56.765540
 20
71.297361
 30
0.0
 10
64.104382
 20
84.931836
 30
0.0
 10
78.490425
 20
94.649715
 30
0.0
 10
99.689838
 20
100.293053
 30
0.0
  0
SPLINE
  5
246
100
AcDbEntity
  8
Layer_1
 62
7
100
AcDbSpline
 70
8
 71
3
 72
8
 73
4
 74
0
 40
0
 40
0
 40
0
 40
0
 40
1
 40
1
 40
1
 40
1
 10
99.689838
 20
100.293053
 30
0.0
 10
103.182666
 20
101.222854
 30
0.0
 10
108.734200
 20
102.418268
 30
0.0
 10
110.629683
 20
102.648736
 30
0.0
  0
SPLINE
  5
247
100
AcDbEntity
  8
Layer_1
 62
7
100
AcDbSpline
 70
8
 71
3
 72
8
 73
4
 74
0
 40
0
 40
0
 40
0
 40
0
 40
1
 40
1
 40
1
 40
1
 10
110.629683
 20
102.648736
 30
0.0
 10
113.078991
 20
102.946543
 30
0.0
 10
115.380570
 20
101.949096
 30
0.0
 10
115.809657
 20
100.403862
 30
0.0
  0
SPLINE
  5
248
100
AcDbEntity
  8
Layer_1
 62
7
100
AcDbSpline
 70
8
 71
3
 72
8
 73
4
 74
0
 40
0
 40
0
 40
0
 40
0
 40
1
 40
1
 40
1
 40
1
 10
115.809657
 20
100.403862
 30
0.0
 10
116.160860
 20
99.139103
 30
0.0
 10
115.861409
 20
97.218335
 30
0.0
 10
114.942360
 20
94.840768
 30
0.0
  0
SPLINE
  5
249
100
AcDbEntity
  8
Layer_1
 62
7
100
AcDbSpline
 70
8
 71
3
 72
8
 73
4
 74
0
 40
0
 40
0
 40
0
 40
0
 40
1
 40
1
 40
1
 40
1
 10
114.942360
 20
94.840768
 30
0.0
 10
113.691797
 20
91.605573
 30
0.0
 10
112.686725
 20
89.476494
 30
0.0
 10
107.890409
 20
79.902376
 30
0.0
  0
SPLINE
  5
24a
100
AcDbEntity
  8
Layer_1
 62
7
100
AcDbSpline
 70
8
 71
3
 72
8
 73
4
 74
0
 40
0
 40
0
 40
0
 40
0
 40
1
 40
1
 40
1
 40
1
 10
107.890409
 20
79.902376
 30
0.0
 10
103.522015
 20
71.182446
 30
0.0
 10
101.546510
 20
66.602879
 30
0.0
 10
100.932739
 20
63.773255
 30
0.0
  0
SPLINE
  5
24b
100
AcDbEntity
  8
Layer_1
 62
7
100
AcDbSpline
 70
8
 71
3
 72
8
 73
4
 74
0
 40
0
 40
0
 40
0
 40
0
 40
1
 40
1
 40
1
 40
1
 10
100.932739
 20
63.773255
 30
0.0
 10
100.581274
 20
62.152946
 30
0.0
 10
100.561905
 20
61.274182
 30
0.0
 10
100.872640
 20
61.046962
 30
0.0
  0
SPLINE
  5
24c
100
AcDbEntity
  8
Layer_1
 62
7
100
AcDbSpline
 70
8
 71
3
 72
8
 73
4
 74
0
 40
0
 40
0
 40
0
 40
0
 40
1
 40
1
 40
1
 40
1
 10
100.872640
 20
61.046962
 30
0.0
 10
100.998748
 20
60.954752
 30
0.0
 10
101.139772
 20
60.879308
 30
0.0
 10
101.186022
 20
60.879308
 30
0.0
  0
SPLINE
  5
24d
100
AcDbEntity
  8
Layer_1
 62
7
100
AcDbSpline
 70
8
 71
3
 72
8
 73
4
 74
0
 40
0
 40
0
 40
0
 40
0
 40
1
 40
1
 40
1
 40
1
 10
101.186022
 20
60.879308
 30
0.0
 10
101.366433
 20
60.879308
 30
0.0
 10
104.265039
 20
63.760735
 30
0.0
 10
105.346954
 20
65.015588
 30
0.0
  0
SPLINE
  5
24e
100
AcDbEntity
  8
Layer_1
 62
7
100
AcDbSpline
 70
8
 71
3
 72
8
 73
4
 74
0
 40
0
 40
0
 40
0
 40
0
 40
1
 40
1
 40
1
 40
1
 10
105.346954
 20
65.015588
 30
0.0
 10
107.206522
 20
67.172378
 30
0.0
 10
110.097847
 20
71.127873
 30
0.0
 10
114.407846
 20
77.411415
 30
0.0
  0
SPLINE
  5
24f
100
AcDbEntity
  8
Layer_1
 62
7
100
AcDbSpline
 70
8
 71
3
 72
8
 73
4
 74
0
 40
0
 40
0
 40
0
 40
0
 40
1
 40
1
 40
1
 40
1
 10
114.407846
 20
77.411415
 30
0.0
 10
117.949441
 20
82.574701
 30
0.0
 10
122.001193
 20
89.719668
 30
0.0
 10
126.505716
 20
98.745112
 30
0.0
  0
SPLINE
  5
250
100
AcDbEntity
  8
Layer_1
 62
7
100
AcDbSpline
 70
8
 71
3
 72
8
 73
4
 74
0
 40
0
 40
0
 40
0
 40
0
 40
1
 40
1
 40
1
 40
1
 10
126.505716
 20
98.745112
 30
0.0
 10
129.509461
 20
104.763532
 30
0.0
 10
129.640197
 20
104.999935
 30
0.0
 10
130.172358
 20
105.374952
 30
0.0
  0
SPLINE
  5
251
100
AcDbEntity
  8
Layer_1
 62
7
100
AcDbSpline
 70
8
 71
3
 72
8
 73
4
 74
0
 40
0
 40
0
 40
0
 40
0
 40
1
 40
1
 40
1
 40
1
 10
130.172358
 20
105.374952
 30
0.0
 10
131.122951
 20
106.044835
 30
0.0
 10
132.063476
 20
106.266495
 30
0.0
 10
134.247630
 20
106.335388
 30
0.0
  0
SPLINE
  5
252
100
AcDbEntity
  8
Layer_1
 62
7
100
AcDbSpline
 70
8
 71
3
 72
8
 73
4
 74
0
 40
0
 40
0
 40
0
 40
0
 40
1
 40
1
 40
1
 40
1
 10
134.247630
 20
106.335388
 30
0.0
 10
135.950452
 20
106.389101
 30
0.0
 10
136.198074
 20
106.372509
 30
0.0
 10
136.377957
 20
106.192623
 30
0.0
  0
SPLINE
  5
253
100
AcDbEntity
  8
Layer_1
 62
7
100
AcDbSpline
 70
8
 71
3
 72
8
 73
4
 74
0
 40
0
 40
0
 40
0
 40
0
 40
1
 40
1
 40
1
 40
1
 10
136.377957
 20
106.192623
 30
0.0
 10
136.489900
 20
106.080674
 30
0.0
 10
136.581498
 20
105.866202
 30
0.0
 10
136.581498
 20
105.716018
 30
0.0
  0
SPLINE
  5
254
100
AcDbEntity
  8
Layer_1
 62
7
100
AcDbSpline
 70
8
 71
3
 72
8
 73
4
 74
0
 40
0
 40
0
 40
0
 40
0
 40
1
 40
1
 40
1
 40
1
 10
136.581498
 20
105.716018
 30
0.0
 10
136.581498
 20
105.565833
 30
0.0
 10
136.183757
 20
104.611044
 30
0.0
 10
135.697620
 20
103.594263
 30
0.0
  0
SPLINE
  5
255
100
AcDbEntity
  8
Layer_1
 62
7
100
AcDbSpline
 70
8
 71
3
 72
8
 73
4
 74
0
 40
0
 40
0
 40
0
 40
0
 40
1
 40
1
 40
1
 40
1
 10
135.697620
 20
103.594263
 30
0.0
 10
133.466527
 20
98.927749
 30
0.0
 10
130.871849
 20
92.724894
 30
0.0
 10
126.916744
 20
82.602639
 30
0.0
  0
SPLINE
  5
256
100
AcDbEntity
  8
Layer_1
 62
7
100
AcDbSpline
 70
8
 71
3
 72
8
 73
4
 74
0
 40
0
 40
0
 40
0
 40
0
 40
1
 40
1
 40
1
 40
1
 10
126.916744
 20
82.602639
 30
0.0
 10
122.257693
 20
70.678786
 30
0.0
 10
120.400945
 20
66.183415
 30
0.0
 10
117.916861
 20
60.813060
 30
0.0
  0
SPLINE
  5
257
100
AcDbEntity
  8
Layer_1
 62
7
100
AcDbSpline
 70
8
 71
3
 72
8
 73
4
 74
0
 40
0
 40
0
 40
0
 40
0
 40
1
 40
1
 40
1
 40
1
 10
117.916861
 20
60.813060
 30
0.0
 10
112.771157
 20
49.688520
 30
0.0
 10
107.328592
 20
41.033921
 30
0.0
 10
100.712425
 20
33.455106
 30
0.0
  0
SPLINE
  5
258
100
AcDbEntity
  8
Layer_1
 62
7
100
AcDbSpline
 70
8
 71
3
 72
8
 73
4
 74
0
 40
0
 40
0
 40
0
 40
0
 40
1
 40
1
 40
1
 40
1
 10
100.712425
 20
33.455106
 30
0.0
 10
97.927801
 20
30.265318
 30
0.0
 10
91.200755
 20
23.798272
 30
0.0
 10
88.154073
 20
21.382119
 30
0.0
  0
SPLINE
  5
259
100
AcDbEntity
  8
Layer_1
 62
7
100
AcDbSpline
 70
8
 71
3
 72
8
 73
4
 74
0
 40
0
 40
0
 40
0
 40
0
 40
1
 40
1
 40
1
 40
1
 10
88.154073
 20
21.382119
 30
0.0
 10
80.631535
 20
15.416430
 30
0.0
 10
70.824321
 20
11.500754
 30
0.0
 10
60.366540
 20
10.287509
 30
0.0
  0
SPLINE
  5
25a
100
AcDbEntity
  8
Layer_1
 62
7
100
AcDbSpline
 70
8
 71
3
 72
8
 73
4
 74
0
 40
0
 40
0
 40
0
 40
0
 40
1
 40
1
 40
1
 40
1
 10
60.366540
 20
10.287509
 30
0.0
 10
58.836396
 20
10.109992
 30
0.0
 10
53.023318
 20
9.960047
 30
0.0
 10
51.668477
 20
10.063143
 30
0.0
  0
LINE
  5
25b
100
AcDbEntity
  8
Layer_1
 62
7
100
AcDbLine
 10
51.668477
 20
10.063143
 30
0.0
 11
51.668477
 21
10.063143
 31
0.0
  0
LINE
  5
25c
100
AcDbEntity
  8
Layer_1
 62
7
100
AcDbLine
 10
90.524367
 20
102.235752
 30
0.0
 11
90.524358
 21
102.235752
 31
0.0
  0
LINE
  5
25d
100
AcDbEntity
  8
Layer_1
 62
7
100
AcDbLine
 10
149.783521
 20
158.053539
 30
0.0
 11
149.783521
 21
158.053539
 31
0.0
  0
SPLINE
  5
25e
100
AcDbEntity
  8
Layer_1
 62
7
100
AcDbSpline
 70
8
 71
3
 72
8
 73
4
 74
0
 40
0
 40
0
 40
0
 40
0
 40
1
 40
1
 40
1
 40
1
 10
158.319075
 20
158.577372
 30
0.0
 10
162.105151
 20
158.898526
 30
0.0
 10
164.734610
 20
159.713914
 30
0.0
 10
166.724358
 20
161.183829
 30
0.0
  0
SPLINE
  5
25f
100
AcDbEntity
  8
Layer_1
 62
7
100
AcDbSpline
 70
8
 71
3
 72
8
 73
4
 74
0
 40
0
 40
0
 40
0
 40
0
 40
1
 40
1
 40
1
 40
1
 10
166.724358
 20
161.183829
 30
0.0
 10
169.121043
 20
162.954365
 30
0.0
 10
170.329688
 20
166.287279
 30
0.0
 10
169.364547
 20
168.464310
 30
0.0
  0
SPLINE
  5
260
100
AcDbEntity
  8
Layer_1
 62
7
100
AcDbSpline
 70
8
 71
3
 72
8
 73
4
 74
0
 40
0
 40
0
 40
0
 40
0
 40
1
 40
1
 40
1
 40
1
 10
169.364547
 20
168.464310
 30
0.0
 10
168.748913
 20
169.852976
 30
0.0
 10
167.047387
 20
171.474947
 30
0.0
 10
165.324957
 20
172.315032
 30
0.0
  0
SPLINE
  5
261
100
AcDbEntity
  8
Layer_1
 62
7
100
AcDbSpline
 70
8
 71
3
 72
8
 73
4
 74
0
 40
0
 40
0
 40
0
 40
0
 40
1
 40
1
 40
1
 40
1
 10
165.324957
 20
172.315032
 30
0.0
 10
162.391779
 20
173.745634
 30
0.0
 10
156.503988
 20
174.613944
 30
0.0
 10
151.774855
 20
174.313349
 30
0.0
  0
SPLINE
  5
262
100
AcDbEntity
  8
Layer_1
 62
7
100
AcDbSpline
 70
8
 71
3
 72
8
 73
4
 74
0
 40
0
 40
0
 40
0
 40
0
 40
1
 40
1
 40
1
 40
1
 10
151.774855
 20
174.313349
 30
0.0
 10
142.712398
 20
173.737319
 30
0.0
 10
135.288960
 20
171.309570
 30
0.0
 10
128.869618
 20
166.822457
 30
0.0
  0
SPLINE
  5
263
100
AcDbEntity
  8
Layer_1
 62
7
100
AcDbSpline
 70
8
 71
3
 72
8
 73
4
 74
0
 40
0
 40
0
 40
0
 40
0
 40
1
 40
1
 40
1
 40
1
 10
128.869618
 20
166.822457
 30
0.0
 10
126.634407
 20
165.260047
 30
0.0
 10
124.579657
 20
163.306784
 30
0.0
 10
124.579657
 20
162.744386
 30
0.0
  0
SPLINE
  5
264
100
AcDbEntity
  8
Layer_1
 62
7
100
AcDbSpline
 70
8
 71
3
 72
8
 73
4
 74
0
 40
0
 40
0
 40
0
 40
0
 40
1
 40
1
 40
1
 40
1
 10
124.579657
 20
162.744386
 30
0.0
 10
124.579657
 20
162.615788
 30
0.0
 10
124.741562
 20
162.529612
 30
0.0
 10
125.089734
 20
162.472896
 30
0.0
  0
SPLINE
  5
265
100
AcDbEntity
  8
Layer_1
 62
7
100
AcDbSpline
 70
8
 71
3
 72
8
 73
4
 74
0
 40
0
 40
0
 40
0
 40
0
 40
1
 40
1
 40
1
 40
1
 10
125.089734
 20
162.472896
 30
0.0
 10
125.370277
 20
162.427196
 30
0.0
 10
127.598119
 20
161.988473
 30
0.0
 10
130.040493
 20
161.497957
 30
0.0
  0
SPLINE
  5
266
100
AcDbEntity
  8
Layer_1
 62
7
100
AcDbSpline
 70
8
 71
3
 72
8
 73
4
 74
0
 40
0
 40
0
 40
0
 40
0
 40
1
 40
1
 40
1
 40
1
 10
130.040493
 20
161.497957
 30
0.0
 10
140.525915
 20
159.392113
 30
0.0
 10
143.945610
 20
158.831854
 30
0.0
 10
148.583337
 20
158.460041
 30
0.0
  0
SPLINE
  5
267
100
AcDbEntity
  8
Layer_1
 62
7
100
AcDbSpline
 70
8
 71
3
 72
8
 73
4
 74
0
 40
0
 40
0
 40
0
 40
0
 40
1
 40
1
 40
1
 40
1
 10
148.583337
 20
158.460041
 30
0.0
 10
150.231946
 20
158.327867
 30
0.0
 10
156.229866
 20
158.400153
 30
0.0
 10
158.319075
 20
158.577372
 30
0.0
  0
LINE
  5
268
100
AcDbEntity
  8
Layer_1
 62
7
100
AcDbLine
 10
158.319075
 20
158.577372
 30
0.0
 11
158.319075
 21
158.577372
 31
0.0
  0
SPLINE
  5
269
100
AcDbEntity
  8
Layer_1
 62
7
100
AcDbSpline
 70
8
 71
3
 72
8
 73
4
 74
0
 40
0
 40
0
 40
0
 40
0
 40
1
 40
1
 40
1
 40
1
 10
135.506768
 20
71.685081
 30
0.0
 10
134.008159
 20
71.998378
 30
0.0
 10
132.618610
 20
73.123604
 30
0.0
 10
131.903478
 20
74.602917
 30
0.0
  0
SPLINE
  5
26a
100
AcDbEntity
  8
Layer_1
 62
7
100
AcDbSpline
 70
8
 71
3
 72
8
 73
4
 74
0
 40
0
 40
0
 40
0
 40
0
 40
1
 40
1
 40
1
 40
1
 10
131.903478
 20
74.602917
 30
0.0
 10
130.660400
 20
77.174351
 30
0.0
 10
130.442027
 20
80.649091
 30
0.0
 10
131.193294
 20
85.903146
 30
0.0
  0
SPLINE
  5
26b
100
AcDbEntity
  8
Layer_1
 62
7
100
AcDbSpline
 70
8
 71
3
 72
8
 73
4
 74
0
 40
0
 40
0
 40
0
 40
0
 40
1
 40
1
 40
1
 40
1
 10
131.193294
 20
85.903146
 30
0.0
 10
131.544698
 20
88.360714
 30
0.0
 10
131.730256
 20
89.162773
 30
0.0
 10
132.451627
 20
91.341847
 30
0.0
  0
SPLINE
  5
26c
100
AcDbEntity
  8
Layer_1
 62
7
100
AcDbSpline
 70
8
 71
3
 72
8
 73
4
 74
0
 40
0
 40
0
 40
0
 40
0
 40
1
 40
1
 40
1
 40
1
 10
132.451627
 20
91.341847
 30
0.0
 10
134.485580
 20
97.485958
 30
0.0
 10
137.354728
 20
102.419919
 30
0.0
 10
141.056515
 20
106.139362
 30
0.0
  0
SPLINE
  5
26d
100
AcDbEntity
  8
Layer_1
 62
7
100
AcDbSpline
 70
8
 71
3
 72
8
 73
4
 74
0
 40
0
 40
0
 40
0
 40
0
 40
1
 40
1
 40
1
 40
1
 10
141.056515
 20
106.139362
 30
0.0
 10
142.443448
 20
107.532897
 30
0.0
 10
143.258901
 20
108.150390
 30
0.0
 10
144.603202
 20
108.825054
 30
0.0
  0
SPLINE
  5
26e
100
AcDbEntity
  8
Layer_1
 62
7
100
AcDbSpline
 70
8
 71
3
 72
8
 73
4
 74
0
 40
0
 40
0
 40
0
 40
0
 40
1
 40
1
 40
1
 40
1
 10
144.603202
 20
108.825054
 30
0.0
 10
146.097732
 20
109.575105
 30
0.0
 10
147.380046
 20
109.755611
 30
0.0
 10
148.917036
 20
109.432295
 30
0.0
  0
SPLINE
  5
26f
100
AcDbEntity
  8
Layer_1
 62
7
100
AcDbSpline
 70
8
 71
3
 72
8
 73
4
 74
0
 40
0
 40
0
 40
0
 40
0
 40
1
 40
1
 40
1
 40
1
 10
148.917036
 20
109.432295
 30
0.0
 10
150.642983
 20
109.069230
 30
0.0
 10
152.182460
 20
108.205175
 30
0.0
 10
153.262601
 20
106.993279
 30
0.0
  0
SPLINE
  5
270
100
AcDbEntity
  8
Layer_1
 62
7
100
AcDbSpline
 70
8
 71
3
 72
8
 73
4
 74
0
 40
0
 40
0
 40
0
 40
0
 40
1
 40
1
 40
1
 40
1
 10
153.262601
 20
106.993279
 30
0.0
 10
154.016329
 20
106.147623
 30
0.0
 10
154.272364
 20
105.623864
 30
0.0
 10
154.639431
 20
104.176851
 30
0.0
  0
SPLINE
  5
271
100
AcDbEntity
  8
Layer_1
 62
7
100
AcDbSpline
 70
8
 71
3
 72
8
 73
4
 74
0
 40
0
 40
0
 40
0
 40
0
 40
1
 40
1
 40
1
 40
1
 10
154.639431
 20
104.176851
 30
0.0
 10
155.490743
 20
100.820893
 30
0.0
 10
155.233568
 20
97.083780
 30
0.0
 10
153.814374
 20
92.187334
 30
0.0
  0
SPLINE
  5
272
100
AcDbEntity
  8
Layer_1
 62
7
100
AcDbSpline
 70
8
 71
3
 72
8
 73
4
 74
0
 40
0
 40
0
 40
0
 40
0
 40
1
 40
1
 40
1
 40
1
 10
153.814374
 20
92.187334
 30
0.0
 10
152.160989
 20
86.482912
 30
0.0
 10
149.621040
 20
81.634687
 30
0.0
 10
146.199027
 20
77.651222
 30
0.0
  0
SPLINE
  5
273
100
AcDbEntity
  8
Layer_1
 62
7
100
AcDbSpline
 70
8
 71
3
 72
8
 73
4
 74
0
 40
0
 40
0
 40
0
 40
0
 40
1
 40
1
 40
1
 40
1
 10
146.199027
 20
77.651222
 30
0.0
 10
142.866872
 20
73.772371
 30
0.0
 10
138.139647
 20
71.134640
 30
0.0
 10
135.506768
 20
71.685081
 30
0.0
  0
LINE
  5
274
100
AcDbEntity
  8
Layer_1
 62
7
100
AcDbLine
 10
135.506768
 20
71.685081
 30
0.0
 11
135.506768
 21
71.685081
 31
0.0
  0
LINE
  5
275
100
AcDbEntity
  8
Layer_1
 62
7
100
AcDbLine
 10
138.029386
 20
72.277217
 30
0.0
 11
138.029400
 21
72.277217
 31
0.0
  0
LINE
  5
276
100
AcDbEntity
  8
Layer_1
 62
7
100
AcDbLine
 10
136.531762
 20
74.910113
 30
0.0
 11
136.531762
 21
74.910113
 31
0.0
  0
SPLINE
  5
277
100
AcDbEntity
  8
Layer_1
 62
7
100
AcDbSpline
 70
8
 71
3
 72
8
 73
4
 74
0
 40
0
 40
0
 40
0
 40
0
 40
1
 40
1
 40
1
 40
1
 10
137.620880
 20
75.502238
 30
0.0
 10
138.950864
 20
76.557221
 30
0.0
 10
140.244014
 20
78.106195
 30
0.0
 10
141.436350
 20
80.072525
 30
0.0
  0
SPLINE
  5
278
100
AcDbEntity
  8
Layer_1
 62
7
100
AcDbSpline
 70
8
 71
3
 72
8
 73
4
 74
0
 40
0
 40
0
 40
0
 40
0
 40
1
 40
1
 40
1
 40
1
 10
141.436350
 20
80.072525
 30
0.0
 10
143.821559
 20
84.006110
 30
0.0
 10
147.430620
 20
92.613504
 30
0.0
 10
148.695049
 20
97.384121
 30
0.0
  0
SPLINE
  5
279
100
AcDbEntity
  8
Layer_1
 62
7
100
AcDbSpline
 70
8
 71
3
 72
8
 73
4
 74
0
 40
0
 40
0
 40
0
 40
0
 40
1
 40
1
 40
1
 40
1
 10
148.695049
 20
97.384121
 30
0.0
 10
149.794454
 20
101.532135
 30
0.0
 10
150.130662
 20
106.148495
 30
0.0
 10
149.355008
 20
106.446138
 30
0.0
  0
SPLINE
  5
27a
100
AcDbEntity
  8
Layer_1
 62
7
100
AcDbSpline
 70
8
 71
3
 72
8
 73
4
 74
0
 40
0
 40
0
 40
0
 40
0
 40
1
 40
1
 40
1
 40
1
 10
149.355008
 20
106.446138
 30
0.0
 10
148.604328
 20
106.734202
 30
0.0
 10
146.050203
 20
104.115183
 30
0.0
 10
144.224556
 20
101.185315
 30
0.0
  0
SPLINE
  5
27b
100
AcDbEntity
  8
Layer_1
 62
7
100
AcDbSpline
 70
8
 71
3
 72
8
 73
4
 74
0
 40
0
 40
0
 40
0
 40
0
 40
1
 40
1
 40
1
 40
1
 10
144.224556
 20
101.185315
 30
0.0
 10
140.831601
 20
95.740193
 30
0.0
 10
138.469325
 20
89.640993
 30
0.0
 10
136.992273
 20
82.512138
 30
0.0
  0
SPLINE
  5
27c
100
AcDbEntity
  8
Layer_1
 62
7
100
AcDbSpline
 70
8
 71
3
 72
8
 73
4
 74
0
 40
0
 40
0
 40
0
 40
0
 40
1
 40
1
 40
1
 40
1
 10
136.992273
 20
82.512138
 30
0.0
 10
136.562773
 20
80.439219
 30
0.0
 10
136.247305
 20
77.000389
 30
0.0
 10
136.406402
 20
76.125794
 30
0.0
  0
SPLINE
  5
27d
100
AcDbEntity
  8
Layer_1
 62
7
100
AcDbSpline
 70
8
 71
3
 72
8
 73
4
 74
0
 40
0
 40
0
 40
0
 40
0
 40
1
 40
1
 40
1
 40
1
 10
136.406402
 20
76.125794
 30
0.0
 10
136.495959
 20
75.633460
 30
0.0
 10
136.783919
 20
75.041479
 30
0.0
 10
136.933858
 20
75.041479
 30
0.0
  0
SPLINE
  5
27e
100
AcDbEntity
  8
Layer_1
 62
7
100
AcDbSpline
 70
8
 71
3
 72
8
 73
4
 74
0
 40
0
 40
0
 40
0
 40
0
 40
1
 40
1
 40
1
 40
1
 10
136.933858
 20
75.041479
 30
0.0
 10
136.992247
 20
75.041479
 30
0.0
 10
137.301402
 20
75.248822
 30
0.0
 10
137.620880
 20
75.502238
 30
0.0
  0
LINE
  5
27f
100
AcDbEntity
  8
Layer_1
 62
7
100
AcDbLine
 10
137.620880
 20
75.502238
 30
0.0
 11
137.620880
 21
75.502238
 31
0.0
  0
SPLINE
  5
280
100
AcDbEntity
  8
Layer_1
 62
7
100
AcDbSpline
 70
8
 71
3
 72
8
 73
4
 74
0
 40
0
 40
0
 40
0
 40
0
 40
1
 40
1
 40
1
 40
1
 10
157.103863
 20
77.193932
 30
0.0
 10
154.315115
 20
78.042232
 30
0.0
 10
153.744727
 20
81.266051
 30
0.0
 10
155.371842
 20
86.983309
 30
0.0
  0
SPLINE
  5
281
100
AcDbEntity
  8
Layer_1
 62
7
100
AcDbSpline
 70
8
 71
3
 72
8
 73
4
 74
0
 40
0
 40
0
 40
0
 40
0
 40
1
 40
1
 40
1
 40
1
 10
155.371842
 20
86.983309
 30
0.0
 10
156.837002
 20
92.131491
 30
0.0
 10
159.534487
 20
100.100837
 30
0.0
 10
160.540110
 20
102.252237
 30
0.0
  0
SPLINE
  5
282
100
AcDbEntity
  8
Layer_1
 62
7
100
AcDbSpline
 70
8
 71
3
 72
8
 73
4
 74
0
 40
0
 40
0
 40
0
 40
0
 40
1
 40
1
 40
1
 40
1
 10
160.540110
 20
102.252237
 30
0.0
 10
160.762925
 20
102.728933
 30
0.0
 10
160.945232
 20
103.172758
 30
0.0
 10
160.945232
 20
103.238516
 30
0.0
  0
SPLINE
  5
283
100
AcDbEntity
  8
Layer_1
 62
7
100
AcDbSpline
 70
8
 71
3
 72
8
 73
4
 74
0
 40
0
 40
0
 40
0
 40
0
 40
1
 40
1
 40
1
 40
1
 10
160.945232
 20
103.238516
 30
0.0
 10
160.945232
 20
103.304276
 30
0.0
 10
161.162227
 20
104.021420
 30
0.0
 10
161.427442
 20
104.832177
 30
0.0
  0
SPLINE
  5
284
100
AcDbEntity
  8
Layer_1
 62
7
100
AcDbSpline
 70
8
 71
3
 72
8
 73
4
 74
0
 40
0
 40
0
 40
0
 40
0
 40
1
 40
1
 40
1
 40
1
 10
161.427442
 20
104.832177
 30
0.0
 10
161.945393
 20
106.415559
 30
0.0
 10
162.345762
 20
108.374317
 30
0.0
 10
162.184399
 20
108.535570
 30
0.0
  0
SPLINE
  5
285
100
AcDbEntity
  8
Layer_1
 62
7
100
AcDbSpline
 70
8
 71
3
 72
8
 73
4
 74
0
 40
0
 40
0
 40
0
 40
0
 40
1
 40
1
 40
1
 40
1
 10
162.184399
 20
108.535570
 30
0.0
 10
161.962544
 20
108.757284
 30
0.0
 10
161.160991
 20
108.161013
 30
0.0
 10
159.635879
 20
106.639751
 30
0.0
  0
SPLINE
  5
286
100
AcDbEntity
  8
Layer_1
 62
7
100
AcDbSpline
 70
8
 71
3
 72
8
 73
4
 74
0
 40
0
 40
0
 40
0
 40
0
 40
1
 40
1
 40
1
 40
1
 10
159.635879
 20
106.639751
 30
0.0
 10
158.449222
 20
105.456077
 30
0.0
 10
157.960579
 20
105.043818
 30
0.0
 10
157.775594
 20
105.070245
 30
0.0
  0
SPLINE
  5
287
100
AcDbEntity
  8
Layer_1
 62
7
100
AcDbSpline
 70
8
 71
3
 72
8
 73
4
 74
0
 40
0
 40
0
 40
0
 40
0
 40
1
 40
1
 40
1
 40
1
 10
157.775594
 20
105.070245
 30
0.0
 10
157.351713
 20
105.130802
 30
0.0
 10
157.390251
 20
105.673529
 30
0.0
 10
157.869580
 20
106.394237
 30
0.0
  0
SPLINE
  5
288
100
AcDbEntity
  8
Layer_1
 62
7
100
AcDbSpline
 70
8
 71
3
 72
8
 73
4
 74
0
 40
0
 40
0
 40
0
 40
0
 40
1
 40
1
 40
1
 40
1
 10
157.869580
 20
106.394237
 30
0.0
 10
158.848222
 20
107.865656
 30
0.0
 10
162.842327
 20
111.351583
 30
0.0
 10
164.731909
 20
112.383456
 30
0.0
  0
SPLINE
  5
289
100
AcDbEntity
  8
Layer_1
 62
7
100
AcDbSpline
 70
8
 71
3
 72
8
 73
4
 74
0
 40
0
 40
0
 40
0
 40
0
 40
1
 40
1
 40
1
 40
1
 10
164.731909
 20
112.383456
 30
0.0
 10
166.206802
 20
113.188873
 30
0.0
 10
167.726512
 20
113.292846
 30
0.0
 10
168.425704
 20
112.636172
 30
0.0
  0
SPLINE
  5
28a
100
AcDbEntity
  8
Layer_1
 62
7
100
AcDbSpline
 70
8
 71
3
 72
8
 73
4
 74
0
 40
0
 40
0
 40
0
 40
0
 40
1
 40
1
 40
1
 40
1
 10
168.425704
 20
112.636172
 30
0.0
 10
168.949980
 20
112.143787
 30
0.0
 10
169.106483
 20
111.658190
 30
0.0
 10
169.106483
 20
110.523908
 30
0.0
  0
SPLINE
  5
28b
100
AcDbEntity
  8
Layer_1
 62
7
100
AcDbSpline
 70
8
 71
3
 72
8
 73
4
 74
0
 40
0
 40
0
 40
0
 40
0
 40
1
 40
1
 40
1
 40
1
 10
169.106483
 20
110.523908
 30
0.0
 10
169.106483
 20
108.837723
 30
0.0
 10
168.447331
 20
106.691877
 30
0.0
 10
165.267143
 20
98.025002
 30
0.0
  0
SPLINE
  5
28c
100
AcDbEntity
  8
Layer_1
 62
7
100
AcDbSpline
 70
8
 71
3
 72
8
 73
4
 74
0
 40
0
 40
0
 40
0
 40
0
 40
1
 40
1
 40
1
 40
1
 10
165.267143
 20
98.025002
 30
0.0
 10
162.457344
 20
90.367548
 30
0.0
 10
161.360437
 20
86.867253
 30
0.0
 10
160.586256
 20
83.087965
 30
0.0
  0
SPLINE
  5
28d
100
AcDbEntity
  8
Layer_1
 62
7
100
AcDbSpline
 70
8
 71
3
 72
8
 73
4
 74
0
 40
0
 40
0
 40
0
 40
0
 40
1
 40
1
 40
1
 40
1
 10
160.586256
 20
83.087965
 30
0.0
 10
160.186057
 20
81.134332
 30
0.0
 10
160.150988
 20
80.759129
 30
0.0
 10
160.375146
 20
80.829366
 30
0.0
  0
SPLINE
  5
28e
100
AcDbEntity
  8
Layer_1
 62
7
100
AcDbSpline
 70
8
 71
3
 72
8
 73
4
 74
0
 40
0
 40
0
 40
0
 40
0
 40
1
 40
1
 40
1
 40
1
 10
160.375146
 20
80.829366
 30
0.0
 10
160.619465
 20
80.905919
 30
0.0
 10
162.981908
 20
83.788703
 30
0.0
 10
164.136208
 20
85.418821
 30
0.0
  0
SPLINE
  5
28f
100
AcDbEntity
  8
Layer_1
 62
7
100
AcDbSpline
 70
8
 71
3
 72
8
 73
4
 74
0
 40
0
 40
0
 40
0
 40
0
 40
1
 40
1
 40
1
 40
1
 10
164.136208
 20
85.418821
 30
0.0
 10
167.515170
 20
90.190635
 30
0.0
 10
170.592420
 20
96.469300
 30
0.0
 10
173.373415
 20
104.265960
 30
0.0
  0
SPLINE
  5
290
100
AcDbEntity
  8
Layer_1
 62
7
100
AcDbSpline
 70
8
 71
3
 72
8
 73
4
 74
0
 40
0
 40
0
 40
0
 40
0
 40
1
 40
1
 40
1
 40
1
 10
173.373415
 20
104.265960
 30
0.0
 10
175.782532
 20
111.020032
 30
0.0
 10
176.391025
 20
112.582930
 30
0.0
 10
176.777568
 20
113.009512
 30
0.0
  0
SPLINE
  5
291
100
AcDbEntity
  8
Layer_1
 62
7
100
AcDbSpline
 70
8
 71
3
 72
8
 73
4
 74
0
 40
0
 40
0
 40
0
 40
0
 40
1
 40
1
 40
1
 40
1
 10
176.777568
 20
113.009512
 30
0.0
 10
178.002441
 20
114.361252
 30
0.0
 10
180.760836
 20
115.598847
 30
0.0
 10
182.563857
 20
115.605612
 30
0.0
  0
SPLINE
  5
292
100
AcDbEntity
  8
Layer_1
 62
7
100
AcDbSpline
 70
8
 71
3
 72
8
 73
4
 74
0
 40
0
 40
0
 40
0
 40
0
 40
1
 40
1
 40
1
 40
1
 10
182.563857
 20
115.605612
 30
0.0
 10
183.314238
 20
115.608434
 30
0.0
 10
183.442189
 20
115.432534
 30
0.0
 10
183.347662
 20
114.528155
 30
0.0
  0
SPLINE
  5
293
100
AcDbEntity
  8
Layer_1
 62
7
100
AcDbSpline
 70
8
 71
3
 72
8
 73
4
 74
0
 40
0
 40
0
 40
0
 40
0
 40
1
 40
1
 40
1
 40
1
 10
183.347662
 20
114.528155
 30
0.0
 10
183.238783
 20
113.486445
 30
0.0
 10
182.523700
 20
111.411810
 30
0.0
 10
179.334787
 20
102.885747
 30
0.0
  0
SPLINE
  5
294
100
AcDbEntity
  8
Layer_1
 62
7
100
AcDbSpline
 70
8
 71
3
 72
8
 73
4
 74
0
 40
0
 40
0
 40
0
 40
0
 40
1
 40
1
 40
1
 40
1
 10
179.334787
 20
102.885747
 30
0.0
 10
175.611996
 20
92.932311
 30
0.0
 10
174.063951
 20
88.149273
 30
0.0
 10
173.483098
 20
84.805665
 30
0.0
  0
SPLINE
  5
295
100
AcDbEntity
  8
Layer_1
 62
7
100
AcDbSpline
 70
8
 71
3
 72
8
 73
4
 74
0
 40
0
 40
0
 40
0
 40
0
 40
1
 40
1
 40
1
 40
1
 10
173.483098
 20
84.805665
 30
0.0
 10
173.259829
 20
83.520422
 30
0.0
 10
173.292821
 20
82.885527
 30
0.0
 10
173.607857
 20
82.404719
 30
0.0
  0
LINE
  5
296
100
AcDbEntity
  8
Layer_1
 62
7
100
AcDbLine
 10
173.607857
 20
82.404719
 30
0.0
 11
173.799540
 21
82.112170
 31
0.0
  0
LINE
  5
297
100
AcDbEntity
  8
Layer_1
 62
7
100
AcDbLine
 10
173.799540
 20
82.112170
 30
0.0
 11
174.271392
 21
82.485880
 31
0.0
  0
SPLINE
  5
298
100
AcDbEntity
  8
Layer_1
 62
7
100
AcDbSpline
 70
8
 71
3
 72
8
 73
4
 74
0
 40
0
 40
0
 40
0
 40
0
 40
1
 40
1
 40
1
 40
1
 10
174.271392
 20
82.485880
 30
0.0
 10
174.930652
 20
83.008028
 30
0.0
 10
175.653105
 20
83.879827
 30
0.0
 10
177.068048
 20
85.860705
 30
0.0
  0
SPLINE
  5
299
100
AcDbEntity
  8
Layer_1
 62
7
100
AcDbSpline
 70
8
 71
3
 72
8
 73
4
 74
0
 40
0
 40
0
 40
0
 40
0
 40
1
 40
1
 40
1
 40
1
 10
177.068048
 20
85.860705
 30
0.0
 10
177.738964
 20
86.799963
 30
0.0
 10
178.355402
 20
87.589816
 30
0.0
 10
178.437915
 20
87.615933
 30
0.0
  0
SPLINE
  5
29a
100
AcDbEntity
  8
Layer_1
 62
7
100
AcDbSpline
 70
8
 71
3
 72
8
 73
4
 74
0
 40
0
 40
0
 40
0
 40
0
 40
1
 40
1
 40
1
 40
1
 10
178.437915
 20
87.615933
 30
0.0
 10
178.544753
 20
87.649746
 30
0.0
 10
178.587936
 20
87.484236
 30
0.0
 10
178.587936
 20
87.040961
 30
0.0
  0
SPLINE
  5
29b
100
AcDbEntity
  8
Layer_1
 62
7
100
AcDbSpline
 70
8
 71
3
 72
8
 73
4
 74
0
 40
0
 40
0
 40
0
 40
0
 40
1
 40
1
 40
1
 40
1
 10
178.587936
 20
87.040961
 30
0.0
 10
178.587936
 20
86.491122
 30
0.0
 10
178.488094
 20
86.241445
 30
0.0
 10
177.732027
 20
84.900633
 30
0.0
  0
SPLINE
  5
29c
100
AcDbEntity
  8
Layer_1
 62
7
100
AcDbSpline
 70
8
 71
3
 72
8
 73
4
 74
0
 40
0
 40
0
 40
0
 40
0
 40
1
 40
1
 40
1
 40
1
 10
177.732027
 20
84.900633
 30
0.0
 10
176.339968
 20
82.431951
 30
0.0
 10
175.619342
 20
81.402328
 30
0.0
 10
174.522889
 20
80.315524
 30
0.0
  0
SPLINE
  5
29d
100
AcDbEntity
  8
Layer_1
 62
7
100
AcDbSpline
 70
8
 71
3
 72
8
 73
4
 74
0
 40
0
 40
0
 40
0
 40
0
 40
1
 40
1
 40
1
 40
1
 10
174.522889
 20
80.315524
 30
0.0
 10
173.764157
 20
79.563461
 30
0.0
 10
173.245978
 20
79.167331
 30
0.0
 10
172.586873
 20
78.835503
 30
0.0
  0
SPLINE
  5
29e
100
AcDbEntity
  8
Layer_1
 62
7
100
AcDbSpline
 70
8
 71
3
 72
8
 73
4
 74
0
 40
0
 40
0
 40
0
 40
0
 40
1
 40
1
 40
1
 40
1
 10
172.586873
 20
78.835503
 30
0.0
 10
171.759897
 20
78.419163
 30
0.0
 10
171.631119
 20
78.388522
 30
0.0
 10
170.999545
 20
78.457855
 30
0.0
  0
SPLINE
  5
29f
100
AcDbEntity
  8
Layer_1
 62
7
100
AcDbSpline
 70
8
 71
3
 72
8
 73
4
 74
0
 40
0
 40
0
 40
0
 40
0
 40
1
 40
1
 40
1
 40
1
 10
170.999545
 20
78.457855
 30
0.0
 10
170.024733
 20
78.564863
 30
0.0
 10
169.174425
 20
78.840391
 30
0.0
 10
168.770757
 20
79.180056
 30
0.0
  0
SPLINE
  5
2a0
100
AcDbEntity
  8
Layer_1
 62
7
100
AcDbSpline
 70
8
 71
3
 72
8
 73
4
 74
0
 40
0
 40
0
 40
0
 40
0
 40
1
 40
1
 40
1
 40
1
 10
168.770757
 20
79.180056
 30
0.0
 10
168.333530
 20
79.547961
 30
0.0
 10
167.829176
 20
80.661161
 30
0.0
 10
167.587651
 20
81.791377
 30
0.0
  0
SPLINE
  5
2a1
100
AcDbEntity
  8
Layer_1
 62
7
100
AcDbSpline
 70
8
 71
3
 72
8
 73
4
 74
0
 40
0
 40
0
 40
0
 40
0
 40
1
 40
1
 40
1
 40
1
 10
167.587651
 20
81.791377
 30
0.0
 10
167.354335
 20
82.883221
 30
0.0
 10
167.433546
 20
85.147084
 30
0.0
 10
167.777544
 20
87.218541
 30
0.0
  0
SPLINE
  5
2a2
100
AcDbEntity
  8
Layer_1
 62
7
100
AcDbSpline
 70
8
 71
3
 72
8
 73
4
 74
0
 40
0
 40
0
 40
0
 40
0
 40
1
 40
1
 40
1
 40
1
 10
167.777544
 20
87.218541
 30
0.0
 10
167.908653
 20
88.008018
 30
0.0
 10
167.997705
 20
88.672175
 30
0.0
 10
167.975441
 20
88.694442
 30
0.0
  0
SPLINE
  5
2a3
100
AcDbEntity
  8
Layer_1
 62
7
100
AcDbSpline
 70
8
 71
3
 72
8
 73
4
 74
0
 40
0
 40
0
 40
0
 40
0
 40
1
 40
1
 40
1
 40
1
 10
167.975441
 20
88.694442
 30
0.0
 10
167.953174
 20
88.716709
 30
0.0
 10
167.593521
 20
88.178788
 30
0.0
 10
167.176216
 20
87.499062
 30
0.0
  0
SPLINE
  5
2a4
100
AcDbEntity
  8
Layer_1
 62
7
100
AcDbSpline
 70
8
 71
3
 72
8
 73
4
 74
0
 40
0
 40
0
 40
0
 40
0
 40
1
 40
1
 40
1
 40
1
 10
167.176216
 20
87.499062
 30
0.0
 10
164.459804
 20
83.074492
 30
0.0
 10
162.870735
 20
80.921545
 30
0.0
 10
160.764519
 20
78.812239
 30
0.0
  0
SPLINE
  5
2a5
100
AcDbEntity
  8
Layer_1
 62
7
100
AcDbSpline
 70
8
 71
3
 72
8
 73
4
 74
0
 40
0
 40
0
 40
0
 40
0
 40
1
 40
1
 40
1
 40
1
 10
160.764519
 20
78.812239
 30
0.0
 10
159.111795
 20
77.157073
 30
0.0
 10
158.966572
 20
77.069881
 30
0.0
 10
157.899766
 20
77.092109
 30
0.0
  0
SPLINE
  5
2a6
100
AcDbEntity
  8
Layer_1
 62
7
100
AcDbSpline
 70
8
 71
3
 72
8
 73
4
 74
0
 40
0
 40
0
 40
0
 40
0
 40
1
 40
1
 40
1
 40
1
 10
157.899766
 20
77.092109
 30
0.0
 10
157.627481
 20
77.097781
 30
0.0
 10
157.269321
 20
77.143603
 30
0.0
 10
157.103863
 20
77.193932
 30
0.0
  0
LINE
  5
2a7
100
AcDbEntity
  8
Layer_1
 62
7
100
AcDbLine
 10
157.103863
 20
77.193932
 30
0.0
 11
157.103863
 21
77.193932
 31
0.0
  0
LINE
  5
2a8
100
AcDbEntity
  8
Layer_1
 62
7
100
AcDbLine
 10
158.828133
 20
77.555475
 30
0.0
 11
158.828097
 21
77.555475
 31
0.0
  0
SPLINE
  5
2a9
100
AcDbEntity
  8
Layer_1
 62
7
100
AcDbSpline
 70
8
 71
3
 72
8
 73
4
 74
0
 40
0
 40
0
 40
0
 40
0
 40
1
 40
1
 40
1
 40
1
 10
123.523886
 20
110.592914
 30
0.0
 10
123.025944
 20
110.789092
 30
0.0
 10
122.826749
 20
110.949964
 30
0.0
 10
122.604713
 20
111.335243
 30
0.0
  0
SPLINE
  5
2aa
100
AcDbEntity
  8
Layer_1
 62
7
100
AcDbSpline
 70
8
 71
3
 72
8
 73
4
 74
0
 40
0
 40
0
 40
0
 40
0
 40
1
 40
1
 40
1
 40
1
 10
122.604713
 20
111.335243
 30
0.0
 10
121.138030
 20
113.880241
 30
0.0
 10
121.602921
 20
118.880220
 30
0.0
 10
123.929688
 20
125.585571
 30
0.0
  0
SPLINE
  5
2ab
100
AcDbEntity
  8
Layer_1
 62
7
100
AcDbSpline
 70
8
 71
3
 72
8
 73
4
 74
0
 40
0
 40
0
 40
0
 40
0
 40
1
 40
1
 40
1
 40
1
 10
123.929688
 20
125.585571
 30
0.0
 10
126.385729
 20
132.663479
 30
0.0
 10
130.009386
 20
138.347694
 30
0.0
 10
134.384607
 20
141.985572
 30
0.0
  0
SPLINE
  5
2ac
100
AcDbEntity
  8
Layer_1
 62
7
100
AcDbSpline
 70
8
 71
3
 72
8
 73
4
 74
0
 40
0
 40
0
 40
0
 40
0
 40
1
 40
1
 40
1
 40
1
 10
134.384607
 20
141.985572
 30
0.0
 10
138.178317
 20
145.139939
 30
0.0
 10
141.172969
 20
146.456099
 30
0.0
 10
144.543278
 20
146.450339
 30
0.0
  0
SPLINE
  5
2ad
100
AcDbEntity
  8
Layer_1
 62
7
100
AcDbSpline
 70
8
 71
3
 72
8
 73
4
 74
0
 40
0
 40
0
 40
0
 40
0
 40
1
 40
1
 40
1
 40
1
 10
144.543278
 20
146.450339
 30
0.0
 10
145.214072
 20
146.449210
 30
0.0
 10
146.122514
 20
146.372039
 30
0.0
 10
146.562036
 20
146.278881
 30
0.0
  0
SPLINE
  5
2ae
100
AcDbEntity
  8
Layer_1
 62
7
100
AcDbSpline
 70
8
 71
3
 72
8
 73
4
 74
0
 40
0
 40
0
 40
0
 40
0
 40
1
 40
1
 40
1
 40
1
 10
146.562036
 20
146.278881
 30
0.0
 10
147.347700
 20
146.112358
 30
0.0
 10
147.376072
 20
146.115299
 30
0.0
 10
148.246902
 20
146.453441
 30
0.0
  0
SPLINE
  5
2af
100
AcDbEntity
  8
Layer_1
 62
7
100
AcDbSpline
 70
8
 71
3
 72
8
 73
4
 74
0
 40
0
 40
0
 40
0
 40
0
 40
1
 40
1
 40
1
 40
1
 10
148.246902
 20
146.453441
 30
0.0
 10
149.322434
 20
146.871073
 30
0.0
 10
151.504345
 20
147.320532
 30
0.0
 10
152.209308
 20
147.269673
 30
0.0
  0
SPLINE
  5
2b0
100
AcDbEntity
  8
Layer_1
 62
7
100
AcDbSpline
 70
8
 71
3
 72
8
 73
4
 74
0
 40
0
 40
0
 40
0
 40
0
 40
1
 40
1
 40
1
 40
1
 10
152.209308
 20
147.269673
 30
0.0
 10
152.694832
 20
147.234646
 30
0.0
 10
152.726119
 20
147.210144
 30
0.0
 10
152.761992
 20
146.836941
 30
0.0
  0
SPLINE
  5
2b1
100
AcDbEntity
  8
Layer_1
 62
7
100
AcDbSpline
 70
8
 71
3
 72
8
 73
4
 74
0
 40
0
 40
0
 40
0
 40
0
 40
1
 40
1
 40
1
 40
1
 10
152.761992
 20
146.836941
 30
0.0
 10
152.791998
 20
146.524809
 30
0.0
 10
152.547797
 20
145.967711
 30
0.0
 10
151.604619
 20
144.196538
 30
0.0
  0
SPLINE
  5
2b2
100
AcDbEntity
  8
Layer_1
 62
7
100
AcDbSpline
 70
8
 71
3
 72
8
 73
4
 74
0
 40
0
 40
0
 40
0
 40
0
 40
1
 40
1
 40
1
 40
1
 10
151.604619
 20
144.196538
 30
0.0
 10
150.157451
 20
141.478921
 30
0.0
 10
146.837981
 20
134.851155
 30
0.0
 10
145.745812
 20
132.498661
 30
0.0
  0
SPLINE
  5
2b3
100
AcDbEntity
  8
Layer_1
 62
7
100
AcDbSpline
 70
8
 71
3
 72
8
 73
4
 74
0
 40
0
 40
0
 40
0
 40
0
 40
1
 40
1
 40
1
 40
1
 10
145.745812
 20
132.498661
 30
0.0
 10
143.499981
 20
127.661183
 30
0.0
 10
141.044910
 20
121.929016
 30
0.0
 10
140.464800
 20
120.168395
 30
0.0
  0
SPLINE
  5
2b4
100
AcDbEntity
  8
Layer_1
 62
7
100
AcDbSpline
 70
8
 71
3
 72
8
 73
4
 74
0
 40
0
 40
0
 40
0
 40
0
 40
1
 40
1
 40
1
 40
1
 10
140.464800
 20
120.168395
 30
0.0
 10
140.024897
 20
118.833326
 30
0.0
 10
139.874069
 20
117.585655
 30
0.0
 10
140.080320
 20
116.987908
 30
0.0
  0
SPLINE
  5
2b5
100
AcDbEntity
  8
Layer_1
 62
7
100
AcDbSpline
 70
8
 71
3
 72
8
 73
4
 74
0
 40
0
 40
0
 40
0
 40
0
 40
1
 40
1
 40
1
 40
1
 10
140.080320
 20
116.987908
 30
0.0
 10
140.221366
 20
116.579163
 30
0.0
 10
140.290256
 20
116.513925
 30
0.0
 10
140.544059
 20
116.548833
 30
0.0
  0
SPLINE
  5
2b6
100
AcDbEntity
  8
Layer_1
 62
7
100
AcDbSpline
 70
8
 71
3
 72
8
 73
4
 74
0
 40
0
 40
0
 40
0
 40
0
 40
1
 40
1
 40
1
 40
1
 10
140.544059
 20
116.548833
 30
0.0
 10
141.129258
 20
116.629320
 30
0.0
 10
142.192093
 20
117.312038
 30
0.0
 10
143.482712
 20
118.436484
 30
0.0
  0
SPLINE
  5
2b7
100
AcDbEntity
  8
Layer_1
 62
7
100
AcDbSpline
 70
8
 71
3
 72
8
 73
4
 74
0
 40
0
 40
0
 40
0
 40
0
 40
1
 40
1
 40
1
 40
1
 10
143.482712
 20
118.436484
 30
0.0
 10
144.874432
 20
119.649021
 30
0.0
 10
145.248794
 20
119.802429
 30
0.0
 10
145.319747
 20
119.189267
 30
0.0
  0
SPLINE
  5
2b8
100
AcDbEntity
  8
Layer_1
 62
7
100
AcDbSpline
 70
8
 71
3
 72
8
 73
4
 74
0
 40
0
 40
0
 40
0
 40
0
 40
1
 40
1
 40
1
 40
1
 10
145.319747
 20
119.189267
 30
0.0
 10
145.350713
 20
118.921560
 30
0.0
 10
145.085545
 20
118.588201
 30
0.0
 10
143.671307
 20
117.117011
 30
0.0
  0
SPLINE
  5
2b9
100
AcDbEntity
  8
Layer_1
 62
7
100
AcDbSpline
 70
8
 71
3
 72
8
 73
4
 74
0
 40
0
 40
0
 40
0
 40
0
 40
1
 40
1
 40
1
 40
1
 10
143.671307
 20
117.117011
 30
0.0
 10
140.496042
 20
113.813837
 30
0.0
 10
139.485762
 20
113.135530
 30
0.0
 10
137.539005
 20
112.999722
 30
0.0
  0
SPLINE
  5
2ba
100
AcDbEntity
  8
Layer_1
 62
7
100
AcDbSpline
 70
8
 71
3
 72
8
 73
4
 74
0
 40
0
 40
0
 40
0
 40
0
 40
1
 40
1
 40
1
 40
1
 10
137.539005
 20
112.999722
 30
0.0
 10
136.682000
 20
112.939939
 30
0.0
 10
136.616003
 20
112.953753
 30
0.0
 10
136.237644
 20
113.272120
 30
0.0
  0
SPLINE
  5
2bb
100
AcDbEntity
  8
Layer_1
 62
7
100
AcDbSpline
 70
8
 71
3
 72
8
 73
4
 74
0
 40
0
 40
0
 40
0
 40
0
 40
1
 40
1
 40
1
 40
1
 10
136.237644
 20
113.272120
 30
0.0
 10
135.396760
 20
113.979679
 30
0.0
 10
134.842910
 20
115.295362
 30
0.0
 10
134.708753
 20
116.904060
 30
0.0
  0
LINE
  5
2bc
100
AcDbEntity
  8
Layer_1
 62
7
100
AcDbLine
 10
134.708753
 20
116.904060
 30
0.0
 11
134.627981
 21
117.872588
 31
0.0
  0
LINE
  5
2bd
100
AcDbEntity
  8
Layer_1
 62
7
100
AcDbLine
 10
134.627981
 20
117.872588
 30
0.0
 11
134.330623
 21
117.430249
 31
0.0
  0
SPLINE
  5
2be
100
AcDbEntity
  8
Layer_1
 62
7
100
AcDbSpline
 70
8
 71
3
 72
8
 73
4
 74
0
 40
0
 40
0
 40
0
 40
0
 40
1
 40
1
 40
1
 40
1
 10
134.330623
 20
117.430249
 30
0.0
 10
133.243221
 20
115.812648
 30
0.0
 10
131.290317
 20
113.763251
 30
0.0
 10
129.743773
 20
112.616774
 30
0.0
  0
SPLINE
  5
2bf
100
AcDbEntity
  8
Layer_1
 62
7
100
AcDbSpline
 70
8
 71
3
 72
8
 73
4
 74
0
 40
0
 40
0
 40
0
 40
0
 40
1
 40
1
 40
1
 40
1
 10
129.743773
 20
112.616774
 30
0.0
 10
128.069083
 20
111.375296
 30
0.0
 10
125.708094
 20
110.317809
 30
0.0
 10
124.648649
 20
110.334672
 30
0.0
  0
SPLINE
  5
2c0
100
AcDbEntity
  8
Layer_1
 62
7
100
AcDbSpline
 70
8
 71
3
 72
8
 73
4
 74
0
 40
0
 40
0
 40
0
 40
0
 40
1
 40
1
 40
1
 40
1
 10
124.648649
 20
110.334672
 30
0.0
 10
124.379668
 20
110.338962
 30
0.0
 10
123.873525
 20
110.455161
 30
0.0
 10
123.523886
 20
110.592914
 30
0.0
  0
LINE
  5
2c1
100
AcDbEntity
  8
Layer_1
 62
7
100
AcDbLine
 10
123.523886
 20
110.592914
 30
0.0
 11
123.523886
 21
110.592914
 31
0.0
  0
LINE
  5
2c2
100
AcDbEntity
  8
Layer_1
 62
7
100
AcDbLine
 10
125.813631
 20
110.934095
 30
0.0
 11
125.813631
 21
110.934103
 31
0.0
  0
LINE
  5
2c3
100
AcDbEntity
  8
Layer_1
 62
7
100
AcDbLine
 10
127.910395
 20
114.137472
 30
0.0
 11
127.910395
 21
114.137472
 31
0.0
  0
SPLINE
  5
2c4
100
AcDbEntity
  8
Layer_1
 62
7
100
AcDbSpline
 70
8
 71
3
 72
8
 73
4
 74
0
 40
0
 40
0
 40
0
 40
0
 40
1
 40
1
 40
1
 40
1
 10
128.972330
 20
114.506695
 30
0.0
 10
129.923848
 20
115.196269
 30
0.0
 10
132.157380
 20
117.859509
 30
0.0
 10
133.487699
 20
119.890764
 30
0.0
  0
SPLINE
  5
2c5
100
AcDbEntity
  8
Layer_1
 62
7
100
AcDbSpline
 70
8
 71
3
 72
8
 73
4
 74
0
 40
0
 40
0
 40
0
 40
0
 40
1
 40
1
 40
1
 40
1
 10
133.487699
 20
119.890764
 30
0.0
 10
135.242619
 20
122.570351
 30
0.0
 10
136.536142
 20
125.180136
 30
0.0
 10
139.098031
 20
131.210088
 30
0.0
  0
SPLINE
  5
2c6
100
AcDbEntity
  8
Layer_1
 62
7
100
AcDbSpline
 70
8
 71
3
 72
8
 73
4
 74
0
 40
0
 40
0
 40
0
 40
0
 40
1
 40
1
 40
1
 40
1
 10
139.098031
 20
131.210088
 30
0.0
 10
141.114484
 20
135.956213
 30
0.0
 10
142.452784
 20
138.768208
 30
0.0
 10
143.714814
 20
140.910673
 30
0.0
  0
SPLINE
  5
2c7
100
AcDbEntity
  8
Layer_1
 62
7
100
AcDbSpline
 70
8
 71
3
 72
8
 73
4
 74
0
 40
0
 40
0
 40
0
 40
0
 40
1
 40
1
 40
1
 40
1
 10
143.714814
 20
140.910673
 30
0.0
 10
144.915345
 20
142.948726
 30
0.0
 10
144.990862
 20
143.402808
 30
0.0
 10
144.163034
 20
143.605937
 30
0.0
  0
SPLINE
  5
2c8
100
AcDbEntity
  8
Layer_1
 62
7
100
AcDbSpline
 70
8
 71
3
 72
8
 73
4
 74
0
 40
0
 40
0
 40
0
 40
0
 40
1
 40
1
 40
1
 40
1
 10
144.163034
 20
143.605937
 30
0.0
 10
143.422977
 20
143.787533
 30
0.0
 10
141.440453
 20
142.530278
 30
0.0
 10
139.807950
 20
140.844085
 30
0.0
  0
SPLINE
  5
2c9
100
AcDbEntity
  8
Layer_1
 62
7
100
AcDbSpline
 70
8
 71
3
 72
8
 73
4
 74
0
 40
0
 40
0
 40
0
 40
0
 40
1
 40
1
 40
1
 40
1
 10
139.807950
 20
140.844085
 30
0.0
 10
135.908277
 20
136.816130
 30
0.0
 10
132.901253
 20
132.007899
 30
0.0
 10
130.530888
 20
126.010079
 30
0.0
  0
SPLINE
  5
2ca
100
AcDbEntity
  8
Layer_1
 62
7
100
AcDbSpline
 70
8
 71
3
 72
8
 73
4
 74
0
 40
0
 40
0
 40
0
 40
0
 40
1
 40
1
 40
1
 40
1
 10
130.530888
 20
126.010079
 30
0.0
 10
128.610247
 20
121.150181
 30
0.0
 10
127.749150
 20
117.410192
 30
0.0
 10
128.056648
 20
115.263683
 30
0.0
  0
SPLINE
  5
2cb
100
AcDbEntity
  8
Layer_1
 62
7
100
AcDbSpline
 70
8
 71
3
 72
8
 73
4
 74
0
 40
0
 40
0
 40
0
 40
0
 40
1
 40
1
 40
1
 40
1
 10
128.056648
 20
115.263683
 30
0.0
 10
128.237999
 20
113.997770
 30
0.0
 10
128.252988
 20
113.985383
 30
0.0
 10
128.972330
 20
114.506695
 30
0.0
  0
LINE
  5
2cc
100
AcDbEntity
  8
Layer_1
 62
7
100
AcDbLine
 10
128.972330
 20
114.506695
 30
0.0
 11
128.972330
 21
114.506695
 31
0.0
  0
ENDSEC
  0
SECTION
  2
OBJECTS
  0
DICTIONARY
  5
C
330
0
100
AcDbDictionary
  3
ACAD_GROUP
350
D
  3
ACAD_MLINESTYLE
350
17
  0
DICTIONARY
  5
D
330
C
100
AcDbDictionary
  0
DICTIONARY
  5
1A
330
C
100
AcDbDictionary
  0
DICTIONARY
  5
17
330
C
100
AcDbDictionary
  3
STANDARD
350
18
  0
DICTIONARY
  5
19
330
C
100
AcDbDictionary
  0
ENDSEC
  0
EOF
