<?xml version="1.0" encoding="utf-8"?>
<!-- Generator: Adobe Illustrator 25.4.1, SVG Export Plug-In . SVG Version: 6.00 Build 0)  -->
<svg version="1.0" id="Layer_1" xmlns="http://www.w3.org/2000/svg" xmlns:xlink="http://www.w3.org/1999/xlink" x="0px" y="0px"
	 viewBox="0 0 112.41 129.8" style="enable-background:new 0 0 112.41 129.8;" xml:space="preserve">
<g>
	<path d="M28.49,1c2.03,3.75,4.07,7.51,6.36,11.73c-4.77,2.77-9.45,5.48-14.61,8.47c1.48,2.66,2.87,5.18,4.53,8.16
		c17.84-10.3,36.2-12.27,55.02-4c12.31,5.41,21.25,14.38,27.08,26.55c11.11,23.19,3.36,51.41-18.39,66.11
		c-23,15.55-54.86,12.46-73.02-7.25C4.79,99.2-0.7,85.62,0.73,69.77c1.42-15.79,9.01-28.4,21.34-38.42
		c-3.81-6.82-7.44-13.3-11.25-20.11C16.38,7.83,21.93,4.41,27.49,1C27.83,1,28.16,1,28.49,1z M72.86,62.23
		c-1.37-9.78-2.42-19.61-4.2-29.32c-1.65-9.02-2-8.97-10.97-9.25C23.07,22.56-2.78,53.6,5.43,86.4
		c6.42,25.64,34.28,43.01,60.35,37.32c1.77-0.39,3.92-3.07,4.31-5c1.26-6.28,1.81-12.7,2.58-19.08c0.31-2.58-0.38-4.3-2.86-6.08
		c-6.74-4.86-7.78-13.88-1.73-18.81C72.59,71.07,73,67.15,72.86,62.23z M86.7,83c-0.09-5.2-4.45-9.45-9.57-9.36
		c-5.11,0.1-9.45,4.48-9.45,9.55c0,5.33,4.57,9.73,9.9,9.54C82.86,92.55,86.79,88.34,86.7,83z M18.66,18.24
		c4.26-2.46,8.02-4.63,11.87-6.85c-1.29-2.14-2.29-3.79-3.41-5.65c-2.1,1.09-3.99,2.02-5.82,3.05c-1.98,1.1-3.9,2.3-6.03,3.56
		C16.4,14.32,17.37,16,18.66,18.24z"/>
	<path style="fill:#FFFFFF;" d="M72.86,62.23c0.14,4.92-0.27,8.84-4.79,12.52c-6.05,4.93-5,13.95,1.73,18.81
		c2.48,1.78,3.17,3.5,2.86,6.08c-0.78,6.37-1.32,12.8-2.58,19.08c-0.39,1.93-2.53,4.62-4.31,5c-26.06,5.69-53.92-11.68-60.35-37.32
		C-2.78,53.6,23.07,22.56,57.7,23.66c8.97,0.28,9.32,0.24,10.97,9.25C70.44,42.61,71.49,52.45,72.86,62.23z M29.94,44.48
		c-8.06,0.08-13.76,5.77-13.74,13.72c0.02,7.99,6.24,13.99,14.36,13.83c7.42-0.14,13.93-6.89,13.73-14.23
		C44.08,50.09,37.96,44.41,29.94,44.48z M34.85,90.33c-5.95,0.06-10.59,4.59-10.52,10.27c0.06,5.34,4.8,9.93,10.36,10.03
		c5.65,0.1,10.76-4.7,10.8-10.13C45.52,94.86,40.72,90.27,34.85,90.33z"/>
	<path style="fill:#FFFFFF;" d="M86.7,83c0.1,5.35-3.84,9.55-9.12,9.74c-5.33,0.19-9.9-4.21-9.9-9.54c0-5.07,4.34-9.45,9.45-9.55
		C82.25,73.54,86.6,77.8,86.7,83z"/>
	<path style="fill:#FFFFFF;" d="M18.66,18.24c-1.29-2.24-2.26-3.92-3.4-5.89c2.13-1.26,4.05-2.46,6.03-3.56
		c1.84-1.03,3.73-1.96,5.82-3.05c1.12,1.86,2.12,3.51,3.41,5.65C26.68,13.61,22.93,15.77,18.66,18.24z"/>
	<path d="M29.94,44.48c8.03-0.08,14.14,5.6,14.36,13.32c0.2,7.34-6.31,14.1-13.73,14.23c-8.12,0.15-14.34-5.84-14.36-13.83
		C16.17,50.26,21.88,44.56,29.94,44.48z M30.05,68.68c6.21,0.03,10.65-4.41,10.64-10.63c-0.01-6.12-4.6-10.61-10.76-10.53
		c-5.76,0.07-10.4,4.67-10.51,10.42C19.29,63.97,23.93,68.66,30.05,68.68z"/>
	<path d="M34.85,90.33c5.86-0.06,10.67,4.53,10.64,10.17c-0.03,5.43-5.15,10.24-10.8,10.13c-5.56-0.1-10.3-4.69-10.36-10.03
		C24.27,94.91,28.91,90.38,34.85,90.33z M34.94,93.44c-3.74-0.04-7.48,3.59-7.41,7.16c0.08,3.48,3.47,6.52,7.34,6.57
		c3.84,0.04,7.26-2.93,7.45-6.49C42.5,97.15,38.76,93.47,34.94,93.44z"/>
	<path style="fill:#FFFFFF;" d="M30.05,68.68c-6.12-0.03-10.76-4.71-10.64-10.74c0.11-5.75,4.75-10.35,10.51-10.42
		c6.16-0.08,10.75,4.41,10.76,10.53C40.7,64.27,36.26,68.71,30.05,68.68z"/>
	<path style="fill:#FFFFFF;" d="M34.94,93.44c3.82,0.04,7.56,3.71,7.38,7.24c-0.19,3.56-3.6,6.53-7.45,6.49
		c-3.87-0.04-7.26-3.08-7.34-6.57C27.46,97.02,31.2,93.4,34.94,93.44z"/>
</g>
</svg>
