<?xml version="1.0" encoding="UTF-8" standalone="no"?>
<!-- Created with Inkscape (http://www.inkscape.org/) -->

<svg
   xmlns:dc="http://purl.org/dc/elements/1.1/"
   xmlns:cc="http://creativecommons.org/ns#"
   xmlns:rdf="http://www.w3.org/1999/02/22-rdf-syntax-ns#"
   xmlns:svg="http://www.w3.org/2000/svg"
   xmlns="http://www.w3.org/2000/svg"
   xmlns:sodipodi="http://sodipodi.sourceforge.net/DTD/sodipodi-0.dtd"
   xmlns:inkscape="http://www.inkscape.org/namespaces/inkscape"
   width="210mm"
   height="297mm"
   viewBox="0 0 744.09448819 1052.3622047"
   id="svg2"
   version="1.1"
   inkscape:version="0.91 r13725"
   sodipodi:docname="m4 calibration.svg">
  <defs
     id="defs4" />
  <sodipodi:namedview
     id="base"
     pagecolor="#ffffff"
     bordercolor="#666666"
     borderopacity="1.0"
     inkscape:pageopacity="0.0"
     inkscape:pageshadow="2"
     inkscape:zoom="0.98994949"
     inkscape:cx="361.80948"
     inkscape:cy="783.96771"
     inkscape:document-units="px"
     inkscape:current-layer="layer1"
     showgrid="false"
     inkscape:window-width="1320"
     inkscape:window-height="878"
     inkscape:window-x="285"
     inkscape:window-y="36"
     inkscape:window-maximized="0" />
  <metadata
     id="metadata7">
    <rdf:RDF>
      <cc:Work
         rdf:about="">
        <dc:format>image/svg+xml</dc:format>
        <dc:type
           rdf:resource="http://purl.org/dc/dcmitype/StillImage" />
        <dc:title></dc:title>
      </cc:Work>
    </rdf:RDF>
  </metadata>
  <g
     inkscape:label="Layer 1"
     inkscape:groupmode="layer"
     id="layer1">
    <path
       style="fill:none;fill-opacity:1;stroke:#000000;stroke-width:2.0298686;stroke-miterlimit:4;stroke-dasharray:none"
       d="M 337.94377,979.13708 C 293.71063,970.65878 258.20683,952.93886 227.515,924.02198 109.87458,813.18502 153.54237,618.1339 307.39417,567.22538 c 24.2136,-8.01213 41.09499,-9.96022 75.34385,-8.69458 35.32657,1.30545 50.52829,4.87245 79.94058,18.75769 56.6751,26.75571 96.55555,73.7276 115.32938,135.83701 5.10212,16.87932 5.52616,21.0217 5.60784,54.78036 0.10279,42.51745 -2.97838,57.85678 -18.01239,89.67254 -11.92607,25.23851 -21.44496,39.13587 -40.25137,58.7659 -27.62668,28.83676 -62.01373,48.92396 -100.55126,58.73748 -24.70435,6.29075 -65.30374,8.18635 -86.85703,4.0553 z"
       id="path3344"
       inkscape:connector-curvature="0" />
    <path
       style="fill:none;fill-rule:evenodd;stroke:#000000;stroke-width:0.98029393px;stroke-linecap:butt;stroke-linejoin:miter;stroke-opacity:1"
       d="m 369.51718,0.0099988 2.04,99.9811522"
       id="path4156"
       inkscape:connector-curvature="0" />
  </g>
</svg>
