  0
SECTION
  2
HEADER
  9
$ACADVER
  1
AC1014
  9
$HANDSEED
  5
FFFF
  9
$MEASUREMENT
 70
     1
  0
ENDSEC
  0
SECTION
  2
TABLES
  0
TABLE
  2
VPORT
  5
8
330
0
100
AcDbSymbolTable
 70
     4
  0
VPORT
  5
2E
330
8
100
AcDbSymbolTableRecord
100
AcDbViewportTableRecord
  2
*ACTIVE
 70
     0
 10
0.0
 20
0.0
 11
1.0
 21
1.0
 12
210.0
 22
148.5
 13
0.0
 23
0.0
 14
10.0
 24
10.0
 15
10.0
 25
10.0
 16
0.0
 26
0.0
 36
1.0
 17
0.0
 27
0.0
 37
0.0
 40
341.0
 41
1.24
 42
50.0
 43
0.0
 44
0.0
 50
0.0
 51
0.0
 71
     0
 72
   100
 73
     1
 74
     3
 75
     0
 76
     0
 77
     0
 78
     0
  0
ENDTAB
  0
TABLE
  2
LTYPE
  5
5
330
0
100
AcDbSymbolTable
 70
     1
  0
LTYPE
  5
14
330
5
100
AcDbSymbolTableRecord
100
AcDbLinetypeTableRecord
  2
BYBLOCK
 70
     0
  3

 72
    65
 73
     0
 40
0.0
  0
LTYPE
  5
15
330
5
100
AcDbSymbolTableRecord
100
AcDbLinetypeTableRecord
  2
BYLAYER
 70
     0
  3

 72
    65
 73
     0
 40
0.0
  0
LTYPE
  5
16
330
5
100
AcDbSymbolTableRecord
100
AcDbLinetypeTableRecord
  2
CONTINUOUS
 70
     0
  3
Solid line
 72
    65
 73
     0
 40
0.0
  0
ENDTAB
  0
TABLE
  2
LAYER
  5
2
100
AcDbSymbolTable
 70
2
  0
LAYER
  5
50
100
AcDbSymbolTableRecord
100
AcDbLayerTableRecord
  2
0
 70
0
  6
CONTINUOUS
  0
LAYER
  5
51
100
AcDbSymbolTableRecord
100
AcDbLayerTableRecord
  2
Layer_1
 70
0
  6
CONTINUOUS
  0
ENDTAB
  0
TABLE
  2
STYLE
  5
3
330
0
100
AcDbSymbolTable
 70
     1
  0
STYLE
  5
11
330
3
100
AcDbSymbolTableRecord
100
AcDbTextStyleTableRecord
  2
STANDARD
 70
     0
 40
0.0
 41
1.0
 50
0.0
 71
     0
 42
2.5
  3
txt
  4

  0
ENDTAB
  0
TABLE
  2
VIEW
  5
6
330
0
100
AcDbSymbolTable
 70
     0
  0
ENDTAB
  0
TABLE
  2
UCS
  5
7
330
0
100
AcDbSymbolTable
 70
     0
  0
ENDTAB
  0
TABLE
  2
APPID
  5
9
330
0
100
AcDbSymbolTable
 70
     2
  0
APPID
  5
12
330
9
100
AcDbSymbolTableRecord
100
AcDbRegAppTableRecord
  2
ACAD
 70
     0
  0
ENDTAB
  0
TABLE
  2
DIMSTYLE
  5
A
330
0
100
AcDbSymbolTable
 70
     1
  0
DIMSTYLE
105
27
330
A
100
AcDbSymbolTableRecord
100
AcDbDimStyleTableRecord
  2
ISO-25
 70
     0
  3

  4

  5

  6

  7

 40
1.0
 41
2.5
 42
0.625
 43
3.75
 44
1.25
 45
0.0
 46
0.0
 47
0.0
 48
0.0
140
2.5
141
2.5
142
0.0
143
0.03937007874016
144
1.0
145
0.0
146
1.0
147
0.625
 71
     0
 72
     0
 73
     0
 74
     0
 75
     0
 76
     0
 77
     1
 78
     8
170
     0
171
     3
172
     1
173
     0
174
     0
175
     0
176
     0
177
     0
178
     0
270
     2
271
     2
272
     2
273
     2
274
     3
340
11
275
     0
280
     0
281
     0
282
     0
283
     0
284
     8
285
     0
286
     0
287
     3
288
     0
  0
ENDTAB
  0
TABLE
  2
BLOCK_RECORD
  5
1
330
0
100
AcDbSymbolTable
 70
     1
  0
BLOCK_RECORD
  5
1F
330
1
100
AcDbSymbolTableRecord
100
AcDbBlockTableRecord
  2
*MODEL_SPACE
  0
BLOCK_RECORD
  5
1B
330
1
100
AcDbSymbolTableRecord
100
AcDbBlockTableRecord
  2
*PAPER_SPACE
  0
ENDTAB
  0
ENDSEC
  0
SECTION
  2
BLOCKS
  0
BLOCK
  5
20
330
1F
100
AcDbEntity
  8
0
100
AcDbBlockBegin
  2
*MODEL_SPACE
 70
     0
 10
0.0
 20
0.0
 30
0.0
  3
*MODEL_SPACE
  1

  0
ENDBLK
  5
21
330
1F
100
AcDbEntity
  8
0
100
AcDbBlockEnd
  0
BLOCK
  5
1C
330
1B
100
AcDbEntity
 67
     1
  8
0
100
AcDbBlockBegin
  2
*PAPER_SPACE
  1

  0
ENDBLK
  5
1D
330
1B
100
AcDbEntity
 67
     1
  8
0
100
AcDbBlockEnd
  0
ENDSEC
  0
SECTION
  2
ENTITIES
  0
SPLINE
  5
100
100
AcDbEntity
  8
Layer_1
 62
7
100
AcDbSpline
 70
8
 71
3
 72
8
 73
4
 74
0
 40
0
 40
0
 40
0
 40
0
 40
1
 40
1
 40
1
 40
1
 10
29.580417
 20
34.012986
 30
0.0
 10
29.069671
 20
33.998471
 30
0.0
 10
28.595853
 20
33.901751
 30
0.0
 10
28.169306
 20
33.721944
 30
0.0
  0
SPLINE
  5
101
100
AcDbEntity
  8
Layer_1
 62
7
100
AcDbSpline
 70
8
 71
3
 72
8
 73
4
 74
0
 40
0
 40
0
 40
0
 40
0
 40
1
 40
1
 40
1
 40
1
 10
28.169306
 20
33.721944
 30
0.0
 10
25.850295
 20
32.575050
 30
0.0
 10
23.267044
 20
29.956843
 30
0.0
 10
20.408194
 20
25.872639
 30
0.0
  0
SPLINE
  5
102
100
AcDbEntity
  8
Layer_1
 62
7
100
AcDbSpline
 70
8
 71
3
 72
8
 73
4
 74
0
 40
0
 40
0
 40
0
 40
0
 40
1
 40
1
 40
1
 40
1
 10
20.408194
 20
25.872639
 30
0.0
 10
17.549317
 20
21.788330
 30
0.0
 10
14.783272
 20
17.213951
 30
0.0
 10
12.117917
 20
12.131944
 30
0.0
  0
SPLINE
  5
103
100
AcDbEntity
  8
Layer_1
 62
7
100
AcDbSpline
 70
8
 71
3
 72
8
 73
4
 74
0
 40
0
 40
0
 40
0
 40
0
 40
1
 40
1
 40
1
 40
1
 10
12.117917
 20
12.131944
 30
0.0
 10
9.452543
 20
7.049856
 30
0.0
 10
7.250632
 20
2.434450
 30
0.0
 10
5.512153
 20
-1.705750
 30
0.0
  0
SPLINE
  5
104
100
AcDbEntity
  8
Layer_1
 62
7
100
AcDbSpline
 70
8
 71
3
 72
8
 73
4
 74
0
 40
0
 40
0
 40
0
 40
0
 40
1
 40
1
 40
1
 40
1
 10
5.512153
 20
-1.705750
 30
0.0
 10
4.894714
 20
-3.176212
 30
0.0
 10
4.385585
 20
-4.452873
 30
0.0
 10
3.977569
 20
-5.559861
 30
0.0
  0
SPLINE
  5
105
100
AcDbEntity
  8
Layer_1
 62
7
100
AcDbSpline
 70
8
 71
3
 72
8
 73
4
 74
0
 40
0
 40
0
 40
0
 40
0
 40
1
 40
1
 40
1
 40
1
 10
3.977569
 20
-5.559861
 30
0.0
 10
1.620483
 20
-7.789360
 30
0.0
 10
-0.579624
 20
-9.469429
 30
0.0
 10
-2.610556
 20
-10.586944
 30
0.0
  0
SPLINE
  5
106
100
AcDbEntity
  8
Layer_1
 62
7
100
AcDbSpline
 70
8
 71
3
 72
8
 73
4
 74
0
 40
0
 40
0
 40
0
 40
0
 40
1
 40
1
 40
1
 40
1
 10
-2.610556
 20
-10.586944
 30
0.0
 10
-4.767227
 20
-11.773689
 30
0.0
 10
-6.372594
 20
-12.201622
 30
0.0
 10
-7.425972
 20
-11.865750
 30
0.0
  0
SPLINE
  5
107
100
AcDbEntity
  8
Layer_1
 62
7
100
AcDbSpline
 70
8
 71
3
 72
8
 73
4
 74
0
 40
0
 40
0
 40
0
 40
0
 40
1
 40
1
 40
1
 40
1
 10
-7.425972
 20
-11.865750
 30
0.0
 10
-7.357138
 20
-11.817716
 30
0.0
 10
-6.862072
 20
-11.333281
 30
0.0
 10
-5.944306
 20
-10.419361
 30
0.0
  0
SPLINE
  5
108
100
AcDbEntity
  8
Layer_1
 62
7
100
AcDbSpline
 70
8
 71
3
 72
8
 73
4
 74
0
 40
0
 40
0
 40
0
 40
0
 40
1
 40
1
 40
1
 40
1
 10
-5.944306
 20
-10.419361
 30
0.0
 10
-5.026553
 20
-9.505497
 30
0.0
 10
-4.097940
 20
-8.446882
 30
0.0
 10
-3.157361
 20
-7.244361
 30
0.0
  0
SPLINE
  5
109
100
AcDbEntity
  8
Layer_1
 62
7
100
AcDbSpline
 70
8
 71
3
 72
8
 73
4
 74
0
 40
0
 40
0
 40
0
 40
0
 40
1
 40
1
 40
1
 40
1
 10
-3.157361
 20
-7.244361
 30
0.0
 10
-2.216802
 20
-6.041897
 30
0.0
 10
-1.671858
 20
-4.983281
 30
0.0
 10
-1.534583
 20
-4.069361
 30
0.0
  0
SPLINE
  5
10a
100
AcDbEntity
  8
Layer_1
 62
7
100
AcDbSpline
 70
8
 71
3
 72
8
 73
4
 74
0
 40
0
 40
0
 40
0
 40
0
 40
1
 40
1
 40
1
 40
1
 10
-1.534583
 20
-4.069361
 30
0.0
 10
-1.481856
 20
-2.677441
 30
0.0
 10
-1.936058
 20
-1.482371
 30
0.0
 10
-2.883958
 20
-0.471028
 30
0.0
  0
SPLINE
  5
10b
100
AcDbEntity
  8
Layer_1
 62
7
100
AcDbSpline
 70
8
 71
3
 72
8
 73
4
 74
0
 40
0
 40
0
 40
0
 40
0
 40
1
 40
1
 40
1
 40
1
 10
-2.883958
 20
-0.471028
 30
0.0
 10
-3.831873
 20
0.540259
 30
0.0
 10
-4.775652
 20
1.076764
 30
0.0
 10
-5.715000
 20
1.125278
 30
0.0
  0
SPLINE
  5
10c
100
AcDbEntity
  8
Layer_1
 62
7
100
AcDbSpline
 70
8
 71
3
 72
8
 73
4
 74
0
 40
0
 40
0
 40
0
 40
0
 40
1
 40
1
 40
1
 40
1
 10
-5.715000
 20
1.125278
 30
0.0
 10
-6.831112
 20
1.054355
 30
0.0
 10
-8.138685
 20
0.226908
 30
0.0
 10
-9.639653
 20
-1.344167
 30
0.0
  0
SPLINE
  5
10d
100
AcDbEntity
  8
Layer_1
 62
7
100
AcDbSpline
 70
8
 71
3
 72
8
 73
4
 74
0
 40
0
 40
0
 40
0
 40
0
 40
1
 40
1
 40
1
 40
1
 10
-9.639653
 20
-1.344167
 30
0.0
 10
-11.140625
 20
-2.915270
 30
0.0
 10
-12.090640
 20
-4.803449
 30
0.0
 10
-12.488333
 20
-7.023889
 30
0.0
  0
SPLINE
  5
10e
100
AcDbEntity
  8
Layer_1
 62
7
100
AcDbSpline
 70
8
 71
3
 72
8
 73
4
 74
0
 40
0
 40
0
 40
0
 40
0
 40
1
 40
1
 40
1
 40
1
 10
-12.488333
 20
-7.023889
 30
0.0
 10
-12.648824
 20
-8.820149
 30
0.0
 10
-12.229706
 20
-10.510095
 30
0.0
 10
-11.244792
 20
-12.077416
 30
0.0
  0
SPLINE
  5
10f
100
AcDbEntity
  8
Layer_1
 62
7
100
AcDbSpline
 70
8
 71
3
 72
8
 73
4
 74
0
 40
0
 40
0
 40
0
 40
0
 40
1
 40
1
 40
1
 40
1
 10
-11.244792
 20
-12.077416
 30
0.0
 10
-10.259877
 20
-13.644794
 30
0.0
 10
-9.115807
 20
-14.887560
 30
0.0
 10
-7.796389
 20
-15.808056
 30
0.0
  0
SPLINE
  5
110
100
AcDbEntity
  8
Layer_1
 62
7
100
AcDbSpline
 70
8
 71
3
 72
8
 73
4
 74
0
 40
0
 40
0
 40
0
 40
0
 40
1
 40
1
 40
1
 40
1
 10
-7.796389
 20
-15.808056
 30
0.0
 10
-6.476980
 20
-16.728608
 30
0.0
 10
-5.393850
 20
-17.116551
 30
0.0
 10
-4.550833
 20
-16.972222
 30
0.0
  0
SPLINE
  5
111
100
AcDbEntity
  8
Layer_1
 62
7
100
AcDbSpline
 70
8
 71
3
 72
8
 73
4
 74
0
 40
0
 40
0
 40
0
 40
0
 40
1
 40
1
 40
1
 40
1
 10
-4.550833
 20
-16.972222
 30
0.0
 10
-2.683536
 20
-16.393808
 30
0.0
 10
-0.789743
 20
-14.927494
 30
0.0
 10
1.128889
 20
-12.580139
 30
0.0
  0
SPLINE
  5
112
100
AcDbEntity
  8
Layer_1
 62
7
100
AcDbSpline
 70
8
 71
3
 72
8
 73
4
 74
0
 40
0
 40
0
 40
0
 40
0
 40
1
 40
1
 40
1
 40
1
 10
1.128889
 20
-12.580139
 30
0.0
 10
1.752676
 20
-11.816982
 30
0.0
 10
2.322750
 20
-11.076487
 30
0.0
 10
2.839861
 20
-10.348805
 30
0.0
  0
SPLINE
  5
113
100
AcDbEntity
  8
Layer_1
 62
7
100
AcDbSpline
 70
8
 71
3
 72
8
 73
4
 74
0
 40
0
 40
0
 40
0
 40
0
 40
1
 40
1
 40
1
 40
1
 10
2.839861
 20
-10.348805
 30
0.0
 10
3.058271
 20
-12.344229
 30
0.0
 10
3.846877
 20
-13.711032
 30
0.0
 10
5.212292
 20
-14.441028
 30
0.0
  0
SPLINE
  5
114
100
AcDbEntity
  8
Layer_1
 62
7
100
AcDbSpline
 70
8
 71
3
 72
8
 73
4
 74
0
 40
0
 40
0
 40
0
 40
0
 40
1
 40
1
 40
1
 40
1
 10
5.212292
 20
-14.441028
 30
0.0
 10
6.699005
 20
-15.235963
 30
0.0
 10
8.103759
 20
-15.484177
 30
0.0
 10
9.427986
 20
-15.181861
 30
0.0
  0
SPLINE
  5
115
100
AcDbEntity
  8
Layer_1
 62
7
100
AcDbSpline
 70
8
 71
3
 72
8
 73
4
 74
0
 40
0
 40
0
 40
0
 40
0
 40
1
 40
1
 40
1
 40
1
 10
9.427986
 20
-15.181861
 30
0.0
 10
10.840572
 20
-14.732196
 30
0.0
 10
12.427227
 20
-13.612480
 30
0.0
 10
14.190486
 20
-11.830472
 30
0.0
  0
SPLINE
  5
116
100
AcDbEntity
  8
Layer_1
 62
7
100
AcDbSpline
 70
8
 71
3
 72
8
 73
4
 74
0
 40
0
 40
0
 40
0
 40
0
 40
1
 40
1
 40
1
 40
1
 10
14.190486
 20
-11.830472
 30
0.0
 10
14.968851
 20
-11.043862
 30
0.0
 10
15.722534
 20
-10.228748
 30
0.0
 10
16.465903
 20
-9.396305
 30
0.0
  0
SPLINE
  5
117
100
AcDbEntity
  8
Layer_1
 62
7
100
AcDbSpline
 70
8
 71
3
 72
8
 73
4
 74
0
 40
0
 40
0
 40
0
 40
0
 40
1
 40
1
 40
1
 40
1
 10
16.465903
 20
-9.396305
 30
0.0
 10
16.442874
 20
-9.544726
 30
0.0
 10
16.429358
 20
-9.680475
 30
0.0
 10
16.421806
 20
-9.802028
 30
0.0
  0
SPLINE
  5
118
100
AcDbEntity
  8
Layer_1
 62
7
100
AcDbSpline
 70
8
 71
3
 72
8
 73
4
 74
0
 40
0
 40
0
 40
0
 40
0
 40
1
 40
1
 40
1
 40
1
 10
16.421806
 20
-9.802028
 30
0.0
 10
16.548665
 20
-12.097116
 30
0.0
 10
17.351615
 20
-13.646205
 30
0.0
 10
18.838333
 20
-14.441028
 30
0.0
  0
SPLINE
  5
119
100
AcDbEntity
  8
Layer_1
 62
7
100
AcDbSpline
 70
8
 71
3
 72
8
 73
4
 74
0
 40
0
 40
0
 40
0
 40
0
 40
1
 40
1
 40
1
 40
1
 10
18.838333
 20
-14.441028
 30
0.0
 10
20.325047
 20
-15.235963
 30
0.0
 10
21.729801
 20
-15.484177
 30
0.0
 10
23.054028
 20
-15.181861
 30
0.0
  0
SPLINE
  5
11a
100
AcDbEntity
  8
Layer_1
 62
7
100
AcDbSpline
 70
8
 71
3
 72
8
 73
4
 74
0
 40
0
 40
0
 40
0
 40
0
 40
1
 40
1
 40
1
 40
1
 10
23.054028
 20
-15.181861
 30
0.0
 10
24.466613
 20
-14.732196
 30
0.0
 10
26.053269
 20
-13.612480
 30
0.0
 10
27.816528
 20
-11.830472
 30
0.0
  0
SPLINE
  5
11b
100
AcDbEntity
  8
Layer_1
 62
7
100
AcDbSpline
 70
8
 71
3
 72
8
 73
4
 74
0
 40
0
 40
0
 40
0
 40
0
 40
1
 40
1
 40
1
 40
1
 10
27.816528
 20
-11.830472
 30
0.0
 10
28.667696
 20
-10.970287
 30
0.0
 10
29.503110
 20
-10.081992
 30
0.0
 10
30.312431
 20
-9.167028
 30
0.0
  0
SPLINE
  5
11c
100
AcDbEntity
  8
Layer_1
 62
7
100
AcDbSpline
 70
8
 71
3
 72
8
 73
4
 74
0
 40
0
 40
0
 40
0
 40
0
 40
1
 40
1
 40
1
 40
1
 10
30.312431
 20
-9.167028
 30
0.0
 10
30.294092
 20
-9.319230
 30
0.0
 10
30.273873
 20
-9.472364
 30
0.0
 10
30.259514
 20
-9.625639
 30
0.0
  0
SPLINE
  5
11d
100
AcDbEntity
  8
Layer_1
 62
7
100
AcDbSpline
 70
8
 71
3
 72
8
 73
4
 74
0
 40
0
 40
0
 40
0
 40
0
 40
1
 40
1
 40
1
 40
1
 10
30.259514
 20
-9.625639
 30
0.0
 10
30.199646
 20
-12.183786
 30
0.0
 10
30.999478
 20
-14.139134
 30
0.0
 10
32.667222
 20
-15.499361
 30
0.0
  0
SPLINE
  5
11e
100
AcDbEntity
  8
Layer_1
 62
7
100
AcDbSpline
 70
8
 71
3
 72
8
 73
4
 74
0
 40
0
 40
0
 40
0
 40
0
 40
1
 40
1
 40
1
 40
1
 10
32.667222
 20
-15.499361
 30
0.0
 10
34.334966
 20
-16.859616
 30
0.0
 10
35.792720
 20
-17.326270
 30
0.0
 10
37.032847
 20
-16.884028
 30
0.0
  0
SPLINE
  5
11f
100
AcDbEntity
  8
Layer_1
 62
7
100
AcDbSpline
 70
8
 71
3
 72
8
 73
4
 74
0
 40
0
 40
0
 40
0
 40
0
 40
1
 40
1
 40
1
 40
1
 10
37.032847
 20
-16.884028
 30
0.0
 10
38.262981
 20
-16.380233
 30
0.0
 10
39.320066
 20
-15.661328
 30
0.0
 10
40.216667
 20
-14.732083
 30
0.0
  0
SPLINE
  5
120
100
AcDbEntity
  8
Layer_1
 62
7
100
AcDbSpline
 70
8
 71
3
 72
8
 73
4
 74
0
 40
0
 40
0
 40
0
 40
0
 40
1
 40
1
 40
1
 40
1
 10
40.216667
 20
-14.732083
 30
0.0
 10
41.113247
 20
-13.802867
 30
0.0
 10
41.850189
 20
-12.724496
 30
0.0
 10
42.430347
 20
-11.504167
 30
0.0
  0
SPLINE
  5
121
100
AcDbEntity
  8
Layer_1
 62
7
100
AcDbSpline
 70
8
 71
3
 72
8
 73
4
 74
0
 40
0
 40
0
 40
0
 40
0
 40
1
 40
1
 40
1
 40
1
 10
42.430347
 20
-11.504167
 30
0.0
 10
44.678230
 20
-11.104879
 30
0.0
 10
46.515370
 20
-10.272013
 30
0.0
 10
47.933681
 20
-8.999444
 30
0.0
  0
SPLINE
  5
122
100
AcDbEntity
  8
Layer_1
 62
7
100
AcDbSpline
 70
8
 71
3
 72
8
 73
4
 74
0
 40
0
 40
0
 40
0
 40
0
 40
1
 40
1
 40
1
 40
1
 10
47.933681
 20
-8.999444
 30
0.0
 10
49.351957
 20
-7.726904
 30
0.0
 10
50.417865
 20
-6.260591
 30
0.0
 10
51.126319
 20
-4.607361
 30
0.0
  0
SPLINE
  5
123
100
AcDbEntity
  8
Layer_1
 62
7
100
AcDbSpline
 70
8
 71
3
 72
8
 73
4
 74
0
 40
0
 40
0
 40
0
 40
0
 40
1
 40
1
 40
1
 40
1
 10
51.126319
 20
-4.607361
 30
0.0
 10
51.478380
 20
-3.736000
 30
0.0
 10
51.475262
 20
-3.152703
 30
0.0
 10
51.117500
 20
-2.852306
 30
0.0
  0
SPLINE
  5
124
100
AcDbEntity
  8
Layer_1
 62
7
100
AcDbSpline
 70
8
 71
3
 72
8
 73
4
 74
0
 40
0
 40
0
 40
0
 40
0
 40
1
 40
1
 40
1
 40
1
 10
51.117500
 20
-2.852306
 30
0.0
 10
50.759701
 20
-2.551908
 30
0.0
 10
50.192186
 20
-2.926954
 30
0.0
 10
49.415347
 20
-3.981195
 30
0.0
  0
SPLINE
  5
125
100
AcDbEntity
  8
Layer_1
 62
7
100
AcDbSpline
 70
8
 71
3
 72
8
 73
4
 74
0
 40
0
 40
0
 40
0
 40
0
 40
1
 40
1
 40
1
 40
1
 10
49.415347
 20
-3.981195
 30
0.0
 10
48.805248
 20
-4.957091
 30
0.0
 10
47.974239
 20
-5.760098
 30
0.0
 10
46.919444
 20
-6.388889
 30
0.0
  0
SPLINE
  5
126
100
AcDbEntity
  8
Layer_1
 62
7
100
AcDbSpline
 70
8
 71
3
 72
8
 73
4
 74
0
 40
0
 40
0
 40
0
 40
0
 40
1
 40
1
 40
1
 40
1
 10
46.919444
 20
-6.388889
 30
0.0
 10
45.864611
 20
-7.017736
 30
0.0
 10
44.751944
 20
-7.264596
 30
0.0
 10
43.594514
 20
-7.120917
 30
0.0
  0
SPLINE
  5
127
100
AcDbEntity
  8
Layer_1
 62
7
100
AcDbSpline
 70
8
 71
3
 72
8
 73
4
 74
0
 40
0
 40
0
 40
0
 40
0
 40
1
 40
1
 40
1
 40
1
 10
43.594514
 20
-7.120917
 30
0.0
 10
43.668623
 20
-5.658074
 30
0.0
 10
43.458138
 20
-4.371452
 30
0.0
 10
42.950694
 20
-3.266806
 30
0.0
  0
SPLINE
  5
128
100
AcDbEntity
  8
Layer_1
 62
7
100
AcDbSpline
 70
8
 71
3
 72
8
 73
4
 74
0
 40
0
 40
0
 40
0
 40
0
 40
1
 40
1
 40
1
 40
1
 10
42.950694
 20
-3.266806
 30
0.0
 10
42.443233
 20
-2.162216
 30
0.0
 10
41.603408
 20
-1.414807
 30
0.0
 10
40.445972
 20
-1.026667
 30
0.0
  0
SPLINE
  5
129
100
AcDbEntity
  8
Layer_1
 62
7
100
AcDbSpline
 70
8
 71
3
 72
8
 73
4
 74
0
 40
0
 40
0
 40
0
 40
0
 40
1
 40
1
 40
1
 40
1
 10
40.445972
 20
-1.026667
 30
0.0
 10
40.326231
 20
-0.302738
 30
0.0
 10
40.024787
 20
0.264923
 30
0.0
 10
39.528750
 20
0.675472
 30
0.0
  0
SPLINE
  5
12a
100
AcDbEntity
  8
Layer_1
 62
7
100
AcDbSpline
 70
8
 71
3
 72
8
 73
4
 74
0
 40
0
 40
0
 40
0
 40
0
 40
1
 40
1
 40
1
 40
1
 10
39.528750
 20
0.675472
 30
0.0
 10
39.032691
 20
1.085964
 30
0.0
 10
38.449589
 20
1.294188
 30
0.0
 10
37.782500
 20
1.301667
 30
0.0
  0
SPLINE
  5
12b
100
AcDbEntity
  8
Layer_1
 62
7
100
AcDbSpline
 70
8
 71
3
 72
8
 73
4
 74
0
 40
0
 40
0
 40
0
 40
0
 40
1
 40
1
 40
1
 40
1
 10
37.782500
 20
1.301667
 30
0.0
 10
35.728456
 20
1.148646
 30
0.0
 10
34.019682
 20
-0.069454
 30
0.0
 10
32.658403
 20
-2.349583
 30
0.0
  0
SPLINE
  5
12c
100
AcDbEntity
  8
Layer_1
 62
7
100
AcDbSpline
 70
8
 71
3
 72
8
 73
4
 74
0
 40
0
 40
0
 40
0
 40
0
 40
1
 40
1
 40
1
 40
1
 10
32.658403
 20
-2.349583
 30
0.0
 10
32.117642
 20
-3.255376
 30
0.0
 10
31.664171
 20
-4.184818
 30
0.0
 10
31.300208
 20
-5.136528
 30
0.0
  0
SPLINE
  5
12d
100
AcDbEntity
  8
Layer_1
 62
7
100
AcDbSpline
 70
8
 71
3
 72
8
 73
4
 74
0
 40
0
 40
0
 40
0
 40
0
 40
1
 40
1
 40
1
 40
1
 10
31.300208
 20
-5.136528
 30
0.0
 10
30.568756
 20
-5.633211
 30
0.0
 10
29.611783
 20
-6.289942
 30
0.0
 10
28.178125
 20
-7.288472
 30
0.0
  0
SPLINE
  5
12e
100
AcDbEntity
  8
Layer_1
 62
7
100
AcDbSpline
 70
8
 71
3
 72
8
 73
4
 74
0
 40
0
 40
0
 40
0
 40
0
 40
1
 40
1
 40
1
 40
1
 10
28.178125
 20
-7.288472
 30
0.0
 10
26.571499
 20
-8.407483
 30
0.0
 10
25.046569
 20
-9.422326
 30
0.0
 10
23.592014
 20
-10.322361
 30
0.0
  0
SPLINE
  5
12f
100
AcDbEntity
  8
Layer_1
 62
7
100
AcDbSpline
 70
8
 71
3
 72
8
 73
4
 74
0
 40
0
 40
0
 40
0
 40
0
 40
1
 40
1
 40
1
 40
1
 10
23.592014
 20
-10.322361
 30
0.0
 10
22.137440
 20
-11.222452
 30
0.0
 10
21.276527
 20
-11.584036
 30
0.0
 10
21.007917
 20
-11.415972
 30
0.0
  0
SPLINE
  5
130
100
AcDbEntity
  8
Layer_1
 62
7
100
AcDbSpline
 70
8
 71
3
 72
8
 73
4
 74
0
 40
0
 40
0
 40
0
 40
0
 40
1
 40
1
 40
1
 40
1
 10
21.007917
 20
-11.415972
 30
0.0
 10
20.662960
 20
-10.746118
 30
0.0
 10
20.838621
 20
-9.666392
 30
0.0
 10
21.537083
 20
-8.179250
 30
0.0
  0
SPLINE
  5
131
100
AcDbEntity
  8
Layer_1
 62
7
100
AcDbSpline
 70
8
 71
3
 72
8
 73
4
 74
0
 40
0
 40
0
 40
0
 40
0
 40
1
 40
1
 40
1
 40
1
 10
21.537083
 20
-8.179250
 30
0.0
 10
22.235536
 20
-6.692137
 30
0.0
 10
22.646634
 20
-5.860597
 30
0.0
 10
22.780625
 20
-5.683333
 30
0.0
  0
SPLINE
  5
132
100
AcDbEntity
  8
Layer_1
 62
7
100
AcDbSpline
 70
8
 71
3
 72
8
 73
4
 74
0
 40
0
 40
0
 40
0
 40
0
 40
1
 40
1
 40
1
 40
1
 10
22.780625
 20
-5.683333
 30
0.0
 10
26.335100
 20
-2.276601
 30
0.0
 10
30.124372
 20
1.813251
 30
0.0
 10
34.140069
 20
6.593333
 30
0.0
  0
SPLINE
  5
133
100
AcDbEntity
  8
Layer_1
 62
7
100
AcDbSpline
 70
8
 71
3
 72
8
 73
4
 74
0
 40
0
 40
0
 40
0
 40
0
 40
1
 40
1
 40
1
 40
1
 10
34.140069
 20
6.593333
 30
0.0
 10
38.155733
 20
11.373359
 30
0.0
 10
41.601088
 20
15.923498
 30
0.0
 10
44.476458
 20
20.245833
 30
0.0
  0
SPLINE
  5
134
100
AcDbEntity
  8
Layer_1
 62
7
100
AcDbSpline
 70
8
 71
3
 72
8
 73
4
 74
0
 40
0
 40
0
 40
0
 40
0
 40
1
 40
1
 40
1
 40
1
 10
44.476458
 20
20.245833
 30
0.0
 10
47.351772
 20
24.568075
 30
0.0
 10
48.858520
 20
27.746168
 30
0.0
 10
48.992014
 20
29.779653
 30
0.0
  0
SPLINE
  5
135
100
AcDbEntity
  8
Layer_1
 62
7
100
AcDbSpline
 70
8
 71
3
 72
8
 73
4
 74
0
 40
0
 40
0
 40
0
 40
0
 40
1
 40
1
 40
1
 40
1
 10
48.992014
 20
29.779653
 30
0.0
 10
48.812379
 20
31.494379
 30
0.0
 10
47.853010
 20
32.699580
 30
0.0
 10
46.116875
 20
33.395625
 30
0.0
  0
SPLINE
  5
136
100
AcDbEntity
  8
Layer_1
 62
7
100
AcDbSpline
 70
8
 71
3
 72
8
 73
4
 74
0
 40
0
 40
0
 40
0
 40
0
 40
1
 40
1
 40
1
 40
1
 10
46.116875
 20
33.395625
 30
0.0
 10
44.380681
 20
34.091554
 30
0.0
 10
42.941629
 20
34.201429
 30
0.0
 10
41.804167
 20
33.721944
 30
0.0
  0
SPLINE
  5
137
100
AcDbEntity
  8
Layer_1
 62
7
100
AcDbSpline
 70
8
 71
3
 72
8
 73
4
 74
0
 40
0
 40
0
 40
0
 40
0
 40
1
 40
1
 40
1
 40
1
 10
41.804167
 20
33.721944
 30
0.0
 10
39.556662
 20
32.610412
 30
0.0
 10
37.053390
 20
30.113556
 30
0.0
 10
34.298819
 20
26.243056
 30
0.0
  0
SPLINE
  5
138
100
AcDbEntity
  8
Layer_1
 62
7
100
AcDbSpline
 70
8
 71
3
 72
8
 73
4
 74
0
 40
0
 40
0
 40
0
 40
0
 40
1
 40
1
 40
1
 40
1
 10
34.298819
 20
26.243056
 30
0.0
 10
34.941084
 20
27.663836
 30
0.0
 10
35.295713
 20
28.843722
 30
0.0
 10
35.357153
 20
29.779653
 30
0.0
  0
SPLINE
  5
139
100
AcDbEntity
  8
Layer_1
 62
7
100
AcDbSpline
 70
8
 71
3
 72
8
 73
4
 74
0
 40
0
 40
0
 40
0
 40
0
 40
1
 40
1
 40
1
 40
1
 10
35.357153
 20
29.779653
 30
0.0
 10
35.177518
 20
31.494379
 30
0.0
 10
34.218152
 20
32.699580
 30
0.0
 10
32.482014
 20
33.395625
 30
0.0
  0
SPLINE
  5
13a
100
AcDbEntity
  8
Layer_1
 62
7
100
AcDbSpline
 70
8
 71
3
 72
8
 73
4
 74
0
 40
0
 40
0
 40
0
 40
0
 40
1
 40
1
 40
1
 40
1
 10
32.482014
 20
33.395625
 30
0.0
 10
31.396892
 20
33.830580
 30
0.0
 10
30.431658
 20
34.037175
 30
0.0
 10
29.580417
 20
34.012986
 30
0.0
  0
LINE
  5
13b
100
AcDbEntity
  8
Layer_1
 62
7
100
AcDbLine
 10
29.580417
 20
34.012986
 30
0.0
 11
29.580417
 21
34.012986
 31
0.0
  0
SPLINE
  5
13c
100
AcDbEntity
  8
Layer_1
 62
7
100
AcDbSpline
 70
8
 71
3
 72
8
 73
4
 74
0
 40
0
 40
0
 40
0
 40
0
 40
1
 40
1
 40
1
 40
1
 10
31.661806
 20
29.418056
 30
0.0
 10
31.742295
 20
29.415976
 30
0.0
 10
31.808366
 20
29.390395
 30
0.0
 10
31.864653
 20
29.338681
 30
0.0
  0
SPLINE
  5
13d
100
AcDbEntity
  8
Layer_1
 62
7
100
AcDbSpline
 70
8
 71
3
 72
8
 73
4
 74
0
 40
0
 40
0
 40
0
 40
0
 40
1
 40
1
 40
1
 40
1
 10
31.864653
 20
29.338681
 30
0.0
 10
32.203768
 20
28.116799
 30
0.0
 10
31.013567
 20
25.442806
 30
0.0
 10
28.283958
 20
21.321806
 30
0.0
  0
SPLINE
  5
13e
100
AcDbEntity
  8
Layer_1
 62
7
100
AcDbSpline
 70
8
 71
3
 72
8
 73
4
 74
0
 40
0
 40
0
 40
0
 40
0
 40
1
 40
1
 40
1
 40
1
 10
28.283958
 20
21.321806
 30
0.0
 10
25.554300
 20
17.200709
 30
0.0
 10
22.534995
 20
13.049477
 30
0.0
 10
19.235208
 20
8.868750
 30
0.0
  0
SPLINE
  5
13f
100
AcDbEntity
  8
Layer_1
 62
7
100
AcDbSpline
 70
8
 71
3
 72
8
 73
4
 74
0
 40
0
 40
0
 40
0
 40
0
 40
1
 40
1
 40
1
 40
1
 10
19.235208
 20
8.868750
 30
0.0
 10
15.935388
 20
4.687966
 30
0.0
 10
13.603926
 20
1.900006
 30
0.0
 10
12.232569
 20
0.499083
 30
0.0
  0
SPLINE
  5
140
100
AcDbEntity
  8
Layer_1
 62
7
100
AcDbSpline
 70
8
 71
3
 72
8
 73
4
 74
0
 40
0
 40
0
 40
0
 40
0
 40
1
 40
1
 40
1
 40
1
 10
12.232569
 20
0.499083
 30
0.0
 10
12.323608
 20
0.667485
 30
0.0
 10
13.279149
 20
2.278071
 30
0.0
 10
15.098889
 20
5.332139
 30
0.0
  0
SPLINE
  5
141
100
AcDbEntity
  8
Layer_1
 62
7
100
AcDbSpline
 70
8
 71
3
 72
8
 73
4
 74
0
 40
0
 40
0
 40
0
 40
0
 40
1
 40
1
 40
1
 40
1
 10
15.098889
 20
5.332139
 30
0.0
 10
16.918610
 20
8.386150
 30
0.0
 10
19.054782
 20
11.873090
 30
0.0
 10
21.510625
 20
15.792014
 30
0.0
  0
SPLINE
  5
142
100
AcDbEntity
  8
Layer_1
 62
7
100
AcDbSpline
 70
8
 71
3
 72
8
 73
4
 74
0
 40
0
 40
0
 40
0
 40
0
 40
1
 40
1
 40
1
 40
1
 10
21.510625
 20
15.792014
 30
0.0
 10
23.966430
 20
19.710856
 30
0.0
 10
26.196409
 20
23.047899
 30
0.0
 10
28.195764
 20
25.810903
 30
0.0
  0
SPLINE
  5
143
100
AcDbEntity
  8
Layer_1
 62
7
100
AcDbSpline
 70
8
 71
3
 72
8
 73
4
 74
0
 40
0
 40
0
 40
0
 40
0
 40
1
 40
1
 40
1
 40
1
 10
28.195764
 20
25.810903
 30
0.0
 10
29.945161
 20
28.228438
 30
0.0
 10
31.098380
 20
29.432610
 30
0.0
 10
31.661806
 20
29.418056
 30
0.0
  0
LINE
  5
144
100
AcDbEntity
  8
Layer_1
 62
7
100
AcDbLine
 10
31.661806
 20
29.418056
 30
0.0
 11
31.661806
 21
29.418056
 31
0.0
  0
SPLINE
  5
145
100
AcDbEntity
  8
Layer_1
 62
7
100
AcDbSpline
 70
8
 71
3
 72
8
 73
4
 74
0
 40
0
 40
0
 40
0
 40
0
 40
1
 40
1
 40
1
 40
1
 10
45.296667
 20
29.418056
 30
0.0
 10
45.377156
 20
29.415976
 30
0.0
 10
45.443227
 20
29.390395
 30
0.0
 10
45.499514
 20
29.338681
 30
0.0
  0
SPLINE
  5
146
100
AcDbEntity
  8
Layer_1
 62
7
100
AcDbSpline
 70
8
 71
3
 72
8
 73
4
 74
0
 40
0
 40
0
 40
0
 40
0
 40
1
 40
1
 40
1
 40
1
 10
45.499514
 20
29.338681
 30
0.0
 10
45.838632
 20
28.116799
 30
0.0
 10
44.639611
 20
25.442806
 30
0.0
 10
41.910000
 20
21.321806
 30
0.0
  0
SPLINE
  5
147
100
AcDbEntity
  8
Layer_1
 62
7
100
AcDbSpline
 70
8
 71
3
 72
8
 73
4
 74
0
 40
0
 40
0
 40
0
 40
0
 40
1
 40
1
 40
1
 40
1
 10
41.910000
 20
21.321806
 30
0.0
 10
39.180344
 20
17.200709
 30
0.0
 10
36.169857
 20
13.049477
 30
0.0
 10
32.870069
 20
8.868750
 30
0.0
  0
SPLINE
  5
148
100
AcDbEntity
  8
Layer_1
 62
7
100
AcDbSpline
 70
8
 71
3
 72
8
 73
4
 74
0
 40
0
 40
0
 40
0
 40
0
 40
1
 40
1
 40
1
 40
1
 10
32.870069
 20
8.868750
 30
0.0
 10
29.570251
 20
4.687966
 30
0.0
 10
27.229968
 20
1.900006
 30
0.0
 10
25.858611
 20
0.499083
 30
0.0
  0
SPLINE
  5
149
100
AcDbEntity
  8
Layer_1
 62
7
100
AcDbSpline
 70
8
 71
3
 72
8
 73
4
 74
0
 40
0
 40
0
 40
0
 40
0
 40
1
 40
1
 40
1
 40
1
 10
25.858611
 20
0.499083
 30
0.0
 10
25.949650
 20
0.667485
 30
0.0
 10
26.905192
 20
2.278071
 30
0.0
 10
28.724931
 20
5.332139
 30
0.0
  0
SPLINE
  5
14a
100
AcDbEntity
  8
Layer_1
 62
7
100
AcDbSpline
 70
8
 71
3
 72
8
 73
4
 74
0
 40
0
 40
0
 40
0
 40
0
 40
1
 40
1
 40
1
 40
1
 10
28.724931
 20
5.332139
 30
0.0
 10
30.544651
 20
8.386150
 30
0.0
 10
32.689642
 20
11.873090
 30
0.0
 10
35.145486
 20
15.792014
 30
0.0
  0
SPLINE
  5
14b
100
AcDbEntity
  8
Layer_1
 62
7
100
AcDbSpline
 70
8
 71
3
 72
8
 73
4
 74
0
 40
0
 40
0
 40
0
 40
0
 40
1
 40
1
 40
1
 40
1
 10
35.145486
 20
15.792014
 30
0.0
 10
37.601291
 20
19.710856
 30
0.0
 10
39.822450
 20
23.047899
 30
0.0
 10
41.821806
 20
25.810903
 30
0.0
  0
SPLINE
  5
14c
100
AcDbEntity
  8
Layer_1
 62
7
100
AcDbSpline
 70
8
 71
3
 72
8
 73
4
 74
0
 40
0
 40
0
 40
0
 40
0
 40
1
 40
1
 40
1
 40
1
 10
41.821806
 20
25.810903
 30
0.0
 10
43.571205
 20
28.228438
 30
0.0
 10
44.733241
 20
29.432610
 30
0.0
 10
45.296667
 20
29.418056
 30
0.0
  0
LINE
  5
14d
100
AcDbEntity
  8
Layer_1
 62
7
100
AcDbLine
 10
45.296667
 20
29.418056
 30
0.0
 11
45.296667
 21
29.418056
 31
0.0
  0
SPLINE
  5
14e
100
AcDbEntity
  8
Layer_1
 62
7
100
AcDbSpline
 70
8
 71
3
 72
8
 73
4
 74
0
 40
0
 40
0
 40
0
 40
0
 40
1
 40
1
 40
1
 40
1
 10
1.128889
 20
28.580208
 30
0.0
 10
0.968101
 20
28.575340
 30
0.0
 10
0.810901
 20
28.558192
 30
0.0
 10
0.643819
 20
28.544931
 30
0.0
  0
SPLINE
  5
14f
100
AcDbEntity
  8
Layer_1
 62
7
100
AcDbSpline
 70
8
 71
3
 72
8
 73
4
 74
0
 40
0
 40
0
 40
0
 40
0
 40
1
 40
1
 40
1
 40
1
 10
0.643819
 20
28.544931
 30
0.0
 10
-0.692989
 20
28.438728
 30
0.0
 10
-1.694736
 20
28.046416
 30
0.0
 10
-2.354792
 20
27.363125
 30
0.0
  0
SPLINE
  5
150
100
AcDbEntity
  8
Layer_1
 62
7
100
AcDbSpline
 70
8
 71
3
 72
8
 73
4
 74
0
 40
0
 40
0
 40
0
 40
0
 40
1
 40
1
 40
1
 40
1
 10
-2.354792
 20
27.363125
 30
0.0
 10
-4.534337
 20
24.816098
 30
0.0
 10
-7.425443
 20
20.729785
 30
0.0
 10
-11.033125
 20
15.104097
 30
0.0
  0
SPLINE
  5
151
100
AcDbEntity
  8
Layer_1
 62
7
100
AcDbSpline
 70
8
 71
3
 72
8
 73
4
 74
0
 40
0
 40
0
 40
0
 40
0
 40
1
 40
1
 40
1
 40
1
 10
-11.033125
 20
15.104097
 30
0.0
 10
-14.640936
 20
9.478322
 30
0.0
 10
-18.001836
 20
3.894470
 30
0.0
 10
-21.104931
 20
-1.652861
 30
0.0
  0
SPLINE
  5
152
100
AcDbEntity
  8
Layer_1
 62
7
100
AcDbSpline
 70
8
 71
3
 72
8
 73
4
 74
0
 40
0
 40
0
 40
0
 40
0
 40
1
 40
1
 40
1
 40
1
 10
-21.104931
 20
-1.652861
 30
0.0
 10
-26.738257
 20
-3.065384
 30
0.0
 10
-32.351043
 20
-4.381781
 30
0.0
 10
-37.950069
 20
-5.603972
 30
0.0
  0
SPLINE
  5
153
100
AcDbEntity
  8
Layer_1
 62
7
100
AcDbSpline
 70
8
 71
3
 72
8
 73
4
 74
0
 40
0
 40
0
 40
0
 40
0
 40
1
 40
1
 40
1
 40
1
 10
-37.950069
 20
-5.603972
 30
0.0
 10
-43.549166
 20
-6.826164
 30
0.0
 10
-49.406209
 20
-8.082871
 30
0.0
 10
-55.518403
 20
-9.361028
 30
0.0
  0
SPLINE
  5
154
100
AcDbEntity
  8
Layer_1
 62
7
100
AcDbSpline
 70
8
 71
3
 72
8
 73
4
 74
0
 40
0
 40
0
 40
0
 40
0
 40
1
 40
1
 40
1
 40
1
 10
-55.518403
 20
-9.361028
 30
0.0
 10
-52.965488
 20
-3.731597
 30
0.0
 10
-49.993321
 20
1.738321
 30
0.0
 10
-46.610764
 20
7.043139
 30
0.0
  0
SPLINE
  5
155
100
AcDbEntity
  8
Layer_1
 62
7
100
AcDbSpline
 70
8
 71
3
 72
8
 73
4
 74
0
 40
0
 40
0
 40
0
 40
0
 40
1
 40
1
 40
1
 40
1
 10
-46.610764
 20
7.043139
 30
0.0
 10
-43.228263
 20
12.347873
 30
0.0
 10
-40.387041
 20
16.225987
 30
0.0
 10
-38.073542
 20
18.675972
 30
0.0
  0
SPLINE
  5
156
100
AcDbEntity
  8
Layer_1
 62
7
100
AcDbSpline
 70
8
 71
3
 72
8
 73
4
 74
0
 40
0
 40
0
 40
0
 40
0
 40
1
 40
1
 40
1
 40
1
 10
-38.073542
 20
18.675972
 30
0.0
 10
-37.051923
 20
19.878411
 30
0.0
 10
-37.046490
 20
20.606067
 30
0.0
 10
-38.064722
 20
20.863194
 30
0.0
  0
SPLINE
  5
157
100
AcDbEntity
  8
Layer_1
 62
7
100
AcDbSpline
 70
8
 71
3
 72
8
 73
4
 74
0
 40
0
 40
0
 40
0
 40
0
 40
1
 40
1
 40
1
 40
1
 10
-38.064722
 20
20.863194
 30
0.0
 10
-39.083042
 20
21.120226
 30
0.0
 10
-40.408262
 20
21.036959
 30
0.0
 10
-42.042292
 20
20.607431
 30
0.0
  0
SPLINE
  5
158
100
AcDbEntity
  8
Layer_1
 62
7
100
AcDbSpline
 70
8
 71
3
 72
8
 73
4
 74
0
 40
0
 40
0
 40
0
 40
0
 40
1
 40
1
 40
1
 40
1
 10
-42.042292
 20
20.607431
 30
0.0
 10
-43.676384
 20
20.177809
 30
0.0
 10
-44.903161
 20
19.533423
 30
0.0
 10
-45.728819
 20
18.675972
 30
0.0
  0
SPLINE
  5
159
100
AcDbEntity
  8
Layer_1
 62
7
100
AcDbSpline
 70
8
 71
3
 72
8
 73
4
 74
0
 40
0
 40
0
 40
0
 40
0
 40
1
 40
1
 40
1
 40
1
 10
-45.728819
 20
18.675972
 30
0.0
 10
-49.024430
 20
14.595180
 30
0.0
 10
-51.896292
 20
9.926942
 30
0.0
 10
-54.336597
 20
4.670694
 30
0.0
  0
SPLINE
  5
15a
100
AcDbEntity
  8
Layer_1
 62
7
100
AcDbSpline
 70
8
 71
3
 72
8
 73
4
 74
0
 40
0
 40
0
 40
0
 40
0
 40
1
 40
1
 40
1
 40
1
 10
-54.336597
 20
4.670694
 30
0.0
 10
-56.776942
 20
-0.585638
 30
0.0
 10
-59.131711
 20
-5.587547
 30
0.0
 10
-61.400972
 20
-10.340000
 30
0.0
  0
LINE
  5
15b
100
AcDbEntity
  8
Layer_1
 62
7
100
AcDbLine
 10
-61.400972
 20
-10.340000
 30
0.0
 11
-65.713681
 21
-10.877972
 31
0.0
  0
SPLINE
  5
15c
100
AcDbEntity
  8
Layer_1
 62
7
100
AcDbSpline
 70
8
 71
3
 72
8
 73
4
 74
0
 40
0
 40
0
 40
0
 40
0
 40
1
 40
1
 40
1
 40
1
 10
-65.713681
 20
-10.877972
 30
0.0
 10
-66.908931
 20
-11.124013
 30
0.0
 10
-67.893616
 20
-11.884574
 30
0.0
 10
-68.668194
 20
-13.162222
 30
0.0
  0
SPLINE
  5
15d
100
AcDbEntity
  8
Layer_1
 62
7
100
AcDbSpline
 70
8
 71
3
 72
8
 73
4
 74
0
 40
0
 40
0
 40
0
 40
0
 40
1
 40
1
 40
1
 40
1
 10
-68.668194
 20
-13.162222
 30
0.0
 10
-69.442787
 20
-14.439899
 30
0.0
 10
-69.951538
 20
-15.656361
 30
0.0
 10
-70.193958
 20
-16.804639
 30
0.0
  0
SPLINE
  5
15e
100
AcDbEntity
  8
Layer_1
 62
7
100
AcDbSpline
 70
8
 71
3
 72
8
 73
4
 74
0
 40
0
 40
0
 40
0
 40
0
 40
1
 40
1
 40
1
 40
1
 10
-70.193958
 20
-16.804639
 30
0.0
 10
-70.436393
 20
-17.952973
 30
0.0
 10
-70.357069
 20
-18.454877
 30
0.0
 10
-69.955833
 20
-18.312778
 30
0.0
  0
SPLINE
  5
15f
100
AcDbEntity
  8
Layer_1
 62
7
100
AcDbSpline
 70
8
 71
3
 72
8
 73
4
 74
0
 40
0
 40
0
 40
0
 40
0
 40
1
 40
1
 40
1
 40
1
 10
-69.955833
 20
-18.312778
 30
0.0
 10
-69.064948
 20
-17.792191
 30
0.0
 10
-67.957982
 20
-17.240108
 30
0.0
 10
-66.630903
 20
-16.663528
 30
0.0
  0
SPLINE
  5
160
100
AcDbEntity
  8
Layer_1
 62
7
100
AcDbSpline
 70
8
 71
3
 72
8
 73
4
 74
0
 40
0
 40
0
 40
0
 40
0
 40
1
 40
1
 40
1
 40
1
 10
-66.630903
 20
-16.663528
 30
0.0
 10
-65.303843
 20
-16.086976
 30
0.0
 10
-64.169346
 20
-15.654950
 30
0.0
 10
-63.244236
 20
-15.358250
 30
0.0
  0
SPLINE
  5
161
100
AcDbEntity
  8
Layer_1
 62
7
100
AcDbSpline
 70
8
 71
3
 72
8
 73
4
 74
0
 40
0
 40
0
 40
0
 40
0
 40
1
 40
1
 40
1
 40
1
 10
-63.244236
 20
-15.358250
 30
0.0
 10
-63.794459
 20
-16.563649
 30
0.0
 10
-64.615579
 20
-18.200877
 30
0.0
 10
-65.696042
 20
-20.279528
 30
0.0
  0
SPLINE
  5
162
100
AcDbEntity
  8
Layer_1
 62
7
100
AcDbSpline
 70
8
 71
3
 72
8
 73
4
 74
0
 40
0
 40
0
 40
0
 40
0
 40
1
 40
1
 40
1
 40
1
 10
-65.696042
 20
-20.279528
 30
0.0
 10
-66.776521
 20
-22.358123
 30
0.0
 10
-67.278563
 20
-23.824465
 30
0.0
 10
-67.212986
 20
-24.671583
 30
0.0
  0
SPLINE
  5
163
100
AcDbEntity
  8
Layer_1
 62
7
100
AcDbSpline
 70
8
 71
3
 72
8
 73
4
 74
0
 40
0
 40
0
 40
0
 40
0
 40
1
 40
1
 40
1
 40
1
 10
-67.212986
 20
-24.671583
 30
0.0
 10
-66.706970
 20
-26.500186
 30
0.0
 10
-65.666008
 20
-26.694185
 30
0.0
 10
-64.090903
 20
-25.253695
 30
0.0
  0
SPLINE
  5
164
100
AcDbEntity
  8
Layer_1
 62
7
100
AcDbSpline
 70
8
 71
3
 72
8
 73
4
 74
0
 40
0
 40
0
 40
0
 40
0
 40
1
 40
1
 40
1
 40
1
 10
-64.090903
 20
-25.253695
 30
0.0
 10
-62.515821
 20
-23.813176
 30
0.0
 10
-60.364774
 20
-19.976478
 30
0.0
 10
-57.635069
 20
-13.744306
 30
0.0
  0
SPLINE
  5
165
100
AcDbEntity
  8
Layer_1
 62
7
100
AcDbSpline
 70
8
 71
3
 72
8
 73
4
 74
0
 40
0
 40
0
 40
0
 40
0
 40
1
 40
1
 40
1
 40
1
 10
-57.635069
 20
-13.744306
 30
0.0
 10
-51.833616
 20
-12.076203
 30
0.0
 10
-46.063874
 20
-10.415890
 30
0.0
 10
-40.313681
 20
-8.770139
 30
0.0
  0
SPLINE
  5
166
100
AcDbEntity
  8
Layer_1
 62
7
100
AcDbSpline
 70
8
 71
3
 72
8
 73
4
 74
0
 40
0
 40
0
 40
0
 40
0
 40
1
 40
1
 40
1
 40
1
 10
-40.313681
 20
-8.770139
 30
0.0
 10
-34.563558
 20
-7.124416
 30
0.0
 10
-28.747585
 20
-5.558422
 30
0.0
 10
-22.877639
 20
-4.069361
 30
0.0
  0
SPLINE
  5
167
100
AcDbEntity
  8
Layer_1
 62
7
100
AcDbSpline
 70
8
 71
3
 72
8
 73
4
 74
0
 40
0
 40
0
 40
0
 40
0
 40
1
 40
1
 40
1
 40
1
 10
-22.877639
 20
-4.069361
 30
0.0
 10
-25.021529
 20
-7.114567
 30
0.0
 10
-27.153337
 20
-11.213760
 30
0.0
 10
-29.262917
 20
-16.363695
 30
0.0
  0
SPLINE
  5
168
100
AcDbEntity
  8
Layer_1
 62
7
100
AcDbSpline
 70
8
 71
3
 72
8
 73
4
 74
0
 40
0
 40
0
 40
0
 40
0
 40
1
 40
1
 40
1
 40
1
 10
-29.262917
 20
-16.363695
 30
0.0
 10
-31.372590
 20
-21.513629
 30
0.0
 10
-32.507617
 20
-26.374456
 30
0.0
 10
-32.667222
 20
-30.942222
 30
0.0
  0
SPLINE
  5
169
100
AcDbEntity
  8
Layer_1
 62
7
100
AcDbSpline
 70
8
 71
3
 72
8
 73
4
 74
0
 40
0
 40
0
 40
0
 40
0
 40
1
 40
1
 40
1
 40
1
 10
-32.667222
 20
-30.942222
 30
0.0
 10
-32.449175
 20
-33.276482
 30
0.0
 10
-31.546461
 20
-34.273489
 30
0.0
 10
-29.968472
 20
-33.932028
 30
0.0
  0
SPLINE
  5
16a
100
AcDbEntity
  8
Layer_1
 62
7
100
AcDbSpline
 70
8
 71
3
 72
8
 73
4
 74
0
 40
0
 40
0
 40
0
 40
0
 40
1
 40
1
 40
1
 40
1
 10
-29.968472
 20
-33.932028
 30
0.0
 10
-28.390573
 20
-33.590539
 30
0.0
 10
-27.440559
 20
-32.952999
 30
0.0
 10
-27.119792
 20
-32.018194
 30
0.0
  0
SPLINE
  5
16b
100
AcDbEntity
  8
Layer_1
 62
7
100
AcDbSpline
 70
8
 71
3
 72
8
 73
4
 74
0
 40
0
 40
0
 40
0
 40
0
 40
1
 40
1
 40
1
 40
1
 10
-27.119792
 20
-32.018194
 30
0.0
 10
-25.863777
 20
-24.423510
 30
0.0
 10
-23.464990
 20
-17.269487
 30
0.0
 10
-19.923125
 20
-10.560472
 30
0.0
  0
SPLINE
  5
16c
100
AcDbEntity
  8
Layer_1
 62
7
100
AcDbSpline
 70
8
 71
3
 72
8
 73
4
 74
0
 40
0
 40
0
 40
0
 40
0
 40
1
 40
1
 40
1
 40
1
 10
-19.923125
 20
-10.560472
 30
0.0
 10
-16.381374
 20
-3.851514
 30
0.0
 10
-12.394082
 20
2.526596
 30
0.0
 10
-7.955139
 20
8.568889
 30
0.0
  0
SPLINE
  5
16d
100
AcDbEntity
  8
Layer_1
 62
7
100
AcDbSpline
 70
8
 71
3
 72
8
 73
4
 74
0
 40
0
 40
0
 40
0
 40
0
 40
1
 40
1
 40
1
 40
1
 10
-7.955139
 20
8.568889
 30
0.0
 10
-3.516333
 20
14.611097
 30
0.0
 10
0.674047
 20
20.428092
 30
0.0
 10
4.621389
 20
26.022569
 30
0.0
  0
SPLINE
  5
16e
100
AcDbEntity
  8
Layer_1
 62
7
100
AcDbSpline
 70
8
 71
3
 72
8
 73
4
 74
0
 40
0
 40
0
 40
0
 40
0
 40
1
 40
1
 40
1
 40
1
 10
4.621389
 20
26.022569
 30
0.0
 10
5.169942
 20
26.951329
 30
0.0
 10
4.981857
 20
27.628575
 30
0.0
 10
4.048125
 20
28.059861
 30
0.0
  0
SPLINE
  5
16f
100
AcDbEntity
  8
Layer_1
 62
7
100
AcDbSpline
 70
8
 71
3
 72
8
 73
4
 74
0
 40
0
 40
0
 40
0
 40
0
 40
1
 40
1
 40
1
 40
1
 10
4.048125
 20
28.059861
 30
0.0
 10
3.230969
 20
28.437144
 30
0.0
 10
2.254407
 20
28.614278
 30
0.0
 10
1.128889
 20
28.580208
 30
0.0
  0
LINE
  5
170
100
AcDbEntity
  8
Layer_1
 62
7
100
AcDbLine
 10
1.128889
 20
28.580208
 30
0.0
 11
1.128889
 21
28.580208
 31
0.0
  0
SPLINE
  5
171
100
AcDbEntity
  8
Layer_1
 62
7
100
AcDbSpline
 70
8
 71
3
 72
8
 73
4
 74
0
 40
0
 40
0
 40
0
 40
0
 40
1
 40
1
 40
1
 40
1
 10
66.145833
 20
21.842153
 30
0.0
 10
66.017860
 20
21.840934
 30
0.0
 10
65.893637
 20
21.837380
 30
0.0
 10
65.766597
 20
21.815694
 30
0.0
  0
SPLINE
  5
172
100
AcDbEntity
  8
Layer_1
 62
7
100
AcDbSpline
 70
8
 71
3
 72
8
 73
4
 74
0
 40
0
 40
0
 40
0
 40
0
 40
1
 40
1
 40
1
 40
1
 10
65.766597
 20
21.815694
 30
0.0
 10
65.245827
 20
21.407632
 30
0.0
 10
64.118250
 20
19.380190
 30
0.0
 10
62.388750
 20
15.747917
 30
0.0
  0
SPLINE
  5
173
100
AcDbEntity
  8
Layer_1
 62
7
100
AcDbSpline
 70
8
 71
3
 72
8
 73
4
 74
0
 40
0
 40
0
 40
0
 40
0
 40
1
 40
1
 40
1
 40
1
 10
62.388750
 20
15.747917
 30
0.0
 10
60.659222
 20
12.115576
 30
0.0
 10
58.985954
 20
8.422387
 30
0.0
 10
57.370486
 20
4.670694
 30
0.0
  0
SPLINE
  5
174
100
AcDbEntity
  8
Layer_1
 62
7
100
AcDbSpline
 70
8
 71
3
 72
8
 73
4
 74
0
 40
0
 40
0
 40
0
 40
0
 40
1
 40
1
 40
1
 40
1
 10
57.370486
 20
4.670694
 30
0.0
 10
55.754998
 20
0.918917
 30
0.0
 10
54.859202
 20
-1.336377
 30
0.0
 10
54.680556
 20
-2.102639
 30
0.0
  0
SPLINE
  5
175
100
AcDbEntity
  8
Layer_1
 62
7
100
AcDbSpline
 70
8
 71
3
 72
8
 73
4
 74
0
 40
0
 40
0
 40
0
 40
0
 40
1
 40
1
 40
1
 40
1
 10
54.680556
 20
-2.102639
 30
0.0
 10
54.681967
 20
-2.936718
 30
0.0
 10
55.026532
 20
-3.548492
 30
0.0
 10
55.703611
 20
-3.945917
 30
0.0
  0
SPLINE
  5
176
100
AcDbEntity
  8
Layer_1
 62
7
100
AcDbSpline
 70
8
 71
3
 72
8
 73
4
 74
0
 40
0
 40
0
 40
0
 40
0
 40
1
 40
1
 40
1
 40
1
 10
55.703611
 20
-3.945917
 30
0.0
 10
56.380682
 20
-4.343399
 30
0.0
 10
56.970549
 20
-4.356268
 30
0.0
 10
57.485139
 20
-3.981195
 30
0.0
  0
SPLINE
  5
177
100
AcDbEntity
  8
Layer_1
 62
7
100
AcDbSpline
 70
8
 71
3
 72
8
 73
4
 74
0
 40
0
 40
0
 40
0
 40
0
 40
1
 40
1
 40
1
 40
1
 10
57.485139
 20
-3.981195
 30
0.0
 10
58.012638
 20
-3.440513
 30
0.0
 10
59.316304
 20
-1.605984
 30
0.0
 10
61.392153
 20
1.522139
 30
0.0
  0
SPLINE
  5
178
100
AcDbEntity
  8
Layer_1
 62
7
100
AcDbSpline
 70
8
 71
3
 72
8
 73
4
 74
0
 40
0
 40
0
 40
0
 40
0
 40
1
 40
1
 40
1
 40
1
 10
61.392153
 20
1.522139
 30
0.0
 10
63.467976
 20
4.650205
 30
0.0
 10
65.478033
 20
7.799833
 30
0.0
 10
67.424653
 20
10.967778
 30
0.0
  0
SPLINE
  5
179
100
AcDbEntity
  8
Layer_1
 62
7
100
AcDbSpline
 70
8
 71
3
 72
8
 73
4
 74
0
 40
0
 40
0
 40
0
 40
0
 40
1
 40
1
 40
1
 40
1
 10
67.424653
 20
10.967778
 30
0.0
 10
69.371238
 20
14.135638
 30
0.0
 10
70.415734
 20
16.049073
 30
0.0
 10
70.555556
 20
16.709236
 30
0.0
  0
SPLINE
  5
17a
100
AcDbEntity
  8
Layer_1
 62
7
100
AcDbSpline
 70
8
 71
3
 72
8
 73
4
 74
0
 40
0
 40
0
 40
0
 40
0
 40
1
 40
1
 40
1
 40
1
 10
70.555556
 20
16.709236
 30
0.0
 10
70.531313
 20
18.013467
 30
0.0
 10
69.982498
 20
19.232915
 30
0.0
 10
68.906319
 20
20.369306
 30
0.0
  0
SPLINE
  5
17b
100
AcDbEntity
  8
Layer_1
 62
7
100
AcDbSpline
 70
8
 71
3
 72
8
 73
4
 74
0
 40
0
 40
0
 40
0
 40
0
 40
1
 40
1
 40
1
 40
1
 10
68.906319
 20
20.369306
 30
0.0
 10
67.964634
 20
21.363563
 30
0.0
 10
67.041655
 20
21.850693
 30
0.0
 10
66.145833
 20
21.842153
 30
0.0
  0
LINE
  5
17c
100
AcDbEntity
  8
Layer_1
 62
7
100
AcDbLine
 10
66.145833
 20
21.842153
 30
0.0
 11
66.145833
 21
21.842153
 31
0.0
  0
SPLINE
  5
17d
100
AcDbEntity
  8
Layer_1
 62
7
100
AcDbSpline
 70
8
 71
3
 72
8
 73
4
 74
0
 40
0
 40
0
 40
0
 40
0
 40
1
 40
1
 40
1
 40
1
 10
27.745972
 20
15.809653
 30
0.0
 10
27.074043
 20
14.612311
 30
0.0
 10
26.412839
 20
13.390486
 30
0.0
 10
25.752778
 20
12.131944
 30
0.0
  0
SPLINE
  5
17e
100
AcDbEntity
  8
Layer_1
 62
7
100
AcDbSpline
 70
8
 71
3
 72
8
 73
4
 74
0
 40
0
 40
0
 40
0
 40
0
 40
1
 40
1
 40
1
 40
1
 10
25.752778
 20
12.131944
 30
0.0
 10
23.087404
 20
7.049856
 30
0.0
 10
20.885494
 20
2.434450
 30
0.0
 10
19.147014
 20
-1.705750
 30
0.0
  0
SPLINE
  5
17f
100
AcDbEntity
  8
Layer_1
 62
7
100
AcDbSpline
 70
8
 71
3
 72
8
 73
4
 74
0
 40
0
 40
0
 40
0
 40
0
 40
1
 40
1
 40
1
 40
1
 10
19.147014
 20
-1.705750
 30
0.0
 10
18.622363
 20
-2.955232
 30
0.0
 10
18.179900
 20
-4.052484
 30
0.0
 10
17.806458
 20
-5.039528
 30
0.0
  0
SPLINE
  5
180
100
AcDbEntity
  8
Layer_1
 62
7
100
AcDbSpline
 70
8
 71
3
 72
8
 73
4
 74
0
 40
0
 40
0
 40
0
 40
0
 40
1
 40
1
 40
1
 40
1
 10
17.806458
 20
-5.039528
 30
0.0
 10
17.075113
 20
-5.534941
 30
0.0
 10
16.050304
 20
-6.244984
 30
0.0
 10
14.552083
 20
-7.288472
 30
0.0
  0
SPLINE
  5
181
100
AcDbEntity
  8
Layer_1
 62
7
100
AcDbSpline
 70
8
 71
3
 72
8
 73
4
 74
0
 40
0
 40
0
 40
0
 40
0
 40
1
 40
1
 40
1
 40
1
 10
14.552083
 20
-7.288472
 30
0.0
 10
12.945457
 20
-8.407483
 30
0.0
 10
11.411708
 20
-9.422326
 30
0.0
 10
9.957153
 20
-10.322361
 30
0.0
  0
SPLINE
  5
182
100
AcDbEntity
  8
Layer_1
 62
7
100
AcDbSpline
 70
8
 71
3
 72
8
 73
4
 74
0
 40
0
 40
0
 40
0
 40
0
 40
1
 40
1
 40
1
 40
1
 10
9.957153
 20
-10.322361
 30
0.0
 10
8.502579
 20
-11.222452
 30
0.0
 10
7.641666
 20
-11.584036
 30
0.0
 10
7.373056
 20
-11.415972
 30
0.0
  0
SPLINE
  5
183
100
AcDbEntity
  8
Layer_1
 62
7
100
AcDbSpline
 70
8
 71
3
 72
8
 73
4
 74
0
 40
0
 40
0
 40
0
 40
0
 40
1
 40
1
 40
1
 40
1
 10
7.373056
 20
-11.415972
 30
0.0
 10
7.028098
 20
-10.746118
 30
0.0
 10
7.203760
 20
-9.666392
 30
0.0
 10
7.902222
 20
-8.179250
 30
0.0
  0
SPLINE
  5
184
100
AcDbEntity
  8
Layer_1
 62
7
100
AcDbSpline
 70
8
 71
3
 72
8
 73
4
 74
0
 40
0
 40
0
 40
0
 40
0
 40
1
 40
1
 40
1
 40
1
 10
7.902222
 20
-8.179250
 30
0.0
 10
8.600675
 20
-6.692137
 30
0.0
 10
9.020592
 20
-5.860597
 30
0.0
 10
9.154583
 20
-5.683333
 30
0.0
  0
SPLINE
  5
185
100
AcDbEntity
  8
Layer_1
 62
7
100
AcDbSpline
 70
8
 71
3
 72
8
 73
4
 74
0
 40
0
 40
0
 40
0
 40
0
 40
1
 40
1
 40
1
 40
1
 10
9.154583
 20
-5.683333
 30
0.0
 10
12.709058
 20
-2.276601
 30
0.0
 10
16.489512
 20
1.813251
 30
0.0
 10
20.505208
 20
6.593333
 30
0.0
  0
SPLINE
  5
186
100
AcDbEntity
  8
Layer_1
 62
7
100
AcDbSpline
 70
8
 71
3
 72
8
 73
4
 74
0
 40
0
 40
0
 40
0
 40
0
 40
1
 40
1
 40
1
 40
1
 10
20.505208
 20
6.593333
 30
0.0
 10
23.171054
 20
9.766612
 30
0.0
 10
25.582668
 20
12.838093
 30
0.0
 10
27.745972
 20
15.809653
 30
0.0
  0
LINE
  5
187
100
AcDbEntity
  8
Layer_1
 62
7
100
AcDbLine
 10
27.745972
 20
15.809653
 30
0.0
 11
27.745972
 21
15.809653
 31
0.0
  0
SPLINE
  5
188
100
AcDbEntity
  8
Layer_1
 62
7
100
AcDbSpline
 70
8
 71
3
 72
8
 73
4
 74
0
 40
0
 40
0
 40
0
 40
0
 40
1
 40
1
 40
1
 40
1
 10
-3.951111
 20
-3.390278
 30
0.0
 10
-3.833117
 20
-3.377832
 30
0.0
 10
-3.739578
 20
-3.395922
 30
0.0
 10
-3.660069
 20
-3.443194
 30
0.0
  0
SPLINE
  5
189
100
AcDbEntity
  8
Layer_1
 62
7
100
AcDbSpline
 70
8
 71
3
 72
8
 73
4
 74
0
 40
0
 40
0
 40
0
 40
0
 40
1
 40
1
 40
1
 40
1
 10
-3.660069
 20
-3.443194
 30
0.0
 10
-3.540342
 20
-3.952606
 30
0.0
 10
-4.189454
 20
-5.060808
 30
0.0
 10
-5.609167
 20
-6.768139
 30
0.0
  0
SPLINE
  5
18a
100
AcDbEntity
  8
Layer_1
 62
7
100
AcDbSpline
 70
8
 71
3
 72
8
 73
4
 74
0
 40
0
 40
0
 40
0
 40
0
 40
1
 40
1
 40
1
 40
1
 10
-5.609167
 20
-6.768139
 30
0.0
 10
-7.028899
 20
-8.475471
 30
0.0
 10
-8.091678
 20
-9.609468
 30
0.0
 10
-8.792986
 20
-10.163611
 30
0.0
  0
SPLINE
  5
18b
100
AcDbEntity
  8
Layer_1
 62
7
100
AcDbSpline
 70
8
 71
3
 72
8
 73
4
 74
0
 40
0
 40
0
 40
0
 40
0
 40
1
 40
1
 40
1
 40
1
 10
-8.792986
 20
-10.163611
 30
0.0
 10
-9.045128
 20
-9.277941
 30
0.0
 10
-8.795892
 20
-8.271904
 30
0.0
 10
-8.052153
 20
-7.147361
 30
0.0
  0
SPLINE
  5
18c
100
AcDbEntity
  8
Layer_1
 62
7
100
AcDbSpline
 70
8
 71
3
 72
8
 73
4
 74
0
 40
0
 40
0
 40
0
 40
0
 40
1
 40
1
 40
1
 40
1
 10
-8.052153
 20
-7.147361
 30
0.0
 10
-7.308404
 20
-6.022847
 30
0.0
 10
-6.472428
 20
-5.073790
 30
0.0
 10
-5.538611
 20
-4.307500
 30
0.0
  0
SPLINE
  5
18d
100
AcDbEntity
  8
Layer_1
 62
7
100
AcDbSpline
 70
8
 71
3
 72
8
 73
4
 74
0
 40
0
 40
0
 40
0
 40
0
 40
1
 40
1
 40
1
 40
1
 10
-5.538611
 20
-4.307500
 30
0.0
 10
-4.838255
 20
-3.732811
 30
0.0
 10
-4.305094
 20
-3.427588
 30
0.0
 10
-3.951111
 20
-3.390278
 30
0.0
  0
LINE
  5
18e
100
AcDbEntity
  8
Layer_1
 62
7
100
AcDbLine
 10
-3.951111
 20
-3.390278
 30
0.0
 11
-3.951111
 21
-3.390278
 31
0.0
  0
SPLINE
  5
18f
100
AcDbEntity
  8
Layer_1
 62
7
100
AcDbSpline
 70
8
 71
3
 72
8
 73
4
 74
0
 40
0
 40
0
 40
0
 40
0
 40
1
 40
1
 40
1
 40
1
 10
36.547778
 20
-6.494722
 30
0.0
 10
36.693165
 20
-7.576988
 30
0.0
 10
36.956125
 20
-8.521078
 30
0.0
 10
37.323889
 20
-9.334583
 30
0.0
  0
SPLINE
  5
190
100
AcDbEntity
  8
Layer_1
 62
7
100
AcDbSpline
 70
8
 71
3
 72
8
 73
4
 74
0
 40
0
 40
0
 40
0
 40
0
 40
1
 40
1
 40
1
 40
1
 10
37.323889
 20
-9.334583
 30
0.0
 10
37.691644
 20
-10.148145
 30
0.0
 10
38.115206
 20
-10.784302
 30
0.0
 10
38.602708
 20
-11.239583
 30
0.0
  0
SPLINE
  5
191
100
AcDbEntity
  8
Layer_1
 62
7
100
AcDbSpline
 70
8
 71
3
 72
8
 73
4
 74
0
 40
0
 40
0
 40
0
 40
0
 40
1
 40
1
 40
1
 40
1
 10
38.602708
 20
-11.239583
 30
0.0
 10
37.885714
 20
-12.256515
 30
0.0
 10
37.186187
 20
-12.993764
 30
0.0
 10
36.494861
 20
-13.462083
 30
0.0
  0
SPLINE
  5
192
100
AcDbEntity
  8
Layer_1
 62
7
100
AcDbSpline
 70
8
 71
3
 72
8
 73
4
 74
0
 40
0
 40
0
 40
0
 40
0
 40
1
 40
1
 40
1
 40
1
 10
36.494861
 20
-13.462083
 30
0.0
 10
35.803527
 20
-13.930431
 30
0.0
 10
35.320729
 20
-13.940535
 30
0.0
 10
35.048472
 20
-13.479722
 30
0.0
  0
SPLINE
  5
193
100
AcDbEntity
  8
Layer_1
 62
7
100
AcDbSpline
 70
8
 71
3
 72
8
 73
4
 74
0
 40
0
 40
0
 40
0
 40
0
 40
1
 40
1
 40
1
 40
1
 10
35.048472
 20
-13.479722
 30
0.0
 10
34.653629
 20
-12.847178
 30
0.0
 10
34.600631
 20
-11.867161
 30
0.0
 10
34.898542
 20
-10.551667
 30
0.0
  0
SPLINE
  5
194
100
AcDbEntity
  8
Layer_1
 62
7
100
AcDbSpline
 70
8
 71
3
 72
8
 73
4
 74
0
 40
0
 40
0
 40
0
 40
0
 40
1
 40
1
 40
1
 40
1
 10
34.898542
 20
-10.551667
 30
0.0
 10
35.196455
 20
-9.236229
 30
0.0
 10
35.745259
 20
-7.888590
 30
0.0
 10
36.547778
 20
-6.494722
 30
0.0
  0
LINE
  5
195
100
AcDbEntity
  8
Layer_1
 62
7
100
AcDbLine
 10
36.547778
 20
-6.494722
 30
0.0
 11
36.547778
 21
-6.494722
 31
0.0
  0
SPLINE
  5
196
100
AcDbEntity
  8
Layer_1
 62
7
100
AcDbSpline
 70
8
 71
3
 72
8
 73
4
 74
0
 40
0
 40
0
 40
0
 40
0
 40
1
 40
1
 40
1
 40
1
 10
51.399722
 20
-9.361028
 30
0.0
 10
50.744024
 20
-9.695066
 30
0.0
 10
50.107384
 20
-10.475015
 30
0.0
 10
49.485903
 20
-11.715833
 30
0.0
  0
SPLINE
  5
197
100
AcDbEntity
  8
Layer_1
 62
7
100
AcDbSpline
 70
8
 71
3
 72
8
 73
4
 74
0
 40
0
 40
0
 40
0
 40
0
 40
1
 40
1
 40
1
 40
1
 10
49.485903
 20
-11.715833
 30
0.0
 10
48.864418
 20
-12.956680
 30
0.0
 10
48.491806
 20
-13.993677
 30
0.0
 10
48.383472
 20
-14.820278
 30
0.0
  0
SPLINE
  5
198
100
AcDbEntity
  8
Layer_1
 62
7
100
AcDbSpline
 70
8
 71
3
 72
8
 73
4
 74
0
 40
0
 40
0
 40
0
 40
0
 40
1
 40
1
 40
1
 40
1
 10
48.383472
 20
-14.820278
 30
0.0
 10
48.354965
 20
-15.659945
 30
0.0
 10
48.727574
 20
-16.395840
 30
0.0
 10
49.485903
 20
-17.033972
 30
0.0
  0
SPLINE
  5
199
100
AcDbEntity
  8
Layer_1
 62
7
100
AcDbSpline
 70
8
 71
3
 72
8
 73
4
 74
0
 40
0
 40
0
 40
0
 40
0
 40
1
 40
1
 40
1
 40
1
 10
49.485903
 20
-17.033972
 30
0.0
 10
50.244228
 20
-17.672077
 30
0.0
 10
50.946874
 20
-18.014610
 30
0.0
 10
51.602569
 20
-18.048194
 30
0.0
  0
SPLINE
  5
19a
100
AcDbEntity
  8
Layer_1
 62
7
100
AcDbSpline
 70
8
 71
3
 72
8
 73
4
 74
0
 40
0
 40
0
 40
0
 40
0
 40
1
 40
1
 40
1
 40
1
 10
51.602569
 20
-18.048194
 30
0.0
 10
52.229755
 20
-17.801899
 30
0.0
 10
52.957338
 20
-17.082994
 30
0.0
 10
53.789792
 20
-15.896250
 30
0.0
  0
SPLINE
  5
19b
100
AcDbEntity
  8
Layer_1
 62
7
100
AcDbSpline
 70
8
 71
3
 72
8
 73
4
 74
0
 40
0
 40
0
 40
0
 40
0
 40
1
 40
1
 40
1
 40
1
 10
53.789792
 20
-15.896250
 30
0.0
 10
54.622232
 20
-14.709534
 30
0.0
 10
55.076976
 20
-13.725425
 30
0.0
 10
55.156806
 20
-12.941750
 30
0.0
  0
SPLINE
  5
19c
100
AcDbEntity
  8
Layer_1
 62
7
100
AcDbSpline
 70
8
 71
3
 72
8
 73
4
 74
0
 40
0
 40
0
 40
0
 40
0
 40
1
 40
1
 40
1
 40
1
 10
55.156806
 20
-12.941750
 30
0.0
 10
55.171058
 20
-12.187906
 30
0.0
 10
54.735016
 20
-11.386226
 30
0.0
 10
53.842708
 20
-10.542861
 30
0.0
  0
SPLINE
  5
19d
100
AcDbEntity
  8
Layer_1
 62
7
100
AcDbSpline
 70
8
 71
3
 72
8
 73
4
 74
0
 40
0
 40
0
 40
0
 40
0
 40
1
 40
1
 40
1
 40
1
 10
53.842708
 20
-10.542861
 30
0.0
 10
52.950389
 20
-9.699468
 30
0.0
 10
52.138089
 20
-9.308788
 30
0.0
 10
51.399722
 20
-9.361028
 30
0.0
  0
LINE
  5
19e
100
AcDbEntity
  8
Layer_1
 62
7
100
AcDbLine
 10
51.399722
 20
-9.361028
 30
0.0
 11
51.399722
 21
-9.361028
 31
0.0
  0
ENDSEC
  0
SECTION
  2
OBJECTS
  0
DICTIONARY
  5
C
330
0
100
AcDbDictionary
  3
ACAD_GROUP
350
D
  3
ACAD_MLINESTYLE
350
17
  0
DICTIONARY
  5
D
330
C
100
AcDbDictionary
  0
DICTIONARY
  5
1A
330
C
100
AcDbDictionary
  0
DICTIONARY
  5
17
330
C
100
AcDbDictionary
  3
STANDARD
350
18
  0
DICTIONARY
  5
19
330
C
100
AcDbDictionary
  0
ENDSEC
  0
EOF
