  0
SECTION
  2
HEADER
  9
$ACADVER
  1
AC1014
  9
$HANDSEED
  5
FFFF
  9
$MEASUREMENT
 70
     1
  0
ENDSEC
  0
SECTION
  2
TABLES
  0
TABLE
  2
VPORT
  5
8
330
0
100
AcDbSymbolTable
 70
     4
  0
VPORT
  5
2E
330
8
100
AcDbSymbolTableRecord
100
AcDbViewportTableRecord
  2
*ACTIVE
 70
     0
 10
0.0
 20
0.0
 11
1.0
 21
1.0
 12
210.0
 22
148.5
 13
0.0
 23
0.0
 14
10.0
 24
10.0
 15
10.0
 25
10.0
 16
0.0
 26
0.0
 36
1.0
 17
0.0
 27
0.0
 37
0.0
 40
341.0
 41
1.24
 42
50.0
 43
0.0
 44
0.0
 50
0.0
 51
0.0
 71
     0
 72
   100
 73
     1
 74
     3
 75
     0
 76
     0
 77
     0
 78
     0
  0
ENDTAB
  0
TABLE
  2
LTYPE
  5
5
330
0
100
AcDbSymbolTable
 70
     1
  0
LTYPE
  5
14
330
5
100
AcDbSymbolTableRecord
100
AcDbLinetypeTableRecord
  2
BYBLOCK
 70
     0
  3

 72
    65
 73
     0
 40
0.0
  0
LTYPE
  5
15
330
5
100
AcDbSymbolTableRecord
100
AcDbLinetypeTableRecord
  2
BYLAYER
 70
     0
  3

 72
    65
 73
     0
 40
0.0
  0
LTYPE
  5
16
330
5
100
AcDbSymbolTableRecord
100
AcDbLinetypeTableRecord
  2
CONTINUOUS
 70
     0
  3
Solid line
 72
    65
 73
     0
 40
0.0
  0
ENDTAB
  0
TABLE
  2
LAYER
  5
2
100
AcDbSymbolTable
 70
2
  0
LAYER
  5
50
100
AcDbSymbolTableRecord
100
AcDbLayerTableRecord
  2
0
 70
0
  6
CONTINUOUS
  0
LAYER
  5
51
100
AcDbSymbolTableRecord
100
AcDbLayerTableRecord
  2
Layer_1
 70
0
  6
CONTINUOUS
  0
ENDTAB
  0
TABLE
  2
STYLE
  5
3
330
0
100
AcDbSymbolTable
 70
     1
  0
STYLE
  5
11
330
3
100
AcDbSymbolTableRecord
100
AcDbTextStyleTableRecord
  2
STANDARD
 70
     0
 40
0.0
 41
1.0
 50
0.0
 71
     0
 42
2.5
  3
txt
  4

  0
ENDTAB
  0
TABLE
  2
VIEW
  5
6
330
0
100
AcDbSymbolTable
 70
     0
  0
ENDTAB
  0
TABLE
  2
UCS
  5
7
330
0
100
AcDbSymbolTable
 70
     0
  0
ENDTAB
  0
TABLE
  2
APPID
  5
9
330
0
100
AcDbSymbolTable
 70
     2
  0
APPID
  5
12
330
9
100
AcDbSymbolTableRecord
100
AcDbRegAppTableRecord
  2
ACAD
 70
     0
  0
ENDTAB
  0
TABLE
  2
DIMSTYLE
  5
A
330
0
100
AcDbSymbolTable
 70
     1
  0
DIMSTYLE
105
27
330
A
100
AcDbSymbolTableRecord
100
AcDbDimStyleTableRecord
  2
ISO-25
 70
     0
  3

  4

  5

  6

  7

 40
1.0
 41
2.5
 42
0.625
 43
3.75
 44
1.25
 45
0.0
 46
0.0
 47
0.0
 48
0.0
140
2.5
141
2.5
142
0.0
143
0.03937007874016
144
1.0
145
0.0
146
1.0
147
0.625
 71
     0
 72
     0
 73
     0
 74
     0
 75
     0
 76
     0
 77
     1
 78
     8
170
     0
171
     3
172
     1
173
     0
174
     0
175
     0
176
     0
177
     0
178
     0
270
     2
271
     2
272
     2
273
     2
274
     3
340
11
275
     0
280
     0
281
     0
282
     0
283
     0
284
     8
285
     0
286
     0
287
     3
288
     0
  0
ENDTAB
  0
TABLE
  2
BLOCK_RECORD
  5
1
330
0
100
AcDbSymbolTable
 70
     1
  0
BLOCK_RECORD
  5
1F
330
1
100
AcDbSymbolTableRecord
100
AcDbBlockTableRecord
  2
*MODEL_SPACE
  0
BLOCK_RECORD
  5
1B
330
1
100
AcDbSymbolTableRecord
100
AcDbBlockTableRecord
  2
*PAPER_SPACE
  0
ENDTAB
  0
ENDSEC
  0
SECTION
  2
BLOCKS
  0
BLOCK
  5
20
330
1F
100
AcDbEntity
  8
0
100
AcDbBlockBegin
  2
*MODEL_SPACE
 70
     0
 10
0.0
 20
0.0
 30
0.0
  3
*MODEL_SPACE
  1

  0
ENDBLK
  5
21
330
1F
100
AcDbEntity
  8
0
100
AcDbBlockEnd
  0
BLOCK
  5
1C
330
1B
100
AcDbEntity
 67
     1
  8
0
100
AcDbBlockBegin
  2
*PAPER_SPACE
  1

  0
ENDBLK
  5
1D
330
1B
100
AcDbEntity
 67
     1
  8
0
100
AcDbBlockEnd
  0
ENDSEC
  0
SECTION
  2
ENTITIES
  0
LINE
  5
100
100
AcDbEntity
  8
Layer_1
 62
7
100
AcDbLine
 10
-209.858974
 20
296.859002
 30
0.0
 11
209.858974
 21
296.859002
 31
0.0
  0
LINE
  5
101
100
AcDbEntity
  8
Layer_1
 62
7
100
AcDbLine
 10
209.858974
 20
296.859002
 30
0.0
 11
209.858974
 21
-296.858971
 31
0.0
  0
LINE
  5
102
100
AcDbEntity
  8
Layer_1
 62
7
100
AcDbLine
 10
209.858974
 20
-296.858971
 30
0.0
 11
-209.858974
 21
-296.858971
 31
0.0
  0
LINE
  5
103
100
AcDbEntity
  8
Layer_1
 62
7
100
AcDbLine
 10
-209.858974
 20
-296.858971
 30
0.0
 11
-209.858974
 21
296.859002
 31
0.0
  0
LINE
  5
104
100
AcDbEntity
  8
Layer_1
 62
7
100
AcDbLine
 10
-148.358885
 20
-209.858919
 30
0.0
 11
-148.358885
 21
210.141082
 31
0.0
  0
LINE
  5
105
100
AcDbEntity
  8
Layer_1
 62
7
100
AcDbLine
 10
-148.358885
 20
210.141082
 30
0.0
 11
148.641108
 21
210.141082
 31
0.0
  0
LINE
  5
106
100
AcDbEntity
  8
Layer_1
 62
7
100
AcDbLine
 10
148.641108
 20
210.141082
 30
0.0
 11
148.641108
 21
-209.858919
 31
0.0
  0
LINE
  5
107
100
AcDbEntity
  8
Layer_1
 62
7
100
AcDbLine
 10
148.641108
 20
-209.858919
 30
0.0
 11
-148.358885
 21
-209.858919
 31
0.0
  0
LINE
  5
108
100
AcDbEntity
  8
Layer_1
 62
7
100
AcDbLine
 10
-107.863380
 20
139.363386
 30
0.0
 11
107.863380
 21
139.363386
 31
0.0
  0
LINE
  5
109
100
AcDbEntity
  8
Layer_1
 62
7
100
AcDbLine
 10
107.863380
 20
139.363386
 30
0.0
 11
107.863380
 21
-139.363364
 31
0.0
  0
LINE
  5
10a
100
AcDbEntity
  8
Layer_1
 62
7
100
AcDbLine
 10
107.863380
 20
-139.363364
 30
0.0
 11
-107.863380
 21
-139.363364
 31
0.0
  0
LINE
  5
10b
100
AcDbEntity
  8
Layer_1
 62
7
100
AcDbLine
 10
-107.863380
 20
-139.363364
 30
0.0
 11
-107.863380
 21
139.363386
 31
0.0
  0
LINE
  5
10c
100
AcDbEntity
  8
Layer_1
 62
7
100
AcDbLine
 10
-198.887842
 20
287.996927
 30
0.0
 11
-201.153339
 21
281.853633
 31
0.0
  0
LINE
  5
10d
100
AcDbEntity
  8
Layer_1
 62
7
100
AcDbLine
 10
-201.153339
 20
281.853633
 30
0.0
 11
-196.614079
 21
281.853633
 31
0.0
  0
LINE
  5
10e
100
AcDbEntity
  8
Layer_1
 62
7
100
AcDbLine
 10
-196.614079
 20
281.853633
 30
0.0
 11
-198.887842
 21
287.996927
 31
0.0
  0
LINE
  5
10f
100
AcDbEntity
  8
Layer_1
 62
7
100
AcDbLine
 10
-198.887842
 20
287.996927
 30
0.0
 11
-198.887842
 21
287.996927
 31
0.0
  0
LINE
  5
110
100
AcDbEntity
  8
Layer_1
 62
7
100
AcDbLine
 10
-199.830422
 20
289.642304
 30
0.0
 11
-197.936996
 21
289.642304
 31
0.0
  0
LINE
  5
111
100
AcDbEntity
  8
Layer_1
 62
7
100
AcDbLine
 10
-197.936996
 20
289.642304
 30
0.0
 11
-193.232374
 21
277.297838
 31
0.0
  0
LINE
  5
112
100
AcDbEntity
  8
Layer_1
 62
7
100
AcDbLine
 10
-193.232374
 20
277.297838
 30
0.0
 11
-194.968701
 21
277.297838
 31
0.0
  0
LINE
  5
113
100
AcDbEntity
  8
Layer_1
 62
7
100
AcDbLine
 10
-194.968701
 20
277.297838
 30
0.0
 11
-196.093182
 21
280.464570
 31
0.0
  0
LINE
  5
114
100
AcDbEntity
  8
Layer_1
 62
7
100
AcDbLine
 10
-196.093182
 20
280.464570
 30
0.0
 11
-201.657701
 21
280.464570
 31
0.0
  0
LINE
  5
115
100
AcDbEntity
  8
Layer_1
 62
7
100
AcDbLine
 10
-201.657701
 20
280.464570
 30
0.0
 11
-202.782178
 21
277.297838
 31
0.0
  0
LINE
  5
116
100
AcDbEntity
  8
Layer_1
 62
7
100
AcDbLine
 10
-202.782178
 20
277.297838
 30
0.0
 11
-204.543313
 21
277.297838
 31
0.0
  0
LINE
  5
117
100
AcDbEntity
  8
Layer_1
 62
7
100
AcDbLine
 10
-204.543313
 20
277.297838
 30
0.0
 11
-199.830422
 21
289.642304
 31
0.0
  0
LINE
  5
118
100
AcDbEntity
  8
Layer_1
 62
7
100
AcDbLine
 10
-199.830422
 20
289.642304
 30
0.0
 11
-199.830422
 21
289.642304
 31
0.0
  0
LINE
  5
119
100
AcDbEntity
  8
Layer_1
 62
7
100
AcDbLine
 10
-189.850669
 20
278.703437
 30
0.0
 11
-184.021566
 21
278.703437
 31
0.0
  0
LINE
  5
11a
100
AcDbEntity
  8
Layer_1
 62
7
100
AcDbLine
 10
-184.021566
 20
278.703437
 30
0.0
 11
-184.021566
 21
277.297838
 31
0.0
  0
LINE
  5
11b
100
AcDbEntity
  8
Layer_1
 62
7
100
AcDbLine
 10
-184.021566
 20
277.297838
 30
0.0
 11
-191.859848
 21
277.297838
 31
0.0
  0
LINE
  5
11c
100
AcDbEntity
  8
Layer_1
 62
7
100
AcDbLine
 10
-191.859848
 20
277.297838
 30
0.0
 11
-191.859848
 21
278.703437
 31
0.0
  0
SPLINE
  5
11d
100
AcDbEntity
  8
Layer_1
 62
7
100
AcDbSpline
 70
8
 71
3
 72
8
 73
4
 74
0
 40
0
 40
0
 40
0
 40
0
 40
1
 40
1
 40
1
 40
1
 10
-191.859848
 20
278.703437
 30
0.0
 10
-191.225951
 20
279.359384
 30
0.0
 10
-190.363299
 20
280.238572
 30
0.0
 10
-189.271893
 20
281.341002
 30
0.0
  0
SPLINE
  5
11e
100
AcDbEntity
  8
Layer_1
 62
7
100
AcDbSpline
 70
8
 71
3
 72
8
 73
4
 74
0
 40
0
 40
0
 40
0
 40
0
 40
1
 40
1
 40
1
 40
1
 10
-189.271893
 20
281.341002
 30
0.0
 10
-188.174974
 20
282.448945
 30
0.0
 10
-187.485955
 20
283.162769
 30
0.0
 10
-187.204835
 20
283.482474
 30
0.0
  0
SPLINE
  5
11f
100
AcDbEntity
  8
Layer_1
 62
7
100
AcDbSpline
 70
8
 71
3
 72
8
 73
4
 74
0
 40
0
 40
0
 40
0
 40
0
 40
1
 40
1
 40
1
 40
1
 10
-187.204835
 20
283.482474
 30
0.0
 10
-186.670156
 20
284.083298
 30
0.0
 10
-186.298086
 20
284.590416
 30
0.0
 10
-186.088624
 20
285.003828
 30
0.0
  0
SPLINE
  5
120
100
AcDbEntity
  8
Layer_1
 62
7
100
AcDbSpline
 70
8
 71
3
 72
8
 73
4
 74
0
 40
0
 40
0
 40
0
 40
0
 40
1
 40
1
 40
1
 40
1
 10
-186.088624
 20
285.003828
 30
0.0
 10
-185.873650
 20
285.422751
 30
0.0
 10
-185.766162
 20
285.833407
 30
0.0
 10
-185.766162
 20
286.235794
 30
0.0
  0
SPLINE
  5
121
100
AcDbEntity
  8
Layer_1
 62
7
100
AcDbSpline
 70
8
 71
3
 72
8
 73
4
 74
0
 40
0
 40
0
 40
0
 40
0
 40
1
 40
1
 40
1
 40
1
 10
-185.766162
 20
286.235794
 30
0.0
 10
-185.766162
 20
286.891740
 30
0.0
 10
-185.997673
 20
287.426419
 30
0.0
 10
-186.460694
 20
287.839831
 30
0.0
  0
SPLINE
  5
122
100
AcDbEntity
  8
Layer_1
 62
7
100
AcDbSpline
 70
8
 71
3
 72
8
 73
4
 74
0
 40
0
 40
0
 40
0
 40
0
 40
1
 40
1
 40
1
 40
1
 10
-186.460694
 20
287.839831
 30
0.0
 10
-186.918203
 20
288.253242
 30
0.0
 10
-187.516271
 20
288.459948
 30
0.0
 10
-188.254900
 20
288.459948
 30
0.0
  0
SPLINE
  5
123
100
AcDbEntity
  8
Layer_1
 62
7
100
AcDbSpline
 70
8
 71
3
 72
8
 73
4
 74
0
 40
0
 40
0
 40
0
 40
0
 40
1
 40
1
 40
1
 40
1
 10
-188.254900
 20
288.459948
 30
0.0
 10
-188.778554
 20
288.459948
 30
0.0
 10
-189.332525
 20
288.368997
 30
0.0
 10
-189.916813
 20
288.187096
 30
0.0
  0
SPLINE
  5
124
100
AcDbEntity
  8
Layer_1
 62
7
100
AcDbSpline
 70
8
 71
3
 72
8
 73
4
 74
0
 40
0
 40
0
 40
0
 40
0
 40
1
 40
1
 40
1
 40
1
 10
-189.916813
 20
288.187096
 30
0.0
 10
-190.495591
 20
288.005195
 30
0.0
 10
-191.115708
 20
287.729587
 30
0.0
 10
-191.777166
 20
287.360273
 30
0.0
  0
LINE
  5
125
100
AcDbEntity
  8
Layer_1
 62
7
100
AcDbLine
 10
-191.777166
 20
287.360273
 30
0.0
 11
-191.777166
 21
289.046992
 31
0.0
  0
SPLINE
  5
126
100
AcDbEntity
  8
Layer_1
 62
7
100
AcDbSpline
 70
8
 71
3
 72
8
 73
4
 74
0
 40
0
 40
0
 40
0
 40
0
 40
1
 40
1
 40
1
 40
1
 10
-191.777166
 20
289.046992
 30
0.0
 10
-191.104683
 20
289.317087
 30
0.0
 10
-190.476297
 20
289.521037
 30
0.0
 10
-189.892009
 20
289.658841
 30
0.0
  0
SPLINE
  5
127
100
AcDbEntity
  8
Layer_1
 62
7
100
AcDbSpline
 70
8
 71
3
 72
8
 73
4
 74
0
 40
0
 40
0
 40
0
 40
0
 40
1
 40
1
 40
1
 40
1
 10
-189.892009
 20
289.658841
 30
0.0
 10
-189.307720
 20
289.796645
 30
0.0
 10
-188.773042
 20
289.865547
 30
0.0
 10
-188.287973
 20
289.865547
 30
0.0
  0
SPLINE
  5
128
100
AcDbEntity
  8
Layer_1
 62
7
100
AcDbSpline
 70
8
 71
3
 72
8
 73
4
 74
0
 40
0
 40
0
 40
0
 40
0
 40
1
 40
1
 40
1
 40
1
 10
-188.287973
 20
289.865547
 30
0.0
 10
-187.009153
 20
289.865547
 30
0.0
 10
-185.989405
 20
289.545842
 30
0.0
 10
-185.228730
 20
288.906432
 30
0.0
  0
SPLINE
  5
129
100
AcDbEntity
  8
Layer_1
 62
7
100
AcDbSpline
 70
8
 71
3
 72
8
 73
4
 74
0
 40
0
 40
0
 40
0
 40
0
 40
1
 40
1
 40
1
 40
1
 10
-185.228730
 20
288.906432
 30
0.0
 10
-184.468052
 20
288.267022
 30
0.0
 10
-184.087714
 20
287.412639
 30
0.0
 10
-184.087714
 20
286.343281
 30
0.0
  0
SPLINE
  5
12a
100
AcDbEntity
  8
Layer_1
 62
7
100
AcDbSpline
 70
8
 71
3
 72
8
 73
4
 74
0
 40
0
 40
0
 40
0
 40
0
 40
1
 40
1
 40
1
 40
1
 10
-184.087714
 20
286.343281
 30
0.0
 10
-184.087714
 20
285.836163
 30
0.0
 10
-184.184176
 20
285.353850
 30
0.0
 10
-184.377101
 20
284.896341
 30
0.0
  0
SPLINE
  5
12b
100
AcDbEntity
  8
Layer_1
 62
7
100
AcDbSpline
 70
8
 71
3
 72
8
 73
4
 74
0
 40
0
 40
0
 40
0
 40
0
 40
1
 40
1
 40
1
 40
1
 10
-184.377101
 20
284.896341
 30
0.0
 10
-184.564514
 20
284.444344
 30
0.0
 10
-184.909023
 20
283.909665
 30
0.0
 10
-185.410630
 20
283.292304
 30
0.0
  0
SPLINE
  5
12c
100
AcDbEntity
  8
Layer_1
 62
7
100
AcDbSpline
 70
8
 71
3
 72
8
 73
4
 74
0
 40
0
 40
0
 40
0
 40
0
 40
1
 40
1
 40
1
 40
1
 10
-185.410630
 20
283.292304
 30
0.0
 10
-185.548434
 20
283.132452
 30
0.0
 10
-185.986650
 20
282.669431
 30
0.0
 10
-186.725278
 20
281.903242
 30
0.0
  0
SPLINE
  5
12d
100
AcDbEntity
  8
Layer_1
 62
7
100
AcDbSpline
 70
8
 71
3
 72
8
 73
4
 74
0
 40
0
 40
0
 40
0
 40
0
 40
1
 40
1
 40
1
 40
1
 10
-186.725278
 20
281.903242
 30
0.0
 10
-187.463906
 20
281.142565
 30
0.0
 10
-188.505703
 20
280.075963
 30
0.0
 10
-189.850669
 20
278.703437
 30
0.0
  0
LINE
  5
12e
100
AcDbEntity
  8
Layer_1
 62
7
100
AcDbLine
 10
-189.850669
 20
278.703437
 30
0.0
 11
-189.850669
 21
278.703437
 31
0.0
  0
LINE
  5
12f
100
AcDbEntity
  8
Layer_1
 62
7
100
AcDbLine
 10
-137.332093
 20
201.905804
 30
0.0
 11
-139.597590
 21
195.762509
 31
0.0
  0
LINE
  5
130
100
AcDbEntity
  8
Layer_1
 62
7
100
AcDbLine
 10
-139.597590
 20
195.762509
 30
0.0
 11
-135.058331
 21
195.762509
 31
0.0
  0
LINE
  5
131
100
AcDbEntity
  8
Layer_1
 62
7
100
AcDbLine
 10
-135.058331
 20
195.762509
 30
0.0
 11
-137.332093
 21
201.905804
 31
0.0
  0
LINE
  5
132
100
AcDbEntity
  8
Layer_1
 62
7
100
AcDbLine
 10
-137.332093
 20
201.905804
 30
0.0
 11
-137.332093
 21
201.905804
 31
0.0
  0
LINE
  5
133
100
AcDbEntity
  8
Layer_1
 62
7
100
AcDbLine
 10
-138.274673
 20
203.551182
 30
0.0
 11
-136.381247
 21
203.551182
 31
0.0
  0
LINE
  5
134
100
AcDbEntity
  8
Layer_1
 62
7
100
AcDbLine
 10
-136.381247
 20
203.551182
 30
0.0
 11
-131.676625
 21
191.206717
 31
0.0
  0
LINE
  5
135
100
AcDbEntity
  8
Layer_1
 62
7
100
AcDbLine
 10
-131.676625
 20
191.206717
 30
0.0
 11
-133.412955
 21
191.206717
 31
0.0
  0
LINE
  5
136
100
AcDbEntity
  8
Layer_1
 62
7
100
AcDbLine
 10
-133.412955
 20
191.206717
 30
0.0
 11
-134.537433
 21
194.373448
 31
0.0
  0
LINE
  5
137
100
AcDbEntity
  8
Layer_1
 62
7
100
AcDbLine
 10
-134.537433
 20
194.373448
 30
0.0
 11
-140.101952
 21
194.373448
 31
0.0
  0
LINE
  5
138
100
AcDbEntity
  8
Layer_1
 62
7
100
AcDbLine
 10
-140.101952
 20
194.373448
 30
0.0
 11
-141.226430
 21
191.206717
 31
0.0
  0
LINE
  5
139
100
AcDbEntity
  8
Layer_1
 62
7
100
AcDbLine
 10
-141.226430
 20
191.206717
 30
0.0
 11
-142.987564
 21
191.206717
 31
0.0
  0
LINE
  5
13a
100
AcDbEntity
  8
Layer_1
 62
7
100
AcDbLine
 10
-142.987564
 20
191.206717
 30
0.0
 11
-138.274673
 21
203.551182
 31
0.0
  0
LINE
  5
13b
100
AcDbEntity
  8
Layer_1
 62
7
100
AcDbLine
 10
-138.274673
 20
203.551182
 30
0.0
 11
-138.274673
 21
203.551182
 31
0.0
  0
SPLINE
  5
13c
100
AcDbEntity
  8
Layer_1
 62
7
100
AcDbSpline
 70
8
 71
3
 72
8
 73
4
 74
0
 40
0
 40
0
 40
0
 40
0
 40
1
 40
1
 40
1
 40
1
 10
-124.673436
 20
197.862640
 30
0.0
 10
-123.874173
 20
197.691764
 30
0.0
 10
-123.251300
 20
197.336230
 30
0.0
 10
-122.804815
 20
196.796038
 30
0.0
  0
SPLINE
  5
13d
100
AcDbEntity
  8
Layer_1
 62
7
100
AcDbSpline
 70
8
 71
3
 72
8
 73
4
 74
0
 40
0
 40
0
 40
0
 40
0
 40
1
 40
1
 40
1
 40
1
 10
-122.804815
 20
196.796038
 30
0.0
 10
-122.352819
 20
196.255847
 30
0.0
 10
-122.126821
 20
195.588877
 30
0.0
 10
-122.126821
 20
194.795127
 30
0.0
  0
SPLINE
  5
13e
100
AcDbEntity
  8
Layer_1
 62
7
100
AcDbSpline
 70
8
 71
3
 72
8
 73
4
 74
0
 40
0
 40
0
 40
0
 40
0
 40
1
 40
1
 40
1
 40
1
 10
-122.126821
 20
194.795127
 30
0.0
 10
-122.126821
 20
193.576941
 30
0.0
 10
-122.545745
 20
192.634363
 30
0.0
 10
-123.383593
 20
191.967393
 30
0.0
  0
SPLINE
  5
13f
100
AcDbEntity
  8
Layer_1
 62
7
100
AcDbSpline
 70
8
 71
3
 72
8
 73
4
 74
0
 40
0
 40
0
 40
0
 40
0
 40
1
 40
1
 40
1
 40
1
 10
-123.383593
 20
191.967393
 30
0.0
 10
-124.221439
 20
191.300423
 30
0.0
 10
-125.412064
 20
190.966938
 30
0.0
 10
-126.955468
 20
190.966938
 30
0.0
  0
SPLINE
  5
140
100
AcDbEntity
  8
Layer_1
 62
7
100
AcDbSpline
 70
8
 71
3
 72
8
 73
4
 74
0
 40
0
 40
0
 40
0
 40
0
 40
1
 40
1
 40
1
 40
1
 10
-126.955468
 20
190.966938
 30
0.0
 10
-127.473609
 20
190.966938
 30
0.0
 10
-128.008288
 20
191.019303
 30
0.0
 10
-128.559504
 20
191.124034
 30
0.0
  0
SPLINE
  5
141
100
AcDbEntity
  8
Layer_1
 62
7
100
AcDbSpline
 70
8
 71
3
 72
8
 73
4
 74
0
 40
0
 40
0
 40
0
 40
0
 40
1
 40
1
 40
1
 40
1
 10
-128.559504
 20
191.124034
 30
0.0
 10
-129.105207
 20
191.223252
 30
0.0
 10
-129.670202
 20
191.374837
 30
0.0
 10
-130.254491
 20
191.578787
 30
0.0
  0
LINE
  5
142
100
AcDbEntity
  8
Layer_1
 62
7
100
AcDbLine
 10
-130.254491
 20
191.578787
 30
0.0
 11
-130.254491
 21
193.191092
 31
0.0
  0
SPLINE
  5
143
100
AcDbEntity
  8
Layer_1
 62
7
100
AcDbSpline
 70
8
 71
3
 72
8
 73
4
 74
0
 40
0
 40
0
 40
0
 40
0
 40
1
 40
1
 40
1
 40
1
 10
-130.254491
 20
193.191092
 30
0.0
 10
-129.791469
 20
192.920996
 30
0.0
 10
-129.284351
 20
192.717046
 30
0.0
 10
-128.733135
 20
192.579243
 30
0.0
  0
SPLINE
  5
144
100
AcDbEntity
  8
Layer_1
 62
7
100
AcDbSpline
 70
8
 71
3
 72
8
 73
4
 74
0
 40
0
 40
0
 40
0
 40
0
 40
1
 40
1
 40
1
 40
1
 10
-128.733135
 20
192.579243
 30
0.0
 10
-128.181921
 20
192.441439
 30
0.0
 10
-127.605902
 20
192.372537
 30
0.0
 10
-127.005077
 20
192.372537
 30
0.0
  0
SPLINE
  5
145
100
AcDbEntity
  8
Layer_1
 62
7
100
AcDbSpline
 70
8
 71
3
 72
8
 73
4
 74
0
 40
0
 40
0
 40
0
 40
0
 40
1
 40
1
 40
1
 40
1
 10
-127.005077
 20
192.372537
 30
0.0
 10
-125.957767
 20
192.372537
 30
0.0
 10
-125.161261
 20
192.579243
 30
0.0
 10
-124.615558
 20
192.992653
 30
0.0
  0
SPLINE
  5
146
100
AcDbEntity
  8
Layer_1
 62
7
100
AcDbSpline
 70
8
 71
3
 72
8
 73
4
 74
0
 40
0
 40
0
 40
0
 40
0
 40
1
 40
1
 40
1
 40
1
 10
-124.615558
 20
192.992653
 30
0.0
 10
-124.064342
 20
193.406065
 30
0.0
 10
-123.788734
 20
194.006890
 30
0.0
 10
-123.788734
 20
194.795127
 30
0.0
  0
SPLINE
  5
147
100
AcDbEntity
  8
Layer_1
 62
7
100
AcDbSpline
 70
8
 71
3
 72
8
 73
4
 74
0
 40
0
 40
0
 40
0
 40
0
 40
1
 40
1
 40
1
 40
1
 10
-123.788734
 20
194.795127
 30
0.0
 10
-123.788734
 20
195.522732
 30
0.0
 10
-124.045050
 20
196.090484
 30
0.0
 10
-124.557680
 20
196.498383
 30
0.0
  0
SPLINE
  5
148
100
AcDbEntity
  8
Layer_1
 62
7
100
AcDbSpline
 70
8
 71
3
 72
8
 73
4
 74
0
 40
0
 40
0
 40
0
 40
0
 40
1
 40
1
 40
1
 40
1
 10
-124.557680
 20
196.498383
 30
0.0
 10
-125.064798
 20
196.911794
 30
0.0
 10
-125.773109
 20
197.118499
 30
0.0
 10
-126.682616
 20
197.118499
 30
0.0
  0
LINE
  5
149
100
AcDbEntity
  8
Layer_1
 62
7
100
AcDbLine
 10
-126.682616
 20
197.118499
 30
0.0
 11
-128.121289
 21
197.118499
 31
0.0
  0
LINE
  5
14a
100
AcDbEntity
  8
Layer_1
 62
7
100
AcDbLine
 10
-128.121289
 20
197.118499
 30
0.0
 11
-128.121289
 21
198.491025
 31
0.0
  0
LINE
  5
14b
100
AcDbEntity
  8
Layer_1
 62
7
100
AcDbLine
 10
-128.121289
 20
198.491025
 30
0.0
 11
-126.616468
 21
198.491025
 31
0.0
  0
SPLINE
  5
14c
100
AcDbEntity
  8
Layer_1
 62
7
100
AcDbSpline
 70
8
 71
3
 72
8
 73
4
 74
0
 40
0
 40
0
 40
0
 40
0
 40
1
 40
1
 40
1
 40
1
 10
-126.616468
 20
198.491025
 30
0.0
 10
-125.795159
 20
198.491025
 30
0.0
 10
-125.166774
 20
198.653634
 30
0.0
 10
-124.731314
 20
198.978852
 30
0.0
  0
SPLINE
  5
14d
100
AcDbEntity
  8
Layer_1
 62
7
100
AcDbSpline
 70
8
 71
3
 72
8
 73
4
 74
0
 40
0
 40
0
 40
0
 40
0
 40
1
 40
1
 40
1
 40
1
 10
-124.731314
 20
198.978852
 30
0.0
 10
-124.295853
 20
199.309580
 30
0.0
 10
-124.078122
 20
199.783625
 30
0.0
 10
-124.078122
 20
200.400986
 30
0.0
  0
SPLINE
  5
14e
100
AcDbEntity
  8
Layer_1
 62
7
100
AcDbSpline
 70
8
 71
3
 72
8
 73
4
 74
0
 40
0
 40
0
 40
0
 40
0
 40
1
 40
1
 40
1
 40
1
 10
-124.078122
 20
200.400986
 30
0.0
 10
-124.078122
 20
201.034884
 30
0.0
 10
-124.304121
 20
201.519953
 30
0.0
 10
-124.756119
 20
201.856195
 30
0.0
  0
SPLINE
  5
14f
100
AcDbEntity
  8
Layer_1
 62
7
100
AcDbSpline
 70
8
 71
3
 72
8
 73
4
 74
0
 40
0
 40
0
 40
0
 40
0
 40
1
 40
1
 40
1
 40
1
 10
-124.756119
 20
201.856195
 30
0.0
 10
-125.202602
 20
202.197949
 30
0.0
 10
-125.844768
 20
202.368826
 30
0.0
 10
-126.682616
 20
202.368826
 30
0.0
  0
SPLINE
  5
150
100
AcDbEntity
  8
Layer_1
 62
7
100
AcDbSpline
 70
8
 71
3
 72
8
 73
4
 74
0
 40
0
 40
0
 40
0
 40
0
 40
1
 40
1
 40
1
 40
1
 10
-126.682616
 20
202.368826
 30
0.0
 10
-127.140124
 20
202.368826
 30
0.0
 10
-127.630706
 20
202.319216
 30
0.0
 10
-128.154359
 20
202.219996
 30
0.0
  0
SPLINE
  5
151
100
AcDbEntity
  8
Layer_1
 62
7
100
AcDbSpline
 70
8
 71
3
 72
8
 73
4
 74
0
 40
0
 40
0
 40
0
 40
0
 40
1
 40
1
 40
1
 40
1
 10
-128.154359
 20
202.219996
 30
0.0
 10
-128.678015
 20
202.120778
 30
0.0
 10
-129.254036
 20
201.966438
 30
0.0
 10
-129.882420
 20
201.756977
 30
0.0
  0
LINE
  5
152
100
AcDbEntity
  8
Layer_1
 62
7
100
AcDbLine
 10
-129.882420
 20
201.756977
 30
0.0
 11
-129.882420
 21
203.245258
 31
0.0
  0
SPLINE
  5
153
100
AcDbEntity
  8
Layer_1
 62
7
100
AcDbSpline
 70
8
 71
3
 72
8
 73
4
 74
0
 40
0
 40
0
 40
0
 40
0
 40
1
 40
1
 40
1
 40
1
 10
-129.882420
 20
203.245258
 30
0.0
 10
-129.248523
 20
203.421647
 30
0.0
 10
-128.655966
 20
203.553939
 30
0.0
 10
-128.104750
 20
203.642133
 30
0.0
  0
SPLINE
  5
154
100
AcDbEntity
  8
Layer_1
 62
7
100
AcDbSpline
 70
8
 71
3
 72
8
 73
4
 74
0
 40
0
 40
0
 40
0
 40
0
 40
1
 40
1
 40
1
 40
1
 10
-128.104750
 20
203.642133
 30
0.0
 10
-127.548024
 20
203.730328
 30
0.0
 10
-127.024370
 20
203.774425
 30
0.0
 10
-126.533789
 20
203.774425
 30
0.0
  0
SPLINE
  5
155
100
AcDbEntity
  8
Layer_1
 62
7
100
AcDbSpline
 70
8
 71
3
 72
8
 73
4
 74
0
 40
0
 40
0
 40
0
 40
0
 40
1
 40
1
 40
1
 40
1
 10
-126.533789
 20
203.774425
 30
0.0
 10
-125.265992
 20
203.774425
 30
0.0
 10
-124.262779
 20
203.485036
 30
0.0
 10
-123.524151
 20
202.906259
 30
0.0
  0
SPLINE
  5
156
100
AcDbEntity
  8
Layer_1
 62
7
100
AcDbSpline
 70
8
 71
3
 72
8
 73
4
 74
0
 40
0
 40
0
 40
0
 40
0
 40
1
 40
1
 40
1
 40
1
 10
-123.524151
 20
202.906259
 30
0.0
 10
-122.785523
 20
202.332996
 30
0.0
 10
-122.416209
 20
201.555783
 30
0.0
 10
-122.416209
 20
200.574621
 30
0.0
  0
SPLINE
  5
157
100
AcDbEntity
  8
Layer_1
 62
7
100
AcDbSpline
 70
8
 71
3
 72
8
 73
4
 74
0
 40
0
 40
0
 40
0
 40
0
 40
1
 40
1
 40
1
 40
1
 10
-122.416209
 20
200.574621
 30
0.0
 10
-122.416209
 20
199.891112
 30
0.0
 10
-122.611890
 20
199.312336
 30
0.0
 10
-123.003254
 20
198.838291
 30
0.0
  0
SPLINE
  5
158
100
AcDbEntity
  8
Layer_1
 62
7
100
AcDbSpline
 70
8
 71
3
 72
8
 73
4
 74
0
 40
0
 40
0
 40
0
 40
0
 40
1
 40
1
 40
1
 40
1
 10
-123.003254
 20
198.838291
 30
0.0
 10
-123.394617
 20
198.369759
 30
0.0
 10
-123.951344
 20
198.044542
 30
0.0
 10
-124.673436
 20
197.862640
 30
0.0
  0
LINE
  5
159
100
AcDbEntity
  8
Layer_1
 62
7
100
AcDbLine
 10
-124.673436
 20
197.862640
 30
0.0
 11
-124.673436
 21
197.862640
 31
0.0
  0
LINE
  5
15a
100
AcDbEntity
  8
Layer_1
 62
7
100
AcDbLine
 10
-101.730088
 20
131.737861
 30
0.0
 11
-100.051636
 21
131.737861
 31
0.0
  0
LINE
  5
15b
100
AcDbEntity
  8
Layer_1
 62
7
100
AcDbLine
 10
-100.051636
 20
131.737861
 30
0.0
 11
-100.051636
 21
124.238575
 31
0.0
  0
SPLINE
  5
15c
100
AcDbEntity
  8
Layer_1
 62
7
100
AcDbSpline
 70
8
 71
3
 72
8
 73
4
 74
0
 40
0
 40
0
 40
0
 40
0
 40
1
 40
1
 40
1
 40
1
 10
-100.051636
 20
124.238575
 30
0.0
 10
-100.051636
 20
122.915659
 30
0.0
 10
-99.811857
 20
121.962056
 30
0.0
 10
-99.332299
 20
121.377768
 30
0.0
  0
SPLINE
  5
15d
100
AcDbEntity
  8
Layer_1
 62
7
100
AcDbSpline
 70
8
 71
3
 72
8
 73
4
 74
0
 40
0
 40
0
 40
0
 40
0
 40
1
 40
1
 40
1
 40
1
 10
-99.332299
 20
121.377768
 30
0.0
 10
-98.852744
 20
120.798992
 30
0.0
 10
-98.075530
 20
120.509604
 30
0.0
 10
-97.000658
 20
120.509604
 30
0.0
  0
SPLINE
  5
15e
100
AcDbEntity
  8
Layer_1
 62
7
100
AcDbSpline
 70
8
 71
3
 72
8
 73
4
 74
0
 40
0
 40
0
 40
0
 40
0
 40
1
 40
1
 40
1
 40
1
 10
-97.000658
 20
120.509604
 30
0.0
 10
-95.931301
 20
120.509604
 30
0.0
 10
-95.156844
 20
120.798992
 30
0.0
 10
-94.677286
 20
121.377768
 30
0.0
  0
SPLINE
  5
15f
100
AcDbEntity
  8
Layer_1
 62
7
100
AcDbSpline
 70
8
 71
3
 72
8
 73
4
 74
0
 40
0
 40
0
 40
0
 40
0
 40
1
 40
1
 40
1
 40
1
 10
-94.677286
 20
121.377768
 30
0.0
 10
-94.197729
 20
121.962056
 30
0.0
 10
-93.957950
 20
122.915659
 30
0.0
 10
-93.957950
 20
124.238575
 30
0.0
  0
LINE
  5
160
100
AcDbEntity
  8
Layer_1
 62
7
100
AcDbLine
 10
-93.957950
 20
124.238575
 30
0.0
 11
-93.957950
 21
131.737861
 31
0.0
  0
LINE
  5
161
100
AcDbEntity
  8
Layer_1
 62
7
100
AcDbLine
 10
-93.957950
 20
131.737861
 30
0.0
 11
-92.279501
 21
131.737861
 31
0.0
  0
LINE
  5
162
100
AcDbEntity
  8
Layer_1
 62
7
100
AcDbLine
 10
-92.279501
 20
131.737861
 30
0.0
 11
-92.279501
 21
124.031870
 31
0.0
  0
SPLINE
  5
163
100
AcDbEntity
  8
Layer_1
 62
7
100
AcDbSpline
 70
8
 71
3
 72
8
 73
4
 74
0
 40
0
 40
0
 40
0
 40
0
 40
1
 40
1
 40
1
 40
1
 10
-92.279501
 20
124.031870
 30
0.0
 10
-92.279501
 20
122.422321
 30
0.0
 10
-92.679132
 20
121.206892
 30
0.0
 10
-93.478395
 20
120.385582
 30
0.0
  0
SPLINE
  5
164
100
AcDbEntity
  8
Layer_1
 62
7
100
AcDbSpline
 70
8
 71
3
 72
8
 73
4
 74
0
 40
0
 40
0
 40
0
 40
0
 40
1
 40
1
 40
1
 40
1
 10
-93.478395
 20
120.385582
 30
0.0
 10
-94.272145
 20
119.564270
 30
0.0
 10
-95.446233
 20
119.153614
 30
0.0
 10
-97.000658
 20
119.153614
 30
0.0
  0
SPLINE
  5
165
100
AcDbEntity
  8
Layer_1
 62
7
100
AcDbSpline
 70
8
 71
3
 72
8
 73
4
 74
0
 40
0
 40
0
 40
0
 40
0
 40
1
 40
1
 40
1
 40
1
 10
-97.000658
 20
119.153614
 30
0.0
 10
-98.560598
 20
119.153614
 30
0.0
 10
-99.740200
 20
119.564270
 30
0.0
 10
-100.539463
 20
120.385582
 30
0.0
  0
SPLINE
  5
166
100
AcDbEntity
  8
Layer_1
 62
7
100
AcDbSpline
 70
8
 71
3
 72
8
 73
4
 74
0
 40
0
 40
0
 40
0
 40
0
 40
1
 40
1
 40
1
 40
1
 10
-100.539463
 20
120.385582
 30
0.0
 10
-101.333213
 20
121.206892
 30
0.0
 10
-101.730088
 20
122.422321
 30
0.0
 10
-101.730088
 20
124.031870
 30
0.0
  0
LINE
  5
167
100
AcDbEntity
  8
Layer_1
 62
7
100
AcDbLine
 10
-101.730088
 20
124.031870
 30
0.0
 11
-101.730088
 21
131.737861
 31
0.0
  0
LINE
  5
168
100
AcDbEntity
  8
Layer_1
 62
7
100
AcDbLine
 10
-101.730088
 20
131.737861
 30
0.0
 11
-101.730088
 21
131.737861
 31
0.0
  0
LINE
  5
169
100
AcDbEntity
  8
Layer_1
 62
7
100
AcDbLine
 10
-81.737508
 20
131.332716
 30
0.0
 11
-81.737508
 21
129.703876
 31
0.0
  0
SPLINE
  5
16a
100
AcDbEntity
  8
Layer_1
 62
7
100
AcDbSpline
 70
8
 71
3
 72
8
 73
4
 74
0
 40
0
 40
0
 40
0
 40
0
 40
1
 40
1
 40
1
 40
1
 10
-81.737508
 20
129.703876
 30
0.0
 10
-82.371405
 20
130.007043
 30
0.0
 10
-82.969474
 20
130.233041
 30
0.0
 10
-83.531716
 20
130.381870
 30
0.0
  0
SPLINE
  5
16b
100
AcDbEntity
  8
Layer_1
 62
7
100
AcDbSpline
 70
8
 71
3
 72
8
 73
4
 74
0
 40
0
 40
0
 40
0
 40
0
 40
1
 40
1
 40
1
 40
1
 10
-83.531716
 20
130.381870
 30
0.0
 10
-84.093955
 20
130.530697
 30
0.0
 10
-84.636902
 20
130.605111
 30
0.0
 10
-85.160556
 20
130.605111
 30
0.0
  0
SPLINE
  5
16c
100
AcDbEntity
  8
Layer_1
 62
7
100
AcDbSpline
 70
8
 71
3
 72
8
 73
4
 74
0
 40
0
 40
0
 40
0
 40
0
 40
1
 40
1
 40
1
 40
1
 10
-85.160556
 20
130.605111
 30
0.0
 10
-86.070060
 20
130.605111
 30
0.0
 10
-86.772859
 20
130.428722
 30
0.0
 10
-87.268953
 20
130.075944
 30
0.0
  0
SPLINE
  5
16d
100
AcDbEntity
  8
Layer_1
 62
7
100
AcDbSpline
 70
8
 71
3
 72
8
 73
4
 74
0
 40
0
 40
0
 40
0
 40
0
 40
1
 40
1
 40
1
 40
1
 10
-87.268953
 20
130.075944
 30
0.0
 10
-87.759534
 20
129.723166
 30
0.0
 10
-88.004825
 20
129.221561
 30
0.0
 10
-88.004825
 20
128.571127
 30
0.0
  0
SPLINE
  5
16e
100
AcDbEntity
  8
Layer_1
 62
7
100
AcDbSpline
 70
8
 71
3
 72
8
 73
4
 74
0
 40
0
 40
0
 40
0
 40
0
 40
1
 40
1
 40
1
 40
1
 10
-88.004825
 20
128.571127
 30
0.0
 10
-88.004825
 20
128.025424
 30
0.0
 10
-87.842217
 20
127.612012
 30
0.0
 10
-87.517001
 20
127.330893
 30
0.0
  0
SPLINE
  5
16f
100
AcDbEntity
  8
Layer_1
 62
7
100
AcDbSpline
 70
8
 71
3
 72
8
 73
4
 74
0
 40
0
 40
0
 40
0
 40
0
 40
1
 40
1
 40
1
 40
1
 10
-87.517001
 20
127.330893
 30
0.0
 10
-87.186272
 20
127.055286
 30
0.0
 10
-86.563399
 20
126.832044
 30
0.0
 10
-85.648382
 20
126.661168
 30
0.0
  0
LINE
  5
170
100
AcDbEntity
  8
Layer_1
 62
7
100
AcDbLine
 10
-85.648382
 20
126.661168
 30
0.0
 11
-84.639658
 21
126.454460
 31
0.0
  0
SPLINE
  5
171
100
AcDbEntity
  8
Layer_1
 62
7
100
AcDbSpline
 70
8
 71
3
 72
8
 73
4
 74
0
 40
0
 40
0
 40
0
 40
0
 40
1
 40
1
 40
1
 40
1
 10
-84.639658
 20
126.454460
 30
0.0
 10
-83.393910
 20
126.217439
 30
0.0
 10
-82.476137
 20
125.798515
 30
0.0
 10
-81.886338
 20
125.197691
 30
0.0
  0
SPLINE
  5
172
100
AcDbEntity
  8
Layer_1
 62
7
100
AcDbSpline
 70
8
 71
3
 72
8
 73
4
 74
0
 40
0
 40
0
 40
0
 40
0
 40
1
 40
1
 40
1
 40
1
 10
-81.886338
 20
125.197691
 30
0.0
 10
-81.291024
 20
124.602379
 30
0.0
 10
-80.993367
 20
123.803116
 30
0.0
 10
-80.993367
 20
122.799902
 30
0.0
  0
SPLINE
  5
173
100
AcDbEntity
  8
Layer_1
 62
7
100
AcDbSpline
 70
8
 71
3
 72
8
 73
4
 74
0
 40
0
 40
0
 40
0
 40
0
 40
1
 40
1
 40
1
 40
1
 10
-80.993367
 20
122.799902
 30
0.0
 10
-80.993367
 20
121.603766
 30
0.0
 10
-81.395754
 20
120.697017
 30
0.0
 10
-82.200530
 20
120.079656
 30
0.0
  0
SPLINE
  5
174
100
AcDbEntity
  8
Layer_1
 62
7
100
AcDbSpline
 70
8
 71
3
 72
8
 73
4
 74
0
 40
0
 40
0
 40
0
 40
0
 40
1
 40
1
 40
1
 40
1
 10
-82.200530
 20
120.079656
 30
0.0
 10
-82.999793
 20
119.462295
 30
0.0
 10
-84.173881
 20
119.153614
 30
0.0
 10
-85.722796
 20
119.153614
 30
0.0
  0
SPLINE
  5
175
100
AcDbEntity
  8
Layer_1
 62
7
100
AcDbSpline
 70
8
 71
3
 72
8
 73
4
 74
0
 40
0
 40
0
 40
0
 40
0
 40
1
 40
1
 40
1
 40
1
 10
-85.722796
 20
119.153614
 30
0.0
 10
-86.307084
 20
119.153614
 30
0.0
 10
-86.929957
 20
119.219760
 30
0.0
 10
-87.591415
 20
119.352053
 30
0.0
  0
SPLINE
  5
176
100
AcDbEntity
  8
Layer_1
 62
7
100
AcDbSpline
 70
8
 71
3
 72
8
 73
4
 74
0
 40
0
 40
0
 40
0
 40
0
 40
1
 40
1
 40
1
 40
1
 10
-87.591415
 20
119.352053
 30
0.0
 10
-88.247361
 20
119.484344
 30
0.0
 10
-88.928112
 20
119.680024
 30
0.0
 10
-89.633668
 20
119.939095
 30
0.0
  0
LINE
  5
177
100
AcDbEntity
  8
Layer_1
 62
7
100
AcDbLine
 10
-89.633668
 20
119.939095
 30
0.0
 11
-89.633668
 21
121.658887
 31
0.0
  0
SPLINE
  5
178
100
AcDbEntity
  8
Layer_1
 62
7
100
AcDbSpline
 70
8
 71
3
 72
8
 73
4
 74
0
 40
0
 40
0
 40
0
 40
0
 40
1
 40
1
 40
1
 40
1
 10
-89.633668
 20
121.658887
 30
0.0
 10
-88.955672
 20
121.278549
 30
0.0
 10
-88.291457
 20
120.991916
 30
0.0
 10
-87.641024
 20
120.798989
 30
0.0
  0
SPLINE
  5
179
100
AcDbEntity
  8
Layer_1
 62
7
100
AcDbSpline
 70
8
 71
3
 72
8
 73
4
 74
0
 40
0
 40
0
 40
0
 40
0
 40
1
 40
1
 40
1
 40
1
 10
-87.641024
 20
120.798989
 30
0.0
 10
-86.990590
 20
120.606064
 30
0.0
 10
-86.351181
 20
120.509601
 30
0.0
 10
-85.722796
 20
120.509601
 30
0.0
  0
SPLINE
  5
17a
100
AcDbEntity
  8
Layer_1
 62
7
100
AcDbSpline
 70
8
 71
3
 72
8
 73
4
 74
0
 40
0
 40
0
 40
0
 40
0
 40
1
 40
1
 40
1
 40
1
 10
-85.722796
 20
120.509601
 30
0.0
 10
-84.769193
 20
120.509601
 30
0.0
 10
-84.033320
 20
120.697016
 30
0.0
 10
-83.515177
 20
121.071845
 30
0.0
  0
SPLINE
  5
17b
100
AcDbEntity
  8
Layer_1
 62
7
100
AcDbSpline
 70
8
 71
3
 72
8
 73
4
 74
0
 40
0
 40
0
 40
0
 40
0
 40
1
 40
1
 40
1
 40
1
 10
-83.515177
 20
121.071845
 30
0.0
 10
-82.997036
 20
121.446671
 30
0.0
 10
-82.737966
 20
121.981350
 30
0.0
 10
-82.737966
 20
122.675880
 30
0.0
  0
SPLINE
  5
17c
100
AcDbEntity
  8
Layer_1
 62
7
100
AcDbSpline
 70
8
 71
3
 72
8
 73
4
 74
0
 40
0
 40
0
 40
0
 40
0
 40
1
 40
1
 40
1
 40
1
 10
-82.737966
 20
122.675880
 30
0.0
 10
-82.737966
 20
123.282217
 30
0.0
 10
-82.925378
 20
123.756261
 30
0.0
 10
-83.300203
 20
124.098012
 30
0.0
  0
SPLINE
  5
17d
100
AcDbEntity
  8
Layer_1
 62
7
100
AcDbSpline
 70
8
 71
3
 72
8
 73
4
 74
0
 40
0
 40
0
 40
0
 40
0
 40
1
 40
1
 40
1
 40
1
 10
-83.300203
 20
124.098012
 30
0.0
 10
-83.669517
 20
124.439766
 30
0.0
 10
-84.278610
 20
124.696081
 30
0.0
 10
-85.127482
 20
124.866957
 30
0.0
  0
LINE
  5
17e
100
AcDbEntity
  8
Layer_1
 62
7
100
AcDbLine
 10
-85.127482
 20
124.866957
 30
0.0
 11
-86.144475
 21
125.065396
 31
0.0
  0
SPLINE
  5
17f
100
AcDbEntity
  8
Layer_1
 62
7
100
AcDbSpline
 70
8
 71
3
 72
8
 73
4
 74
0
 40
0
 40
0
 40
0
 40
0
 40
1
 40
1
 40
1
 40
1
 10
-86.144475
 20
125.065396
 30
0.0
 10
-87.390221
 20
125.313443
 30
0.0
 10
-88.291458
 20
125.702050
 30
0.0
 10
-88.848187
 20
126.231217
 30
0.0
  0
SPLINE
  5
180
100
AcDbEntity
  8
Layer_1
 62
7
100
AcDbSpline
 70
8
 71
3
 72
8
 73
4
 74
0
 40
0
 40
0
 40
0
 40
0
 40
1
 40
1
 40
1
 40
1
 10
-88.848187
 20
126.231217
 30
0.0
 10
-89.404913
 20
126.760383
 30
0.0
 10
-89.683277
 20
127.496255
 30
0.0
 10
-89.683277
 20
128.438832
 30
0.0
  0
SPLINE
  5
181
100
AcDbEntity
  8
Layer_1
 62
7
100
AcDbSpline
 70
8
 71
3
 72
8
 73
4
 74
0
 40
0
 40
0
 40
0
 40
0
 40
1
 40
1
 40
1
 40
1
 10
-89.683277
 20
128.438832
 30
0.0
 10
-89.683277
 20
129.530238
 30
0.0
 10
-89.300182
 20
130.390135
 30
0.0
 10
-88.533992
 20
131.018521
 30
0.0
  0
SPLINE
  5
182
100
AcDbEntity
  8
Layer_1
 62
7
100
AcDbSpline
 70
8
 71
3
 72
8
 73
4
 74
0
 40
0
 40
0
 40
0
 40
0
 40
1
 40
1
 40
1
 40
1
 10
-88.533992
 20
131.018521
 30
0.0
 10
-87.762291
 20
131.646906
 30
0.0
 10
-86.701202
 20
131.961098
 30
0.0
 10
-85.350725
 20
131.961098
 30
0.0
  0
SPLINE
  5
183
100
AcDbEntity
  8
Layer_1
 62
7
100
AcDbSpline
 70
8
 71
3
 72
8
 73
4
 74
0
 40
0
 40
0
 40
0
 40
0
 40
1
 40
1
 40
1
 40
1
 10
-85.350725
 20
131.961098
 30
0.0
 10
-84.771950
 20
131.961098
 30
0.0
 10
-84.182149
 20
131.908733
 30
0.0
 10
-83.581325
 20
131.804002
 30
0.0
  0
SPLINE
  5
184
100
AcDbEntity
  8
Layer_1
 62
7
100
AcDbSpline
 70
8
 71
3
 72
8
 73
4
 74
0
 40
0
 40
0
 40
0
 40
0
 40
1
 40
1
 40
1
 40
1
 10
-83.581325
 20
131.804002
 30
0.0
 10
-82.980500
 20
131.699271
 30
0.0
 10
-82.365894
 20
131.542175
 30
0.0
 10
-81.737508
 20
131.332714
 30
0.0
  0
LINE
  5
185
100
AcDbEntity
  8
Layer_1
 62
7
100
AcDbLine
 10
-81.737508
 20
131.332714
 30
0.0
 11
-81.737508
 21
131.332716
 31
0.0
  0
LINE
  5
186
100
AcDbEntity
  8
Layer_1
 62
7
100
AcDbLine
 10
-73.064136
 20
132.258758
 30
0.0
 11
-71.542783
 21
132.258758
 31
0.0
  0
LINE
  5
187
100
AcDbEntity
  8
Layer_1
 62
7
100
AcDbLine
 10
-71.542783
 20
132.258758
 30
0.0
 11
-71.542783
 21
119.393393
 31
0.0
  0
LINE
  5
188
100
AcDbEntity
  8
Layer_1
 62
7
100
AcDbLine
 10
-71.542783
 20
119.393393
 30
0.0
 11
-73.064136
 21
119.393393
 31
0.0
  0
LINE
  5
189
100
AcDbEntity
  8
Layer_1
 62
7
100
AcDbLine
 10
-73.064136
 20
119.393393
 30
0.0
 11
-73.064136
 21
132.258758
 31
0.0
  0
LINE
  5
18a
100
AcDbEntity
  8
Layer_1
 62
7
100
AcDbLine
 10
-73.064136
 20
132.258758
 30
0.0
 11
-73.064136
 21
132.258758
 31
0.0
  0
LINE
  5
18b
100
AcDbEntity
  8
Layer_1
 62
7
100
AcDbLine
 10
-60.446818
 20
124.403941
 30
0.0
 11
-60.446818
 21
123.659800
 31
0.0
  0
LINE
  5
18c
100
AcDbEntity
  8
Layer_1
 62
7
100
AcDbLine
 10
-60.446818
 20
123.659800
 30
0.0
 11
-67.441741
 21
123.659800
 31
0.0
  0
SPLINE
  5
18d
100
AcDbEntity
  8
Layer_1
 62
7
100
AcDbSpline
 70
8
 71
3
 72
8
 73
4
 74
0
 40
0
 40
0
 40
0
 40
0
 40
1
 40
1
 40
1
 40
1
 10
-67.441741
 20
123.659800
 30
0.0
 10
-67.375594
 20
122.612490
 30
0.0
 10
-67.061401
 20
121.813228
 30
0.0
 10
-66.499161
 20
121.262014
 30
0.0
  0
SPLINE
  5
18e
100
AcDbEntity
  8
Layer_1
 62
7
100
AcDbSpline
 70
8
 71
3
 72
8
 73
4
 74
0
 40
0
 40
0
 40
0
 40
0
 40
1
 40
1
 40
1
 40
1
 10
-66.499161
 20
121.262014
 30
0.0
 10
-65.931409
 20
120.716311
 30
0.0
 10
-65.143172
 20
120.443460
 30
0.0
 10
-64.134450
 20
120.443460
 30
0.0
  0
SPLINE
  5
18f
100
AcDbEntity
  8
Layer_1
 62
7
100
AcDbSpline
 70
8
 71
3
 72
8
 73
4
 74
0
 40
0
 40
0
 40
0
 40
0
 40
1
 40
1
 40
1
 40
1
 10
-64.134450
 20
120.443460
 30
0.0
 10
-63.550161
 20
120.443460
 30
0.0
 10
-62.985166
 20
120.515117
 30
0.0
 10
-62.439463
 20
120.658431
 30
0.0
  0
SPLINE
  5
190
100
AcDbEntity
  8
Layer_1
 62
7
100
AcDbSpline
 70
8
 71
3
 72
8
 73
4
 74
0
 40
0
 40
0
 40
0
 40
0
 40
1
 40
1
 40
1
 40
1
 10
-62.439463
 20
120.658431
 30
0.0
 10
-61.888247
 20
120.801748
 30
0.0
 10
-61.342544
 20
121.016722
 30
0.0
 10
-60.802353
 20
121.303354
 30
0.0
  0
LINE
  5
191
100
AcDbEntity
  8
Layer_1
 62
7
100
AcDbLine
 10
-60.802353
 20
121.303354
 30
0.0
 11
-60.802353
 21
119.864681
 31
0.0
  0
SPLINE
  5
192
100
AcDbEntity
  8
Layer_1
 62
7
100
AcDbSpline
 70
8
 71
3
 72
8
 73
4
 74
0
 40
0
 40
0
 40
0
 40
0
 40
1
 40
1
 40
1
 40
1
 10
-60.802353
 20
119.864681
 30
0.0
 10
-61.348056
 20
119.633173
 30
0.0
 10
-61.907539
 20
119.456784
 30
0.0
 10
-62.480802
 20
119.335515
 30
0.0
  0
SPLINE
  5
193
100
AcDbEntity
  8
Layer_1
 62
7
100
AcDbSpline
 70
8
 71
3
 72
8
 73
4
 74
0
 40
0
 40
0
 40
0
 40
0
 40
1
 40
1
 40
1
 40
1
 10
-62.480802
 20
119.335515
 30
0.0
 10
-63.054067
 20
119.214248
 30
0.0
 10
-63.635599
 20
119.153614
 30
0.0
 10
-64.225399
 20
119.153614
 30
0.0
  0
SPLINE
  5
194
100
AcDbEntity
  8
Layer_1
 62
7
100
AcDbSpline
 70
8
 71
3
 72
8
 73
4
 74
0
 40
0
 40
0
 40
0
 40
0
 40
1
 40
1
 40
1
 40
1
 10
-64.225399
 20
119.153614
 30
0.0
 10
-65.702655
 20
119.153614
 30
0.0
 10
-66.873987
 20
119.583563
 30
0.0
 10
-67.739395
 20
120.443460
 30
0.0
  0
SPLINE
  5
195
100
AcDbEntity
  8
Layer_1
 62
7
100
AcDbSpline
 70
8
 71
3
 72
8
 73
4
 74
0
 40
0
 40
0
 40
0
 40
0
 40
1
 40
1
 40
1
 40
1
 10
-67.739395
 20
120.443460
 30
0.0
 10
-68.599293
 20
121.303355
 30
0.0
 10
-69.029241
 20
122.466419
 30
0.0
 10
-69.029241
 20
123.932652
 30
0.0
  0
SPLINE
  5
196
100
AcDbEntity
  8
Layer_1
 62
7
100
AcDbSpline
 70
8
 71
3
 72
8
 73
4
 74
0
 40
0
 40
0
 40
0
 40
0
 40
1
 40
1
 40
1
 40
1
 10
-69.029241
 20
123.932652
 30
0.0
 10
-69.029241
 20
125.448494
 30
0.0
 10
-68.621342
 20
126.650143
 30
0.0
 10
-67.805543
 20
127.537598
 30
0.0
  0
SPLINE
  5
197
100
AcDbEntity
  8
Layer_1
 62
7
100
AcDbSpline
 70
8
 71
3
 72
8
 73
4
 74
0
 40
0
 40
0
 40
0
 40
0
 40
1
 40
1
 40
1
 40
1
 10
-67.805543
 20
127.537598
 30
0.0
 10
-66.984231
 20
128.430568
 30
0.0
 10
-65.879044
 20
128.877053
 30
0.0
 10
-64.489982
 20
128.877053
 30
0.0
  0
SPLINE
  5
198
100
AcDbEntity
  8
Layer_1
 62
7
100
AcDbSpline
 70
8
 71
3
 72
8
 73
4
 74
0
 40
0
 40
0
 40
0
 40
0
 40
1
 40
1
 40
1
 40
1
 10
-64.489982
 20
128.877053
 30
0.0
 10
-63.244236
 20
128.877053
 30
0.0
 10
-62.260317
 20
128.474665
 30
0.0
 10
-61.538225
 20
127.669890
 30
0.0
  0
SPLINE
  5
199
100
AcDbEntity
  8
Layer_1
 62
7
100
AcDbSpline
 70
8
 71
3
 72
8
 73
4
 74
0
 40
0
 40
0
 40
0
 40
0
 40
1
 40
1
 40
1
 40
1
 10
-61.538225
 20
127.669890
 30
0.0
 10
-60.810621
 20
126.870629
 30
0.0
 10
-60.446818
 20
125.781979
 30
0.0
 10
-60.446818
 20
124.403941
 30
0.0
  0
LINE
  5
19a
100
AcDbEntity
  8
Layer_1
 62
7
100
AcDbLine
 10
-60.446818
 20
124.403941
 30
0.0
 11
-60.446818
 21
124.403941
 31
0.0
  0
SPLINE
  5
19b
100
AcDbEntity
  8
Layer_1
 62
7
100
AcDbSpline
 70
8
 71
3
 72
8
 73
4
 74
0
 40
0
 40
0
 40
0
 40
0
 40
1
 40
1
 40
1
 40
1
 10
-61.968174
 20
124.850425
 30
0.0
 10
-61.979199
 20
125.682760
 30
0.0
 10
-62.213466
 20
126.346975
 30
0.0
 10
-62.670972
 20
126.843069
 30
0.0
  0
SPLINE
  5
19c
100
AcDbEntity
  8
Layer_1
 62
7
100
AcDbSpline
 70
8
 71
3
 72
8
 73
4
 74
0
 40
0
 40
0
 40
0
 40
0
 40
1
 40
1
 40
1
 40
1
 10
-62.670972
 20
126.843069
 30
0.0
 10
-63.122968
 20
127.339163
 30
0.0
 10
-63.723793
 20
127.587210
 30
0.0
 10
-64.473447
 20
127.587210
 30
0.0
  0
SPLINE
  5
19d
100
AcDbEntity
  8
Layer_1
 62
7
100
AcDbSpline
 70
8
 71
3
 72
8
 73
4
 74
0
 40
0
 40
0
 40
0
 40
0
 40
1
 40
1
 40
1
 40
1
 10
-64.473447
 20
127.587210
 30
0.0
 10
-65.322318
 20
127.587210
 30
0.0
 10
-66.003069
 20
127.347431
 30
0.0
 10
-66.515700
 20
126.867873
 30
0.0
  0
SPLINE
  5
19e
100
AcDbEntity
  8
Layer_1
 62
7
100
AcDbSpline
 70
8
 71
3
 72
8
 73
4
 74
0
 40
0
 40
0
 40
0
 40
0
 40
1
 40
1
 40
1
 40
1
 10
-66.515700
 20
126.867873
 30
0.0
 10
-67.022817
 20
126.388316
 30
0.0
 10
-67.314961
 20
125.713076
 30
0.0
 10
-67.392132
 20
124.842156
 30
0.0
  0
LINE
  5
19f
100
AcDbEntity
  8
Layer_1
 62
7
100
AcDbLine
 10
-67.392132
 20
124.842156
 30
0.0
 11
-61.968174
 21
124.850425
 31
0.0
  0
LINE
  5
1a0
100
AcDbEntity
  8
Layer_1
 62
7
100
AcDbLine
 10
-61.968174
 20
124.850425
 30
0.0
 11
-61.968174
 21
124.850425
 31
0.0
  0
LINE
  5
1a1
100
AcDbEntity
  8
Layer_1
 62
7
100
AcDbLine
 10
-56.444995
 20
131.283107
 30
0.0
 11
-56.444995
 21
128.653809
 31
0.0
  0
LINE
  5
1a2
100
AcDbEntity
  8
Layer_1
 62
7
100
AcDbLine
 10
-56.444995
 20
128.653809
 30
0.0
 11
-53.311338
 21
128.653809
 31
0.0
  0
LINE
  5
1a3
100
AcDbEntity
  8
Layer_1
 62
7
100
AcDbLine
 10
-53.311338
 20
128.653809
 30
0.0
 11
-53.311338
 21
127.471454
 31
0.0
  0
LINE
  5
1a4
100
AcDbEntity
  8
Layer_1
 62
7
100
AcDbLine
 10
-53.311338
 20
127.471454
 30
0.0
 11
-56.444995
 21
127.471454
 31
0.0
  0
LINE
  5
1a5
100
AcDbEntity
  8
Layer_1
 62
7
100
AcDbLine
 10
-56.444995
 20
127.471454
 30
0.0
 11
-56.444995
 21
122.444370
 31
0.0
  0
SPLINE
  5
1a6
100
AcDbEntity
  8
Layer_1
 62
7
100
AcDbSpline
 70
8
 71
3
 72
8
 73
4
 74
0
 40
0
 40
0
 40
0
 40
0
 40
1
 40
1
 40
1
 40
1
 10
-56.444995
 20
122.444370
 30
0.0
 10
-56.444995
 20
121.689206
 30
0.0
 10
-56.343020
 20
121.204136
 30
0.0
 10
-56.139072
 20
120.989162
 30
0.0
  0
SPLINE
  5
1a7
100
AcDbEntity
  8
Layer_1
 62
7
100
AcDbSpline
 70
8
 71
3
 72
8
 73
4
 74
0
 40
0
 40
0
 40
0
 40
0
 40
1
 40
1
 40
1
 40
1
 10
-56.139072
 20
120.989162
 30
0.0
 10
-55.929610
 20
120.774188
 30
0.0
 10
-55.507930
 20
120.666700
 30
0.0
 10
-54.874033
 20
120.666700
 30
0.0
  0
LINE
  5
1a8
100
AcDbEntity
  8
Layer_1
 62
7
100
AcDbLine
 10
-54.874033
 20
120.666700
 30
0.0
 11
-53.311338
 21
120.666700
 31
0.0
  0
LINE
  5
1a9
100
AcDbEntity
  8
Layer_1
 62
7
100
AcDbLine
 10
-53.311338
 20
120.666700
 30
0.0
 11
-53.311338
 21
119.393393
 31
0.0
  0
LINE
  5
1aa
100
AcDbEntity
  8
Layer_1
 62
7
100
AcDbLine
 10
-53.311338
 20
119.393393
 30
0.0
 11
-54.874033
 21
119.393393
 31
0.0
  0
SPLINE
  5
1ab
100
AcDbEntity
  8
Layer_1
 62
7
100
AcDbSpline
 70
8
 71
3
 72
8
 73
4
 74
0
 40
0
 40
0
 40
0
 40
0
 40
1
 40
1
 40
1
 40
1
 10
-54.874033
 20
119.393393
 30
0.0
 10
-56.048121
 20
119.393393
 30
0.0
 10
-56.858407
 20
119.611123
 30
0.0
 10
-57.304892
 20
120.046585
 30
0.0
  0
SPLINE
  5
1ac
100
AcDbEntity
  8
Layer_1
 62
7
100
AcDbSpline
 70
8
 71
3
 72
8
 73
4
 74
0
 40
0
 40
0
 40
0
 40
0
 40
1
 40
1
 40
1
 40
1
 10
-57.304892
 20
120.046585
 30
0.0
 10
-57.751375
 20
120.487557
 30
0.0
 10
-57.974617
 20
121.286819
 30
0.0
 10
-57.974617
 20
122.444370
 30
0.0
  0
LINE
  5
1ad
100
AcDbEntity
  8
Layer_1
 62
7
100
AcDbLine
 10
-57.974617
 20
122.444370
 30
0.0
 11
-57.974617
 21
127.471454
 31
0.0
  0
LINE
  5
1ae
100
AcDbEntity
  8
Layer_1
 62
7
100
AcDbLine
 10
-57.974617
 20
127.471454
 30
0.0
 11
-59.090828
 21
127.471454
 31
0.0
  0
LINE
  5
1af
100
AcDbEntity
  8
Layer_1
 62
7
100
AcDbLine
 10
-59.090828
 20
127.471454
 30
0.0
 11
-59.090828
 21
128.653809
 31
0.0
  0
LINE
  5
1b0
100
AcDbEntity
  8
Layer_1
 62
7
100
AcDbLine
 10
-59.090828
 20
128.653809
 30
0.0
 11
-57.974617
 21
128.653809
 31
0.0
  0
LINE
  5
1b1
100
AcDbEntity
  8
Layer_1
 62
7
100
AcDbLine
 10
-57.974617
 20
128.653809
 30
0.0
 11
-57.974617
 21
131.283107
 31
0.0
  0
LINE
  5
1b2
100
AcDbEntity
  8
Layer_1
 62
7
100
AcDbLine
 10
-57.974617
 20
131.283107
 30
0.0
 11
-56.444995
 21
131.283107
 31
0.0
  0
LINE
  5
1b3
100
AcDbEntity
  8
Layer_1
 62
7
100
AcDbLine
 10
-56.444995
 20
131.283107
 30
0.0
 11
-56.444995
 21
131.283107
 31
0.0
  0
LINE
  5
1b4
100
AcDbEntity
  8
Layer_1
 62
7
100
AcDbLine
 10
-49.797341
 20
131.283107
 30
0.0
 11
-49.797341
 21
128.653809
 31
0.0
  0
LINE
  5
1b5
100
AcDbEntity
  8
Layer_1
 62
7
100
AcDbLine
 10
-49.797341
 20
128.653809
 30
0.0
 11
-46.663681
 21
128.653809
 31
0.0
  0
LINE
  5
1b6
100
AcDbEntity
  8
Layer_1
 62
7
100
AcDbLine
 10
-46.663681
 20
128.653809
 30
0.0
 11
-46.663681
 21
127.471454
 31
0.0
  0
LINE
  5
1b7
100
AcDbEntity
  8
Layer_1
 62
7
100
AcDbLine
 10
-46.663681
 20
127.471454
 30
0.0
 11
-49.797341
 21
127.471454
 31
0.0
  0
LINE
  5
1b8
100
AcDbEntity
  8
Layer_1
 62
7
100
AcDbLine
 10
-49.797341
 20
127.471454
 30
0.0
 11
-49.797341
 21
122.444370
 31
0.0
  0
SPLINE
  5
1b9
100
AcDbEntity
  8
Layer_1
 62
7
100
AcDbSpline
 70
8
 71
3
 72
8
 73
4
 74
0
 40
0
 40
0
 40
0
 40
0
 40
1
 40
1
 40
1
 40
1
 10
-49.797341
 20
122.444370
 30
0.0
 10
-49.797341
 20
121.689206
 30
0.0
 10
-49.695365
 20
121.204136
 30
0.0
 10
-49.491415
 20
120.989162
 30
0.0
  0
SPLINE
  5
1ba
100
AcDbEntity
  8
Layer_1
 62
7
100
AcDbSpline
 70
8
 71
3
 72
8
 73
4
 74
0
 40
0
 40
0
 40
0
 40
0
 40
1
 40
1
 40
1
 40
1
 10
-49.491415
 20
120.989162
 30
0.0
 10
-49.281953
 20
120.774188
 30
0.0
 10
-48.860273
 20
120.666700
 30
0.0
 10
-48.226376
 20
120.666700
 30
0.0
  0
LINE
  5
1bb
100
AcDbEntity
  8
Layer_1
 62
7
100
AcDbLine
 10
-48.226376
 20
120.666700
 30
0.0
 11
-46.663681
 21
120.666700
 31
0.0
  0
LINE
  5
1bc
100
AcDbEntity
  8
Layer_1
 62
7
100
AcDbLine
 10
-46.663681
 20
120.666700
 30
0.0
 11
-46.663681
 21
119.393393
 31
0.0
  0
LINE
  5
1bd
100
AcDbEntity
  8
Layer_1
 62
7
100
AcDbLine
 10
-46.663681
 20
119.393393
 30
0.0
 11
-48.226376
 21
119.393393
 31
0.0
  0
SPLINE
  5
1be
100
AcDbEntity
  8
Layer_1
 62
7
100
AcDbSpline
 70
8
 71
3
 72
8
 73
4
 74
0
 40
0
 40
0
 40
0
 40
0
 40
1
 40
1
 40
1
 40
1
 10
-48.226376
 20
119.393393
 30
0.0
 10
-49.400464
 20
119.393393
 30
0.0
 10
-50.210750
 20
119.611123
 30
0.0
 10
-50.657235
 20
120.046585
 30
0.0
  0
SPLINE
  5
1bf
100
AcDbEntity
  8
Layer_1
 62
7
100
AcDbSpline
 70
8
 71
3
 72
8
 73
4
 74
0
 40
0
 40
0
 40
0
 40
0
 40
1
 40
1
 40
1
 40
1
 10
-50.657235
 20
120.046585
 30
0.0
 10
-51.103720
 20
120.487557
 30
0.0
 10
-51.326963
 20
121.286819
 30
0.0
 10
-51.326963
 20
122.444370
 30
0.0
  0
LINE
  5
1c0
100
AcDbEntity
  8
Layer_1
 62
7
100
AcDbLine
 10
-51.326963
 20
122.444370
 30
0.0
 11
-51.326963
 21
127.471454
 31
0.0
  0
LINE
  5
1c1
100
AcDbEntity
  8
Layer_1
 62
7
100
AcDbLine
 10
-51.326963
 20
127.471454
 30
0.0
 11
-52.443174
 21
127.471454
 31
0.0
  0
LINE
  5
1c2
100
AcDbEntity
  8
Layer_1
 62
7
100
AcDbLine
 10
-52.443174
 20
127.471454
 30
0.0
 11
-52.443174
 21
128.653809
 31
0.0
  0
LINE
  5
1c3
100
AcDbEntity
  8
Layer_1
 62
7
100
AcDbLine
 10
-52.443174
 20
128.653809
 30
0.0
 11
-51.326963
 21
128.653809
 31
0.0
  0
LINE
  5
1c4
100
AcDbEntity
  8
Layer_1
 62
7
100
AcDbLine
 10
-51.326963
 20
128.653809
 30
0.0
 11
-51.326963
 21
131.283107
 31
0.0
  0
LINE
  5
1c5
100
AcDbEntity
  8
Layer_1
 62
7
100
AcDbLine
 10
-51.326963
 20
131.283107
 30
0.0
 11
-49.797341
 21
131.283107
 31
0.0
  0
LINE
  5
1c6
100
AcDbEntity
  8
Layer_1
 62
7
100
AcDbLine
 10
-49.797341
 20
131.283107
 30
0.0
 11
-49.797341
 21
131.283107
 31
0.0
  0
LINE
  5
1c7
100
AcDbEntity
  8
Layer_1
 62
7
100
AcDbLine
 10
-36.733536
 20
124.403941
 30
0.0
 11
-36.733536
 21
123.659800
 31
0.0
  0
LINE
  5
1c8
100
AcDbEntity
  8
Layer_1
 62
7
100
AcDbLine
 10
-36.733536
 20
123.659800
 30
0.0
 11
-43.728459
 21
123.659800
 31
0.0
  0
SPLINE
  5
1c9
100
AcDbEntity
  8
Layer_1
 62
7
100
AcDbSpline
 70
8
 71
3
 72
8
 73
4
 74
0
 40
0
 40
0
 40
0
 40
0
 40
1
 40
1
 40
1
 40
1
 10
-43.728459
 20
123.659800
 30
0.0
 10
-43.662314
 20
122.612490
 30
0.0
 10
-43.348122
 20
121.813228
 30
0.0
 10
-42.785882
 20
121.262014
 30
0.0
  0
SPLINE
  5
1ca
100
AcDbEntity
  8
Layer_1
 62
7
100
AcDbSpline
 70
8
 71
3
 72
8
 73
4
 74
0
 40
0
 40
0
 40
0
 40
0
 40
1
 40
1
 40
1
 40
1
 10
-42.785882
 20
121.262014
 30
0.0
 10
-42.218130
 20
120.716311
 30
0.0
 10
-41.429892
 20
120.443460
 30
0.0
 10
-40.421168
 20
120.443460
 30
0.0
  0
SPLINE
  5
1cb
100
AcDbEntity
  8
Layer_1
 62
7
100
AcDbSpline
 70
8
 71
3
 72
8
 73
4
 74
0
 40
0
 40
0
 40
0
 40
0
 40
1
 40
1
 40
1
 40
1
 10
-40.421168
 20
120.443460
 30
0.0
 10
-39.836879
 20
120.443460
 30
0.0
 10
-39.271884
 20
120.515117
 30
0.0
 10
-38.726181
 20
120.658431
 30
0.0
  0
SPLINE
  5
1cc
100
AcDbEntity
  8
Layer_1
 62
7
100
AcDbSpline
 70
8
 71
3
 72
8
 73
4
 74
0
 40
0
 40
0
 40
0
 40
0
 40
1
 40
1
 40
1
 40
1
 10
-38.726181
 20
120.658431
 30
0.0
 10
-38.174965
 20
120.801748
 30
0.0
 10
-37.629262
 20
121.016722
 30
0.0
 10
-37.089072
 20
121.303354
 30
0.0
  0
LINE
  5
1cd
100
AcDbEntity
  8
Layer_1
 62
7
100
AcDbLine
 10
-37.089072
 20
121.303354
 30
0.0
 11
-37.089072
 21
119.864681
 31
0.0
  0
SPLINE
  5
1ce
100
AcDbEntity
  8
Layer_1
 62
7
100
AcDbSpline
 70
8
 71
3
 72
8
 73
4
 74
0
 40
0
 40
0
 40
0
 40
0
 40
1
 40
1
 40
1
 40
1
 10
-37.089072
 20
119.864681
 30
0.0
 10
-37.634775
 20
119.633173
 30
0.0
 10
-38.194258
 20
119.456784
 30
0.0
 10
-38.767520
 20
119.335515
 30
0.0
  0
SPLINE
  5
1cf
100
AcDbEntity
  8
Layer_1
 62
7
100
AcDbSpline
 70
8
 71
3
 72
8
 73
4
 74
0
 40
0
 40
0
 40
0
 40
0
 40
1
 40
1
 40
1
 40
1
 10
-38.767520
 20
119.335515
 30
0.0
 10
-39.340785
 20
119.214248
 30
0.0
 10
-39.922317
 20
119.153614
 30
0.0
 10
-40.512117
 20
119.153614
 30
0.0
  0
SPLINE
  5
1d0
100
AcDbEntity
  8
Layer_1
 62
7
100
AcDbSpline
 70
8
 71
3
 72
8
 73
4
 74
0
 40
0
 40
0
 40
0
 40
0
 40
1
 40
1
 40
1
 40
1
 10
-40.512117
 20
119.153614
 30
0.0
 10
-41.989375
 20
119.153614
 30
0.0
 10
-43.160708
 20
119.583563
 30
0.0
 10
-44.026116
 20
120.443460
 30
0.0
  0
SPLINE
  5
1d1
100
AcDbEntity
  8
Layer_1
 62
7
100
AcDbSpline
 70
8
 71
3
 72
8
 73
4
 74
0
 40
0
 40
0
 40
0
 40
0
 40
1
 40
1
 40
1
 40
1
 10
-44.026116
 20
120.443460
 30
0.0
 10
-44.886012
 20
121.303355
 30
0.0
 10
-45.315959
 20
122.466419
 30
0.0
 10
-45.315959
 20
123.932652
 30
0.0
  0
SPLINE
  5
1d2
100
AcDbEntity
  8
Layer_1
 62
7
100
AcDbSpline
 70
8
 71
3
 72
8
 73
4
 74
0
 40
0
 40
0
 40
0
 40
0
 40
1
 40
1
 40
1
 40
1
 10
-45.315959
 20
123.932652
 30
0.0
 10
-45.315959
 20
125.448494
 30
0.0
 10
-44.908060
 20
126.650143
 30
0.0
 10
-44.092261
 20
127.537598
 30
0.0
  0
SPLINE
  5
1d3
100
AcDbEntity
  8
Layer_1
 62
7
100
AcDbSpline
 70
8
 71
3
 72
8
 73
4
 74
0
 40
0
 40
0
 40
0
 40
0
 40
1
 40
1
 40
1
 40
1
 10
-44.092261
 20
127.537598
 30
0.0
 10
-43.270951
 20
128.430568
 30
0.0
 10
-42.165764
 20
128.877053
 30
0.0
 10
-40.776700
 20
128.877053
 30
0.0
  0
SPLINE
  5
1d4
100
AcDbEntity
  8
Layer_1
 62
7
100
AcDbSpline
 70
8
 71
3
 72
8
 73
4
 74
0
 40
0
 40
0
 40
0
 40
0
 40
1
 40
1
 40
1
 40
1
 10
-40.776700
 20
128.877053
 30
0.0
 10
-39.530954
 20
128.877053
 30
0.0
 10
-38.547035
 20
128.474665
 30
0.0
 10
-37.824943
 20
127.669890
 30
0.0
  0
SPLINE
  5
1d5
100
AcDbEntity
  8
Layer_1
 62
7
100
AcDbSpline
 70
8
 71
3
 72
8
 73
4
 74
0
 40
0
 40
0
 40
0
 40
0
 40
1
 40
1
 40
1
 40
1
 10
-37.824943
 20
127.669890
 30
0.0
 10
-37.097339
 20
126.870629
 30
0.0
 10
-36.733536
 20
125.781979
 30
0.0
 10
-36.733536
 20
124.403941
 30
0.0
  0
LINE
  5
1d6
100
AcDbEntity
  8
Layer_1
 62
7
100
AcDbLine
 10
-36.733536
 20
124.403941
 30
0.0
 11
-36.733536
 21
124.403941
 31
0.0
  0
SPLINE
  5
1d7
100
AcDbEntity
  8
Layer_1
 62
7
100
AcDbSpline
 70
8
 71
3
 72
8
 73
4
 74
0
 40
0
 40
0
 40
0
 40
0
 40
1
 40
1
 40
1
 40
1
 10
-38.254892
 20
124.850425
 30
0.0
 10
-38.265918
 20
125.682760
 30
0.0
 10
-38.500184
 20
126.346975
 30
0.0
 10
-38.957690
 20
126.843069
 30
0.0
  0
SPLINE
  5
1d8
100
AcDbEntity
  8
Layer_1
 62
7
100
AcDbSpline
 70
8
 71
3
 72
8
 73
4
 74
0
 40
0
 40
0
 40
0
 40
0
 40
1
 40
1
 40
1
 40
1
 10
-38.957690
 20
126.843069
 30
0.0
 10
-39.409688
 20
127.339163
 30
0.0
 10
-40.010513
 20
127.587210
 30
0.0
 10
-40.760165
 20
127.587210
 30
0.0
  0
SPLINE
  5
1d9
100
AcDbEntity
  8
Layer_1
 62
7
100
AcDbSpline
 70
8
 71
3
 72
8
 73
4
 74
0
 40
0
 40
0
 40
0
 40
0
 40
1
 40
1
 40
1
 40
1
 10
-40.760165
 20
127.587210
 30
0.0
 10
-41.609036
 20
127.587210
 30
0.0
 10
-42.289787
 20
127.347431
 30
0.0
 10
-42.802418
 20
126.867873
 30
0.0
  0
SPLINE
  5
1da
100
AcDbEntity
  8
Layer_1
 62
7
100
AcDbSpline
 70
8
 71
3
 72
8
 73
4
 74
0
 40
0
 40
0
 40
0
 40
0
 40
1
 40
1
 40
1
 40
1
 10
-42.802418
 20
126.867873
 30
0.0
 10
-43.309535
 20
126.388316
 30
0.0
 10
-43.601680
 20
125.713076
 30
0.0
 10
-43.678850
 20
124.842156
 30
0.0
  0
LINE
  5
1db
100
AcDbEntity
  8
Layer_1
 62
7
100
AcDbLine
 10
-43.678850
 20
124.842156
 30
0.0
 11
-38.254892
 21
124.850425
 31
0.0
  0
LINE
  5
1dc
100
AcDbEntity
  8
Layer_1
 62
7
100
AcDbLine
 10
-38.254892
 20
124.850425
 30
0.0
 11
-38.254892
 21
124.850425
 31
0.0
  0
SPLINE
  5
1dd
100
AcDbEntity
  8
Layer_1
 62
7
100
AcDbSpline
 70
8
 71
3
 72
8
 73
4
 74
0
 40
0
 40
0
 40
0
 40
0
 40
1
 40
1
 40
1
 40
1
 10
-28.870453
 20
127.231675
 30
0.0
 10
-29.041329
 20
127.330893
 30
0.0
 10
-29.228741
 20
127.402551
 30
0.0
 10
-29.432690
 20
127.446649
 30
0.0
  0
SPLINE
  5
1de
100
AcDbEntity
  8
Layer_1
 62
7
100
AcDbSpline
 70
8
 71
3
 72
8
 73
4
 74
0
 40
0
 40
0
 40
0
 40
0
 40
1
 40
1
 40
1
 40
1
 10
-29.432690
 20
127.446649
 30
0.0
 10
-29.631128
 20
127.496258
 30
0.0
 10
-29.851614
 20
127.521063
 30
0.0
 10
-30.094149
 20
127.521063
 30
0.0
  0
SPLINE
  5
1df
100
AcDbEntity
  8
Layer_1
 62
7
100
AcDbSpline
 70
8
 71
3
 72
8
 73
4
 74
0
 40
0
 40
0
 40
0
 40
0
 40
1
 40
1
 40
1
 40
1
 10
-30.094149
 20
127.521063
 30
0.0
 10
-30.954046
 20
127.521063
 30
0.0
 10
-31.615504
 20
127.239943
 30
0.0
 10
-32.078524
 20
126.677704
 30
0.0
  0
SPLINE
  5
1e0
100
AcDbEntity
  8
Layer_1
 62
7
100
AcDbSpline
 70
8
 71
3
 72
8
 73
4
 74
0
 40
0
 40
0
 40
0
 40
0
 40
1
 40
1
 40
1
 40
1
 10
-32.078524
 20
126.677704
 30
0.0
 10
-32.536032
 20
126.120975
 30
0.0
 10
-32.764786
 20
125.318957
 30
0.0
 10
-32.764786
 20
124.271649
 30
0.0
  0
LINE
  5
1e1
100
AcDbEntity
  8
Layer_1
 62
7
100
AcDbLine
 10
-32.764786
 20
124.271649
 30
0.0
 11
-32.764786
 21
119.393393
 31
0.0
  0
LINE
  5
1e2
100
AcDbEntity
  8
Layer_1
 62
7
100
AcDbLine
 10
-32.764786
 20
119.393393
 30
0.0
 11
-34.294411
 21
119.393393
 31
0.0
  0
LINE
  5
1e3
100
AcDbEntity
  8
Layer_1
 62
7
100
AcDbLine
 10
-34.294411
 20
119.393393
 30
0.0
 11
-34.294411
 21
128.653809
 31
0.0
  0
LINE
  5
1e4
100
AcDbEntity
  8
Layer_1
 62
7
100
AcDbLine
 10
-34.294411
 20
128.653809
 30
0.0
 11
-32.764786
 21
128.653809
 31
0.0
  0
LINE
  5
1e5
100
AcDbEntity
  8
Layer_1
 62
7
100
AcDbLine
 10
-32.764786
 20
128.653809
 30
0.0
 11
-32.764786
 21
127.215137
 31
0.0
  0
SPLINE
  5
1e6
100
AcDbEntity
  8
Layer_1
 62
7
100
AcDbSpline
 70
8
 71
3
 72
8
 73
4
 74
0
 40
0
 40
0
 40
0
 40
0
 40
1
 40
1
 40
1
 40
1
 10
-32.764786
 20
127.215137
 30
0.0
 10
-32.445081
 20
127.777378
 30
0.0
 10
-32.028915
 20
128.193545
 30
0.0
 10
-31.516286
 20
128.463637
 30
0.0
  0
SPLINE
  5
1e7
100
AcDbEntity
  8
Layer_1
 62
7
100
AcDbSpline
 70
8
 71
3
 72
8
 73
4
 74
0
 40
0
 40
0
 40
0
 40
0
 40
1
 40
1
 40
1
 40
1
 10
-31.516286
 20
128.463637
 30
0.0
 10
-31.003656
 20
128.739246
 30
0.0
 10
-30.380782
 20
128.877050
 30
0.0
 10
-29.647665
 20
128.877050
 30
0.0
  0
SPLINE
  5
1e8
100
AcDbEntity
  8
Layer_1
 62
7
100
AcDbSpline
 70
8
 71
3
 72
8
 73
4
 74
0
 40
0
 40
0
 40
0
 40
0
 40
1
 40
1
 40
1
 40
1
 10
-29.647665
 20
128.877050
 30
0.0
 10
-29.542934
 20
128.877050
 30
0.0
 10
-29.427178
 20
128.868781
 30
0.0
 10
-29.300399
 20
128.852243
 30
0.0
  0
SPLINE
  5
1e9
100
AcDbEntity
  8
Layer_1
 62
7
100
AcDbSpline
 70
8
 71
3
 72
8
 73
4
 74
0
 40
0
 40
0
 40
0
 40
0
 40
1
 40
1
 40
1
 40
1
 10
-29.300399
 20
128.852243
 30
0.0
 10
-29.173619
 20
128.841217
 30
0.0
 10
-29.033059
 20
128.821925
 30
0.0
 10
-28.878719
 20
128.794365
 30
0.0
  0
LINE
  5
1ea
100
AcDbEntity
  8
Layer_1
 62
7
100
AcDbLine
 10
-28.878719
 20
128.794365
 30
0.0
 11
-28.870450
 21
127.231669
 31
0.0
  0
LINE
  5
1eb
100
AcDbEntity
  8
Layer_1
 62
7
100
AcDbLine
 10
-28.870450
 20
127.231669
 30
0.0
 11
-28.870453
 21
127.231675
 31
0.0
  0
LINE
  5
1ec
100
AcDbEntity
  8
Layer_1
 62
7
100
AcDbLine
 10
-296.900261
 20
420.682303
 30
0.0
 11
296.900261
 21
420.682303
 31
0.0
  0
LINE
  5
1ed
100
AcDbEntity
  8
Layer_1
 62
7
100
AcDbLine
 10
296.900261
 20
420.682303
 30
0.0
 11
296.900261
 21
-420.400281
 31
0.0
  0
LINE
  5
1ee
100
AcDbEntity
  8
Layer_1
 62
7
100
AcDbLine
 10
296.900261
 20
-420.400281
 30
0.0
 11
-296.900261
 21
-420.400281
 31
0.0
  0
LINE
  5
1ef
100
AcDbEntity
  8
Layer_1
 62
7
100
AcDbLine
 10
-296.900261
 20
-420.400281
 30
0.0
 11
-296.900261
 21
420.682303
 31
0.0
  0
LINE
  5
1f0
100
AcDbEntity
  8
Layer_1
 62
7
100
AcDbLine
 10
-284.618910
 20
412.921051
 30
0.0
 11
-286.884392
 21
406.777756
 31
0.0
  0
LINE
  5
1f1
100
AcDbEntity
  8
Layer_1
 62
7
100
AcDbLine
 10
-286.884392
 20
406.777756
 30
0.0
 11
-282.345158
 21
406.777756
 31
0.0
  0
LINE
  5
1f2
100
AcDbEntity
  8
Layer_1
 62
7
100
AcDbLine
 10
-282.345158
 20
406.777756
 30
0.0
 11
-284.618910
 21
412.921051
 31
0.0
  0
LINE
  5
1f3
100
AcDbEntity
  8
Layer_1
 62
7
100
AcDbLine
 10
-284.618910
 20
412.921051
 30
0.0
 11
-284.618910
 21
412.921051
 31
0.0
  0
LINE
  5
1f4
100
AcDbEntity
  8
Layer_1
 62
7
100
AcDbLine
 10
-285.561476
 20
414.566429
 30
0.0
 11
-283.668075
 21
414.566429
 31
0.0
  0
LINE
  5
1f5
100
AcDbEntity
  8
Layer_1
 62
7
100
AcDbLine
 10
-283.668075
 20
414.566429
 30
0.0
 11
-278.963436
 21
402.221961
 31
0.0
  0
LINE
  5
1f6
100
AcDbEntity
  8
Layer_1
 62
7
100
AcDbLine
 10
-278.963436
 20
402.221961
 30
0.0
 11
-280.699766
 21
402.221961
 31
0.0
  0
LINE
  5
1f7
100
AcDbEntity
  8
Layer_1
 62
7
100
AcDbLine
 10
-280.699766
 20
402.221961
 30
0.0
 11
-281.824244
 21
405.388695
 31
0.0
  0
LINE
  5
1f8
100
AcDbEntity
  8
Layer_1
 62
7
100
AcDbLine
 10
-281.824244
 20
405.388695
 30
0.0
 11
-287.388752
 21
405.388695
 31
0.0
  0
LINE
  5
1f9
100
AcDbEntity
  8
Layer_1
 62
7
100
AcDbLine
 10
-287.388752
 20
405.388695
 30
0.0
 11
-288.513238
 21
402.221961
 31
0.0
  0
LINE
  5
1fa
100
AcDbEntity
  8
Layer_1
 62
7
100
AcDbLine
 10
-288.513238
 20
402.221961
 30
0.0
 11
-290.274361
 21
402.221961
 31
0.0
  0
LINE
  5
1fb
100
AcDbEntity
  8
Layer_1
 62
7
100
AcDbLine
 10
-290.274361
 20
402.221961
 30
0.0
 11
-285.561476
 21
414.566429
 31
0.0
  0
LINE
  5
1fc
100
AcDbEntity
  8
Layer_1
 62
7
100
AcDbLine
 10
-285.561476
 20
414.566429
 30
0.0
 11
-285.561476
 21
414.566429
 31
0.0
  0
LINE
  5
1fd
100
AcDbEntity
  8
Layer_1
 62
7
100
AcDbLine
 10
-276.731016
 20
403.627560
 30
0.0
 11
-274.002500
 21
403.627560
 31
0.0
  0
LINE
  5
1fe
100
AcDbEntity
  8
Layer_1
 62
7
100
AcDbLine
 10
-274.002500
 20
403.627560
 30
0.0
 11
-274.002500
 21
413.045073
 31
0.0
  0
LINE
  5
1ff
100
AcDbEntity
  8
Layer_1
 62
7
100
AcDbLine
 10
-274.002500
 20
413.045073
 30
0.0
 11
-276.970795
 21
412.449762
 31
0.0
  0
LINE
  5
200
100
AcDbEntity
  8
Layer_1
 62
7
100
AcDbLine
 10
-276.970795
 20
412.449762
 30
0.0
 11
-276.970795
 21
413.971115
 31
0.0
  0
LINE
  5
201
100
AcDbEntity
  8
Layer_1
 62
7
100
AcDbLine
 10
-276.970795
 20
413.971115
 30
0.0
 11
-274.019035
 21
414.566429
 31
0.0
  0
LINE
  5
202
100
AcDbEntity
  8
Layer_1
 62
7
100
AcDbLine
 10
-274.019035
 20
414.566429
 30
0.0
 11
-272.348853
 21
414.566429
 31
0.0
  0
LINE
  5
203
100
AcDbEntity
  8
Layer_1
 62
7
100
AcDbLine
 10
-272.348853
 20
414.566429
 30
0.0
 11
-272.348853
 21
403.627560
 31
0.0
  0
LINE
  5
204
100
AcDbEntity
  8
Layer_1
 62
7
100
AcDbLine
 10
-272.348853
 20
403.627560
 30
0.0
 11
-269.620340
 21
403.627560
 31
0.0
  0
LINE
  5
205
100
AcDbEntity
  8
Layer_1
 62
7
100
AcDbLine
 10
-269.620340
 20
403.627560
 30
0.0
 11
-269.620340
 21
402.221961
 31
0.0
  0
LINE
  5
206
100
AcDbEntity
  8
Layer_1
 62
7
100
AcDbLine
 10
-269.620340
 20
402.221961
 30
0.0
 11
-276.731016
 21
402.221961
 31
0.0
  0
LINE
  5
207
100
AcDbEntity
  8
Layer_1
 62
7
100
AcDbLine
 10
-276.731016
 20
402.221961
 30
0.0
 11
-276.731016
 21
403.627560
 31
0.0
  0
LINE
  5
208
100
AcDbEntity
  8
Layer_1
 62
7
100
AcDbLine
 10
-276.731016
 20
403.627560
 30
0.0
 11
-276.731016
 21
403.627560
 31
0.0
  0
LINE
  5
209
100
AcDbEntity
  8
Layer_1
 62
7
100
AcDbLine
 10
-296.858972
 20
-209.858976
 30
0.0
 11
-296.858972
 21
209.858961
 31
0.0
  0
LINE
  5
20a
100
AcDbEntity
  8
Layer_1
 62
7
100
AcDbLine
 10
-296.858972
 20
209.858961
 30
0.0
 11
296.858972
 21
209.858961
 31
0.0
  0
LINE
  5
20b
100
AcDbEntity
  8
Layer_1
 62
7
100
AcDbLine
 10
296.858972
 20
209.858961
 30
0.0
 11
296.858972
 21
-209.858976
 31
0.0
  0
LINE
  5
20c
100
AcDbEntity
  8
Layer_1
 62
7
100
AcDbLine
 10
296.858972
 20
-209.858976
 30
0.0
 11
-296.858972
 21
-209.858976
 31
0.0
  0
LINE
  5
20d
100
AcDbEntity
  8
Layer_1
 62
7
100
AcDbLine
 10
-285.188519
 20
201.980869
 30
0.0
 11
-287.454001
 21
195.837574
 31
0.0
  0
LINE
  5
20e
100
AcDbEntity
  8
Layer_1
 62
7
100
AcDbLine
 10
-287.454001
 20
195.837574
 30
0.0
 11
-282.914739
 21
195.837574
 31
0.0
  0
LINE
  5
20f
100
AcDbEntity
  8
Layer_1
 62
7
100
AcDbLine
 10
-282.914739
 20
195.837574
 30
0.0
 11
-285.188519
 21
201.980869
 31
0.0
  0
LINE
  5
210
100
AcDbEntity
  8
Layer_1
 62
7
100
AcDbLine
 10
-285.188519
 20
201.980869
 30
0.0
 11
-285.188519
 21
201.980869
 31
0.0
  0
LINE
  5
211
100
AcDbEntity
  8
Layer_1
 62
7
100
AcDbLine
 10
-286.131085
 20
203.626244
 30
0.0
 11
-284.237656
 21
203.626244
 31
0.0
  0
LINE
  5
212
100
AcDbEntity
  8
Layer_1
 62
7
100
AcDbLine
 10
-284.237656
 20
203.626244
 30
0.0
 11
-279.533048
 21
191.281779
 31
0.0
  0
LINE
  5
213
100
AcDbEntity
  8
Layer_1
 62
7
100
AcDbLine
 10
-279.533048
 20
191.281779
 30
0.0
 11
-281.269375
 21
191.281779
 31
0.0
  0
LINE
  5
214
100
AcDbEntity
  8
Layer_1
 62
7
100
AcDbLine
 10
-281.269375
 20
191.281779
 30
0.0
 11
-282.393842
 21
194.448510
 31
0.0
  0
LINE
  5
215
100
AcDbEntity
  8
Layer_1
 62
7
100
AcDbLine
 10
-282.393842
 20
194.448510
 30
0.0
 11
-287.958361
 21
194.448510
 31
0.0
  0
LINE
  5
216
100
AcDbEntity
  8
Layer_1
 62
7
100
AcDbLine
 10
-287.958361
 20
194.448510
 30
0.0
 11
-289.082847
 21
191.281779
 31
0.0
  0
LINE
  5
217
100
AcDbEntity
  8
Layer_1
 62
7
100
AcDbLine
 10
-289.082847
 20
191.281779
 30
0.0
 11
-290.843998
 21
191.281779
 31
0.0
  0
LINE
  5
218
100
AcDbEntity
  8
Layer_1
 62
7
100
AcDbLine
 10
-290.843998
 20
191.281779
 30
0.0
 11
-286.131085
 21
203.626244
 31
0.0
  0
LINE
  5
219
100
AcDbEntity
  8
Layer_1
 62
7
100
AcDbLine
 10
-286.131085
 20
203.626244
 30
0.0
 11
-286.131085
 21
203.626244
 31
0.0
  0
LINE
  5
21a
100
AcDbEntity
  8
Layer_1
 62
7
100
AcDbLine
 10
-276.151343
 20
192.687379
 30
0.0
 11
-270.322240
 21
192.687379
 31
0.0
  0
LINE
  5
21b
100
AcDbEntity
  8
Layer_1
 62
7
100
AcDbLine
 10
-270.322240
 20
192.687379
 30
0.0
 11
-270.322240
 21
191.281779
 31
0.0
  0
LINE
  5
21c
100
AcDbEntity
  8
Layer_1
 62
7
100
AcDbLine
 10
-270.322240
 20
191.281779
 30
0.0
 11
-278.160522
 21
191.281779
 31
0.0
  0
LINE
  5
21d
100
AcDbEntity
  8
Layer_1
 62
7
100
AcDbLine
 10
-278.160522
 20
191.281779
 30
0.0
 11
-278.160522
 21
192.687379
 31
0.0
  0
SPLINE
  5
21e
100
AcDbEntity
  8
Layer_1
 62
7
100
AcDbSpline
 70
8
 71
3
 72
8
 73
4
 74
0
 40
0
 40
0
 40
0
 40
0
 40
1
 40
1
 40
1
 40
1
 10
-278.160522
 20
192.687379
 30
0.0
 10
-277.526625
 20
193.343325
 30
0.0
 10
-276.663973
 20
194.222513
 30
0.0
 10
-275.572567
 20
195.324943
 30
0.0
  0
SPLINE
  5
21f
100
AcDbEntity
  8
Layer_1
 62
7
100
AcDbSpline
 70
8
 71
3
 72
8
 73
4
 74
0
 40
0
 40
0
 40
0
 40
0
 40
1
 40
1
 40
1
 40
1
 10
-275.572567
 20
195.324943
 30
0.0
 10
-274.475648
 20
196.432885
 30
0.0
 10
-273.786629
 20
197.146709
 30
0.0
 10
-273.505509
 20
197.466414
 30
0.0
  0
SPLINE
  5
220
100
AcDbEntity
  8
Layer_1
 62
7
100
AcDbSpline
 70
8
 71
3
 72
8
 73
4
 74
0
 40
0
 40
0
 40
0
 40
0
 40
1
 40
1
 40
1
 40
1
 10
-273.505509
 20
197.466414
 30
0.0
 10
-272.970830
 20
198.067239
 30
0.0
 10
-272.598760
 20
198.574357
 30
0.0
 10
-272.389298
 20
198.987770
 30
0.0
  0
SPLINE
  5
221
100
AcDbEntity
  8
Layer_1
 62
7
100
AcDbSpline
 70
8
 71
3
 72
8
 73
4
 74
0
 40
0
 40
0
 40
0
 40
0
 40
1
 40
1
 40
1
 40
1
 10
-272.389298
 20
198.987770
 30
0.0
 10
-272.174324
 20
199.406693
 30
0.0
 10
-272.066837
 20
199.817348
 30
0.0
 10
-272.066837
 20
200.219735
 30
0.0
  0
SPLINE
  5
222
100
AcDbEntity
  8
Layer_1
 62
7
100
AcDbSpline
 70
8
 71
3
 72
8
 73
4
 74
0
 40
0
 40
0
 40
0
 40
0
 40
1
 40
1
 40
1
 40
1
 10
-272.066837
 20
200.219735
 30
0.0
 10
-272.066837
 20
200.875681
 30
0.0
 10
-272.298347
 20
201.410361
 30
0.0
 10
-272.761369
 20
201.823773
 30
0.0
  0
SPLINE
  5
223
100
AcDbEntity
  8
Layer_1
 62
7
100
AcDbSpline
 70
8
 71
3
 72
8
 73
4
 74
0
 40
0
 40
0
 40
0
 40
0
 40
1
 40
1
 40
1
 40
1
 10
-272.761369
 20
201.823773
 30
0.0
 10
-273.218877
 20
202.237183
 30
0.0
 10
-273.816945
 20
202.443888
 30
0.0
 10
-274.555574
 20
202.443888
 30
0.0
  0
SPLINE
  5
224
100
AcDbEntity
  8
Layer_1
 62
7
100
AcDbSpline
 70
8
 71
3
 72
8
 73
4
 74
0
 40
0
 40
0
 40
0
 40
0
 40
1
 40
1
 40
1
 40
1
 10
-274.555574
 20
202.443888
 30
0.0
 10
-275.079228
 20
202.443888
 30
0.0
 10
-275.633199
 20
202.352938
 30
0.0
 10
-276.217487
 20
202.171036
 30
0.0
  0
SPLINE
  5
225
100
AcDbEntity
  8
Layer_1
 62
7
100
AcDbSpline
 70
8
 71
3
 72
8
 73
4
 74
0
 40
0
 40
0
 40
0
 40
0
 40
1
 40
1
 40
1
 40
1
 10
-276.217487
 20
202.171036
 30
0.0
 10
-276.796265
 20
201.989136
 30
0.0
 10
-277.416382
 20
201.713529
 30
0.0
 10
-278.077840
 20
201.344215
 30
0.0
  0
LINE
  5
226
100
AcDbEntity
  8
Layer_1
 62
7
100
AcDbLine
 10
-278.077840
 20
201.344215
 30
0.0
 11
-278.077840
 21
203.030933
 31
0.0
  0
SPLINE
  5
227
100
AcDbEntity
  8
Layer_1
 62
7
100
AcDbSpline
 70
8
 71
3
 72
8
 73
4
 74
0
 40
0
 40
0
 40
0
 40
0
 40
1
 40
1
 40
1
 40
1
 10
-278.077840
 20
203.030933
 30
0.0
 10
-277.405357
 20
203.301029
 30
0.0
 10
-276.776971
 20
203.504979
 30
0.0
 10
-276.192683
 20
203.642783
 30
0.0
  0
SPLINE
  5
228
100
AcDbEntity
  8
Layer_1
 62
7
100
AcDbSpline
 70
8
 71
3
 72
8
 73
4
 74
0
 40
0
 40
0
 40
0
 40
0
 40
1
 40
1
 40
1
 40
1
 10
-276.192683
 20
203.642783
 30
0.0
 10
-275.608394
 20
203.780586
 30
0.0
 10
-275.073716
 20
203.849488
 30
0.0
 10
-274.588647
 20
203.849488
 30
0.0
  0
SPLINE
  5
229
100
AcDbEntity
  8
Layer_1
 62
7
100
AcDbSpline
 70
8
 71
3
 72
8
 73
4
 74
0
 40
0
 40
0
 40
0
 40
0
 40
1
 40
1
 40
1
 40
1
 10
-274.588647
 20
203.849488
 30
0.0
 10
-273.309827
 20
203.849488
 30
0.0
 10
-272.290079
 20
203.529783
 30
0.0
 10
-271.529404
 20
202.890373
 30
0.0
  0
SPLINE
  5
22a
100
AcDbEntity
  8
Layer_1
 62
7
100
AcDbSpline
 70
8
 71
3
 72
8
 73
4
 74
0
 40
0
 40
0
 40
0
 40
0
 40
1
 40
1
 40
1
 40
1
 10
-271.529404
 20
202.890373
 30
0.0
 10
-270.768726
 20
202.250964
 30
0.0
 10
-270.388388
 20
201.396581
 30
0.0
 10
-270.388388
 20
200.327222
 30
0.0
  0
SPLINE
  5
22b
100
AcDbEntity
  8
Layer_1
 62
7
100
AcDbSpline
 70
8
 71
3
 72
8
 73
4
 74
0
 40
0
 40
0
 40
0
 40
0
 40
1
 40
1
 40
1
 40
1
 10
-270.388388
 20
200.327222
 30
0.0
 10
-270.388388
 20
199.820104
 30
0.0
 10
-270.484850
 20
199.337791
 30
0.0
 10
-270.677775
 20
198.880283
 30
0.0
  0
SPLINE
  5
22c
100
AcDbEntity
  8
Layer_1
 62
7
100
AcDbSpline
 70
8
 71
3
 72
8
 73
4
 74
0
 40
0
 40
0
 40
0
 40
0
 40
1
 40
1
 40
1
 40
1
 10
-270.677775
 20
198.880283
 30
0.0
 10
-270.865188
 20
198.428285
 30
0.0
 10
-271.209698
 20
197.893605
 30
0.0
 10
-271.711304
 20
197.276244
 30
0.0
  0
SPLINE
  5
22d
100
AcDbEntity
  8
Layer_1
 62
7
100
AcDbSpline
 70
8
 71
3
 72
8
 73
4
 74
0
 40
0
 40
0
 40
0
 40
0
 40
1
 40
1
 40
1
 40
1
 10
-271.711304
 20
197.276244
 30
0.0
 10
-271.849108
 20
197.116394
 30
0.0
 10
-272.287324
 20
196.653373
 30
0.0
 10
-273.025952
 20
195.887183
 30
0.0
  0
SPLINE
  5
22e
100
AcDbEntity
  8
Layer_1
 62
7
100
AcDbSpline
 70
8
 71
3
 72
8
 73
4
 74
0
 40
0
 40
0
 40
0
 40
0
 40
1
 40
1
 40
1
 40
1
 10
-273.025952
 20
195.887183
 30
0.0
 10
-273.764580
 20
195.126506
 30
0.0
 10
-274.806377
 20
194.059904
 30
0.0
 10
-276.151343
 20
192.687379
 30
0.0
  0
LINE
  5
22f
100
AcDbEntity
  8
Layer_1
 62
7
100
AcDbLine
 10
-276.151343
 20
192.687379
 30
0.0
 11
-276.151343
 21
192.687379
 31
0.0
  0
ENDSEC
  0
SECTION
  2
OBJECTS
  0
DICTIONARY
  5
C
330
0
100
AcDbDictionary
  3
ACAD_GROUP
350
D
  3
ACAD_MLINESTYLE
350
17
  0
DICTIONARY
  5
D
330
C
100
AcDbDictionary
  0
DICTIONARY
  5
1A
330
C
100
AcDbDictionary
  0
DICTIONARY
  5
17
330
C
100
AcDbDictionary
  3
STANDARD
350
18
  0
DICTIONARY
  5
19
330
C
100
AcDbDictionary
  0
ENDSEC
  0
EOF
