  0
SECTION
  2
HEADER
  9
$ACADVER
  1
AC1009
  9
$INSBASE
 10
0.0
 20
0.0
 30
0.0
  9
$EXTMIN
 10
0.0
 20
0.0
 30
0.0
  9
$EXTMAX
 10
200.0
 20
240.80309419215959
 30
0.0
  9
$LIMMIN
 10
0.0
 20
0.0
  9
$LIMMAX
 10
420.0
 20
297.0
  9
$ORTHOMODE
 70
     0
  9
$REGENMODE
 70
     1
  9
$FILLMODE
 70
     1
  9
$QTEXTMODE
 70
     0
  9
$MIRRTEXT
 70
     0
  9
$DRAGMODE
 70
     2
  9
$LTSCALE
 40
1.0
  9
$OSMODE
 70
  3071
  9
$ATTMODE
 70
     1
  9
$TEXTSIZE
 40
2.5
  9
$TRACEWID
 40
1.0
  9
$TEXTSTYLE
  7
STANDARD
  9
$CLAYER
  8
0
  9
$CELTYPE
  6
BYLAYER
  9
$CECOLOR
 62
   256
  9
$DIMSCALE
 40
1.0
  9
$DIMASZ
 40
2.5
  9
$DIMEXO
 40
0.625
  9
$DIMDLI
 40
3.75
  9
$DIMRND
 40
0.0
  9
$DIMDLE
 40
0.0
  9
$DIMEXE
 40
1.25
  9
$DIMTP
 40
0.0
  9
$DIMTM
 40
0.0
  9
$DIMTXT
 40
2.5
  9
$DIMCEN
 40
2.5
  9
$DIMTSZ
 40
0.0
  9
$DIMTOL
 70
     0
  9
$DIMLIM
 70
     0
  9
$DIMTIH
 70
     0
  9
$DIMTOH
 70
     0
  9
$DIMSE1
 70
     0
  9
$DIMSE2
 70
     0
  9
$DIMTAD
 70
     1
  9
$DIMZIN
 70
     8
  9
$DIMBLK
  1

  9
$DIMASO
 70
     1
  9
$DIMSHO
 70
     1
  9
$DIMPOST
  1

  9
$DIMAPOST
  1

  9
$DIMALT
 70
     0
  9
$DIMALTD
 70
     3
  9
$DIMALTF
 40
0.03937007874016
  9
$DIMLFAC
 40
1.0
  9
$DIMTOFL
 70
     1
  9
$DIMTVP
 40
0.0
  9
$DIMTIX
 70
     0
  9
$DIMSOXD
 70
     0
  9
$DIMSAH
 70
     0
  9
$DIMBLK1
  1

  9
$DIMBLK2
  1

  9
$DIMSTYLE
  2
ISO-25
  9
$DIMCLRD
 70
     0
  9
$DIMCLRE
 70
     0
  9
$DIMCLRT
 70
     0
  9
$DIMTFAC
 40
1.0
  9
$DIMGAP
 40
0.625
  9
$LUNITS
 70
     2
  9
$LUPREC
 70
     4
  9
$SKETCHINC
 40
1.0
  9
$FILLETRAD
 40
0.0
  9
$AUNITS
 70
     0
  9
$AUPREC
 70
     0
  9
$MENU
  1
.
  9
$ELEVATION
 40
0.0
  9
$PELEVATION
 40
0.0
  9
$THICKNESS
 40
0.0
  9
$LIMCHECK
 70
     0
  9
$BLIPMODE
 70
     0
  9
$CHAMFERA
 40
0.0
  9
$CHAMFERB
 40
0.0
  9
$SKPOLY
 70
     0
  9
$TDCREATE
 40
2459058.6675180211
  9
$TDUPDATE
 40
2459058.9644973609
  9
$TDINDWG
 40
0.007628831
  9
$TDUSRTIMER
 40
0.0076281597
  9
$USRTIMER
 70
     1
  9
$ANGBASE
 50
0.0
  9
$ANGDIR
 70
     0
  9
$PDMODE
 70
     0
  9
$PDSIZE
 40
0.0
  9
$PLINEWID
 40
0.0
  9
$COORDS
 70
     1
  9
$SPLFRAME
 70
     0
  9
$SPLINETYPE
 70
     6
  9
$SPLINESEGS
 70
     8
  9
$ATTDIA
 70
     0
  9
$ATTREQ
 70
     1
  9
$HANDLING
 70
     1
  9
$HANDSEED
  5
2DB
  9
$SURFTAB1
 70
     6
  9
$SURFTAB2
 70
     6
  9
$SURFTYPE
 70
     6
  9
$SURFU
 70
     6
  9
$SURFV
 70
     6
  9
$UCSNAME
  2

  9
$UCSORG
 10
0.0
 20
0.0
 30
0.0
  9
$UCSXDIR
 10
1.0
 20
0.0
 30
0.0
  9
$UCSYDIR
 10
0.0
 20
1.0
 30
0.0
  9
$PUCSNAME
  2

  9
$PUCSORG
 10
0.0
 20
0.0
 30
0.0
  9
$PUCSXDIR
 10
1.0
 20
0.0
 30
0.0
  9
$PUCSYDIR
 10
0.0
 20
1.0
 30
0.0
  9
$USERI1
 70
     0
  9
$USERI2
 70
     0
  9
$USERI3
 70
     0
  9
$USERI4
 70
     0
  9
$USERI5
 70
     0
  9
$USERR1
 40
0.0
  9
$USERR2
 40
0.0
  9
$USERR3
 40
0.0
  9
$USERR4
 40
0.0
  9
$USERR5
 40
0.0
  9
$WORLDVIEW
 70
     1
  9
$SHADEDGE
 70
     3
  9
$SHADEDIF
 70
    70
  9
$TILEMODE
 70
     1
  9
$MAXACTVP
 70
    64
  9
$PLIMCHECK
 70
     0
  9
$PEXTMIN
 10
0.0
 20
0.0
 30
0.0
  9
$PEXTMAX
 10
0.0
 20
0.0
 30
0.0
  9
$PLIMMIN
 10
0.0
 20
0.0
  9
$PLIMMAX
 10
12.0
 20
9.0
  9
$UNITMODE
 70
     0
  9
$VISRETAIN
 70
     1
  9
$PLINEGEN
 70
     0
  9
$PSLTSCALE
 70
     1
  0
ENDSEC
  0
SECTION
  2
TABLES
  0
TABLE
  2
VPORT
 70
     1
  0
VPORT
  2
*ACTIVE
 70
     0
 10
0.0
 20
0.0
 11
1.0
 21
1.0
 12
131.97580201037511
 22
94.628343530599295
 13
0.0
 23
0.0
 14
10.0
 24
10.0
 15
10.0
 25
10.0
 16
0.0
 26
0.0
 36
1.0
 17
0.0
 27
0.0
 37
0.0
 40
155.74635752690349
 41
2.1995277449822899
 42
50.0
 43
0.0
 44
0.0
 50
0.0
 51
0.0
 71
     0
 72
  1000
 73
     1
 74
     3
 75
     0
 76
     0
 77
     0
 78
     0
  0
ENDTAB
  0
TABLE
  2
LTYPE
 70
     2
  0
LTYPE
  2
CONTINUOUS
 70
     0
  3
Solid line
 72
    65
 73
     0
 40
0.0
  0
ENDTAB
  0
TABLE
  2
LAYER
 70
     2
  0
LAYER
  2
0
 70
     0
 62
     7
  6
CONTINUOUS
  0
LAYER
  2
DEFPOINTS
 70
     0
 62
     7
  6
CONTINUOUS
  0
ENDTAB
  0
TABLE
  2
STYLE
 70
     1
  0
STYLE
  2
STANDARD
 70
     0
 40
0.0
 41
1.0
 50
0.0
 71
     0
 42
2.5
  3
txt.shx
  4
whgtxt.shx
  0
ENDTAB
  0
TABLE
  2
VIEW
 70
     0
  0
ENDTAB
  0
TABLE
  2
UCS
 70
     0
  0
ENDTAB
  0
TABLE
  2
APPID
 70
     3
  0
APPID
  2
ACAD
 70
     0
  0
APPID
  2
ACAD_PSEXT
 70
     0
  0
APPID
  2
ACAD_EXEMPT_FROM_CAD_STANDARDS
 70
     0
  0
ENDTAB
  0
TABLE
  2
DIMSTYLE
 70
     2
  0
DIMSTYLE
  2
ISO-25
 70
     0
  3

  4

  5

  6

  7

 40
1.0
 41
2.5
 42
0.625
 43
3.75
 44
1.25
 45
0.0
 46
0.0
 47
0.0
 48
0.0
140
2.5
141
2.5
142
0.0
143
0.03937007874016
144
1.0
145
0.0
146
1.0
147
0.625
 71
     0
 72
     0
 73
     0
 74
     0
 75
     0
 76
     0
 77
     1
 78
     8
170
     0
171
     3
172
     1
173
     0
174
     0
175
     0
176
     0
177
     0
178
     0
  0
ENDTAB
  0
ENDSEC
  0
SECTION
  2
BLOCKS
  0
BLOCK
  8
0
  2
$MODEL_SPACE
 70
     0
 10
0.0
 20
0.0
 30
0.0
  3
$MODEL_SPACE
  1

  0
ENDBLK
  5
21
  8
0
  0
BLOCK
 67
     1
  8
0
  2
$PAPER_SPACE
 70
     0
 10
0.0
 20
0.0
 30
0.0
  3
$PAPER_SPACE
  1

  0
ENDBLK
  5
D5
 67
     1
  8
0
  0
BLOCK
  8
0
  2
*D2
 70
     1
 10
0.0
 20
0.0
 30
0.0
  3
*D2
  1

  0
LINE
  5
142
  8
0
 62
     0
 10
2.3525672021014539
 20
200.625
 30
0.0
 11
2.3525672021014561
 21
238.51142752549291
 31
0.0
  0
LINE
  5
143
  8
0
 62
     0
 10
200.0
 20
200.625
 30
0.0
 11
200.0
 21
238.51142752549291
 31
0.0
  0
LINE
  5
144
  8
0
 62
     0
 10
4.8525672021014561
 20
237.26142752549291
 30
0.0
 11
197.5
 21
237.26142752549291
 31
0.0
  0
SOLID
  5
145
  8
0
 62
     0
 10
4.8525672021014561
 20
237.67809419215951
 30
0.0
 11
4.8525672021014561
 21
236.84476085882619
 31
0.0
 12
2.3525672021014561
 22
237.26142752549291
 32
0.0
 13
2.3525672021014561
 23
237.26142752549291
 33
0.0
  0
SOLID
  5
146
  8
0
 62
     0
 10
197.5
 20
237.67809419215951
 30
0.0
 11
197.5
 21
236.84476085882619
 31
0.0
 12
200.0
 22
237.26142752549291
 32
0.0
 13
200.0
 23
237.26142752549291
 33
0.0
  0
INSERT
  5
147
  8
0
  2
*U3
 10
0.0
 20
0.0
 30
0.0
  0
POINT
  5
148
  8
DEFPOINTS
 62
     0
 10
2.3525672021014539
 20
200.0
 30
0.0
  0
POINT
  5
149
  8
DEFPOINTS
 62
     0
 10
200.0
 20
200.0
 30
0.0
  0
POINT
  5
14A
  8
DEFPOINTS
 62
     0
 10
200.0
 20
237.26142752549291
 30
0.0
  0
ENDBLK
  5
140
  8
0
  0
BLOCK
  8
0
  2
*U3
 70
     1
 10
0.0
 20
0.0
 30
0.0
  3
*U3
  1

  0
TEXT
  5
1D4
  8
0
 62
     0
 10
95.134616934384056
 20
238.30309419215959
 30
0.0
 40
2.5
  1
197,65
  0
ENDBLK
  5
1D6
  8
0
  0
ENDSEC
  0
SECTION
  2
ENTITIES
  0
POLYLINE
  5
116
  8
0
 66
     1
 10
0.0
 20
0.0
 30
0.0
 70
     1
  0
VERTEX
  5
1CB
  8
0
 10
0.0
 20
0.0
 30
0.0
  0
VERTEX
  5
1CC
  8
0
 10
200.0
 20
0.0
 30
0.0
  0
VERTEX
  5
1CD
  8
0
 10
200.0
 20
200.0
 30
0.0
  0
VERTEX
  5
1CE
  8
0
 10
0.0
 20
200.0
 30
0.0
  0
SEQEND
  5
1CF
  8
0
  0
LINE
  5
123
  8
0
 10
0.0
 20
200.0
 30
0.0
 11
200.0
 21
0.0
 31
0.0
  0
LINE
  5
124
  8
0
 10
200.0
 20
200.0
 30
0.0
 11
0.0
 21
0.0
 31
0.0
  0
CIRCLE
  5
125
  8
0
 10
100.0
 20
100.0
 30
0.0
 40
100.0
  0
POLYLINE
  5
131
  8
0
 10
100.0
 20
200.0
 30
0.0
 66
     1
 70
     8
  0
VERTEX
  8
0
  5
1D7
 10
100.000
 20
200.000
 30
0.000000
  70
    32
  0
VERTEX
  8
0
  5
1D8
 10
97.5466
 20
199.880
 30
0.000000
  70
    32
  0
VERTEX
  8
0
  5
1D9
 10
95.0991
 20
199.518
 30
0.000000
  70
    32
  0
VERTEX
  8
0
  5
1DA
 10
92.6635
 20
198.918
 30
0.000000
  70
    32
  0
VERTEX
  8
0
  5
1DB
 10
90.2455
 20
198.079
 30
0.000000
  70
    32
  0
VERTEX
  8
0
  5
1DC
 10
87.8510
 20
197.003
 30
0.000000
  70
    32
  0
VERTEX
  8
0
  5
1DD
 10
85.4858
 20
195.694
 30
0.000000
  70
    32
  0
VERTEX
  8
0
  5
1DE
 10
83.1555
 20
194.154
 30
0.000000
  70
    32
  0
VERTEX
  8
0
  5
1DF
 10
80.8658
 20
192.388
 30
0.000000
  70
    32
  0
VERTEX
  8
0
  5
1E0
 10
78.6222
 20
190.399
 30
0.000000
  70
    32
  0
VERTEX
  8
0
  5
1E1
 10
76.4302
 20
188.192
 30
0.000000
  70
    32
  0
VERTEX
  8
0
  5
1E2
 10
74.2949
 20
185.773
 30
0.000000
  70
    32
  0
VERTEX
  8
0
  5
1E3
 10
72.2215
 20
183.147
 30
0.000000
  70
    32
  0
VERTEX
  8
0
  5
1E4
 10
70.2150
 20
180.321
 30
0.000000
  70
    32
  0
VERTEX
  8
0
  5
1E5
 10
68.2803
 20
177.301
 30
0.000000
  70
    32
  0
VERTEX
  8
0
  5
1E6
 10
66.4221
 20
174.095
 30
0.000000
  70
    32
  0
VERTEX
  8
0
  5
1E7
 10
64.6447
 20
170.711
 30
0.000000
  70
    32
  0
VERTEX
  8
0
  5
1E8
 10
62.9524
 20
167.156
 30
0.000000
  70
    32
  0
VERTEX
  8
0
  5
1E9
 10
61.3495
 20
163.439
 30
0.000000
  70
    32
  0
VERTEX
  8
0
  5
1EA
 10
59.8396
 20
159.570
 30
0.000000
  70
    32
  0
VERTEX
  8
0
  5
1EB
 10
58.4265
 20
155.557
 30
0.000000
  70
    32
  0
VERTEX
  8
0
  5
1EC
 10
57.1136
 20
151.410
 30
0.000000
  70
    32
  0
VERTEX
  8
0
  5
1ED
 10
55.9039
 20
147.140
 30
0.000000
  70
    32
  0
VERTEX
  8
0
  5
1EE
 10
54.8005
 20
142.756
 30
0.000000
  70
    32
  0
VERTEX
  8
0
  5
1EF
 10
53.8060
 20
138.268
 30
0.000000
  70
    32
  0
VERTEX
  8
0
  5
1F0
 10
52.9228
 20
133.689
 30
0.000000
  70
    32
  0
VERTEX
  8
0
  5
1F1
 10
52.1530
 20
129.028
 30
0.000000
  70
    32
  0
VERTEX
  8
0
  5
1F2
 10
51.4984
 20
124.298
 30
0.000000
  70
    32
  0
VERTEX
  8
0
  5
1F3
 10
50.9607
 20
119.509
 30
0.000000
  70
    32
  0
VERTEX
  8
0
  5
1F4
 10
50.5412
 20
114.673
 30
0.000000
  70
    32
  0
VERTEX
  8
0
  5
1F5
 10
50.2408
 20
109.802
 30
0.000000
  70
    32
  0
VERTEX
  8
0
  5
1F6
 10
50.0602
 20
104.907
 30
0.000000
  70
    32
  0
VERTEX
  8
0
  5
1F7
 10
50.0000
 20
100.000
 30
0.000000
  70
    32
  0
VERTEX
  8
0
  5
1F8
 10
50.0602
 20
95.0932
 30
0.000000
  70
    32
  0
VERTEX
  8
0
  5
1F9
 10
50.2408
 20
90.1983
 30
0.000000
  70
    32
  0
VERTEX
  8
0
  5
1FA
 10
50.5412
 20
85.3270
 30
0.000000
  70
    32
  0
VERTEX
  8
0
  5
1FB
 10
50.9607
 20
80.4910
 30
0.000000
  70
    32
  0
VERTEX
  8
0
  5
1FC
 10
51.4984
 20
75.7020
 30
0.000000
  70
    32
  0
VERTEX
  8
0
  5
1FD
 10
52.1530
 20
70.9715
 30
0.000000
  70
    32
  0
VERTEX
  8
0
  5
1FE
 10
52.9228
 20
66.3110
 30
0.000000
  70
    32
  0
VERTEX
  8
0
  5
1FF
 10
53.8060
 20
61.7317
 30
0.000000
  70
    32
  0
VERTEX
  8
0
  5
200
 10
54.8005
 20
57.2445
 30
0.000000
  70
    32
  0
VERTEX
  8
0
  5
201
 10
55.9039
 20
52.8603
 30
0.000000
  70
    32
  0
VERTEX
  8
0
  5
202
 10
57.1136
 20
48.5897
 30
0.000000
  70
    32
  0
VERTEX
  8
0
  5
203
 10
58.4265
 20
44.4430
 30
0.000000
  70
    32
  0
VERTEX
  8
0
  5
204
 10
59.8396
 20
40.4301
 30
0.000000
  70
    32
  0
VERTEX
  8
0
  5
205
 10
61.3495
 20
36.5607
 30
0.000000
  70
    32
  0
VERTEX
  8
0
  5
206
 10
62.9524
 20
32.8441
 30
0.000000
  70
    32
  0
VERTEX
  8
0
  5
207
 10
64.6447
 20
29.2893
 30
0.000000
  70
    32
  0
VERTEX
  8
0
  5
208
 10
66.4221
 20
25.9049
 30
0.000000
  70
    32
  0
VERTEX
  8
0
  5
209
 10
68.2803
 20
22.6990
 30
0.000000
  70
    32
  0
VERTEX
  8
0
  5
20A
 10
70.2150
 20
19.6792
 30
0.000000
  70
    32
  0
VERTEX
  8
0
  5
20B
 10
72.2215
 20
16.8530
 30
0.000000
  70
    32
  0
VERTEX
  8
0
  5
20C
 10
74.2949
 20
14.2271
 30
0.000000
  70
    32
  0
VERTEX
  8
0
  5
20D
 10
76.4302
 20
11.8079
 30
0.000000
  70
    32
  0
VERTEX
  8
0
  5
20E
 10
78.6222
 20
9.60107
 30
0.000000
  70
    32
  0
VERTEX
  8
0
  5
20F
 10
80.8658
 20
7.61205
 30
0.000000
  70
    32
  0
VERTEX
  8
0
  5
210
 10
83.1555
 20
5.84559
 30
0.000000
  70
    32
  0
VERTEX
  8
0
  5
211
 10
85.4858
 20
4.30597
 30
0.000000
  70
    32
  0
VERTEX
  8
0
  5
212
 10
87.8510
 20
2.99687
 30
0.000000
  70
    32
  0
VERTEX
  8
0
  5
213
 10
90.2455
 20
1.92147
 30
0.000000
  70
    32
  0
VERTEX
  8
0
  5
214
 10
92.6635
 20
1.08235
 30
0.000000
  70
    32
  0
VERTEX
  8
0
  5
215
 10
95.0991
 20
0.481527
 30
0.000000
  70
    32
  0
VERTEX
  8
0
  5
216
 10
97.5466
 20
0.120454
 30
0.000000
  70
    32
  0
VERTEX
  8
0
  5
217
 10
100.000
 20
0.000000
 30
0.000000
  70
    32
  0
VERTEX
  8
0
  5
218
 10
102.453
 20
0.120454
 30
0.000000
  70
    32
  0
VERTEX
  8
0
  5
219
 10
104.901
 20
0.481527
 30
0.000000
  70
    32
  0
VERTEX
  8
0
  5
21A
 10
107.337
 20
1.08235
 30
0.000000
  70
    32
  0
VERTEX
  8
0
  5
21B
 10
109.755
 20
1.92147
 30
0.000000
  70
    32
  0
VERTEX
  8
0
  5
21C
 10
112.149
 20
2.99687
 30
0.000000
  70
    32
  0
VERTEX
  8
0
  5
21D
 10
114.514
 20
4.30597
 30
0.000000
  70
    32
  0
VERTEX
  8
0
  5
21E
 10
116.844
 20
5.84559
 30
0.000000
  70
    32
  0
VERTEX
  8
0
  5
21F
 10
119.134
 20
7.61205
 30
0.000000
  70
    32
  0
VERTEX
  8
0
  5
220
 10
121.378
 20
9.60107
 30
0.000000
  70
    32
  0
VERTEX
  8
0
  5
221
 10
123.570
 20
11.8079
 30
0.000000
  70
    32
  0
VERTEX
  8
0
  5
222
 10
125.705
 20
14.2271
 30
0.000000
  70
    32
  0
VERTEX
  8
0
  5
223
 10
127.779
 20
16.8530
 30
0.000000
  70
    32
  0
VERTEX
  8
0
  5
224
 10
129.785
 20
19.6792
 30
0.000000
  70
    32
  0
VERTEX
  8
0
  5
225
 10
131.720
 20
22.6990
 30
0.000000
  70
    32
  0
VERTEX
  8
0
  5
226
 10
133.578
 20
25.9049
 30
0.000000
  70
    32
  0
VERTEX
  8
0
  5
227
 10
135.355
 20
29.2893
 30
0.000000
  70
    32
  0
VERTEX
  8
0
  5
228
 10
137.048
 20
32.8441
 30
0.000000
  70
    32
  0
VERTEX
  8
0
  5
229
 10
138.651
 20
36.5607
 30
0.000000
  70
    32
  0
VERTEX
  8
0
  5
22A
 10
140.160
 20
40.4301
 30
0.000000
  70
    32
  0
VERTEX
  8
0
  5
22B
 10
141.573
 20
44.4430
 30
0.000000
  70
    32
  0
VERTEX
  8
0
  5
22C
 10
142.886
 20
48.5897
 30
0.000000
  70
    32
  0
VERTEX
  8
0
  5
22D
 10
144.096
 20
52.8603
 30
0.000000
  70
    32
  0
VERTEX
  8
0
  5
22E
 10
145.199
 20
57.2445
 30
0.000000
  70
    32
  0
VERTEX
  8
0
  5
22F
 10
146.194
 20
61.7317
 30
0.000000
  70
    32
  0
VERTEX
  8
0
  5
230
 10
147.077
 20
66.3110
 30
0.000000
  70
    32
  0
VERTEX
  8
0
  5
231
 10
147.847
 20
70.9715
 30
0.000000
  70
    32
  0
VERTEX
  8
0
  5
232
 10
148.502
 20
75.7020
 30
0.000000
  70
    32
  0
VERTEX
  8
0
  5
233
 10
149.039
 20
80.4910
 30
0.000000
  70
    32
  0
VERTEX
  8
0
  5
234
 10
149.459
 20
85.3270
 30
0.000000
  70
    32
  0
VERTEX
  8
0
  5
235
 10
149.759
 20
90.1983
 30
0.000000
  70
    32
  0
VERTEX
  8
0
  5
236
 10
149.940
 20
95.0932
 30
0.000000
  70
    32
  0
VERTEX
  8
0
  5
237
 10
150.000
 20
100.000
 30
0.000000
  70
    32
  0
VERTEX
  8
0
  5
238
 10
149.940
 20
104.907
 30
0.000000
  70
    32
  0
VERTEX
  8
0
  5
239
 10
149.759
 20
109.802
 30
0.000000
  70
    32
  0
VERTEX
  8
0
  5
23A
 10
149.459
 20
114.673
 30
0.000000
  70
    32
  0
VERTEX
  8
0
  5
23B
 10
149.039
 20
119.509
 30
0.000000
  70
    32
  0
VERTEX
  8
0
  5
23C
 10
148.502
 20
124.298
 30
0.000000
  70
    32
  0
VERTEX
  8
0
  5
23D
 10
147.847
 20
129.028
 30
0.000000
  70
    32
  0
VERTEX
  8
0
  5
23E
 10
147.077
 20
133.689
 30
0.000000
  70
    32
  0
VERTEX
  8
0
  5
23F
 10
146.194
 20
138.268
 30
0.000000
  70
    32
  0
VERTEX
  8
0
  5
240
 10
145.199
 20
142.756
 30
0.000000
  70
    32
  0
VERTEX
  8
0
  5
241
 10
144.096
 20
147.140
 30
0.000000
  70
    32
  0
VERTEX
  8
0
  5
242
 10
142.886
 20
151.410
 30
0.000000
  70
    32
  0
VERTEX
  8
0
  5
243
 10
141.573
 20
155.557
 30
0.000000
  70
    32
  0
VERTEX
  8
0
  5
244
 10
140.160
 20
159.570
 30
0.000000
  70
    32
  0
VERTEX
  8
0
  5
245
 10
138.651
 20
163.439
 30
0.000000
  70
    32
  0
VERTEX
  8
0
  5
246
 10
137.048
 20
167.156
 30
0.000000
  70
    32
  0
VERTEX
  8
0
  5
247
 10
135.355
 20
170.711
 30
0.000000
  70
    32
  0
VERTEX
  8
0
  5
248
 10
133.578
 20
174.095
 30
0.000000
  70
    32
  0
VERTEX
  8
0
  5
249
 10
131.720
 20
177.301
 30
0.000000
  70
    32
  0
VERTEX
  8
0
  5
24A
 10
129.785
 20
180.321
 30
0.000000
  70
    32
  0
VERTEX
  8
0
  5
24B
 10
127.779
 20
183.147
 30
0.000000
  70
    32
  0
VERTEX
  8
0
  5
24C
 10
125.705
 20
185.773
 30
0.000000
  70
    32
  0
VERTEX
  8
0
  5
24D
 10
123.570
 20
188.192
 30
0.000000
  70
    32
  0
VERTEX
  8
0
  5
24E
 10
121.378
 20
190.399
 30
0.000000
  70
    32
  0
VERTEX
  8
0
  5
24F
 10
119.134
 20
192.388
 30
0.000000
  70
    32
  0
VERTEX
  8
0
  5
250
 10
116.844
 20
194.154
 30
0.000000
  70
    32
  0
VERTEX
  8
0
  5
251
 10
114.514
 20
195.694
 30
0.000000
  70
    32
  0
VERTEX
  8
0
  5
252
 10
112.149
 20
197.003
 30
0.000000
  70
    32
  0
VERTEX
  8
0
  5
253
 10
109.755
 20
198.079
 30
0.000000
  70
    32
  0
VERTEX
  8
0
  5
254
 10
107.337
 20
198.918
 30
0.000000
  70
    32
  0
VERTEX
  8
0
  5
255
 10
104.901
 20
199.518
 30
0.000000
  70
    32
  0
VERTEX
  8
0
  5
256
 10
102.453
 20
199.880
 30
0.000000
  70
    32
  0
VERTEX
  8
0
  5
257
 10
100.000
 20
200.000
 30
0.000000
  70
    32
  0
SEQEND
  8
0
  5
258
  0
POLYLINE
  5
132
  8
0
 10
0.0
 20
100.00000000000001
 30
0.0
 66
     1
 70
     8
  0
VERTEX
  8
0
  5
259
 10
0.000000
 20
100.000
 30
0.000000
  70
    32
  0
VERTEX
  8
0
  5
25A
 10
0.120454
 20
97.5466
 30
0.000000
  70
    32
  0
VERTEX
  8
0
  5
25B
 10
0.481527
 20
95.0991
 30
0.000000
  70
    32
  0
VERTEX
  8
0
  5
25C
 10
1.08235
 20
92.6635
 30
0.000000
  70
    32
  0
VERTEX
  8
0
  5
25D
 10
1.92147
 20
90.2455
 30
0.000000
  70
    32
  0
VERTEX
  8
0
  5
25E
 10
2.99687
 20
87.8510
 30
0.000000
  70
    32
  0
VERTEX
  8
0
  5
25F
 10
4.30597
 20
85.4858
 30
0.000000
  70
    32
  0
VERTEX
  8
0
  5
260
 10
5.84559
 20
83.1555
 30
0.000000
  70
    32
  0
VERTEX
  8
0
  5
261
 10
7.61205
 20
80.8658
 30
0.000000
  70
    32
  0
VERTEX
  8
0
  5
262
 10
9.60107
 20
78.6222
 30
0.000000
  70
    32
  0
VERTEX
  8
0
  5
263
 10
11.8079
 20
76.4302
 30
0.000000
  70
    32
  0
VERTEX
  8
0
  5
264
 10
14.2271
 20
74.2949
 30
0.000000
  70
    32
  0
VERTEX
  8
0
  5
265
 10
16.8530
 20
72.2215
 30
0.000000
  70
    32
  0
VERTEX
  8
0
  5
266
 10
19.6792
 20
70.2150
 30
0.000000
  70
    32
  0
VERTEX
  8
0
  5
267
 10
22.6990
 20
68.2803
 30
0.000000
  70
    32
  0
VERTEX
  8
0
  5
268
 10
25.9049
 20
66.4221
 30
0.000000
  70
    32
  0
VERTEX
  8
0
  5
269
 10
29.2893
 20
64.6447
 30
0.000000
  70
    32
  0
VERTEX
  8
0
  5
26A
 10
32.8441
 20
62.9524
 30
0.000000
  70
    32
  0
VERTEX
  8
0
  5
26B
 10
36.5607
 20
61.3495
 30
0.000000
  70
    32
  0
VERTEX
  8
0
  5
26C
 10
40.4301
 20
59.8396
 30
0.000000
  70
    32
  0
VERTEX
  8
0
  5
26D
 10
44.4430
 20
58.4265
 30
0.000000
  70
    32
  0
VERTEX
  8
0
  5
26E
 10
48.5897
 20
57.1136
 30
0.000000
  70
    32
  0
VERTEX
  8
0
  5
26F
 10
52.8603
 20
55.9039
 30
0.000000
  70
    32
  0
VERTEX
  8
0
  5
270
 10
57.2445
 20
54.8005
 30
0.000000
  70
    32
  0
VERTEX
  8
0
  5
271
 10
61.7317
 20
53.8060
 30
0.000000
  70
    32
  0
VERTEX
  8
0
  5
272
 10
66.3110
 20
52.9228
 30
0.000000
  70
    32
  0
VERTEX
  8
0
  5
273
 10
70.9715
 20
52.1530
 30
0.000000
  70
    32
  0
VERTEX
  8
0
  5
274
 10
75.7020
 20
51.4984
 30
0.000000
  70
    32
  0
VERTEX
  8
0
  5
275
 10
80.4910
 20
50.9607
 30
0.000000
  70
    32
  0
VERTEX
  8
0
  5
276
 10
85.3270
 20
50.5412
 30
0.000000
  70
    32
  0
VERTEX
  8
0
  5
277
 10
90.1983
 20
50.2408
 30
0.000000
  70
    32
  0
VERTEX
  8
0
  5
278
 10
95.0932
 20
50.0602
 30
0.000000
  70
    32
  0
VERTEX
  8
0
  5
279
 10
100.000
 20
50.0000
 30
0.000000
  70
    32
  0
VERTEX
  8
0
  5
27A
 10
104.907
 20
50.0602
 30
0.000000
  70
    32
  0
VERTEX
  8
0
  5
27B
 10
109.802
 20
50.2408
 30
0.000000
  70
    32
  0
VERTEX
  8
0
  5
27C
 10
114.673
 20
50.5412
 30
0.000000
  70
    32
  0
VERTEX
  8
0
  5
27D
 10
119.509
 20
50.9607
 30
0.000000
  70
    32
  0
VERTEX
  8
0
  5
27E
 10
124.298
 20
51.4984
 30
0.000000
  70
    32
  0
VERTEX
  8
0
  5
27F
 10
129.028
 20
52.1530
 30
0.000000
  70
    32
  0
VERTEX
  8
0
  5
280
 10
133.689
 20
52.9228
 30
0.000000
  70
    32
  0
VERTEX
  8
0
  5
281
 10
138.268
 20
53.8060
 30
0.000000
  70
    32
  0
VERTEX
  8
0
  5
282
 10
142.756
 20
54.8005
 30
0.000000
  70
    32
  0
VERTEX
  8
0
  5
283
 10
147.140
 20
55.9039
 30
0.000000
  70
    32
  0
VERTEX
  8
0
  5
284
 10
151.410
 20
57.1136
 30
0.000000
  70
    32
  0
VERTEX
  8
0
  5
285
 10
155.557
 20
58.4265
 30
0.000000
  70
    32
  0
VERTEX
  8
0
  5
286
 10
159.570
 20
59.8396
 30
0.000000
  70
    32
  0
VERTEX
  8
0
  5
287
 10
163.439
 20
61.3495
 30
0.000000
  70
    32
  0
VERTEX
  8
0
  5
288
 10
167.156
 20
62.9524
 30
0.000000
  70
    32
  0
VERTEX
  8
0
  5
289
 10
170.711
 20
64.6447
 30
0.000000
  70
    32
  0
VERTEX
  8
0
  5
28A
 10
174.095
 20
66.4221
 30
0.000000
  70
    32
  0
VERTEX
  8
0
  5
28B
 10
177.301
 20
68.2803
 30
0.000000
  70
    32
  0
VERTEX
  8
0
  5
28C
 10
180.321
 20
70.2150
 30
0.000000
  70
    32
  0
VERTEX
  8
0
  5
28D
 10
183.147
 20
72.2215
 30
0.000000
  70
    32
  0
VERTEX
  8
0
  5
28E
 10
185.773
 20
74.2949
 30
0.000000
  70
    32
  0
VERTEX
  8
0
  5
28F
 10
188.192
 20
76.4302
 30
0.000000
  70
    32
  0
VERTEX
  8
0
  5
290
 10
190.399
 20
78.6222
 30
0.000000
  70
    32
  0
VERTEX
  8
0
  5
291
 10
192.388
 20
80.8658
 30
0.000000
  70
    32
  0
VERTEX
  8
0
  5
292
 10
194.154
 20
83.1555
 30
0.000000
  70
    32
  0
VERTEX
  8
0
  5
293
 10
195.694
 20
85.4858
 30
0.000000
  70
    32
  0
VERTEX
  8
0
  5
294
 10
197.003
 20
87.8510
 30
0.000000
  70
    32
  0
VERTEX
  8
0
  5
295
 10
198.079
 20
90.2455
 30
0.000000
  70
    32
  0
VERTEX
  8
0
  5
296
 10
198.918
 20
92.6635
 30
0.000000
  70
    32
  0
VERTEX
  8
0
  5
297
 10
199.518
 20
95.0991
 30
0.000000
  70
    32
  0
VERTEX
  8
0
  5
298
 10
199.880
 20
97.5466
 30
0.000000
  70
    32
  0
VERTEX
  8
0
  5
299
 10
200.000
 20
100.000
 30
0.000000
  70
    32
  0
VERTEX
  8
0
  5
29A
 10
199.880
 20
102.453
 30
0.000000
  70
    32
  0
VERTEX
  8
0
  5
29B
 10
199.518
 20
104.901
 30
0.000000
  70
    32
  0
VERTEX
  8
0
  5
29C
 10
198.918
 20
107.337
 30
0.000000
  70
    32
  0
VERTEX
  8
0
  5
29D
 10
198.079
 20
109.755
 30
0.000000
  70
    32
  0
VERTEX
  8
0
  5
29E
 10
197.003
 20
112.149
 30
0.000000
  70
    32
  0
VERTEX
  8
0
  5
29F
 10
195.694
 20
114.514
 30
0.000000
  70
    32
  0
VERTEX
  8
0
  5
2A0
 10
194.154
 20
116.844
 30
0.000000
  70
    32
  0
VERTEX
  8
0
  5
2A1
 10
192.388
 20
119.134
 30
0.000000
  70
    32
  0
VERTEX
  8
0
  5
2A2
 10
190.399
 20
121.378
 30
0.000000
  70
    32
  0
VERTEX
  8
0
  5
2A3
 10
188.192
 20
123.570
 30
0.000000
  70
    32
  0
VERTEX
  8
0
  5
2A4
 10
185.773
 20
125.705
 30
0.000000
  70
    32
  0
VERTEX
  8
0
  5
2A5
 10
183.147
 20
127.779
 30
0.000000
  70
    32
  0
VERTEX
  8
0
  5
2A6
 10
180.321
 20
129.785
 30
0.000000
  70
    32
  0
VERTEX
  8
0
  5
2A7
 10
177.301
 20
131.720
 30
0.000000
  70
    32
  0
VERTEX
  8
0
  5
2A8
 10
174.095
 20
133.578
 30
0.000000
  70
    32
  0
VERTEX
  8
0
  5
2A9
 10
170.711
 20
135.355
 30
0.000000
  70
    32
  0
VERTEX
  8
0
  5
2AA
 10
167.156
 20
137.048
 30
0.000000
  70
    32
  0
VERTEX
  8
0
  5
2AB
 10
163.439
 20
138.651
 30
0.000000
  70
    32
  0
VERTEX
  8
0
  5
2AC
 10
159.570
 20
140.160
 30
0.000000
  70
    32
  0
VERTEX
  8
0
  5
2AD
 10
155.557
 20
141.573
 30
0.000000
  70
    32
  0
VERTEX
  8
0
  5
2AE
 10
151.410
 20
142.886
 30
0.000000
  70
    32
  0
VERTEX
  8
0
  5
2AF
 10
147.140
 20
144.096
 30
0.000000
  70
    32
  0
VERTEX
  8
0
  5
2B0
 10
142.756
 20
145.199
 30
0.000000
  70
    32
  0
VERTEX
  8
0
  5
2B1
 10
138.268
 20
146.194
 30
0.000000
  70
    32
  0
VERTEX
  8
0
  5
2B2
 10
133.689
 20
147.077
 30
0.000000
  70
    32
  0
VERTEX
  8
0
  5
2B3
 10
129.028
 20
147.847
 30
0.000000
  70
    32
  0
VERTEX
  8
0
  5
2B4
 10
124.298
 20
148.502
 30
0.000000
  70
    32
  0
VERTEX
  8
0
  5
2B5
 10
119.509
 20
149.039
 30
0.000000
  70
    32
  0
VERTEX
  8
0
  5
2B6
 10
114.673
 20
149.459
 30
0.000000
  70
    32
  0
VERTEX
  8
0
  5
2B7
 10
109.802
 20
149.759
 30
0.000000
  70
    32
  0
VERTEX
  8
0
  5
2B8
 10
104.907
 20
149.940
 30
0.000000
  70
    32
  0
VERTEX
  8
0
  5
2B9
 10
100.000
 20
150.000
 30
0.000000
  70
    32
  0
VERTEX
  8
0
  5
2BA
 10
95.0932
 20
149.940
 30
0.000000
  70
    32
  0
VERTEX
  8
0
  5
2BB
 10
90.1983
 20
149.759
 30
0.000000
  70
    32
  0
VERTEX
  8
0
  5
2BC
 10
85.3270
 20
149.459
 30
0.000000
  70
    32
  0
VERTEX
  8
0
  5
2BD
 10
80.4910
 20
149.039
 30
0.000000
  70
    32
  0
VERTEX
  8
0
  5
2BE
 10
75.7020
 20
148.502
 30
0.000000
  70
    32
  0
VERTEX
  8
0
  5
2BF
 10
70.9715
 20
147.847
 30
0.000000
  70
    32
  0
VERTEX
  8
0
  5
2C0
 10
66.3110
 20
147.077
 30
0.000000
  70
    32
  0
VERTEX
  8
0
  5
2C1
 10
61.7317
 20
146.194
 30
0.000000
  70
    32
  0
VERTEX
  8
0
  5
2C2
 10
57.2445
 20
145.199
 30
0.000000
  70
    32
  0
VERTEX
  8
0
  5
2C3
 10
52.8603
 20
144.096
 30
0.000000
  70
    32
  0
VERTEX
  8
0
  5
2C4
 10
48.5897
 20
142.886
 30
0.000000
  70
    32
  0
VERTEX
  8
0
  5
2C5
 10
44.4430
 20
141.573
 30
0.000000
  70
    32
  0
VERTEX
  8
0
  5
2C6
 10
40.4301
 20
140.160
 30
0.000000
  70
    32
  0
VERTEX
  8
0
  5
2C7
 10
36.5607
 20
138.651
 30
0.000000
  70
    32
  0
VERTEX
  8
0
  5
2C8
 10
32.8441
 20
137.048
 30
0.000000
  70
    32
  0
VERTEX
  8
0
  5
2C9
 10
29.2893
 20
135.355
 30
0.000000
  70
    32
  0
VERTEX
  8
0
  5
2CA
 10
25.9049
 20
133.578
 30
0.000000
  70
    32
  0
VERTEX
  8
0
  5
2CB
 10
22.6990
 20
131.720
 30
0.000000
  70
    32
  0
VERTEX
  8
0
  5
2CC
 10
19.6792
 20
129.785
 30
0.000000
  70
    32
  0
VERTEX
  8
0
  5
2CD
 10
16.8530
 20
127.779
 30
0.000000
  70
    32
  0
VERTEX
  8
0
  5
2CE
 10
14.2271
 20
125.705
 30
0.000000
  70
    32
  0
VERTEX
  8
0
  5
2CF
 10
11.8079
 20
123.570
 30
0.000000
  70
    32
  0
VERTEX
  8
0
  5
2D0
 10
9.60107
 20
121.378
 30
0.000000
  70
    32
  0
VERTEX
  8
0
  5
2D1
 10
7.61205
 20
119.134
 30
0.000000
  70
    32
  0
VERTEX
  8
0
  5
2D2
 10
5.84559
 20
116.844
 30
0.000000
  70
    32
  0
VERTEX
  8
0
  5
2D3
 10
4.30597
 20
114.514
 30
0.000000
  70
    32
  0
VERTEX
  8
0
  5
2D4
 10
2.99687
 20
112.149
 30
0.000000
  70
    32
  0
VERTEX
  8
0
  5
2D5
 10
1.92147
 20
109.755
 30
0.000000
  70
    32
  0
VERTEX
  8
0
  5
2D6
 10
1.08235
 20
107.337
 30
0.000000
  70
    32
  0
VERTEX
  8
0
  5
2D7
 10
0.481527
 20
104.901
 30
0.000000
  70
    32
  0
VERTEX
  8
0
  5
2D8
 10
0.120454
 20
102.453
 30
0.000000
  70
    32
  0
VERTEX
  8
0
  5
2D9
 10
0.000000
 20
100.000
 30
0.000000
  70
    32
  0
SEQEND
  8
0
  5
2DA
  0
CIRCLE
  5
1B5
  8
0
 10
100.0
 20
100.0
 30
0.0
 40
63.245553203340762
  0
ENDSEC
  0
EOF
